G04 #@! TF.GenerationSoftware,KiCad,Pcbnew,(5.0.0)*
G04 #@! TF.CreationDate,2019-07-10T12:20:45+09:00*
G04 #@! TF.ProjectId,MainCircuit_v2_top,4D61696E436972637569745F76325F74,rev?*
G04 #@! TF.SameCoordinates,PX61d8d40PY6e87e60*
G04 #@! TF.FileFunction,Copper,L2,Bot,Signal*
G04 #@! TF.FilePolarity,Positive*
%FSLAX46Y46*%
G04 Gerber Fmt 4.6, Leading zero omitted, Abs format (unit mm)*
G04 Created by KiCad (PCBNEW (5.0.0)) date 07/10/19 12:20:45*
%MOMM*%
%LPD*%
G01*
G04 APERTURE LIST*
G04 #@! TA.AperFunction,ComponentPad*
%ADD10R,1.524000X1.524000*%
G04 #@! TD*
G04 #@! TA.AperFunction,ComponentPad*
%ADD11C,1.524000*%
G04 #@! TD*
G04 #@! TA.AperFunction,SMDPad,CuDef*
%ADD12R,0.800000X0.700000*%
G04 #@! TD*
G04 #@! TA.AperFunction,SMDPad,CuDef*
%ADD13R,0.700000X0.800000*%
G04 #@! TD*
G04 #@! TA.AperFunction,SMDPad,CuDef*
%ADD14R,1.250000X0.230000*%
G04 #@! TD*
G04 #@! TA.AperFunction,SMDPad,CuDef*
%ADD15R,2.000000X1.800000*%
G04 #@! TD*
G04 #@! TA.AperFunction,SMDPad,CuDef*
%ADD16R,2.000000X2.200000*%
G04 #@! TD*
G04 #@! TA.AperFunction,SMDPad,CuDef*
%ADD17R,0.800000X0.500000*%
G04 #@! TD*
G04 #@! TA.AperFunction,SMDPad,CuDef*
%ADD18R,0.500000X0.800000*%
G04 #@! TD*
G04 #@! TA.AperFunction,SMDPad,CuDef*
%ADD19R,0.250000X0.500000*%
G04 #@! TD*
G04 #@! TA.AperFunction,SMDPad,CuDef*
%ADD20R,1.000000X1.200000*%
G04 #@! TD*
G04 #@! TA.AperFunction,SMDPad,CuDef*
%ADD21R,0.650000X1.400000*%
G04 #@! TD*
G04 #@! TA.AperFunction,SMDPad,CuDef*
%ADD22R,0.700000X1.200000*%
G04 #@! TD*
G04 #@! TA.AperFunction,SMDPad,CuDef*
%ADD23R,1.000000X0.800000*%
G04 #@! TD*
G04 #@! TA.AperFunction,SMDPad,CuDef*
%ADD24R,1.000000X2.800000*%
G04 #@! TD*
G04 #@! TA.AperFunction,SMDPad,CuDef*
%ADD25R,1.300000X1.900000*%
G04 #@! TD*
G04 #@! TA.AperFunction,SMDPad,CuDef*
%ADD26R,2.000000X0.410000*%
G04 #@! TD*
G04 #@! TA.AperFunction,SMDPad,CuDef*
%ADD27R,0.230000X1.250000*%
G04 #@! TD*
G04 #@! TA.AperFunction,SMDPad,CuDef*
%ADD28R,1.800000X2.000000*%
G04 #@! TD*
G04 #@! TA.AperFunction,SMDPad,CuDef*
%ADD29R,2.200000X2.000000*%
G04 #@! TD*
G04 #@! TA.AperFunction,ViaPad*
%ADD30C,0.800000*%
G04 #@! TD*
G04 #@! TA.AperFunction,Conductor*
%ADD31C,0.210000*%
G04 #@! TD*
G04 #@! TA.AperFunction,Conductor*
%ADD32C,0.200000*%
G04 #@! TD*
G04 #@! TA.AperFunction,Conductor*
%ADD33C,0.400000*%
G04 #@! TD*
G04 #@! TA.AperFunction,Conductor*
%ADD34C,0.254000*%
G04 #@! TD*
G04 APERTURE END LIST*
D10*
G04 #@! TO.P,SW4,1*
G04 #@! TO.N,R_SW1*
X3700000Y17900000D03*
D11*
G04 #@! TO.P,SW4,C*
G04 #@! TO.N,GND*
X6240000Y17900000D03*
G04 #@! TO.P,SW4,8*
G04 #@! TO.N,R_SW8*
X8780000Y17900000D03*
G04 #@! TO.P,SW4,4*
G04 #@! TO.N,R_SW4*
X3700000Y10280000D03*
G04 #@! TO.P,SW4,C*
G04 #@! TO.N,GND*
X6240000Y10280000D03*
G04 #@! TO.P,SW4,2*
G04 #@! TO.N,R_SW2*
X8780000Y10280000D03*
G04 #@! TD*
D12*
G04 #@! TO.P,C1,1*
G04 #@! TO.N,+3V3*
X32600000Y22525000D03*
G04 #@! TO.P,C1,2*
G04 #@! TO.N,GND*
X32600000Y24025000D03*
G04 #@! TD*
G04 #@! TO.P,C3,1*
G04 #@! TO.N,+3V3*
X32600000Y18300000D03*
G04 #@! TO.P,C3,2*
G04 #@! TO.N,GND*
X32600000Y19800000D03*
G04 #@! TD*
G04 #@! TO.P,C4,1*
G04 #@! TO.N,GND*
X36700000Y14800000D03*
G04 #@! TO.P,C4,2*
G04 #@! TO.N,Net-(C4-Pad2)*
X36700000Y13300000D03*
G04 #@! TD*
D13*
G04 #@! TO.P,C6,1*
G04 #@! TO.N,GND*
X40350000Y22050000D03*
G04 #@! TO.P,C6,2*
G04 #@! TO.N,+3V3*
X38850000Y22050000D03*
G04 #@! TD*
G04 #@! TO.P,C7,1*
G04 #@! TO.N,+3V3*
X43700000Y7500000D03*
G04 #@! TO.P,C7,2*
G04 #@! TO.N,GND*
X42200000Y7500000D03*
G04 #@! TD*
G04 #@! TO.P,C8,1*
G04 #@! TO.N,Net-(C8-Pad1)*
X47300000Y6100000D03*
G04 #@! TO.P,C8,2*
G04 #@! TO.N,GND*
X48800000Y6100000D03*
G04 #@! TD*
G04 #@! TO.P,C9,1*
G04 #@! TO.N,+3V3*
X50275000Y7500000D03*
G04 #@! TO.P,C9,2*
G04 #@! TO.N,GND*
X48775000Y7500000D03*
G04 #@! TD*
G04 #@! TO.P,C10,1*
G04 #@! TO.N,+3V3*
X52225000Y22300000D03*
G04 #@! TO.P,C10,2*
G04 #@! TO.N,GND*
X53725000Y22300000D03*
G04 #@! TD*
G04 #@! TO.P,C18,1*
G04 #@! TO.N,+3V3*
X61525000Y30400000D03*
G04 #@! TO.P,C18,2*
G04 #@! TO.N,GND*
X63025000Y30400000D03*
G04 #@! TD*
G04 #@! TO.P,C19,2*
G04 #@! TO.N,GND*
X27125000Y31850000D03*
G04 #@! TO.P,C19,1*
G04 #@! TO.N,+5V*
X25625000Y31850000D03*
G04 #@! TD*
G04 #@! TO.P,C21,2*
G04 #@! TO.N,GND*
X36425000Y31350000D03*
G04 #@! TO.P,C21,1*
G04 #@! TO.N,+5V*
X34925000Y31350000D03*
G04 #@! TD*
D14*
G04 #@! TO.P,J1,14*
G04 #@! TO.N,+3V3*
X85800000Y15800000D03*
G04 #@! TO.P,J1,13*
X85800000Y15300000D03*
G04 #@! TO.P,J1,12*
G04 #@! TO.N,+5V*
X85800000Y14800000D03*
G04 #@! TO.P,J1,11*
G04 #@! TO.N,DIR_MAXON1*
X85800000Y14300000D03*
G04 #@! TO.P,J1,10*
G04 #@! TO.N,SR_MAXON1*
X85800000Y13800000D03*
G04 #@! TO.P,J1,9*
G04 #@! TO.N,PWM_MAXON1*
X85800000Y13300000D03*
G04 #@! TO.P,J1,8*
G04 #@! TO.N,DIR_MAXON2*
X85800000Y12800000D03*
G04 #@! TO.P,J1,7*
G04 #@! TO.N,SR_MAXON2*
X85800000Y12300000D03*
G04 #@! TO.P,J1,6*
G04 #@! TO.N,PWM_MAXON2*
X85800000Y11800000D03*
G04 #@! TO.P,J1,5*
G04 #@! TO.N,DIR_VCM_after*
X85800000Y11300000D03*
G04 #@! TO.P,J1,4*
G04 #@! TO.N,SR_VCM_after*
X85800000Y10800000D03*
G04 #@! TO.P,J1,3*
G04 #@! TO.N,PWM_VCM_after*
X85800000Y10300000D03*
G04 #@! TO.P,J1,2*
G04 #@! TO.N,GND*
X85800000Y9800000D03*
D15*
G04 #@! TO.P,J1,*
G04 #@! TO.N,*
X88475000Y7650000D03*
X88475000Y17450000D03*
D14*
G04 #@! TO.P,J1,1*
G04 #@! TO.N,GND*
X85800000Y9300000D03*
D16*
G04 #@! TO.P,J1,*
G04 #@! TO.N,*
X88475000Y17450000D03*
X88475000Y7650000D03*
G04 #@! TD*
D17*
G04 #@! TO.P,L1,2*
G04 #@! TO.N,+3V3*
X35000000Y14800000D03*
G04 #@! TO.P,L1,1*
G04 #@! TO.N,Net-(C4-Pad2)*
X35000000Y13300000D03*
G04 #@! TD*
D18*
G04 #@! TO.P,R6,2*
G04 #@! TO.N,Net-(R6-Pad2)*
X40350000Y23450000D03*
G04 #@! TO.P,R6,1*
G04 #@! TO.N,GND*
X38850000Y23450000D03*
G04 #@! TD*
D17*
G04 #@! TO.P,R19,2*
G04 #@! TO.N,Net-(R19-Pad2)*
X23400000Y18500000D03*
G04 #@! TO.P,R19,1*
G04 #@! TO.N,+3V3*
X23400000Y20000000D03*
G04 #@! TD*
D18*
G04 #@! TO.P,R20,2*
G04 #@! TO.N,INSERT_SD*
X27300000Y9200000D03*
G04 #@! TO.P,R20,1*
G04 #@! TO.N,+3V3*
X28800000Y9200000D03*
G04 #@! TD*
G04 #@! TO.P,R21,2*
G04 #@! TO.N,Net-(R21-Pad2)*
X15600000Y19000000D03*
G04 #@! TO.P,R21,1*
G04 #@! TO.N,+3V3*
X14100000Y19000000D03*
G04 #@! TD*
D17*
G04 #@! TO.P,R22,2*
G04 #@! TO.N,LED_R*
X47500000Y3400000D03*
G04 #@! TO.P,R22,1*
G04 #@! TO.N,Net-(LED1-Pad2)*
X47500000Y1900000D03*
G04 #@! TD*
G04 #@! TO.P,R23,2*
G04 #@! TO.N,LED_G*
X45500000Y3400000D03*
G04 #@! TO.P,R23,1*
G04 #@! TO.N,Net-(LED1-Pad4)*
X45500000Y1900000D03*
G04 #@! TD*
G04 #@! TO.P,R24,2*
G04 #@! TO.N,LED_B*
X43500000Y3400000D03*
G04 #@! TO.P,R24,1*
G04 #@! TO.N,Net-(LED1-Pad3)*
X43500000Y1900000D03*
G04 #@! TD*
D19*
G04 #@! TO.P,RN2,2*
G04 #@! TO.N,ENCORDER_1A*
X30670000Y29240000D03*
G04 #@! TO.P,RN2,3*
G04 #@! TO.N,ENCORDER_2B*
X31170000Y29240000D03*
G04 #@! TO.P,RN2,6*
G04 #@! TO.N,+5V*
X31170000Y28240000D03*
G04 #@! TO.P,RN2,7*
X30670000Y28240000D03*
G04 #@! TO.P,RN2,5*
X31670000Y28240000D03*
G04 #@! TO.P,RN2,1*
G04 #@! TO.N,ENCORDER_1B*
X30170000Y29240000D03*
G04 #@! TO.P,RN2,8*
G04 #@! TO.N,+5V*
X30170000Y28240000D03*
G04 #@! TO.P,RN2,4*
G04 #@! TO.N,ENCORDER_2A*
X31670000Y29240000D03*
G04 #@! TD*
D20*
G04 #@! TO.P,Y1,4*
G04 #@! TO.N,+3V3*
X36100000Y22600000D03*
G04 #@! TO.P,Y1,3*
G04 #@! TO.N,RTC_IN*
X36100000Y24800000D03*
G04 #@! TO.P,Y1,2*
G04 #@! TO.N,GND*
X34200000Y24800000D03*
G04 #@! TO.P,Y1,1*
G04 #@! TO.N,+3V3*
X34200000Y22600000D03*
G04 #@! TD*
D21*
G04 #@! TO.P,Y2,1*
G04 #@! TO.N,Net-(Y2-Pad1)*
X34600000Y20425000D03*
G04 #@! TO.P,Y2,2*
G04 #@! TO.N,GND*
X36250000Y20425000D03*
G04 #@! TO.P,Y2,4*
G04 #@! TO.N,+3V3*
X34600000Y18220000D03*
G04 #@! TO.P,Y2,3*
G04 #@! TO.N,OSC_IN*
X36250000Y18220000D03*
G04 #@! TD*
D19*
G04 #@! TO.P,RN3,4*
G04 #@! TO.N,CS_SD*
X16730000Y21290000D03*
G04 #@! TO.P,RN3,8*
G04 #@! TO.N,+3V3*
X18230000Y22290000D03*
G04 #@! TO.P,RN3,1*
G04 #@! TO.N,MISO_SD*
X18230000Y21290000D03*
G04 #@! TO.P,RN3,5*
G04 #@! TO.N,+3V3*
X16730000Y22290000D03*
G04 #@! TO.P,RN3,7*
X17730000Y22290000D03*
G04 #@! TO.P,RN3,6*
X17230000Y22290000D03*
G04 #@! TO.P,RN3,3*
G04 #@! TO.N,MOSI_SD*
X17230000Y21290000D03*
G04 #@! TO.P,RN3,2*
G04 #@! TO.N,SCK_SD*
X17730000Y21290000D03*
G04 #@! TD*
D20*
G04 #@! TO.P,U3,11*
G04 #@! TO.N,GND*
X14100000Y16800000D03*
D22*
G04 #@! TO.P,U3,8*
G04 #@! TO.N,Net-(R19-Pad2)*
X23350000Y16800000D03*
G04 #@! TO.P,U3,2*
G04 #@! TO.N,CS_SD*
X16750000Y16800000D03*
G04 #@! TO.P,U3,3*
G04 #@! TO.N,MOSI_SD*
X17850000Y16800000D03*
G04 #@! TO.P,U3,4*
G04 #@! TO.N,+3V3*
X18950000Y16800000D03*
G04 #@! TO.P,U3,5*
G04 #@! TO.N,SCK_SD*
X20050000Y16800000D03*
G04 #@! TO.P,U3,6*
G04 #@! TO.N,GND*
X21150000Y16800000D03*
G04 #@! TO.P,U3,7*
G04 #@! TO.N,MISO_SD*
X22250000Y16800000D03*
G04 #@! TO.P,U3,1*
G04 #@! TO.N,Net-(R21-Pad2)*
X15650000Y16800000D03*
G04 #@! TO.P,U3,9*
G04 #@! TO.N,GND*
X24300000Y16800000D03*
D23*
G04 #@! TO.P,U3,10*
G04 #@! TO.N,INSERT_SD*
X25250000Y6300000D03*
D20*
G04 #@! TO.P,U3,11*
G04 #@! TO.N,GND*
X25250000Y12500000D03*
D24*
X25250000Y2150000D03*
D25*
X11750000Y1700000D03*
G04 #@! TD*
D13*
G04 #@! TO.P,C24,1*
G04 #@! TO.N,+3V3*
X60500000Y13600000D03*
G04 #@! TO.P,C24,2*
G04 #@! TO.N,GND*
X62000000Y13600000D03*
G04 #@! TD*
G04 #@! TO.P,C25,2*
G04 #@! TO.N,GND*
X62200000Y3500000D03*
G04 #@! TO.P,C25,1*
G04 #@! TO.N,+3V3*
X63700000Y3500000D03*
G04 #@! TD*
G04 #@! TO.P,C26,2*
G04 #@! TO.N,GND*
X70675000Y13700000D03*
G04 #@! TO.P,C26,1*
G04 #@! TO.N,+3V3*
X72175000Y13700000D03*
G04 #@! TD*
G04 #@! TO.P,C27,1*
G04 #@! TO.N,+3V3*
X69025000Y3500000D03*
G04 #@! TO.P,C27,2*
G04 #@! TO.N,GND*
X70525000Y3500000D03*
G04 #@! TD*
D26*
G04 #@! TO.P,U4,20*
G04 #@! TO.N,+3V3*
X69000000Y6095000D03*
G04 #@! TO.P,U4,1*
X63691400Y6095000D03*
G04 #@! TO.P,U4,6*
G04 #@! TO.N,Net-(U4-Pad6)*
X63691400Y9270000D03*
G04 #@! TO.P,U4,12*
G04 #@! TO.N,Net-(U4-Pad12)*
X69000000Y11175000D03*
G04 #@! TO.P,U4,16*
G04 #@! TO.N,DIR_VCM_after*
X69000000Y8635000D03*
G04 #@! TO.P,U4,5*
G04 #@! TO.N,DIR_VCM_before*
X63691400Y8635000D03*
G04 #@! TO.P,U4,19*
G04 #@! TO.N,GND*
X69000000Y6730000D03*
G04 #@! TO.P,U4,14*
G04 #@! TO.N,+3V3*
X69000000Y9905000D03*
G04 #@! TO.P,U4,15*
G04 #@! TO.N,Net-(U4-Pad15)*
X69000000Y9270000D03*
G04 #@! TO.P,U4,4*
G04 #@! TO.N,SR_VCM_before*
X63691400Y8000000D03*
G04 #@! TO.P,U4,3*
G04 #@! TO.N,PWM_VCM_before*
X63691400Y7365000D03*
G04 #@! TO.P,U4,18*
G04 #@! TO.N,PWM_VCM_after*
X69000000Y7365000D03*
G04 #@! TO.P,U4,11*
G04 #@! TO.N,GND*
X69000000Y11810000D03*
G04 #@! TO.P,U4,7*
G04 #@! TO.N,+3V3*
X63691400Y9905000D03*
G04 #@! TO.P,U4,17*
G04 #@! TO.N,SR_VCM_after*
X69000000Y8000000D03*
G04 #@! TO.P,U4,2*
G04 #@! TO.N,GND*
X63691400Y6730000D03*
G04 #@! TO.P,U4,13*
G04 #@! TO.N,Net-(U4-Pad13)*
X69000000Y10540000D03*
G04 #@! TO.P,U4,10*
G04 #@! TO.N,GND*
X63691400Y11810000D03*
G04 #@! TO.P,U4,8*
G04 #@! TO.N,Net-(U4-Pad8)*
X63691400Y10540000D03*
G04 #@! TO.P,U4,9*
G04 #@! TO.N,Net-(U4-Pad9)*
X63691400Y11175000D03*
G04 #@! TD*
D17*
G04 #@! TO.P,R27,1*
G04 #@! TO.N,DIR_VCM_before*
X56200000Y7400000D03*
G04 #@! TO.P,R27,2*
G04 #@! TO.N,GND*
X56200000Y5900000D03*
G04 #@! TD*
G04 #@! TO.P,R28,2*
G04 #@! TO.N,GND*
X59400000Y5900000D03*
G04 #@! TO.P,R28,1*
G04 #@! TO.N,SR_VCM_before*
X59400000Y7400000D03*
G04 #@! TD*
G04 #@! TO.P,R29,1*
G04 #@! TO.N,PWM_VCM_before*
X57800000Y7400000D03*
G04 #@! TO.P,R29,2*
G04 #@! TO.N,GND*
X57800000Y5900000D03*
G04 #@! TD*
D27*
G04 #@! TO.P,J11,7*
G04 #@! TO.N,GND*
X44200000Y28400000D03*
G04 #@! TO.P,J11,8*
X43700000Y28400000D03*
G04 #@! TO.P,J11,5*
G04 #@! TO.N,LINE_SENSOR3*
X45200000Y28400000D03*
D28*
G04 #@! TO.P,J11,*
G04 #@! TO.N,*
X48850000Y31075000D03*
D27*
G04 #@! TO.P,J11,4*
G04 #@! TO.N,LINE_SENSOR2*
X45700000Y28400000D03*
G04 #@! TO.P,J11,3*
G04 #@! TO.N,LINE_SENSOR1*
X46200000Y28400000D03*
G04 #@! TO.P,J11,1*
G04 #@! TO.N,Net-(J11-Pad1)*
X47200000Y28400000D03*
G04 #@! TO.P,J11,6*
G04 #@! TO.N,LINE_SENSOR4*
X44700000Y28400000D03*
D29*
G04 #@! TO.P,J11,*
G04 #@! TO.N,*
X42100000Y31075000D03*
X48850000Y31075000D03*
D27*
G04 #@! TO.P,J11,2*
G04 #@! TO.N,Net-(J11-Pad1)*
X46700000Y28400000D03*
G04 #@! TD*
D30*
G04 #@! TO.N,GND*
X48815628Y8885267D03*
X83400000Y2600000D03*
X88100000Y12700000D03*
X85900000Y19200000D03*
X82772725Y19367715D03*
X44700000Y5900000D03*
X63075009Y30400009D03*
X38600000Y28750000D03*
X40350000Y22050000D03*
X56350000Y23250000D03*
X32600000Y21550000D03*
X42200000Y7500000D03*
X36700004Y14544990D03*
X31500000Y23474970D03*
X36425000Y31350000D03*
X27125000Y31850000D03*
X39700000Y1600000D03*
X30100000Y20500000D03*
X17800000Y1600000D03*
X17800000Y4225000D03*
X28300000Y4100000D03*
X28300000Y1600000D03*
X37900000Y4300000D03*
X37900000Y1600000D03*
X11750000Y1700000D03*
X25300000Y1600000D03*
X20425000Y14900000D03*
X14100000Y16800000D03*
X10200000Y24900000D03*
X52600000Y21005010D03*
X33005010Y13250064D03*
X17300000Y10300000D03*
X35100000Y7300000D03*
X77900000Y2600000D03*
X13300000Y27900000D03*
X60800000Y23700000D03*
X77300000Y29600000D03*
G04 #@! TO.N,+3V3*
X85800000Y8000000D03*
X85900000Y17500000D03*
X61525000Y30400000D03*
X50194990Y10700000D03*
X51200000Y21300000D03*
X55230000Y28500000D03*
X51394990Y7429215D03*
X38850000Y22050000D03*
X47949990Y29350000D03*
X42750000Y8699998D03*
X51300000Y27500000D03*
X32600000Y18294990D03*
X33500000Y4300000D03*
X33500000Y700000D03*
X23800000Y700000D03*
X23800000Y4100000D03*
X13400000Y700000D03*
X13400000Y4200000D03*
X18925000Y14900000D03*
X19000000Y18400000D03*
X24900000Y18900000D03*
X14200000Y22000000D03*
X19100000Y22000000D03*
X59100000Y28500000D03*
X65300000Y19905010D03*
X61400000Y12200000D03*
X40615160Y28994876D03*
X74000000Y2000000D03*
G04 #@! TO.N,NRST*
X79000000Y12300002D03*
X37450004Y17550000D03*
G04 #@! TO.N,Net-(C4-Pad2)*
X38200004Y14044990D03*
G04 #@! TO.N,SW1*
X26800000Y11200000D03*
X31394955Y10951675D03*
G04 #@! TO.N,DIR_MAXON1*
X56990949Y19209908D03*
G04 #@! TO.N,SR_MAXON1*
X57665662Y18471812D03*
G04 #@! TO.N,PWM_MAXON1*
X58393060Y17744414D03*
G04 #@! TO.N,PWM_MAXON2*
X59171242Y16966232D03*
G04 #@! TO.N,SR_MAXON2*
X61100000Y16200000D03*
G04 #@! TO.N,DIR_MAXON2*
X60200000Y16800000D03*
G04 #@! TO.N,Net-(LED1-Pad3)*
X41600000Y1900000D03*
G04 #@! TO.N,Net-(LED1-Pad4)*
X45500000Y1205010D03*
G04 #@! TO.N,Net-(LED1-Pad2)*
X48900000Y1900000D03*
G04 #@! TO.N,INSERT_SD*
X30500000Y10494990D03*
G04 #@! TO.N,LED_R*
X49800000Y13794990D03*
G04 #@! TO.N,LED_G*
X49800000Y12500000D03*
G04 #@! TO.N,LED_B*
X47200000Y12700000D03*
G04 #@! TO.N,SENSOR_PULS_PWM*
X54700000Y23805010D03*
X47903099Y20199995D03*
G04 #@! TO.N,SCL_LCD*
X37400133Y19550016D03*
X42150004Y19150000D03*
X15000000Y21000000D03*
X15000000Y23500000D03*
G04 #@! TO.N,SDA_LCD*
X37350000Y20650000D03*
X42100000Y20300000D03*
G04 #@! TO.N,CS_IMU*
X49800000Y24000000D03*
X46982183Y24894695D03*
G04 #@! TO.N,MOSI_IMU*
X47222228Y26875007D03*
X49350010Y26800000D03*
G04 #@! TO.N,ENCORDER_2A*
X30554569Y24905010D03*
X35100000Y29800000D03*
G04 #@! TO.N,ENCORDER_1B*
X26800000Y29800000D03*
X29900000Y12794990D03*
G04 #@! TO.N,ENCORDER_2B*
X29800000Y24200000D03*
X36150000Y29900000D03*
G04 #@! TO.N,ENCORDER_1A*
X25800000Y29800000D03*
X31000000Y12545054D03*
G04 #@! TO.N,LINE_SENSOR1*
X46903089Y20201749D03*
G04 #@! TO.N,LINE_SENSOR2*
X45904219Y20153978D03*
G04 #@! TO.N,LINE_SENSOR3*
X44906005Y20094037D03*
G04 #@! TO.N,LINE_SENSOR4*
X43902738Y20087806D03*
G04 #@! TO.N,LINE_SENSOR5*
X71194990Y26502476D03*
X71300000Y19905010D03*
X72400000Y9800000D03*
X73200000Y13499998D03*
G04 #@! TO.N,LINE_SENSOR6*
X24884979Y20500000D03*
X17500000Y29894990D03*
G04 #@! TO.N,R_SW2*
X30800000Y14700000D03*
X27893277Y14495720D03*
G04 #@! TO.N,R_SW4*
X31300000Y13800000D03*
X27900028Y13495731D03*
G04 #@! TO.N,R_SW8*
X30800000Y15700000D03*
X27916076Y15495472D03*
G04 #@! TO.N,R_SW1*
X30800000Y16700000D03*
X27884659Y16494990D03*
G04 #@! TO.N,RTC_IN*
X37600000Y23050004D03*
G04 #@! TO.N,OSC_IN*
X37397438Y18550008D03*
G04 #@! TO.N,POT*
X62300000Y26700000D03*
X62300000Y19905010D03*
G04 #@! TO.N,TX*
X76800000Y23000008D03*
X74500000Y20094990D03*
G04 #@! TO.N,RX*
X76100000Y24000000D03*
X73480449Y20094990D03*
G04 #@! TO.N,CS_SD*
X19700000Y25300000D03*
G04 #@! TO.N,SCK_SD*
X21900000Y25000000D03*
G04 #@! TO.N,MISO_SD*
X20500000Y24000000D03*
X20100000Y22000000D03*
X23900000Y22000000D03*
G04 #@! TO.N,MOSI_SD*
X20900000Y19700000D03*
X18800000Y19700000D03*
X24000000Y23600000D03*
G04 #@! TO.N,SCK_IMU*
X46900000Y25900000D03*
X49350010Y25026570D03*
G04 #@! TO.N,Net-(C8-Pad1)*
X48106585Y9590450D03*
G04 #@! TO.N,Net-(C11-Pad1)*
X39650000Y31150000D03*
X42494990Y29075000D03*
G04 #@! TO.N,Net-(R6-Pad2)*
X40350000Y23450000D03*
G04 #@! TO.N,+5V*
X69000000Y27299994D03*
X34925000Y31350000D03*
X25625000Y31850000D03*
X31000000Y31800000D03*
X31000000Y27600000D03*
G04 #@! TO.N,DIR_VCM_before*
X54100000Y19500000D03*
G04 #@! TO.N,PWM_VCM_before*
X53199133Y18534462D03*
G04 #@! TO.N,SR_VCM_before*
X59400000Y9600000D03*
X59400000Y7400000D03*
X55848518Y18248518D03*
G04 #@! TO.N,Net-(J11-Pad1)*
X50100000Y28500000D03*
G04 #@! TD*
D31*
G04 #@! TO.N,GND*
X48800000Y7475000D02*
X48775000Y7500000D01*
X48800000Y6100000D02*
X48800000Y7475000D01*
X48775000Y8844639D02*
X48815628Y8885267D01*
X48775000Y7500000D02*
X48775000Y8844639D01*
X85800000Y9800000D02*
X85800000Y9300000D01*
X83400000Y7410000D02*
X83400000Y2600000D01*
X85800000Y9300000D02*
X85290000Y9300000D01*
X85290000Y9300000D02*
X83400000Y7410000D01*
X88100000Y11090000D02*
X88100000Y12700000D01*
X85800000Y9300000D02*
X86310000Y9300000D01*
X86310000Y9300000D02*
X88100000Y11090000D01*
X85900000Y19200000D02*
X82940440Y19200000D01*
X82940440Y19200000D02*
X82772725Y19367715D01*
X48800000Y5490000D02*
X48510000Y5200000D01*
X48800000Y6100000D02*
X48800000Y5490000D01*
X48510000Y5200000D02*
X45400000Y5200000D01*
X45400000Y5200000D02*
X44700000Y5900000D01*
X34200000Y25610000D02*
X34200000Y24800000D01*
X34690000Y26100000D02*
X34200000Y25610000D01*
X38610000Y26100000D02*
X34690000Y26100000D01*
D32*
X38610000Y26100000D02*
X38610000Y28740000D01*
X38610000Y28740000D02*
X38600000Y28750000D01*
X40200000Y24700000D02*
X38610000Y24700000D01*
D31*
X38610000Y24700000D02*
X38610000Y26100000D01*
X39790000Y22050000D02*
X40350000Y22050000D01*
X39600000Y22240000D02*
X39790000Y22050000D01*
X39600000Y23160000D02*
X39600000Y22240000D01*
X39310000Y23450000D02*
X39600000Y23160000D01*
X38850000Y23450000D02*
X39310000Y23450000D01*
X55400000Y22300000D02*
X53725000Y22300000D01*
X56350000Y23250000D02*
X55400000Y22300000D01*
X36250000Y20425000D02*
X36250000Y20800000D01*
X35500000Y21550000D02*
X33165685Y21550000D01*
X33165685Y21550000D02*
X32600000Y21550000D01*
X36250000Y20800000D02*
X35500000Y21550000D01*
X32600000Y19800000D02*
X32600000Y21550000D01*
X36250000Y20425000D02*
X36250000Y20050000D01*
X36250000Y20050000D02*
X35400000Y19200000D01*
X36700000Y14544994D02*
X36700004Y14544990D01*
X36700000Y14800000D02*
X36700000Y14544994D01*
X36300005Y14944989D02*
X36700004Y14544990D01*
X35400000Y15844994D02*
X36300005Y14944989D01*
X35400000Y19200000D02*
X35400000Y15844994D01*
X38850000Y23450000D02*
X38850000Y24460000D01*
X38850000Y24460000D02*
X38610000Y24700000D01*
X34200000Y24800000D02*
X32750000Y24800000D01*
X32600000Y24650000D02*
X32600000Y24025000D01*
X32750000Y24800000D02*
X32600000Y24650000D01*
X31500000Y23535000D02*
X31500000Y23474970D01*
X32600000Y24025000D02*
X31990000Y24025000D01*
X31990000Y24025000D02*
X31500000Y23535000D01*
X38600000Y29315685D02*
X38600000Y28750000D01*
X38600000Y29735000D02*
X38600000Y29315685D01*
X36985000Y31350000D02*
X38600000Y29735000D01*
X36425000Y31350000D02*
X36985000Y31350000D01*
X30100000Y23474970D02*
X30100000Y20500000D01*
X31500000Y23474970D02*
X30100000Y23474970D01*
X17800000Y1600000D02*
X17800000Y4225000D01*
X28300000Y4100000D02*
X28300000Y1600000D01*
X37900000Y4300000D02*
X37900000Y1600000D01*
X39700000Y1000000D02*
X39700000Y1600000D01*
X40200000Y500000D02*
X39700000Y1000000D01*
X83400000Y2600000D02*
X81300000Y500000D01*
X11750000Y4770000D02*
X6240000Y10280000D01*
X11750000Y1700000D02*
X11750000Y4770000D01*
X25250000Y1650000D02*
X25300000Y1600000D01*
X25250000Y2150000D02*
X25250000Y1650000D01*
X24540000Y12500000D02*
X25250000Y12500000D01*
X24300000Y12740000D02*
X24540000Y12500000D01*
X21150000Y15625000D02*
X20425000Y14900000D01*
X24294999Y15894999D02*
X24300000Y15900000D01*
X21255001Y15894999D02*
X24294999Y15894999D01*
X21150000Y16000000D02*
X21255001Y15894999D01*
X21150000Y16000000D02*
X21150000Y15625000D01*
X21150000Y16800000D02*
X21150000Y16000000D01*
X24300000Y16800000D02*
X24300000Y15900000D01*
X24300000Y15900000D02*
X24300000Y12740000D01*
X20425000Y14290000D02*
X20425000Y14900000D01*
X20425000Y6800000D02*
X20425000Y14290000D01*
X17850000Y4225000D02*
X20425000Y6800000D01*
X17800000Y4225000D02*
X17850000Y4225000D01*
X6240000Y17900000D02*
X10200000Y21860000D01*
X10200000Y21860000D02*
X10200000Y24900000D01*
X10200000Y26200000D02*
X10200000Y24900000D01*
X15050000Y31050000D02*
X10200000Y26200000D01*
X26825000Y31050000D02*
X15050000Y31050000D01*
X27125000Y31850000D02*
X27125000Y31350000D01*
X27125000Y31350000D02*
X26825000Y31050000D01*
X53725000Y22300000D02*
X53725000Y22250000D01*
X53725000Y22250000D02*
X52600000Y21125000D01*
X52600000Y21125000D02*
X52600000Y21005010D01*
X56200000Y5900000D02*
X59400000Y5900000D01*
X70575000Y13600000D02*
X70675000Y13700000D01*
X70675000Y13090000D02*
X70675000Y13700000D01*
X70675000Y12275000D02*
X70675000Y13090000D01*
X70210000Y11810000D02*
X70675000Y12275000D01*
X69000000Y11810000D02*
X70210000Y11810000D01*
X62000000Y12990000D02*
X62000000Y13600000D01*
X62000000Y12706400D02*
X62000000Y12990000D01*
X62896400Y11810000D02*
X62000000Y12706400D01*
X63691400Y11810000D02*
X62896400Y11810000D01*
X62481400Y6730000D02*
X63691400Y6730000D01*
X62200000Y6448600D02*
X62481400Y6730000D01*
X62200000Y3500000D02*
X62200000Y5800000D01*
X62200000Y5800000D02*
X62200000Y6448600D01*
X57800000Y5440000D02*
X57800000Y500000D01*
X57800000Y5900000D02*
X57800000Y5440000D01*
X57800000Y500000D02*
X40200000Y500000D01*
X66500000Y6830000D02*
X66400000Y6730000D01*
X66500000Y11810000D02*
X66500000Y6830000D01*
X66400000Y6730000D02*
X63691400Y6730000D01*
D33*
X43700000Y28400000D02*
X44184999Y28400000D01*
D31*
X39700000Y1600000D02*
X33005010Y8294990D01*
X33005010Y8294990D02*
X33005010Y12684379D01*
X33005010Y12684379D02*
X33005010Y13250064D01*
X41500000Y24700000D02*
X40200000Y24700000D01*
X43700000Y26900000D02*
X41500000Y24700000D01*
X44200000Y28500000D02*
X43700000Y28000000D01*
X43700000Y28000000D02*
X43700000Y26900000D01*
X62200000Y3500000D02*
X62200000Y500000D01*
X62200000Y500000D02*
X57800000Y500000D01*
X66500000Y11810000D02*
X66500000Y13600000D01*
X62000000Y13600000D02*
X66500000Y13600000D01*
X66500000Y13600000D02*
X70575000Y13600000D01*
X75800000Y1900000D02*
X75800000Y500000D01*
X74200000Y3500000D02*
X75800000Y1900000D01*
X70525000Y3500000D02*
X74200000Y3500000D01*
X81300000Y500000D02*
X75800000Y500000D01*
X75800000Y500000D02*
X62200000Y500000D01*
X69000000Y6730000D02*
X67790000Y6730000D01*
X67790000Y6730000D02*
X66400000Y6730000D01*
X70210000Y6730000D02*
X69000000Y6730000D01*
X70525000Y6415000D02*
X70210000Y6730000D01*
X70525000Y3500000D02*
X70525000Y6415000D01*
G04 #@! TO.N,+3V3*
X36025000Y22525000D02*
X36100000Y22600000D01*
X32600000Y22525000D02*
X36025000Y22525000D01*
X85800000Y17400000D02*
X85800000Y15800000D01*
X85900000Y17500000D02*
X85800000Y17400000D01*
X43700000Y7500000D02*
X43700000Y6400000D01*
X50275000Y10619990D02*
X50194990Y10700000D01*
X50275000Y7500000D02*
X50275000Y10619990D01*
X51200000Y21800000D02*
X51200000Y21300000D01*
X52225000Y22300000D02*
X51700000Y22300000D01*
X51700000Y22300000D02*
X51200000Y21800000D01*
D33*
X88200000Y15500000D02*
X85800000Y15500000D01*
X90300000Y13400000D02*
X88200000Y15500000D01*
X90300000Y6100000D02*
X90300000Y13400000D01*
D31*
X85800000Y15500000D02*
X85800000Y15300000D01*
X85800000Y15800000D02*
X85800000Y15500000D01*
D33*
X85800000Y8000000D02*
X85800000Y7434315D01*
X85800000Y7434315D02*
X87734315Y5500000D01*
X87734315Y5500000D02*
X89700000Y5500000D01*
X89700000Y5500000D02*
X90300000Y6100000D01*
D31*
X51324205Y7500000D02*
X51394990Y7429215D01*
X50275000Y7500000D02*
X51324205Y7500000D01*
X48679832Y4789989D02*
X50275000Y6385157D01*
X50275000Y6385157D02*
X50275000Y6890000D01*
X44766607Y4789989D02*
X48679832Y4789989D01*
X43700000Y5856596D02*
X44766607Y4789989D01*
X50275000Y6890000D02*
X50275000Y7500000D01*
X43700000Y6400000D02*
X43700000Y5856596D01*
X40200000Y6400000D02*
X34100000Y12500000D01*
X43700000Y6400000D02*
X40200000Y6400000D01*
X34100000Y12500000D02*
X34100000Y14600000D01*
X34100000Y14600000D02*
X34300000Y14800000D01*
X34300000Y14800000D02*
X35000000Y14800000D01*
X39200000Y22000004D02*
X39200004Y22000000D01*
X39200000Y22050000D02*
X39200000Y22000004D01*
X36650000Y22050000D02*
X36100000Y22600000D01*
X38850000Y22050000D02*
X36650000Y22050000D01*
X43700000Y7550000D02*
X42750000Y8500000D01*
X43700000Y7500000D02*
X43700000Y7550000D01*
X42750000Y8500000D02*
X42750000Y8699998D01*
X55230000Y28500000D02*
X52300000Y28500000D01*
X51300000Y27500000D02*
X51300000Y28065685D01*
X52300000Y28500000D02*
X51300000Y28500000D01*
X51300000Y28065685D02*
X51300000Y28500000D01*
X50600000Y29350000D02*
X47949990Y29350000D01*
X51300000Y28500000D02*
X51300000Y28650000D01*
X51300000Y28650000D02*
X50600000Y29350000D01*
X52225000Y22725000D02*
X52225000Y22300000D01*
X55230000Y27840000D02*
X55550000Y27520000D01*
X55230000Y28500000D02*
X55230000Y27840000D01*
X55550000Y27520000D02*
X55550000Y23500000D01*
X55150000Y23100000D02*
X52600000Y23100000D01*
X55550000Y23500000D02*
X55150000Y23100000D01*
X52600000Y23100000D02*
X52225000Y22725000D01*
X35000000Y14800000D02*
X35000000Y15260000D01*
X34600000Y18220000D02*
X32674990Y18220000D01*
X35000000Y15260000D02*
X32600000Y17660000D01*
X32600000Y17729305D02*
X32600000Y18294990D01*
X31200000Y21175000D02*
X31200000Y19694990D01*
X32600000Y22525000D02*
X32550000Y22525000D01*
X32200001Y18694989D02*
X32600000Y18294990D01*
X32550000Y22525000D02*
X31200000Y21175000D01*
X32674990Y18220000D02*
X32600000Y18294990D01*
X31200000Y19694990D02*
X32200001Y18694989D01*
X32600000Y17660000D02*
X32600000Y17729305D01*
X35000000Y14800000D02*
X33000000Y14800000D01*
X33000000Y14800000D02*
X32300000Y14100000D01*
X32300000Y14100000D02*
X32300000Y5500000D01*
X32300000Y5500000D02*
X33500000Y4300000D01*
X33500000Y4300000D02*
X33500000Y700000D01*
X23800000Y700000D02*
X23800000Y4100000D01*
X13400000Y700000D02*
X13400000Y4200000D01*
X28800000Y8590000D02*
X28800000Y9200000D01*
X28800000Y7600000D02*
X28800000Y8590000D01*
X23800000Y4100000D02*
X25300000Y4100000D01*
X25300000Y4100000D02*
X28800000Y7600000D01*
X13400000Y4200000D02*
X13400000Y9375000D01*
X13400000Y9375000D02*
X18925000Y14900000D01*
X18925000Y16775000D02*
X18950000Y16800000D01*
X18925000Y14900000D02*
X18925000Y16775000D01*
X12700000Y10075000D02*
X13400000Y9375000D01*
X12700000Y18400000D02*
X12700000Y10075000D01*
X14100000Y19000000D02*
X13300000Y19000000D01*
X13300000Y19000000D02*
X12700000Y18400000D01*
X18950000Y16800000D02*
X18950000Y18350000D01*
X18950000Y18350000D02*
X19000000Y18400000D01*
X24500000Y18900000D02*
X23400000Y20000000D01*
X24900000Y18900000D02*
X24500000Y18900000D01*
X14100000Y21900000D02*
X14200000Y22000000D01*
X14100000Y19000000D02*
X14100000Y21900000D01*
X18810000Y22290000D02*
X19100000Y22000000D01*
X16730000Y22290000D02*
X18810000Y22290000D01*
D33*
X59100000Y28500000D02*
X55230000Y28500000D01*
X65300000Y26200000D02*
X65300000Y20470695D01*
X65300000Y20470695D02*
X65300000Y19905010D01*
X63000000Y28500000D02*
X65300000Y26200000D01*
X59100000Y28500000D02*
X63000000Y28500000D01*
D31*
X62481400Y9905000D02*
X63691400Y9905000D01*
X60500000Y11886400D02*
X62481400Y9905000D01*
X70210000Y9905000D02*
X69000000Y9905000D01*
X72175000Y11870000D02*
X70210000Y9905000D01*
X72175000Y13700000D02*
X72175000Y11870000D01*
X72175000Y14025000D02*
X72175000Y13700000D01*
X71700000Y14500000D02*
X72175000Y14025000D01*
X60790000Y14500000D02*
X71700000Y14500000D01*
X60500000Y13600000D02*
X60500000Y14210000D01*
X60500000Y14210000D02*
X60790000Y14500000D01*
X69025000Y6070000D02*
X69000000Y6095000D01*
X69025000Y3500000D02*
X69025000Y6070000D01*
X63700000Y6086400D02*
X63691400Y6095000D01*
X63700000Y3500000D02*
X63700000Y6086400D01*
X63700000Y3500000D02*
X69025000Y3500000D01*
X61400000Y12200000D02*
X60500000Y12200000D01*
X60500000Y13600000D02*
X60500000Y12200000D01*
X60500000Y12200000D02*
X60500000Y11886400D01*
X47549991Y29749999D02*
X43549999Y29749999D01*
X47949990Y29350000D02*
X47549991Y29749999D01*
X41410036Y28200000D02*
X41015159Y28594877D01*
X41015159Y28594877D02*
X40615160Y28994876D01*
X43200000Y28614193D02*
X42785807Y28200000D01*
X42785807Y28200000D02*
X41410036Y28200000D01*
X43200000Y29400000D02*
X43200000Y28614193D01*
X43549999Y29749999D02*
X43200000Y29400000D01*
X69025000Y3500000D02*
X69025000Y3450000D01*
X73434315Y2000000D02*
X74000000Y2000000D01*
X70475000Y2000000D02*
X73434315Y2000000D01*
X69025000Y3450000D02*
X70475000Y2000000D01*
G04 #@! TO.N,NRST*
X79000000Y12300002D02*
X76389991Y14910011D01*
X49200000Y20300000D02*
X46450000Y17550000D01*
X46450000Y17550000D02*
X38015689Y17550000D01*
X54840438Y20300000D02*
X49200000Y20300000D01*
X60230427Y14910011D02*
X54840438Y20300000D01*
X76389991Y14910011D02*
X60230427Y14910011D01*
X38015689Y17550000D02*
X37450004Y17550000D01*
G04 #@! TO.N,Net-(C4-Pad2)*
X36700000Y13300000D02*
X35000000Y13300000D01*
X36700000Y13300000D02*
X37455014Y13300000D01*
X37455014Y13300000D02*
X37800005Y13644991D01*
X37800005Y13644991D02*
X38200004Y14044990D01*
G04 #@! TO.N,SW1*
X26800000Y11200000D02*
X31146630Y11200000D01*
X31146630Y11200000D02*
X31394955Y10951675D01*
G04 #@! TO.N,DIR_MAXON1*
X79920153Y19200006D02*
X57566536Y19200006D01*
X57556634Y19209908D02*
X56990949Y19209908D01*
X57566536Y19200006D02*
X57556634Y19209908D01*
X84820159Y14300000D02*
X79920153Y19200006D01*
X85800000Y14300000D02*
X84820159Y14300000D01*
G04 #@! TO.N,SR_MAXON1*
X80068504Y18471812D02*
X58231347Y18471812D01*
X85800000Y13800000D02*
X84740316Y13800000D01*
X84740316Y13800000D02*
X80068504Y18471812D01*
X58231347Y18471812D02*
X57665662Y18471812D01*
G04 #@! TO.N,PWM_MAXON1*
X80055587Y17744414D02*
X58958745Y17744414D01*
X85800000Y13300000D02*
X84500001Y13300000D01*
X84500001Y13300000D02*
X80055587Y17744414D01*
X58958745Y17744414D02*
X58393060Y17744414D01*
G04 #@! TO.N,PWM_MAXON2*
X59171242Y16825794D02*
X59171242Y16966232D01*
X60532080Y15464956D02*
X59171242Y16825794D01*
X85800000Y11800000D02*
X82900000Y11800000D01*
X79235044Y15464956D02*
X60532080Y15464956D01*
X82900000Y11800000D02*
X79235044Y15464956D01*
G04 #@! TO.N,SR_MAXON2*
X85800000Y12300000D02*
X83600000Y12300000D01*
X79700000Y16200000D02*
X61665685Y16200000D01*
X61665685Y16200000D02*
X61100000Y16200000D01*
X83600000Y12300000D02*
X79700000Y16200000D01*
G04 #@! TO.N,DIR_MAXON2*
X60305001Y16905001D02*
X60200000Y16800000D01*
X80315157Y16905001D02*
X60305001Y16905001D01*
X85800000Y12800000D02*
X84420158Y12800000D01*
X84420158Y12800000D02*
X80315157Y16905001D01*
G04 #@! TO.N,Net-(LED1-Pad3)*
X43500000Y1900000D02*
X41600000Y1900000D01*
G04 #@! TO.N,Net-(LED1-Pad4)*
X45500000Y1900000D02*
X45500000Y1205010D01*
G04 #@! TO.N,Net-(LED1-Pad2)*
X47500000Y1900000D02*
X48900000Y1900000D01*
G04 #@! TO.N,INSERT_SD*
X29934315Y10494990D02*
X30500000Y10494990D01*
X27300000Y10500000D02*
X27305010Y10494990D01*
X27305010Y10494990D02*
X29934315Y10494990D01*
X25250000Y8439980D02*
X25250000Y6300000D01*
X27300000Y10489980D02*
X27300000Y9200000D01*
X27305010Y10494990D02*
X27300000Y10489980D01*
X27305010Y10494990D02*
X26194990Y10494990D01*
X25250000Y9550000D02*
X25250000Y8439980D01*
X26194990Y10494990D02*
X25250000Y9550000D01*
G04 #@! TO.N,LED_R*
X53220022Y10374968D02*
X50199999Y13394991D01*
X50600000Y3400000D02*
X53220022Y6020022D01*
X50199999Y13394991D02*
X49800000Y13794990D01*
X53220022Y6020022D02*
X53220022Y10374968D01*
X47500000Y3400000D02*
X50600000Y3400000D01*
G04 #@! TO.N,LED_G*
X50149810Y3969967D02*
X46679967Y3969967D01*
X46679967Y3969967D02*
X46110000Y3400000D01*
X46110000Y3400000D02*
X45500000Y3400000D01*
X50365685Y12500000D02*
X52810011Y10055674D01*
X52810011Y6630168D02*
X50149810Y3969967D01*
X49800000Y12500000D02*
X50365685Y12500000D01*
X52810011Y10055674D02*
X52810011Y6630168D01*
G04 #@! TO.N,LED_B*
X52400000Y6800000D02*
X49979978Y4379978D01*
X49979978Y4379978D02*
X45089978Y4379978D01*
X52400000Y9500000D02*
X52400000Y6800000D01*
X47200000Y12700000D02*
X48300000Y11600000D01*
X44110000Y3400000D02*
X43500000Y3400000D01*
X48300000Y11600000D02*
X50300000Y11600000D01*
X45089978Y4379978D02*
X44110000Y3400000D01*
X50300000Y11600000D02*
X52400000Y9500000D01*
G04 #@! TO.N,SENSOR_PULS_PWM*
X48303098Y20599994D02*
X47903099Y20199995D01*
X54700000Y23805010D02*
X51508114Y23805010D01*
X51508114Y23805010D02*
X48303098Y20599994D01*
G04 #@! TO.N,SCL_LCD*
X41584319Y19150000D02*
X42150004Y19150000D01*
X37800149Y19150000D02*
X41584319Y19150000D01*
X37400133Y19550016D02*
X37800149Y19150000D01*
X15000000Y21000000D02*
X15000000Y23500000D01*
G04 #@! TO.N,SDA_LCD*
X37350000Y20650000D02*
X41750000Y20650000D01*
X41750000Y20650000D02*
X42100000Y20300000D01*
D32*
G04 #@! TO.N,CS_IMU*
X47876878Y24000000D02*
X47382182Y24494696D01*
X47382182Y24494696D02*
X46982183Y24894695D01*
X49800000Y24000000D02*
X47876878Y24000000D01*
D31*
G04 #@! TO.N,MOSI_IMU*
X49275003Y26875007D02*
X49350010Y26800000D01*
X47222228Y26875007D02*
X49275003Y26875007D01*
D32*
G04 #@! TO.N,ENCORDER_2A*
X35100000Y29450441D02*
X35100000Y29800000D01*
X30554569Y24905010D02*
X35100000Y29450441D01*
D31*
X34700000Y29800000D02*
X35100000Y29800000D01*
X31670000Y29240000D02*
X32230000Y29800000D01*
X32230000Y29800000D02*
X34700000Y29800000D01*
G04 #@! TO.N,ENCORDER_1B*
X30170000Y29365000D02*
X30170000Y29240000D01*
X29735000Y29800000D02*
X30170000Y29365000D01*
X26800000Y29800000D02*
X29735000Y29800000D01*
X27561627Y12790730D02*
X29330055Y12790730D01*
X29330055Y12790730D02*
X29334315Y12794990D01*
X26800000Y13552357D02*
X27561627Y12790730D01*
X26800000Y29800000D02*
X26800000Y13552357D01*
X29334315Y12794990D02*
X29900000Y12794990D01*
G04 #@! TO.N,ENCORDER_2B*
X36150000Y29334315D02*
X36150000Y29900000D01*
X31015685Y24200000D02*
X36150000Y29334315D01*
X29800000Y24200000D02*
X31015685Y24200000D01*
X31170000Y29700000D02*
X32070000Y30600000D01*
X31170000Y29240000D02*
X31170000Y29700000D01*
X32070000Y30600000D02*
X35450000Y30600000D01*
X35450000Y30600000D02*
X36150000Y29900000D01*
G04 #@! TO.N,ENCORDER_1A*
X25800000Y30365685D02*
X26034315Y30600000D01*
X25800000Y29800000D02*
X25800000Y30365685D01*
X26034315Y30600000D02*
X30150000Y30600000D01*
X30670000Y30080000D02*
X30670000Y29240000D01*
X30150000Y30600000D02*
X30670000Y30080000D01*
X30454937Y11999991D02*
X30600001Y12145055D01*
X30600001Y12145055D02*
X31000000Y12545054D01*
X25800000Y29800000D02*
X25800000Y13800000D01*
X25800000Y13800000D02*
X27600009Y11999991D01*
X27600009Y11999991D02*
X30454937Y11999991D01*
G04 #@! TO.N,LINE_SENSOR1*
X46188703Y27653703D02*
X46188703Y20916135D01*
X46200000Y28500000D02*
X46200000Y27665000D01*
X46188703Y20916135D02*
X46503090Y20601748D01*
X46503090Y20601748D02*
X46903089Y20201749D01*
X46200000Y27665000D02*
X46188703Y27653703D01*
G04 #@! TO.N,LINE_SENSOR2*
X45700000Y28500000D02*
X45700000Y20358197D01*
X45700000Y20358197D02*
X45904219Y20153978D01*
G04 #@! TO.N,LINE_SENSOR3*
X45200000Y20388032D02*
X44906005Y20094037D01*
X45200000Y28500000D02*
X45200000Y20388032D01*
G04 #@! TO.N,LINE_SENSOR4*
X44700000Y20885068D02*
X44302737Y20487805D01*
X44302737Y20487805D02*
X43902738Y20087806D01*
X44700000Y28500000D02*
X44700000Y20885068D01*
G04 #@! TO.N,LINE_SENSOR5*
X71194990Y20010020D02*
X71300000Y19905010D01*
X71194990Y26502476D02*
X71194990Y20010020D01*
X73200000Y12934313D02*
X73200000Y13499998D01*
X73200000Y10600000D02*
X73200000Y12934313D01*
X72400000Y9800000D02*
X73200000Y10600000D01*
G04 #@! TO.N,LINE_SENSOR6*
X20905010Y29894990D02*
X18065685Y29894990D01*
X18065685Y29894990D02*
X17500000Y29894990D01*
X24884979Y25915021D02*
X20905010Y29894990D01*
X24884979Y20500000D02*
X24884979Y25915021D01*
G04 #@! TO.N,R_SW2*
X30800000Y14700000D02*
X28097557Y14700000D01*
X28097557Y14700000D02*
X27893277Y14495720D01*
G04 #@! TO.N,R_SW4*
X28204297Y13800000D02*
X27900028Y13495731D01*
X31300000Y13800000D02*
X28204297Y13800000D01*
G04 #@! TO.N,R_SW8*
X28120604Y15700000D02*
X27916076Y15495472D01*
X30800000Y15700000D02*
X28120604Y15700000D01*
G04 #@! TO.N,R_SW1*
X28089669Y16700000D02*
X27884659Y16494990D01*
X30800000Y16700000D02*
X28089669Y16700000D01*
G04 #@! TO.N,RTC_IN*
X36100000Y24800000D02*
X37500000Y24800000D01*
X37500000Y23150004D02*
X37600000Y23050004D01*
X37500000Y24800000D02*
X37500000Y23150004D01*
G04 #@! TO.N,OSC_IN*
X36250000Y18220000D02*
X37067430Y18220000D01*
X37067430Y18220000D02*
X37397438Y18550008D01*
G04 #@! TO.N,POT*
X62300000Y26700000D02*
X62300000Y19905010D01*
G04 #@! TO.N,TX*
X74500000Y20700008D02*
X74500000Y20660675D01*
X74500000Y20660675D02*
X74500000Y20094990D01*
X76800000Y23000008D02*
X74500000Y20700008D01*
G04 #@! TO.N,RX*
X73480449Y20660675D02*
X73480449Y20094990D01*
X76100000Y24000000D02*
X73480449Y21380449D01*
X73480449Y21380449D02*
X73480449Y20660675D01*
G04 #@! TO.N,CS_SD*
X16750000Y21270000D02*
X16730000Y21290000D01*
X16750000Y16800000D02*
X16750000Y21270000D01*
X16730000Y21415000D02*
X16730000Y21290000D01*
X16000000Y22145000D02*
X16730000Y21415000D01*
X16000000Y23700000D02*
X16000000Y22145000D01*
X19700000Y25300000D02*
X17600000Y25300000D01*
X17600000Y25300000D02*
X16000000Y23700000D01*
G04 #@! TO.N,SCK_SD*
X20050000Y16800000D02*
X20050000Y20500000D01*
X18095998Y20500000D02*
X17730000Y20865997D01*
X17730000Y20865997D02*
X17730000Y21290000D01*
X20050000Y20500000D02*
X18095998Y20500000D01*
X21900000Y24434315D02*
X21900000Y25000000D01*
X21900000Y22350000D02*
X21900000Y24434315D01*
X20050000Y20500000D02*
X21900000Y22350000D01*
G04 #@! TO.N,MISO_SD*
X20500000Y24000000D02*
X20500000Y22400000D01*
X19390000Y21290000D02*
X18230000Y21290000D01*
X20500000Y22400000D02*
X20100000Y22000000D01*
X20100000Y22000000D02*
X19390000Y21290000D01*
X22250000Y17610000D02*
X22250000Y16800000D01*
X22250000Y20915685D02*
X22250000Y17610000D01*
X23334315Y22000000D02*
X22250000Y20915685D01*
X23900000Y22000000D02*
X23334315Y22000000D01*
G04 #@! TO.N,MOSI_SD*
X17230000Y20830000D02*
X17230000Y21290000D01*
X17850000Y16800000D02*
X17850000Y18750000D01*
X17850000Y18750000D02*
X17230000Y19370000D01*
X18800000Y19700000D02*
X17230000Y19700000D01*
X17230000Y19370000D02*
X17230000Y19700000D01*
X17230000Y19700000D02*
X17230000Y20830000D01*
X20900000Y20500000D02*
X23600001Y23200001D01*
X23600001Y23200001D02*
X24000000Y23600000D01*
X20900000Y19700000D02*
X20900000Y20500000D01*
D32*
G04 #@! TO.N,SCK_IMU*
X48950011Y25426569D02*
X49350010Y25026570D01*
X48476580Y25900000D02*
X48950011Y25426569D01*
X46900000Y25900000D02*
X48476580Y25900000D01*
D31*
G04 #@! TO.N,Net-(C8-Pad1)*
X48090450Y9590450D02*
X48106585Y9590450D01*
X47300000Y6100000D02*
X47300000Y8800000D01*
X47300000Y8800000D02*
X48090450Y9590450D01*
D32*
G04 #@! TO.N,Net-(C11-Pad1)*
X41929305Y29075000D02*
X42494990Y29075000D01*
X41525000Y29075000D02*
X41929305Y29075000D01*
X39650000Y30950000D02*
X41525000Y29075000D01*
X39650000Y31150000D02*
X39650000Y30950000D01*
D31*
G04 #@! TO.N,Net-(R19-Pad2)*
X23400000Y16850000D02*
X23350000Y16800000D01*
X23400000Y18500000D02*
X23400000Y16850000D01*
G04 #@! TO.N,Net-(R21-Pad2)*
X15600000Y16850000D02*
X15650000Y16800000D01*
X15600000Y19000000D02*
X15600000Y16850000D01*
G04 #@! TO.N,+5V*
X69399999Y27699993D02*
X69000000Y27299994D01*
X84965000Y14800000D02*
X81900000Y17865000D01*
X85800000Y14800000D02*
X84965000Y14800000D01*
X81900000Y17865000D02*
X81900000Y23700000D01*
X81900000Y23700000D02*
X77800001Y27799999D01*
X77800001Y27799999D02*
X69500005Y27799999D01*
X69500005Y27799999D02*
X69399999Y27699993D01*
X34925000Y31400000D02*
X34925000Y31350000D01*
X36119990Y32594990D02*
X34925000Y31400000D01*
X36119990Y32594990D02*
X31794990Y32594990D01*
X31000000Y28070000D02*
X31170000Y28240000D01*
X31000000Y27600000D02*
X31000000Y28070000D01*
X31670000Y28240000D02*
X30170000Y28240000D01*
X26094990Y32594990D02*
X25575000Y32075000D01*
X31000000Y31800000D02*
X31000000Y32594990D01*
X31794990Y32594990D02*
X31000000Y32594990D01*
X31000000Y32594990D02*
X26094990Y32594990D01*
X60629012Y32594990D02*
X36119990Y32594990D01*
X62300000Y30924002D02*
X60629012Y32594990D01*
X62300000Y29825998D02*
X62300000Y30924002D01*
X62925998Y29200000D02*
X62300000Y29825998D01*
X69000000Y27299994D02*
X67099994Y29200000D01*
X67099994Y29200000D02*
X62925998Y29200000D01*
G04 #@! TO.N,DIR_VCM_after*
X83000000Y11300000D02*
X85800000Y11300000D01*
X69000000Y8635000D02*
X80335000Y8635000D01*
X80335000Y8635000D02*
X83000000Y11300000D01*
G04 #@! TO.N,SR_VCM_after*
X83500000Y10800000D02*
X85800000Y10800000D01*
X69000000Y8000000D02*
X80700000Y8000000D01*
X80700000Y8000000D02*
X83500000Y10800000D01*
G04 #@! TO.N,PWM_VCM_after*
X69000000Y7365000D02*
X81365000Y7365000D01*
X84300000Y10300000D02*
X85800000Y10300000D01*
X81365000Y7365000D02*
X84300000Y10300000D01*
G04 #@! TO.N,DIR_VCM_before*
X56200000Y7400000D02*
X56350000Y7400000D01*
X56200000Y7860000D02*
X56200000Y7400000D01*
X56265000Y8635000D02*
X56200000Y8700000D01*
X63691400Y8635000D02*
X56265000Y8635000D01*
X56200000Y8700000D02*
X56200000Y7860000D01*
X54100000Y18634315D02*
X54100000Y18934315D01*
X56200000Y8700000D02*
X56200000Y16534315D01*
X56200000Y16534315D02*
X54100000Y18634315D01*
X54100000Y18934315D02*
X54100000Y19500000D01*
G04 #@! TO.N,PWM_VCM_before*
X57800000Y7400000D02*
X57800000Y6940000D01*
X57800000Y6940000D02*
X58040000Y6700000D01*
X58040000Y6700000D02*
X58045001Y6694999D01*
X58045001Y6694999D02*
X61811399Y6694999D01*
X62481400Y7365000D02*
X63691400Y7365000D01*
X61811399Y6694999D02*
X62481400Y7365000D01*
X55500000Y6700000D02*
X54800000Y7400000D01*
X54800000Y7400000D02*
X54800000Y16933595D01*
X53599132Y18134463D02*
X53199133Y18534462D01*
X58040000Y6700000D02*
X55500000Y6700000D01*
X54800000Y16933595D02*
X53599132Y18134463D01*
G04 #@! TO.N,SR_VCM_before*
X62481400Y8000000D02*
X63691400Y8000000D01*
X60610000Y8000000D02*
X62481400Y8000000D01*
X60010000Y7400000D02*
X60610000Y8000000D01*
X59400000Y7400000D02*
X60010000Y7400000D01*
X56248517Y17848519D02*
X55848518Y18248518D01*
X59400000Y9600000D02*
X59400000Y14697036D01*
X59400000Y14697036D02*
X56248517Y17848519D01*
G04 #@! TO.N,Net-(J11-Pad1)*
X46700000Y28625000D02*
X46775000Y28625000D01*
D33*
X47000000Y28400000D02*
X46715001Y28400000D01*
X50100000Y28500000D02*
X50000000Y28400000D01*
X50000000Y28400000D02*
X47000000Y28400000D01*
G04 #@! TD*
D34*
G04 #@! TO.N,GND*
G36*
X30294126Y9459990D02*
X30705874Y9459990D01*
X30737283Y9473000D01*
X31560001Y9473000D01*
X31560001Y5572885D01*
X31545503Y5500000D01*
X31602936Y5211268D01*
X31602937Y5211267D01*
X31602937Y5211266D01*
X31766491Y4966490D01*
X31828277Y4925206D01*
X32465000Y4288482D01*
X32465000Y4094126D01*
X32622569Y3713720D01*
X32760000Y3576289D01*
X32760001Y1423712D01*
X32622569Y1286280D01*
X32465000Y905874D01*
X32465000Y735000D01*
X24835000Y735000D01*
X24835000Y905874D01*
X24677431Y1286280D01*
X24540000Y1423711D01*
X24540000Y3360000D01*
X25227119Y3360000D01*
X25300000Y3345503D01*
X25372881Y3360000D01*
X25588734Y3402936D01*
X25833510Y3566490D01*
X25874796Y3628279D01*
X29271724Y7025206D01*
X29333510Y7066490D01*
X29497064Y7311266D01*
X29540000Y7527119D01*
X29540000Y7527122D01*
X29554496Y7599999D01*
X29540000Y7672876D01*
X29540000Y8390368D01*
X29648157Y8552235D01*
X29697440Y8800000D01*
X29697440Y9473000D01*
X30262717Y9473000D01*
X30294126Y9459990D01*
X30294126Y9459990D01*
G37*
X30294126Y9459990D02*
X30705874Y9459990D01*
X30737283Y9473000D01*
X31560001Y9473000D01*
X31560001Y5572885D01*
X31545503Y5500000D01*
X31602936Y5211268D01*
X31602937Y5211267D01*
X31602937Y5211266D01*
X31766491Y4966490D01*
X31828277Y4925206D01*
X32465000Y4288482D01*
X32465000Y4094126D01*
X32622569Y3713720D01*
X32760000Y3576289D01*
X32760001Y1423712D01*
X32622569Y1286280D01*
X32465000Y905874D01*
X32465000Y735000D01*
X24835000Y735000D01*
X24835000Y905874D01*
X24677431Y1286280D01*
X24540000Y1423711D01*
X24540000Y3360000D01*
X25227119Y3360000D01*
X25300000Y3345503D01*
X25372881Y3360000D01*
X25588734Y3402936D01*
X25833510Y3566490D01*
X25874796Y3628279D01*
X29271724Y7025206D01*
X29333510Y7066490D01*
X29497064Y7311266D01*
X29540000Y7527119D01*
X29540000Y7527122D01*
X29554496Y7599999D01*
X29540000Y7672876D01*
X29540000Y8390368D01*
X29648157Y8552235D01*
X29697440Y8800000D01*
X29697440Y9473000D01*
X30262717Y9473000D01*
X30294126Y9459990D01*
G36*
X24573000Y30627000D02*
X21018059Y30627000D01*
X20977891Y30634990D01*
X20905010Y30649487D01*
X20832129Y30634990D01*
X18223711Y30634990D01*
X18086280Y30772421D01*
X17705874Y30929990D01*
X17294126Y30929990D01*
X16913720Y30772421D01*
X16622569Y30481270D01*
X16465000Y30100864D01*
X16465000Y29689116D01*
X16473000Y29669802D01*
X16473000Y25219518D01*
X15608597Y24355114D01*
X15586280Y24377431D01*
X15205874Y24535000D01*
X14794126Y24535000D01*
X14413720Y24377431D01*
X14122569Y24086280D01*
X13965000Y23705874D01*
X13965000Y23294126D01*
X14072333Y23035000D01*
X13994126Y23035000D01*
X13613720Y22877431D01*
X13322569Y22586280D01*
X13165000Y22205874D01*
X13165000Y21794126D01*
X13322569Y21413720D01*
X13360001Y21376288D01*
X13360000Y19809633D01*
X13320442Y19750430D01*
X13299999Y19754496D01*
X13227122Y19740000D01*
X13227119Y19740000D01*
X13011266Y19697064D01*
X12766490Y19533510D01*
X12725206Y19471723D01*
X12228279Y18974796D01*
X12166490Y18933510D01*
X12002936Y18688733D01*
X11992991Y18638734D01*
X11945503Y18400000D01*
X11960000Y18327119D01*
X11960001Y10147885D01*
X11945503Y10075000D01*
X12002936Y9786268D01*
X12002937Y9786267D01*
X12002937Y9786266D01*
X12166491Y9541490D01*
X12228277Y9500206D01*
X12660001Y9068481D01*
X12660000Y4923711D01*
X12522569Y4786280D01*
X12365000Y4405874D01*
X12365000Y3994126D01*
X12522569Y3613720D01*
X12660001Y3476288D01*
X12660000Y1423711D01*
X12522569Y1286280D01*
X12365000Y905874D01*
X12365000Y735000D01*
X735000Y735000D01*
X735000Y2509734D01*
X1445000Y2509734D01*
X1465000Y2409187D01*
X1465000Y2154887D01*
X1562316Y1919945D01*
X1578591Y1838125D01*
X1624938Y1768762D01*
X1729138Y1517201D01*
X1921676Y1324663D01*
X1959028Y1268762D01*
X2014929Y1231410D01*
X2217201Y1029138D01*
X2481479Y919670D01*
X2528391Y888325D01*
X2583727Y877318D01*
X2854887Y765000D01*
X3148389Y765000D01*
X3200000Y754734D01*
X3251611Y765000D01*
X3545113Y765000D01*
X3816273Y877318D01*
X3871609Y888325D01*
X3918521Y919670D01*
X4182799Y1029138D01*
X4385071Y1231410D01*
X4440972Y1268762D01*
X4478324Y1324663D01*
X4670862Y1517201D01*
X4775062Y1768762D01*
X4821409Y1838125D01*
X4837684Y1919945D01*
X4935000Y2154887D01*
X4935000Y2409187D01*
X4955000Y2509734D01*
X4935000Y2610281D01*
X4935000Y2845113D01*
X4845134Y3062069D01*
X4821409Y3181343D01*
X4753846Y3282458D01*
X4670862Y3482799D01*
X4517526Y3636135D01*
X4440972Y3750706D01*
X4326401Y3827260D01*
X4182799Y3970862D01*
X3995176Y4048578D01*
X3871609Y4131143D01*
X3725851Y4160136D01*
X3545113Y4235000D01*
X3349483Y4235000D01*
X3200000Y4264734D01*
X3050517Y4235000D01*
X2854887Y4235000D01*
X2674149Y4160136D01*
X2528391Y4131143D01*
X2404824Y4048578D01*
X2217201Y3970862D01*
X2073599Y3827260D01*
X1959028Y3750706D01*
X1882474Y3636135D01*
X1729138Y3482799D01*
X1646154Y3282458D01*
X1578591Y3181343D01*
X1554866Y3062069D01*
X1465000Y2845113D01*
X1465000Y2610281D01*
X1445000Y2509734D01*
X735000Y2509734D01*
X735000Y10557881D01*
X2303000Y10557881D01*
X2303000Y10002119D01*
X2515680Y9488663D01*
X2908663Y9095680D01*
X3422119Y8883000D01*
X3977881Y8883000D01*
X4491337Y9095680D01*
X4884320Y9488663D01*
X5097000Y10002119D01*
X5097000Y10557881D01*
X7383000Y10557881D01*
X7383000Y10002119D01*
X7595680Y9488663D01*
X7988663Y9095680D01*
X8502119Y8883000D01*
X9057881Y8883000D01*
X9571337Y9095680D01*
X9964320Y9488663D01*
X10177000Y10002119D01*
X10177000Y10557881D01*
X9964320Y11071337D01*
X9571337Y11464320D01*
X9057881Y11677000D01*
X8502119Y11677000D01*
X7988663Y11464320D01*
X7595680Y11071337D01*
X7383000Y10557881D01*
X5097000Y10557881D01*
X4884320Y11071337D01*
X4491337Y11464320D01*
X3977881Y11677000D01*
X3422119Y11677000D01*
X2908663Y11464320D01*
X2515680Y11071337D01*
X2303000Y10557881D01*
X735000Y10557881D01*
X735000Y16573000D01*
X2640612Y16573000D01*
X2690235Y16539843D01*
X2938000Y16490560D01*
X4462000Y16490560D01*
X4709765Y16539843D01*
X4919809Y16680191D01*
X5060157Y16890235D01*
X5109440Y17138000D01*
X5109440Y17939586D01*
X5117333Y17951399D01*
X5127000Y18000000D01*
X5127000Y18177881D01*
X7383000Y18177881D01*
X7383000Y17622119D01*
X7595680Y17108663D01*
X7988663Y16715680D01*
X8502119Y16503000D01*
X9057881Y16503000D01*
X9571337Y16715680D01*
X9964320Y17108663D01*
X10177000Y17622119D01*
X10177000Y18177881D01*
X9964320Y18691337D01*
X9571337Y19084320D01*
X9057881Y19297000D01*
X8502119Y19297000D01*
X7988663Y19084320D01*
X7595680Y18691337D01*
X7383000Y18177881D01*
X5127000Y18177881D01*
X5127000Y19265000D01*
X6072388Y19265000D01*
X6099295Y19270352D01*
X6350088Y19288989D01*
X6423323Y19305091D01*
X6497597Y19315265D01*
X6506215Y19317785D01*
X7049500Y19480261D01*
X7140068Y19522110D01*
X7231111Y19562835D01*
X7238676Y19567673D01*
X7714521Y19876101D01*
X7789708Y19941691D01*
X7865657Y20006328D01*
X7871560Y20013094D01*
X8241715Y20442679D01*
X8295476Y20526742D01*
X8350226Y20610091D01*
X8353992Y20618242D01*
X8588698Y21134451D01*
X8616706Y21230231D01*
X8645860Y21325590D01*
X8647188Y21334470D01*
X8724760Y21876131D01*
X8735000Y21927612D01*
X8735000Y30500000D01*
X8945000Y30500000D01*
X8965000Y30399453D01*
X8965000Y30154887D01*
X9058591Y29928938D01*
X9078591Y29828391D01*
X9135546Y29743152D01*
X9229138Y29517201D01*
X9402075Y29344264D01*
X9459028Y29259028D01*
X9544264Y29202075D01*
X9717201Y29029138D01*
X9943152Y28935546D01*
X10028391Y28878591D01*
X10128938Y28858591D01*
X10354887Y28765000D01*
X10599453Y28765000D01*
X10700000Y28745000D01*
X10800547Y28765000D01*
X11045113Y28765000D01*
X11271062Y28858591D01*
X11371609Y28878591D01*
X11456848Y28935546D01*
X11682799Y29029138D01*
X11855736Y29202075D01*
X11940972Y29259028D01*
X11997925Y29344264D01*
X12170862Y29517201D01*
X12264454Y29743152D01*
X12321409Y29828391D01*
X12341409Y29928938D01*
X12435000Y30154887D01*
X12435000Y30399453D01*
X12455000Y30500000D01*
X12435000Y30600547D01*
X12435000Y30845113D01*
X12341409Y31071062D01*
X12321409Y31171609D01*
X12264454Y31256848D01*
X12170862Y31482799D01*
X11997925Y31655736D01*
X11940972Y31740972D01*
X11855736Y31797925D01*
X11682799Y31970862D01*
X11456848Y32064454D01*
X11371609Y32121409D01*
X11271062Y32141409D01*
X11045113Y32235000D01*
X10800547Y32235000D01*
X10700000Y32255000D01*
X10599453Y32235000D01*
X10354887Y32235000D01*
X10128938Y32141409D01*
X10028391Y32121409D01*
X9943152Y32064454D01*
X9717201Y31970862D01*
X9544264Y31797925D01*
X9459028Y31740972D01*
X9402075Y31655736D01*
X9229138Y31482799D01*
X9135546Y31256848D01*
X9078591Y31171609D01*
X9058591Y31071062D01*
X8965000Y30845113D01*
X8965000Y30600547D01*
X8945000Y30500000D01*
X8735000Y30500000D01*
X8735000Y32265000D01*
X24573000Y32265000D01*
X24573000Y30627000D01*
X24573000Y30627000D01*
G37*
X24573000Y30627000D02*
X21018059Y30627000D01*
X20977891Y30634990D01*
X20905010Y30649487D01*
X20832129Y30634990D01*
X18223711Y30634990D01*
X18086280Y30772421D01*
X17705874Y30929990D01*
X17294126Y30929990D01*
X16913720Y30772421D01*
X16622569Y30481270D01*
X16465000Y30100864D01*
X16465000Y29689116D01*
X16473000Y29669802D01*
X16473000Y25219518D01*
X15608597Y24355114D01*
X15586280Y24377431D01*
X15205874Y24535000D01*
X14794126Y24535000D01*
X14413720Y24377431D01*
X14122569Y24086280D01*
X13965000Y23705874D01*
X13965000Y23294126D01*
X14072333Y23035000D01*
X13994126Y23035000D01*
X13613720Y22877431D01*
X13322569Y22586280D01*
X13165000Y22205874D01*
X13165000Y21794126D01*
X13322569Y21413720D01*
X13360001Y21376288D01*
X13360000Y19809633D01*
X13320442Y19750430D01*
X13299999Y19754496D01*
X13227122Y19740000D01*
X13227119Y19740000D01*
X13011266Y19697064D01*
X12766490Y19533510D01*
X12725206Y19471723D01*
X12228279Y18974796D01*
X12166490Y18933510D01*
X12002936Y18688733D01*
X11992991Y18638734D01*
X11945503Y18400000D01*
X11960000Y18327119D01*
X11960001Y10147885D01*
X11945503Y10075000D01*
X12002936Y9786268D01*
X12002937Y9786267D01*
X12002937Y9786266D01*
X12166491Y9541490D01*
X12228277Y9500206D01*
X12660001Y9068481D01*
X12660000Y4923711D01*
X12522569Y4786280D01*
X12365000Y4405874D01*
X12365000Y3994126D01*
X12522569Y3613720D01*
X12660001Y3476288D01*
X12660000Y1423711D01*
X12522569Y1286280D01*
X12365000Y905874D01*
X12365000Y735000D01*
X735000Y735000D01*
X735000Y2509734D01*
X1445000Y2509734D01*
X1465000Y2409187D01*
X1465000Y2154887D01*
X1562316Y1919945D01*
X1578591Y1838125D01*
X1624938Y1768762D01*
X1729138Y1517201D01*
X1921676Y1324663D01*
X1959028Y1268762D01*
X2014929Y1231410D01*
X2217201Y1029138D01*
X2481479Y919670D01*
X2528391Y888325D01*
X2583727Y877318D01*
X2854887Y765000D01*
X3148389Y765000D01*
X3200000Y754734D01*
X3251611Y765000D01*
X3545113Y765000D01*
X3816273Y877318D01*
X3871609Y888325D01*
X3918521Y919670D01*
X4182799Y1029138D01*
X4385071Y1231410D01*
X4440972Y1268762D01*
X4478324Y1324663D01*
X4670862Y1517201D01*
X4775062Y1768762D01*
X4821409Y1838125D01*
X4837684Y1919945D01*
X4935000Y2154887D01*
X4935000Y2409187D01*
X4955000Y2509734D01*
X4935000Y2610281D01*
X4935000Y2845113D01*
X4845134Y3062069D01*
X4821409Y3181343D01*
X4753846Y3282458D01*
X4670862Y3482799D01*
X4517526Y3636135D01*
X4440972Y3750706D01*
X4326401Y3827260D01*
X4182799Y3970862D01*
X3995176Y4048578D01*
X3871609Y4131143D01*
X3725851Y4160136D01*
X3545113Y4235000D01*
X3349483Y4235000D01*
X3200000Y4264734D01*
X3050517Y4235000D01*
X2854887Y4235000D01*
X2674149Y4160136D01*
X2528391Y4131143D01*
X2404824Y4048578D01*
X2217201Y3970862D01*
X2073599Y3827260D01*
X1959028Y3750706D01*
X1882474Y3636135D01*
X1729138Y3482799D01*
X1646154Y3282458D01*
X1578591Y3181343D01*
X1554866Y3062069D01*
X1465000Y2845113D01*
X1465000Y2610281D01*
X1445000Y2509734D01*
X735000Y2509734D01*
X735000Y10557881D01*
X2303000Y10557881D01*
X2303000Y10002119D01*
X2515680Y9488663D01*
X2908663Y9095680D01*
X3422119Y8883000D01*
X3977881Y8883000D01*
X4491337Y9095680D01*
X4884320Y9488663D01*
X5097000Y10002119D01*
X5097000Y10557881D01*
X7383000Y10557881D01*
X7383000Y10002119D01*
X7595680Y9488663D01*
X7988663Y9095680D01*
X8502119Y8883000D01*
X9057881Y8883000D01*
X9571337Y9095680D01*
X9964320Y9488663D01*
X10177000Y10002119D01*
X10177000Y10557881D01*
X9964320Y11071337D01*
X9571337Y11464320D01*
X9057881Y11677000D01*
X8502119Y11677000D01*
X7988663Y11464320D01*
X7595680Y11071337D01*
X7383000Y10557881D01*
X5097000Y10557881D01*
X4884320Y11071337D01*
X4491337Y11464320D01*
X3977881Y11677000D01*
X3422119Y11677000D01*
X2908663Y11464320D01*
X2515680Y11071337D01*
X2303000Y10557881D01*
X735000Y10557881D01*
X735000Y16573000D01*
X2640612Y16573000D01*
X2690235Y16539843D01*
X2938000Y16490560D01*
X4462000Y16490560D01*
X4709765Y16539843D01*
X4919809Y16680191D01*
X5060157Y16890235D01*
X5109440Y17138000D01*
X5109440Y17939586D01*
X5117333Y17951399D01*
X5127000Y18000000D01*
X5127000Y18177881D01*
X7383000Y18177881D01*
X7383000Y17622119D01*
X7595680Y17108663D01*
X7988663Y16715680D01*
X8502119Y16503000D01*
X9057881Y16503000D01*
X9571337Y16715680D01*
X9964320Y17108663D01*
X10177000Y17622119D01*
X10177000Y18177881D01*
X9964320Y18691337D01*
X9571337Y19084320D01*
X9057881Y19297000D01*
X8502119Y19297000D01*
X7988663Y19084320D01*
X7595680Y18691337D01*
X7383000Y18177881D01*
X5127000Y18177881D01*
X5127000Y19265000D01*
X6072388Y19265000D01*
X6099295Y19270352D01*
X6350088Y19288989D01*
X6423323Y19305091D01*
X6497597Y19315265D01*
X6506215Y19317785D01*
X7049500Y19480261D01*
X7140068Y19522110D01*
X7231111Y19562835D01*
X7238676Y19567673D01*
X7714521Y19876101D01*
X7789708Y19941691D01*
X7865657Y20006328D01*
X7871560Y20013094D01*
X8241715Y20442679D01*
X8295476Y20526742D01*
X8350226Y20610091D01*
X8353992Y20618242D01*
X8588698Y21134451D01*
X8616706Y21230231D01*
X8645860Y21325590D01*
X8647188Y21334470D01*
X8724760Y21876131D01*
X8735000Y21927612D01*
X8735000Y30500000D01*
X8945000Y30500000D01*
X8965000Y30399453D01*
X8965000Y30154887D01*
X9058591Y29928938D01*
X9078591Y29828391D01*
X9135546Y29743152D01*
X9229138Y29517201D01*
X9402075Y29344264D01*
X9459028Y29259028D01*
X9544264Y29202075D01*
X9717201Y29029138D01*
X9943152Y28935546D01*
X10028391Y28878591D01*
X10128938Y28858591D01*
X10354887Y28765000D01*
X10599453Y28765000D01*
X10700000Y28745000D01*
X10800547Y28765000D01*
X11045113Y28765000D01*
X11271062Y28858591D01*
X11371609Y28878591D01*
X11456848Y28935546D01*
X11682799Y29029138D01*
X11855736Y29202075D01*
X11940972Y29259028D01*
X11997925Y29344264D01*
X12170862Y29517201D01*
X12264454Y29743152D01*
X12321409Y29828391D01*
X12341409Y29928938D01*
X12435000Y30154887D01*
X12435000Y30399453D01*
X12455000Y30500000D01*
X12435000Y30600547D01*
X12435000Y30845113D01*
X12341409Y31071062D01*
X12321409Y31171609D01*
X12264454Y31256848D01*
X12170862Y31482799D01*
X11997925Y31655736D01*
X11940972Y31740972D01*
X11855736Y31797925D01*
X11682799Y31970862D01*
X11456848Y32064454D01*
X11371609Y32121409D01*
X11271062Y32141409D01*
X11045113Y32235000D01*
X10800547Y32235000D01*
X10700000Y32255000D01*
X10599453Y32235000D01*
X10354887Y32235000D01*
X10128938Y32141409D01*
X10028391Y32121409D01*
X9943152Y32064454D01*
X9717201Y31970862D01*
X9544264Y31797925D01*
X9459028Y31740972D01*
X9402075Y31655736D01*
X9229138Y31482799D01*
X9135546Y31256848D01*
X9078591Y31171609D01*
X9058591Y31071062D01*
X8965000Y30845113D01*
X8965000Y30600547D01*
X8945000Y30500000D01*
X8735000Y30500000D01*
X8735000Y32265000D01*
X24573000Y32265000D01*
X24573000Y30627000D01*
G36*
X24694126Y17865000D02*
X25060001Y17865000D01*
X25060001Y13872886D01*
X25045503Y13800000D01*
X25102936Y13511268D01*
X25102937Y13511267D01*
X25102937Y13511266D01*
X25266491Y13266490D01*
X25328277Y13225206D01*
X25773000Y12780483D01*
X25773000Y11425188D01*
X25765000Y11405874D01*
X25765000Y11097670D01*
X25661480Y11028500D01*
X25620196Y10966714D01*
X24778279Y10124796D01*
X24716490Y10083510D01*
X24552936Y9838733D01*
X24542991Y9788734D01*
X24495503Y9550000D01*
X24510000Y9477119D01*
X24510001Y8512864D01*
X24510000Y8512860D01*
X24510001Y7299702D01*
X24502235Y7298157D01*
X24292191Y7157809D01*
X24267253Y7120486D01*
X24251399Y7117333D01*
X24210197Y7089803D01*
X24182667Y7048601D01*
X24173000Y7000000D01*
X24173000Y6979428D01*
X24151843Y6947765D01*
X24102560Y6700000D01*
X24102560Y5900000D01*
X24151843Y5652235D01*
X24173000Y5620572D01*
X24173000Y5065774D01*
X24005874Y5135000D01*
X23594126Y5135000D01*
X23213720Y4977431D01*
X22922569Y4686280D01*
X22765000Y4305874D01*
X22765000Y3894126D01*
X22922569Y3513720D01*
X23060001Y3376288D01*
X23060000Y1423711D01*
X22922569Y1286280D01*
X22765000Y905874D01*
X22765000Y735000D01*
X14435000Y735000D01*
X14435000Y905874D01*
X14277431Y1286280D01*
X14140000Y1423711D01*
X14140000Y3476289D01*
X14277431Y3613720D01*
X14435000Y3994126D01*
X14435000Y4405874D01*
X14277431Y4786280D01*
X14140000Y4923711D01*
X14140000Y9068483D01*
X18936518Y13865000D01*
X19130874Y13865000D01*
X19511280Y14022569D01*
X19802431Y14313720D01*
X19960000Y14694126D01*
X19960000Y15105874D01*
X19802431Y15486280D01*
X19736151Y15552560D01*
X20400000Y15552560D01*
X20647765Y15601843D01*
X20857809Y15742191D01*
X20998157Y15952235D01*
X21047440Y16200000D01*
X21047440Y17400000D01*
X21032920Y17473000D01*
X21267080Y17473000D01*
X21252560Y17400000D01*
X21252560Y16200000D01*
X21301843Y15952235D01*
X21442191Y15742191D01*
X21652235Y15601843D01*
X21900000Y15552560D01*
X22600000Y15552560D01*
X22800000Y15592342D01*
X23000000Y15552560D01*
X23700000Y15552560D01*
X23947765Y15601843D01*
X24157809Y15742191D01*
X24298157Y15952235D01*
X24347440Y16200000D01*
X24347440Y17400000D01*
X24298157Y17647765D01*
X24218987Y17766251D01*
X24257809Y17792191D01*
X24390495Y17990768D01*
X24694126Y17865000D01*
X24694126Y17865000D01*
G37*
X24694126Y17865000D02*
X25060001Y17865000D01*
X25060001Y13872886D01*
X25045503Y13800000D01*
X25102936Y13511268D01*
X25102937Y13511267D01*
X25102937Y13511266D01*
X25266491Y13266490D01*
X25328277Y13225206D01*
X25773000Y12780483D01*
X25773000Y11425188D01*
X25765000Y11405874D01*
X25765000Y11097670D01*
X25661480Y11028500D01*
X25620196Y10966714D01*
X24778279Y10124796D01*
X24716490Y10083510D01*
X24552936Y9838733D01*
X24542991Y9788734D01*
X24495503Y9550000D01*
X24510000Y9477119D01*
X24510001Y8512864D01*
X24510000Y8512860D01*
X24510001Y7299702D01*
X24502235Y7298157D01*
X24292191Y7157809D01*
X24267253Y7120486D01*
X24251399Y7117333D01*
X24210197Y7089803D01*
X24182667Y7048601D01*
X24173000Y7000000D01*
X24173000Y6979428D01*
X24151843Y6947765D01*
X24102560Y6700000D01*
X24102560Y5900000D01*
X24151843Y5652235D01*
X24173000Y5620572D01*
X24173000Y5065774D01*
X24005874Y5135000D01*
X23594126Y5135000D01*
X23213720Y4977431D01*
X22922569Y4686280D01*
X22765000Y4305874D01*
X22765000Y3894126D01*
X22922569Y3513720D01*
X23060001Y3376288D01*
X23060000Y1423711D01*
X22922569Y1286280D01*
X22765000Y905874D01*
X22765000Y735000D01*
X14435000Y735000D01*
X14435000Y905874D01*
X14277431Y1286280D01*
X14140000Y1423711D01*
X14140000Y3476289D01*
X14277431Y3613720D01*
X14435000Y3994126D01*
X14435000Y4405874D01*
X14277431Y4786280D01*
X14140000Y4923711D01*
X14140000Y9068483D01*
X18936518Y13865000D01*
X19130874Y13865000D01*
X19511280Y14022569D01*
X19802431Y14313720D01*
X19960000Y14694126D01*
X19960000Y15105874D01*
X19802431Y15486280D01*
X19736151Y15552560D01*
X20400000Y15552560D01*
X20647765Y15601843D01*
X20857809Y15742191D01*
X20998157Y15952235D01*
X21047440Y16200000D01*
X21047440Y17400000D01*
X21032920Y17473000D01*
X21267080Y17473000D01*
X21252560Y17400000D01*
X21252560Y16200000D01*
X21301843Y15952235D01*
X21442191Y15742191D01*
X21652235Y15601843D01*
X21900000Y15552560D01*
X22600000Y15552560D01*
X22800000Y15592342D01*
X23000000Y15552560D01*
X23700000Y15552560D01*
X23947765Y15601843D01*
X24157809Y15742191D01*
X24298157Y15952235D01*
X24347440Y16200000D01*
X24347440Y17400000D01*
X24298157Y17647765D01*
X24218987Y17766251D01*
X24257809Y17792191D01*
X24390495Y17990768D01*
X24694126Y17865000D01*
G36*
X52173000Y18761743D02*
X52164133Y18740336D01*
X52164133Y18328588D01*
X52321702Y17948182D01*
X52612853Y17657031D01*
X52993259Y17499462D01*
X53187616Y17499462D01*
X54060001Y16627076D01*
X54060000Y7472881D01*
X54045503Y7400000D01*
X54073099Y7261268D01*
X54102936Y7111267D01*
X54266490Y6866490D01*
X54328279Y6825204D01*
X54925206Y6228277D01*
X54966490Y6166490D01*
X55211266Y6002936D01*
X55427119Y5960000D01*
X55427122Y5960000D01*
X55499999Y5945504D01*
X55572876Y5960000D01*
X57946978Y5960000D01*
X57972120Y5954999D01*
X57972123Y5954999D01*
X58045000Y5940503D01*
X58117877Y5954999D01*
X61673000Y5954999D01*
X61673000Y4100000D01*
X61682667Y4051399D01*
X61710197Y4010197D01*
X61751399Y3982667D01*
X61800000Y3973000D01*
X62717080Y3973000D01*
X62702560Y3900000D01*
X62702560Y3100000D01*
X62751843Y2852235D01*
X62892191Y2642191D01*
X63102235Y2501843D01*
X63350000Y2452560D01*
X64050000Y2452560D01*
X64297765Y2501843D01*
X64507809Y2642191D01*
X64586527Y2760000D01*
X68138473Y2760000D01*
X68217191Y2642191D01*
X68427235Y2501843D01*
X68675000Y2452560D01*
X68975923Y2452560D01*
X69900206Y1528276D01*
X69941490Y1466490D01*
X70186266Y1302936D01*
X70402119Y1260000D01*
X70475000Y1245503D01*
X70547881Y1260000D01*
X73276289Y1260000D01*
X73413720Y1122569D01*
X73794126Y965000D01*
X74205874Y965000D01*
X74586280Y1122569D01*
X74877431Y1413720D01*
X75035000Y1794126D01*
X75035000Y2205874D01*
X74909138Y2509734D01*
X86045000Y2509734D01*
X86065000Y2409187D01*
X86065000Y2154887D01*
X86162316Y1919945D01*
X86178591Y1838125D01*
X86224938Y1768762D01*
X86329138Y1517201D01*
X86521676Y1324663D01*
X86559028Y1268762D01*
X86614929Y1231410D01*
X86817201Y1029138D01*
X87081479Y919670D01*
X87128391Y888325D01*
X87183727Y877318D01*
X87454887Y765000D01*
X87748389Y765000D01*
X87800000Y754734D01*
X87851611Y765000D01*
X88145113Y765000D01*
X88416273Y877318D01*
X88471609Y888325D01*
X88518521Y919670D01*
X88782799Y1029138D01*
X88985071Y1231410D01*
X89040972Y1268762D01*
X89078324Y1324663D01*
X89270862Y1517201D01*
X89375062Y1768762D01*
X89421409Y1838125D01*
X89437684Y1919945D01*
X89535000Y2154887D01*
X89535000Y2409187D01*
X89555000Y2509734D01*
X89535000Y2610281D01*
X89535000Y2845113D01*
X89445134Y3062069D01*
X89421409Y3181343D01*
X89353846Y3282458D01*
X89270862Y3482799D01*
X89117526Y3636135D01*
X89040972Y3750706D01*
X88926401Y3827260D01*
X88782799Y3970862D01*
X88595176Y4048578D01*
X88471609Y4131143D01*
X88325851Y4160136D01*
X88145113Y4235000D01*
X87949483Y4235000D01*
X87800000Y4264734D01*
X87650517Y4235000D01*
X87454887Y4235000D01*
X87274149Y4160136D01*
X87128391Y4131143D01*
X87004824Y4048578D01*
X86817201Y3970862D01*
X86673599Y3827260D01*
X86559028Y3750706D01*
X86482474Y3636135D01*
X86329138Y3482799D01*
X86246154Y3282458D01*
X86178591Y3181343D01*
X86154866Y3062069D01*
X86065000Y2845113D01*
X86065000Y2610281D01*
X86045000Y2509734D01*
X74909138Y2509734D01*
X74877431Y2586280D01*
X74586280Y2877431D01*
X74205874Y3035000D01*
X73794126Y3035000D01*
X73413720Y2877431D01*
X73276289Y2740000D01*
X71127000Y2740000D01*
X71127000Y6600000D01*
X71122027Y6625000D01*
X81292119Y6625000D01*
X81365000Y6610503D01*
X81437881Y6625000D01*
X81653734Y6667936D01*
X81898510Y6831490D01*
X81939796Y6893279D01*
X84606518Y9560000D01*
X85062185Y9560000D01*
X85175000Y9537560D01*
X86425000Y9537560D01*
X86672765Y9586843D01*
X86882809Y9727191D01*
X87023157Y9937235D01*
X87072440Y10185000D01*
X87072440Y10415000D01*
X87045587Y10550000D01*
X87072440Y10685000D01*
X87072440Y10915000D01*
X87045587Y11050000D01*
X87072440Y11185000D01*
X87072440Y11415000D01*
X87045587Y11550000D01*
X87072440Y11685000D01*
X87072440Y11915000D01*
X87045587Y12050000D01*
X87072440Y12185000D01*
X87072440Y12415000D01*
X87045587Y12550000D01*
X87072440Y12685000D01*
X87072440Y12915000D01*
X87045587Y13050000D01*
X87072440Y13185000D01*
X87072440Y13415000D01*
X87045587Y13550000D01*
X87072440Y13685000D01*
X87072440Y13915000D01*
X87045587Y14050000D01*
X87072440Y14185000D01*
X87072440Y14373000D01*
X88146132Y14373000D01*
X89465001Y13054130D01*
X89465000Y9397440D01*
X87475000Y9397440D01*
X87227235Y9348157D01*
X87017191Y9207809D01*
X86896377Y9027000D01*
X86025188Y9027000D01*
X86005874Y9035000D01*
X85594126Y9035000D01*
X85574812Y9027000D01*
X85500000Y9027000D01*
X85451399Y9017333D01*
X85410197Y8989803D01*
X85382667Y8948601D01*
X85382409Y8947304D01*
X85213720Y8877431D01*
X84922569Y8586280D01*
X84765000Y8205874D01*
X84765000Y7794126D01*
X84922569Y7413720D01*
X84960231Y7376058D01*
X84965000Y7352082D01*
X84965000Y7352078D01*
X85013448Y7108514D01*
X85198000Y6832314D01*
X85267718Y6785730D01*
X87085730Y4967717D01*
X87132314Y4897999D01*
X87408514Y4713448D01*
X87546371Y4686026D01*
X87551399Y4682667D01*
X87600000Y4673000D01*
X87611859Y4673000D01*
X87652078Y4665000D01*
X87734315Y4648642D01*
X87816552Y4665000D01*
X89617767Y4665000D01*
X89700000Y4648643D01*
X89782233Y4665000D01*
X89782237Y4665000D01*
X89822456Y4673000D01*
X90265000Y4673000D01*
X90265000Y735000D01*
X49827000Y735000D01*
X49827000Y1433390D01*
X49935000Y1694126D01*
X49935000Y2105874D01*
X49827000Y2366610D01*
X49827000Y2660000D01*
X50527119Y2660000D01*
X50600000Y2645503D01*
X50672881Y2660000D01*
X50888734Y2702936D01*
X51133510Y2866490D01*
X51174796Y2928279D01*
X53691746Y5445228D01*
X53753532Y5486512D01*
X53917086Y5731288D01*
X53960022Y5947141D01*
X53960022Y5947142D01*
X53974519Y6020022D01*
X53960022Y6092903D01*
X53960022Y10302092D01*
X53974518Y10374969D01*
X53960022Y10447846D01*
X53960022Y10447849D01*
X53917086Y10663702D01*
X53753532Y10908478D01*
X53691746Y10949762D01*
X50835000Y13806507D01*
X50835000Y14000864D01*
X50677431Y14381270D01*
X50386280Y14672421D01*
X50005874Y14829990D01*
X49594126Y14829990D01*
X49213720Y14672421D01*
X48922569Y14381270D01*
X48765000Y14000864D01*
X48765000Y13727000D01*
X47425188Y13727000D01*
X47405874Y13735000D01*
X46994126Y13735000D01*
X46974812Y13727000D01*
X46700000Y13727000D01*
X46651399Y13717333D01*
X46610197Y13689803D01*
X46582667Y13648601D01*
X46573000Y13600000D01*
X46573000Y13536711D01*
X46322569Y13286280D01*
X46165000Y12905874D01*
X46165000Y12494126D01*
X46322569Y12113720D01*
X46373000Y12063289D01*
X46373000Y9200000D01*
X46382667Y9151399D01*
X46410197Y9110197D01*
X46451399Y9082667D01*
X46500000Y9073000D01*
X46599807Y9073000D01*
X46545503Y8800000D01*
X46560001Y8727115D01*
X46560000Y7003118D01*
X46492191Y6957809D01*
X46351843Y6747765D01*
X46302560Y6500000D01*
X46302560Y5700000D01*
X46336377Y5529989D01*
X45073125Y5529989D01*
X44440000Y6163113D01*
X44440000Y6327119D01*
X44454497Y6400000D01*
X44440000Y6472881D01*
X44440000Y6596882D01*
X44507809Y6642191D01*
X44648157Y6852235D01*
X44697440Y7100000D01*
X44697440Y7900000D01*
X44648157Y8147765D01*
X44507809Y8357809D01*
X44297765Y8498157D01*
X44050000Y8547440D01*
X43785000Y8547440D01*
X43785000Y8905872D01*
X43627431Y9286278D01*
X43336280Y9577429D01*
X42955874Y9734998D01*
X42544126Y9734998D01*
X42163720Y9577429D01*
X41872569Y9286278D01*
X41715000Y8905872D01*
X41715000Y8494124D01*
X41872569Y8113718D01*
X42163720Y7822567D01*
X42534496Y7668987D01*
X42702560Y7500922D01*
X42702560Y7140000D01*
X40506518Y7140000D01*
X37927000Y9719518D01*
X37927000Y12725381D01*
X37988524Y12766490D01*
X38029810Y12828279D01*
X38211521Y13009990D01*
X38405878Y13009990D01*
X38786284Y13167559D01*
X39077435Y13458710D01*
X39235004Y13839116D01*
X39235004Y14250864D01*
X39077435Y14631270D01*
X38786284Y14922421D01*
X38405878Y15079990D01*
X37994130Y15079990D01*
X37613724Y14922421D01*
X37322573Y14631270D01*
X37177880Y14281949D01*
X37100000Y14297440D01*
X36300000Y14297440D01*
X36052235Y14248157D01*
X36027000Y14231295D01*
X36027000Y14447240D01*
X36047440Y14550000D01*
X36047440Y15050000D01*
X36027000Y15152760D01*
X36027000Y15300000D01*
X36017333Y15348601D01*
X35989803Y15389803D01*
X35948601Y15417333D01*
X35913614Y15424292D01*
X35857809Y15507809D01*
X35647765Y15648157D01*
X35628006Y15652087D01*
X35533510Y15793510D01*
X35471724Y15834794D01*
X35427000Y15879518D01*
X35427000Y17122341D01*
X35467191Y17062191D01*
X35677235Y16921843D01*
X35925000Y16872560D01*
X36575000Y16872560D01*
X36649011Y16887282D01*
X36863724Y16672569D01*
X37244130Y16515000D01*
X37655878Y16515000D01*
X38036284Y16672569D01*
X38173715Y16810000D01*
X46377119Y16810000D01*
X46450000Y16795503D01*
X46522881Y16810000D01*
X46738734Y16852936D01*
X46983510Y17016490D01*
X47024796Y17078279D01*
X49506518Y19560000D01*
X52173000Y19560000D01*
X52173000Y18761743D01*
X52173000Y18761743D01*
G37*
X52173000Y18761743D02*
X52164133Y18740336D01*
X52164133Y18328588D01*
X52321702Y17948182D01*
X52612853Y17657031D01*
X52993259Y17499462D01*
X53187616Y17499462D01*
X54060001Y16627076D01*
X54060000Y7472881D01*
X54045503Y7400000D01*
X54073099Y7261268D01*
X54102936Y7111267D01*
X54266490Y6866490D01*
X54328279Y6825204D01*
X54925206Y6228277D01*
X54966490Y6166490D01*
X55211266Y6002936D01*
X55427119Y5960000D01*
X55427122Y5960000D01*
X55499999Y5945504D01*
X55572876Y5960000D01*
X57946978Y5960000D01*
X57972120Y5954999D01*
X57972123Y5954999D01*
X58045000Y5940503D01*
X58117877Y5954999D01*
X61673000Y5954999D01*
X61673000Y4100000D01*
X61682667Y4051399D01*
X61710197Y4010197D01*
X61751399Y3982667D01*
X61800000Y3973000D01*
X62717080Y3973000D01*
X62702560Y3900000D01*
X62702560Y3100000D01*
X62751843Y2852235D01*
X62892191Y2642191D01*
X63102235Y2501843D01*
X63350000Y2452560D01*
X64050000Y2452560D01*
X64297765Y2501843D01*
X64507809Y2642191D01*
X64586527Y2760000D01*
X68138473Y2760000D01*
X68217191Y2642191D01*
X68427235Y2501843D01*
X68675000Y2452560D01*
X68975923Y2452560D01*
X69900206Y1528276D01*
X69941490Y1466490D01*
X70186266Y1302936D01*
X70402119Y1260000D01*
X70475000Y1245503D01*
X70547881Y1260000D01*
X73276289Y1260000D01*
X73413720Y1122569D01*
X73794126Y965000D01*
X74205874Y965000D01*
X74586280Y1122569D01*
X74877431Y1413720D01*
X75035000Y1794126D01*
X75035000Y2205874D01*
X74909138Y2509734D01*
X86045000Y2509734D01*
X86065000Y2409187D01*
X86065000Y2154887D01*
X86162316Y1919945D01*
X86178591Y1838125D01*
X86224938Y1768762D01*
X86329138Y1517201D01*
X86521676Y1324663D01*
X86559028Y1268762D01*
X86614929Y1231410D01*
X86817201Y1029138D01*
X87081479Y919670D01*
X87128391Y888325D01*
X87183727Y877318D01*
X87454887Y765000D01*
X87748389Y765000D01*
X87800000Y754734D01*
X87851611Y765000D01*
X88145113Y765000D01*
X88416273Y877318D01*
X88471609Y888325D01*
X88518521Y919670D01*
X88782799Y1029138D01*
X88985071Y1231410D01*
X89040972Y1268762D01*
X89078324Y1324663D01*
X89270862Y1517201D01*
X89375062Y1768762D01*
X89421409Y1838125D01*
X89437684Y1919945D01*
X89535000Y2154887D01*
X89535000Y2409187D01*
X89555000Y2509734D01*
X89535000Y2610281D01*
X89535000Y2845113D01*
X89445134Y3062069D01*
X89421409Y3181343D01*
X89353846Y3282458D01*
X89270862Y3482799D01*
X89117526Y3636135D01*
X89040972Y3750706D01*
X88926401Y3827260D01*
X88782799Y3970862D01*
X88595176Y4048578D01*
X88471609Y4131143D01*
X88325851Y4160136D01*
X88145113Y4235000D01*
X87949483Y4235000D01*
X87800000Y4264734D01*
X87650517Y4235000D01*
X87454887Y4235000D01*
X87274149Y4160136D01*
X87128391Y4131143D01*
X87004824Y4048578D01*
X86817201Y3970862D01*
X86673599Y3827260D01*
X86559028Y3750706D01*
X86482474Y3636135D01*
X86329138Y3482799D01*
X86246154Y3282458D01*
X86178591Y3181343D01*
X86154866Y3062069D01*
X86065000Y2845113D01*
X86065000Y2610281D01*
X86045000Y2509734D01*
X74909138Y2509734D01*
X74877431Y2586280D01*
X74586280Y2877431D01*
X74205874Y3035000D01*
X73794126Y3035000D01*
X73413720Y2877431D01*
X73276289Y2740000D01*
X71127000Y2740000D01*
X71127000Y6600000D01*
X71122027Y6625000D01*
X81292119Y6625000D01*
X81365000Y6610503D01*
X81437881Y6625000D01*
X81653734Y6667936D01*
X81898510Y6831490D01*
X81939796Y6893279D01*
X84606518Y9560000D01*
X85062185Y9560000D01*
X85175000Y9537560D01*
X86425000Y9537560D01*
X86672765Y9586843D01*
X86882809Y9727191D01*
X87023157Y9937235D01*
X87072440Y10185000D01*
X87072440Y10415000D01*
X87045587Y10550000D01*
X87072440Y10685000D01*
X87072440Y10915000D01*
X87045587Y11050000D01*
X87072440Y11185000D01*
X87072440Y11415000D01*
X87045587Y11550000D01*
X87072440Y11685000D01*
X87072440Y11915000D01*
X87045587Y12050000D01*
X87072440Y12185000D01*
X87072440Y12415000D01*
X87045587Y12550000D01*
X87072440Y12685000D01*
X87072440Y12915000D01*
X87045587Y13050000D01*
X87072440Y13185000D01*
X87072440Y13415000D01*
X87045587Y13550000D01*
X87072440Y13685000D01*
X87072440Y13915000D01*
X87045587Y14050000D01*
X87072440Y14185000D01*
X87072440Y14373000D01*
X88146132Y14373000D01*
X89465001Y13054130D01*
X89465000Y9397440D01*
X87475000Y9397440D01*
X87227235Y9348157D01*
X87017191Y9207809D01*
X86896377Y9027000D01*
X86025188Y9027000D01*
X86005874Y9035000D01*
X85594126Y9035000D01*
X85574812Y9027000D01*
X85500000Y9027000D01*
X85451399Y9017333D01*
X85410197Y8989803D01*
X85382667Y8948601D01*
X85382409Y8947304D01*
X85213720Y8877431D01*
X84922569Y8586280D01*
X84765000Y8205874D01*
X84765000Y7794126D01*
X84922569Y7413720D01*
X84960231Y7376058D01*
X84965000Y7352082D01*
X84965000Y7352078D01*
X85013448Y7108514D01*
X85198000Y6832314D01*
X85267718Y6785730D01*
X87085730Y4967717D01*
X87132314Y4897999D01*
X87408514Y4713448D01*
X87546371Y4686026D01*
X87551399Y4682667D01*
X87600000Y4673000D01*
X87611859Y4673000D01*
X87652078Y4665000D01*
X87734315Y4648642D01*
X87816552Y4665000D01*
X89617767Y4665000D01*
X89700000Y4648643D01*
X89782233Y4665000D01*
X89782237Y4665000D01*
X89822456Y4673000D01*
X90265000Y4673000D01*
X90265000Y735000D01*
X49827000Y735000D01*
X49827000Y1433390D01*
X49935000Y1694126D01*
X49935000Y2105874D01*
X49827000Y2366610D01*
X49827000Y2660000D01*
X50527119Y2660000D01*
X50600000Y2645503D01*
X50672881Y2660000D01*
X50888734Y2702936D01*
X51133510Y2866490D01*
X51174796Y2928279D01*
X53691746Y5445228D01*
X53753532Y5486512D01*
X53917086Y5731288D01*
X53960022Y5947141D01*
X53960022Y5947142D01*
X53974519Y6020022D01*
X53960022Y6092903D01*
X53960022Y10302092D01*
X53974518Y10374969D01*
X53960022Y10447846D01*
X53960022Y10447849D01*
X53917086Y10663702D01*
X53753532Y10908478D01*
X53691746Y10949762D01*
X50835000Y13806507D01*
X50835000Y14000864D01*
X50677431Y14381270D01*
X50386280Y14672421D01*
X50005874Y14829990D01*
X49594126Y14829990D01*
X49213720Y14672421D01*
X48922569Y14381270D01*
X48765000Y14000864D01*
X48765000Y13727000D01*
X47425188Y13727000D01*
X47405874Y13735000D01*
X46994126Y13735000D01*
X46974812Y13727000D01*
X46700000Y13727000D01*
X46651399Y13717333D01*
X46610197Y13689803D01*
X46582667Y13648601D01*
X46573000Y13600000D01*
X46573000Y13536711D01*
X46322569Y13286280D01*
X46165000Y12905874D01*
X46165000Y12494126D01*
X46322569Y12113720D01*
X46373000Y12063289D01*
X46373000Y9200000D01*
X46382667Y9151399D01*
X46410197Y9110197D01*
X46451399Y9082667D01*
X46500000Y9073000D01*
X46599807Y9073000D01*
X46545503Y8800000D01*
X46560001Y8727115D01*
X46560000Y7003118D01*
X46492191Y6957809D01*
X46351843Y6747765D01*
X46302560Y6500000D01*
X46302560Y5700000D01*
X46336377Y5529989D01*
X45073125Y5529989D01*
X44440000Y6163113D01*
X44440000Y6327119D01*
X44454497Y6400000D01*
X44440000Y6472881D01*
X44440000Y6596882D01*
X44507809Y6642191D01*
X44648157Y6852235D01*
X44697440Y7100000D01*
X44697440Y7900000D01*
X44648157Y8147765D01*
X44507809Y8357809D01*
X44297765Y8498157D01*
X44050000Y8547440D01*
X43785000Y8547440D01*
X43785000Y8905872D01*
X43627431Y9286278D01*
X43336280Y9577429D01*
X42955874Y9734998D01*
X42544126Y9734998D01*
X42163720Y9577429D01*
X41872569Y9286278D01*
X41715000Y8905872D01*
X41715000Y8494124D01*
X41872569Y8113718D01*
X42163720Y7822567D01*
X42534496Y7668987D01*
X42702560Y7500922D01*
X42702560Y7140000D01*
X40506518Y7140000D01*
X37927000Y9719518D01*
X37927000Y12725381D01*
X37988524Y12766490D01*
X38029810Y12828279D01*
X38211521Y13009990D01*
X38405878Y13009990D01*
X38786284Y13167559D01*
X39077435Y13458710D01*
X39235004Y13839116D01*
X39235004Y14250864D01*
X39077435Y14631270D01*
X38786284Y14922421D01*
X38405878Y15079990D01*
X37994130Y15079990D01*
X37613724Y14922421D01*
X37322573Y14631270D01*
X37177880Y14281949D01*
X37100000Y14297440D01*
X36300000Y14297440D01*
X36052235Y14248157D01*
X36027000Y14231295D01*
X36027000Y14447240D01*
X36047440Y14550000D01*
X36047440Y15050000D01*
X36027000Y15152760D01*
X36027000Y15300000D01*
X36017333Y15348601D01*
X35989803Y15389803D01*
X35948601Y15417333D01*
X35913614Y15424292D01*
X35857809Y15507809D01*
X35647765Y15648157D01*
X35628006Y15652087D01*
X35533510Y15793510D01*
X35471724Y15834794D01*
X35427000Y15879518D01*
X35427000Y17122341D01*
X35467191Y17062191D01*
X35677235Y16921843D01*
X35925000Y16872560D01*
X36575000Y16872560D01*
X36649011Y16887282D01*
X36863724Y16672569D01*
X37244130Y16515000D01*
X37655878Y16515000D01*
X38036284Y16672569D01*
X38173715Y16810000D01*
X46377119Y16810000D01*
X46450000Y16795503D01*
X46522881Y16810000D01*
X46738734Y16852936D01*
X46983510Y17016490D01*
X47024796Y17078279D01*
X49506518Y19560000D01*
X52173000Y19560000D01*
X52173000Y18761743D01*
G36*
X33360000Y12572881D02*
X33345503Y12500000D01*
X33370803Y12372809D01*
X33402936Y12211267D01*
X33566490Y11966490D01*
X33628279Y11925204D01*
X39625206Y5928276D01*
X39666490Y5866490D01*
X39911266Y5702936D01*
X40127119Y5660000D01*
X40200000Y5645503D01*
X40272881Y5660000D01*
X41973000Y5660000D01*
X41973000Y2865774D01*
X41805874Y2935000D01*
X41394126Y2935000D01*
X41013720Y2777431D01*
X40722569Y2486280D01*
X40582749Y2148723D01*
X40582667Y2148601D01*
X40582638Y2148457D01*
X40565000Y2105874D01*
X40565000Y1694126D01*
X40573000Y1674812D01*
X40573000Y735000D01*
X34535000Y735000D01*
X34535000Y905874D01*
X34377431Y1286280D01*
X34240000Y1423711D01*
X34240000Y3576289D01*
X34377431Y3713720D01*
X34535000Y4094126D01*
X34535000Y4505874D01*
X34377431Y4886280D01*
X34086280Y5177431D01*
X33705874Y5335000D01*
X33511518Y5335000D01*
X33040000Y5806517D01*
X33040000Y13473000D01*
X33360000Y13473000D01*
X33360000Y12572881D01*
X33360000Y12572881D01*
G37*
X33360000Y12572881D02*
X33345503Y12500000D01*
X33370803Y12372809D01*
X33402936Y12211267D01*
X33566490Y11966490D01*
X33628279Y11925204D01*
X39625206Y5928276D01*
X39666490Y5866490D01*
X39911266Y5702936D01*
X40127119Y5660000D01*
X40200000Y5645503D01*
X40272881Y5660000D01*
X41973000Y5660000D01*
X41973000Y2865774D01*
X41805874Y2935000D01*
X41394126Y2935000D01*
X41013720Y2777431D01*
X40722569Y2486280D01*
X40582749Y2148723D01*
X40582667Y2148601D01*
X40582638Y2148457D01*
X40565000Y2105874D01*
X40565000Y1694126D01*
X40573000Y1674812D01*
X40573000Y735000D01*
X34535000Y735000D01*
X34535000Y905874D01*
X34377431Y1286280D01*
X34240000Y1423711D01*
X34240000Y3576289D01*
X34377431Y3713720D01*
X34535000Y4094126D01*
X34535000Y4505874D01*
X34377431Y4886280D01*
X34086280Y5177431D01*
X33705874Y5335000D01*
X33511518Y5335000D01*
X33040000Y5806517D01*
X33040000Y13473000D01*
X33360000Y13473000D01*
X33360000Y12572881D01*
G36*
X49535000Y8403118D02*
X49467191Y8357809D01*
X49326843Y8147765D01*
X49277560Y7900000D01*
X49277560Y7100000D01*
X49326843Y6852235D01*
X49467191Y6642191D01*
X49478176Y6634851D01*
X48373315Y5529989D01*
X48263623Y5529989D01*
X48297440Y5700000D01*
X48297440Y6500000D01*
X48248157Y6747765D01*
X48107809Y6957809D01*
X48040000Y7003118D01*
X48040000Y8493483D01*
X48101967Y8555450D01*
X48312459Y8555450D01*
X48692865Y8713019D01*
X48984016Y9004170D01*
X49012526Y9073000D01*
X49535001Y9073000D01*
X49535000Y8403118D01*
X49535000Y8403118D01*
G37*
X49535000Y8403118D02*
X49467191Y8357809D01*
X49326843Y8147765D01*
X49277560Y7900000D01*
X49277560Y7100000D01*
X49326843Y6852235D01*
X49467191Y6642191D01*
X49478176Y6634851D01*
X48373315Y5529989D01*
X48263623Y5529989D01*
X48297440Y5700000D01*
X48297440Y6500000D01*
X48248157Y6747765D01*
X48107809Y6957809D01*
X48040000Y7003118D01*
X48040000Y8493483D01*
X48101967Y8555450D01*
X48312459Y8555450D01*
X48692865Y8713019D01*
X48984016Y9004170D01*
X49012526Y9073000D01*
X49535001Y9073000D01*
X49535000Y8403118D01*
G36*
X71177560Y13527000D02*
X67500000Y13527000D01*
X67451399Y13517333D01*
X67410197Y13489803D01*
X67382667Y13448601D01*
X67373000Y13400000D01*
X67373000Y11482760D01*
X67352560Y11380000D01*
X67352560Y10970000D01*
X67374937Y10857500D01*
X67352560Y10745000D01*
X67352560Y10335000D01*
X67374937Y10222500D01*
X67352560Y10110000D01*
X67352560Y9700000D01*
X67374937Y9587500D01*
X67352560Y9475000D01*
X67352560Y9065000D01*
X67374937Y8952500D01*
X67352560Y8840000D01*
X67352560Y8430000D01*
X67374937Y8317500D01*
X67352560Y8205000D01*
X67352560Y7795000D01*
X67374937Y7682500D01*
X67352560Y7570000D01*
X67352560Y7160000D01*
X67401843Y6912235D01*
X67523609Y6730000D01*
X67521605Y6727000D01*
X65169795Y6727000D01*
X65167791Y6730000D01*
X65289557Y6912235D01*
X65338840Y7160000D01*
X65338840Y7570000D01*
X65316463Y7682500D01*
X65338840Y7795000D01*
X65338840Y8205000D01*
X65316463Y8317500D01*
X65338840Y8430000D01*
X65338840Y8840000D01*
X65316463Y8952500D01*
X65338840Y9065000D01*
X65338840Y9475000D01*
X65316463Y9587500D01*
X65338840Y9700000D01*
X65338840Y10110000D01*
X65316463Y10222500D01*
X65338840Y10335000D01*
X65338840Y10745000D01*
X65316463Y10857500D01*
X65338840Y10970000D01*
X65338840Y11380000D01*
X65320985Y11469762D01*
X65327000Y11500000D01*
X65327000Y13500000D01*
X65317333Y13548601D01*
X65289803Y13589803D01*
X65248601Y13617333D01*
X65200000Y13627000D01*
X61497440Y13627000D01*
X61497440Y13760000D01*
X71177560Y13760000D01*
X71177560Y13527000D01*
X71177560Y13527000D01*
G37*
X71177560Y13527000D02*
X67500000Y13527000D01*
X67451399Y13517333D01*
X67410197Y13489803D01*
X67382667Y13448601D01*
X67373000Y13400000D01*
X67373000Y11482760D01*
X67352560Y11380000D01*
X67352560Y10970000D01*
X67374937Y10857500D01*
X67352560Y10745000D01*
X67352560Y10335000D01*
X67374937Y10222500D01*
X67352560Y10110000D01*
X67352560Y9700000D01*
X67374937Y9587500D01*
X67352560Y9475000D01*
X67352560Y9065000D01*
X67374937Y8952500D01*
X67352560Y8840000D01*
X67352560Y8430000D01*
X67374937Y8317500D01*
X67352560Y8205000D01*
X67352560Y7795000D01*
X67374937Y7682500D01*
X67352560Y7570000D01*
X67352560Y7160000D01*
X67401843Y6912235D01*
X67523609Y6730000D01*
X67521605Y6727000D01*
X65169795Y6727000D01*
X65167791Y6730000D01*
X65289557Y6912235D01*
X65338840Y7160000D01*
X65338840Y7570000D01*
X65316463Y7682500D01*
X65338840Y7795000D01*
X65338840Y8205000D01*
X65316463Y8317500D01*
X65338840Y8430000D01*
X65338840Y8840000D01*
X65316463Y8952500D01*
X65338840Y9065000D01*
X65338840Y9475000D01*
X65316463Y9587500D01*
X65338840Y9700000D01*
X65338840Y10110000D01*
X65316463Y10222500D01*
X65338840Y10335000D01*
X65338840Y10745000D01*
X65316463Y10857500D01*
X65338840Y10970000D01*
X65338840Y11380000D01*
X65320985Y11469762D01*
X65327000Y11500000D01*
X65327000Y13500000D01*
X65317333Y13548601D01*
X65289803Y13589803D01*
X65248601Y13617333D01*
X65200000Y13627000D01*
X61497440Y13627000D01*
X61497440Y13760000D01*
X71177560Y13760000D01*
X71177560Y13527000D01*
G36*
X14860000Y18190367D02*
X14860001Y17869709D01*
X14842191Y17857809D01*
X14701843Y17647765D01*
X14652560Y17400000D01*
X14652560Y16200000D01*
X14701843Y15952235D01*
X14842191Y15742191D01*
X15052235Y15601843D01*
X15300000Y15552560D01*
X16000000Y15552560D01*
X16200000Y15592342D01*
X16373000Y15557931D01*
X16373000Y13394518D01*
X16005482Y13027000D01*
X13440000Y13027000D01*
X13440000Y18093483D01*
X13450049Y18103531D01*
X13602235Y18001843D01*
X13850000Y17952560D01*
X14350000Y17952560D01*
X14597765Y18001843D01*
X14807809Y18142191D01*
X14850000Y18205334D01*
X14860000Y18190367D01*
X14860000Y18190367D01*
G37*
X14860000Y18190367D02*
X14860001Y17869709D01*
X14842191Y17857809D01*
X14701843Y17647765D01*
X14652560Y17400000D01*
X14652560Y16200000D01*
X14701843Y15952235D01*
X14842191Y15742191D01*
X15052235Y15601843D01*
X15300000Y15552560D01*
X16000000Y15552560D01*
X16200000Y15592342D01*
X16373000Y15557931D01*
X16373000Y13394518D01*
X16005482Y13027000D01*
X13440000Y13027000D01*
X13440000Y18093483D01*
X13450049Y18103531D01*
X13602235Y18001843D01*
X13850000Y17952560D01*
X14350000Y17952560D01*
X14597765Y18001843D01*
X14807809Y18142191D01*
X14850000Y18205334D01*
X14860000Y18190367D01*
G36*
X38673000Y31495899D02*
X38615000Y31355874D01*
X38615000Y30944126D01*
X38772569Y30563720D01*
X39063720Y30272569D01*
X39444126Y30115000D01*
X39445554Y30115000D01*
X39573000Y29987554D01*
X39573000Y28900000D01*
X39580160Y28864003D01*
X39580160Y28789002D01*
X39737729Y28408596D01*
X40028880Y28117445D01*
X40409286Y27959876D01*
X40603643Y27959876D01*
X40835240Y27728279D01*
X40876526Y27666490D01*
X41121302Y27502936D01*
X41337155Y27460000D01*
X41337158Y27460000D01*
X41410035Y27445504D01*
X41482912Y27460000D01*
X42712926Y27460000D01*
X42785807Y27445503D01*
X42858688Y27460000D01*
X43074541Y27502936D01*
X43319317Y27666490D01*
X43360603Y27728279D01*
X43671721Y28039397D01*
X43733510Y28080683D01*
X43897064Y28325459D01*
X43937560Y28529045D01*
X43937560Y27775000D01*
X43960000Y27662185D01*
X43960001Y21427000D01*
X40900000Y21427000D01*
X40851399Y21417333D01*
X40810492Y21390000D01*
X39927000Y21390000D01*
X39927000Y21861744D01*
X39954501Y22000000D01*
X39940000Y22072901D01*
X39940000Y22122881D01*
X39927000Y22188236D01*
X39927000Y22436971D01*
X40100000Y22402560D01*
X40600000Y22402560D01*
X40847765Y22451843D01*
X41057809Y22592191D01*
X41198157Y22802235D01*
X41206155Y22842444D01*
X41227431Y22863720D01*
X41385000Y23244126D01*
X41385000Y23655874D01*
X41227431Y24036280D01*
X41206155Y24057556D01*
X41198157Y24097765D01*
X41057809Y24307809D01*
X40847765Y24448157D01*
X40600000Y24497440D01*
X40100000Y24497440D01*
X39852235Y24448157D01*
X39642191Y24307809D01*
X39501843Y24097765D01*
X39493845Y24057556D01*
X39472569Y24036280D01*
X39315000Y23655874D01*
X39315000Y23244126D01*
X39373000Y23104101D01*
X39373000Y23063029D01*
X39200000Y23097440D01*
X38635000Y23097440D01*
X38635000Y23255878D01*
X38477431Y23636284D01*
X38240000Y23873715D01*
X38240000Y24727119D01*
X38254497Y24800000D01*
X38197064Y25088734D01*
X38033510Y25333510D01*
X37788734Y25497064D01*
X37572881Y25540000D01*
X37500000Y25554497D01*
X37427119Y25540000D01*
X37219593Y25540000D01*
X37198157Y25647765D01*
X37057809Y25857809D01*
X36847765Y25998157D01*
X36600000Y26047440D01*
X35600000Y26047440D01*
X35352235Y25998157D01*
X35142191Y25857809D01*
X35001843Y25647765D01*
X34952560Y25400000D01*
X34952560Y24200000D01*
X34973000Y24097240D01*
X34973000Y23781295D01*
X34947765Y23798157D01*
X34700000Y23847440D01*
X33700000Y23847440D01*
X33452235Y23798157D01*
X33242191Y23657809D01*
X33133938Y23495798D01*
X33000000Y23522440D01*
X32200000Y23522440D01*
X31952235Y23473157D01*
X31742191Y23332809D01*
X31601843Y23122765D01*
X31552560Y22875000D01*
X31552560Y22574078D01*
X30728279Y21749796D01*
X30666490Y21708510D01*
X30502936Y21463733D01*
X30489676Y21397072D01*
X30445503Y21175000D01*
X30460000Y21102119D01*
X30460001Y19767875D01*
X30445503Y19694990D01*
X30473000Y19556755D01*
X30473000Y17684828D01*
X30213720Y17577431D01*
X30076289Y17440000D01*
X28307789Y17440000D01*
X28090533Y17529990D01*
X27678785Y17529990D01*
X27540000Y17472503D01*
X27540000Y23173000D01*
X29574812Y23173000D01*
X29594126Y23165000D01*
X30005874Y23165000D01*
X30048457Y23182638D01*
X30048601Y23182667D01*
X30048723Y23182749D01*
X30386280Y23322569D01*
X30523711Y23460000D01*
X30942804Y23460000D01*
X31015685Y23445503D01*
X31088566Y23460000D01*
X31304419Y23502936D01*
X31549195Y23666490D01*
X31590481Y23728279D01*
X36621724Y28759521D01*
X36683510Y28800805D01*
X36847064Y29045581D01*
X36868858Y29155147D01*
X37027431Y29313720D01*
X37185000Y29694126D01*
X37185000Y30105874D01*
X37027431Y30486280D01*
X36736280Y30777431D01*
X36355874Y30935000D01*
X36161517Y30935000D01*
X36024796Y31071721D01*
X35983510Y31133510D01*
X35960000Y31149219D01*
X35960000Y31388483D01*
X36426508Y31854990D01*
X38673000Y31854990D01*
X38673000Y31495899D01*
X38673000Y31495899D01*
G37*
X38673000Y31495899D02*
X38615000Y31355874D01*
X38615000Y30944126D01*
X38772569Y30563720D01*
X39063720Y30272569D01*
X39444126Y30115000D01*
X39445554Y30115000D01*
X39573000Y29987554D01*
X39573000Y28900000D01*
X39580160Y28864003D01*
X39580160Y28789002D01*
X39737729Y28408596D01*
X40028880Y28117445D01*
X40409286Y27959876D01*
X40603643Y27959876D01*
X40835240Y27728279D01*
X40876526Y27666490D01*
X41121302Y27502936D01*
X41337155Y27460000D01*
X41337158Y27460000D01*
X41410035Y27445504D01*
X41482912Y27460000D01*
X42712926Y27460000D01*
X42785807Y27445503D01*
X42858688Y27460000D01*
X43074541Y27502936D01*
X43319317Y27666490D01*
X43360603Y27728279D01*
X43671721Y28039397D01*
X43733510Y28080683D01*
X43897064Y28325459D01*
X43937560Y28529045D01*
X43937560Y27775000D01*
X43960000Y27662185D01*
X43960001Y21427000D01*
X40900000Y21427000D01*
X40851399Y21417333D01*
X40810492Y21390000D01*
X39927000Y21390000D01*
X39927000Y21861744D01*
X39954501Y22000000D01*
X39940000Y22072901D01*
X39940000Y22122881D01*
X39927000Y22188236D01*
X39927000Y22436971D01*
X40100000Y22402560D01*
X40600000Y22402560D01*
X40847765Y22451843D01*
X41057809Y22592191D01*
X41198157Y22802235D01*
X41206155Y22842444D01*
X41227431Y22863720D01*
X41385000Y23244126D01*
X41385000Y23655874D01*
X41227431Y24036280D01*
X41206155Y24057556D01*
X41198157Y24097765D01*
X41057809Y24307809D01*
X40847765Y24448157D01*
X40600000Y24497440D01*
X40100000Y24497440D01*
X39852235Y24448157D01*
X39642191Y24307809D01*
X39501843Y24097765D01*
X39493845Y24057556D01*
X39472569Y24036280D01*
X39315000Y23655874D01*
X39315000Y23244126D01*
X39373000Y23104101D01*
X39373000Y23063029D01*
X39200000Y23097440D01*
X38635000Y23097440D01*
X38635000Y23255878D01*
X38477431Y23636284D01*
X38240000Y23873715D01*
X38240000Y24727119D01*
X38254497Y24800000D01*
X38197064Y25088734D01*
X38033510Y25333510D01*
X37788734Y25497064D01*
X37572881Y25540000D01*
X37500000Y25554497D01*
X37427119Y25540000D01*
X37219593Y25540000D01*
X37198157Y25647765D01*
X37057809Y25857809D01*
X36847765Y25998157D01*
X36600000Y26047440D01*
X35600000Y26047440D01*
X35352235Y25998157D01*
X35142191Y25857809D01*
X35001843Y25647765D01*
X34952560Y25400000D01*
X34952560Y24200000D01*
X34973000Y24097240D01*
X34973000Y23781295D01*
X34947765Y23798157D01*
X34700000Y23847440D01*
X33700000Y23847440D01*
X33452235Y23798157D01*
X33242191Y23657809D01*
X33133938Y23495798D01*
X33000000Y23522440D01*
X32200000Y23522440D01*
X31952235Y23473157D01*
X31742191Y23332809D01*
X31601843Y23122765D01*
X31552560Y22875000D01*
X31552560Y22574078D01*
X30728279Y21749796D01*
X30666490Y21708510D01*
X30502936Y21463733D01*
X30489676Y21397072D01*
X30445503Y21175000D01*
X30460000Y21102119D01*
X30460001Y19767875D01*
X30445503Y19694990D01*
X30473000Y19556755D01*
X30473000Y17684828D01*
X30213720Y17577431D01*
X30076289Y17440000D01*
X28307789Y17440000D01*
X28090533Y17529990D01*
X27678785Y17529990D01*
X27540000Y17472503D01*
X27540000Y23173000D01*
X29574812Y23173000D01*
X29594126Y23165000D01*
X30005874Y23165000D01*
X30048457Y23182638D01*
X30048601Y23182667D01*
X30048723Y23182749D01*
X30386280Y23322569D01*
X30523711Y23460000D01*
X30942804Y23460000D01*
X31015685Y23445503D01*
X31088566Y23460000D01*
X31304419Y23502936D01*
X31549195Y23666490D01*
X31590481Y23728279D01*
X36621724Y28759521D01*
X36683510Y28800805D01*
X36847064Y29045581D01*
X36868858Y29155147D01*
X37027431Y29313720D01*
X37185000Y29694126D01*
X37185000Y30105874D01*
X37027431Y30486280D01*
X36736280Y30777431D01*
X36355874Y30935000D01*
X36161517Y30935000D01*
X36024796Y31071721D01*
X35983510Y31133510D01*
X35960000Y31149219D01*
X35960000Y31388483D01*
X36426508Y31854990D01*
X38673000Y31854990D01*
X38673000Y31495899D01*
G36*
X35600000Y21352560D02*
X36363156Y21352560D01*
X36551404Y21315115D01*
X36472569Y21236280D01*
X36315000Y20855874D01*
X36315000Y20444126D01*
X36472569Y20063720D01*
X36486761Y20049528D01*
X36365133Y19755890D01*
X36365133Y19567440D01*
X35925000Y19567440D01*
X35677235Y19518157D01*
X35467191Y19377809D01*
X35425000Y19314666D01*
X35419766Y19322500D01*
X35523157Y19477235D01*
X35572440Y19725000D01*
X35572440Y21125000D01*
X35524176Y21367642D01*
X35600000Y21352560D01*
X35600000Y21352560D01*
G37*
X35600000Y21352560D02*
X36363156Y21352560D01*
X36551404Y21315115D01*
X36472569Y21236280D01*
X36315000Y20855874D01*
X36315000Y20444126D01*
X36472569Y20063720D01*
X36486761Y20049528D01*
X36365133Y19755890D01*
X36365133Y19567440D01*
X35925000Y19567440D01*
X35677235Y19518157D01*
X35467191Y19377809D01*
X35425000Y19314666D01*
X35419766Y19322500D01*
X35523157Y19477235D01*
X35572440Y19725000D01*
X35572440Y21125000D01*
X35524176Y21367642D01*
X35600000Y21352560D01*
G36*
X33242191Y21542191D02*
X33452235Y21401843D01*
X33673858Y21357760D01*
X33627560Y21125000D01*
X33627560Y19725000D01*
X33676843Y19477235D01*
X33777228Y19327000D01*
X32813093Y19327000D01*
X32805874Y19329990D01*
X32611518Y19329990D01*
X31940000Y20001507D01*
X31940000Y20868483D01*
X32599078Y21527560D01*
X33000000Y21527560D01*
X33222407Y21571799D01*
X33242191Y21542191D01*
X33242191Y21542191D01*
G37*
X33242191Y21542191D02*
X33452235Y21401843D01*
X33673858Y21357760D01*
X33627560Y21125000D01*
X33627560Y19725000D01*
X33676843Y19477235D01*
X33777228Y19327000D01*
X32813093Y19327000D01*
X32805874Y19329990D01*
X32611518Y19329990D01*
X31940000Y20001507D01*
X31940000Y20868483D01*
X32599078Y21527560D01*
X33000000Y21527560D01*
X33222407Y21571799D01*
X33242191Y21542191D01*
G36*
X58513720Y27622569D02*
X58894126Y27465000D01*
X59305874Y27465000D01*
X59686280Y27622569D01*
X59728711Y27665000D01*
X61273000Y27665000D01*
X61273000Y26925188D01*
X61265000Y26905874D01*
X61265000Y26494126D01*
X61273000Y26474812D01*
X61273000Y26400000D01*
X61282667Y26351399D01*
X61310197Y26310197D01*
X61351399Y26282667D01*
X61352696Y26282409D01*
X61422569Y26113720D01*
X61560000Y25976289D01*
X61560001Y20628722D01*
X61422569Y20491290D01*
X61265000Y20110884D01*
X61265000Y19940006D01*
X57724562Y19940006D01*
X57577229Y20087339D01*
X57412742Y20155471D01*
X57389803Y20189803D01*
X57348601Y20217333D01*
X57300000Y20227000D01*
X57240057Y20227000D01*
X57196823Y20244908D01*
X56785075Y20244908D01*
X56741841Y20227000D01*
X55959955Y20227000D01*
X55415234Y20771721D01*
X55373948Y20833510D01*
X55129172Y20997064D01*
X54913319Y21040000D01*
X54840438Y21054497D01*
X54767557Y21040000D01*
X52727000Y21040000D01*
X52727000Y21282794D01*
X52822765Y21301843D01*
X53032809Y21442191D01*
X53173157Y21652235D01*
X53222440Y21900000D01*
X53222440Y22360000D01*
X55077119Y22360000D01*
X55150000Y22345503D01*
X55222881Y22360000D01*
X55438734Y22402936D01*
X55683510Y22566490D01*
X55724796Y22628279D01*
X56021721Y22925204D01*
X56083510Y22966490D01*
X56247064Y23211266D01*
X56290000Y23427119D01*
X56290000Y23427122D01*
X56304496Y23499999D01*
X56290000Y23572876D01*
X56290000Y27447124D01*
X56304496Y27520001D01*
X56290000Y27592880D01*
X56290000Y27592881D01*
X56275655Y27665000D01*
X58471289Y27665000D01*
X58513720Y27622569D01*
X58513720Y27622569D01*
G37*
X58513720Y27622569D02*
X58894126Y27465000D01*
X59305874Y27465000D01*
X59686280Y27622569D01*
X59728711Y27665000D01*
X61273000Y27665000D01*
X61273000Y26925188D01*
X61265000Y26905874D01*
X61265000Y26494126D01*
X61273000Y26474812D01*
X61273000Y26400000D01*
X61282667Y26351399D01*
X61310197Y26310197D01*
X61351399Y26282667D01*
X61352696Y26282409D01*
X61422569Y26113720D01*
X61560000Y25976289D01*
X61560001Y20628722D01*
X61422569Y20491290D01*
X61265000Y20110884D01*
X61265000Y19940006D01*
X57724562Y19940006D01*
X57577229Y20087339D01*
X57412742Y20155471D01*
X57389803Y20189803D01*
X57348601Y20217333D01*
X57300000Y20227000D01*
X57240057Y20227000D01*
X57196823Y20244908D01*
X56785075Y20244908D01*
X56741841Y20227000D01*
X55959955Y20227000D01*
X55415234Y20771721D01*
X55373948Y20833510D01*
X55129172Y20997064D01*
X54913319Y21040000D01*
X54840438Y21054497D01*
X54767557Y21040000D01*
X52727000Y21040000D01*
X52727000Y21282794D01*
X52822765Y21301843D01*
X53032809Y21442191D01*
X53173157Y21652235D01*
X53222440Y21900000D01*
X53222440Y22360000D01*
X55077119Y22360000D01*
X55150000Y22345503D01*
X55222881Y22360000D01*
X55438734Y22402936D01*
X55683510Y22566490D01*
X55724796Y22628279D01*
X56021721Y22925204D01*
X56083510Y22966490D01*
X56247064Y23211266D01*
X56290000Y23427119D01*
X56290000Y23427122D01*
X56304496Y23499999D01*
X56290000Y23572876D01*
X56290000Y27447124D01*
X56304496Y27520001D01*
X56290000Y27592880D01*
X56290000Y27592881D01*
X56275655Y27665000D01*
X58471289Y27665000D01*
X58513720Y27622569D01*
G36*
X82265001Y28527000D02*
X77938232Y28527000D01*
X77872882Y28539999D01*
X77800001Y28554496D01*
X77727120Y28539999D01*
X69572886Y28539999D01*
X69500005Y28554496D01*
X69427124Y28539999D01*
X69361774Y28527000D01*
X68819512Y28527000D01*
X67674790Y29671721D01*
X67633504Y29733510D01*
X67388728Y29897064D01*
X67172875Y29940000D01*
X67099994Y29954497D01*
X67027113Y29940000D01*
X63232516Y29940000D01*
X63040000Y30132515D01*
X63040000Y30500000D01*
X78545000Y30500000D01*
X78565000Y30399453D01*
X78565000Y30154887D01*
X78658591Y29928938D01*
X78678591Y29828391D01*
X78735546Y29743152D01*
X78829138Y29517201D01*
X79002075Y29344264D01*
X79059028Y29259028D01*
X79144264Y29202075D01*
X79317201Y29029138D01*
X79543152Y28935546D01*
X79628391Y28878591D01*
X79728938Y28858591D01*
X79954887Y28765000D01*
X80199453Y28765000D01*
X80300000Y28745000D01*
X80400547Y28765000D01*
X80645113Y28765000D01*
X80871062Y28858591D01*
X80971609Y28878591D01*
X81056848Y28935546D01*
X81282799Y29029138D01*
X81455736Y29202075D01*
X81540972Y29259028D01*
X81597925Y29344264D01*
X81770862Y29517201D01*
X81864454Y29743152D01*
X81921409Y29828391D01*
X81941409Y29928938D01*
X82035000Y30154887D01*
X82035000Y30399453D01*
X82055000Y30500000D01*
X82035000Y30600547D01*
X82035000Y30845113D01*
X81941409Y31071062D01*
X81921409Y31171609D01*
X81864454Y31256848D01*
X81770862Y31482799D01*
X81597925Y31655736D01*
X81540972Y31740972D01*
X81455736Y31797925D01*
X81282799Y31970862D01*
X81056848Y32064454D01*
X80971609Y32121409D01*
X80871062Y32141409D01*
X80645113Y32235000D01*
X80400547Y32235000D01*
X80300000Y32255000D01*
X80199453Y32235000D01*
X79954887Y32235000D01*
X79728938Y32141409D01*
X79628391Y32121409D01*
X79543152Y32064454D01*
X79317201Y31970862D01*
X79144264Y31797925D01*
X79059028Y31740972D01*
X79002075Y31655736D01*
X78829138Y31482799D01*
X78735546Y31256848D01*
X78678591Y31171609D01*
X78658591Y31071062D01*
X78565000Y30845113D01*
X78565000Y30600547D01*
X78545000Y30500000D01*
X63040000Y30500000D01*
X63040000Y30580956D01*
X63048601Y30582667D01*
X63089803Y30610197D01*
X63117333Y30651399D01*
X63127000Y30700000D01*
X63127000Y32265000D01*
X82265001Y32265000D01*
X82265001Y28527000D01*
X82265001Y28527000D01*
G37*
X82265001Y28527000D02*
X77938232Y28527000D01*
X77872882Y28539999D01*
X77800001Y28554496D01*
X77727120Y28539999D01*
X69572886Y28539999D01*
X69500005Y28554496D01*
X69427124Y28539999D01*
X69361774Y28527000D01*
X68819512Y28527000D01*
X67674790Y29671721D01*
X67633504Y29733510D01*
X67388728Y29897064D01*
X67172875Y29940000D01*
X67099994Y29954497D01*
X67027113Y29940000D01*
X63232516Y29940000D01*
X63040000Y30132515D01*
X63040000Y30500000D01*
X78545000Y30500000D01*
X78565000Y30399453D01*
X78565000Y30154887D01*
X78658591Y29928938D01*
X78678591Y29828391D01*
X78735546Y29743152D01*
X78829138Y29517201D01*
X79002075Y29344264D01*
X79059028Y29259028D01*
X79144264Y29202075D01*
X79317201Y29029138D01*
X79543152Y28935546D01*
X79628391Y28878591D01*
X79728938Y28858591D01*
X79954887Y28765000D01*
X80199453Y28765000D01*
X80300000Y28745000D01*
X80400547Y28765000D01*
X80645113Y28765000D01*
X80871062Y28858591D01*
X80971609Y28878591D01*
X81056848Y28935546D01*
X81282799Y29029138D01*
X81455736Y29202075D01*
X81540972Y29259028D01*
X81597925Y29344264D01*
X81770862Y29517201D01*
X81864454Y29743152D01*
X81921409Y29828391D01*
X81941409Y29928938D01*
X82035000Y30154887D01*
X82035000Y30399453D01*
X82055000Y30500000D01*
X82035000Y30600547D01*
X82035000Y30845113D01*
X81941409Y31071062D01*
X81921409Y31171609D01*
X81864454Y31256848D01*
X81770862Y31482799D01*
X81597925Y31655736D01*
X81540972Y31740972D01*
X81455736Y31797925D01*
X81282799Y31970862D01*
X81056848Y32064454D01*
X80971609Y32121409D01*
X80871062Y32141409D01*
X80645113Y32235000D01*
X80400547Y32235000D01*
X80300000Y32255000D01*
X80199453Y32235000D01*
X79954887Y32235000D01*
X79728938Y32141409D01*
X79628391Y32121409D01*
X79543152Y32064454D01*
X79317201Y31970862D01*
X79144264Y31797925D01*
X79059028Y31740972D01*
X79002075Y31655736D01*
X78829138Y31482799D01*
X78735546Y31256848D01*
X78678591Y31171609D01*
X78658591Y31071062D01*
X78565000Y30845113D01*
X78565000Y30600547D01*
X78545000Y30500000D01*
X63040000Y30500000D01*
X63040000Y30580956D01*
X63048601Y30582667D01*
X63089803Y30610197D01*
X63117333Y30651399D01*
X63127000Y30700000D01*
X63127000Y32265000D01*
X82265001Y32265000D01*
X82265001Y28527000D01*
G04 #@! TD*
M02*
