G04 #@! TF.GenerationSoftware,KiCad,Pcbnew,(5.0.0)*
G04 #@! TF.CreationDate,2019-07-10T12:20:45+09:00*
G04 #@! TF.ProjectId,MainCircuit_v2_top,4D61696E436972637569745F76325F74,rev?*
G04 #@! TF.SameCoordinates,PX61d8d40PY6e87e60*
G04 #@! TF.FileFunction,Soldermask,Top*
G04 #@! TF.FilePolarity,Negative*
%FSLAX46Y46*%
G04 Gerber Fmt 4.6, Leading zero omitted, Abs format (unit mm)*
G04 Created by KiCad (PCBNEW (5.0.0)) date 07/10/19 12:20:45*
%MOMM*%
%LPD*%
G01*
G04 APERTURE LIST*
%ADD10R,1.924000X1.924000*%
%ADD11C,1.924000*%
%ADD12R,1.100000X1.200000*%
%ADD13C,2.600000*%
%ADD14R,1.200000X1.100000*%
%ADD15R,1.000000X1.950000*%
%ADD16R,1.600000X2.200000*%
%ADD17R,1.950000X1.000000*%
%ADD18R,2.200000X1.600000*%
%ADD19R,1.150000X0.900000*%
%ADD20R,1.200000X1.300000*%
%ADD21R,0.900000X1.200000*%
%ADD22R,1.200000X0.900000*%
%ADD23R,0.900000X0.650000*%
%ADD24R,2.000000X1.050000*%
%ADD25R,1.900000X1.050000*%
%ADD26R,0.680000X1.600000*%
%ADD27R,1.600000X0.680000*%
%ADD28R,1.275000X1.200000*%
%ADD29R,0.600000X0.950000*%
%ADD30R,0.950000X0.600000*%
%ADD31R,1.200000X1.200000*%
%ADD32R,2.000000X3.900000*%
%ADD33R,2.000000X2.900000*%
%ADD34R,1.600000X2.600000*%
G04 APERTURE END LIST*
D10*
G04 #@! TO.C,SW4*
X3700000Y17900000D03*
D11*
X6240000Y17900000D03*
X8780000Y17900000D03*
X3700000Y10280000D03*
X6240000Y10280000D03*
X8780000Y10280000D03*
G04 #@! TD*
D12*
G04 #@! TO.C,C12*
X42250000Y30650000D03*
X40750000Y30650000D03*
G04 #@! TD*
D13*
G04 #@! TO.C,REF\002A\002A*
X3200000Y2500000D03*
G04 #@! TD*
G04 #@! TO.C,REF\002A\002A*
X87800000Y2500000D03*
G04 #@! TD*
G04 #@! TO.C,REF\002A\002A*
X10700000Y30500000D03*
G04 #@! TD*
D14*
G04 #@! TO.C,C2*
X30100000Y19000000D03*
X30100000Y20500000D03*
G04 #@! TD*
G04 #@! TO.C,C5*
X56300000Y26500000D03*
X56300000Y25000000D03*
G04 #@! TD*
G04 #@! TO.C,C11*
X42500000Y29075000D03*
X42500000Y27575000D03*
G04 #@! TD*
G04 #@! TO.C,C13*
X17800000Y2725000D03*
X17800000Y4225000D03*
G04 #@! TD*
G04 #@! TO.C,C14*
X28300000Y2600000D03*
X28300000Y4100000D03*
G04 #@! TD*
G04 #@! TO.C,C15*
X40700000Y29100000D03*
X40700000Y27600000D03*
G04 #@! TD*
G04 #@! TO.C,C16*
X17800000Y22000000D03*
X17800000Y23500000D03*
G04 #@! TD*
G04 #@! TO.C,C17*
X37900000Y2800000D03*
X37900000Y4300000D03*
G04 #@! TD*
D12*
G04 #@! TO.C,C20*
X18925000Y14900000D03*
X20425000Y14900000D03*
G04 #@! TD*
D15*
G04 #@! TO.C,J3*
X70700000Y28300000D03*
X71700000Y28300000D03*
X72700000Y28300000D03*
D16*
X69400000Y30825000D03*
X74000000Y30825000D03*
G04 #@! TD*
D17*
G04 #@! TO.C,J4*
X85937500Y14700000D03*
X85937500Y13700000D03*
X85937500Y12700000D03*
X85937500Y11700000D03*
X85937500Y10700000D03*
X85937500Y9700000D03*
D18*
X88462500Y16000000D03*
X88462500Y8400000D03*
G04 #@! TD*
D15*
G04 #@! TO.C,J5*
X16500000Y28200000D03*
X17500000Y28200000D03*
X18500000Y28200000D03*
D16*
X15200000Y30725000D03*
X19800000Y30725000D03*
G04 #@! TD*
D17*
G04 #@! TO.C,J6*
X78437500Y25000000D03*
X78437500Y24000000D03*
X78437500Y23000000D03*
X78437500Y22000000D03*
D18*
X80962500Y26300000D03*
X80962500Y20700000D03*
G04 #@! TD*
D15*
G04 #@! TO.C,J8*
X61300000Y28300000D03*
X62300000Y28300000D03*
X63300000Y28300000D03*
D16*
X60000000Y30825000D03*
X64600000Y30825000D03*
G04 #@! TD*
G04 #@! TO.C,J9*
X29100000Y30762500D03*
X23500000Y30762500D03*
D15*
X27800000Y28237500D03*
X26800000Y28237500D03*
X25800000Y28237500D03*
X24800000Y28237500D03*
G04 #@! TD*
D16*
G04 #@! TO.C,J10*
X38400000Y30762500D03*
X32800000Y30762500D03*
D15*
X37100000Y28237500D03*
X36100000Y28237500D03*
X35100000Y28237500D03*
X34100000Y28237500D03*
G04 #@! TD*
D19*
G04 #@! TO.C,LED1*
X46300000Y3000000D03*
X44750000Y3000000D03*
X44750000Y2000000D03*
X46300000Y2000000D03*
G04 #@! TD*
D20*
G04 #@! TO.C,Q1*
X52550000Y28500000D03*
X55230000Y28500000D03*
X53900000Y30500000D03*
G04 #@! TD*
D21*
G04 #@! TO.C,R1*
X30100000Y17700000D03*
X31600000Y17700000D03*
G04 #@! TD*
D22*
G04 #@! TO.C,R2*
X53600000Y10700000D03*
X53600000Y12200000D03*
G04 #@! TD*
G04 #@! TO.C,R3*
X57500000Y10700000D03*
X57500000Y12200000D03*
G04 #@! TD*
G04 #@! TO.C,R4*
X61400000Y10700000D03*
X61400000Y12200000D03*
G04 #@! TD*
G04 #@! TO.C,R5*
X65300000Y10700000D03*
X65300000Y12200000D03*
G04 #@! TD*
D21*
G04 #@! TO.C,R7*
X54700000Y25100000D03*
X53200000Y25100000D03*
G04 #@! TD*
G04 #@! TO.C,R8*
X53200000Y26500000D03*
X54700000Y26500000D03*
G04 #@! TD*
D22*
G04 #@! TO.C,R9*
X69200000Y10700000D03*
X69200000Y12200000D03*
G04 #@! TD*
G04 #@! TO.C,R10*
X73200000Y10700000D03*
X73200000Y12200000D03*
G04 #@! TD*
G04 #@! TO.C,R11*
X13400000Y2700000D03*
X13400000Y4200000D03*
G04 #@! TD*
G04 #@! TO.C,R12*
X23800000Y2600000D03*
X23800000Y4100000D03*
G04 #@! TD*
G04 #@! TO.C,R13*
X15600000Y4200000D03*
X15600000Y2700000D03*
G04 #@! TD*
G04 #@! TO.C,R14*
X26100000Y4100000D03*
X26100000Y2600000D03*
G04 #@! TD*
G04 #@! TO.C,R15*
X15000000Y23500000D03*
X15000000Y22000000D03*
G04 #@! TD*
G04 #@! TO.C,R16*
X33500000Y2800000D03*
X33500000Y4300000D03*
G04 #@! TD*
G04 #@! TO.C,R17*
X16400000Y23500000D03*
X16400000Y22000000D03*
G04 #@! TD*
G04 #@! TO.C,R18*
X35700000Y4300000D03*
X35700000Y2800000D03*
G04 #@! TD*
D23*
G04 #@! TO.C,RN1*
X50300000Y26000000D03*
X50300000Y25500000D03*
X51300000Y25500000D03*
X51300000Y26000000D03*
X51300000Y25000000D03*
X50300000Y26500000D03*
X51300000Y26500000D03*
X50300000Y25000000D03*
G04 #@! TD*
D24*
G04 #@! TO.C,SW1*
X23300000Y17950000D03*
D25*
X28100000Y17950000D03*
D24*
X23300000Y20100000D03*
D25*
X28100000Y20100000D03*
G04 #@! TD*
D24*
G04 #@! TO.C,SW2*
X13100000Y5700000D03*
D25*
X17900000Y5700000D03*
D24*
X13100000Y7850000D03*
D25*
X17900000Y7850000D03*
G04 #@! TD*
D24*
G04 #@! TO.C,SW3*
X23500000Y5650000D03*
D25*
X28300000Y5650000D03*
D24*
X23500000Y7800000D03*
D25*
X28300000Y7800000D03*
G04 #@! TD*
D24*
G04 #@! TO.C,SW5*
X33100000Y5700000D03*
D25*
X37900000Y5700000D03*
D24*
X33100000Y7850000D03*
D25*
X37900000Y7850000D03*
G04 #@! TD*
D26*
G04 #@! TO.C,U1*
X41750000Y22250000D03*
X42250000Y22250000D03*
X42750000Y22250000D03*
X43250000Y22250000D03*
X43750000Y22250000D03*
X44250000Y22250000D03*
X44750000Y22250000D03*
X45250000Y22250000D03*
X45750000Y22250000D03*
X46250000Y22250000D03*
X46750000Y22250000D03*
X47250000Y22250000D03*
X47750000Y22250000D03*
X48250000Y22250000D03*
X48750000Y22250000D03*
X49250000Y22250000D03*
D27*
X51250000Y20250000D03*
X51250000Y19750000D03*
X51250000Y19250000D03*
X51250000Y18750000D03*
X51250000Y18250000D03*
X51250000Y17750000D03*
X51250000Y17250000D03*
X51250000Y16750000D03*
X51250000Y16250000D03*
X51250000Y15750000D03*
X51250000Y15250000D03*
X51250000Y14750000D03*
X51250000Y14250000D03*
X51250000Y13750000D03*
X51250000Y13250000D03*
X51250000Y12750000D03*
D26*
X49250000Y10750000D03*
X48750000Y10750000D03*
X48250000Y10750000D03*
X47750000Y10750000D03*
X47250000Y10750000D03*
X46750000Y10750000D03*
X46250000Y10750000D03*
X45750000Y10750000D03*
X45250000Y10750000D03*
X44750000Y10750000D03*
X44250000Y10750000D03*
X43750000Y10750000D03*
X43250000Y10750000D03*
X42750000Y10750000D03*
X42250000Y10750000D03*
X41750000Y10750000D03*
D27*
X39750000Y12750000D03*
X39750000Y13250000D03*
X39750000Y13750000D03*
X39750000Y14250000D03*
X39750000Y14750000D03*
X39750000Y15250000D03*
X39750000Y15750000D03*
X39750000Y16250000D03*
X39750000Y16750000D03*
X39750000Y17250000D03*
X39750000Y17750000D03*
X39750000Y18250000D03*
X39750000Y18750000D03*
X39750000Y19250000D03*
X39750000Y19750000D03*
X39750000Y20250000D03*
G04 #@! TD*
D28*
G04 #@! TO.C,U2*
X45030000Y30000000D03*
X45030000Y29200000D03*
D29*
X44465000Y28040000D03*
D30*
X47025000Y29400000D03*
D29*
X45665000Y28040000D03*
D30*
X43905000Y28600000D03*
X43905000Y30200000D03*
X43905000Y29800000D03*
D29*
X44865000Y28040000D03*
X46465000Y31160000D03*
D30*
X47025000Y29000000D03*
D28*
X45900000Y30000000D03*
D29*
X46065000Y31160000D03*
X45265000Y28040000D03*
D30*
X47025000Y29800000D03*
D29*
X46465000Y28040000D03*
D30*
X43905000Y29000000D03*
D29*
X45265000Y31160000D03*
D30*
X47025000Y30200000D03*
D29*
X44465000Y31160000D03*
D30*
X47025000Y30600000D03*
X47025000Y28600000D03*
X43905000Y30600000D03*
D29*
X44865000Y31160000D03*
D30*
X43905000Y29400000D03*
D28*
X45900000Y29200000D03*
D29*
X45665000Y31160000D03*
X46065000Y28040000D03*
G04 #@! TD*
D31*
G04 #@! TO.C,D1*
X70500000Y23700000D03*
X69000000Y23700000D03*
G04 #@! TD*
G04 #@! TO.C,D2*
X74200000Y23700000D03*
X72700000Y23700000D03*
G04 #@! TD*
D21*
G04 #@! TO.C,R25*
X70500000Y25700000D03*
X69000000Y25700000D03*
G04 #@! TD*
G04 #@! TO.C,R26*
X74200000Y25700000D03*
X72700000Y25700000D03*
G04 #@! TD*
D13*
G04 #@! TO.C,REF\002A\002A*
X80300000Y30500000D03*
G04 #@! TD*
D17*
G04 #@! TO.C,J7*
X12400000Y22500000D03*
X12400000Y23500000D03*
X12400000Y24500000D03*
X12400000Y25500000D03*
D18*
X9875000Y21200000D03*
X9875000Y26800000D03*
G04 #@! TD*
D14*
G04 #@! TO.C,C22*
X76000000Y6700000D03*
X76000000Y8200000D03*
G04 #@! TD*
D32*
G04 #@! TO.C,C23*
X80500000Y2600000D03*
X80500000Y8000000D03*
G04 #@! TD*
D33*
G04 #@! TO.C,RV1*
X53600000Y7900000D03*
D34*
X54600000Y4650000D03*
X52600000Y4650000D03*
G04 #@! TD*
D33*
G04 #@! TO.C,RV2*
X57500000Y7900000D03*
D34*
X58500000Y4650000D03*
X56500000Y4650000D03*
G04 #@! TD*
G04 #@! TO.C,RV3*
X60400000Y4650000D03*
X62400000Y4650000D03*
D33*
X61400000Y7900000D03*
G04 #@! TD*
D34*
G04 #@! TO.C,RV4*
X64300000Y4600000D03*
X66300000Y4600000D03*
D33*
X65300000Y7850000D03*
G04 #@! TD*
G04 #@! TO.C,RV5*
X69200000Y7900000D03*
D34*
X70200000Y4650000D03*
X68200000Y4650000D03*
G04 #@! TD*
G04 #@! TO.C,RV6*
X72200000Y4600000D03*
X74200000Y4600000D03*
D33*
X73200000Y7850000D03*
G04 #@! TD*
M02*
