G04 #@! TF.GenerationSoftware,KiCad,Pcbnew,(5.0.0)*
G04 #@! TF.CreationDate,2019-07-10T12:20:45+09:00*
G04 #@! TF.ProjectId,MainCircuit_v2_top,4D61696E436972637569745F76325F74,rev?*
G04 #@! TF.SameCoordinates,PX61d8d40PY6e87e60*
G04 #@! TF.FileFunction,Copper,L1,Top,Signal*
G04 #@! TF.FilePolarity,Positive*
%FSLAX46Y46*%
G04 Gerber Fmt 4.6, Leading zero omitted, Abs format (unit mm)*
G04 Created by KiCad (PCBNEW (5.0.0)) date 07/10/19 12:20:45*
%MOMM*%
%LPD*%
G01*
G04 APERTURE LIST*
G04 #@! TA.AperFunction,ComponentPad*
%ADD10R,1.524000X1.524000*%
G04 #@! TD*
G04 #@! TA.AperFunction,ComponentPad*
%ADD11C,1.524000*%
G04 #@! TD*
G04 #@! TA.AperFunction,SMDPad,CuDef*
%ADD12R,0.700000X0.800000*%
G04 #@! TD*
G04 #@! TA.AperFunction,SMDPad,CuDef*
%ADD13R,0.800000X0.700000*%
G04 #@! TD*
G04 #@! TA.AperFunction,SMDPad,CuDef*
%ADD14R,0.600000X1.550000*%
G04 #@! TD*
G04 #@! TA.AperFunction,SMDPad,CuDef*
%ADD15R,1.200000X1.800000*%
G04 #@! TD*
G04 #@! TA.AperFunction,SMDPad,CuDef*
%ADD16R,1.550000X0.600000*%
G04 #@! TD*
G04 #@! TA.AperFunction,SMDPad,CuDef*
%ADD17R,1.800000X1.200000*%
G04 #@! TD*
G04 #@! TA.AperFunction,SMDPad,CuDef*
%ADD18R,0.750000X0.500000*%
G04 #@! TD*
G04 #@! TA.AperFunction,SMDPad,CuDef*
%ADD19R,0.800000X0.900000*%
G04 #@! TD*
G04 #@! TA.AperFunction,SMDPad,CuDef*
%ADD20R,0.500000X0.800000*%
G04 #@! TD*
G04 #@! TA.AperFunction,SMDPad,CuDef*
%ADD21R,0.800000X0.500000*%
G04 #@! TD*
G04 #@! TA.AperFunction,SMDPad,CuDef*
%ADD22R,0.500000X0.250000*%
G04 #@! TD*
G04 #@! TA.AperFunction,SMDPad,CuDef*
%ADD23R,1.600000X0.650000*%
G04 #@! TD*
G04 #@! TA.AperFunction,SMDPad,CuDef*
%ADD24R,1.500000X0.650000*%
G04 #@! TD*
G04 #@! TA.AperFunction,SMDPad,CuDef*
%ADD25R,0.280000X1.200000*%
G04 #@! TD*
G04 #@! TA.AperFunction,SMDPad,CuDef*
%ADD26R,1.200000X0.280000*%
G04 #@! TD*
G04 #@! TA.AperFunction,SMDPad,CuDef*
%ADD27R,0.875000X0.800000*%
G04 #@! TD*
G04 #@! TA.AperFunction,SMDPad,CuDef*
%ADD28R,0.200000X0.550000*%
G04 #@! TD*
G04 #@! TA.AperFunction,SMDPad,CuDef*
%ADD29R,0.550000X0.200000*%
G04 #@! TD*
G04 #@! TA.AperFunction,SMDPad,CuDef*
%ADD30R,0.800000X0.800000*%
G04 #@! TD*
G04 #@! TA.AperFunction,SMDPad,CuDef*
%ADD31R,1.600000X3.500000*%
G04 #@! TD*
G04 #@! TA.AperFunction,SMDPad,CuDef*
%ADD32R,1.600000X2.500000*%
G04 #@! TD*
G04 #@! TA.AperFunction,SMDPad,CuDef*
%ADD33R,1.200000X2.200000*%
G04 #@! TD*
G04 #@! TA.AperFunction,ViaPad*
%ADD34C,0.800000*%
G04 #@! TD*
G04 #@! TA.AperFunction,Conductor*
%ADD35C,0.210000*%
G04 #@! TD*
G04 #@! TA.AperFunction,Conductor*
%ADD36C,0.200000*%
G04 #@! TD*
G04 #@! TA.AperFunction,Conductor*
%ADD37C,0.400000*%
G04 #@! TD*
G04 #@! TA.AperFunction,Conductor*
%ADD38C,0.254000*%
G04 #@! TD*
G04 APERTURE END LIST*
D10*
G04 #@! TO.P,SW4,1*
G04 #@! TO.N,R_SW1*
X3700000Y17900000D03*
D11*
G04 #@! TO.P,SW4,C*
G04 #@! TO.N,GND*
X6240000Y17900000D03*
G04 #@! TO.P,SW4,8*
G04 #@! TO.N,R_SW8*
X8780000Y17900000D03*
G04 #@! TO.P,SW4,4*
G04 #@! TO.N,R_SW4*
X3700000Y10280000D03*
G04 #@! TO.P,SW4,C*
G04 #@! TO.N,GND*
X6240000Y10280000D03*
G04 #@! TO.P,SW4,2*
G04 #@! TO.N,R_SW2*
X8780000Y10280000D03*
G04 #@! TD*
D12*
G04 #@! TO.P,C12,1*
G04 #@! TO.N,+3V3*
X42250000Y30650000D03*
G04 #@! TO.P,C12,2*
G04 #@! TO.N,GND*
X40750000Y30650000D03*
G04 #@! TD*
D13*
G04 #@! TO.P,C2,1*
G04 #@! TO.N,NRST*
X30100000Y19000000D03*
G04 #@! TO.P,C2,2*
G04 #@! TO.N,GND*
X30100000Y20500000D03*
G04 #@! TD*
G04 #@! TO.P,C5,1*
G04 #@! TO.N,+3V3*
X56300000Y26500000D03*
G04 #@! TO.P,C5,2*
G04 #@! TO.N,GND*
X56300000Y25000000D03*
G04 #@! TD*
G04 #@! TO.P,C11,1*
G04 #@! TO.N,Net-(C11-Pad1)*
X42500000Y29075000D03*
G04 #@! TO.P,C11,2*
G04 #@! TO.N,GND*
X42500000Y27575000D03*
G04 #@! TD*
G04 #@! TO.P,C13,1*
G04 #@! TO.N,SW1*
X17800000Y2725000D03*
G04 #@! TO.P,C13,2*
G04 #@! TO.N,GND*
X17800000Y4225000D03*
G04 #@! TD*
G04 #@! TO.P,C14,1*
G04 #@! TO.N,SW3*
X28300000Y2600000D03*
G04 #@! TO.P,C14,2*
G04 #@! TO.N,GND*
X28300000Y4100000D03*
G04 #@! TD*
G04 #@! TO.P,C15,1*
G04 #@! TO.N,+3V3*
X40700000Y29100000D03*
G04 #@! TO.P,C15,2*
G04 #@! TO.N,GND*
X40700000Y27600000D03*
G04 #@! TD*
G04 #@! TO.P,C16,1*
G04 #@! TO.N,+3V3*
X17800000Y22000000D03*
G04 #@! TO.P,C16,2*
G04 #@! TO.N,GND*
X17800000Y23500000D03*
G04 #@! TD*
G04 #@! TO.P,C17,1*
G04 #@! TO.N,SW2*
X37900000Y2800000D03*
G04 #@! TO.P,C17,2*
G04 #@! TO.N,GND*
X37900000Y4300000D03*
G04 #@! TD*
D12*
G04 #@! TO.P,C20,1*
G04 #@! TO.N,+3V3*
X18925000Y14900000D03*
G04 #@! TO.P,C20,2*
G04 #@! TO.N,GND*
X20425000Y14900000D03*
G04 #@! TD*
D14*
G04 #@! TO.P,J3,1*
G04 #@! TO.N,Net-(J11-Pad1)*
X70700000Y28300000D03*
G04 #@! TO.P,J3,2*
G04 #@! TO.N,LINE_SENSOR5*
X71700000Y28300000D03*
G04 #@! TO.P,J3,3*
G04 #@! TO.N,GND*
X72700000Y28300000D03*
D15*
G04 #@! TO.P,J3,*
G04 #@! TO.N,*
X69400000Y30825000D03*
X74000000Y30825000D03*
G04 #@! TD*
D16*
G04 #@! TO.P,J4,1*
G04 #@! TO.N,+3V3*
X85937500Y14700000D03*
G04 #@! TO.P,J4,2*
G04 #@! TO.N,TCK*
X85937500Y13700000D03*
G04 #@! TO.P,J4,3*
G04 #@! TO.N,GND*
X85937500Y12700000D03*
G04 #@! TO.P,J4,4*
G04 #@! TO.N,TMS*
X85937500Y11700000D03*
G04 #@! TO.P,J4,5*
G04 #@! TO.N,NRST*
X85937500Y10700000D03*
G04 #@! TO.P,J4,6*
G04 #@! TO.N,Net-(J4-Pad6)*
X85937500Y9700000D03*
D17*
G04 #@! TO.P,J4,*
G04 #@! TO.N,*
X88462500Y16000000D03*
X88462500Y8400000D03*
G04 #@! TD*
D14*
G04 #@! TO.P,J5,1*
G04 #@! TO.N,Net-(J11-Pad1)*
X16500000Y28200000D03*
G04 #@! TO.P,J5,2*
G04 #@! TO.N,LINE_SENSOR6*
X17500000Y28200000D03*
G04 #@! TO.P,J5,3*
G04 #@! TO.N,GND*
X18500000Y28200000D03*
D15*
G04 #@! TO.P,J5,*
G04 #@! TO.N,*
X15200000Y30725000D03*
X19800000Y30725000D03*
G04 #@! TD*
D16*
G04 #@! TO.P,J6,1*
G04 #@! TO.N,+3V3*
X78437500Y25000000D03*
G04 #@! TO.P,J6,2*
G04 #@! TO.N,RX*
X78437500Y24000000D03*
G04 #@! TO.P,J6,3*
G04 #@! TO.N,TX*
X78437500Y23000000D03*
G04 #@! TO.P,J6,4*
G04 #@! TO.N,GND*
X78437500Y22000000D03*
D17*
G04 #@! TO.P,J6,*
G04 #@! TO.N,*
X80962500Y26300000D03*
X80962500Y20700000D03*
G04 #@! TD*
D14*
G04 #@! TO.P,J8,1*
G04 #@! TO.N,+3V3*
X61300000Y28300000D03*
G04 #@! TO.P,J8,2*
G04 #@! TO.N,POT*
X62300000Y28300000D03*
G04 #@! TO.P,J8,3*
G04 #@! TO.N,GND*
X63300000Y28300000D03*
D15*
G04 #@! TO.P,J8,*
G04 #@! TO.N,*
X60000000Y30825000D03*
X64600000Y30825000D03*
G04 #@! TD*
G04 #@! TO.P,J9,*
G04 #@! TO.N,*
X29100000Y30762500D03*
X23500000Y30762500D03*
D14*
G04 #@! TO.P,J9,4*
G04 #@! TO.N,GND*
X27800000Y28237500D03*
G04 #@! TO.P,J9,3*
G04 #@! TO.N,ENCORDER_1B*
X26800000Y28237500D03*
G04 #@! TO.P,J9,2*
G04 #@! TO.N,ENCORDER_1A*
X25800000Y28237500D03*
G04 #@! TO.P,J9,1*
G04 #@! TO.N,+5V*
X24800000Y28237500D03*
G04 #@! TD*
D15*
G04 #@! TO.P,J10,*
G04 #@! TO.N,*
X38400000Y30762500D03*
X32800000Y30762500D03*
D14*
G04 #@! TO.P,J10,4*
G04 #@! TO.N,GND*
X37100000Y28237500D03*
G04 #@! TO.P,J10,3*
G04 #@! TO.N,ENCORDER_2B*
X36100000Y28237500D03*
G04 #@! TO.P,J10,2*
G04 #@! TO.N,ENCORDER_2A*
X35100000Y28237500D03*
G04 #@! TO.P,J10,1*
G04 #@! TO.N,+5V*
X34100000Y28237500D03*
G04 #@! TD*
D18*
G04 #@! TO.P,LED1,2*
G04 #@! TO.N,Net-(LED1-Pad2)*
X46300000Y3000000D03*
G04 #@! TO.P,LED1,4*
G04 #@! TO.N,Net-(LED1-Pad4)*
X44750000Y3000000D03*
G04 #@! TO.P,LED1,3*
G04 #@! TO.N,Net-(LED1-Pad3)*
X44750000Y2000000D03*
G04 #@! TO.P,LED1,1*
G04 #@! TO.N,+3V3*
X46300000Y2000000D03*
G04 #@! TD*
D19*
G04 #@! TO.P,Q1,2*
G04 #@! TO.N,Net-(Q1-Pad2)*
X52550000Y28500000D03*
G04 #@! TO.P,Q1,1*
G04 #@! TO.N,+3V3*
X55230000Y28500000D03*
G04 #@! TO.P,Q1,3*
G04 #@! TO.N,Net-(J11-Pad1)*
X53900000Y30500000D03*
G04 #@! TD*
D20*
G04 #@! TO.P,R1,2*
G04 #@! TO.N,NRST*
X30100000Y17700000D03*
G04 #@! TO.P,R1,1*
G04 #@! TO.N,+3V3*
X31600000Y17700000D03*
G04 #@! TD*
D21*
G04 #@! TO.P,R2,2*
G04 #@! TO.N,Net-(R2-Pad2)*
X53600000Y10700000D03*
G04 #@! TO.P,R2,1*
G04 #@! TO.N,+3V3*
X53600000Y12200000D03*
G04 #@! TD*
G04 #@! TO.P,R3,2*
G04 #@! TO.N,Net-(R3-Pad2)*
X57500000Y10700000D03*
G04 #@! TO.P,R3,1*
G04 #@! TO.N,+3V3*
X57500000Y12200000D03*
G04 #@! TD*
G04 #@! TO.P,R4,2*
G04 #@! TO.N,Net-(R4-Pad2)*
X61400000Y10700000D03*
G04 #@! TO.P,R4,1*
G04 #@! TO.N,+3V3*
X61400000Y12200000D03*
G04 #@! TD*
G04 #@! TO.P,R5,2*
G04 #@! TO.N,Net-(R5-Pad2)*
X65300000Y10700000D03*
G04 #@! TO.P,R5,1*
G04 #@! TO.N,+3V3*
X65300000Y12200000D03*
G04 #@! TD*
D20*
G04 #@! TO.P,R7,2*
G04 #@! TO.N,SENSOR_PULS_PWM*
X54700000Y25100000D03*
G04 #@! TO.P,R7,1*
G04 #@! TO.N,Net-(Q1-Pad2)*
X53200000Y25100000D03*
G04 #@! TD*
G04 #@! TO.P,R8,2*
G04 #@! TO.N,Net-(Q1-Pad2)*
X53200000Y26500000D03*
G04 #@! TO.P,R8,1*
G04 #@! TO.N,+3V3*
X54700000Y26500000D03*
G04 #@! TD*
D21*
G04 #@! TO.P,R9,2*
G04 #@! TO.N,Net-(R9-Pad2)*
X69200000Y10700000D03*
G04 #@! TO.P,R9,1*
G04 #@! TO.N,+3V3*
X69200000Y12200000D03*
G04 #@! TD*
G04 #@! TO.P,R10,2*
G04 #@! TO.N,Net-(R10-Pad2)*
X73200000Y10700000D03*
G04 #@! TO.P,R10,1*
G04 #@! TO.N,+3V3*
X73200000Y12200000D03*
G04 #@! TD*
G04 #@! TO.P,R11,2*
G04 #@! TO.N,Net-(R11-Pad2)*
X13400000Y2700000D03*
G04 #@! TO.P,R11,1*
G04 #@! TO.N,+3V3*
X13400000Y4200000D03*
G04 #@! TD*
G04 #@! TO.P,R12,2*
G04 #@! TO.N,Net-(R12-Pad2)*
X23800000Y2600000D03*
G04 #@! TO.P,R12,1*
G04 #@! TO.N,+3V3*
X23800000Y4100000D03*
G04 #@! TD*
G04 #@! TO.P,R13,2*
G04 #@! TO.N,Net-(R11-Pad2)*
X15600000Y4200000D03*
G04 #@! TO.P,R13,1*
G04 #@! TO.N,SW1*
X15600000Y2700000D03*
G04 #@! TD*
G04 #@! TO.P,R14,2*
G04 #@! TO.N,Net-(R12-Pad2)*
X26100000Y4100000D03*
G04 #@! TO.P,R14,1*
G04 #@! TO.N,SW3*
X26100000Y2600000D03*
G04 #@! TD*
G04 #@! TO.P,R15,2*
G04 #@! TO.N,SCL_LCD*
X15000000Y23500000D03*
G04 #@! TO.P,R15,1*
G04 #@! TO.N,+3V3*
X15000000Y22000000D03*
G04 #@! TD*
G04 #@! TO.P,R16,2*
G04 #@! TO.N,Net-(R16-Pad2)*
X33500000Y2800000D03*
G04 #@! TO.P,R16,1*
G04 #@! TO.N,+3V3*
X33500000Y4300000D03*
G04 #@! TD*
G04 #@! TO.P,R17,2*
G04 #@! TO.N,SDA_LCD*
X16400000Y23500000D03*
G04 #@! TO.P,R17,1*
G04 #@! TO.N,+3V3*
X16400000Y22000000D03*
G04 #@! TD*
G04 #@! TO.P,R18,2*
G04 #@! TO.N,Net-(R16-Pad2)*
X35700000Y4300000D03*
G04 #@! TO.P,R18,1*
G04 #@! TO.N,SW2*
X35700000Y2800000D03*
G04 #@! TD*
D22*
G04 #@! TO.P,RN1,2*
G04 #@! TO.N,MISO_IMU*
X50300000Y26000000D03*
G04 #@! TO.P,RN1,3*
G04 #@! TO.N,SCK_IMU*
X50300000Y25500000D03*
G04 #@! TO.P,RN1,6*
G04 #@! TO.N,+3V3*
X51300000Y25500000D03*
G04 #@! TO.P,RN1,7*
X51300000Y26000000D03*
G04 #@! TO.P,RN1,5*
X51300000Y25000000D03*
G04 #@! TO.P,RN1,1*
G04 #@! TO.N,MOSI_IMU*
X50300000Y26500000D03*
G04 #@! TO.P,RN1,8*
G04 #@! TO.N,+3V3*
X51300000Y26500000D03*
G04 #@! TO.P,RN1,4*
G04 #@! TO.N,CS_IMU*
X50300000Y25000000D03*
G04 #@! TD*
D23*
G04 #@! TO.P,SW1,4*
G04 #@! TO.N,N/C*
X23300000Y17950000D03*
D24*
G04 #@! TO.P,SW1,2*
G04 #@! TO.N,NRST*
X28100000Y17950000D03*
D23*
G04 #@! TO.P,SW1,3*
G04 #@! TO.N,N/C*
X23300000Y20100000D03*
D24*
G04 #@! TO.P,SW1,1*
G04 #@! TO.N,GND*
X28100000Y20100000D03*
G04 #@! TD*
D23*
G04 #@! TO.P,SW2,4*
G04 #@! TO.N,N/C*
X13100000Y5700000D03*
D24*
G04 #@! TO.P,SW2,2*
G04 #@! TO.N,GND*
X17900000Y5700000D03*
D23*
G04 #@! TO.P,SW2,3*
G04 #@! TO.N,N/C*
X13100000Y7850000D03*
D24*
G04 #@! TO.P,SW2,1*
G04 #@! TO.N,Net-(R11-Pad2)*
X17900000Y7850000D03*
G04 #@! TD*
D23*
G04 #@! TO.P,SW3,4*
G04 #@! TO.N,N/C*
X23500000Y5650000D03*
D24*
G04 #@! TO.P,SW3,2*
G04 #@! TO.N,GND*
X28300000Y5650000D03*
D23*
G04 #@! TO.P,SW3,3*
G04 #@! TO.N,N/C*
X23500000Y7800000D03*
D24*
G04 #@! TO.P,SW3,1*
G04 #@! TO.N,Net-(R12-Pad2)*
X28300000Y7800000D03*
G04 #@! TD*
D23*
G04 #@! TO.P,SW5,4*
G04 #@! TO.N,N/C*
X33100000Y5700000D03*
D24*
G04 #@! TO.P,SW5,2*
G04 #@! TO.N,GND*
X37900000Y5700000D03*
D23*
G04 #@! TO.P,SW5,3*
G04 #@! TO.N,N/C*
X33100000Y7850000D03*
D24*
G04 #@! TO.P,SW5,1*
G04 #@! TO.N,Net-(R16-Pad2)*
X37900000Y7850000D03*
G04 #@! TD*
D25*
G04 #@! TO.P,U1,64*
G04 #@! TO.N,+3V3*
X41750000Y22250000D03*
G04 #@! TO.P,U1,63*
G04 #@! TO.N,GND*
X42250000Y22250000D03*
G04 #@! TO.P,U1,62*
G04 #@! TO.N,SDA_LCD*
X42750000Y22250000D03*
G04 #@! TO.P,U1,61*
G04 #@! TO.N,SCL_LCD*
X43250000Y22250000D03*
G04 #@! TO.P,U1,60*
G04 #@! TO.N,Net-(R6-Pad2)*
X43750000Y22250000D03*
G04 #@! TO.P,U1,59*
G04 #@! TO.N,ENCORDER_2B*
X44250000Y22250000D03*
G04 #@! TO.P,U1,58*
G04 #@! TO.N,ENCORDER_2A*
X44750000Y22250000D03*
G04 #@! TO.P,U1,57*
G04 #@! TO.N,MOSI_SD*
X45250000Y22250000D03*
G04 #@! TO.P,U1,56*
G04 #@! TO.N,MISO_SD*
X45750000Y22250000D03*
G04 #@! TO.P,U1,55*
G04 #@! TO.N,SCK_SD*
X46250000Y22250000D03*
G04 #@! TO.P,U1,54*
G04 #@! TO.N,CS_SD*
X46750000Y22250000D03*
G04 #@! TO.P,U1,53*
G04 #@! TO.N,MOSI_IMU*
X47250000Y22250000D03*
G04 #@! TO.P,U1,52*
G04 #@! TO.N,MISO_IMU*
X47750000Y22250000D03*
G04 #@! TO.P,U1,51*
G04 #@! TO.N,SCK_IMU*
X48250000Y22250000D03*
G04 #@! TO.P,U1,50*
G04 #@! TO.N,CS_IMU*
X48750000Y22250000D03*
G04 #@! TO.P,U1,49*
G04 #@! TO.N,TCK*
X49250000Y22250000D03*
D26*
G04 #@! TO.P,U1,48*
G04 #@! TO.N,+3V3*
X51250000Y20250000D03*
G04 #@! TO.P,U1,47*
G04 #@! TO.N,GND*
X51250000Y19750000D03*
G04 #@! TO.P,U1,46*
G04 #@! TO.N,TMS*
X51250000Y19250000D03*
G04 #@! TO.P,U1,45*
G04 #@! TO.N,DIR_VCM_before*
X51250000Y18750000D03*
G04 #@! TO.P,U1,44*
G04 #@! TO.N,PWM_VCM_before*
X51250000Y18250000D03*
G04 #@! TO.P,U1,43*
G04 #@! TO.N,RX*
X51250000Y17750000D03*
G04 #@! TO.P,U1,42*
G04 #@! TO.N,TX*
X51250000Y17250000D03*
G04 #@! TO.P,U1,41*
G04 #@! TO.N,SR_VCM_before*
X51250000Y16750000D03*
G04 #@! TO.P,U1,40*
G04 #@! TO.N,DIR_MAXON1*
X51250000Y16250000D03*
G04 #@! TO.P,U1,39*
G04 #@! TO.N,SR_MAXON1*
X51250000Y15750000D03*
G04 #@! TO.P,U1,38*
G04 #@! TO.N,PWM_MAXON1*
X51250000Y15250000D03*
G04 #@! TO.P,U1,37*
G04 #@! TO.N,PWM_MAXON2*
X51250000Y14750000D03*
G04 #@! TO.P,U1,36*
G04 #@! TO.N,DIR_MAXON2*
X51250000Y14250000D03*
G04 #@! TO.P,U1,35*
G04 #@! TO.N,SR_MAXON2*
X51250000Y13750000D03*
G04 #@! TO.P,U1,34*
G04 #@! TO.N,LED_R*
X51250000Y13250000D03*
G04 #@! TO.P,U1,33*
G04 #@! TO.N,LED_G*
X51250000Y12750000D03*
D25*
G04 #@! TO.P,U1,32*
G04 #@! TO.N,+3V3*
X49250000Y10750000D03*
G04 #@! TO.P,U1,31*
G04 #@! TO.N,GND*
X48750000Y10750000D03*
G04 #@! TO.P,U1,30*
G04 #@! TO.N,Net-(C8-Pad1)*
X48250000Y10750000D03*
G04 #@! TO.P,U1,29*
G04 #@! TO.N,SENSOR_PULS_PWM*
X47750000Y10750000D03*
G04 #@! TO.P,U1,28*
G04 #@! TO.N,LED_B*
X47250000Y10750000D03*
G04 #@! TO.P,U1,27*
G04 #@! TO.N,POT*
X46750000Y10750000D03*
G04 #@! TO.P,U1,26*
G04 #@! TO.N,LINE_SENSOR1*
X46250000Y10750000D03*
G04 #@! TO.P,U1,25*
G04 #@! TO.N,LINE_SENSOR2*
X45750000Y10750000D03*
G04 #@! TO.P,U1,24*
G04 #@! TO.N,LINE_SENSOR3*
X45250000Y10750000D03*
G04 #@! TO.P,U1,23*
G04 #@! TO.N,LINE_SENSOR4*
X44750000Y10750000D03*
G04 #@! TO.P,U1,22*
G04 #@! TO.N,LINE_SENSOR5*
X44250000Y10750000D03*
G04 #@! TO.P,U1,21*
G04 #@! TO.N,LINE_SENSOR6*
X43750000Y10750000D03*
G04 #@! TO.P,U1,20*
G04 #@! TO.N,SW3*
X43250000Y10750000D03*
G04 #@! TO.P,U1,19*
G04 #@! TO.N,+3V3*
X42750000Y10750000D03*
G04 #@! TO.P,U1,18*
G04 #@! TO.N,GND*
X42250000Y10750000D03*
G04 #@! TO.P,U1,17*
G04 #@! TO.N,SW2*
X41750000Y10750000D03*
D26*
G04 #@! TO.P,U1,16*
G04 #@! TO.N,SW1*
X39750000Y12750000D03*
G04 #@! TO.P,U1,15*
G04 #@! TO.N,ENCORDER_1B*
X39750000Y13250000D03*
G04 #@! TO.P,U1,14*
G04 #@! TO.N,ENCORDER_1A*
X39750000Y13750000D03*
G04 #@! TO.P,U1,13*
G04 #@! TO.N,Net-(C4-Pad2)*
X39750000Y14250000D03*
G04 #@! TO.P,U1,12*
G04 #@! TO.N,GND*
X39750000Y14750000D03*
G04 #@! TO.P,U1,11*
G04 #@! TO.N,R_SW4*
X39750000Y15250000D03*
G04 #@! TO.P,U1,10*
G04 #@! TO.N,R_SW2*
X39750000Y15750000D03*
G04 #@! TO.P,U1,9*
G04 #@! TO.N,R_SW8*
X39750000Y16250000D03*
G04 #@! TO.P,U1,8*
G04 #@! TO.N,R_SW1*
X39750000Y16750000D03*
G04 #@! TO.P,U1,7*
G04 #@! TO.N,NRST*
X39750000Y17250000D03*
G04 #@! TO.P,U1,6*
G04 #@! TO.N,Net-(U1-Pad6)*
X39750000Y17750000D03*
G04 #@! TO.P,U1,5*
G04 #@! TO.N,OSC_IN*
X39750000Y18250000D03*
G04 #@! TO.P,U1,4*
G04 #@! TO.N,Net-(U1-Pad4)*
X39750000Y18750000D03*
G04 #@! TO.P,U1,3*
G04 #@! TO.N,RTC_IN*
X39750000Y19250000D03*
G04 #@! TO.P,U1,2*
G04 #@! TO.N,INSERT_SD*
X39750000Y19750000D03*
G04 #@! TO.P,U1,1*
G04 #@! TO.N,+3V3*
X39750000Y20250000D03*
G04 #@! TD*
D27*
G04 #@! TO.P,U2,25*
G04 #@! TO.N,N/C*
X45030000Y30000000D03*
X45030000Y29200000D03*
D28*
G04 #@! TO.P,U2,19*
G04 #@! TO.N,Net-(U2-Pad19)*
X44465000Y28040000D03*
D29*
G04 #@! TO.P,U2,3*
G04 #@! TO.N,Net-(U2-Pad3)*
X47025000Y29400000D03*
D28*
G04 #@! TO.P,U2,22*
G04 #@! TO.N,CS_IMU*
X45665000Y28040000D03*
D29*
G04 #@! TO.P,U2,18*
G04 #@! TO.N,GND*
X43905000Y28600000D03*
G04 #@! TO.P,U2,14*
G04 #@! TO.N,Net-(U2-Pad14)*
X43905000Y30200000D03*
G04 #@! TO.P,U2,15*
G04 #@! TO.N,Net-(U2-Pad15)*
X43905000Y29800000D03*
D28*
G04 #@! TO.P,U2,20*
G04 #@! TO.N,GND*
X44865000Y28040000D03*
G04 #@! TO.P,U2,7*
G04 #@! TO.N,Net-(U2-Pad7)*
X46465000Y31160000D03*
D29*
G04 #@! TO.P,U2,2*
G04 #@! TO.N,Net-(U2-Pad2)*
X47025000Y29000000D03*
D27*
G04 #@! TO.P,U2,25*
G04 #@! TO.N,N/C*
X45900000Y30000000D03*
D28*
G04 #@! TO.P,U2,8*
G04 #@! TO.N,+3V3*
X46065000Y31160000D03*
G04 #@! TO.P,U2,21*
G04 #@! TO.N,Net-(U2-Pad21)*
X45265000Y28040000D03*
D29*
G04 #@! TO.P,U2,4*
G04 #@! TO.N,Net-(U2-Pad4)*
X47025000Y29800000D03*
D28*
G04 #@! TO.P,U2,24*
G04 #@! TO.N,MOSI_IMU*
X46465000Y28040000D03*
D29*
G04 #@! TO.P,U2,17*
G04 #@! TO.N,Net-(U2-Pad17)*
X43905000Y29000000D03*
D28*
G04 #@! TO.P,U2,10*
G04 #@! TO.N,Net-(C11-Pad1)*
X45265000Y31160000D03*
D29*
G04 #@! TO.P,U2,5*
G04 #@! TO.N,Net-(U2-Pad5)*
X47025000Y30200000D03*
D28*
G04 #@! TO.P,U2,12*
G04 #@! TO.N,Net-(U2-Pad12)*
X44465000Y31160000D03*
D29*
G04 #@! TO.P,U2,6*
G04 #@! TO.N,Net-(U2-Pad6)*
X47025000Y30600000D03*
G04 #@! TO.P,U2,1*
G04 #@! TO.N,Net-(U2-Pad1)*
X47025000Y28600000D03*
G04 #@! TO.P,U2,13*
G04 #@! TO.N,+3V3*
X43905000Y30600000D03*
D28*
G04 #@! TO.P,U2,11*
G04 #@! TO.N,GND*
X44865000Y31160000D03*
D29*
G04 #@! TO.P,U2,16*
G04 #@! TO.N,Net-(U2-Pad16)*
X43905000Y29400000D03*
D27*
G04 #@! TO.P,U2,25*
G04 #@! TO.N,N/C*
X45900000Y29200000D03*
D28*
G04 #@! TO.P,U2,9*
G04 #@! TO.N,MISO_IMU*
X45665000Y31160000D03*
G04 #@! TO.P,U2,23*
G04 #@! TO.N,SCK_IMU*
X46065000Y28040000D03*
G04 #@! TD*
D30*
G04 #@! TO.P,D1,2*
G04 #@! TO.N,Net-(D1-Pad2)*
X70500000Y23700000D03*
G04 #@! TO.P,D1,1*
G04 #@! TO.N,GND*
X69000000Y23700000D03*
G04 #@! TD*
G04 #@! TO.P,D2,2*
G04 #@! TO.N,Net-(D2-Pad2)*
X74200000Y23700000D03*
G04 #@! TO.P,D2,1*
G04 #@! TO.N,GND*
X72700000Y23700000D03*
G04 #@! TD*
D20*
G04 #@! TO.P,R25,2*
G04 #@! TO.N,Net-(D1-Pad2)*
X70500000Y25700000D03*
G04 #@! TO.P,R25,1*
G04 #@! TO.N,+5V*
X69000000Y25700000D03*
G04 #@! TD*
G04 #@! TO.P,R26,2*
G04 #@! TO.N,Net-(D2-Pad2)*
X74200000Y25700000D03*
G04 #@! TO.P,R26,1*
G04 #@! TO.N,+3V3*
X72700000Y25700000D03*
G04 #@! TD*
D16*
G04 #@! TO.P,J7,1*
G04 #@! TO.N,+3V3*
X12400000Y22500000D03*
G04 #@! TO.P,J7,2*
G04 #@! TO.N,SCL_LCD*
X12400000Y23500000D03*
G04 #@! TO.P,J7,3*
G04 #@! TO.N,SDA_LCD*
X12400000Y24500000D03*
G04 #@! TO.P,J7,4*
G04 #@! TO.N,GND*
X12400000Y25500000D03*
D17*
G04 #@! TO.P,J7,*
G04 #@! TO.N,*
X9875000Y21200000D03*
X9875000Y26800000D03*
G04 #@! TD*
D13*
G04 #@! TO.P,C22,2*
G04 #@! TO.N,GND*
X76000000Y6700000D03*
G04 #@! TO.P,C22,1*
G04 #@! TO.N,+3V3*
X76000000Y8200000D03*
G04 #@! TD*
D31*
G04 #@! TO.P,C23,2*
G04 #@! TO.N,GND*
X80500000Y2600000D03*
G04 #@! TO.P,C23,1*
G04 #@! TO.N,+3V3*
X80500000Y8000000D03*
G04 #@! TD*
D32*
G04 #@! TO.P,RV1,2*
G04 #@! TO.N,Net-(R2-Pad2)*
X53600000Y7900000D03*
D33*
G04 #@! TO.P,RV1,1*
G04 #@! TO.N,LINE_SENSOR1*
X54600000Y4650000D03*
G04 #@! TO.P,RV1,3*
G04 #@! TO.N,Net-(RV1-Pad3)*
X52600000Y4650000D03*
G04 #@! TD*
D32*
G04 #@! TO.P,RV2,2*
G04 #@! TO.N,Net-(R3-Pad2)*
X57500000Y7900000D03*
D33*
G04 #@! TO.P,RV2,1*
G04 #@! TO.N,LINE_SENSOR2*
X58500000Y4650000D03*
G04 #@! TO.P,RV2,3*
G04 #@! TO.N,Net-(RV2-Pad3)*
X56500000Y4650000D03*
G04 #@! TD*
G04 #@! TO.P,RV3,3*
G04 #@! TO.N,Net-(RV3-Pad3)*
X60400000Y4650000D03*
G04 #@! TO.P,RV3,1*
G04 #@! TO.N,LINE_SENSOR3*
X62400000Y4650000D03*
D32*
G04 #@! TO.P,RV3,2*
G04 #@! TO.N,Net-(R4-Pad2)*
X61400000Y7900000D03*
G04 #@! TD*
D33*
G04 #@! TO.P,RV4,3*
G04 #@! TO.N,Net-(RV4-Pad3)*
X64300000Y4600000D03*
G04 #@! TO.P,RV4,1*
G04 #@! TO.N,LINE_SENSOR4*
X66300000Y4600000D03*
D32*
G04 #@! TO.P,RV4,2*
G04 #@! TO.N,Net-(R5-Pad2)*
X65300000Y7850000D03*
G04 #@! TD*
G04 #@! TO.P,RV5,2*
G04 #@! TO.N,Net-(R9-Pad2)*
X69200000Y7900000D03*
D33*
G04 #@! TO.P,RV5,1*
G04 #@! TO.N,LINE_SENSOR5*
X70200000Y4650000D03*
G04 #@! TO.P,RV5,3*
G04 #@! TO.N,Net-(RV5-Pad3)*
X68200000Y4650000D03*
G04 #@! TD*
G04 #@! TO.P,RV6,3*
G04 #@! TO.N,Net-(RV6-Pad3)*
X72200000Y4600000D03*
G04 #@! TO.P,RV6,1*
G04 #@! TO.N,LINE_SENSOR6*
X74200000Y4600000D03*
D32*
G04 #@! TO.P,RV6,2*
G04 #@! TO.N,Net-(R10-Pad2)*
X73200000Y7850000D03*
G04 #@! TD*
D34*
G04 #@! TO.N,GND*
X48815628Y8885267D03*
X83400000Y2600000D03*
X88100000Y12700000D03*
X85900000Y19200000D03*
X82772725Y19367715D03*
X44700000Y5900000D03*
X63075009Y30400009D03*
X38600000Y28750000D03*
X40350000Y22050000D03*
X56350000Y23250000D03*
X32600000Y21550000D03*
X42200000Y7500000D03*
X36700004Y14544990D03*
X31500000Y23474970D03*
X36425000Y31350000D03*
X27125000Y31850000D03*
X39700000Y1600000D03*
X30100000Y20500000D03*
X17800000Y1600000D03*
X17800000Y4225000D03*
X28300000Y4100000D03*
X28300000Y1600000D03*
X37900000Y4300000D03*
X37900000Y1600000D03*
X11750000Y1700000D03*
X25300000Y1600000D03*
X20425000Y14900000D03*
X14100000Y16800000D03*
X10200000Y24900000D03*
X52600000Y21005010D03*
X33005010Y13250064D03*
X17300000Y10300000D03*
X35100000Y7300000D03*
X77900000Y2600000D03*
X13300000Y27900000D03*
X60800000Y23700000D03*
X77300000Y29600000D03*
G04 #@! TO.N,+3V3*
X85800000Y8000000D03*
X85900000Y17500000D03*
X61525000Y30400000D03*
X50194990Y10700000D03*
X51200000Y21300000D03*
X55230000Y28500000D03*
X51394990Y7429215D03*
X38850000Y22050000D03*
X47949990Y29350000D03*
X42750000Y8699998D03*
X51300000Y27500000D03*
X32600000Y18294990D03*
X33500000Y4300000D03*
X33500000Y700000D03*
X23800000Y700000D03*
X23800000Y4100000D03*
X13400000Y700000D03*
X13400000Y4200000D03*
X18925000Y14900000D03*
X19000000Y18400000D03*
X24900000Y18900000D03*
X14200000Y22000000D03*
X19100000Y22000000D03*
X59100000Y28500000D03*
X65300000Y19905010D03*
X61400000Y12200000D03*
X40615160Y28994876D03*
X74000000Y2000000D03*
G04 #@! TO.N,NRST*
X79000000Y12300002D03*
X37450004Y17550000D03*
G04 #@! TO.N,Net-(C4-Pad2)*
X38200004Y14044990D03*
G04 #@! TO.N,SW1*
X26800000Y11200000D03*
X31394955Y10951675D03*
G04 #@! TO.N,DIR_MAXON1*
X56990949Y19209908D03*
G04 #@! TO.N,SR_MAXON1*
X57665662Y18471812D03*
G04 #@! TO.N,PWM_MAXON1*
X58393060Y17744414D03*
G04 #@! TO.N,PWM_MAXON2*
X59171242Y16966232D03*
G04 #@! TO.N,SR_MAXON2*
X61100000Y16200000D03*
G04 #@! TO.N,DIR_MAXON2*
X60200000Y16800000D03*
G04 #@! TO.N,Net-(LED1-Pad3)*
X41600000Y1900000D03*
G04 #@! TO.N,Net-(LED1-Pad4)*
X45500000Y1205010D03*
G04 #@! TO.N,Net-(LED1-Pad2)*
X48900000Y1900000D03*
G04 #@! TO.N,INSERT_SD*
X30500000Y10494990D03*
G04 #@! TO.N,LED_R*
X49800000Y13794990D03*
G04 #@! TO.N,LED_G*
X49800000Y12500000D03*
G04 #@! TO.N,LED_B*
X47200000Y12700000D03*
G04 #@! TO.N,SENSOR_PULS_PWM*
X54700000Y23805010D03*
X47903099Y20199995D03*
G04 #@! TO.N,SCL_LCD*
X37400133Y19550016D03*
X42150004Y19150000D03*
X15000000Y21000000D03*
X15000000Y23500000D03*
G04 #@! TO.N,SDA_LCD*
X37350000Y20650000D03*
X42100000Y20300000D03*
G04 #@! TO.N,CS_IMU*
X49800000Y24000000D03*
X46982183Y24894695D03*
G04 #@! TO.N,MOSI_IMU*
X47222228Y26875007D03*
X49350010Y26800000D03*
G04 #@! TO.N,ENCORDER_2A*
X30554569Y24905010D03*
X35100000Y29800000D03*
G04 #@! TO.N,ENCORDER_1B*
X26800000Y29800000D03*
X29900000Y12794990D03*
G04 #@! TO.N,ENCORDER_2B*
X29800000Y24200000D03*
X36150000Y29900000D03*
G04 #@! TO.N,ENCORDER_1A*
X25800000Y29800000D03*
X31000000Y12545054D03*
G04 #@! TO.N,LINE_SENSOR1*
X46903089Y20201749D03*
G04 #@! TO.N,LINE_SENSOR2*
X45904219Y20153978D03*
G04 #@! TO.N,LINE_SENSOR3*
X44906005Y20094037D03*
G04 #@! TO.N,LINE_SENSOR4*
X43902738Y20087806D03*
G04 #@! TO.N,LINE_SENSOR5*
X71194990Y26502476D03*
X71300000Y19905010D03*
X72400000Y9800000D03*
X73200000Y13499998D03*
G04 #@! TO.N,LINE_SENSOR6*
X24884979Y20500000D03*
X17500000Y29894990D03*
G04 #@! TO.N,R_SW2*
X30800000Y14700000D03*
X27893277Y14495720D03*
G04 #@! TO.N,R_SW4*
X31300000Y13800000D03*
X27900028Y13495731D03*
G04 #@! TO.N,R_SW8*
X30800000Y15700000D03*
X27916076Y15495472D03*
G04 #@! TO.N,R_SW1*
X30800000Y16700000D03*
X27884659Y16494990D03*
G04 #@! TO.N,RTC_IN*
X37600000Y23050004D03*
G04 #@! TO.N,OSC_IN*
X37397438Y18550008D03*
G04 #@! TO.N,POT*
X62300000Y26700000D03*
X62300000Y19905010D03*
G04 #@! TO.N,TX*
X76800000Y23000008D03*
X74500000Y20094990D03*
G04 #@! TO.N,RX*
X76100000Y24000000D03*
X73480449Y20094990D03*
G04 #@! TO.N,CS_SD*
X19700000Y25300000D03*
G04 #@! TO.N,SCK_SD*
X21900000Y25000000D03*
G04 #@! TO.N,MISO_SD*
X20500000Y24000000D03*
X20100000Y22000000D03*
X23900000Y22000000D03*
G04 #@! TO.N,MOSI_SD*
X20900000Y19700000D03*
X18800000Y19700000D03*
X24000000Y23600000D03*
G04 #@! TO.N,SCK_IMU*
X46900000Y25900000D03*
X49350010Y25026570D03*
G04 #@! TO.N,Net-(C8-Pad1)*
X48106585Y9590450D03*
G04 #@! TO.N,Net-(C11-Pad1)*
X39650000Y31150000D03*
X42494990Y29075000D03*
G04 #@! TO.N,Net-(R6-Pad2)*
X40350000Y23450000D03*
G04 #@! TO.N,+5V*
X69000000Y27299994D03*
X34925000Y31350000D03*
X25625000Y31850000D03*
X31000000Y31800000D03*
X31000000Y27600000D03*
G04 #@! TO.N,DIR_VCM_before*
X54100000Y19500000D03*
G04 #@! TO.N,PWM_VCM_before*
X53199133Y18534462D03*
G04 #@! TO.N,SR_VCM_before*
X59400000Y9600000D03*
X59400000Y7400000D03*
X55848518Y18248518D03*
G04 #@! TO.N,Net-(J11-Pad1)*
X50100000Y28500000D03*
G04 #@! TD*
D35*
G04 #@! TO.N,GND*
X42300000Y22300000D02*
X42250000Y22250000D01*
X48815628Y9874372D02*
X48815628Y9450952D01*
X48750000Y9940000D02*
X48815628Y9874372D01*
X48815628Y9450952D02*
X48815628Y8885267D01*
X48750000Y10750000D02*
X48750000Y9940000D01*
X83400000Y2600000D02*
X80500000Y2600000D01*
X77900000Y2600000D02*
X77900000Y2600000D01*
X76000000Y6700000D02*
X76000000Y4500000D01*
X76000000Y4500000D02*
X77900000Y2600000D01*
X88100000Y12700000D02*
X85937500Y12700000D01*
X88665685Y12700000D02*
X90300000Y14334315D01*
X88100000Y12700000D02*
X88665685Y12700000D01*
X90300000Y14334315D02*
X90300000Y17200000D01*
X90300000Y17200000D02*
X88300000Y19200000D01*
X88300000Y19200000D02*
X85900000Y19200000D01*
X63300000Y29285000D02*
X63300000Y28300000D01*
X63600000Y32300000D02*
X63300000Y32000000D01*
X71500000Y32300000D02*
X63600000Y32300000D01*
X72700000Y28300000D02*
X72700000Y31100000D01*
X72700000Y31100000D02*
X71500000Y32300000D01*
X63300000Y32000000D02*
X63300000Y30400000D01*
X63300000Y30400000D02*
X63300000Y29285000D01*
X72700000Y28300000D02*
X72700000Y27315000D01*
X72700000Y27315000D02*
X71900000Y26515000D01*
X71900000Y25110000D02*
X71900000Y26515000D01*
X72700000Y24310000D02*
X71900000Y25110000D01*
X72700000Y23700000D02*
X72700000Y24310000D01*
X69000000Y23090000D02*
X69000000Y23700000D01*
X69190000Y22900000D02*
X69000000Y23090000D01*
X72510000Y22900000D02*
X69190000Y22900000D01*
X76300000Y22000000D02*
X78437500Y22000000D01*
X75400000Y22900000D02*
X76300000Y22000000D01*
X72700000Y23700000D02*
X72700000Y22900000D01*
X72510000Y22900000D02*
X72700000Y22900000D01*
X72700000Y22900000D02*
X75400000Y22900000D01*
X82207040Y19367715D02*
X82772725Y19367715D01*
X78437500Y20800000D02*
X79869785Y19367715D01*
X78437500Y22000000D02*
X78437500Y20800000D01*
X79869785Y19367715D02*
X82207040Y19367715D01*
X44700000Y5900000D02*
X43800000Y5900000D01*
X43800000Y5900000D02*
X42200000Y7500000D01*
X63075018Y30400000D02*
X63075009Y30400009D01*
X63300000Y30400000D02*
X63075018Y30400000D01*
D36*
X40725000Y27575000D02*
X40700000Y27600000D01*
X42500000Y27575000D02*
X41600000Y27575000D01*
X41600000Y27575000D02*
X40725000Y27575000D01*
X40200000Y30650000D02*
X40750000Y30650000D01*
X39750000Y30200000D02*
X40200000Y30650000D01*
X40700000Y27600000D02*
X40100000Y27600000D01*
X40100000Y27600000D02*
X39750000Y27950000D01*
X38600000Y28750000D02*
X39750000Y28750000D01*
X39750000Y27950000D02*
X39750000Y28750000D01*
X39750000Y28750000D02*
X39750000Y30200000D01*
D35*
X40950000Y22050000D02*
X40350000Y22050000D01*
X42250000Y23100000D02*
X42050000Y23300000D01*
X42250000Y22250000D02*
X42250000Y23100000D01*
X42050000Y23300000D02*
X41400000Y23300000D01*
X41400000Y23300000D02*
X41100000Y23000000D01*
X41100000Y23000000D02*
X41100000Y22200000D01*
X41100000Y22200000D02*
X40950000Y22050000D01*
D36*
X44865000Y31735000D02*
X44865000Y31160000D01*
X44850000Y31750000D02*
X44865000Y31735000D01*
X41250000Y31750000D02*
X44850000Y31750000D01*
X40750000Y30650000D02*
X40750000Y31250000D01*
X40750000Y31250000D02*
X41250000Y31750000D01*
X43100000Y27575000D02*
X43325000Y27350000D01*
X42500000Y27575000D02*
X43100000Y27575000D01*
X44865000Y27465000D02*
X44865000Y28040000D01*
X44750000Y27350000D02*
X44865000Y27465000D01*
X43900000Y28295000D02*
X43900000Y27350000D01*
X43905000Y28300000D02*
X43900000Y28295000D01*
X43905000Y28600000D02*
X43905000Y28300000D01*
X43325000Y27350000D02*
X43900000Y27350000D01*
X43900000Y27350000D02*
X44750000Y27350000D01*
D35*
X69000000Y23700000D02*
X60800000Y23700000D01*
X57650000Y25000000D02*
X56300000Y25000000D01*
X58950000Y23700000D02*
X57650000Y25000000D01*
X56300000Y25000000D02*
X56300000Y23300000D01*
X56300000Y23300000D02*
X56350000Y23250000D01*
X42250000Y9940000D02*
X42250000Y10750000D01*
X42250000Y9750000D02*
X42250000Y9940000D01*
X41900000Y9400000D02*
X42250000Y9750000D01*
X41900000Y7850000D02*
X41900000Y9400000D01*
X42200000Y7500000D02*
X42200000Y7550000D01*
X42200000Y7550000D02*
X41900000Y7850000D01*
X42200000Y7500000D02*
X42200000Y7500000D01*
X36905014Y14750000D02*
X36700004Y14544990D01*
X39750000Y14750000D02*
X36905014Y14750000D01*
X31500000Y22909285D02*
X31500000Y23474970D01*
X32600000Y21550000D02*
X31500000Y22650000D01*
X31500000Y22650000D02*
X31500000Y22909285D01*
X37100000Y29222500D02*
X37100000Y28237500D01*
X37100000Y31235000D02*
X37100000Y29222500D01*
X36985000Y31350000D02*
X37100000Y31235000D01*
X36425000Y31350000D02*
X36985000Y31350000D01*
X27800000Y28237500D02*
X27800000Y31185000D01*
X40099999Y1999999D02*
X39700000Y1600000D01*
X42200000Y4100000D02*
X40099999Y1999999D01*
X42200000Y7500000D02*
X42200000Y4100000D01*
X13385000Y25500000D02*
X12400000Y25500000D01*
X15750000Y25500000D02*
X13385000Y25500000D01*
X17750000Y23500000D02*
X15750000Y25500000D01*
X17800000Y23500000D02*
X17750000Y23500000D01*
X28500000Y20500000D02*
X28100000Y20100000D01*
X30100000Y20500000D02*
X28500000Y20500000D01*
X17850000Y23500000D02*
X17800000Y23500000D01*
X18500000Y24150000D02*
X17850000Y23500000D01*
X18500000Y28200000D02*
X18500000Y24150000D01*
X28300000Y5650000D02*
X28300000Y4100000D01*
X17800000Y5600000D02*
X17900000Y5700000D01*
X17800000Y4225000D02*
X17800000Y5600000D01*
X17800000Y1600000D02*
X11850000Y1600000D01*
X11850000Y1600000D02*
X11750000Y1700000D01*
X6240000Y16822370D02*
X6240000Y10280000D01*
X6240000Y17900000D02*
X6240000Y16822370D01*
X39700000Y1600000D02*
X25300000Y1600000D01*
X25300000Y1600000D02*
X17800000Y1600000D01*
X20425000Y14290000D02*
X20135000Y14000000D01*
X20425000Y14900000D02*
X20425000Y14290000D01*
X20135000Y14000000D02*
X15800000Y14000000D01*
X15800000Y14000000D02*
X14100000Y15700000D01*
X14100000Y15700000D02*
X14100000Y16800000D01*
X10800000Y25500000D02*
X12400000Y25500000D01*
X10200000Y24900000D02*
X10800000Y25500000D01*
X27125000Y31800000D02*
X27125000Y31850000D01*
X27740000Y31185000D02*
X27125000Y31800000D01*
X27800000Y31185000D02*
X27740000Y31185000D01*
X37900000Y5700000D02*
X37900000Y4300000D01*
X51926756Y19750000D02*
X52600000Y20423244D01*
X51250000Y19750000D02*
X51926756Y19750000D01*
X52600000Y20423244D02*
X52600000Y20439325D01*
X52600000Y20439325D02*
X52600000Y21005010D01*
X33405009Y13650063D02*
X33005010Y13250064D01*
X34299936Y14544990D02*
X33405009Y13650063D01*
X36700004Y14544990D02*
X34299936Y14544990D01*
X77900000Y2600000D02*
X80500000Y2600000D01*
X60800000Y23700000D02*
X58950000Y23700000D01*
D37*
G04 #@! TO.N,+3V3*
X73200000Y12200000D02*
X69200000Y12200000D01*
X69200000Y12200000D02*
X65300000Y12200000D01*
X65300000Y12200000D02*
X61400000Y12200000D01*
X61400000Y12200000D02*
X57500000Y12200000D01*
X80500000Y8000000D02*
X85800000Y8000000D01*
D35*
X76200000Y8000000D02*
X76000000Y8200000D01*
X85937500Y14700000D02*
X85937500Y17462500D01*
X85937500Y17462500D02*
X85900000Y17500000D01*
X82594990Y20805010D02*
X82594990Y22505010D01*
X85900000Y17500000D02*
X82594990Y20805010D01*
X80100000Y25000000D02*
X78437500Y25000000D01*
X82594990Y22505010D02*
X80100000Y25000000D01*
D37*
X56890000Y12200000D02*
X53600000Y12200000D01*
D35*
X57500000Y12200000D02*
X56890000Y12200000D01*
D37*
X80500000Y8000000D02*
X78100000Y8000000D01*
X78100000Y8000000D02*
X76200000Y8000000D01*
D35*
X61300000Y28300000D02*
X61300000Y30175000D01*
X61300000Y30175000D02*
X61525000Y30400000D01*
X72700000Y25850000D02*
X73650000Y26800000D01*
X72700000Y25700000D02*
X72700000Y25850000D01*
X77452500Y25000000D02*
X78437500Y25000000D01*
X75652500Y26800000D02*
X77452500Y25000000D01*
X73650000Y26800000D02*
X75652500Y26800000D01*
X49250000Y10750000D02*
X50144990Y10750000D01*
X50144990Y10750000D02*
X50194990Y10700000D01*
X51250000Y20250000D02*
X51250000Y21250000D01*
X51250000Y21250000D02*
X51200000Y21300000D01*
D37*
X73800000Y12200000D02*
X73200000Y12200000D01*
X76000000Y8200000D02*
X76000000Y10000000D01*
X76000000Y10000000D02*
X73800000Y12200000D01*
D35*
X53600000Y12200000D02*
X53450000Y12200000D01*
X53450000Y12200000D02*
X51394990Y10144990D01*
X51394990Y10144990D02*
X51394990Y7994900D01*
X51394990Y7994900D02*
X51394990Y7429215D01*
X39750000Y20250000D02*
X39750000Y21150000D01*
X39750000Y21150000D02*
X38850000Y22050000D01*
D36*
X47949990Y31100010D02*
X47949990Y29350000D01*
X47260031Y31789969D02*
X47949990Y31100010D01*
X46289969Y31789969D02*
X47260031Y31789969D01*
X46065000Y31160000D02*
X46065000Y31565000D01*
X46065000Y31565000D02*
X46289969Y31789969D01*
X43855000Y30650000D02*
X43905000Y30600000D01*
X42250000Y30650000D02*
X43855000Y30650000D01*
D35*
X42750000Y10750000D02*
X42750000Y8699998D01*
X41750000Y21790000D02*
X41750000Y22250000D01*
X39750000Y20250000D02*
X40210000Y20250000D01*
X40210000Y20250000D02*
X41750000Y21790000D01*
X55230000Y26520000D02*
X55250000Y26500000D01*
X55230000Y28500000D02*
X55230000Y26520000D01*
X54700000Y26500000D02*
X55250000Y26500000D01*
X55250000Y26500000D02*
X56300000Y26500000D01*
X51300000Y27500000D02*
X51300000Y25000000D01*
X16400000Y22000000D02*
X15000000Y22000000D01*
X12900000Y22000000D02*
X12400000Y22500000D01*
X17800000Y22000000D02*
X16400000Y22000000D01*
X32600000Y18240000D02*
X32600000Y18294990D01*
X32060000Y17700000D02*
X32600000Y18240000D01*
X31600000Y17700000D02*
X32060000Y17700000D01*
X33500000Y700000D02*
X23800000Y700000D01*
X23800000Y700000D02*
X13400000Y700000D01*
X19500000Y18900000D02*
X24900000Y18900000D01*
X19000000Y18400000D02*
X19500000Y18900000D01*
X15000000Y22000000D02*
X14200000Y22000000D01*
X14200000Y22000000D02*
X12900000Y22000000D01*
X17800000Y22000000D02*
X19100000Y22000000D01*
X59300000Y28300000D02*
X59100000Y28500000D01*
X61300000Y28300000D02*
X59300000Y28300000D01*
D37*
X65300000Y12200000D02*
X65300000Y19905010D01*
D36*
X42250000Y30650000D02*
X42250000Y30600000D01*
X40925000Y29325000D02*
X40615160Y29015160D01*
X42250000Y30600000D02*
X40644876Y28994876D01*
X40644876Y28994876D02*
X40615160Y28994876D01*
X40615160Y29015160D02*
X40615160Y28994876D01*
D35*
X46885000Y2000000D02*
X48385000Y500000D01*
X72500000Y500000D02*
X73600001Y1600001D01*
X46300000Y2000000D02*
X46885000Y2000000D01*
X73600001Y1600001D02*
X74000000Y2000000D01*
X74399999Y2399999D02*
X74000000Y2000000D01*
X75200000Y3200000D02*
X74399999Y2399999D01*
X75200000Y7450000D02*
X75200000Y3200000D01*
X76000000Y8200000D02*
X75950000Y8200000D01*
X75950000Y8200000D02*
X75200000Y7450000D01*
X48385000Y500000D02*
X72500000Y500000D01*
G04 #@! TO.N,NRST*
X85937500Y10700000D02*
X80600002Y10700000D01*
X79399999Y11900003D02*
X79000000Y12300002D01*
X80600002Y10700000D02*
X79399999Y11900003D01*
X39750000Y17250000D02*
X37750004Y17250000D01*
X37750004Y17250000D02*
X37450004Y17550000D01*
X30100000Y19000000D02*
X30100000Y17700000D01*
X30100000Y17700000D02*
X30100000Y17850000D01*
X31250000Y19000000D02*
X34700000Y19000000D01*
X36150000Y17550000D02*
X37450004Y17550000D01*
X34700000Y19000000D02*
X36150000Y17550000D01*
X31250000Y19000000D02*
X30100000Y19000000D01*
X28350000Y17700000D02*
X28100000Y17950000D01*
X30100000Y17700000D02*
X28350000Y17700000D01*
G04 #@! TO.N,Net-(C4-Pad2)*
X38405014Y14250000D02*
X38200004Y14044990D01*
X39750000Y14250000D02*
X38405014Y14250000D01*
G04 #@! TO.N,SW1*
X18825000Y2725000D02*
X17800000Y2725000D01*
X20700000Y4600000D02*
X18825000Y2725000D01*
X20700000Y9100000D02*
X20700000Y4600000D01*
X26800000Y11200000D02*
X22800000Y11200000D01*
X22800000Y11200000D02*
X20700000Y9100000D01*
X31873313Y11430033D02*
X31794954Y11351674D01*
X31794954Y11351674D02*
X31394955Y10951675D01*
X37970033Y11430033D02*
X31873313Y11430033D01*
X39290000Y12750000D02*
X37970033Y11430033D01*
X39750000Y12750000D02*
X39290000Y12750000D01*
X15625000Y2725000D02*
X15600000Y2700000D01*
X17800000Y2725000D02*
X15625000Y2725000D01*
G04 #@! TO.N,SW2*
X37950000Y2800000D02*
X37900000Y2800000D01*
X40600000Y5450000D02*
X37950000Y2800000D01*
X40600000Y9950000D02*
X40600000Y5450000D01*
X41750000Y10750000D02*
X41400000Y10750000D01*
X41400000Y10750000D02*
X40600000Y9950000D01*
X37900000Y2800000D02*
X35700000Y2800000D01*
G04 #@! TO.N,SW3*
X28350000Y2600000D02*
X28300000Y2600000D01*
X30600000Y4850000D02*
X28350000Y2600000D01*
X43250000Y11480158D02*
X43050179Y11679979D01*
X32800000Y10200000D02*
X30600000Y8000000D01*
X43050179Y11679979D02*
X41128667Y11679979D01*
X43250000Y10750000D02*
X43250000Y11480158D01*
X41128667Y11679979D02*
X39648688Y10200000D01*
X39648688Y10200000D02*
X32800000Y10200000D01*
X30600000Y8000000D02*
X30600000Y4850000D01*
X27690000Y2600000D02*
X26100000Y2600000D01*
X28300000Y2600000D02*
X27690000Y2600000D01*
G04 #@! TO.N,DIR_MAXON1*
X54893404Y16250000D02*
X56553520Y17910116D01*
X56553520Y18772479D02*
X56590950Y18809909D01*
X56590950Y18809909D02*
X56990949Y19209908D01*
X51250000Y16250000D02*
X54893404Y16250000D01*
X56553520Y17910116D02*
X56553520Y18772479D01*
G04 #@! TO.N,SR_MAXON1*
X51250000Y15750000D02*
X54984418Y15750000D01*
X54984418Y15750000D02*
X57265663Y18031245D01*
X57265663Y18071813D02*
X57665662Y18471812D01*
X57265663Y18031245D02*
X57265663Y18071813D01*
G04 #@! TO.N,PWM_MAXON1*
X51250000Y15250000D02*
X55898646Y15250000D01*
X55898646Y15250000D02*
X57993061Y17344415D01*
X57993061Y17344415D02*
X58393060Y17744414D01*
G04 #@! TO.N,PWM_MAXON2*
X51250000Y14750000D02*
X56955010Y14750000D01*
X56955010Y14750000D02*
X58771243Y16566233D01*
X58771243Y16566233D02*
X59171242Y16966232D01*
G04 #@! TO.N,SR_MAXON2*
X60700001Y15800001D02*
X61100000Y16200000D01*
X51250000Y13750000D02*
X58650000Y13750000D01*
X58650000Y13750000D02*
X60700001Y15800001D01*
G04 #@! TO.N,DIR_MAXON2*
X51250000Y14250000D02*
X58215685Y14250000D01*
X58215685Y14250000D02*
X60200000Y16234315D01*
X60200000Y16234315D02*
X60200000Y16800000D01*
G04 #@! TO.N,Net-(LED1-Pad3)*
X44650000Y1900000D02*
X44750000Y2000000D01*
X41600000Y1900000D02*
X44650000Y1900000D01*
G04 #@! TO.N,Net-(LED1-Pad4)*
X45500000Y2375000D02*
X45500000Y1770695D01*
X45500000Y1770695D02*
X45500000Y1205010D01*
X44875000Y3000000D02*
X45500000Y2375000D01*
X44750000Y3000000D02*
X44875000Y3000000D01*
G04 #@! TO.N,Net-(LED1-Pad2)*
X46885000Y3000000D02*
X46300000Y3000000D01*
X48365685Y3000000D02*
X46885000Y3000000D01*
X48900000Y2465685D02*
X48365685Y3000000D01*
X48900000Y1900000D02*
X48900000Y2465685D01*
G04 #@! TO.N,Net-(Q1-Pad2)*
X53200000Y25100000D02*
X53200000Y26500000D01*
X53100000Y26500000D02*
X53200000Y26500000D01*
X52550000Y28500000D02*
X52550000Y27050000D01*
X52550000Y27050000D02*
X53100000Y26500000D01*
G04 #@! TO.N,Net-(R2-Pad2)*
X53600000Y9360000D02*
X53600000Y10700000D01*
X53600000Y7900000D02*
X53600000Y9360000D01*
G04 #@! TO.N,INSERT_SD*
X39750000Y19750000D02*
X40560000Y19750000D01*
X30801423Y10193567D02*
X30500000Y10494990D01*
X40560000Y19750000D02*
X41100000Y19210000D01*
X41100000Y12810998D02*
X39309024Y11020022D01*
X39309024Y11020022D02*
X32460336Y11020022D01*
X31633882Y10193567D02*
X30801423Y10193567D01*
X32460336Y11020022D02*
X31633882Y10193567D01*
X41100000Y19210000D02*
X41100000Y12810998D01*
G04 #@! TO.N,LED_R*
X50199999Y13394991D02*
X49800000Y13794990D01*
X51250000Y13250000D02*
X50344990Y13250000D01*
X50344990Y13250000D02*
X50199999Y13394991D01*
G04 #@! TO.N,LED_G*
X51250000Y12750000D02*
X50050000Y12750000D01*
X50050000Y12750000D02*
X49800000Y12500000D01*
G04 #@! TO.N,LED_B*
X47250000Y10750000D02*
X47250000Y12650000D01*
X47250000Y12650000D02*
X47200000Y12700000D01*
G04 #@! TO.N,SENSOR_PULS_PWM*
X54700000Y25100000D02*
X54700000Y23805010D01*
X47750000Y10750000D02*
X47750000Y12206596D01*
X47750000Y12206596D02*
X48303098Y12759694D01*
X48303098Y19799996D02*
X47903099Y20199995D01*
X48303098Y12759694D02*
X48303098Y19799996D01*
G04 #@! TO.N,SCL_LCD*
X12400000Y23500000D02*
X15000000Y23500000D01*
X30700000Y21300000D02*
X24243404Y21300000D01*
X37400133Y19550016D02*
X32449984Y19550016D01*
X32449984Y19550016D02*
X30700000Y21300000D01*
X24243404Y21300000D02*
X24238402Y21294998D01*
X20143402Y21000000D02*
X15565685Y21000000D01*
X15565685Y21000000D02*
X15000000Y21000000D01*
X20443402Y21300000D02*
X20143402Y21000000D01*
X23556596Y21300000D02*
X20443402Y21300000D01*
X23561598Y21294998D02*
X23556596Y21300000D01*
X24238402Y21294998D02*
X23561598Y21294998D01*
X43250000Y22250000D02*
X43250000Y21440000D01*
X43197737Y21387737D02*
X43197737Y20197733D01*
X43250000Y21440000D02*
X43197737Y21387737D01*
X43197737Y20197733D02*
X42550003Y19549999D01*
X42550003Y19549999D02*
X42150004Y19150000D01*
G04 #@! TO.N,SDA_LCD*
X42750000Y20950000D02*
X42499999Y20699999D01*
X42750000Y22250000D02*
X42750000Y20950000D01*
X42499999Y20699999D02*
X42100000Y20300000D01*
X16400000Y23960000D02*
X16400000Y23500000D01*
X15860000Y24500000D02*
X16400000Y23960000D01*
X12400000Y24500000D02*
X15860000Y24500000D01*
X16550000Y23500000D02*
X16400000Y23500000D01*
X17250000Y22800000D02*
X16550000Y23500000D01*
X30100000Y22800000D02*
X17250000Y22800000D01*
X37350000Y20650000D02*
X32250000Y20650000D01*
X32250000Y20650000D02*
X30100000Y22800000D01*
G04 #@! TO.N,CS_IMU*
X50300000Y24500000D02*
X49800000Y24000000D01*
X50300000Y25000000D02*
X50300000Y24500000D01*
D36*
X48750000Y22916883D02*
X49400001Y23566884D01*
X49400001Y23566884D02*
X49400001Y23600001D01*
X48750000Y22250000D02*
X48750000Y22916883D01*
X49400001Y23600001D02*
X49800000Y24000000D01*
X46902341Y24894695D02*
X46982183Y24894695D01*
X45665000Y28040000D02*
X45665000Y26132036D01*
X45665000Y26132036D02*
X46902341Y24894695D01*
G04 #@! TO.N,MOSI_IMU*
X47800001Y24436001D02*
X47700005Y24535997D01*
X47800002Y23663998D02*
X47800001Y24436001D01*
X47250000Y23113996D02*
X47800002Y23663998D01*
X47250000Y22250000D02*
X47250000Y23113996D01*
X47057235Y27040000D02*
X47222228Y26875007D01*
X47700005Y24535997D02*
X47700005Y26397230D01*
X47700005Y26397230D02*
X47622227Y26475008D01*
X47622227Y26475008D02*
X47222228Y26875007D01*
D35*
X49650010Y26500000D02*
X49350010Y26800000D01*
X50300000Y26500000D02*
X49650010Y26500000D01*
D36*
X46465000Y27632235D02*
X47222228Y26875007D01*
X46465000Y28040000D02*
X46465000Y27632235D01*
G04 #@! TO.N,MISO_IMU*
X48200013Y24501691D02*
X48650000Y24951678D01*
X48200013Y23498309D02*
X48200013Y24501691D01*
X47750000Y22250000D02*
X47750000Y23048296D01*
X47750000Y23048296D02*
X48200013Y23498309D01*
D35*
X48700000Y26000000D02*
X48650000Y26050000D01*
X50300000Y26000000D02*
X48700000Y26000000D01*
D36*
X48650000Y24951678D02*
X48650000Y26050000D01*
X47425720Y32189980D02*
X46103977Y32189979D01*
X48650000Y30965700D02*
X47425720Y32189980D01*
X48650000Y26050000D02*
X48650000Y30965700D01*
X46103977Y32189979D02*
X45665000Y31751002D01*
X45665000Y31751002D02*
X45665000Y31160000D01*
D35*
G04 #@! TO.N,ENCORDER_2A*
X44750000Y23350000D02*
X44600000Y23500000D01*
X44750000Y22250000D02*
X44750000Y23350000D01*
X44600000Y23500000D02*
X43400000Y24700000D01*
X43400000Y24700000D02*
X43250000Y24850000D01*
X43250000Y24850000D02*
X40550000Y24850000D01*
X40550000Y24850000D02*
X31000000Y24850000D01*
D36*
X30994991Y24844991D02*
X30614588Y24844991D01*
X30614588Y24844991D02*
X30554569Y24905010D01*
X31000000Y24850000D02*
X30994991Y24844991D01*
X35100000Y28237500D02*
X35100000Y29800000D01*
D35*
G04 #@! TO.N,ENCORDER_1B*
X26800000Y29800000D02*
X26800000Y28237500D01*
X30289261Y11840044D02*
X29900000Y12229305D01*
X39000000Y13250000D02*
X37590044Y11840044D01*
X39750000Y13250000D02*
X39000000Y13250000D01*
X37590044Y11840044D02*
X30289261Y11840044D01*
X29900000Y12229305D02*
X29900000Y12794990D01*
G04 #@! TO.N,ENCORDER_2B*
X44250000Y23060000D02*
X43130020Y24179980D01*
X44250000Y22250000D02*
X44250000Y23060000D01*
X43130020Y24179980D02*
X40520020Y24179980D01*
X29820020Y24179980D02*
X29800000Y24200000D01*
X40520020Y24179980D02*
X29820020Y24179980D01*
X36150000Y28287500D02*
X36100000Y28237500D01*
X36150000Y29900000D02*
X36150000Y28287500D01*
G04 #@! TO.N,ENCORDER_1A*
X25800000Y29800000D02*
X25800000Y28237500D01*
X31565685Y12545054D02*
X31000000Y12545054D01*
X38920158Y13750000D02*
X37715212Y12545054D01*
X39750000Y13750000D02*
X38920158Y13750000D01*
X37715212Y12545054D02*
X31565685Y12545054D01*
G04 #@! TO.N,LINE_SENSOR1*
X46250000Y8669368D02*
X46250000Y9940000D01*
X54600000Y4650000D02*
X54600000Y4150000D01*
X54600000Y4150000D02*
X53500055Y3050055D01*
X53500055Y3050055D02*
X51869313Y3050055D01*
X46250000Y9940000D02*
X46250000Y10750000D01*
X51869313Y3050055D02*
X46250000Y8669368D01*
X46903089Y19636064D02*
X46903089Y20201749D01*
X46903089Y19605445D02*
X46903089Y19636064D01*
X46250000Y10750000D02*
X46250000Y18952356D01*
X46250000Y18952356D02*
X46903089Y19605445D01*
G04 #@! TO.N,LINE_SENSOR2*
X45750000Y8589526D02*
X45750000Y9940000D01*
X58500000Y4650000D02*
X58500000Y4150000D01*
X45750000Y9940000D02*
X45750000Y10750000D01*
X51699482Y2640044D02*
X45750000Y8589526D01*
X56990044Y2640044D02*
X51699482Y2640044D01*
X58500000Y4150000D02*
X56990044Y2640044D01*
X45904219Y19588293D02*
X45904219Y20153978D01*
X45750000Y10750000D02*
X45750000Y19434074D01*
X45750000Y19434074D02*
X45904219Y19588293D01*
G04 #@! TO.N,LINE_SENSOR3*
X45250000Y8509684D02*
X45250000Y9940000D01*
X60480033Y2230033D02*
X51529651Y2230033D01*
X62400000Y4150000D02*
X60480033Y2230033D01*
X45250000Y9940000D02*
X45250000Y10750000D01*
X51529651Y2230033D02*
X45250000Y8509684D01*
X62400000Y4650000D02*
X62400000Y4150000D01*
X45250000Y19750042D02*
X44906005Y20094037D01*
X45250000Y10750000D02*
X45250000Y19750042D01*
G04 #@! TO.N,LINE_SENSOR4*
X64020022Y1820022D02*
X51359820Y1820022D01*
X66300000Y4600000D02*
X66300000Y4100000D01*
X51359820Y1820022D02*
X44750000Y8429842D01*
X44750000Y8429842D02*
X44750000Y9940000D01*
X44750000Y9940000D02*
X44750000Y10750000D01*
X66300000Y4100000D02*
X64020022Y1820022D01*
X44750000Y10750000D02*
X44750000Y19240544D01*
X44302737Y19687807D02*
X43902738Y20087806D01*
X44750000Y19240544D02*
X44302737Y19687807D01*
G04 #@! TO.N,LINE_SENSOR5*
X71594989Y26902475D02*
X71194990Y26502476D01*
X71700000Y27007486D02*
X71594989Y26902475D01*
X71700000Y28300000D02*
X71700000Y27007486D01*
X44250000Y9940000D02*
X44250000Y10750000D01*
X44250000Y8350000D02*
X44250000Y9940000D01*
X51189989Y1410011D02*
X44250000Y8350000D01*
X70200000Y4150000D02*
X67460011Y1410011D01*
X70200000Y4650000D02*
X70200000Y4150000D01*
X67460011Y1410011D02*
X51189989Y1410011D01*
X70200000Y5150000D02*
X71010000Y5960000D01*
X72000001Y9400001D02*
X72400000Y9800000D01*
X71010000Y5960000D02*
X71010000Y8410000D01*
X70200000Y4650000D02*
X70200000Y5150000D01*
X71010000Y8410000D02*
X72000001Y9400001D01*
X73200000Y18005010D02*
X73200000Y14065683D01*
X73200000Y14065683D02*
X73200000Y13499998D01*
X71300000Y19905010D02*
X73200000Y18005010D01*
G04 #@! TO.N,LINE_SENSOR6*
X43750000Y9940000D02*
X43750000Y10750000D01*
X43750000Y8250000D02*
X43750000Y9940000D01*
X51000000Y1000000D02*
X43750000Y8250000D01*
X71100000Y1000000D02*
X51000000Y1000000D01*
X74200000Y4600000D02*
X74200000Y4100000D01*
X74200000Y4100000D02*
X71100000Y1000000D01*
X17500000Y28200000D02*
X17500000Y29894990D01*
X26700000Y17200000D02*
X26000000Y17900000D01*
X29100000Y16420086D02*
X28320086Y17200000D01*
X29100000Y10756598D02*
X29100000Y16420086D01*
X39478856Y10610011D02*
X32630168Y10610011D01*
X40958835Y12089990D02*
X39478856Y10610011D01*
X43220011Y12089990D02*
X40958835Y12089990D01*
X43750000Y11560000D02*
X43220011Y12089990D01*
X43750000Y10750000D02*
X43750000Y11560000D01*
X30073042Y9783556D02*
X29100000Y10756598D01*
X32630168Y10610011D02*
X31803714Y9783556D01*
X28320086Y17200000D02*
X26700000Y17200000D01*
X31803714Y9783556D02*
X30073042Y9783556D01*
X26000000Y17900000D02*
X26000000Y19384979D01*
X26000000Y19384979D02*
X24884979Y20500000D01*
G04 #@! TO.N,R_SW2*
X39750000Y15750000D02*
X31850000Y15750000D01*
X31850000Y15750000D02*
X30800000Y14700000D01*
X25577535Y12179978D02*
X27493278Y14095721D01*
X27493278Y14095721D02*
X27893277Y14495720D01*
X8780000Y10280000D02*
X10679978Y12179978D01*
X10679978Y12179978D02*
X25577535Y12179978D01*
G04 #@! TO.N,R_SW4*
X39750000Y15250000D02*
X32750000Y15250000D01*
X32750000Y15250000D02*
X31300000Y13800000D01*
X5580000Y8400000D02*
X9800000Y8400000D01*
X13169967Y11769967D02*
X26174264Y11769967D01*
X9800000Y8400000D02*
X13169967Y11769967D01*
X26174264Y11769967D02*
X27500029Y13095732D01*
X27500029Y13095732D02*
X27900028Y13495731D01*
X3700000Y10280000D02*
X5580000Y8400000D01*
G04 #@! TO.N,R_SW8*
X39750000Y16250000D02*
X31350000Y16250000D01*
X31350000Y16250000D02*
X30800000Y15700000D01*
X27416109Y15095473D02*
X27516077Y15095473D01*
X8780000Y17900000D02*
X14090011Y12589989D01*
X24910625Y12589989D02*
X27416109Y15095473D01*
X14090011Y12589989D02*
X24910625Y12589989D01*
X27516077Y15095473D02*
X27916076Y15495472D01*
G04 #@! TO.N,R_SW1*
X39750000Y16750000D02*
X30850000Y16750000D01*
X30850000Y16750000D02*
X30800000Y16700000D01*
X27484660Y16094991D02*
X27884659Y16494990D01*
X24389669Y13000000D02*
X27484660Y16094991D01*
X15500000Y13000000D02*
X24389669Y13000000D01*
X9000000Y19500000D02*
X15500000Y13000000D01*
X6272000Y19500000D02*
X9000000Y19500000D01*
X4672000Y17900000D02*
X6272000Y19500000D01*
X3700000Y17900000D02*
X4672000Y17900000D01*
G04 #@! TO.N,RTC_IN*
X37999999Y22650005D02*
X37600000Y23050004D01*
X38099999Y22550005D02*
X37999999Y22650005D01*
X38099999Y20090001D02*
X38099999Y22550005D01*
X38940000Y19250000D02*
X38099999Y20090001D01*
X39750000Y19250000D02*
X38940000Y19250000D01*
G04 #@! TO.N,OSC_IN*
X37697446Y18250000D02*
X37397438Y18550008D01*
X39750000Y18250000D02*
X37697446Y18250000D01*
G04 #@! TO.N,POT*
X62300000Y26700000D02*
X62300000Y28300000D01*
X50900000Y8800000D02*
X50900000Y11110998D01*
X50900000Y11110998D02*
X52700000Y12910998D01*
X46750000Y10750000D02*
X46750000Y9940000D01*
X62300000Y19339325D02*
X62300000Y19905010D01*
X62300000Y15300000D02*
X62300000Y19339325D01*
X59910998Y12910998D02*
X62300000Y15300000D01*
X52700000Y12910998D02*
X59910998Y12910998D01*
X50000000Y7900000D02*
X50900000Y8800000D01*
X48790000Y7900000D02*
X50000000Y7900000D01*
X46750000Y9940000D02*
X48790000Y7900000D01*
G04 #@! TO.N,TX*
X78437500Y23000000D02*
X76800008Y23000000D01*
X76800008Y23000000D02*
X76800000Y23000008D01*
X57166609Y20610012D02*
X71638402Y20610012D01*
X71638402Y20610012D02*
X72858426Y19389988D01*
X53806597Y17250000D02*
X57166609Y20610012D01*
X73794998Y19389988D02*
X74100001Y19694991D01*
X72858426Y19389988D02*
X73794998Y19389988D01*
X51250000Y17250000D02*
X53806597Y17250000D01*
X74100001Y19694991D02*
X74500000Y20094990D01*
G04 #@! TO.N,RX*
X76100000Y24000000D02*
X78437500Y24000000D01*
X53726754Y17750000D02*
X56996777Y21020023D01*
X72555416Y21020023D02*
X73080450Y20494989D01*
X51250000Y17750000D02*
X53726754Y17750000D01*
X73080450Y20494989D02*
X73480449Y20094990D01*
X56996777Y21020023D02*
X72555416Y21020023D01*
G04 #@! TO.N,TMS*
X84952500Y11700000D02*
X85937500Y11700000D01*
X84500000Y11700000D02*
X84952500Y11700000D01*
X54240034Y21430034D02*
X74769966Y21430034D01*
X74769966Y21430034D02*
X84500000Y11700000D01*
X52060000Y19250000D02*
X54240034Y21430034D01*
X51250000Y19250000D02*
X52060000Y19250000D01*
G04 #@! TO.N,TCK*
X84952500Y13700000D02*
X85937500Y13700000D01*
X74982343Y22250000D02*
X83532343Y13700000D01*
X49250000Y22250000D02*
X74982343Y22250000D01*
X83532343Y13700000D02*
X84952500Y13700000D01*
G04 #@! TO.N,CS_SD*
X44039798Y26840045D02*
X24690045Y26840045D01*
X24690045Y26840045D02*
X24600000Y26750000D01*
X46750000Y22250000D02*
X46750000Y24129843D01*
X46750000Y24129843D02*
X44039798Y26840045D01*
X20099999Y25699999D02*
X19700000Y25300000D01*
X20105001Y25705001D02*
X20099999Y25699999D01*
D36*
X24600000Y26750000D02*
X23550000Y25700000D01*
D35*
X22905001Y25700000D02*
X22900000Y25705001D01*
X23550000Y25700000D02*
X22905001Y25700000D01*
X23044999Y25705001D02*
X22900000Y25705001D01*
X22900000Y25705001D02*
X20105001Y25705001D01*
G04 #@! TO.N,SCK_SD*
X23600000Y25000000D02*
X22465685Y25000000D01*
X25030034Y26430034D02*
X23600000Y25000000D01*
X46250000Y22250000D02*
X46250000Y24029843D01*
X43849809Y26430034D02*
X25030034Y26430034D01*
X22465685Y25000000D02*
X21900000Y25000000D01*
X46250000Y24029843D02*
X43849809Y26430034D01*
D36*
G04 #@! TO.N,MISO_SD*
X26429980Y25929980D02*
X25000000Y24500000D01*
D35*
X26520023Y26020023D02*
X26429980Y25929980D01*
X43389662Y26020023D02*
X26520023Y26020023D01*
X45750000Y22250000D02*
X45750000Y23659685D01*
X45750000Y23659685D02*
X43389662Y26020023D01*
X25000000Y24500000D02*
X23865679Y24500000D01*
X23865679Y24500000D02*
X23500000Y24500000D01*
X23500000Y24500000D02*
X23000000Y24000000D01*
X23000000Y24000000D02*
X20500000Y24000000D01*
X20100000Y22000000D02*
X23900000Y22000000D01*
D36*
G04 #@! TO.N,MOSI_SD*
X26950000Y25500000D02*
X25000000Y23550000D01*
D35*
X27060012Y25610012D02*
X26950000Y25500000D01*
X43219830Y25610012D02*
X27060012Y25610012D01*
X45250000Y22250000D02*
X45250000Y23579842D01*
X45250000Y23579842D02*
X43219830Y25610012D01*
X20900000Y19700000D02*
X18800000Y19700000D01*
X25000000Y23550000D02*
X24950000Y23600000D01*
X24950000Y23600000D02*
X24565685Y23600000D01*
X24565685Y23600000D02*
X24000000Y23600000D01*
G04 #@! TO.N,SCK_IMU*
X49750009Y25426569D02*
X49350010Y25026570D01*
D36*
X48250000Y22250000D02*
X48250000Y22982583D01*
X48900011Y23632594D02*
X48900011Y24576571D01*
X48900011Y24576571D02*
X48950011Y24626571D01*
D35*
X50300000Y25500000D02*
X49823440Y25500000D01*
X49823440Y25500000D02*
X49750009Y25426569D01*
D36*
X48950011Y24626571D02*
X49350010Y25026570D01*
X48250000Y22982583D02*
X48900011Y23632594D01*
X46730000Y25900000D02*
X46900000Y25900000D01*
X46065000Y28040000D02*
X46065000Y26565000D01*
X46065000Y26565000D02*
X46730000Y25900000D01*
D35*
G04 #@! TO.N,Net-(C8-Pad1)*
X48250000Y9733865D02*
X48106585Y9590450D01*
X48250000Y10750000D02*
X48250000Y9733865D01*
D36*
G04 #@! TO.N,Net-(C11-Pad1)*
X40049999Y31549999D02*
X39650000Y31150000D01*
X40689979Y32189979D02*
X40049999Y31549999D01*
X45265000Y31160000D02*
X45265000Y31935000D01*
X45010021Y32189979D02*
X40689979Y32189979D01*
X45265000Y31935000D02*
X45010021Y32189979D01*
D35*
G04 #@! TO.N,Net-(R3-Pad2)*
X57500000Y9360000D02*
X57500000Y10700000D01*
X57500000Y7900000D02*
X57500000Y9360000D01*
G04 #@! TO.N,Net-(R4-Pad2)*
X61400000Y9360000D02*
X61400000Y10700000D01*
X61400000Y7900000D02*
X61400000Y9360000D01*
G04 #@! TO.N,Net-(R5-Pad2)*
X65300000Y9310000D02*
X65300000Y10700000D01*
X65300000Y7850000D02*
X65300000Y9310000D01*
G04 #@! TO.N,Net-(R6-Pad2)*
X43800000Y22300000D02*
X43750000Y22250000D01*
X41099989Y23739989D02*
X40810000Y23450000D01*
X40810000Y23450000D02*
X40350000Y23450000D01*
X42980168Y23739989D02*
X41099989Y23739989D01*
X43750000Y22970157D02*
X42980168Y23739989D01*
X43750000Y22250000D02*
X43750000Y22970157D01*
G04 #@! TO.N,Net-(R9-Pad2)*
X69200000Y9360000D02*
X69200000Y10700000D01*
X69200000Y7900000D02*
X69200000Y9360000D01*
G04 #@! TO.N,Net-(R10-Pad2)*
X73200000Y7850000D02*
X73200000Y10700000D01*
G04 #@! TO.N,Net-(D1-Pad2)*
X70500000Y25700000D02*
X70500000Y23700000D01*
G04 #@! TO.N,Net-(D2-Pad2)*
X74200000Y25700000D02*
X74200000Y23700000D01*
G04 #@! TO.N,+5V*
X69000000Y25400000D02*
X69000000Y27299994D01*
X34100000Y29222500D02*
X34100000Y28237500D01*
X34100000Y31085000D02*
X34100000Y29222500D01*
X34365000Y31350000D02*
X34100000Y31085000D01*
X34925000Y31350000D02*
X34365000Y31350000D01*
X31000000Y31800000D02*
X31000000Y27600000D01*
X24800000Y29222500D02*
X24800000Y28237500D01*
X24800000Y31585000D02*
X24800000Y29222500D01*
X25065000Y31850000D02*
X24800000Y31585000D01*
X25625000Y31850000D02*
X25065000Y31850000D01*
G04 #@! TO.N,DIR_VCM_before*
X53119460Y19500000D02*
X53534315Y19500000D01*
X51250000Y18750000D02*
X52369460Y18750000D01*
X53534315Y19500000D02*
X54100000Y19500000D01*
X52369460Y18750000D02*
X53119460Y19500000D01*
G04 #@! TO.N,PWM_VCM_before*
X51250000Y18250000D02*
X52914671Y18250000D01*
X52914671Y18250000D02*
X53199133Y18534462D01*
G04 #@! TO.N,SR_VCM_before*
X59400000Y9600000D02*
X59400000Y7400000D01*
X55448519Y17848519D02*
X55848518Y18248518D01*
X51250000Y16750000D02*
X54350000Y16750000D01*
X54350000Y16750000D02*
X55448519Y17848519D01*
G04 #@! TO.N,Net-(J11-Pad1)*
X53900000Y30500000D02*
X55700000Y30500000D01*
X55700000Y30500000D02*
X57500000Y28700000D01*
X57500000Y28700000D02*
X57500000Y27200000D01*
X57500000Y27200000D02*
X59000000Y25700000D01*
X59000000Y25700000D02*
X64900000Y25700000D01*
X67500000Y28300000D02*
X70700000Y28300000D01*
X64900000Y25700000D02*
X67500000Y28300000D01*
D37*
X53900000Y30500000D02*
X52100000Y30500000D01*
X52100000Y30500000D02*
X50100000Y28500000D01*
D35*
X16500000Y31600000D02*
X16500000Y28200000D01*
X17494990Y32594990D02*
X16500000Y31600000D01*
X47777782Y32594990D02*
X17494990Y32594990D01*
X53900000Y30500000D02*
X49872772Y30500000D01*
X49872772Y30500000D02*
X47777782Y32594990D01*
G04 #@! TO.N,Net-(R11-Pad2)*
X13425000Y2725000D02*
X13400000Y2700000D01*
X17475000Y7850000D02*
X17900000Y7850000D01*
X15600000Y4200000D02*
X15600000Y5975000D01*
X15600000Y5975000D02*
X17475000Y7850000D01*
X15450000Y4200000D02*
X15600000Y4200000D01*
X13400000Y2700000D02*
X13950000Y2700000D01*
X13950000Y2700000D02*
X15450000Y4200000D01*
G04 #@! TO.N,Net-(R12-Pad2)*
X27875000Y7800000D02*
X28300000Y7800000D01*
X26100000Y6025000D02*
X27875000Y7800000D01*
X26100000Y4100000D02*
X26100000Y6025000D01*
X24300000Y2600000D02*
X23800000Y2600000D01*
X26100000Y4100000D02*
X25800000Y4100000D01*
X25800000Y4100000D02*
X24300000Y2600000D01*
G04 #@! TO.N,Net-(R16-Pad2)*
X37475000Y7850000D02*
X37900000Y7850000D01*
X35700000Y6075000D02*
X37475000Y7850000D01*
X35700000Y4300000D02*
X35700000Y6075000D01*
X35550000Y4300000D02*
X35700000Y4300000D01*
X33500000Y2800000D02*
X34050000Y2800000D01*
X34050000Y2800000D02*
X35550000Y4300000D01*
G04 #@! TD*
D38*
G04 #@! TO.N,GND*
G36*
X7595680Y18691337D02*
X7383000Y18177881D01*
X7383000Y17622119D01*
X7595680Y17108663D01*
X7988663Y16715680D01*
X8502119Y16503000D01*
X9057881Y16503000D01*
X9109218Y16524265D01*
X10373000Y15260483D01*
X10373000Y12864852D01*
X10146468Y12713488D01*
X10105184Y12651702D01*
X9109218Y11655736D01*
X9057881Y11677000D01*
X8502119Y11677000D01*
X7988663Y11464320D01*
X7595680Y11071337D01*
X7383000Y10557881D01*
X7383000Y10549099D01*
X7382667Y10548601D01*
X7373000Y10500000D01*
X7373000Y9427000D01*
X5600000Y9427000D01*
X5599598Y9426920D01*
X5075736Y9950782D01*
X5097000Y10002119D01*
X5097000Y10557881D01*
X4884320Y11071337D01*
X4491337Y11464320D01*
X3977881Y11677000D01*
X3422119Y11677000D01*
X2908663Y11464320D01*
X2515680Y11071337D01*
X2303000Y10557881D01*
X2303000Y10002119D01*
X2515680Y9488663D01*
X2908663Y9095680D01*
X3422119Y8883000D01*
X3977881Y8883000D01*
X4029218Y8904264D01*
X5005206Y7928276D01*
X5046490Y7866490D01*
X5291266Y7702936D01*
X5507119Y7660000D01*
X5507122Y7660000D01*
X5579999Y7645504D01*
X5652876Y7660000D01*
X9727119Y7660000D01*
X9800000Y7645503D01*
X9872881Y7660000D01*
X10088734Y7702936D01*
X10333510Y7866490D01*
X10374796Y7928279D01*
X10621517Y8175000D01*
X11652560Y8175000D01*
X11652560Y7525000D01*
X11701843Y7277235D01*
X11842191Y7067191D01*
X12052235Y6926843D01*
X12300000Y6877560D01*
X13900000Y6877560D01*
X14147765Y6926843D01*
X14357809Y7067191D01*
X14498157Y7277235D01*
X14547440Y7525000D01*
X14547440Y8175000D01*
X14498157Y8422765D01*
X14357809Y8632809D01*
X14147765Y8773157D01*
X13900000Y8822440D01*
X12300000Y8822440D01*
X12052235Y8773157D01*
X11842191Y8632809D01*
X11701843Y8422765D01*
X11652560Y8175000D01*
X10621517Y8175000D01*
X13476485Y11029967D01*
X19973000Y11029967D01*
X19973000Y9300000D01*
X19979143Y9269117D01*
X19945503Y9100000D01*
X19960000Y9027119D01*
X19960001Y4906519D01*
X18614938Y3561455D01*
X18447765Y3673157D01*
X18200000Y3722440D01*
X17522925Y3722440D01*
X17500000Y3727000D01*
X16603083Y3727000D01*
X16647440Y3950000D01*
X16647440Y4450000D01*
X16598157Y4697765D01*
X16457809Y4907809D01*
X16340000Y4986527D01*
X16340000Y5668483D01*
X17549078Y6877560D01*
X18650000Y6877560D01*
X18897765Y6926843D01*
X19107809Y7067191D01*
X19248157Y7277235D01*
X19297440Y7525000D01*
X19297440Y8175000D01*
X19248157Y8422765D01*
X19107809Y8632809D01*
X18897765Y8773157D01*
X18650000Y8822440D01*
X17150000Y8822440D01*
X16902235Y8773157D01*
X16692191Y8632809D01*
X16551843Y8422765D01*
X16502560Y8175000D01*
X16502560Y7924078D01*
X15205483Y6627000D01*
X14128445Y6627000D01*
X13900000Y6672440D01*
X12300000Y6672440D01*
X12052235Y6623157D01*
X11842191Y6482809D01*
X11701843Y6272765D01*
X11652560Y6025000D01*
X11652560Y5375000D01*
X11701843Y5127235D01*
X11842191Y4917191D01*
X12052235Y4776843D01*
X12300000Y4727560D01*
X12421752Y4727560D01*
X12401843Y4697765D01*
X12352560Y4450000D01*
X12352560Y3950000D01*
X12401843Y3702235D01*
X12542191Y3492191D01*
X12605334Y3450000D01*
X12542191Y3407809D01*
X12401843Y3197765D01*
X12352560Y2950000D01*
X12352560Y2450000D01*
X12401843Y2202235D01*
X12542191Y1992191D01*
X12752235Y1851843D01*
X13000000Y1802560D01*
X13800000Y1802560D01*
X14047765Y1851843D01*
X14079428Y1873000D01*
X14920572Y1873000D01*
X14952235Y1851843D01*
X15200000Y1802560D01*
X16000000Y1802560D01*
X16247765Y1851843D01*
X16447047Y1985000D01*
X16896882Y1985000D01*
X16942191Y1917191D01*
X17152235Y1776843D01*
X17400000Y1727560D01*
X18200000Y1727560D01*
X18447765Y1776843D01*
X18657809Y1917191D01*
X18703118Y1985000D01*
X18752119Y1985000D01*
X18825000Y1970503D01*
X18897881Y1985000D01*
X19113734Y2027936D01*
X19358510Y2191490D01*
X19399796Y2253279D01*
X21171724Y4025206D01*
X21233510Y4066490D01*
X21397064Y4311266D01*
X21440000Y4527119D01*
X21440000Y4527122D01*
X21454496Y4599999D01*
X21440000Y4672876D01*
X21440000Y8125000D01*
X22052560Y8125000D01*
X22052560Y7475000D01*
X22101843Y7227235D01*
X22242191Y7017191D01*
X22452235Y6876843D01*
X22700000Y6827560D01*
X24300000Y6827560D01*
X24547765Y6876843D01*
X24757809Y7017191D01*
X24898157Y7227235D01*
X24947440Y7475000D01*
X24947440Y8125000D01*
X24898157Y8372765D01*
X24757809Y8582809D01*
X24547765Y8723157D01*
X24300000Y8772440D01*
X22700000Y8772440D01*
X22452235Y8723157D01*
X22242191Y8582809D01*
X22101843Y8372765D01*
X22052560Y8125000D01*
X21440000Y8125000D01*
X21440000Y8793483D01*
X23106518Y10460000D01*
X26076289Y10460000D01*
X26213720Y10322569D01*
X26594126Y10165000D01*
X27005874Y10165000D01*
X27386280Y10322569D01*
X27436711Y10373000D01*
X28466322Y10373000D01*
X28566490Y10223088D01*
X28628279Y10181802D01*
X29498248Y9311832D01*
X29539532Y9250046D01*
X29784308Y9086492D01*
X29873000Y9068850D01*
X29873000Y8138235D01*
X29845503Y8000000D01*
X29860000Y7927119D01*
X29860001Y5156520D01*
X28300923Y3597440D01*
X28278373Y3597440D01*
X28248601Y3617333D01*
X28200000Y3627000D01*
X27103083Y3627000D01*
X27147440Y3850000D01*
X27147440Y4350000D01*
X27098157Y4597765D01*
X26957809Y4807809D01*
X26840000Y4886527D01*
X26840000Y5718483D01*
X27949078Y6827560D01*
X29050000Y6827560D01*
X29297765Y6876843D01*
X29507809Y7017191D01*
X29648157Y7227235D01*
X29697440Y7475000D01*
X29697440Y8125000D01*
X29648157Y8372765D01*
X29507809Y8582809D01*
X29297765Y8723157D01*
X29050000Y8772440D01*
X27550000Y8772440D01*
X27302235Y8723157D01*
X27092191Y8582809D01*
X26951843Y8372765D01*
X26902560Y8125000D01*
X26902560Y7874078D01*
X25628277Y6599794D01*
X25566491Y6558510D01*
X25545437Y6527000D01*
X24616843Y6527000D01*
X24547765Y6573157D01*
X24300000Y6622440D01*
X22700000Y6622440D01*
X22452235Y6573157D01*
X22242191Y6432809D01*
X22101843Y6222765D01*
X22052560Y5975000D01*
X22052560Y5325000D01*
X22101843Y5077235D01*
X22242191Y4867191D01*
X22452235Y4726843D01*
X22700000Y4677560D01*
X22773000Y4677560D01*
X22773000Y4452760D01*
X22752560Y4350000D01*
X22752560Y3850000D01*
X22773000Y3747240D01*
X22773000Y3200000D01*
X22782667Y3151399D01*
X22810173Y3110232D01*
X22801843Y3097765D01*
X22752560Y2850000D01*
X22752560Y2350000D01*
X22801843Y2102235D01*
X22942191Y1892191D01*
X23152235Y1751843D01*
X23400000Y1702560D01*
X23515809Y1702560D01*
X23213720Y1577431D01*
X23076289Y1440000D01*
X14123711Y1440000D01*
X13986280Y1577431D01*
X13605874Y1735000D01*
X13194126Y1735000D01*
X12813720Y1577431D01*
X12522569Y1286280D01*
X12365000Y905874D01*
X12365000Y735000D01*
X735000Y735000D01*
X735000Y2509734D01*
X1445000Y2509734D01*
X1465000Y2409187D01*
X1465000Y2154887D01*
X1562316Y1919945D01*
X1578591Y1838125D01*
X1624938Y1768762D01*
X1729138Y1517201D01*
X1921676Y1324663D01*
X1959028Y1268762D01*
X2014929Y1231410D01*
X2217201Y1029138D01*
X2481479Y919670D01*
X2528391Y888325D01*
X2583727Y877318D01*
X2854887Y765000D01*
X3148389Y765000D01*
X3200000Y754734D01*
X3251611Y765000D01*
X3545113Y765000D01*
X3816273Y877318D01*
X3871609Y888325D01*
X3918521Y919670D01*
X4182799Y1029138D01*
X4385071Y1231410D01*
X4440972Y1268762D01*
X4478324Y1324663D01*
X4670862Y1517201D01*
X4775062Y1768762D01*
X4821409Y1838125D01*
X4837684Y1919945D01*
X4935000Y2154887D01*
X4935000Y2409187D01*
X4955000Y2509734D01*
X4935000Y2610281D01*
X4935000Y2845113D01*
X4845134Y3062069D01*
X4821409Y3181343D01*
X4753846Y3282458D01*
X4670862Y3482799D01*
X4517526Y3636135D01*
X4440972Y3750706D01*
X4326401Y3827260D01*
X4182799Y3970862D01*
X3995176Y4048578D01*
X3871609Y4131143D01*
X3725851Y4160136D01*
X3545113Y4235000D01*
X3349483Y4235000D01*
X3200000Y4264734D01*
X3050517Y4235000D01*
X2854887Y4235000D01*
X2674149Y4160136D01*
X2528391Y4131143D01*
X2404824Y4048578D01*
X2217201Y3970862D01*
X2073599Y3827260D01*
X1959028Y3750706D01*
X1882474Y3636135D01*
X1729138Y3482799D01*
X1646154Y3282458D01*
X1578591Y3181343D01*
X1554866Y3062069D01*
X1465000Y2845113D01*
X1465000Y2610281D01*
X1445000Y2509734D01*
X735000Y2509734D01*
X735000Y16573000D01*
X2640612Y16573000D01*
X2690235Y16539843D01*
X2938000Y16490560D01*
X4462000Y16490560D01*
X4709765Y16539843D01*
X4919809Y16680191D01*
X5060157Y16890235D01*
X5109440Y17138000D01*
X5109440Y17302298D01*
X5205510Y17366490D01*
X5246796Y17428279D01*
X6578518Y18760000D01*
X7664343Y18760000D01*
X7595680Y18691337D01*
X7595680Y18691337D01*
G37*
X7595680Y18691337D02*
X7383000Y18177881D01*
X7383000Y17622119D01*
X7595680Y17108663D01*
X7988663Y16715680D01*
X8502119Y16503000D01*
X9057881Y16503000D01*
X9109218Y16524265D01*
X10373000Y15260483D01*
X10373000Y12864852D01*
X10146468Y12713488D01*
X10105184Y12651702D01*
X9109218Y11655736D01*
X9057881Y11677000D01*
X8502119Y11677000D01*
X7988663Y11464320D01*
X7595680Y11071337D01*
X7383000Y10557881D01*
X7383000Y10549099D01*
X7382667Y10548601D01*
X7373000Y10500000D01*
X7373000Y9427000D01*
X5600000Y9427000D01*
X5599598Y9426920D01*
X5075736Y9950782D01*
X5097000Y10002119D01*
X5097000Y10557881D01*
X4884320Y11071337D01*
X4491337Y11464320D01*
X3977881Y11677000D01*
X3422119Y11677000D01*
X2908663Y11464320D01*
X2515680Y11071337D01*
X2303000Y10557881D01*
X2303000Y10002119D01*
X2515680Y9488663D01*
X2908663Y9095680D01*
X3422119Y8883000D01*
X3977881Y8883000D01*
X4029218Y8904264D01*
X5005206Y7928276D01*
X5046490Y7866490D01*
X5291266Y7702936D01*
X5507119Y7660000D01*
X5507122Y7660000D01*
X5579999Y7645504D01*
X5652876Y7660000D01*
X9727119Y7660000D01*
X9800000Y7645503D01*
X9872881Y7660000D01*
X10088734Y7702936D01*
X10333510Y7866490D01*
X10374796Y7928279D01*
X10621517Y8175000D01*
X11652560Y8175000D01*
X11652560Y7525000D01*
X11701843Y7277235D01*
X11842191Y7067191D01*
X12052235Y6926843D01*
X12300000Y6877560D01*
X13900000Y6877560D01*
X14147765Y6926843D01*
X14357809Y7067191D01*
X14498157Y7277235D01*
X14547440Y7525000D01*
X14547440Y8175000D01*
X14498157Y8422765D01*
X14357809Y8632809D01*
X14147765Y8773157D01*
X13900000Y8822440D01*
X12300000Y8822440D01*
X12052235Y8773157D01*
X11842191Y8632809D01*
X11701843Y8422765D01*
X11652560Y8175000D01*
X10621517Y8175000D01*
X13476485Y11029967D01*
X19973000Y11029967D01*
X19973000Y9300000D01*
X19979143Y9269117D01*
X19945503Y9100000D01*
X19960000Y9027119D01*
X19960001Y4906519D01*
X18614938Y3561455D01*
X18447765Y3673157D01*
X18200000Y3722440D01*
X17522925Y3722440D01*
X17500000Y3727000D01*
X16603083Y3727000D01*
X16647440Y3950000D01*
X16647440Y4450000D01*
X16598157Y4697765D01*
X16457809Y4907809D01*
X16340000Y4986527D01*
X16340000Y5668483D01*
X17549078Y6877560D01*
X18650000Y6877560D01*
X18897765Y6926843D01*
X19107809Y7067191D01*
X19248157Y7277235D01*
X19297440Y7525000D01*
X19297440Y8175000D01*
X19248157Y8422765D01*
X19107809Y8632809D01*
X18897765Y8773157D01*
X18650000Y8822440D01*
X17150000Y8822440D01*
X16902235Y8773157D01*
X16692191Y8632809D01*
X16551843Y8422765D01*
X16502560Y8175000D01*
X16502560Y7924078D01*
X15205483Y6627000D01*
X14128445Y6627000D01*
X13900000Y6672440D01*
X12300000Y6672440D01*
X12052235Y6623157D01*
X11842191Y6482809D01*
X11701843Y6272765D01*
X11652560Y6025000D01*
X11652560Y5375000D01*
X11701843Y5127235D01*
X11842191Y4917191D01*
X12052235Y4776843D01*
X12300000Y4727560D01*
X12421752Y4727560D01*
X12401843Y4697765D01*
X12352560Y4450000D01*
X12352560Y3950000D01*
X12401843Y3702235D01*
X12542191Y3492191D01*
X12605334Y3450000D01*
X12542191Y3407809D01*
X12401843Y3197765D01*
X12352560Y2950000D01*
X12352560Y2450000D01*
X12401843Y2202235D01*
X12542191Y1992191D01*
X12752235Y1851843D01*
X13000000Y1802560D01*
X13800000Y1802560D01*
X14047765Y1851843D01*
X14079428Y1873000D01*
X14920572Y1873000D01*
X14952235Y1851843D01*
X15200000Y1802560D01*
X16000000Y1802560D01*
X16247765Y1851843D01*
X16447047Y1985000D01*
X16896882Y1985000D01*
X16942191Y1917191D01*
X17152235Y1776843D01*
X17400000Y1727560D01*
X18200000Y1727560D01*
X18447765Y1776843D01*
X18657809Y1917191D01*
X18703118Y1985000D01*
X18752119Y1985000D01*
X18825000Y1970503D01*
X18897881Y1985000D01*
X19113734Y2027936D01*
X19358510Y2191490D01*
X19399796Y2253279D01*
X21171724Y4025206D01*
X21233510Y4066490D01*
X21397064Y4311266D01*
X21440000Y4527119D01*
X21440000Y4527122D01*
X21454496Y4599999D01*
X21440000Y4672876D01*
X21440000Y8125000D01*
X22052560Y8125000D01*
X22052560Y7475000D01*
X22101843Y7227235D01*
X22242191Y7017191D01*
X22452235Y6876843D01*
X22700000Y6827560D01*
X24300000Y6827560D01*
X24547765Y6876843D01*
X24757809Y7017191D01*
X24898157Y7227235D01*
X24947440Y7475000D01*
X24947440Y8125000D01*
X24898157Y8372765D01*
X24757809Y8582809D01*
X24547765Y8723157D01*
X24300000Y8772440D01*
X22700000Y8772440D01*
X22452235Y8723157D01*
X22242191Y8582809D01*
X22101843Y8372765D01*
X22052560Y8125000D01*
X21440000Y8125000D01*
X21440000Y8793483D01*
X23106518Y10460000D01*
X26076289Y10460000D01*
X26213720Y10322569D01*
X26594126Y10165000D01*
X27005874Y10165000D01*
X27386280Y10322569D01*
X27436711Y10373000D01*
X28466322Y10373000D01*
X28566490Y10223088D01*
X28628279Y10181802D01*
X29498248Y9311832D01*
X29539532Y9250046D01*
X29784308Y9086492D01*
X29873000Y9068850D01*
X29873000Y8138235D01*
X29845503Y8000000D01*
X29860000Y7927119D01*
X29860001Y5156520D01*
X28300923Y3597440D01*
X28278373Y3597440D01*
X28248601Y3617333D01*
X28200000Y3627000D01*
X27103083Y3627000D01*
X27147440Y3850000D01*
X27147440Y4350000D01*
X27098157Y4597765D01*
X26957809Y4807809D01*
X26840000Y4886527D01*
X26840000Y5718483D01*
X27949078Y6827560D01*
X29050000Y6827560D01*
X29297765Y6876843D01*
X29507809Y7017191D01*
X29648157Y7227235D01*
X29697440Y7475000D01*
X29697440Y8125000D01*
X29648157Y8372765D01*
X29507809Y8582809D01*
X29297765Y8723157D01*
X29050000Y8772440D01*
X27550000Y8772440D01*
X27302235Y8723157D01*
X27092191Y8582809D01*
X26951843Y8372765D01*
X26902560Y8125000D01*
X26902560Y7874078D01*
X25628277Y6599794D01*
X25566491Y6558510D01*
X25545437Y6527000D01*
X24616843Y6527000D01*
X24547765Y6573157D01*
X24300000Y6622440D01*
X22700000Y6622440D01*
X22452235Y6573157D01*
X22242191Y6432809D01*
X22101843Y6222765D01*
X22052560Y5975000D01*
X22052560Y5325000D01*
X22101843Y5077235D01*
X22242191Y4867191D01*
X22452235Y4726843D01*
X22700000Y4677560D01*
X22773000Y4677560D01*
X22773000Y4452760D01*
X22752560Y4350000D01*
X22752560Y3850000D01*
X22773000Y3747240D01*
X22773000Y3200000D01*
X22782667Y3151399D01*
X22810173Y3110232D01*
X22801843Y3097765D01*
X22752560Y2850000D01*
X22752560Y2350000D01*
X22801843Y2102235D01*
X22942191Y1892191D01*
X23152235Y1751843D01*
X23400000Y1702560D01*
X23515809Y1702560D01*
X23213720Y1577431D01*
X23076289Y1440000D01*
X14123711Y1440000D01*
X13986280Y1577431D01*
X13605874Y1735000D01*
X13194126Y1735000D01*
X12813720Y1577431D01*
X12522569Y1286280D01*
X12365000Y905874D01*
X12365000Y735000D01*
X735000Y735000D01*
X735000Y2509734D01*
X1445000Y2509734D01*
X1465000Y2409187D01*
X1465000Y2154887D01*
X1562316Y1919945D01*
X1578591Y1838125D01*
X1624938Y1768762D01*
X1729138Y1517201D01*
X1921676Y1324663D01*
X1959028Y1268762D01*
X2014929Y1231410D01*
X2217201Y1029138D01*
X2481479Y919670D01*
X2528391Y888325D01*
X2583727Y877318D01*
X2854887Y765000D01*
X3148389Y765000D01*
X3200000Y754734D01*
X3251611Y765000D01*
X3545113Y765000D01*
X3816273Y877318D01*
X3871609Y888325D01*
X3918521Y919670D01*
X4182799Y1029138D01*
X4385071Y1231410D01*
X4440972Y1268762D01*
X4478324Y1324663D01*
X4670862Y1517201D01*
X4775062Y1768762D01*
X4821409Y1838125D01*
X4837684Y1919945D01*
X4935000Y2154887D01*
X4935000Y2409187D01*
X4955000Y2509734D01*
X4935000Y2610281D01*
X4935000Y2845113D01*
X4845134Y3062069D01*
X4821409Y3181343D01*
X4753846Y3282458D01*
X4670862Y3482799D01*
X4517526Y3636135D01*
X4440972Y3750706D01*
X4326401Y3827260D01*
X4182799Y3970862D01*
X3995176Y4048578D01*
X3871609Y4131143D01*
X3725851Y4160136D01*
X3545113Y4235000D01*
X3349483Y4235000D01*
X3200000Y4264734D01*
X3050517Y4235000D01*
X2854887Y4235000D01*
X2674149Y4160136D01*
X2528391Y4131143D01*
X2404824Y4048578D01*
X2217201Y3970862D01*
X2073599Y3827260D01*
X1959028Y3750706D01*
X1882474Y3636135D01*
X1729138Y3482799D01*
X1646154Y3282458D01*
X1578591Y3181343D01*
X1554866Y3062069D01*
X1465000Y2845113D01*
X1465000Y2610281D01*
X1445000Y2509734D01*
X735000Y2509734D01*
X735000Y16573000D01*
X2640612Y16573000D01*
X2690235Y16539843D01*
X2938000Y16490560D01*
X4462000Y16490560D01*
X4709765Y16539843D01*
X4919809Y16680191D01*
X5060157Y16890235D01*
X5109440Y17138000D01*
X5109440Y17302298D01*
X5205510Y17366490D01*
X5246796Y17428279D01*
X6578518Y18760000D01*
X7664343Y18760000D01*
X7595680Y18691337D01*
G36*
X39860001Y5756519D02*
X37900923Y3797440D01*
X37500000Y3797440D01*
X37252235Y3748157D01*
X37042191Y3607809D01*
X36996882Y3540000D01*
X36509632Y3540000D01*
X36494666Y3550000D01*
X36557809Y3592191D01*
X36698157Y3802235D01*
X36747440Y4050000D01*
X36747440Y4550000D01*
X36698157Y4797765D01*
X36557809Y5007809D01*
X36440000Y5086527D01*
X36440000Y5768483D01*
X37549078Y6877560D01*
X38650000Y6877560D01*
X38897765Y6926843D01*
X39107809Y7067191D01*
X39248157Y7277235D01*
X39297440Y7525000D01*
X39297440Y8175000D01*
X39248157Y8422765D01*
X39107809Y8632809D01*
X38897765Y8773157D01*
X38650000Y8822440D01*
X37150000Y8822440D01*
X36902235Y8773157D01*
X36692191Y8632809D01*
X36551843Y8422765D01*
X36502560Y8175000D01*
X36502560Y7924078D01*
X35228277Y6649794D01*
X35194163Y6627000D01*
X34128445Y6627000D01*
X33900000Y6672440D01*
X32300000Y6672440D01*
X32052235Y6623157D01*
X31842191Y6482809D01*
X31701843Y6272765D01*
X31652560Y6025000D01*
X31652560Y5375000D01*
X31701843Y5127235D01*
X31842191Y4917191D01*
X32052235Y4776843D01*
X32300000Y4727560D01*
X32487879Y4727560D01*
X32452560Y4550000D01*
X32452560Y4050000D01*
X32501843Y3802235D01*
X32642191Y3592191D01*
X32705334Y3550000D01*
X32642191Y3507809D01*
X32501843Y3297765D01*
X32452560Y3050000D01*
X32452560Y2550000D01*
X32501843Y2302235D01*
X32642191Y2092191D01*
X32852235Y1951843D01*
X33100000Y1902560D01*
X33900000Y1902560D01*
X34147765Y1951843D01*
X34179428Y1973000D01*
X35020572Y1973000D01*
X35052235Y1951843D01*
X35300000Y1902560D01*
X36100000Y1902560D01*
X36347765Y1951843D01*
X36509632Y2060000D01*
X36996882Y2060000D01*
X37042191Y1992191D01*
X37252235Y1851843D01*
X37500000Y1802560D01*
X38300000Y1802560D01*
X38547765Y1851843D01*
X38757809Y1992191D01*
X38898157Y2202235D01*
X38947440Y2450000D01*
X38947440Y2750923D01*
X41071724Y4875206D01*
X41133510Y4916490D01*
X41297064Y5161266D01*
X41340000Y5377119D01*
X41354497Y5450000D01*
X41340000Y5522881D01*
X41340000Y6973000D01*
X43900000Y6973000D01*
X43948601Y6982667D01*
X43961918Y6991565D01*
X45473000Y5480483D01*
X45473000Y3781182D01*
X45372765Y3848157D01*
X45125000Y3897440D01*
X44375000Y3897440D01*
X44127235Y3848157D01*
X43917191Y3707809D01*
X43776843Y3497765D01*
X43727560Y3250000D01*
X43727560Y2750000D01*
X43749440Y2640000D01*
X42323711Y2640000D01*
X42186280Y2777431D01*
X41805874Y2935000D01*
X41394126Y2935000D01*
X41013720Y2777431D01*
X40722569Y2486280D01*
X40565000Y2105874D01*
X40565000Y1694126D01*
X40573000Y1674812D01*
X40573000Y735000D01*
X34535000Y735000D01*
X34535000Y905874D01*
X34377431Y1286280D01*
X34086280Y1577431D01*
X33705874Y1735000D01*
X33294126Y1735000D01*
X32913720Y1577431D01*
X32776289Y1440000D01*
X24523711Y1440000D01*
X24386280Y1577431D01*
X24084191Y1702560D01*
X24200000Y1702560D01*
X24447765Y1751843D01*
X24479428Y1773000D01*
X25420572Y1773000D01*
X25452235Y1751843D01*
X25700000Y1702560D01*
X26500000Y1702560D01*
X26747765Y1751843D01*
X26909632Y1860000D01*
X27396882Y1860000D01*
X27442191Y1792191D01*
X27652235Y1651843D01*
X27900000Y1602560D01*
X28700000Y1602560D01*
X28947765Y1651843D01*
X29157809Y1792191D01*
X29298157Y2002235D01*
X29347440Y2250000D01*
X29347440Y2550923D01*
X31071727Y4275208D01*
X31133510Y4316490D01*
X31174792Y4378273D01*
X31174794Y4378275D01*
X31260052Y4505874D01*
X31297064Y4561266D01*
X31340000Y4777119D01*
X31354497Y4850000D01*
X31340000Y4922881D01*
X31340000Y6873000D01*
X32500000Y6873000D01*
X32522925Y6877560D01*
X33900000Y6877560D01*
X34147765Y6926843D01*
X34357809Y7067191D01*
X34498157Y7277235D01*
X34547440Y7525000D01*
X34547440Y8175000D01*
X34527000Y8277760D01*
X34527000Y9460000D01*
X39575807Y9460000D01*
X39648688Y9445503D01*
X39721569Y9460000D01*
X39860000Y9487536D01*
X39860001Y5756519D01*
X39860001Y5756519D01*
G37*
X39860001Y5756519D02*
X37900923Y3797440D01*
X37500000Y3797440D01*
X37252235Y3748157D01*
X37042191Y3607809D01*
X36996882Y3540000D01*
X36509632Y3540000D01*
X36494666Y3550000D01*
X36557809Y3592191D01*
X36698157Y3802235D01*
X36747440Y4050000D01*
X36747440Y4550000D01*
X36698157Y4797765D01*
X36557809Y5007809D01*
X36440000Y5086527D01*
X36440000Y5768483D01*
X37549078Y6877560D01*
X38650000Y6877560D01*
X38897765Y6926843D01*
X39107809Y7067191D01*
X39248157Y7277235D01*
X39297440Y7525000D01*
X39297440Y8175000D01*
X39248157Y8422765D01*
X39107809Y8632809D01*
X38897765Y8773157D01*
X38650000Y8822440D01*
X37150000Y8822440D01*
X36902235Y8773157D01*
X36692191Y8632809D01*
X36551843Y8422765D01*
X36502560Y8175000D01*
X36502560Y7924078D01*
X35228277Y6649794D01*
X35194163Y6627000D01*
X34128445Y6627000D01*
X33900000Y6672440D01*
X32300000Y6672440D01*
X32052235Y6623157D01*
X31842191Y6482809D01*
X31701843Y6272765D01*
X31652560Y6025000D01*
X31652560Y5375000D01*
X31701843Y5127235D01*
X31842191Y4917191D01*
X32052235Y4776843D01*
X32300000Y4727560D01*
X32487879Y4727560D01*
X32452560Y4550000D01*
X32452560Y4050000D01*
X32501843Y3802235D01*
X32642191Y3592191D01*
X32705334Y3550000D01*
X32642191Y3507809D01*
X32501843Y3297765D01*
X32452560Y3050000D01*
X32452560Y2550000D01*
X32501843Y2302235D01*
X32642191Y2092191D01*
X32852235Y1951843D01*
X33100000Y1902560D01*
X33900000Y1902560D01*
X34147765Y1951843D01*
X34179428Y1973000D01*
X35020572Y1973000D01*
X35052235Y1951843D01*
X35300000Y1902560D01*
X36100000Y1902560D01*
X36347765Y1951843D01*
X36509632Y2060000D01*
X36996882Y2060000D01*
X37042191Y1992191D01*
X37252235Y1851843D01*
X37500000Y1802560D01*
X38300000Y1802560D01*
X38547765Y1851843D01*
X38757809Y1992191D01*
X38898157Y2202235D01*
X38947440Y2450000D01*
X38947440Y2750923D01*
X41071724Y4875206D01*
X41133510Y4916490D01*
X41297064Y5161266D01*
X41340000Y5377119D01*
X41354497Y5450000D01*
X41340000Y5522881D01*
X41340000Y6973000D01*
X43900000Y6973000D01*
X43948601Y6982667D01*
X43961918Y6991565D01*
X45473000Y5480483D01*
X45473000Y3781182D01*
X45372765Y3848157D01*
X45125000Y3897440D01*
X44375000Y3897440D01*
X44127235Y3848157D01*
X43917191Y3707809D01*
X43776843Y3497765D01*
X43727560Y3250000D01*
X43727560Y2750000D01*
X43749440Y2640000D01*
X42323711Y2640000D01*
X42186280Y2777431D01*
X41805874Y2935000D01*
X41394126Y2935000D01*
X41013720Y2777431D01*
X40722569Y2486280D01*
X40565000Y2105874D01*
X40565000Y1694126D01*
X40573000Y1674812D01*
X40573000Y735000D01*
X34535000Y735000D01*
X34535000Y905874D01*
X34377431Y1286280D01*
X34086280Y1577431D01*
X33705874Y1735000D01*
X33294126Y1735000D01*
X32913720Y1577431D01*
X32776289Y1440000D01*
X24523711Y1440000D01*
X24386280Y1577431D01*
X24084191Y1702560D01*
X24200000Y1702560D01*
X24447765Y1751843D01*
X24479428Y1773000D01*
X25420572Y1773000D01*
X25452235Y1751843D01*
X25700000Y1702560D01*
X26500000Y1702560D01*
X26747765Y1751843D01*
X26909632Y1860000D01*
X27396882Y1860000D01*
X27442191Y1792191D01*
X27652235Y1651843D01*
X27900000Y1602560D01*
X28700000Y1602560D01*
X28947765Y1651843D01*
X29157809Y1792191D01*
X29298157Y2002235D01*
X29347440Y2250000D01*
X29347440Y2550923D01*
X31071727Y4275208D01*
X31133510Y4316490D01*
X31174792Y4378273D01*
X31174794Y4378275D01*
X31260052Y4505874D01*
X31297064Y4561266D01*
X31340000Y4777119D01*
X31354497Y4850000D01*
X31340000Y4922881D01*
X31340000Y6873000D01*
X32500000Y6873000D01*
X32522925Y6877560D01*
X33900000Y6877560D01*
X34147765Y6926843D01*
X34357809Y7067191D01*
X34498157Y7277235D01*
X34547440Y7525000D01*
X34547440Y8175000D01*
X34527000Y8277760D01*
X34527000Y9460000D01*
X39575807Y9460000D01*
X39648688Y9445503D01*
X39721569Y9460000D01*
X39860000Y9487536D01*
X39860001Y5756519D01*
G36*
X90265000Y735000D02*
X75927000Y735000D01*
X75927000Y2509734D01*
X86045000Y2509734D01*
X86065000Y2409187D01*
X86065000Y2154887D01*
X86162316Y1919945D01*
X86178591Y1838125D01*
X86224938Y1768762D01*
X86329138Y1517201D01*
X86521676Y1324663D01*
X86559028Y1268762D01*
X86614929Y1231410D01*
X86817201Y1029138D01*
X87081479Y919670D01*
X87128391Y888325D01*
X87183727Y877318D01*
X87454887Y765000D01*
X87748389Y765000D01*
X87800000Y754734D01*
X87851611Y765000D01*
X88145113Y765000D01*
X88416273Y877318D01*
X88471609Y888325D01*
X88518521Y919670D01*
X88782799Y1029138D01*
X88985071Y1231410D01*
X89040972Y1268762D01*
X89078324Y1324663D01*
X89270862Y1517201D01*
X89375062Y1768762D01*
X89421409Y1838125D01*
X89437684Y1919945D01*
X89535000Y2154887D01*
X89535000Y2409187D01*
X89555000Y2509734D01*
X89535000Y2610281D01*
X89535000Y2845113D01*
X89445134Y3062069D01*
X89421409Y3181343D01*
X89353846Y3282458D01*
X89270862Y3482799D01*
X89117526Y3636135D01*
X89040972Y3750706D01*
X88926401Y3827260D01*
X88782799Y3970862D01*
X88595176Y4048578D01*
X88471609Y4131143D01*
X88325851Y4160136D01*
X88145113Y4235000D01*
X87949483Y4235000D01*
X87800000Y4264734D01*
X87650517Y4235000D01*
X87454887Y4235000D01*
X87274149Y4160136D01*
X87128391Y4131143D01*
X87004824Y4048578D01*
X86817201Y3970862D01*
X86673599Y3827260D01*
X86559028Y3750706D01*
X86482474Y3636135D01*
X86329138Y3482799D01*
X86246154Y3282458D01*
X86178591Y3181343D01*
X86154866Y3062069D01*
X86065000Y2845113D01*
X86065000Y2610281D01*
X86045000Y2509734D01*
X75927000Y2509734D01*
X75927000Y2700000D01*
X75917333Y2748601D01*
X75889803Y2789803D01*
X75848601Y2817333D01*
X75835978Y2819844D01*
X75897064Y2911266D01*
X75940000Y3127119D01*
X75940000Y3127122D01*
X75954496Y3199999D01*
X75940000Y3272876D01*
X75940000Y7143483D01*
X75987440Y7190923D01*
X76117763Y7165000D01*
X79052560Y7165000D01*
X79052560Y6250000D01*
X79101843Y6002235D01*
X79242191Y5792191D01*
X79452235Y5651843D01*
X79700000Y5602560D01*
X81300000Y5602560D01*
X81547765Y5651843D01*
X81757809Y5792191D01*
X81898157Y6002235D01*
X81947440Y6250000D01*
X81947440Y7165000D01*
X85171289Y7165000D01*
X85213720Y7122569D01*
X85594126Y6965000D01*
X86005874Y6965000D01*
X86386280Y7122569D01*
X86436711Y7173000D01*
X87459740Y7173000D01*
X87562500Y7152560D01*
X89362500Y7152560D01*
X89610265Y7201843D01*
X89820309Y7342191D01*
X89960657Y7552235D01*
X90009940Y7800000D01*
X90009940Y9000000D01*
X89960657Y9247765D01*
X89820309Y9457809D01*
X89610265Y9598157D01*
X89362500Y9647440D01*
X87562500Y9647440D01*
X87359940Y9607149D01*
X87359940Y10000000D01*
X87320158Y10200000D01*
X87359940Y10400000D01*
X87359940Y11000000D01*
X87320158Y11200000D01*
X87359940Y11400000D01*
X87359940Y12000000D01*
X87310657Y12247765D01*
X87170309Y12457809D01*
X86960265Y12598157D01*
X86712500Y12647440D01*
X85327000Y12647440D01*
X85327000Y12752560D01*
X86712500Y12752560D01*
X86960265Y12801843D01*
X87170309Y12942191D01*
X87310657Y13152235D01*
X87359940Y13400000D01*
X87359940Y14000000D01*
X87320158Y14200000D01*
X87359940Y14400000D01*
X87359940Y14792851D01*
X87562500Y14752560D01*
X89362500Y14752560D01*
X89610265Y14801843D01*
X89820309Y14942191D01*
X89960657Y15152235D01*
X90009940Y15400000D01*
X90009940Y16600000D01*
X89960657Y16847765D01*
X89820309Y17057809D01*
X89610265Y17198157D01*
X89362500Y17247440D01*
X87562500Y17247440D01*
X87459740Y17227000D01*
X86907196Y17227000D01*
X86935000Y17294126D01*
X86935000Y17705874D01*
X86777431Y18086280D01*
X86486280Y18377431D01*
X86105874Y18535000D01*
X85911518Y18535000D01*
X85181518Y19265000D01*
X90265001Y19265000D01*
X90265000Y735000D01*
X90265000Y735000D01*
G37*
X90265000Y735000D02*
X75927000Y735000D01*
X75927000Y2509734D01*
X86045000Y2509734D01*
X86065000Y2409187D01*
X86065000Y2154887D01*
X86162316Y1919945D01*
X86178591Y1838125D01*
X86224938Y1768762D01*
X86329138Y1517201D01*
X86521676Y1324663D01*
X86559028Y1268762D01*
X86614929Y1231410D01*
X86817201Y1029138D01*
X87081479Y919670D01*
X87128391Y888325D01*
X87183727Y877318D01*
X87454887Y765000D01*
X87748389Y765000D01*
X87800000Y754734D01*
X87851611Y765000D01*
X88145113Y765000D01*
X88416273Y877318D01*
X88471609Y888325D01*
X88518521Y919670D01*
X88782799Y1029138D01*
X88985071Y1231410D01*
X89040972Y1268762D01*
X89078324Y1324663D01*
X89270862Y1517201D01*
X89375062Y1768762D01*
X89421409Y1838125D01*
X89437684Y1919945D01*
X89535000Y2154887D01*
X89535000Y2409187D01*
X89555000Y2509734D01*
X89535000Y2610281D01*
X89535000Y2845113D01*
X89445134Y3062069D01*
X89421409Y3181343D01*
X89353846Y3282458D01*
X89270862Y3482799D01*
X89117526Y3636135D01*
X89040972Y3750706D01*
X88926401Y3827260D01*
X88782799Y3970862D01*
X88595176Y4048578D01*
X88471609Y4131143D01*
X88325851Y4160136D01*
X88145113Y4235000D01*
X87949483Y4235000D01*
X87800000Y4264734D01*
X87650517Y4235000D01*
X87454887Y4235000D01*
X87274149Y4160136D01*
X87128391Y4131143D01*
X87004824Y4048578D01*
X86817201Y3970862D01*
X86673599Y3827260D01*
X86559028Y3750706D01*
X86482474Y3636135D01*
X86329138Y3482799D01*
X86246154Y3282458D01*
X86178591Y3181343D01*
X86154866Y3062069D01*
X86065000Y2845113D01*
X86065000Y2610281D01*
X86045000Y2509734D01*
X75927000Y2509734D01*
X75927000Y2700000D01*
X75917333Y2748601D01*
X75889803Y2789803D01*
X75848601Y2817333D01*
X75835978Y2819844D01*
X75897064Y2911266D01*
X75940000Y3127119D01*
X75940000Y3127122D01*
X75954496Y3199999D01*
X75940000Y3272876D01*
X75940000Y7143483D01*
X75987440Y7190923D01*
X76117763Y7165000D01*
X79052560Y7165000D01*
X79052560Y6250000D01*
X79101843Y6002235D01*
X79242191Y5792191D01*
X79452235Y5651843D01*
X79700000Y5602560D01*
X81300000Y5602560D01*
X81547765Y5651843D01*
X81757809Y5792191D01*
X81898157Y6002235D01*
X81947440Y6250000D01*
X81947440Y7165000D01*
X85171289Y7165000D01*
X85213720Y7122569D01*
X85594126Y6965000D01*
X86005874Y6965000D01*
X86386280Y7122569D01*
X86436711Y7173000D01*
X87459740Y7173000D01*
X87562500Y7152560D01*
X89362500Y7152560D01*
X89610265Y7201843D01*
X89820309Y7342191D01*
X89960657Y7552235D01*
X90009940Y7800000D01*
X90009940Y9000000D01*
X89960657Y9247765D01*
X89820309Y9457809D01*
X89610265Y9598157D01*
X89362500Y9647440D01*
X87562500Y9647440D01*
X87359940Y9607149D01*
X87359940Y10000000D01*
X87320158Y10200000D01*
X87359940Y10400000D01*
X87359940Y11000000D01*
X87320158Y11200000D01*
X87359940Y11400000D01*
X87359940Y12000000D01*
X87310657Y12247765D01*
X87170309Y12457809D01*
X86960265Y12598157D01*
X86712500Y12647440D01*
X85327000Y12647440D01*
X85327000Y12752560D01*
X86712500Y12752560D01*
X86960265Y12801843D01*
X87170309Y12942191D01*
X87310657Y13152235D01*
X87359940Y13400000D01*
X87359940Y14000000D01*
X87320158Y14200000D01*
X87359940Y14400000D01*
X87359940Y14792851D01*
X87562500Y14752560D01*
X89362500Y14752560D01*
X89610265Y14801843D01*
X89820309Y14942191D01*
X89960657Y15152235D01*
X90009940Y15400000D01*
X90009940Y16600000D01*
X89960657Y16847765D01*
X89820309Y17057809D01*
X89610265Y17198157D01*
X89362500Y17247440D01*
X87562500Y17247440D01*
X87459740Y17227000D01*
X86907196Y17227000D01*
X86935000Y17294126D01*
X86935000Y17705874D01*
X86777431Y18086280D01*
X86486280Y18377431D01*
X86105874Y18535000D01*
X85911518Y18535000D01*
X85181518Y19265000D01*
X90265001Y19265000D01*
X90265000Y735000D01*
G36*
X37165004Y14250864D02*
X37165004Y13839116D01*
X37322573Y13458710D01*
X37452462Y13328821D01*
X37408695Y13285054D01*
X32206978Y13285054D01*
X32335000Y13594126D01*
X32335000Y13788483D01*
X33056518Y14510000D01*
X37272341Y14510000D01*
X37165004Y14250864D01*
X37165004Y14250864D01*
G37*
X37165004Y14250864D02*
X37165004Y13839116D01*
X37322573Y13458710D01*
X37452462Y13328821D01*
X37408695Y13285054D01*
X32206978Y13285054D01*
X32335000Y13594126D01*
X32335000Y13788483D01*
X33056518Y14510000D01*
X37272341Y14510000D01*
X37165004Y14250864D01*
G36*
X11625000Y21552560D02*
X12300922Y21552560D01*
X12325205Y21528277D01*
X12366490Y21466490D01*
X12611266Y21302936D01*
X12827119Y21260000D01*
X12900000Y21245503D01*
X12972881Y21260000D01*
X13476289Y21260000D01*
X13613720Y21122569D01*
X13965000Y20977064D01*
X13965000Y20794126D01*
X14122569Y20413720D01*
X14413720Y20122569D01*
X14794126Y19965000D01*
X15205874Y19965000D01*
X15586280Y20122569D01*
X15723711Y20260000D01*
X17773000Y20260000D01*
X17773000Y19925188D01*
X17765000Y19905874D01*
X17765000Y19494126D01*
X17773000Y19474812D01*
X17773000Y17500000D01*
X17782667Y17451399D01*
X17810197Y17410197D01*
X17851399Y17382667D01*
X17900000Y17373000D01*
X18774812Y17373000D01*
X18794126Y17365000D01*
X19205874Y17365000D01*
X19225188Y17373000D01*
X21904673Y17373000D01*
X22042191Y17167191D01*
X22252235Y17026843D01*
X22500000Y16977560D01*
X24100000Y16977560D01*
X24347765Y17026843D01*
X24557809Y17167191D01*
X24695327Y17373000D01*
X25462140Y17373000D01*
X25466490Y17366490D01*
X25528279Y17325204D01*
X25833058Y17020425D01*
X25800000Y17027000D01*
X25700000Y17027000D01*
X25651399Y17017333D01*
X25610197Y16989803D01*
X25582667Y16948601D01*
X25573000Y16900000D01*
X25573000Y15300000D01*
X25582667Y15251399D01*
X25587427Y15244275D01*
X24083152Y13740000D01*
X15806518Y13740000D01*
X14440644Y15105874D01*
X17890000Y15105874D01*
X17890000Y14694126D01*
X17927560Y14603448D01*
X17927560Y14500000D01*
X17976843Y14252235D01*
X18117191Y14042191D01*
X18327235Y13901843D01*
X18575000Y13852560D01*
X19275000Y13852560D01*
X19522765Y13901843D01*
X19732809Y14042191D01*
X19873157Y14252235D01*
X19922440Y14500000D01*
X19922440Y14603448D01*
X19960000Y14694126D01*
X19960000Y15105874D01*
X19922440Y15196552D01*
X19922440Y15300000D01*
X19873157Y15547765D01*
X19732809Y15757809D01*
X19522765Y15898157D01*
X19275000Y15947440D01*
X18575000Y15947440D01*
X18327235Y15898157D01*
X18117191Y15757809D01*
X17976843Y15547765D01*
X17927560Y15300000D01*
X17927560Y15196552D01*
X17890000Y15105874D01*
X14440644Y15105874D01*
X11427000Y18119517D01*
X11427000Y20600000D01*
X11422440Y20622925D01*
X11422440Y21592851D01*
X11625000Y21552560D01*
X11625000Y21552560D01*
G37*
X11625000Y21552560D02*
X12300922Y21552560D01*
X12325205Y21528277D01*
X12366490Y21466490D01*
X12611266Y21302936D01*
X12827119Y21260000D01*
X12900000Y21245503D01*
X12972881Y21260000D01*
X13476289Y21260000D01*
X13613720Y21122569D01*
X13965000Y20977064D01*
X13965000Y20794126D01*
X14122569Y20413720D01*
X14413720Y20122569D01*
X14794126Y19965000D01*
X15205874Y19965000D01*
X15586280Y20122569D01*
X15723711Y20260000D01*
X17773000Y20260000D01*
X17773000Y19925188D01*
X17765000Y19905874D01*
X17765000Y19494126D01*
X17773000Y19474812D01*
X17773000Y17500000D01*
X17782667Y17451399D01*
X17810197Y17410197D01*
X17851399Y17382667D01*
X17900000Y17373000D01*
X18774812Y17373000D01*
X18794126Y17365000D01*
X19205874Y17365000D01*
X19225188Y17373000D01*
X21904673Y17373000D01*
X22042191Y17167191D01*
X22252235Y17026843D01*
X22500000Y16977560D01*
X24100000Y16977560D01*
X24347765Y17026843D01*
X24557809Y17167191D01*
X24695327Y17373000D01*
X25462140Y17373000D01*
X25466490Y17366490D01*
X25528279Y17325204D01*
X25833058Y17020425D01*
X25800000Y17027000D01*
X25700000Y17027000D01*
X25651399Y17017333D01*
X25610197Y16989803D01*
X25582667Y16948601D01*
X25573000Y16900000D01*
X25573000Y15300000D01*
X25582667Y15251399D01*
X25587427Y15244275D01*
X24083152Y13740000D01*
X15806518Y13740000D01*
X14440644Y15105874D01*
X17890000Y15105874D01*
X17890000Y14694126D01*
X17927560Y14603448D01*
X17927560Y14500000D01*
X17976843Y14252235D01*
X18117191Y14042191D01*
X18327235Y13901843D01*
X18575000Y13852560D01*
X19275000Y13852560D01*
X19522765Y13901843D01*
X19732809Y14042191D01*
X19873157Y14252235D01*
X19922440Y14500000D01*
X19922440Y14603448D01*
X19960000Y14694126D01*
X19960000Y15105874D01*
X19922440Y15196552D01*
X19922440Y15300000D01*
X19873157Y15547765D01*
X19732809Y15757809D01*
X19522765Y15898157D01*
X19275000Y15947440D01*
X18575000Y15947440D01*
X18327235Y15898157D01*
X18117191Y15757809D01*
X17976843Y15547765D01*
X17927560Y15300000D01*
X17927560Y15196552D01*
X17890000Y15105874D01*
X14440644Y15105874D01*
X11427000Y18119517D01*
X11427000Y20600000D01*
X11422440Y20622925D01*
X11422440Y21592851D01*
X11625000Y21552560D01*
G36*
X30573000Y20380483D02*
X30573000Y19982920D01*
X30500000Y19997440D01*
X29700000Y19997440D01*
X29452235Y19948157D01*
X29242191Y19807809D01*
X29101843Y19597765D01*
X29052560Y19350000D01*
X29052560Y18927000D01*
X26927000Y18927000D01*
X26927000Y20560000D01*
X30393483Y20560000D01*
X30573000Y20380483D01*
X30573000Y20380483D01*
G37*
X30573000Y20380483D02*
X30573000Y19982920D01*
X30500000Y19997440D01*
X29700000Y19997440D01*
X29452235Y19948157D01*
X29242191Y19807809D01*
X29101843Y19597765D01*
X29052560Y19350000D01*
X29052560Y18927000D01*
X26927000Y18927000D01*
X26927000Y20560000D01*
X30393483Y20560000D01*
X30573000Y20380483D01*
G36*
X75765000Y22794134D02*
X75922569Y22413728D01*
X76213720Y22122577D01*
X76594126Y21965008D01*
X77005874Y21965008D01*
X77384690Y22121918D01*
X77414735Y22101843D01*
X77662500Y22052560D01*
X79212500Y22052560D01*
X79460265Y22101843D01*
X79473000Y22110352D01*
X79473000Y21560721D01*
X79464343Y21547765D01*
X79415060Y21300000D01*
X79415060Y20100000D01*
X79464343Y19852235D01*
X79604691Y19642191D01*
X79814735Y19501843D01*
X80062500Y19452560D01*
X81862500Y19452560D01*
X81965260Y19473000D01*
X82880483Y19473000D01*
X83073000Y19280483D01*
X83073000Y19027000D01*
X79251860Y19027000D01*
X75557139Y22721721D01*
X75515853Y22783510D01*
X75381922Y22873000D01*
X75765000Y22873000D01*
X75765000Y22794134D01*
X75765000Y22794134D01*
G37*
X75765000Y22794134D02*
X75922569Y22413728D01*
X76213720Y22122577D01*
X76594126Y21965008D01*
X77005874Y21965008D01*
X77384690Y22121918D01*
X77414735Y22101843D01*
X77662500Y22052560D01*
X79212500Y22052560D01*
X79460265Y22101843D01*
X79473000Y22110352D01*
X79473000Y21560721D01*
X79464343Y21547765D01*
X79415060Y21300000D01*
X79415060Y20100000D01*
X79464343Y19852235D01*
X79604691Y19642191D01*
X79814735Y19501843D01*
X80062500Y19452560D01*
X81862500Y19452560D01*
X81965260Y19473000D01*
X82880483Y19473000D01*
X83073000Y19280483D01*
X83073000Y19027000D01*
X79251860Y19027000D01*
X75557139Y22721721D01*
X75515853Y22783510D01*
X75381922Y22873000D01*
X75765000Y22873000D01*
X75765000Y22794134D01*
G36*
X8975000Y25552560D02*
X10775000Y25552560D01*
X10873000Y25572053D01*
X10873000Y23000000D01*
X10882667Y22951399D01*
X10910197Y22910197D01*
X10951399Y22882667D01*
X10992382Y22874515D01*
X10977560Y22800000D01*
X10977560Y22407149D01*
X10775000Y22447440D01*
X8975000Y22447440D01*
X8735000Y22399702D01*
X8735000Y25600298D01*
X8975000Y25552560D01*
X8975000Y25552560D01*
G37*
X8975000Y25552560D02*
X10775000Y25552560D01*
X10873000Y25572053D01*
X10873000Y23000000D01*
X10882667Y22951399D01*
X10910197Y22910197D01*
X10951399Y22882667D01*
X10992382Y22874515D01*
X10977560Y22800000D01*
X10977560Y22407149D01*
X10775000Y22447440D01*
X8975000Y22447440D01*
X8735000Y22399702D01*
X8735000Y25600298D01*
X8975000Y25552560D01*
G36*
X71802560Y25300000D02*
X71851843Y25052235D01*
X71992191Y24842191D01*
X72202235Y24701843D01*
X72450000Y24652560D01*
X72950000Y24652560D01*
X73173000Y24696917D01*
X73173000Y24202760D01*
X73152560Y24100000D01*
X73152560Y23300000D01*
X73201843Y23052235D01*
X73243427Y22990000D01*
X71456573Y22990000D01*
X71498157Y23052235D01*
X71547440Y23300000D01*
X71547440Y24100000D01*
X71498157Y24347765D01*
X71357809Y24557809D01*
X71240000Y24636527D01*
X71240000Y24890368D01*
X71348157Y25052235D01*
X71397440Y25300000D01*
X71397440Y25467476D01*
X71400864Y25467476D01*
X71781270Y25625045D01*
X71802560Y25646335D01*
X71802560Y25300000D01*
X71802560Y25300000D01*
G37*
X71802560Y25300000D02*
X71851843Y25052235D01*
X71992191Y24842191D01*
X72202235Y24701843D01*
X72450000Y24652560D01*
X72950000Y24652560D01*
X73173000Y24696917D01*
X73173000Y24202760D01*
X73152560Y24100000D01*
X73152560Y23300000D01*
X73201843Y23052235D01*
X73243427Y22990000D01*
X71456573Y22990000D01*
X71498157Y23052235D01*
X71547440Y23300000D01*
X71547440Y24100000D01*
X71498157Y24347765D01*
X71357809Y24557809D01*
X71240000Y24636527D01*
X71240000Y24890368D01*
X71348157Y25052235D01*
X71397440Y25300000D01*
X71397440Y25467476D01*
X71400864Y25467476D01*
X71781270Y25625045D01*
X71802560Y25646335D01*
X71802560Y25300000D01*
G36*
X55652235Y25551843D02*
X55900000Y25502560D01*
X56700000Y25502560D01*
X56947765Y25551843D01*
X56979428Y25573000D01*
X58080482Y25573000D01*
X58425206Y25228276D01*
X58466490Y25166490D01*
X58711266Y25002936D01*
X58927119Y24960000D01*
X58927122Y24960000D01*
X58999999Y24945504D01*
X59072876Y24960000D01*
X64827119Y24960000D01*
X64900000Y24945503D01*
X64972881Y24960000D01*
X65038236Y24973000D01*
X68204787Y24973000D01*
X68292191Y24842191D01*
X68502235Y24701843D01*
X68750000Y24652560D01*
X68964522Y24652560D01*
X69000000Y24645503D01*
X69035478Y24652560D01*
X69250000Y24652560D01*
X69473000Y24696917D01*
X69473000Y24202760D01*
X69452560Y24100000D01*
X69452560Y23300000D01*
X69501843Y23052235D01*
X69543427Y22990000D01*
X55727000Y22990000D01*
X55727000Y23579822D01*
X55735000Y23599136D01*
X55735000Y24010884D01*
X55727000Y24030198D01*
X55727000Y24100000D01*
X55717333Y24148601D01*
X55689803Y24189803D01*
X55649825Y24216515D01*
X55577431Y24391290D01*
X55535471Y24433250D01*
X55548157Y24452235D01*
X55597440Y24700000D01*
X55597440Y25500000D01*
X55577148Y25602015D01*
X55652235Y25551843D01*
X55652235Y25551843D01*
G37*
X55652235Y25551843D02*
X55900000Y25502560D01*
X56700000Y25502560D01*
X56947765Y25551843D01*
X56979428Y25573000D01*
X58080482Y25573000D01*
X58425206Y25228276D01*
X58466490Y25166490D01*
X58711266Y25002936D01*
X58927119Y24960000D01*
X58927122Y24960000D01*
X58999999Y24945504D01*
X59072876Y24960000D01*
X64827119Y24960000D01*
X64900000Y24945503D01*
X64972881Y24960000D01*
X65038236Y24973000D01*
X68204787Y24973000D01*
X68292191Y24842191D01*
X68502235Y24701843D01*
X68750000Y24652560D01*
X68964522Y24652560D01*
X69000000Y24645503D01*
X69035478Y24652560D01*
X69250000Y24652560D01*
X69473000Y24696917D01*
X69473000Y24202760D01*
X69452560Y24100000D01*
X69452560Y23300000D01*
X69501843Y23052235D01*
X69543427Y22990000D01*
X55727000Y22990000D01*
X55727000Y23579822D01*
X55735000Y23599136D01*
X55735000Y24010884D01*
X55727000Y24030198D01*
X55727000Y24100000D01*
X55717333Y24148601D01*
X55689803Y24189803D01*
X55649825Y24216515D01*
X55577431Y24391290D01*
X55535471Y24433250D01*
X55548157Y24452235D01*
X55597440Y24700000D01*
X55597440Y25500000D01*
X55577148Y25602015D01*
X55652235Y25551843D01*
G36*
X13973000Y31727760D02*
X13952560Y31625000D01*
X13952560Y29825000D01*
X14001843Y29577235D01*
X14142191Y29367191D01*
X14352235Y29226843D01*
X14600000Y29177560D01*
X15592851Y29177560D01*
X15552560Y28975000D01*
X15552560Y27425000D01*
X15601843Y27177235D01*
X15742191Y26967191D01*
X15952235Y26826843D01*
X16200000Y26777560D01*
X16800000Y26777560D01*
X17000000Y26817342D01*
X17200000Y26777560D01*
X17800000Y26777560D01*
X18047765Y26826843D01*
X18257809Y26967191D01*
X18398157Y27177235D01*
X18447440Y27425000D01*
X18447440Y28975000D01*
X18408056Y29173000D01*
X19300000Y29173000D01*
X19322925Y29177560D01*
X20400000Y29177560D01*
X20647765Y29226843D01*
X20716843Y29273000D01*
X22639279Y29273000D01*
X22652235Y29264343D01*
X22900000Y29215060D01*
X23892851Y29215060D01*
X23852560Y29012500D01*
X23852560Y27462500D01*
X23901843Y27214735D01*
X23951288Y27140735D01*
X23250554Y26440000D01*
X23143022Y26440000D01*
X23117880Y26445001D01*
X22972881Y26445001D01*
X22900000Y26459498D01*
X22827119Y26445001D01*
X20177882Y26445001D01*
X20105001Y26459498D01*
X20032120Y26445001D01*
X19816267Y26402065D01*
X19715897Y26335000D01*
X19494126Y26335000D01*
X19113720Y26177431D01*
X18822569Y25886280D01*
X18665000Y25505874D01*
X18665000Y25094126D01*
X18673000Y25074812D01*
X18673000Y23540000D01*
X17556518Y23540000D01*
X17447440Y23649078D01*
X17447440Y23750000D01*
X17427000Y23852760D01*
X17427000Y26000000D01*
X17417333Y26048601D01*
X17389803Y26089803D01*
X17348601Y26117333D01*
X17300000Y26127000D01*
X11407920Y26127000D01*
X11422440Y26200000D01*
X11422440Y27400000D01*
X11373157Y27647765D01*
X11232809Y27857809D01*
X11022765Y27998157D01*
X10775000Y28047440D01*
X8975000Y28047440D01*
X8735000Y27999702D01*
X8735000Y30500000D01*
X8945000Y30500000D01*
X8965000Y30399453D01*
X8965000Y30154887D01*
X9058591Y29928938D01*
X9078591Y29828391D01*
X9135546Y29743152D01*
X9229138Y29517201D01*
X9402075Y29344264D01*
X9459028Y29259028D01*
X9544264Y29202075D01*
X9717201Y29029138D01*
X9943152Y28935546D01*
X10028391Y28878591D01*
X10128938Y28858591D01*
X10354887Y28765000D01*
X10599453Y28765000D01*
X10700000Y28745000D01*
X10800547Y28765000D01*
X11045113Y28765000D01*
X11271062Y28858591D01*
X11371609Y28878591D01*
X11456848Y28935546D01*
X11682799Y29029138D01*
X11855736Y29202075D01*
X11940972Y29259028D01*
X11997925Y29344264D01*
X12170862Y29517201D01*
X12264454Y29743152D01*
X12321409Y29828391D01*
X12341409Y29928938D01*
X12435000Y30154887D01*
X12435000Y30399453D01*
X12455000Y30500000D01*
X12435000Y30600547D01*
X12435000Y30845113D01*
X12341409Y31071062D01*
X12321409Y31171609D01*
X12264454Y31256848D01*
X12170862Y31482799D01*
X11997925Y31655736D01*
X11940972Y31740972D01*
X11855736Y31797925D01*
X11682799Y31970862D01*
X11456848Y32064454D01*
X11371609Y32121409D01*
X11271062Y32141409D01*
X11045113Y32235000D01*
X10800547Y32235000D01*
X10700000Y32255000D01*
X10599453Y32235000D01*
X10354887Y32235000D01*
X10128938Y32141409D01*
X10028391Y32121409D01*
X9943152Y32064454D01*
X9717201Y31970862D01*
X9544264Y31797925D01*
X9459028Y31740972D01*
X9402075Y31655736D01*
X9229138Y31482799D01*
X9135546Y31256848D01*
X9078591Y31171609D01*
X9058591Y31071062D01*
X8965000Y30845113D01*
X8965000Y30600547D01*
X8945000Y30500000D01*
X8735000Y30500000D01*
X8735000Y32265000D01*
X13973000Y32265000D01*
X13973000Y31727760D01*
X13973000Y31727760D01*
G37*
X13973000Y31727760D02*
X13952560Y31625000D01*
X13952560Y29825000D01*
X14001843Y29577235D01*
X14142191Y29367191D01*
X14352235Y29226843D01*
X14600000Y29177560D01*
X15592851Y29177560D01*
X15552560Y28975000D01*
X15552560Y27425000D01*
X15601843Y27177235D01*
X15742191Y26967191D01*
X15952235Y26826843D01*
X16200000Y26777560D01*
X16800000Y26777560D01*
X17000000Y26817342D01*
X17200000Y26777560D01*
X17800000Y26777560D01*
X18047765Y26826843D01*
X18257809Y26967191D01*
X18398157Y27177235D01*
X18447440Y27425000D01*
X18447440Y28975000D01*
X18408056Y29173000D01*
X19300000Y29173000D01*
X19322925Y29177560D01*
X20400000Y29177560D01*
X20647765Y29226843D01*
X20716843Y29273000D01*
X22639279Y29273000D01*
X22652235Y29264343D01*
X22900000Y29215060D01*
X23892851Y29215060D01*
X23852560Y29012500D01*
X23852560Y27462500D01*
X23901843Y27214735D01*
X23951288Y27140735D01*
X23250554Y26440000D01*
X23143022Y26440000D01*
X23117880Y26445001D01*
X22972881Y26445001D01*
X22900000Y26459498D01*
X22827119Y26445001D01*
X20177882Y26445001D01*
X20105001Y26459498D01*
X20032120Y26445001D01*
X19816267Y26402065D01*
X19715897Y26335000D01*
X19494126Y26335000D01*
X19113720Y26177431D01*
X18822569Y25886280D01*
X18665000Y25505874D01*
X18665000Y25094126D01*
X18673000Y25074812D01*
X18673000Y23540000D01*
X17556518Y23540000D01*
X17447440Y23649078D01*
X17447440Y23750000D01*
X17427000Y23852760D01*
X17427000Y26000000D01*
X17417333Y26048601D01*
X17389803Y26089803D01*
X17348601Y26117333D01*
X17300000Y26127000D01*
X11407920Y26127000D01*
X11422440Y26200000D01*
X11422440Y27400000D01*
X11373157Y27647765D01*
X11232809Y27857809D01*
X11022765Y27998157D01*
X10775000Y28047440D01*
X8975000Y28047440D01*
X8735000Y27999702D01*
X8735000Y30500000D01*
X8945000Y30500000D01*
X8965000Y30399453D01*
X8965000Y30154887D01*
X9058591Y29928938D01*
X9078591Y29828391D01*
X9135546Y29743152D01*
X9229138Y29517201D01*
X9402075Y29344264D01*
X9459028Y29259028D01*
X9544264Y29202075D01*
X9717201Y29029138D01*
X9943152Y28935546D01*
X10028391Y28878591D01*
X10128938Y28858591D01*
X10354887Y28765000D01*
X10599453Y28765000D01*
X10700000Y28745000D01*
X10800547Y28765000D01*
X11045113Y28765000D01*
X11271062Y28858591D01*
X11371609Y28878591D01*
X11456848Y28935546D01*
X11682799Y29029138D01*
X11855736Y29202075D01*
X11940972Y29259028D01*
X11997925Y29344264D01*
X12170862Y29517201D01*
X12264454Y29743152D01*
X12321409Y29828391D01*
X12341409Y29928938D01*
X12435000Y30154887D01*
X12435000Y30399453D01*
X12455000Y30500000D01*
X12435000Y30600547D01*
X12435000Y30845113D01*
X12341409Y31071062D01*
X12321409Y31171609D01*
X12264454Y31256848D01*
X12170862Y31482799D01*
X11997925Y31655736D01*
X11940972Y31740972D01*
X11855736Y31797925D01*
X11682799Y31970862D01*
X11456848Y32064454D01*
X11371609Y32121409D01*
X11271062Y32141409D01*
X11045113Y32235000D01*
X10800547Y32235000D01*
X10700000Y32255000D01*
X10599453Y32235000D01*
X10354887Y32235000D01*
X10128938Y32141409D01*
X10028391Y32121409D01*
X9943152Y32064454D01*
X9717201Y31970862D01*
X9544264Y31797925D01*
X9459028Y31740972D01*
X9402075Y31655736D01*
X9229138Y31482799D01*
X9135546Y31256848D01*
X9078591Y31171609D01*
X9058591Y31071062D01*
X8965000Y30845113D01*
X8965000Y30600547D01*
X8945000Y30500000D01*
X8735000Y30500000D01*
X8735000Y32265000D01*
X13973000Y32265000D01*
X13973000Y31727760D01*
G36*
X72773000Y31827760D02*
X72752560Y31725000D01*
X72752560Y29925000D01*
X72801843Y29677235D01*
X72942191Y29467191D01*
X73152235Y29326843D01*
X73400000Y29277560D01*
X74600000Y29277560D01*
X74847765Y29326843D01*
X75057809Y29467191D01*
X75198157Y29677235D01*
X75247440Y29925000D01*
X75247440Y30500000D01*
X78545000Y30500000D01*
X78565000Y30399453D01*
X78565000Y30154887D01*
X78658591Y29928938D01*
X78678591Y29828391D01*
X78735546Y29743152D01*
X78829138Y29517201D01*
X79002075Y29344264D01*
X79059028Y29259028D01*
X79144264Y29202075D01*
X79317201Y29029138D01*
X79543152Y28935546D01*
X79628391Y28878591D01*
X79728938Y28858591D01*
X79954887Y28765000D01*
X80199453Y28765000D01*
X80300000Y28745000D01*
X80400547Y28765000D01*
X80645113Y28765000D01*
X80871062Y28858591D01*
X80971609Y28878591D01*
X81056848Y28935546D01*
X81282799Y29029138D01*
X81455736Y29202075D01*
X81540972Y29259028D01*
X81597925Y29344264D01*
X81770862Y29517201D01*
X81864454Y29743152D01*
X81921409Y29828391D01*
X81941409Y29928938D01*
X82035000Y30154887D01*
X82035000Y30399453D01*
X82055000Y30500000D01*
X82035000Y30600547D01*
X82035000Y30845113D01*
X81941409Y31071062D01*
X81921409Y31171609D01*
X81864454Y31256848D01*
X81770862Y31482799D01*
X81597925Y31655736D01*
X81540972Y31740972D01*
X81455736Y31797925D01*
X81282799Y31970862D01*
X81056848Y32064454D01*
X80971609Y32121409D01*
X80871062Y32141409D01*
X80645113Y32235000D01*
X80400547Y32235000D01*
X80300000Y32255000D01*
X80199453Y32235000D01*
X79954887Y32235000D01*
X79728938Y32141409D01*
X79628391Y32121409D01*
X79543152Y32064454D01*
X79317201Y31970862D01*
X79144264Y31797925D01*
X79059028Y31740972D01*
X79002075Y31655736D01*
X78829138Y31482799D01*
X78735546Y31256848D01*
X78678591Y31171609D01*
X78658591Y31071062D01*
X78565000Y30845113D01*
X78565000Y30600547D01*
X78545000Y30500000D01*
X75247440Y30500000D01*
X75247440Y31725000D01*
X75227000Y31827760D01*
X75227000Y32265000D01*
X82265001Y32265000D01*
X82265001Y27527000D01*
X81965260Y27527000D01*
X81862500Y27547440D01*
X80062500Y27547440D01*
X79959740Y27527000D01*
X75790736Y27527000D01*
X75725381Y27540000D01*
X75652500Y27554497D01*
X75579619Y27540000D01*
X73722881Y27540000D01*
X73650000Y27554497D01*
X73577119Y27540000D01*
X73511764Y27527000D01*
X72647440Y27527000D01*
X72647440Y29075000D01*
X72598157Y29322765D01*
X72457809Y29532809D01*
X72247765Y29673157D01*
X72000000Y29722440D01*
X71400000Y29722440D01*
X71200000Y29682658D01*
X71000000Y29722440D01*
X70607149Y29722440D01*
X70647440Y29925000D01*
X70647440Y31725000D01*
X70598157Y31972765D01*
X70457809Y32182809D01*
X70334802Y32265000D01*
X72773000Y32265000D01*
X72773000Y31827760D01*
X72773000Y31827760D01*
G37*
X72773000Y31827760D02*
X72752560Y31725000D01*
X72752560Y29925000D01*
X72801843Y29677235D01*
X72942191Y29467191D01*
X73152235Y29326843D01*
X73400000Y29277560D01*
X74600000Y29277560D01*
X74847765Y29326843D01*
X75057809Y29467191D01*
X75198157Y29677235D01*
X75247440Y29925000D01*
X75247440Y30500000D01*
X78545000Y30500000D01*
X78565000Y30399453D01*
X78565000Y30154887D01*
X78658591Y29928938D01*
X78678591Y29828391D01*
X78735546Y29743152D01*
X78829138Y29517201D01*
X79002075Y29344264D01*
X79059028Y29259028D01*
X79144264Y29202075D01*
X79317201Y29029138D01*
X79543152Y28935546D01*
X79628391Y28878591D01*
X79728938Y28858591D01*
X79954887Y28765000D01*
X80199453Y28765000D01*
X80300000Y28745000D01*
X80400547Y28765000D01*
X80645113Y28765000D01*
X80871062Y28858591D01*
X80971609Y28878591D01*
X81056848Y28935546D01*
X81282799Y29029138D01*
X81455736Y29202075D01*
X81540972Y29259028D01*
X81597925Y29344264D01*
X81770862Y29517201D01*
X81864454Y29743152D01*
X81921409Y29828391D01*
X81941409Y29928938D01*
X82035000Y30154887D01*
X82035000Y30399453D01*
X82055000Y30500000D01*
X82035000Y30600547D01*
X82035000Y30845113D01*
X81941409Y31071062D01*
X81921409Y31171609D01*
X81864454Y31256848D01*
X81770862Y31482799D01*
X81597925Y31655736D01*
X81540972Y31740972D01*
X81455736Y31797925D01*
X81282799Y31970862D01*
X81056848Y32064454D01*
X80971609Y32121409D01*
X80871062Y32141409D01*
X80645113Y32235000D01*
X80400547Y32235000D01*
X80300000Y32255000D01*
X80199453Y32235000D01*
X79954887Y32235000D01*
X79728938Y32141409D01*
X79628391Y32121409D01*
X79543152Y32064454D01*
X79317201Y31970862D01*
X79144264Y31797925D01*
X79059028Y31740972D01*
X79002075Y31655736D01*
X78829138Y31482799D01*
X78735546Y31256848D01*
X78678591Y31171609D01*
X78658591Y31071062D01*
X78565000Y30845113D01*
X78565000Y30600547D01*
X78545000Y30500000D01*
X75247440Y30500000D01*
X75247440Y31725000D01*
X75227000Y31827760D01*
X75227000Y32265000D01*
X82265001Y32265000D01*
X82265001Y27527000D01*
X81965260Y27527000D01*
X81862500Y27547440D01*
X80062500Y27547440D01*
X79959740Y27527000D01*
X75790736Y27527000D01*
X75725381Y27540000D01*
X75652500Y27554497D01*
X75579619Y27540000D01*
X73722881Y27540000D01*
X73650000Y27554497D01*
X73577119Y27540000D01*
X73511764Y27527000D01*
X72647440Y27527000D01*
X72647440Y29075000D01*
X72598157Y29322765D01*
X72457809Y29532809D01*
X72247765Y29673157D01*
X72000000Y29722440D01*
X71400000Y29722440D01*
X71200000Y29682658D01*
X71000000Y29722440D01*
X70607149Y29722440D01*
X70647440Y29925000D01*
X70647440Y31725000D01*
X70598157Y31972765D01*
X70457809Y32182809D01*
X70334802Y32265000D01*
X72773000Y32265000D01*
X72773000Y31827760D01*
G36*
X37201843Y29614735D02*
X37342191Y29404691D01*
X37373000Y29384105D01*
X37373000Y27580045D01*
X37047440Y27580045D01*
X37047440Y29012500D01*
X36998157Y29260265D01*
X36988471Y29274760D01*
X37027431Y29313720D01*
X37185000Y29694126D01*
X37185000Y29699411D01*
X37201843Y29614735D01*
X37201843Y29614735D01*
G37*
X37201843Y29614735D02*
X37342191Y29404691D01*
X37373000Y29384105D01*
X37373000Y27580045D01*
X37047440Y27580045D01*
X37047440Y29012500D01*
X36998157Y29260265D01*
X36988471Y29274760D01*
X37027431Y29313720D01*
X37185000Y29694126D01*
X37185000Y29699411D01*
X37201843Y29614735D01*
G36*
X39842191Y28292191D02*
X39878184Y28268141D01*
X40028880Y28117445D01*
X40409286Y27959876D01*
X40821034Y27959876D01*
X41094140Y28073000D01*
X42200000Y28073000D01*
X42206382Y28074269D01*
X42289116Y28040000D01*
X42700864Y28040000D01*
X42791542Y28077560D01*
X42900000Y28077560D01*
X43073000Y28111971D01*
X43073000Y27580045D01*
X39827000Y27580045D01*
X39827000Y28314926D01*
X39842191Y28292191D01*
X39842191Y28292191D01*
G37*
X39842191Y28292191D02*
X39878184Y28268141D01*
X40028880Y28117445D01*
X40409286Y27959876D01*
X40821034Y27959876D01*
X41094140Y28073000D01*
X42200000Y28073000D01*
X42206382Y28074269D01*
X42289116Y28040000D01*
X42700864Y28040000D01*
X42791542Y28077560D01*
X42900000Y28077560D01*
X43073000Y28111971D01*
X43073000Y27580045D01*
X39827000Y27580045D01*
X39827000Y28314926D01*
X39842191Y28292191D01*
G36*
X63542191Y32182809D02*
X63401843Y31972765D01*
X63352560Y31725000D01*
X63352560Y29925000D01*
X63401843Y29677235D01*
X63435409Y29627000D01*
X62916843Y29627000D01*
X62847765Y29673157D01*
X62600000Y29722440D01*
X62527000Y29722440D01*
X62527000Y30114457D01*
X62560000Y30194126D01*
X62560000Y30605874D01*
X62527000Y30685543D01*
X62527000Y32265000D01*
X63665198Y32265000D01*
X63542191Y32182809D01*
X63542191Y32182809D01*
G37*
X63542191Y32182809D02*
X63401843Y31972765D01*
X63352560Y31725000D01*
X63352560Y29925000D01*
X63401843Y29677235D01*
X63435409Y29627000D01*
X62916843Y29627000D01*
X62847765Y29673157D01*
X62600000Y29722440D01*
X62527000Y29722440D01*
X62527000Y30114457D01*
X62560000Y30194126D01*
X62560000Y30605874D01*
X62527000Y30685543D01*
X62527000Y32265000D01*
X63665198Y32265000D01*
X63542191Y32182809D01*
G36*
X37152560Y31662500D02*
X37152560Y30184191D01*
X37027431Y30486280D01*
X36736280Y30777431D01*
X36355874Y30935000D01*
X35944126Y30935000D01*
X35858725Y30899626D01*
X35960000Y31144126D01*
X35960000Y31555874D01*
X35836102Y31854990D01*
X37190848Y31854990D01*
X37152560Y31662500D01*
X37152560Y31662500D01*
G37*
X37152560Y31662500D02*
X37152560Y30184191D01*
X37027431Y30486280D01*
X36736280Y30777431D01*
X36355874Y30935000D01*
X35944126Y30935000D01*
X35858725Y30899626D01*
X35960000Y31144126D01*
X35960000Y31555874D01*
X35836102Y31854990D01*
X37190848Y31854990D01*
X37152560Y31662500D01*
G36*
X27852560Y31662500D02*
X27852560Y30827000D01*
X27025188Y30827000D01*
X27005874Y30835000D01*
X26627000Y30835000D01*
X26627000Y31564457D01*
X26660000Y31644126D01*
X26660000Y31854990D01*
X27890848Y31854990D01*
X27852560Y31662500D01*
X27852560Y31662500D01*
G37*
X27852560Y31662500D02*
X27852560Y30827000D01*
X27025188Y30827000D01*
X27005874Y30835000D01*
X26627000Y30835000D01*
X26627000Y31564457D01*
X26660000Y31644126D01*
X26660000Y31854990D01*
X27890848Y31854990D01*
X27852560Y31662500D01*
G04 #@! TD*
M02*
