G04 #@! TF.GenerationSoftware,KiCad,Pcbnew,(5.0.0)*
G04 #@! TF.CreationDate,2019-07-10T12:28:10+09:00*
G04 #@! TF.ProjectId,MainCircuit_v2_bottom,4D61696E436972637569745F76325F62,rev?*
G04 #@! TF.SameCoordinates,Original*
G04 #@! TF.FileFunction,Legend,Top*
G04 #@! TF.FilePolarity,Positive*
%FSLAX46Y46*%
G04 Gerber Fmt 4.6, Leading zero omitted, Abs format (unit mm)*
G04 Created by KiCad (PCBNEW (5.0.0)) date 07/10/19 12:28:10*
%MOMM*%
%LPD*%
G01*
G04 APERTURE LIST*
%ADD10C,0.150000*%
%ADD11C,0.120000*%
%ADD12R,1.120000X2.180000*%
%ADD13R,1.200000X0.900000*%
%ADD14C,1.924000*%
%ADD15R,3.400000X2.000000*%
%ADD16C,1.600000*%
%ADD17R,0.730000X1.600000*%
%ADD18R,1.600000X0.730000*%
%ADD19R,1.700000X0.730000*%
%ADD20R,1.200000X1.200000*%
%ADD21R,2.000000X3.900000*%
%ADD22R,1.100000X1.200000*%
%ADD23R,3.134000X2.559000*%
%ADD24R,2.400000X2.400000*%
%ADD25C,2.400000*%
%ADD26R,1.200000X1.100000*%
%ADD27R,0.800000X1.500000*%
%ADD28R,1.942500X1.600000*%
%ADD29R,7.400000X5.900000*%
%ADD30R,3.600000X1.600000*%
%ADD31C,2.600000*%
%ADD32R,1.100000X0.900000*%
%ADD33R,2.000000X3.400000*%
%ADD34R,0.900000X1.200000*%
%ADD35R,1.900000X1.400000*%
%ADD36R,1.900000X3.700000*%
%ADD37R,2.400000X1.600000*%
%ADD38R,2.400000X2.600000*%
%ADD39R,1.650000X0.630000*%
%ADD40R,2.400000X2.200000*%
G04 APERTURE END LIST*
D10*
G04 #@! TO.C,FET2*
X133550000Y-91950000D02*
X138550000Y-91950000D01*
X133550000Y-95950000D02*
X133550000Y-91950000D01*
X138550000Y-95950000D02*
X133550000Y-95950000D01*
X138550000Y-91950000D02*
X138550000Y-95950000D01*
G04 #@! TO.C,R12*
X181550000Y-92100000D02*
X181550000Y-93700000D01*
X181550000Y-92100000D02*
X180750000Y-92100000D01*
X180750000Y-92100000D02*
X180750000Y-93700000D01*
X181550000Y-93700000D02*
X180750000Y-93700000D01*
G04 #@! TO.C,R15*
X164550000Y-92500000D02*
X164550000Y-94100000D01*
X164550000Y-92500000D02*
X163750000Y-92500000D01*
X163750000Y-92500000D02*
X163750000Y-94100000D01*
X164550000Y-94100000D02*
X163750000Y-94100000D01*
G04 #@! TO.C,J3*
X159250000Y-98450000D02*
X159250000Y-104850000D01*
X151750000Y-98450000D02*
X159250000Y-98450000D01*
X151750000Y-104850000D02*
X151750000Y-98450000D01*
X159250000Y-104850000D02*
X151750000Y-104850000D01*
D11*
G04 #@! TO.C,C42*
X118560000Y-83980000D02*
X113980000Y-83980000D01*
X119320000Y-84740000D02*
X118560000Y-83980000D01*
X118560000Y-89320000D02*
X119320000Y-88560000D01*
X113980000Y-89320000D02*
X118560000Y-89320000D01*
X119320000Y-88560000D02*
X119320000Y-87770000D01*
X119320000Y-84740000D02*
X119320000Y-85530000D01*
X113980000Y-89320000D02*
X113980000Y-87770000D01*
X113980000Y-83980000D02*
X113980000Y-85530000D01*
D10*
G04 #@! TO.C,R32*
X122750000Y-88500000D02*
X122750000Y-86900000D01*
X122750000Y-88500000D02*
X123550000Y-88500000D01*
X123550000Y-88500000D02*
X123550000Y-86900000D01*
X122750000Y-86900000D02*
X123550000Y-86900000D01*
G04 #@! TO.C,SW2*
X118750000Y-98050000D02*
X115150000Y-98050000D01*
X118750000Y-106550000D02*
X118750000Y-98050000D01*
X115150000Y-106550000D02*
X118750000Y-106550000D01*
X115150000Y-98050000D02*
X115150000Y-106550000D01*
G04 #@! TO.C,Q1*
X111032843Y-96450000D02*
G75*
G03X111032843Y-96450000I-282843J0D01*
G01*
X110100000Y-99150000D02*
X110100000Y-95850000D01*
X110100000Y-99150000D02*
X113400000Y-99150000D01*
X110100000Y-95850000D02*
X113400000Y-95850000D01*
X113400000Y-95850000D02*
X113400000Y-99150000D01*
G04 #@! TO.C,D2*
X125050000Y-88450000D02*
X125050000Y-86950000D01*
X124550000Y-87950000D02*
X125550000Y-87950000D01*
X125550000Y-87550000D02*
X124550000Y-87550000D01*
X125050000Y-87950000D02*
X125550000Y-87550000D01*
X124550000Y-87550000D02*
X125050000Y-87950000D01*
X125550000Y-88450000D02*
X124550000Y-88450000D01*
X125550000Y-86950000D02*
X125550000Y-88450000D01*
X124550000Y-86950000D02*
X125550000Y-86950000D01*
X124550000Y-88450000D02*
X124550000Y-86950000D01*
G04 #@! TO.C,R31*
X125150000Y-99800000D02*
X125150000Y-98200000D01*
X125150000Y-99800000D02*
X125950000Y-99800000D01*
X125950000Y-99800000D02*
X125950000Y-98200000D01*
X125150000Y-98200000D02*
X125950000Y-98200000D01*
D11*
G04 #@! TO.C,C38*
X119250000Y-108950000D02*
X121430000Y-108950000D01*
X125850000Y-108950000D02*
X123670000Y-108950000D01*
X120010000Y-102350000D02*
X121430000Y-102350000D01*
X125090000Y-102350000D02*
X123670000Y-102350000D01*
X119250000Y-108950000D02*
X119250000Y-103110000D01*
X119250000Y-103110000D02*
X120010000Y-102350000D01*
X125090000Y-102350000D02*
X125850000Y-103110000D01*
X125850000Y-103110000D02*
X125850000Y-108950000D01*
D10*
G04 #@! TO.C,C40*
X122500000Y-98750000D02*
X124100000Y-98750000D01*
X122500000Y-97950000D02*
X122500000Y-98750000D01*
X122500000Y-97950000D02*
X124100000Y-97950000D01*
X124100000Y-97950000D02*
X124100000Y-98750000D01*
G04 #@! TO.C,D1*
X127350000Y-99750000D02*
X127350000Y-98250000D01*
X126850000Y-99250000D02*
X127850000Y-99250000D01*
X127850000Y-98850000D02*
X126850000Y-98850000D01*
X127350000Y-99250000D02*
X127850000Y-98850000D01*
X126850000Y-98850000D02*
X127350000Y-99250000D01*
X127850000Y-99750000D02*
X126850000Y-99750000D01*
X127850000Y-98250000D02*
X127850000Y-99750000D01*
X126850000Y-98250000D02*
X127850000Y-98250000D01*
X126850000Y-99750000D02*
X126850000Y-98250000D01*
G04 #@! TO.C,D6*
X129550000Y-110050000D02*
X129550000Y-104250000D01*
X126350000Y-110050000D02*
X129550000Y-110050000D01*
X126350000Y-104250000D02*
X126350000Y-110050000D01*
X129550000Y-104250000D02*
X126350000Y-104250000D01*
G04 #@! TO.C,J6*
X109200000Y-100600000D02*
X109200000Y-106600000D01*
X109200000Y-106600000D02*
X114700000Y-106600000D01*
X114700000Y-100600000D02*
X114700000Y-106600000D01*
X109200000Y-100600000D02*
X114700000Y-100600000D01*
G04 #@! TO.C,C18*
X179100000Y-86000000D02*
X179100000Y-84400000D01*
X178300000Y-86000000D02*
X179100000Y-86000000D01*
X178300000Y-86000000D02*
X178300000Y-84400000D01*
X178300000Y-84400000D02*
X179100000Y-84400000D01*
G04 #@! TO.C,C20*
X178350000Y-90200000D02*
X178350000Y-91800000D01*
X179150000Y-90200000D02*
X178350000Y-90200000D01*
X179150000Y-90200000D02*
X179150000Y-91800000D01*
X179150000Y-91800000D02*
X178350000Y-91800000D01*
G04 #@! TO.C,C23*
X161450000Y-90100000D02*
X161450000Y-91700000D01*
X162250000Y-90100000D02*
X161450000Y-90100000D01*
X162250000Y-90100000D02*
X162250000Y-91700000D01*
X162250000Y-91700000D02*
X161450000Y-91700000D01*
G04 #@! TO.C,IC1*
X133775000Y-87275000D02*
X134000000Y-87275000D01*
X133775000Y-82625000D02*
X134100000Y-82625000D01*
X143725000Y-82625000D02*
X143400000Y-82625000D01*
X143725000Y-87275000D02*
X143400000Y-87275000D01*
X133775000Y-87275000D02*
X133775000Y-82625000D01*
X143725000Y-87275000D02*
X143725000Y-82625000D01*
X134000000Y-87275000D02*
X134000000Y-88350000D01*
G04 #@! TO.C,FET1*
X138750000Y-91950000D02*
X143750000Y-91950000D01*
X138750000Y-95950000D02*
X138750000Y-91950000D01*
X143750000Y-95950000D02*
X138750000Y-95950000D01*
X143750000Y-91950000D02*
X143750000Y-95950000D01*
G04 #@! TO.C,C14*
X178250000Y-81700000D02*
X178250000Y-83300000D01*
X179050000Y-81700000D02*
X178250000Y-81700000D01*
X179050000Y-81700000D02*
X179050000Y-83300000D01*
X179050000Y-83300000D02*
X178250000Y-83300000D01*
G04 #@! TO.C,R6*
X147650000Y-89800000D02*
X147650000Y-91400000D01*
X147650000Y-89800000D02*
X146850000Y-89800000D01*
X146850000Y-89800000D02*
X146850000Y-91400000D01*
X147650000Y-91400000D02*
X146850000Y-91400000D01*
G04 #@! TO.C,C43*
X120400000Y-78650000D02*
X118800000Y-78650000D01*
X120400000Y-79450000D02*
X120400000Y-78650000D01*
X120400000Y-79450000D02*
X118800000Y-79450000D01*
X118800000Y-79450000D02*
X118800000Y-78650000D01*
G04 #@! TO.C,U3*
X123150000Y-89650000D02*
X116750000Y-89650000D01*
X116750000Y-96250000D02*
X123150000Y-96250000D01*
X123050000Y-96250000D02*
X123150000Y-96250000D01*
X123150000Y-96250000D02*
X123050000Y-96250000D01*
X123150000Y-89650000D02*
X123150000Y-96250000D01*
X116750000Y-89650000D02*
X116750000Y-96250000D01*
G04 #@! TO.C,C41*
X121300000Y-87400000D02*
X121800000Y-87400000D01*
X121300000Y-88400000D02*
X121300000Y-87400000D01*
X121800000Y-88400000D02*
X121300000Y-88400000D01*
X121800000Y-87400000D02*
X121800000Y-88400000D01*
G04 #@! TO.C,C44*
X128650000Y-82600000D02*
X128650000Y-84200000D01*
X129450000Y-82600000D02*
X128650000Y-82600000D01*
X129450000Y-82600000D02*
X129450000Y-84200000D01*
X129450000Y-84200000D02*
X128650000Y-84200000D01*
D11*
G04 #@! TO.C,C45*
X126780000Y-96020000D02*
X128330000Y-96020000D01*
X132120000Y-96020000D02*
X130570000Y-96020000D01*
X127540000Y-90680000D02*
X128330000Y-90680000D01*
X131360000Y-90680000D02*
X130570000Y-90680000D01*
X132120000Y-96020000D02*
X132120000Y-91440000D01*
X132120000Y-91440000D02*
X131360000Y-90680000D01*
X127540000Y-90680000D02*
X126780000Y-91440000D01*
X126780000Y-91440000D02*
X126780000Y-96020000D01*
D10*
G04 #@! TO.C,D3*
X129050000Y-88450000D02*
X129050000Y-86950000D01*
X128550000Y-87950000D02*
X129550000Y-87950000D01*
X129550000Y-87550000D02*
X128550000Y-87550000D01*
X129050000Y-87950000D02*
X129550000Y-87550000D01*
X128550000Y-87550000D02*
X129050000Y-87950000D01*
X129550000Y-88450000D02*
X128550000Y-88450000D01*
X129550000Y-86950000D02*
X129550000Y-88450000D01*
X128550000Y-86950000D02*
X129550000Y-86950000D01*
X128550000Y-88450000D02*
X128550000Y-86950000D01*
G04 #@! TO.C,R30*
X107150000Y-99300000D02*
X108750000Y-99300000D01*
X107150000Y-99300000D02*
X107150000Y-100100000D01*
X107150000Y-100100000D02*
X108750000Y-100100000D01*
X108750000Y-99300000D02*
X108750000Y-100100000D01*
G04 #@! TO.C,R33*
X126650000Y-88500000D02*
X126650000Y-86900000D01*
X126650000Y-88500000D02*
X127450000Y-88500000D01*
X127450000Y-88500000D02*
X127450000Y-86900000D01*
X126650000Y-86900000D02*
X127450000Y-86900000D01*
G04 #@! TO.C,U4*
X125750000Y-85050000D02*
X122050000Y-85050000D01*
X125750000Y-78550000D02*
X125750000Y-85050000D01*
X122050000Y-78550000D02*
X125750000Y-78550000D01*
X122050000Y-85050000D02*
X122050000Y-78550000D01*
G04 #@! TO.C,C5*
X144450000Y-81600000D02*
X144450000Y-83200000D01*
X145250000Y-81600000D02*
X144450000Y-81600000D01*
X145250000Y-81600000D02*
X145250000Y-83200000D01*
X145250000Y-83200000D02*
X144450000Y-83200000D01*
G04 #@! TO.C,C7*
X144450000Y-84300000D02*
X145250000Y-84300000D01*
X144450000Y-85900000D02*
X144450000Y-84300000D01*
X144450000Y-85900000D02*
X145250000Y-85900000D01*
X145250000Y-85900000D02*
X145250000Y-84300000D01*
G04 #@! TO.C,C8*
X144550000Y-90100000D02*
X144550000Y-91700000D01*
X145350000Y-90100000D02*
X144550000Y-90100000D01*
X145350000Y-90100000D02*
X145350000Y-91700000D01*
X145350000Y-91700000D02*
X144550000Y-91700000D01*
G04 #@! TO.C,C11*
X134850000Y-106350000D02*
X137350000Y-106350000D01*
X134850000Y-109550000D02*
X134850000Y-106350000D01*
X137350000Y-109550000D02*
X134850000Y-109550000D01*
X137350000Y-106350000D02*
X137350000Y-109550000D01*
G04 #@! TO.C,C12*
X142250000Y-106350000D02*
X142250000Y-109550000D01*
X142250000Y-109550000D02*
X139750000Y-109550000D01*
X139750000Y-109550000D02*
X139750000Y-106350000D01*
X139750000Y-106350000D02*
X142250000Y-106350000D01*
D11*
G04 #@! TO.C,C13*
X187850000Y-103110000D02*
X187850000Y-108950000D01*
X187090000Y-102350000D02*
X187850000Y-103110000D01*
X181250000Y-103110000D02*
X182010000Y-102350000D01*
X181250000Y-108950000D02*
X181250000Y-103110000D01*
X187090000Y-102350000D02*
X185670000Y-102350000D01*
X182010000Y-102350000D02*
X183430000Y-102350000D01*
X187850000Y-108950000D02*
X185670000Y-108950000D01*
X181250000Y-108950000D02*
X183430000Y-108950000D01*
D10*
G04 #@! TO.C,C15*
X162150000Y-83200000D02*
X161350000Y-83200000D01*
X162150000Y-81600000D02*
X162150000Y-83200000D01*
X162150000Y-81600000D02*
X161350000Y-81600000D01*
X161350000Y-81600000D02*
X161350000Y-83200000D01*
G04 #@! TO.C,C19*
X162150000Y-85900000D02*
X162150000Y-84300000D01*
X161350000Y-85900000D02*
X162150000Y-85900000D01*
X161350000Y-85900000D02*
X161350000Y-84300000D01*
X161350000Y-84300000D02*
X162150000Y-84300000D01*
G04 #@! TO.C,C26*
X176050000Y-106450000D02*
X176050000Y-109650000D01*
X176050000Y-109650000D02*
X173550000Y-109650000D01*
X173550000Y-109650000D02*
X173550000Y-106450000D01*
X173550000Y-106450000D02*
X176050000Y-106450000D01*
G04 #@! TO.C,C27*
X159150000Y-106350000D02*
X159150000Y-109550000D01*
X159150000Y-109550000D02*
X156650000Y-109550000D01*
X156650000Y-109550000D02*
X156650000Y-106350000D01*
X156650000Y-106350000D02*
X159150000Y-106350000D01*
G04 #@! TO.C,C28*
X168650000Y-106450000D02*
X171150000Y-106450000D01*
X168650000Y-109650000D02*
X168650000Y-106450000D01*
X171150000Y-109650000D02*
X168650000Y-109650000D01*
X171150000Y-106450000D02*
X171150000Y-109650000D01*
G04 #@! TO.C,C29*
X151750000Y-106350000D02*
X154250000Y-106350000D01*
X151750000Y-109550000D02*
X151750000Y-106350000D01*
X154250000Y-109550000D02*
X151750000Y-109550000D01*
X154250000Y-106350000D02*
X154250000Y-109550000D01*
G04 #@! TO.C,FET3*
X172550000Y-92050000D02*
X177550000Y-92050000D01*
X172550000Y-96050000D02*
X172550000Y-92050000D01*
X177550000Y-96050000D02*
X172550000Y-96050000D01*
X177550000Y-92050000D02*
X177550000Y-96050000D01*
G04 #@! TO.C,FET4*
X172350000Y-92050000D02*
X172350000Y-96050000D01*
X172350000Y-96050000D02*
X167350000Y-96050000D01*
X167350000Y-96050000D02*
X167350000Y-92050000D01*
X167350000Y-92050000D02*
X172350000Y-92050000D01*
G04 #@! TO.C,FET5*
X160650000Y-91950000D02*
X160650000Y-95950000D01*
X160650000Y-95950000D02*
X155650000Y-95950000D01*
X155650000Y-95950000D02*
X155650000Y-91950000D01*
X155650000Y-91950000D02*
X160650000Y-91950000D01*
G04 #@! TO.C,FET6*
X150450000Y-91950000D02*
X155450000Y-91950000D01*
X150450000Y-95950000D02*
X150450000Y-91950000D01*
X155450000Y-95950000D02*
X150450000Y-95950000D01*
X155450000Y-91950000D02*
X155450000Y-95950000D01*
G04 #@! TO.C,IC2*
X167575000Y-87375000D02*
X167800000Y-87375000D01*
X167575000Y-82725000D02*
X167900000Y-82725000D01*
X177525000Y-82725000D02*
X177200000Y-82725000D01*
X177525000Y-87375000D02*
X177200000Y-87375000D01*
X167575000Y-87375000D02*
X167575000Y-82725000D01*
X177525000Y-87375000D02*
X177525000Y-82725000D01*
X167800000Y-87375000D02*
X167800000Y-88450000D01*
G04 #@! TO.C,IC3*
X150900000Y-87275000D02*
X150900000Y-88350000D01*
X160625000Y-87275000D02*
X160625000Y-82625000D01*
X150675000Y-87275000D02*
X150675000Y-82625000D01*
X160625000Y-87275000D02*
X160300000Y-87275000D01*
X160625000Y-82625000D02*
X160300000Y-82625000D01*
X150675000Y-82625000D02*
X151000000Y-82625000D01*
X150675000Y-87275000D02*
X150900000Y-87275000D01*
G04 #@! TO.C,J1*
X142350000Y-98450000D02*
X142350000Y-104850000D01*
X134850000Y-98450000D02*
X142350000Y-98450000D01*
X134850000Y-104850000D02*
X134850000Y-98450000D01*
X142350000Y-104850000D02*
X134850000Y-104850000D01*
G04 #@! TO.C,J2*
X176150000Y-104950000D02*
X168650000Y-104950000D01*
X168650000Y-104950000D02*
X168650000Y-98550000D01*
X168650000Y-98550000D02*
X176150000Y-98550000D01*
X176150000Y-98550000D02*
X176150000Y-104950000D01*
G04 #@! TO.C,J14*
X193350000Y-92850000D02*
X193350000Y-104750000D01*
X193350000Y-104750000D02*
X188750000Y-104750000D01*
X188750000Y-104750000D02*
X188750000Y-92850000D01*
X188750000Y-92850000D02*
X193350000Y-92850000D01*
G04 #@! TO.C,R4*
X147650000Y-95200000D02*
X147650000Y-96800000D01*
X147650000Y-95200000D02*
X146850000Y-95200000D01*
X146850000Y-95200000D02*
X146850000Y-96800000D01*
X147650000Y-96800000D02*
X146850000Y-96800000D01*
G04 #@! TO.C,R5*
X147650000Y-94100000D02*
X146850000Y-94100000D01*
X146850000Y-92500000D02*
X146850000Y-94100000D01*
X147650000Y-92500000D02*
X146850000Y-92500000D01*
X147650000Y-92500000D02*
X147650000Y-94100000D01*
G04 #@! TO.C,R13*
X164550000Y-96800000D02*
X163750000Y-96800000D01*
X163750000Y-95200000D02*
X163750000Y-96800000D01*
X164550000Y-95200000D02*
X163750000Y-95200000D01*
X164550000Y-95200000D02*
X164550000Y-96800000D01*
G04 #@! TO.C,R14*
X181550000Y-91100000D02*
X180750000Y-91100000D01*
X180750000Y-89500000D02*
X180750000Y-91100000D01*
X181550000Y-89500000D02*
X180750000Y-89500000D01*
X181550000Y-89500000D02*
X181550000Y-91100000D01*
G04 #@! TO.C,R16*
X181550000Y-88500000D02*
X180750000Y-88500000D01*
X180750000Y-86900000D02*
X180750000Y-88500000D01*
X181550000Y-86900000D02*
X180750000Y-86900000D01*
X181550000Y-86900000D02*
X181550000Y-88500000D01*
G04 #@! TO.C,R17*
X164550000Y-89800000D02*
X164550000Y-91400000D01*
X164550000Y-89800000D02*
X163750000Y-89800000D01*
X163750000Y-89800000D02*
X163750000Y-91400000D01*
X164550000Y-91400000D02*
X163750000Y-91400000D01*
G04 #@! TO.C,FET2*
X134833333Y-89628571D02*
X134500000Y-89628571D01*
X134500000Y-90152380D02*
X134500000Y-89152380D01*
X134976190Y-89152380D01*
X135357142Y-89628571D02*
X135690476Y-89628571D01*
X135833333Y-90152380D02*
X135357142Y-90152380D01*
X135357142Y-89152380D01*
X135833333Y-89152380D01*
X136119047Y-89152380D02*
X136690476Y-89152380D01*
X136404761Y-90152380D02*
X136404761Y-89152380D01*
X136976190Y-89247619D02*
X137023809Y-89200000D01*
X137119047Y-89152380D01*
X137357142Y-89152380D01*
X137452380Y-89200000D01*
X137500000Y-89247619D01*
X137547619Y-89342857D01*
X137547619Y-89438095D01*
X137500000Y-89580952D01*
X136928571Y-90152380D01*
X137547619Y-90152380D01*
G04 #@! TO.C,R12*
X183127380Y-93742857D02*
X182651190Y-94076190D01*
X183127380Y-94314285D02*
X182127380Y-94314285D01*
X182127380Y-93933333D01*
X182175000Y-93838095D01*
X182222619Y-93790476D01*
X182317857Y-93742857D01*
X182460714Y-93742857D01*
X182555952Y-93790476D01*
X182603571Y-93838095D01*
X182651190Y-93933333D01*
X182651190Y-94314285D01*
X183127380Y-92790476D02*
X183127380Y-93361904D01*
X183127380Y-93076190D02*
X182127380Y-93076190D01*
X182270238Y-93171428D01*
X182365476Y-93266666D01*
X182413095Y-93361904D01*
X182222619Y-92409523D02*
X182175000Y-92361904D01*
X182127380Y-92266666D01*
X182127380Y-92028571D01*
X182175000Y-91933333D01*
X182222619Y-91885714D01*
X182317857Y-91838095D01*
X182413095Y-91838095D01*
X182555952Y-91885714D01*
X183127380Y-92457142D01*
X183127380Y-91838095D01*
G04 #@! TO.C,R15*
X166127380Y-94242857D02*
X165651190Y-94576190D01*
X166127380Y-94814285D02*
X165127380Y-94814285D01*
X165127380Y-94433333D01*
X165175000Y-94338095D01*
X165222619Y-94290476D01*
X165317857Y-94242857D01*
X165460714Y-94242857D01*
X165555952Y-94290476D01*
X165603571Y-94338095D01*
X165651190Y-94433333D01*
X165651190Y-94814285D01*
X166127380Y-93290476D02*
X166127380Y-93861904D01*
X166127380Y-93576190D02*
X165127380Y-93576190D01*
X165270238Y-93671428D01*
X165365476Y-93766666D01*
X165413095Y-93861904D01*
X165127380Y-92385714D02*
X165127380Y-92861904D01*
X165603571Y-92909523D01*
X165555952Y-92861904D01*
X165508333Y-92766666D01*
X165508333Y-92528571D01*
X165555952Y-92433333D01*
X165603571Y-92385714D01*
X165698809Y-92338095D01*
X165936904Y-92338095D01*
X166032142Y-92385714D01*
X166079761Y-92433333D01*
X166127380Y-92528571D01*
X166127380Y-92766666D01*
X166079761Y-92861904D01*
X166032142Y-92909523D01*
G04 #@! TO.C,J3*
X160066666Y-103752380D02*
X160066666Y-104466666D01*
X160019047Y-104609523D01*
X159923809Y-104704761D01*
X159780952Y-104752380D01*
X159685714Y-104752380D01*
X160447619Y-103752380D02*
X161066666Y-103752380D01*
X160733333Y-104133333D01*
X160876190Y-104133333D01*
X160971428Y-104180952D01*
X161019047Y-104228571D01*
X161066666Y-104323809D01*
X161066666Y-104561904D01*
X161019047Y-104657142D01*
X160971428Y-104704761D01*
X160876190Y-104752380D01*
X160590476Y-104752380D01*
X160495238Y-104704761D01*
X160447619Y-104657142D01*
G04 #@! TO.C,C42*
X116007142Y-83087142D02*
X115959523Y-83134761D01*
X115816666Y-83182380D01*
X115721428Y-83182380D01*
X115578571Y-83134761D01*
X115483333Y-83039523D01*
X115435714Y-82944285D01*
X115388095Y-82753809D01*
X115388095Y-82610952D01*
X115435714Y-82420476D01*
X115483333Y-82325238D01*
X115578571Y-82230000D01*
X115721428Y-82182380D01*
X115816666Y-82182380D01*
X115959523Y-82230000D01*
X116007142Y-82277619D01*
X116864285Y-82515714D02*
X116864285Y-83182380D01*
X116626190Y-82134761D02*
X116388095Y-82849047D01*
X117007142Y-82849047D01*
X117340476Y-82277619D02*
X117388095Y-82230000D01*
X117483333Y-82182380D01*
X117721428Y-82182380D01*
X117816666Y-82230000D01*
X117864285Y-82277619D01*
X117911904Y-82372857D01*
X117911904Y-82468095D01*
X117864285Y-82610952D01*
X117292857Y-83182380D01*
X117911904Y-83182380D01*
X119649047Y-84371428D02*
X120410952Y-84371428D01*
X120030000Y-84752380D02*
X120030000Y-83990476D01*
G04 #@! TO.C,R32*
X121757142Y-86352380D02*
X121423809Y-85876190D01*
X121185714Y-86352380D02*
X121185714Y-85352380D01*
X121566666Y-85352380D01*
X121661904Y-85400000D01*
X121709523Y-85447619D01*
X121757142Y-85542857D01*
X121757142Y-85685714D01*
X121709523Y-85780952D01*
X121661904Y-85828571D01*
X121566666Y-85876190D01*
X121185714Y-85876190D01*
X122090476Y-85352380D02*
X122709523Y-85352380D01*
X122376190Y-85733333D01*
X122519047Y-85733333D01*
X122614285Y-85780952D01*
X122661904Y-85828571D01*
X122709523Y-85923809D01*
X122709523Y-86161904D01*
X122661904Y-86257142D01*
X122614285Y-86304761D01*
X122519047Y-86352380D01*
X122233333Y-86352380D01*
X122138095Y-86304761D01*
X122090476Y-86257142D01*
X123090476Y-85447619D02*
X123138095Y-85400000D01*
X123233333Y-85352380D01*
X123471428Y-85352380D01*
X123566666Y-85400000D01*
X123614285Y-85447619D01*
X123661904Y-85542857D01*
X123661904Y-85638095D01*
X123614285Y-85780952D01*
X123042857Y-86352380D01*
X123661904Y-86352380D01*
G04 #@! TO.C,SW2*
X115666666Y-107904761D02*
X115809523Y-107952380D01*
X116047619Y-107952380D01*
X116142857Y-107904761D01*
X116190476Y-107857142D01*
X116238095Y-107761904D01*
X116238095Y-107666666D01*
X116190476Y-107571428D01*
X116142857Y-107523809D01*
X116047619Y-107476190D01*
X115857142Y-107428571D01*
X115761904Y-107380952D01*
X115714285Y-107333333D01*
X115666666Y-107238095D01*
X115666666Y-107142857D01*
X115714285Y-107047619D01*
X115761904Y-107000000D01*
X115857142Y-106952380D01*
X116095238Y-106952380D01*
X116238095Y-107000000D01*
X116571428Y-106952380D02*
X116809523Y-107952380D01*
X117000000Y-107238095D01*
X117190476Y-107952380D01*
X117428571Y-106952380D01*
X117761904Y-107047619D02*
X117809523Y-107000000D01*
X117904761Y-106952380D01*
X118142857Y-106952380D01*
X118238095Y-107000000D01*
X118285714Y-107047619D01*
X118333333Y-107142857D01*
X118333333Y-107238095D01*
X118285714Y-107380952D01*
X117714285Y-107952380D01*
X118333333Y-107952380D01*
G04 #@! TO.C,Q1*
X111804761Y-94847619D02*
X111709523Y-94800000D01*
X111614285Y-94704761D01*
X111471428Y-94561904D01*
X111376190Y-94514285D01*
X111280952Y-94514285D01*
X111328571Y-94752380D02*
X111233333Y-94704761D01*
X111138095Y-94609523D01*
X111090476Y-94419047D01*
X111090476Y-94085714D01*
X111138095Y-93895238D01*
X111233333Y-93800000D01*
X111328571Y-93752380D01*
X111519047Y-93752380D01*
X111614285Y-93800000D01*
X111709523Y-93895238D01*
X111757142Y-94085714D01*
X111757142Y-94419047D01*
X111709523Y-94609523D01*
X111614285Y-94704761D01*
X111519047Y-94752380D01*
X111328571Y-94752380D01*
X112709523Y-94752380D02*
X112138095Y-94752380D01*
X112423809Y-94752380D02*
X112423809Y-93752380D01*
X112328571Y-93895238D01*
X112233333Y-93990476D01*
X112138095Y-94038095D01*
G04 #@! TO.C,D2*
X123861904Y-86352380D02*
X123861904Y-85352380D01*
X124100000Y-85352380D01*
X124242857Y-85400000D01*
X124338095Y-85495238D01*
X124385714Y-85590476D01*
X124433333Y-85780952D01*
X124433333Y-85923809D01*
X124385714Y-86114285D01*
X124338095Y-86209523D01*
X124242857Y-86304761D01*
X124100000Y-86352380D01*
X123861904Y-86352380D01*
X124814285Y-85447619D02*
X124861904Y-85400000D01*
X124957142Y-85352380D01*
X125195238Y-85352380D01*
X125290476Y-85400000D01*
X125338095Y-85447619D01*
X125385714Y-85542857D01*
X125385714Y-85638095D01*
X125338095Y-85780952D01*
X124766666Y-86352380D01*
X125385714Y-86352380D01*
G04 #@! TO.C,R31*
X124557142Y-97552380D02*
X124223809Y-97076190D01*
X123985714Y-97552380D02*
X123985714Y-96552380D01*
X124366666Y-96552380D01*
X124461904Y-96600000D01*
X124509523Y-96647619D01*
X124557142Y-96742857D01*
X124557142Y-96885714D01*
X124509523Y-96980952D01*
X124461904Y-97028571D01*
X124366666Y-97076190D01*
X123985714Y-97076190D01*
X124890476Y-96552380D02*
X125509523Y-96552380D01*
X125176190Y-96933333D01*
X125319047Y-96933333D01*
X125414285Y-96980952D01*
X125461904Y-97028571D01*
X125509523Y-97123809D01*
X125509523Y-97361904D01*
X125461904Y-97457142D01*
X125414285Y-97504761D01*
X125319047Y-97552380D01*
X125033333Y-97552380D01*
X124938095Y-97504761D01*
X124890476Y-97457142D01*
X126461904Y-97552380D02*
X125890476Y-97552380D01*
X126176190Y-97552380D02*
X126176190Y-96552380D01*
X126080952Y-96695238D01*
X125985714Y-96790476D01*
X125890476Y-96838095D01*
G04 #@! TO.C,C38*
X116857142Y-109857142D02*
X116809523Y-109904761D01*
X116666666Y-109952380D01*
X116571428Y-109952380D01*
X116428571Y-109904761D01*
X116333333Y-109809523D01*
X116285714Y-109714285D01*
X116238095Y-109523809D01*
X116238095Y-109380952D01*
X116285714Y-109190476D01*
X116333333Y-109095238D01*
X116428571Y-109000000D01*
X116571428Y-108952380D01*
X116666666Y-108952380D01*
X116809523Y-109000000D01*
X116857142Y-109047619D01*
X117190476Y-108952380D02*
X117809523Y-108952380D01*
X117476190Y-109333333D01*
X117619047Y-109333333D01*
X117714285Y-109380952D01*
X117761904Y-109428571D01*
X117809523Y-109523809D01*
X117809523Y-109761904D01*
X117761904Y-109857142D01*
X117714285Y-109904761D01*
X117619047Y-109952380D01*
X117333333Y-109952380D01*
X117238095Y-109904761D01*
X117190476Y-109857142D01*
X118380952Y-109380952D02*
X118285714Y-109333333D01*
X118238095Y-109285714D01*
X118190476Y-109190476D01*
X118190476Y-109142857D01*
X118238095Y-109047619D01*
X118285714Y-109000000D01*
X118380952Y-108952380D01*
X118571428Y-108952380D01*
X118666666Y-109000000D01*
X118714285Y-109047619D01*
X118761904Y-109142857D01*
X118761904Y-109190476D01*
X118714285Y-109285714D01*
X118666666Y-109333333D01*
X118571428Y-109380952D01*
X118380952Y-109380952D01*
X118285714Y-109428571D01*
X118238095Y-109476190D01*
X118190476Y-109571428D01*
X118190476Y-109761904D01*
X118238095Y-109857142D01*
X118285714Y-109904761D01*
X118380952Y-109952380D01*
X118571428Y-109952380D01*
X118666666Y-109904761D01*
X118714285Y-109857142D01*
X118761904Y-109761904D01*
X118761904Y-109571428D01*
X118714285Y-109476190D01*
X118666666Y-109428571D01*
X118571428Y-109380952D01*
X119611428Y-101750952D02*
X119611428Y-100989047D01*
X119992380Y-101370000D02*
X119230476Y-101370000D01*
G04 #@! TO.C,C40*
X121657142Y-97457142D02*
X121609523Y-97504761D01*
X121466666Y-97552380D01*
X121371428Y-97552380D01*
X121228571Y-97504761D01*
X121133333Y-97409523D01*
X121085714Y-97314285D01*
X121038095Y-97123809D01*
X121038095Y-96980952D01*
X121085714Y-96790476D01*
X121133333Y-96695238D01*
X121228571Y-96600000D01*
X121371428Y-96552380D01*
X121466666Y-96552380D01*
X121609523Y-96600000D01*
X121657142Y-96647619D01*
X122514285Y-96885714D02*
X122514285Y-97552380D01*
X122276190Y-96504761D02*
X122038095Y-97219047D01*
X122657142Y-97219047D01*
X123228571Y-96552380D02*
X123323809Y-96552380D01*
X123419047Y-96600000D01*
X123466666Y-96647619D01*
X123514285Y-96742857D01*
X123561904Y-96933333D01*
X123561904Y-97171428D01*
X123514285Y-97361904D01*
X123466666Y-97457142D01*
X123419047Y-97504761D01*
X123323809Y-97552380D01*
X123228571Y-97552380D01*
X123133333Y-97504761D01*
X123085714Y-97457142D01*
X123038095Y-97361904D01*
X122990476Y-97171428D01*
X122990476Y-96933333D01*
X123038095Y-96742857D01*
X123085714Y-96647619D01*
X123133333Y-96600000D01*
X123228571Y-96552380D01*
G04 #@! TO.C,D1*
X126861904Y-97552380D02*
X126861904Y-96552380D01*
X127100000Y-96552380D01*
X127242857Y-96600000D01*
X127338095Y-96695238D01*
X127385714Y-96790476D01*
X127433333Y-96980952D01*
X127433333Y-97123809D01*
X127385714Y-97314285D01*
X127338095Y-97409523D01*
X127242857Y-97504761D01*
X127100000Y-97552380D01*
X126861904Y-97552380D01*
X128385714Y-97552380D02*
X127814285Y-97552380D01*
X128100000Y-97552380D02*
X128100000Y-96552380D01*
X128004761Y-96695238D01*
X127909523Y-96790476D01*
X127814285Y-96838095D01*
G04 #@! TO.C,D6*
X131102380Y-108188095D02*
X130102380Y-108188095D01*
X130102380Y-107950000D01*
X130150000Y-107807142D01*
X130245238Y-107711904D01*
X130340476Y-107664285D01*
X130530952Y-107616666D01*
X130673809Y-107616666D01*
X130864285Y-107664285D01*
X130959523Y-107711904D01*
X131054761Y-107807142D01*
X131102380Y-107950000D01*
X131102380Y-108188095D01*
X130102380Y-106759523D02*
X130102380Y-106950000D01*
X130150000Y-107045238D01*
X130197619Y-107092857D01*
X130340476Y-107188095D01*
X130530952Y-107235714D01*
X130911904Y-107235714D01*
X131007142Y-107188095D01*
X131054761Y-107140476D01*
X131102380Y-107045238D01*
X131102380Y-106854761D01*
X131054761Y-106759523D01*
X131007142Y-106711904D01*
X130911904Y-106664285D01*
X130673809Y-106664285D01*
X130578571Y-106711904D01*
X130530952Y-106759523D01*
X130483333Y-106854761D01*
X130483333Y-107045238D01*
X130530952Y-107140476D01*
X130578571Y-107188095D01*
X130673809Y-107235714D01*
G04 #@! TO.C,J6*
X111966666Y-99052380D02*
X111966666Y-99766666D01*
X111919047Y-99909523D01*
X111823809Y-100004761D01*
X111680952Y-100052380D01*
X111585714Y-100052380D01*
X112871428Y-99052380D02*
X112680952Y-99052380D01*
X112585714Y-99100000D01*
X112538095Y-99147619D01*
X112442857Y-99290476D01*
X112395238Y-99480952D01*
X112395238Y-99861904D01*
X112442857Y-99957142D01*
X112490476Y-100004761D01*
X112585714Y-100052380D01*
X112776190Y-100052380D01*
X112871428Y-100004761D01*
X112919047Y-99957142D01*
X112966666Y-99861904D01*
X112966666Y-99623809D01*
X112919047Y-99528571D01*
X112871428Y-99480952D01*
X112776190Y-99433333D01*
X112585714Y-99433333D01*
X112490476Y-99480952D01*
X112442857Y-99528571D01*
X112395238Y-99623809D01*
G04 #@! TO.C,C18*
X180557142Y-85942857D02*
X180604761Y-85990476D01*
X180652380Y-86133333D01*
X180652380Y-86228571D01*
X180604761Y-86371428D01*
X180509523Y-86466666D01*
X180414285Y-86514285D01*
X180223809Y-86561904D01*
X180080952Y-86561904D01*
X179890476Y-86514285D01*
X179795238Y-86466666D01*
X179700000Y-86371428D01*
X179652380Y-86228571D01*
X179652380Y-86133333D01*
X179700000Y-85990476D01*
X179747619Y-85942857D01*
X180652380Y-84990476D02*
X180652380Y-85561904D01*
X180652380Y-85276190D02*
X179652380Y-85276190D01*
X179795238Y-85371428D01*
X179890476Y-85466666D01*
X179938095Y-85561904D01*
X180080952Y-84419047D02*
X180033333Y-84514285D01*
X179985714Y-84561904D01*
X179890476Y-84609523D01*
X179842857Y-84609523D01*
X179747619Y-84561904D01*
X179700000Y-84514285D01*
X179652380Y-84419047D01*
X179652380Y-84228571D01*
X179700000Y-84133333D01*
X179747619Y-84085714D01*
X179842857Y-84038095D01*
X179890476Y-84038095D01*
X179985714Y-84085714D01*
X180033333Y-84133333D01*
X180080952Y-84228571D01*
X180080952Y-84419047D01*
X180128571Y-84514285D01*
X180176190Y-84561904D01*
X180271428Y-84609523D01*
X180461904Y-84609523D01*
X180557142Y-84561904D01*
X180604761Y-84514285D01*
X180652380Y-84419047D01*
X180652380Y-84228571D01*
X180604761Y-84133333D01*
X180557142Y-84085714D01*
X180461904Y-84038095D01*
X180271428Y-84038095D01*
X180176190Y-84085714D01*
X180128571Y-84133333D01*
X180080952Y-84228571D01*
G04 #@! TO.C,C20*
X179157142Y-88842857D02*
X179204761Y-88890476D01*
X179252380Y-89033333D01*
X179252380Y-89128571D01*
X179204761Y-89271428D01*
X179109523Y-89366666D01*
X179014285Y-89414285D01*
X178823809Y-89461904D01*
X178680952Y-89461904D01*
X178490476Y-89414285D01*
X178395238Y-89366666D01*
X178300000Y-89271428D01*
X178252380Y-89128571D01*
X178252380Y-89033333D01*
X178300000Y-88890476D01*
X178347619Y-88842857D01*
X178347619Y-88461904D02*
X178300000Y-88414285D01*
X178252380Y-88319047D01*
X178252380Y-88080952D01*
X178300000Y-87985714D01*
X178347619Y-87938095D01*
X178442857Y-87890476D01*
X178538095Y-87890476D01*
X178680952Y-87938095D01*
X179252380Y-88509523D01*
X179252380Y-87890476D01*
X178252380Y-87271428D02*
X178252380Y-87176190D01*
X178300000Y-87080952D01*
X178347619Y-87033333D01*
X178442857Y-86985714D01*
X178633333Y-86938095D01*
X178871428Y-86938095D01*
X179061904Y-86985714D01*
X179157142Y-87033333D01*
X179204761Y-87080952D01*
X179252380Y-87176190D01*
X179252380Y-87271428D01*
X179204761Y-87366666D01*
X179157142Y-87414285D01*
X179061904Y-87461904D01*
X178871428Y-87509523D01*
X178633333Y-87509523D01*
X178442857Y-87461904D01*
X178347619Y-87414285D01*
X178300000Y-87366666D01*
X178252380Y-87271428D01*
G04 #@! TO.C,C23*
X162257142Y-88742857D02*
X162304761Y-88790476D01*
X162352380Y-88933333D01*
X162352380Y-89028571D01*
X162304761Y-89171428D01*
X162209523Y-89266666D01*
X162114285Y-89314285D01*
X161923809Y-89361904D01*
X161780952Y-89361904D01*
X161590476Y-89314285D01*
X161495238Y-89266666D01*
X161400000Y-89171428D01*
X161352380Y-89028571D01*
X161352380Y-88933333D01*
X161400000Y-88790476D01*
X161447619Y-88742857D01*
X161447619Y-88361904D02*
X161400000Y-88314285D01*
X161352380Y-88219047D01*
X161352380Y-87980952D01*
X161400000Y-87885714D01*
X161447619Y-87838095D01*
X161542857Y-87790476D01*
X161638095Y-87790476D01*
X161780952Y-87838095D01*
X162352380Y-88409523D01*
X162352380Y-87790476D01*
X161352380Y-87457142D02*
X161352380Y-86838095D01*
X161733333Y-87171428D01*
X161733333Y-87028571D01*
X161780952Y-86933333D01*
X161828571Y-86885714D01*
X161923809Y-86838095D01*
X162161904Y-86838095D01*
X162257142Y-86885714D01*
X162304761Y-86933333D01*
X162352380Y-87028571D01*
X162352380Y-87314285D01*
X162304761Y-87409523D01*
X162257142Y-87457142D01*
G04 #@! TO.C,IC1*
X137823809Y-80252380D02*
X137823809Y-79252380D01*
X138871428Y-80157142D02*
X138823809Y-80204761D01*
X138680952Y-80252380D01*
X138585714Y-80252380D01*
X138442857Y-80204761D01*
X138347619Y-80109523D01*
X138300000Y-80014285D01*
X138252380Y-79823809D01*
X138252380Y-79680952D01*
X138300000Y-79490476D01*
X138347619Y-79395238D01*
X138442857Y-79300000D01*
X138585714Y-79252380D01*
X138680952Y-79252380D01*
X138823809Y-79300000D01*
X138871428Y-79347619D01*
X139823809Y-80252380D02*
X139252380Y-80252380D01*
X139538095Y-80252380D02*
X139538095Y-79252380D01*
X139442857Y-79395238D01*
X139347619Y-79490476D01*
X139252380Y-79538095D01*
G04 #@! TO.C,FET1*
X140033333Y-89628571D02*
X139700000Y-89628571D01*
X139700000Y-90152380D02*
X139700000Y-89152380D01*
X140176190Y-89152380D01*
X140557142Y-89628571D02*
X140890476Y-89628571D01*
X141033333Y-90152380D02*
X140557142Y-90152380D01*
X140557142Y-89152380D01*
X141033333Y-89152380D01*
X141319047Y-89152380D02*
X141890476Y-89152380D01*
X141604761Y-90152380D02*
X141604761Y-89152380D01*
X142747619Y-90152380D02*
X142176190Y-90152380D01*
X142461904Y-90152380D02*
X142461904Y-89152380D01*
X142366666Y-89295238D01*
X142271428Y-89390476D01*
X142176190Y-89438095D01*
G04 #@! TO.C,C14*
X180557142Y-83042857D02*
X180604761Y-83090476D01*
X180652380Y-83233333D01*
X180652380Y-83328571D01*
X180604761Y-83471428D01*
X180509523Y-83566666D01*
X180414285Y-83614285D01*
X180223809Y-83661904D01*
X180080952Y-83661904D01*
X179890476Y-83614285D01*
X179795238Y-83566666D01*
X179700000Y-83471428D01*
X179652380Y-83328571D01*
X179652380Y-83233333D01*
X179700000Y-83090476D01*
X179747619Y-83042857D01*
X180652380Y-82090476D02*
X180652380Y-82661904D01*
X180652380Y-82376190D02*
X179652380Y-82376190D01*
X179795238Y-82471428D01*
X179890476Y-82566666D01*
X179938095Y-82661904D01*
X179985714Y-81233333D02*
X180652380Y-81233333D01*
X179604761Y-81471428D02*
X180319047Y-81709523D01*
X180319047Y-81090476D01*
G04 #@! TO.C,R6*
X149227380Y-90766666D02*
X148751190Y-91100000D01*
X149227380Y-91338095D02*
X148227380Y-91338095D01*
X148227380Y-90957142D01*
X148275000Y-90861904D01*
X148322619Y-90814285D01*
X148417857Y-90766666D01*
X148560714Y-90766666D01*
X148655952Y-90814285D01*
X148703571Y-90861904D01*
X148751190Y-90957142D01*
X148751190Y-91338095D01*
X148227380Y-89909523D02*
X148227380Y-90100000D01*
X148275000Y-90195238D01*
X148322619Y-90242857D01*
X148465476Y-90338095D01*
X148655952Y-90385714D01*
X149036904Y-90385714D01*
X149132142Y-90338095D01*
X149179761Y-90290476D01*
X149227380Y-90195238D01*
X149227380Y-90004761D01*
X149179761Y-89909523D01*
X149132142Y-89861904D01*
X149036904Y-89814285D01*
X148798809Y-89814285D01*
X148703571Y-89861904D01*
X148655952Y-89909523D01*
X148608333Y-90004761D01*
X148608333Y-90195238D01*
X148655952Y-90290476D01*
X148703571Y-90338095D01*
X148798809Y-90385714D01*
G04 #@! TO.C,C43*
X117757142Y-80957142D02*
X117709523Y-81004761D01*
X117566666Y-81052380D01*
X117471428Y-81052380D01*
X117328571Y-81004761D01*
X117233333Y-80909523D01*
X117185714Y-80814285D01*
X117138095Y-80623809D01*
X117138095Y-80480952D01*
X117185714Y-80290476D01*
X117233333Y-80195238D01*
X117328571Y-80100000D01*
X117471428Y-80052380D01*
X117566666Y-80052380D01*
X117709523Y-80100000D01*
X117757142Y-80147619D01*
X118614285Y-80385714D02*
X118614285Y-81052380D01*
X118376190Y-80004761D02*
X118138095Y-80719047D01*
X118757142Y-80719047D01*
X119042857Y-80052380D02*
X119661904Y-80052380D01*
X119328571Y-80433333D01*
X119471428Y-80433333D01*
X119566666Y-80480952D01*
X119614285Y-80528571D01*
X119661904Y-80623809D01*
X119661904Y-80861904D01*
X119614285Y-80957142D01*
X119566666Y-81004761D01*
X119471428Y-81052380D01*
X119185714Y-81052380D01*
X119090476Y-81004761D01*
X119042857Y-80957142D01*
G04 #@! TO.C,U3*
X113102380Y-93561904D02*
X113911904Y-93561904D01*
X114007142Y-93514285D01*
X114054761Y-93466666D01*
X114102380Y-93371428D01*
X114102380Y-93180952D01*
X114054761Y-93085714D01*
X114007142Y-93038095D01*
X113911904Y-92990476D01*
X113102380Y-92990476D01*
X113102380Y-92609523D02*
X113102380Y-91990476D01*
X113483333Y-92323809D01*
X113483333Y-92180952D01*
X113530952Y-92085714D01*
X113578571Y-92038095D01*
X113673809Y-91990476D01*
X113911904Y-91990476D01*
X114007142Y-92038095D01*
X114054761Y-92085714D01*
X114102380Y-92180952D01*
X114102380Y-92466666D01*
X114054761Y-92561904D01*
X114007142Y-92609523D01*
G04 #@! TO.C,REF\002A\002A*
X113756666Y-77292380D02*
X113423333Y-76816190D01*
X113185238Y-77292380D02*
X113185238Y-76292380D01*
X113566190Y-76292380D01*
X113661428Y-76340000D01*
X113709047Y-76387619D01*
X113756666Y-76482857D01*
X113756666Y-76625714D01*
X113709047Y-76720952D01*
X113661428Y-76768571D01*
X113566190Y-76816190D01*
X113185238Y-76816190D01*
X114185238Y-76768571D02*
X114518571Y-76768571D01*
X114661428Y-77292380D02*
X114185238Y-77292380D01*
X114185238Y-76292380D01*
X114661428Y-76292380D01*
X115423333Y-76768571D02*
X115090000Y-76768571D01*
X115090000Y-77292380D02*
X115090000Y-76292380D01*
X115566190Y-76292380D01*
X116090000Y-76292380D02*
X116090000Y-76530476D01*
X115851904Y-76435238D02*
X116090000Y-76530476D01*
X116328095Y-76435238D01*
X115947142Y-76720952D02*
X116090000Y-76530476D01*
X116232857Y-76720952D01*
X116851904Y-76292380D02*
X116851904Y-76530476D01*
X116613809Y-76435238D02*
X116851904Y-76530476D01*
X117090000Y-76435238D01*
X116709047Y-76720952D02*
X116851904Y-76530476D01*
X116994761Y-76720952D01*
X183416666Y-77422380D02*
X183083333Y-76946190D01*
X182845238Y-77422380D02*
X182845238Y-76422380D01*
X183226190Y-76422380D01*
X183321428Y-76470000D01*
X183369047Y-76517619D01*
X183416666Y-76612857D01*
X183416666Y-76755714D01*
X183369047Y-76850952D01*
X183321428Y-76898571D01*
X183226190Y-76946190D01*
X182845238Y-76946190D01*
X183845238Y-76898571D02*
X184178571Y-76898571D01*
X184321428Y-77422380D02*
X183845238Y-77422380D01*
X183845238Y-76422380D01*
X184321428Y-76422380D01*
X185083333Y-76898571D02*
X184750000Y-76898571D01*
X184750000Y-77422380D02*
X184750000Y-76422380D01*
X185226190Y-76422380D01*
X185750000Y-76422380D02*
X185750000Y-76660476D01*
X185511904Y-76565238D02*
X185750000Y-76660476D01*
X185988095Y-76565238D01*
X185607142Y-76850952D02*
X185750000Y-76660476D01*
X185892857Y-76850952D01*
X186511904Y-76422380D02*
X186511904Y-76660476D01*
X186273809Y-76565238D02*
X186511904Y-76660476D01*
X186750000Y-76565238D01*
X186369047Y-76850952D02*
X186511904Y-76660476D01*
X186654761Y-76850952D01*
X190796666Y-113712380D02*
X190463333Y-113236190D01*
X190225238Y-113712380D02*
X190225238Y-112712380D01*
X190606190Y-112712380D01*
X190701428Y-112760000D01*
X190749047Y-112807619D01*
X190796666Y-112902857D01*
X190796666Y-113045714D01*
X190749047Y-113140952D01*
X190701428Y-113188571D01*
X190606190Y-113236190D01*
X190225238Y-113236190D01*
X191225238Y-113188571D02*
X191558571Y-113188571D01*
X191701428Y-113712380D02*
X191225238Y-113712380D01*
X191225238Y-112712380D01*
X191701428Y-112712380D01*
X192463333Y-113188571D02*
X192130000Y-113188571D01*
X192130000Y-113712380D02*
X192130000Y-112712380D01*
X192606190Y-112712380D01*
X193130000Y-112712380D02*
X193130000Y-112950476D01*
X192891904Y-112855238D02*
X193130000Y-112950476D01*
X193368095Y-112855238D01*
X192987142Y-113140952D02*
X193130000Y-112950476D01*
X193272857Y-113140952D01*
X193891904Y-112712380D02*
X193891904Y-112950476D01*
X193653809Y-112855238D02*
X193891904Y-112950476D01*
X194130000Y-112855238D01*
X193749047Y-113140952D02*
X193891904Y-112950476D01*
X194034761Y-113140952D01*
X106236666Y-113852380D02*
X105903333Y-113376190D01*
X105665238Y-113852380D02*
X105665238Y-112852380D01*
X106046190Y-112852380D01*
X106141428Y-112900000D01*
X106189047Y-112947619D01*
X106236666Y-113042857D01*
X106236666Y-113185714D01*
X106189047Y-113280952D01*
X106141428Y-113328571D01*
X106046190Y-113376190D01*
X105665238Y-113376190D01*
X106665238Y-113328571D02*
X106998571Y-113328571D01*
X107141428Y-113852380D02*
X106665238Y-113852380D01*
X106665238Y-112852380D01*
X107141428Y-112852380D01*
X107903333Y-113328571D02*
X107570000Y-113328571D01*
X107570000Y-113852380D02*
X107570000Y-112852380D01*
X108046190Y-112852380D01*
X108570000Y-112852380D02*
X108570000Y-113090476D01*
X108331904Y-112995238D02*
X108570000Y-113090476D01*
X108808095Y-112995238D01*
X108427142Y-113280952D02*
X108570000Y-113090476D01*
X108712857Y-113280952D01*
X109331904Y-112852380D02*
X109331904Y-113090476D01*
X109093809Y-112995238D02*
X109331904Y-113090476D01*
X109570000Y-112995238D01*
X109189047Y-113280952D02*
X109331904Y-113090476D01*
X109474761Y-113280952D01*
G04 #@! TO.C,C41*
X120107142Y-89092857D02*
X120154761Y-89140476D01*
X120202380Y-89283333D01*
X120202380Y-89378571D01*
X120154761Y-89521428D01*
X120059523Y-89616666D01*
X119964285Y-89664285D01*
X119773809Y-89711904D01*
X119630952Y-89711904D01*
X119440476Y-89664285D01*
X119345238Y-89616666D01*
X119250000Y-89521428D01*
X119202380Y-89378571D01*
X119202380Y-89283333D01*
X119250000Y-89140476D01*
X119297619Y-89092857D01*
X119535714Y-88235714D02*
X120202380Y-88235714D01*
X119154761Y-88473809D02*
X119869047Y-88711904D01*
X119869047Y-88092857D01*
X120202380Y-87188095D02*
X120202380Y-87759523D01*
X120202380Y-87473809D02*
X119202380Y-87473809D01*
X119345238Y-87569047D01*
X119440476Y-87664285D01*
X119488095Y-87759523D01*
G04 #@! TO.C,C44*
X130957142Y-84042857D02*
X131004761Y-84090476D01*
X131052380Y-84233333D01*
X131052380Y-84328571D01*
X131004761Y-84471428D01*
X130909523Y-84566666D01*
X130814285Y-84614285D01*
X130623809Y-84661904D01*
X130480952Y-84661904D01*
X130290476Y-84614285D01*
X130195238Y-84566666D01*
X130100000Y-84471428D01*
X130052380Y-84328571D01*
X130052380Y-84233333D01*
X130100000Y-84090476D01*
X130147619Y-84042857D01*
X130385714Y-83185714D02*
X131052380Y-83185714D01*
X130004761Y-83423809D02*
X130719047Y-83661904D01*
X130719047Y-83042857D01*
X130385714Y-82233333D02*
X131052380Y-82233333D01*
X130004761Y-82471428D02*
X130719047Y-82709523D01*
X130719047Y-82090476D01*
G04 #@! TO.C,C45*
X129757142Y-98557142D02*
X129709523Y-98604761D01*
X129566666Y-98652380D01*
X129471428Y-98652380D01*
X129328571Y-98604761D01*
X129233333Y-98509523D01*
X129185714Y-98414285D01*
X129138095Y-98223809D01*
X129138095Y-98080952D01*
X129185714Y-97890476D01*
X129233333Y-97795238D01*
X129328571Y-97700000D01*
X129471428Y-97652380D01*
X129566666Y-97652380D01*
X129709523Y-97700000D01*
X129757142Y-97747619D01*
X130614285Y-97985714D02*
X130614285Y-98652380D01*
X130376190Y-97604761D02*
X130138095Y-98319047D01*
X130757142Y-98319047D01*
X131614285Y-97652380D02*
X131138095Y-97652380D01*
X131090476Y-98128571D01*
X131138095Y-98080952D01*
X131233333Y-98033333D01*
X131471428Y-98033333D01*
X131566666Y-98080952D01*
X131614285Y-98128571D01*
X131661904Y-98223809D01*
X131661904Y-98461904D01*
X131614285Y-98557142D01*
X131566666Y-98604761D01*
X131471428Y-98652380D01*
X131233333Y-98652380D01*
X131138095Y-98604761D01*
X131090476Y-98557142D01*
X127171428Y-90350952D02*
X127171428Y-89589047D01*
X127552380Y-89970000D02*
X126790476Y-89970000D01*
G04 #@! TO.C,D3*
X128961904Y-86252380D02*
X128961904Y-85252380D01*
X129200000Y-85252380D01*
X129342857Y-85300000D01*
X129438095Y-85395238D01*
X129485714Y-85490476D01*
X129533333Y-85680952D01*
X129533333Y-85823809D01*
X129485714Y-86014285D01*
X129438095Y-86109523D01*
X129342857Y-86204761D01*
X129200000Y-86252380D01*
X128961904Y-86252380D01*
X129866666Y-85252380D02*
X130485714Y-85252380D01*
X130152380Y-85633333D01*
X130295238Y-85633333D01*
X130390476Y-85680952D01*
X130438095Y-85728571D01*
X130485714Y-85823809D01*
X130485714Y-86061904D01*
X130438095Y-86157142D01*
X130390476Y-86204761D01*
X130295238Y-86252380D01*
X130009523Y-86252380D01*
X129914285Y-86204761D01*
X129866666Y-86157142D01*
G04 #@! TO.C,R30*
X107607142Y-98627380D02*
X107273809Y-98151190D01*
X107035714Y-98627380D02*
X107035714Y-97627380D01*
X107416666Y-97627380D01*
X107511904Y-97675000D01*
X107559523Y-97722619D01*
X107607142Y-97817857D01*
X107607142Y-97960714D01*
X107559523Y-98055952D01*
X107511904Y-98103571D01*
X107416666Y-98151190D01*
X107035714Y-98151190D01*
X107940476Y-97627380D02*
X108559523Y-97627380D01*
X108226190Y-98008333D01*
X108369047Y-98008333D01*
X108464285Y-98055952D01*
X108511904Y-98103571D01*
X108559523Y-98198809D01*
X108559523Y-98436904D01*
X108511904Y-98532142D01*
X108464285Y-98579761D01*
X108369047Y-98627380D01*
X108083333Y-98627380D01*
X107988095Y-98579761D01*
X107940476Y-98532142D01*
X109178571Y-97627380D02*
X109273809Y-97627380D01*
X109369047Y-97675000D01*
X109416666Y-97722619D01*
X109464285Y-97817857D01*
X109511904Y-98008333D01*
X109511904Y-98246428D01*
X109464285Y-98436904D01*
X109416666Y-98532142D01*
X109369047Y-98579761D01*
X109273809Y-98627380D01*
X109178571Y-98627380D01*
X109083333Y-98579761D01*
X109035714Y-98532142D01*
X108988095Y-98436904D01*
X108940476Y-98246428D01*
X108940476Y-98008333D01*
X108988095Y-97817857D01*
X109035714Y-97722619D01*
X109083333Y-97675000D01*
X109178571Y-97627380D01*
G04 #@! TO.C,R33*
X126457142Y-86352380D02*
X126123809Y-85876190D01*
X125885714Y-86352380D02*
X125885714Y-85352380D01*
X126266666Y-85352380D01*
X126361904Y-85400000D01*
X126409523Y-85447619D01*
X126457142Y-85542857D01*
X126457142Y-85685714D01*
X126409523Y-85780952D01*
X126361904Y-85828571D01*
X126266666Y-85876190D01*
X125885714Y-85876190D01*
X126790476Y-85352380D02*
X127409523Y-85352380D01*
X127076190Y-85733333D01*
X127219047Y-85733333D01*
X127314285Y-85780952D01*
X127361904Y-85828571D01*
X127409523Y-85923809D01*
X127409523Y-86161904D01*
X127361904Y-86257142D01*
X127314285Y-86304761D01*
X127219047Y-86352380D01*
X126933333Y-86352380D01*
X126838095Y-86304761D01*
X126790476Y-86257142D01*
X127742857Y-85352380D02*
X128361904Y-85352380D01*
X128028571Y-85733333D01*
X128171428Y-85733333D01*
X128266666Y-85780952D01*
X128314285Y-85828571D01*
X128361904Y-85923809D01*
X128361904Y-86161904D01*
X128314285Y-86257142D01*
X128266666Y-86304761D01*
X128171428Y-86352380D01*
X127885714Y-86352380D01*
X127790476Y-86304761D01*
X127742857Y-86257142D01*
G04 #@! TO.C,U4*
X128552380Y-81561904D02*
X129361904Y-81561904D01*
X129457142Y-81514285D01*
X129504761Y-81466666D01*
X129552380Y-81371428D01*
X129552380Y-81180952D01*
X129504761Y-81085714D01*
X129457142Y-81038095D01*
X129361904Y-80990476D01*
X128552380Y-80990476D01*
X128885714Y-80085714D02*
X129552380Y-80085714D01*
X128504761Y-80323809D02*
X129219047Y-80561904D01*
X129219047Y-79942857D01*
G04 #@! TO.C,C5*
X146832142Y-83341666D02*
X146879761Y-83389285D01*
X146927380Y-83532142D01*
X146927380Y-83627380D01*
X146879761Y-83770238D01*
X146784523Y-83865476D01*
X146689285Y-83913095D01*
X146498809Y-83960714D01*
X146355952Y-83960714D01*
X146165476Y-83913095D01*
X146070238Y-83865476D01*
X145975000Y-83770238D01*
X145927380Y-83627380D01*
X145927380Y-83532142D01*
X145975000Y-83389285D01*
X146022619Y-83341666D01*
X145927380Y-82436904D02*
X145927380Y-82913095D01*
X146403571Y-82960714D01*
X146355952Y-82913095D01*
X146308333Y-82817857D01*
X146308333Y-82579761D01*
X146355952Y-82484523D01*
X146403571Y-82436904D01*
X146498809Y-82389285D01*
X146736904Y-82389285D01*
X146832142Y-82436904D01*
X146879761Y-82484523D01*
X146927380Y-82579761D01*
X146927380Y-82817857D01*
X146879761Y-82913095D01*
X146832142Y-82960714D01*
G04 #@! TO.C,C7*
X146857142Y-85866666D02*
X146904761Y-85914285D01*
X146952380Y-86057142D01*
X146952380Y-86152380D01*
X146904761Y-86295238D01*
X146809523Y-86390476D01*
X146714285Y-86438095D01*
X146523809Y-86485714D01*
X146380952Y-86485714D01*
X146190476Y-86438095D01*
X146095238Y-86390476D01*
X146000000Y-86295238D01*
X145952380Y-86152380D01*
X145952380Y-86057142D01*
X146000000Y-85914285D01*
X146047619Y-85866666D01*
X145952380Y-85533333D02*
X145952380Y-84866666D01*
X146952380Y-85295238D01*
G04 #@! TO.C,C8*
X145357142Y-88766666D02*
X145404761Y-88814285D01*
X145452380Y-88957142D01*
X145452380Y-89052380D01*
X145404761Y-89195238D01*
X145309523Y-89290476D01*
X145214285Y-89338095D01*
X145023809Y-89385714D01*
X144880952Y-89385714D01*
X144690476Y-89338095D01*
X144595238Y-89290476D01*
X144500000Y-89195238D01*
X144452380Y-89052380D01*
X144452380Y-88957142D01*
X144500000Y-88814285D01*
X144547619Y-88766666D01*
X144880952Y-88195238D02*
X144833333Y-88290476D01*
X144785714Y-88338095D01*
X144690476Y-88385714D01*
X144642857Y-88385714D01*
X144547619Y-88338095D01*
X144500000Y-88290476D01*
X144452380Y-88195238D01*
X144452380Y-88004761D01*
X144500000Y-87909523D01*
X144547619Y-87861904D01*
X144642857Y-87814285D01*
X144690476Y-87814285D01*
X144785714Y-87861904D01*
X144833333Y-87909523D01*
X144880952Y-88004761D01*
X144880952Y-88195238D01*
X144928571Y-88290476D01*
X144976190Y-88338095D01*
X145071428Y-88385714D01*
X145261904Y-88385714D01*
X145357142Y-88338095D01*
X145404761Y-88290476D01*
X145452380Y-88195238D01*
X145452380Y-88004761D01*
X145404761Y-87909523D01*
X145357142Y-87861904D01*
X145261904Y-87814285D01*
X145071428Y-87814285D01*
X144976190Y-87861904D01*
X144928571Y-87909523D01*
X144880952Y-88004761D01*
G04 #@! TO.C,C11*
X138707142Y-108892857D02*
X138754761Y-108940476D01*
X138802380Y-109083333D01*
X138802380Y-109178571D01*
X138754761Y-109321428D01*
X138659523Y-109416666D01*
X138564285Y-109464285D01*
X138373809Y-109511904D01*
X138230952Y-109511904D01*
X138040476Y-109464285D01*
X137945238Y-109416666D01*
X137850000Y-109321428D01*
X137802380Y-109178571D01*
X137802380Y-109083333D01*
X137850000Y-108940476D01*
X137897619Y-108892857D01*
X138802380Y-107940476D02*
X138802380Y-108511904D01*
X138802380Y-108226190D02*
X137802380Y-108226190D01*
X137945238Y-108321428D01*
X138040476Y-108416666D01*
X138088095Y-108511904D01*
X138802380Y-106988095D02*
X138802380Y-107559523D01*
X138802380Y-107273809D02*
X137802380Y-107273809D01*
X137945238Y-107369047D01*
X138040476Y-107464285D01*
X138088095Y-107559523D01*
G04 #@! TO.C,C12*
X143607142Y-108892857D02*
X143654761Y-108940476D01*
X143702380Y-109083333D01*
X143702380Y-109178571D01*
X143654761Y-109321428D01*
X143559523Y-109416666D01*
X143464285Y-109464285D01*
X143273809Y-109511904D01*
X143130952Y-109511904D01*
X142940476Y-109464285D01*
X142845238Y-109416666D01*
X142750000Y-109321428D01*
X142702380Y-109178571D01*
X142702380Y-109083333D01*
X142750000Y-108940476D01*
X142797619Y-108892857D01*
X143702380Y-107940476D02*
X143702380Y-108511904D01*
X143702380Y-108226190D02*
X142702380Y-108226190D01*
X142845238Y-108321428D01*
X142940476Y-108416666D01*
X142988095Y-108511904D01*
X142797619Y-107559523D02*
X142750000Y-107511904D01*
X142702380Y-107416666D01*
X142702380Y-107178571D01*
X142750000Y-107083333D01*
X142797619Y-107035714D01*
X142892857Y-106988095D01*
X142988095Y-106988095D01*
X143130952Y-107035714D01*
X143702380Y-107607142D01*
X143702380Y-106988095D01*
G04 #@! TO.C,C13*
X180347142Y-106292857D02*
X180394761Y-106340476D01*
X180442380Y-106483333D01*
X180442380Y-106578571D01*
X180394761Y-106721428D01*
X180299523Y-106816666D01*
X180204285Y-106864285D01*
X180013809Y-106911904D01*
X179870952Y-106911904D01*
X179680476Y-106864285D01*
X179585238Y-106816666D01*
X179490000Y-106721428D01*
X179442380Y-106578571D01*
X179442380Y-106483333D01*
X179490000Y-106340476D01*
X179537619Y-106292857D01*
X180442380Y-105340476D02*
X180442380Y-105911904D01*
X180442380Y-105626190D02*
X179442380Y-105626190D01*
X179585238Y-105721428D01*
X179680476Y-105816666D01*
X179728095Y-105911904D01*
X179442380Y-105007142D02*
X179442380Y-104388095D01*
X179823333Y-104721428D01*
X179823333Y-104578571D01*
X179870952Y-104483333D01*
X179918571Y-104435714D01*
X180013809Y-104388095D01*
X180251904Y-104388095D01*
X180347142Y-104435714D01*
X180394761Y-104483333D01*
X180442380Y-104578571D01*
X180442380Y-104864285D01*
X180394761Y-104959523D01*
X180347142Y-105007142D01*
X181611428Y-101750952D02*
X181611428Y-100989047D01*
X181992380Y-101370000D02*
X181230476Y-101370000D01*
G04 #@! TO.C,C15*
X163657142Y-82942857D02*
X163704761Y-82990476D01*
X163752380Y-83133333D01*
X163752380Y-83228571D01*
X163704761Y-83371428D01*
X163609523Y-83466666D01*
X163514285Y-83514285D01*
X163323809Y-83561904D01*
X163180952Y-83561904D01*
X162990476Y-83514285D01*
X162895238Y-83466666D01*
X162800000Y-83371428D01*
X162752380Y-83228571D01*
X162752380Y-83133333D01*
X162800000Y-82990476D01*
X162847619Y-82942857D01*
X163752380Y-81990476D02*
X163752380Y-82561904D01*
X163752380Y-82276190D02*
X162752380Y-82276190D01*
X162895238Y-82371428D01*
X162990476Y-82466666D01*
X163038095Y-82561904D01*
X162752380Y-81085714D02*
X162752380Y-81561904D01*
X163228571Y-81609523D01*
X163180952Y-81561904D01*
X163133333Y-81466666D01*
X163133333Y-81228571D01*
X163180952Y-81133333D01*
X163228571Y-81085714D01*
X163323809Y-81038095D01*
X163561904Y-81038095D01*
X163657142Y-81085714D01*
X163704761Y-81133333D01*
X163752380Y-81228571D01*
X163752380Y-81466666D01*
X163704761Y-81561904D01*
X163657142Y-81609523D01*
G04 #@! TO.C,C19*
X163657142Y-85842857D02*
X163704761Y-85890476D01*
X163752380Y-86033333D01*
X163752380Y-86128571D01*
X163704761Y-86271428D01*
X163609523Y-86366666D01*
X163514285Y-86414285D01*
X163323809Y-86461904D01*
X163180952Y-86461904D01*
X162990476Y-86414285D01*
X162895238Y-86366666D01*
X162800000Y-86271428D01*
X162752380Y-86128571D01*
X162752380Y-86033333D01*
X162800000Y-85890476D01*
X162847619Y-85842857D01*
X163752380Y-84890476D02*
X163752380Y-85461904D01*
X163752380Y-85176190D02*
X162752380Y-85176190D01*
X162895238Y-85271428D01*
X162990476Y-85366666D01*
X163038095Y-85461904D01*
X163752380Y-84414285D02*
X163752380Y-84223809D01*
X163704761Y-84128571D01*
X163657142Y-84080952D01*
X163514285Y-83985714D01*
X163323809Y-83938095D01*
X162942857Y-83938095D01*
X162847619Y-83985714D01*
X162800000Y-84033333D01*
X162752380Y-84128571D01*
X162752380Y-84319047D01*
X162800000Y-84414285D01*
X162847619Y-84461904D01*
X162942857Y-84509523D01*
X163180952Y-84509523D01*
X163276190Y-84461904D01*
X163323809Y-84414285D01*
X163371428Y-84319047D01*
X163371428Y-84128571D01*
X163323809Y-84033333D01*
X163276190Y-83985714D01*
X163180952Y-83938095D01*
G04 #@! TO.C,C26*
X177407142Y-108992857D02*
X177454761Y-109040476D01*
X177502380Y-109183333D01*
X177502380Y-109278571D01*
X177454761Y-109421428D01*
X177359523Y-109516666D01*
X177264285Y-109564285D01*
X177073809Y-109611904D01*
X176930952Y-109611904D01*
X176740476Y-109564285D01*
X176645238Y-109516666D01*
X176550000Y-109421428D01*
X176502380Y-109278571D01*
X176502380Y-109183333D01*
X176550000Y-109040476D01*
X176597619Y-108992857D01*
X176597619Y-108611904D02*
X176550000Y-108564285D01*
X176502380Y-108469047D01*
X176502380Y-108230952D01*
X176550000Y-108135714D01*
X176597619Y-108088095D01*
X176692857Y-108040476D01*
X176788095Y-108040476D01*
X176930952Y-108088095D01*
X177502380Y-108659523D01*
X177502380Y-108040476D01*
X176502380Y-107183333D02*
X176502380Y-107373809D01*
X176550000Y-107469047D01*
X176597619Y-107516666D01*
X176740476Y-107611904D01*
X176930952Y-107659523D01*
X177311904Y-107659523D01*
X177407142Y-107611904D01*
X177454761Y-107564285D01*
X177502380Y-107469047D01*
X177502380Y-107278571D01*
X177454761Y-107183333D01*
X177407142Y-107135714D01*
X177311904Y-107088095D01*
X177073809Y-107088095D01*
X176978571Y-107135714D01*
X176930952Y-107183333D01*
X176883333Y-107278571D01*
X176883333Y-107469047D01*
X176930952Y-107564285D01*
X176978571Y-107611904D01*
X177073809Y-107659523D01*
G04 #@! TO.C,C27*
X160507142Y-108892857D02*
X160554761Y-108940476D01*
X160602380Y-109083333D01*
X160602380Y-109178571D01*
X160554761Y-109321428D01*
X160459523Y-109416666D01*
X160364285Y-109464285D01*
X160173809Y-109511904D01*
X160030952Y-109511904D01*
X159840476Y-109464285D01*
X159745238Y-109416666D01*
X159650000Y-109321428D01*
X159602380Y-109178571D01*
X159602380Y-109083333D01*
X159650000Y-108940476D01*
X159697619Y-108892857D01*
X159697619Y-108511904D02*
X159650000Y-108464285D01*
X159602380Y-108369047D01*
X159602380Y-108130952D01*
X159650000Y-108035714D01*
X159697619Y-107988095D01*
X159792857Y-107940476D01*
X159888095Y-107940476D01*
X160030952Y-107988095D01*
X160602380Y-108559523D01*
X160602380Y-107940476D01*
X159602380Y-107607142D02*
X159602380Y-106940476D01*
X160602380Y-107369047D01*
G04 #@! TO.C,C28*
X172507142Y-108992857D02*
X172554761Y-109040476D01*
X172602380Y-109183333D01*
X172602380Y-109278571D01*
X172554761Y-109421428D01*
X172459523Y-109516666D01*
X172364285Y-109564285D01*
X172173809Y-109611904D01*
X172030952Y-109611904D01*
X171840476Y-109564285D01*
X171745238Y-109516666D01*
X171650000Y-109421428D01*
X171602380Y-109278571D01*
X171602380Y-109183333D01*
X171650000Y-109040476D01*
X171697619Y-108992857D01*
X171697619Y-108611904D02*
X171650000Y-108564285D01*
X171602380Y-108469047D01*
X171602380Y-108230952D01*
X171650000Y-108135714D01*
X171697619Y-108088095D01*
X171792857Y-108040476D01*
X171888095Y-108040476D01*
X172030952Y-108088095D01*
X172602380Y-108659523D01*
X172602380Y-108040476D01*
X172030952Y-107469047D02*
X171983333Y-107564285D01*
X171935714Y-107611904D01*
X171840476Y-107659523D01*
X171792857Y-107659523D01*
X171697619Y-107611904D01*
X171650000Y-107564285D01*
X171602380Y-107469047D01*
X171602380Y-107278571D01*
X171650000Y-107183333D01*
X171697619Y-107135714D01*
X171792857Y-107088095D01*
X171840476Y-107088095D01*
X171935714Y-107135714D01*
X171983333Y-107183333D01*
X172030952Y-107278571D01*
X172030952Y-107469047D01*
X172078571Y-107564285D01*
X172126190Y-107611904D01*
X172221428Y-107659523D01*
X172411904Y-107659523D01*
X172507142Y-107611904D01*
X172554761Y-107564285D01*
X172602380Y-107469047D01*
X172602380Y-107278571D01*
X172554761Y-107183333D01*
X172507142Y-107135714D01*
X172411904Y-107088095D01*
X172221428Y-107088095D01*
X172126190Y-107135714D01*
X172078571Y-107183333D01*
X172030952Y-107278571D01*
G04 #@! TO.C,C29*
X155607142Y-108892857D02*
X155654761Y-108940476D01*
X155702380Y-109083333D01*
X155702380Y-109178571D01*
X155654761Y-109321428D01*
X155559523Y-109416666D01*
X155464285Y-109464285D01*
X155273809Y-109511904D01*
X155130952Y-109511904D01*
X154940476Y-109464285D01*
X154845238Y-109416666D01*
X154750000Y-109321428D01*
X154702380Y-109178571D01*
X154702380Y-109083333D01*
X154750000Y-108940476D01*
X154797619Y-108892857D01*
X154797619Y-108511904D02*
X154750000Y-108464285D01*
X154702380Y-108369047D01*
X154702380Y-108130952D01*
X154750000Y-108035714D01*
X154797619Y-107988095D01*
X154892857Y-107940476D01*
X154988095Y-107940476D01*
X155130952Y-107988095D01*
X155702380Y-108559523D01*
X155702380Y-107940476D01*
X155702380Y-107464285D02*
X155702380Y-107273809D01*
X155654761Y-107178571D01*
X155607142Y-107130952D01*
X155464285Y-107035714D01*
X155273809Y-106988095D01*
X154892857Y-106988095D01*
X154797619Y-107035714D01*
X154750000Y-107083333D01*
X154702380Y-107178571D01*
X154702380Y-107369047D01*
X154750000Y-107464285D01*
X154797619Y-107511904D01*
X154892857Y-107559523D01*
X155130952Y-107559523D01*
X155226190Y-107511904D01*
X155273809Y-107464285D01*
X155321428Y-107369047D01*
X155321428Y-107178571D01*
X155273809Y-107083333D01*
X155226190Y-107035714D01*
X155130952Y-106988095D01*
G04 #@! TO.C,FET3*
X174033333Y-89828571D02*
X173700000Y-89828571D01*
X173700000Y-90352380D02*
X173700000Y-89352380D01*
X174176190Y-89352380D01*
X174557142Y-89828571D02*
X174890476Y-89828571D01*
X175033333Y-90352380D02*
X174557142Y-90352380D01*
X174557142Y-89352380D01*
X175033333Y-89352380D01*
X175319047Y-89352380D02*
X175890476Y-89352380D01*
X175604761Y-90352380D02*
X175604761Y-89352380D01*
X176128571Y-89352380D02*
X176747619Y-89352380D01*
X176414285Y-89733333D01*
X176557142Y-89733333D01*
X176652380Y-89780952D01*
X176700000Y-89828571D01*
X176747619Y-89923809D01*
X176747619Y-90161904D01*
X176700000Y-90257142D01*
X176652380Y-90304761D01*
X176557142Y-90352380D01*
X176271428Y-90352380D01*
X176176190Y-90304761D01*
X176128571Y-90257142D01*
G04 #@! TO.C,FET4*
X168733333Y-89728571D02*
X168400000Y-89728571D01*
X168400000Y-90252380D02*
X168400000Y-89252380D01*
X168876190Y-89252380D01*
X169257142Y-89728571D02*
X169590476Y-89728571D01*
X169733333Y-90252380D02*
X169257142Y-90252380D01*
X169257142Y-89252380D01*
X169733333Y-89252380D01*
X170019047Y-89252380D02*
X170590476Y-89252380D01*
X170304761Y-90252380D02*
X170304761Y-89252380D01*
X171352380Y-89585714D02*
X171352380Y-90252380D01*
X171114285Y-89204761D02*
X170876190Y-89919047D01*
X171495238Y-89919047D01*
G04 #@! TO.C,FET5*
X157033333Y-89728571D02*
X156700000Y-89728571D01*
X156700000Y-90252380D02*
X156700000Y-89252380D01*
X157176190Y-89252380D01*
X157557142Y-89728571D02*
X157890476Y-89728571D01*
X158033333Y-90252380D02*
X157557142Y-90252380D01*
X157557142Y-89252380D01*
X158033333Y-89252380D01*
X158319047Y-89252380D02*
X158890476Y-89252380D01*
X158604761Y-90252380D02*
X158604761Y-89252380D01*
X159700000Y-89252380D02*
X159223809Y-89252380D01*
X159176190Y-89728571D01*
X159223809Y-89680952D01*
X159319047Y-89633333D01*
X159557142Y-89633333D01*
X159652380Y-89680952D01*
X159700000Y-89728571D01*
X159747619Y-89823809D01*
X159747619Y-90061904D01*
X159700000Y-90157142D01*
X159652380Y-90204761D01*
X159557142Y-90252380D01*
X159319047Y-90252380D01*
X159223809Y-90204761D01*
X159176190Y-90157142D01*
G04 #@! TO.C,FET6*
X151733333Y-89728571D02*
X151400000Y-89728571D01*
X151400000Y-90252380D02*
X151400000Y-89252380D01*
X151876190Y-89252380D01*
X152257142Y-89728571D02*
X152590476Y-89728571D01*
X152733333Y-90252380D02*
X152257142Y-90252380D01*
X152257142Y-89252380D01*
X152733333Y-89252380D01*
X153019047Y-89252380D02*
X153590476Y-89252380D01*
X153304761Y-90252380D02*
X153304761Y-89252380D01*
X154352380Y-89252380D02*
X154161904Y-89252380D01*
X154066666Y-89300000D01*
X154019047Y-89347619D01*
X153923809Y-89490476D01*
X153876190Y-89680952D01*
X153876190Y-90061904D01*
X153923809Y-90157142D01*
X153971428Y-90204761D01*
X154066666Y-90252380D01*
X154257142Y-90252380D01*
X154352380Y-90204761D01*
X154400000Y-90157142D01*
X154447619Y-90061904D01*
X154447619Y-89823809D01*
X154400000Y-89728571D01*
X154352380Y-89680952D01*
X154257142Y-89633333D01*
X154066666Y-89633333D01*
X153971428Y-89680952D01*
X153923809Y-89728571D01*
X153876190Y-89823809D01*
G04 #@! TO.C,IC2*
X171323809Y-80352380D02*
X171323809Y-79352380D01*
X172371428Y-80257142D02*
X172323809Y-80304761D01*
X172180952Y-80352380D01*
X172085714Y-80352380D01*
X171942857Y-80304761D01*
X171847619Y-80209523D01*
X171800000Y-80114285D01*
X171752380Y-79923809D01*
X171752380Y-79780952D01*
X171800000Y-79590476D01*
X171847619Y-79495238D01*
X171942857Y-79400000D01*
X172085714Y-79352380D01*
X172180952Y-79352380D01*
X172323809Y-79400000D01*
X172371428Y-79447619D01*
X172752380Y-79447619D02*
X172800000Y-79400000D01*
X172895238Y-79352380D01*
X173133333Y-79352380D01*
X173228571Y-79400000D01*
X173276190Y-79447619D01*
X173323809Y-79542857D01*
X173323809Y-79638095D01*
X173276190Y-79780952D01*
X172704761Y-80352380D01*
X173323809Y-80352380D01*
G04 #@! TO.C,IC3*
X154823809Y-80352380D02*
X154823809Y-79352380D01*
X155871428Y-80257142D02*
X155823809Y-80304761D01*
X155680952Y-80352380D01*
X155585714Y-80352380D01*
X155442857Y-80304761D01*
X155347619Y-80209523D01*
X155300000Y-80114285D01*
X155252380Y-79923809D01*
X155252380Y-79780952D01*
X155300000Y-79590476D01*
X155347619Y-79495238D01*
X155442857Y-79400000D01*
X155585714Y-79352380D01*
X155680952Y-79352380D01*
X155823809Y-79400000D01*
X155871428Y-79447619D01*
X156204761Y-79352380D02*
X156823809Y-79352380D01*
X156490476Y-79733333D01*
X156633333Y-79733333D01*
X156728571Y-79780952D01*
X156776190Y-79828571D01*
X156823809Y-79923809D01*
X156823809Y-80161904D01*
X156776190Y-80257142D01*
X156728571Y-80304761D01*
X156633333Y-80352380D01*
X156347619Y-80352380D01*
X156252380Y-80304761D01*
X156204761Y-80257142D01*
G04 #@! TO.C,J1*
X143266666Y-103652380D02*
X143266666Y-104366666D01*
X143219047Y-104509523D01*
X143123809Y-104604761D01*
X142980952Y-104652380D01*
X142885714Y-104652380D01*
X144266666Y-104652380D02*
X143695238Y-104652380D01*
X143980952Y-104652380D02*
X143980952Y-103652380D01*
X143885714Y-103795238D01*
X143790476Y-103890476D01*
X143695238Y-103938095D01*
G04 #@! TO.C,J2*
X176866666Y-103852380D02*
X176866666Y-104566666D01*
X176819047Y-104709523D01*
X176723809Y-104804761D01*
X176580952Y-104852380D01*
X176485714Y-104852380D01*
X177295238Y-103947619D02*
X177342857Y-103900000D01*
X177438095Y-103852380D01*
X177676190Y-103852380D01*
X177771428Y-103900000D01*
X177819047Y-103947619D01*
X177866666Y-104042857D01*
X177866666Y-104138095D01*
X177819047Y-104280952D01*
X177247619Y-104852380D01*
X177866666Y-104852380D01*
G04 #@! TO.C,J14*
X193752380Y-99709523D02*
X194466666Y-99709523D01*
X194609523Y-99757142D01*
X194704761Y-99852380D01*
X194752380Y-99995238D01*
X194752380Y-100090476D01*
X194752380Y-98709523D02*
X194752380Y-99280952D01*
X194752380Y-98995238D02*
X193752380Y-98995238D01*
X193895238Y-99090476D01*
X193990476Y-99185714D01*
X194038095Y-99280952D01*
X194085714Y-97852380D02*
X194752380Y-97852380D01*
X193704761Y-98090476D02*
X194419047Y-98328571D01*
X194419047Y-97709523D01*
G04 #@! TO.C,R4*
X149152380Y-96066666D02*
X148676190Y-96400000D01*
X149152380Y-96638095D02*
X148152380Y-96638095D01*
X148152380Y-96257142D01*
X148200000Y-96161904D01*
X148247619Y-96114285D01*
X148342857Y-96066666D01*
X148485714Y-96066666D01*
X148580952Y-96114285D01*
X148628571Y-96161904D01*
X148676190Y-96257142D01*
X148676190Y-96638095D01*
X148485714Y-95209523D02*
X149152380Y-95209523D01*
X148104761Y-95447619D02*
X148819047Y-95685714D01*
X148819047Y-95066666D01*
G04 #@! TO.C,R5*
X149227380Y-93466666D02*
X148751190Y-93800000D01*
X149227380Y-94038095D02*
X148227380Y-94038095D01*
X148227380Y-93657142D01*
X148275000Y-93561904D01*
X148322619Y-93514285D01*
X148417857Y-93466666D01*
X148560714Y-93466666D01*
X148655952Y-93514285D01*
X148703571Y-93561904D01*
X148751190Y-93657142D01*
X148751190Y-94038095D01*
X148227380Y-92561904D02*
X148227380Y-93038095D01*
X148703571Y-93085714D01*
X148655952Y-93038095D01*
X148608333Y-92942857D01*
X148608333Y-92704761D01*
X148655952Y-92609523D01*
X148703571Y-92561904D01*
X148798809Y-92514285D01*
X149036904Y-92514285D01*
X149132142Y-92561904D01*
X149179761Y-92609523D01*
X149227380Y-92704761D01*
X149227380Y-92942857D01*
X149179761Y-93038095D01*
X149132142Y-93085714D01*
G04 #@! TO.C,R13*
X166127380Y-96942857D02*
X165651190Y-97276190D01*
X166127380Y-97514285D02*
X165127380Y-97514285D01*
X165127380Y-97133333D01*
X165175000Y-97038095D01*
X165222619Y-96990476D01*
X165317857Y-96942857D01*
X165460714Y-96942857D01*
X165555952Y-96990476D01*
X165603571Y-97038095D01*
X165651190Y-97133333D01*
X165651190Y-97514285D01*
X166127380Y-95990476D02*
X166127380Y-96561904D01*
X166127380Y-96276190D02*
X165127380Y-96276190D01*
X165270238Y-96371428D01*
X165365476Y-96466666D01*
X165413095Y-96561904D01*
X165127380Y-95657142D02*
X165127380Y-95038095D01*
X165508333Y-95371428D01*
X165508333Y-95228571D01*
X165555952Y-95133333D01*
X165603571Y-95085714D01*
X165698809Y-95038095D01*
X165936904Y-95038095D01*
X166032142Y-95085714D01*
X166079761Y-95133333D01*
X166127380Y-95228571D01*
X166127380Y-95514285D01*
X166079761Y-95609523D01*
X166032142Y-95657142D01*
G04 #@! TO.C,R14*
X183127380Y-91042857D02*
X182651190Y-91376190D01*
X183127380Y-91614285D02*
X182127380Y-91614285D01*
X182127380Y-91233333D01*
X182175000Y-91138095D01*
X182222619Y-91090476D01*
X182317857Y-91042857D01*
X182460714Y-91042857D01*
X182555952Y-91090476D01*
X182603571Y-91138095D01*
X182651190Y-91233333D01*
X182651190Y-91614285D01*
X183127380Y-90090476D02*
X183127380Y-90661904D01*
X183127380Y-90376190D02*
X182127380Y-90376190D01*
X182270238Y-90471428D01*
X182365476Y-90566666D01*
X182413095Y-90661904D01*
X182460714Y-89233333D02*
X183127380Y-89233333D01*
X182079761Y-89471428D02*
X182794047Y-89709523D01*
X182794047Y-89090476D01*
G04 #@! TO.C,R16*
X183127380Y-88242857D02*
X182651190Y-88576190D01*
X183127380Y-88814285D02*
X182127380Y-88814285D01*
X182127380Y-88433333D01*
X182175000Y-88338095D01*
X182222619Y-88290476D01*
X182317857Y-88242857D01*
X182460714Y-88242857D01*
X182555952Y-88290476D01*
X182603571Y-88338095D01*
X182651190Y-88433333D01*
X182651190Y-88814285D01*
X183127380Y-87290476D02*
X183127380Y-87861904D01*
X183127380Y-87576190D02*
X182127380Y-87576190D01*
X182270238Y-87671428D01*
X182365476Y-87766666D01*
X182413095Y-87861904D01*
X182127380Y-86433333D02*
X182127380Y-86623809D01*
X182175000Y-86719047D01*
X182222619Y-86766666D01*
X182365476Y-86861904D01*
X182555952Y-86909523D01*
X182936904Y-86909523D01*
X183032142Y-86861904D01*
X183079761Y-86814285D01*
X183127380Y-86719047D01*
X183127380Y-86528571D01*
X183079761Y-86433333D01*
X183032142Y-86385714D01*
X182936904Y-86338095D01*
X182698809Y-86338095D01*
X182603571Y-86385714D01*
X182555952Y-86433333D01*
X182508333Y-86528571D01*
X182508333Y-86719047D01*
X182555952Y-86814285D01*
X182603571Y-86861904D01*
X182698809Y-86909523D01*
G04 #@! TO.C,R17*
X166127380Y-91542857D02*
X165651190Y-91876190D01*
X166127380Y-92114285D02*
X165127380Y-92114285D01*
X165127380Y-91733333D01*
X165175000Y-91638095D01*
X165222619Y-91590476D01*
X165317857Y-91542857D01*
X165460714Y-91542857D01*
X165555952Y-91590476D01*
X165603571Y-91638095D01*
X165651190Y-91733333D01*
X165651190Y-92114285D01*
X166127380Y-90590476D02*
X166127380Y-91161904D01*
X166127380Y-90876190D02*
X165127380Y-90876190D01*
X165270238Y-90971428D01*
X165365476Y-91066666D01*
X165413095Y-91161904D01*
X165127380Y-90257142D02*
X165127380Y-89590476D01*
X166127380Y-90019047D01*
G04 #@! TD*
%LPC*%
D12*
G04 #@! TO.C,FET2*
X136680000Y-96330000D03*
X135410000Y-96330000D03*
X134140000Y-96330000D03*
X137950000Y-96330000D03*
X134140000Y-91650000D03*
X135410000Y-91650000D03*
X136680000Y-91650000D03*
X137950000Y-91650000D03*
G04 #@! TD*
D13*
G04 #@! TO.C,R12*
X181150000Y-93650000D03*
X181150000Y-92150000D03*
G04 #@! TD*
G04 #@! TO.C,R15*
X164150000Y-94050000D03*
X164150000Y-92550000D03*
G04 #@! TD*
D14*
G04 #@! TO.C,J3*
X154250000Y-101650000D03*
X156750000Y-101650000D03*
G04 #@! TD*
D15*
G04 #@! TO.C,C42*
X114450000Y-86650000D03*
X118850000Y-86650000D03*
G04 #@! TD*
D13*
G04 #@! TO.C,R32*
X123150000Y-86950000D03*
X123150000Y-88450000D03*
G04 #@! TD*
D16*
G04 #@! TO.C,SW2*
X116950000Y-104850000D03*
X116950000Y-102350000D03*
X116950000Y-99850000D03*
G04 #@! TD*
D17*
G04 #@! TO.C,Q1*
X111750000Y-99400000D03*
X111750000Y-95600000D03*
D18*
X113850000Y-96500000D03*
X113850000Y-97200000D03*
X113850000Y-97850000D03*
X113850000Y-98500000D03*
D19*
X109550000Y-98500000D03*
X109550000Y-97850000D03*
X109550000Y-97200000D03*
X109550000Y-96550000D03*
G04 #@! TD*
D20*
G04 #@! TO.C,D2*
X125050000Y-86950000D03*
X125050000Y-88450000D03*
G04 #@! TD*
D13*
G04 #@! TO.C,R31*
X125550000Y-98250000D03*
X125550000Y-99750000D03*
G04 #@! TD*
D21*
G04 #@! TO.C,C38*
X122550000Y-102950000D03*
X122550000Y-108350000D03*
G04 #@! TD*
D22*
G04 #@! TO.C,C40*
X122575000Y-98350000D03*
X124075000Y-98350000D03*
G04 #@! TD*
D20*
G04 #@! TO.C,D1*
X127350000Y-98250000D03*
X127350000Y-99750000D03*
G04 #@! TD*
D23*
G04 #@! TO.C,D6*
X127950000Y-109370000D03*
X127950000Y-104950000D03*
G04 #@! TD*
D24*
G04 #@! TO.C,J6*
X110700000Y-103600000D03*
D25*
X113200000Y-103600000D03*
G04 #@! TD*
D26*
G04 #@! TO.C,C18*
X178700000Y-85925000D03*
X178700000Y-84425000D03*
G04 #@! TD*
G04 #@! TO.C,C20*
X178750000Y-90275000D03*
X178750000Y-91775000D03*
G04 #@! TD*
G04 #@! TO.C,C23*
X161850000Y-90175000D03*
X161850000Y-91675000D03*
G04 #@! TD*
D27*
G04 #@! TO.C,IC1*
X134525000Y-87800000D03*
X135175000Y-87800000D03*
X135825000Y-87800000D03*
X136475000Y-87800000D03*
X137125000Y-87800000D03*
X137775000Y-87800000D03*
X138425000Y-87800000D03*
X139075000Y-87800000D03*
X139725000Y-87800000D03*
X140375000Y-87800000D03*
X141025000Y-87800000D03*
X141675000Y-87800000D03*
X142325000Y-87800000D03*
X142975000Y-87800000D03*
X142975000Y-82100000D03*
X142325000Y-82100000D03*
X141675000Y-82100000D03*
X141025000Y-82100000D03*
X140375000Y-82100000D03*
X139725000Y-82100000D03*
X139075000Y-82100000D03*
X138425000Y-82100000D03*
X137775000Y-82100000D03*
X137125000Y-82100000D03*
X136475000Y-82100000D03*
X135825000Y-82100000D03*
X135175000Y-82100000D03*
X134525000Y-82100000D03*
D28*
X141063750Y-84350000D03*
X139521250Y-84350000D03*
X137978750Y-84350000D03*
X136436250Y-84350000D03*
X141063750Y-85550000D03*
X139521250Y-85550000D03*
X137978750Y-85550000D03*
X136436250Y-85550000D03*
G04 #@! TD*
D12*
G04 #@! TO.C,FET1*
X141880000Y-96330000D03*
X140610000Y-96330000D03*
X139340000Y-96330000D03*
X143150000Y-96330000D03*
X139340000Y-91650000D03*
X140610000Y-91650000D03*
X141880000Y-91650000D03*
X143150000Y-91650000D03*
G04 #@! TD*
D26*
G04 #@! TO.C,C14*
X178650000Y-81775000D03*
X178650000Y-83275000D03*
G04 #@! TD*
D13*
G04 #@! TO.C,R6*
X147250000Y-91350000D03*
X147250000Y-89850000D03*
G04 #@! TD*
D22*
G04 #@! TO.C,C43*
X120325000Y-79050000D03*
X118825000Y-79050000D03*
G04 #@! TD*
D29*
G04 #@! TO.C,U3*
X118630000Y-92970000D03*
D30*
X124750000Y-90690000D03*
X124750000Y-95250000D03*
G04 #@! TD*
D31*
G04 #@! TO.C,REF\002A\002A*
X114950000Y-80550000D03*
G04 #@! TD*
G04 #@! TO.C,REF\002A\002A*
X184550000Y-80550000D03*
G04 #@! TD*
G04 #@! TO.C,REF\002A\002A*
X192050000Y-108550000D03*
G04 #@! TD*
G04 #@! TO.C,REF\002A\002A*
X107450000Y-108550000D03*
G04 #@! TD*
D32*
G04 #@! TO.C,C41*
X121550000Y-88450000D03*
X121550000Y-87350000D03*
G04 #@! TD*
D26*
G04 #@! TO.C,C44*
X129050000Y-82675000D03*
X129050000Y-84175000D03*
G04 #@! TD*
D33*
G04 #@! TO.C,C45*
X129450000Y-91150000D03*
X129450000Y-95550000D03*
G04 #@! TD*
D20*
G04 #@! TO.C,D3*
X129050000Y-86950000D03*
X129050000Y-88450000D03*
G04 #@! TD*
D34*
G04 #@! TO.C,R30*
X108700000Y-99700000D03*
X107200000Y-99700000D03*
G04 #@! TD*
D13*
G04 #@! TO.C,R33*
X127050000Y-86950000D03*
X127050000Y-88450000D03*
G04 #@! TD*
D35*
G04 #@! TO.C,U4*
X127150000Y-84150000D03*
X127150000Y-79550000D03*
X127150000Y-81850000D03*
D36*
X120850000Y-81850000D03*
G04 #@! TD*
D26*
G04 #@! TO.C,C5*
X144850000Y-81675000D03*
X144850000Y-83175000D03*
G04 #@! TD*
G04 #@! TO.C,C7*
X144850000Y-84325000D03*
X144850000Y-85825000D03*
G04 #@! TD*
G04 #@! TO.C,C8*
X144950000Y-90175000D03*
X144950000Y-91675000D03*
G04 #@! TD*
D37*
G04 #@! TO.C,C11*
X136150000Y-109750000D03*
X136150000Y-106150000D03*
G04 #@! TD*
G04 #@! TO.C,C12*
X141050000Y-106150000D03*
X141050000Y-109750000D03*
G04 #@! TD*
D21*
G04 #@! TO.C,C13*
X184550000Y-108350000D03*
X184550000Y-102950000D03*
G04 #@! TD*
D26*
G04 #@! TO.C,C15*
X161750000Y-83175000D03*
X161750000Y-81675000D03*
G04 #@! TD*
G04 #@! TO.C,C19*
X161750000Y-85825000D03*
X161750000Y-84325000D03*
G04 #@! TD*
D37*
G04 #@! TO.C,C26*
X174850000Y-106250000D03*
X174850000Y-109850000D03*
G04 #@! TD*
G04 #@! TO.C,C27*
X157950000Y-106150000D03*
X157950000Y-109750000D03*
G04 #@! TD*
G04 #@! TO.C,C28*
X169950000Y-109850000D03*
X169950000Y-106250000D03*
G04 #@! TD*
G04 #@! TO.C,C29*
X153050000Y-109750000D03*
X153050000Y-106150000D03*
G04 #@! TD*
D12*
G04 #@! TO.C,FET3*
X175680000Y-96430000D03*
X174410000Y-96430000D03*
X173140000Y-96430000D03*
X176950000Y-96430000D03*
X173140000Y-91750000D03*
X174410000Y-91750000D03*
X175680000Y-91750000D03*
X176950000Y-91750000D03*
G04 #@! TD*
G04 #@! TO.C,FET4*
X171750000Y-91750000D03*
X170480000Y-91750000D03*
X169210000Y-91750000D03*
X167940000Y-91750000D03*
X171750000Y-96430000D03*
X167940000Y-96430000D03*
X169210000Y-96430000D03*
X170480000Y-96430000D03*
G04 #@! TD*
G04 #@! TO.C,FET5*
X160050000Y-91650000D03*
X158780000Y-91650000D03*
X157510000Y-91650000D03*
X156240000Y-91650000D03*
X160050000Y-96330000D03*
X156240000Y-96330000D03*
X157510000Y-96330000D03*
X158780000Y-96330000D03*
G04 #@! TD*
G04 #@! TO.C,FET6*
X153580000Y-96330000D03*
X152310000Y-96330000D03*
X151040000Y-96330000D03*
X154850000Y-96330000D03*
X151040000Y-91650000D03*
X152310000Y-91650000D03*
X153580000Y-91650000D03*
X154850000Y-91650000D03*
G04 #@! TD*
D27*
G04 #@! TO.C,IC2*
X168325000Y-87900000D03*
X168975000Y-87900000D03*
X169625000Y-87900000D03*
X170275000Y-87900000D03*
X170925000Y-87900000D03*
X171575000Y-87900000D03*
X172225000Y-87900000D03*
X172875000Y-87900000D03*
X173525000Y-87900000D03*
X174175000Y-87900000D03*
X174825000Y-87900000D03*
X175475000Y-87900000D03*
X176125000Y-87900000D03*
X176775000Y-87900000D03*
X176775000Y-82200000D03*
X176125000Y-82200000D03*
X175475000Y-82200000D03*
X174825000Y-82200000D03*
X174175000Y-82200000D03*
X173525000Y-82200000D03*
X172875000Y-82200000D03*
X172225000Y-82200000D03*
X171575000Y-82200000D03*
X170925000Y-82200000D03*
X170275000Y-82200000D03*
X169625000Y-82200000D03*
X168975000Y-82200000D03*
X168325000Y-82200000D03*
D28*
X174863750Y-84450000D03*
X173321250Y-84450000D03*
X171778750Y-84450000D03*
X170236250Y-84450000D03*
X174863750Y-85650000D03*
X173321250Y-85650000D03*
X171778750Y-85650000D03*
X170236250Y-85650000D03*
G04 #@! TD*
G04 #@! TO.C,IC3*
X153336250Y-85550000D03*
X154878750Y-85550000D03*
X156421250Y-85550000D03*
X157963750Y-85550000D03*
X153336250Y-84350000D03*
X154878750Y-84350000D03*
X156421250Y-84350000D03*
X157963750Y-84350000D03*
D27*
X151425000Y-82100000D03*
X152075000Y-82100000D03*
X152725000Y-82100000D03*
X153375000Y-82100000D03*
X154025000Y-82100000D03*
X154675000Y-82100000D03*
X155325000Y-82100000D03*
X155975000Y-82100000D03*
X156625000Y-82100000D03*
X157275000Y-82100000D03*
X157925000Y-82100000D03*
X158575000Y-82100000D03*
X159225000Y-82100000D03*
X159875000Y-82100000D03*
X159875000Y-87800000D03*
X159225000Y-87800000D03*
X158575000Y-87800000D03*
X157925000Y-87800000D03*
X157275000Y-87800000D03*
X156625000Y-87800000D03*
X155975000Y-87800000D03*
X155325000Y-87800000D03*
X154675000Y-87800000D03*
X154025000Y-87800000D03*
X153375000Y-87800000D03*
X152725000Y-87800000D03*
X152075000Y-87800000D03*
X151425000Y-87800000D03*
G04 #@! TD*
D14*
G04 #@! TO.C,J1*
X137350000Y-101650000D03*
X139850000Y-101650000D03*
G04 #@! TD*
G04 #@! TO.C,J2*
X173650000Y-101750000D03*
X171150000Y-101750000D03*
G04 #@! TD*
D38*
G04 #@! TO.C,J14*
X192225000Y-93900000D03*
X192225000Y-103700000D03*
D39*
X189550000Y-95550000D03*
D40*
X192225000Y-103700000D03*
X192225000Y-93900000D03*
D39*
X189550000Y-96050000D03*
X189550000Y-96550000D03*
X189550000Y-97050000D03*
X189550000Y-97550000D03*
X189550000Y-98050000D03*
X189550000Y-98550000D03*
X189550000Y-99050000D03*
X189550000Y-99550000D03*
X189550000Y-100050000D03*
X189550000Y-100550000D03*
X189550000Y-101050000D03*
X189550000Y-101550000D03*
X189550000Y-102050000D03*
G04 #@! TD*
D13*
G04 #@! TO.C,R4*
X147250000Y-96750000D03*
X147250000Y-95250000D03*
G04 #@! TD*
G04 #@! TO.C,R5*
X147250000Y-92550000D03*
X147250000Y-94050000D03*
G04 #@! TD*
G04 #@! TO.C,R13*
X164150000Y-95250000D03*
X164150000Y-96750000D03*
G04 #@! TD*
G04 #@! TO.C,R14*
X181150000Y-89550000D03*
X181150000Y-91050000D03*
G04 #@! TD*
G04 #@! TO.C,R16*
X181150000Y-86950000D03*
X181150000Y-88450000D03*
G04 #@! TD*
G04 #@! TO.C,R17*
X164150000Y-91350000D03*
X164150000Y-89850000D03*
G04 #@! TD*
M02*
