G04 #@! TF.GenerationSoftware,KiCad,Pcbnew,(5.0.0)*
G04 #@! TF.CreationDate,2019-07-10T12:28:10+09:00*
G04 #@! TF.ProjectId,MainCircuit_v2_bottom,4D61696E436972637569745F76325F62,rev?*
G04 #@! TF.SameCoordinates,Original*
G04 #@! TF.FileFunction,Soldermask,Top*
G04 #@! TF.FilePolarity,Negative*
%FSLAX46Y46*%
G04 Gerber Fmt 4.6, Leading zero omitted, Abs format (unit mm)*
G04 Created by KiCad (PCBNEW (5.0.0)) date 07/10/19 12:28:10*
%MOMM*%
%LPD*%
G01*
G04 APERTURE LIST*
%ADD10R,1.120000X2.180000*%
%ADD11R,1.200000X0.900000*%
%ADD12C,1.924000*%
%ADD13R,3.400000X2.000000*%
%ADD14C,1.600000*%
%ADD15R,0.730000X1.600000*%
%ADD16R,1.600000X0.730000*%
%ADD17R,1.700000X0.730000*%
%ADD18R,1.200000X1.200000*%
%ADD19R,2.000000X3.900000*%
%ADD20R,1.100000X1.200000*%
%ADD21R,3.134000X2.559000*%
%ADD22R,2.400000X2.400000*%
%ADD23C,2.400000*%
%ADD24R,1.200000X1.100000*%
%ADD25R,0.800000X1.500000*%
%ADD26R,1.942500X1.600000*%
%ADD27R,7.400000X5.900000*%
%ADD28R,3.600000X1.600000*%
%ADD29C,2.600000*%
%ADD30R,1.100000X0.900000*%
%ADD31R,2.000000X3.400000*%
%ADD32R,0.900000X1.200000*%
%ADD33R,1.900000X1.400000*%
%ADD34R,1.900000X3.700000*%
%ADD35R,2.400000X1.600000*%
%ADD36R,2.400000X2.600000*%
%ADD37R,1.650000X0.630000*%
%ADD38R,2.400000X2.200000*%
G04 APERTURE END LIST*
D10*
G04 #@! TO.C,FET2*
X136680000Y-96330000D03*
X135410000Y-96330000D03*
X134140000Y-96330000D03*
X137950000Y-96330000D03*
X134140000Y-91650000D03*
X135410000Y-91650000D03*
X136680000Y-91650000D03*
X137950000Y-91650000D03*
G04 #@! TD*
D11*
G04 #@! TO.C,R12*
X181150000Y-93650000D03*
X181150000Y-92150000D03*
G04 #@! TD*
G04 #@! TO.C,R15*
X164150000Y-94050000D03*
X164150000Y-92550000D03*
G04 #@! TD*
D12*
G04 #@! TO.C,J3*
X154250000Y-101650000D03*
X156750000Y-101650000D03*
G04 #@! TD*
D13*
G04 #@! TO.C,C42*
X114450000Y-86650000D03*
X118850000Y-86650000D03*
G04 #@! TD*
D11*
G04 #@! TO.C,R32*
X123150000Y-86950000D03*
X123150000Y-88450000D03*
G04 #@! TD*
D14*
G04 #@! TO.C,SW2*
X116950000Y-104850000D03*
X116950000Y-102350000D03*
X116950000Y-99850000D03*
G04 #@! TD*
D15*
G04 #@! TO.C,Q1*
X111750000Y-99400000D03*
X111750000Y-95600000D03*
D16*
X113850000Y-96500000D03*
X113850000Y-97200000D03*
X113850000Y-97850000D03*
X113850000Y-98500000D03*
D17*
X109550000Y-98500000D03*
X109550000Y-97850000D03*
X109550000Y-97200000D03*
X109550000Y-96550000D03*
G04 #@! TD*
D18*
G04 #@! TO.C,D2*
X125050000Y-86950000D03*
X125050000Y-88450000D03*
G04 #@! TD*
D11*
G04 #@! TO.C,R31*
X125550000Y-98250000D03*
X125550000Y-99750000D03*
G04 #@! TD*
D19*
G04 #@! TO.C,C38*
X122550000Y-102950000D03*
X122550000Y-108350000D03*
G04 #@! TD*
D20*
G04 #@! TO.C,C40*
X122575000Y-98350000D03*
X124075000Y-98350000D03*
G04 #@! TD*
D18*
G04 #@! TO.C,D1*
X127350000Y-98250000D03*
X127350000Y-99750000D03*
G04 #@! TD*
D21*
G04 #@! TO.C,D6*
X127950000Y-109370000D03*
X127950000Y-104950000D03*
G04 #@! TD*
D22*
G04 #@! TO.C,J6*
X110700000Y-103600000D03*
D23*
X113200000Y-103600000D03*
G04 #@! TD*
D24*
G04 #@! TO.C,C18*
X178700000Y-85925000D03*
X178700000Y-84425000D03*
G04 #@! TD*
G04 #@! TO.C,C20*
X178750000Y-90275000D03*
X178750000Y-91775000D03*
G04 #@! TD*
G04 #@! TO.C,C23*
X161850000Y-90175000D03*
X161850000Y-91675000D03*
G04 #@! TD*
D25*
G04 #@! TO.C,IC1*
X134525000Y-87800000D03*
X135175000Y-87800000D03*
X135825000Y-87800000D03*
X136475000Y-87800000D03*
X137125000Y-87800000D03*
X137775000Y-87800000D03*
X138425000Y-87800000D03*
X139075000Y-87800000D03*
X139725000Y-87800000D03*
X140375000Y-87800000D03*
X141025000Y-87800000D03*
X141675000Y-87800000D03*
X142325000Y-87800000D03*
X142975000Y-87800000D03*
X142975000Y-82100000D03*
X142325000Y-82100000D03*
X141675000Y-82100000D03*
X141025000Y-82100000D03*
X140375000Y-82100000D03*
X139725000Y-82100000D03*
X139075000Y-82100000D03*
X138425000Y-82100000D03*
X137775000Y-82100000D03*
X137125000Y-82100000D03*
X136475000Y-82100000D03*
X135825000Y-82100000D03*
X135175000Y-82100000D03*
X134525000Y-82100000D03*
D26*
X141063750Y-84350000D03*
X139521250Y-84350000D03*
X137978750Y-84350000D03*
X136436250Y-84350000D03*
X141063750Y-85550000D03*
X139521250Y-85550000D03*
X137978750Y-85550000D03*
X136436250Y-85550000D03*
G04 #@! TD*
D10*
G04 #@! TO.C,FET1*
X141880000Y-96330000D03*
X140610000Y-96330000D03*
X139340000Y-96330000D03*
X143150000Y-96330000D03*
X139340000Y-91650000D03*
X140610000Y-91650000D03*
X141880000Y-91650000D03*
X143150000Y-91650000D03*
G04 #@! TD*
D24*
G04 #@! TO.C,C14*
X178650000Y-81775000D03*
X178650000Y-83275000D03*
G04 #@! TD*
D11*
G04 #@! TO.C,R6*
X147250000Y-91350000D03*
X147250000Y-89850000D03*
G04 #@! TD*
D20*
G04 #@! TO.C,C43*
X120325000Y-79050000D03*
X118825000Y-79050000D03*
G04 #@! TD*
D27*
G04 #@! TO.C,U3*
X118630000Y-92970000D03*
D28*
X124750000Y-90690000D03*
X124750000Y-95250000D03*
G04 #@! TD*
D29*
G04 #@! TO.C,REF\002A\002A*
X114950000Y-80550000D03*
G04 #@! TD*
G04 #@! TO.C,REF\002A\002A*
X184550000Y-80550000D03*
G04 #@! TD*
G04 #@! TO.C,REF\002A\002A*
X192050000Y-108550000D03*
G04 #@! TD*
G04 #@! TO.C,REF\002A\002A*
X107450000Y-108550000D03*
G04 #@! TD*
D30*
G04 #@! TO.C,C41*
X121550000Y-88450000D03*
X121550000Y-87350000D03*
G04 #@! TD*
D24*
G04 #@! TO.C,C44*
X129050000Y-82675000D03*
X129050000Y-84175000D03*
G04 #@! TD*
D31*
G04 #@! TO.C,C45*
X129450000Y-91150000D03*
X129450000Y-95550000D03*
G04 #@! TD*
D18*
G04 #@! TO.C,D3*
X129050000Y-86950000D03*
X129050000Y-88450000D03*
G04 #@! TD*
D32*
G04 #@! TO.C,R30*
X108700000Y-99700000D03*
X107200000Y-99700000D03*
G04 #@! TD*
D11*
G04 #@! TO.C,R33*
X127050000Y-86950000D03*
X127050000Y-88450000D03*
G04 #@! TD*
D33*
G04 #@! TO.C,U4*
X127150000Y-84150000D03*
X127150000Y-79550000D03*
X127150000Y-81850000D03*
D34*
X120850000Y-81850000D03*
G04 #@! TD*
D24*
G04 #@! TO.C,C5*
X144850000Y-81675000D03*
X144850000Y-83175000D03*
G04 #@! TD*
G04 #@! TO.C,C7*
X144850000Y-84325000D03*
X144850000Y-85825000D03*
G04 #@! TD*
G04 #@! TO.C,C8*
X144950000Y-90175000D03*
X144950000Y-91675000D03*
G04 #@! TD*
D35*
G04 #@! TO.C,C11*
X136150000Y-109750000D03*
X136150000Y-106150000D03*
G04 #@! TD*
G04 #@! TO.C,C12*
X141050000Y-106150000D03*
X141050000Y-109750000D03*
G04 #@! TD*
D19*
G04 #@! TO.C,C13*
X184550000Y-108350000D03*
X184550000Y-102950000D03*
G04 #@! TD*
D24*
G04 #@! TO.C,C15*
X161750000Y-83175000D03*
X161750000Y-81675000D03*
G04 #@! TD*
G04 #@! TO.C,C19*
X161750000Y-85825000D03*
X161750000Y-84325000D03*
G04 #@! TD*
D35*
G04 #@! TO.C,C26*
X174850000Y-106250000D03*
X174850000Y-109850000D03*
G04 #@! TD*
G04 #@! TO.C,C27*
X157950000Y-106150000D03*
X157950000Y-109750000D03*
G04 #@! TD*
G04 #@! TO.C,C28*
X169950000Y-109850000D03*
X169950000Y-106250000D03*
G04 #@! TD*
G04 #@! TO.C,C29*
X153050000Y-109750000D03*
X153050000Y-106150000D03*
G04 #@! TD*
D10*
G04 #@! TO.C,FET3*
X175680000Y-96430000D03*
X174410000Y-96430000D03*
X173140000Y-96430000D03*
X176950000Y-96430000D03*
X173140000Y-91750000D03*
X174410000Y-91750000D03*
X175680000Y-91750000D03*
X176950000Y-91750000D03*
G04 #@! TD*
G04 #@! TO.C,FET4*
X171750000Y-91750000D03*
X170480000Y-91750000D03*
X169210000Y-91750000D03*
X167940000Y-91750000D03*
X171750000Y-96430000D03*
X167940000Y-96430000D03*
X169210000Y-96430000D03*
X170480000Y-96430000D03*
G04 #@! TD*
G04 #@! TO.C,FET5*
X160050000Y-91650000D03*
X158780000Y-91650000D03*
X157510000Y-91650000D03*
X156240000Y-91650000D03*
X160050000Y-96330000D03*
X156240000Y-96330000D03*
X157510000Y-96330000D03*
X158780000Y-96330000D03*
G04 #@! TD*
G04 #@! TO.C,FET6*
X153580000Y-96330000D03*
X152310000Y-96330000D03*
X151040000Y-96330000D03*
X154850000Y-96330000D03*
X151040000Y-91650000D03*
X152310000Y-91650000D03*
X153580000Y-91650000D03*
X154850000Y-91650000D03*
G04 #@! TD*
D25*
G04 #@! TO.C,IC2*
X168325000Y-87900000D03*
X168975000Y-87900000D03*
X169625000Y-87900000D03*
X170275000Y-87900000D03*
X170925000Y-87900000D03*
X171575000Y-87900000D03*
X172225000Y-87900000D03*
X172875000Y-87900000D03*
X173525000Y-87900000D03*
X174175000Y-87900000D03*
X174825000Y-87900000D03*
X175475000Y-87900000D03*
X176125000Y-87900000D03*
X176775000Y-87900000D03*
X176775000Y-82200000D03*
X176125000Y-82200000D03*
X175475000Y-82200000D03*
X174825000Y-82200000D03*
X174175000Y-82200000D03*
X173525000Y-82200000D03*
X172875000Y-82200000D03*
X172225000Y-82200000D03*
X171575000Y-82200000D03*
X170925000Y-82200000D03*
X170275000Y-82200000D03*
X169625000Y-82200000D03*
X168975000Y-82200000D03*
X168325000Y-82200000D03*
D26*
X174863750Y-84450000D03*
X173321250Y-84450000D03*
X171778750Y-84450000D03*
X170236250Y-84450000D03*
X174863750Y-85650000D03*
X173321250Y-85650000D03*
X171778750Y-85650000D03*
X170236250Y-85650000D03*
G04 #@! TD*
G04 #@! TO.C,IC3*
X153336250Y-85550000D03*
X154878750Y-85550000D03*
X156421250Y-85550000D03*
X157963750Y-85550000D03*
X153336250Y-84350000D03*
X154878750Y-84350000D03*
X156421250Y-84350000D03*
X157963750Y-84350000D03*
D25*
X151425000Y-82100000D03*
X152075000Y-82100000D03*
X152725000Y-82100000D03*
X153375000Y-82100000D03*
X154025000Y-82100000D03*
X154675000Y-82100000D03*
X155325000Y-82100000D03*
X155975000Y-82100000D03*
X156625000Y-82100000D03*
X157275000Y-82100000D03*
X157925000Y-82100000D03*
X158575000Y-82100000D03*
X159225000Y-82100000D03*
X159875000Y-82100000D03*
X159875000Y-87800000D03*
X159225000Y-87800000D03*
X158575000Y-87800000D03*
X157925000Y-87800000D03*
X157275000Y-87800000D03*
X156625000Y-87800000D03*
X155975000Y-87800000D03*
X155325000Y-87800000D03*
X154675000Y-87800000D03*
X154025000Y-87800000D03*
X153375000Y-87800000D03*
X152725000Y-87800000D03*
X152075000Y-87800000D03*
X151425000Y-87800000D03*
G04 #@! TD*
D12*
G04 #@! TO.C,J1*
X137350000Y-101650000D03*
X139850000Y-101650000D03*
G04 #@! TD*
G04 #@! TO.C,J2*
X173650000Y-101750000D03*
X171150000Y-101750000D03*
G04 #@! TD*
D36*
G04 #@! TO.C,J14*
X192225000Y-93900000D03*
X192225000Y-103700000D03*
D37*
X189550000Y-95550000D03*
D38*
X192225000Y-103700000D03*
X192225000Y-93900000D03*
D37*
X189550000Y-96050000D03*
X189550000Y-96550000D03*
X189550000Y-97050000D03*
X189550000Y-97550000D03*
X189550000Y-98050000D03*
X189550000Y-98550000D03*
X189550000Y-99050000D03*
X189550000Y-99550000D03*
X189550000Y-100050000D03*
X189550000Y-100550000D03*
X189550000Y-101050000D03*
X189550000Y-101550000D03*
X189550000Y-102050000D03*
G04 #@! TD*
D11*
G04 #@! TO.C,R4*
X147250000Y-96750000D03*
X147250000Y-95250000D03*
G04 #@! TD*
G04 #@! TO.C,R5*
X147250000Y-92550000D03*
X147250000Y-94050000D03*
G04 #@! TD*
G04 #@! TO.C,R13*
X164150000Y-95250000D03*
X164150000Y-96750000D03*
G04 #@! TD*
G04 #@! TO.C,R14*
X181150000Y-89550000D03*
X181150000Y-91050000D03*
G04 #@! TD*
G04 #@! TO.C,R16*
X181150000Y-86950000D03*
X181150000Y-88450000D03*
G04 #@! TD*
G04 #@! TO.C,R17*
X164150000Y-91350000D03*
X164150000Y-89850000D03*
G04 #@! TD*
M02*
