M48
;DRILL file {KiCad (5.0.0)} date 07/10/19 12:28:30
;FORMAT={-:-/ absolute / metric / decimal}
FMAT,2
METRIC,TZ
T1C0.400
T2C0.700
T3C0.900
T4C1.100
T5C2.200
%
G90
G05
M71
T1
X105.9Y-106.
X106.6Y-93.5
X114.45Y-86.65
X115.45Y-109.25
X117.7Y-80.9
X118.63Y-92.97
X121.8Y-85.1
X124.45Y-100.95
X124.45Y-109.25
X125.55Y-101.05
X126.6Y-109.9
X127.15Y-85.75
X127.7Y-109.9
X128.7Y-109.9
X129.05Y-79.55
X129.2Y-101.4
X129.7Y-109.9
X130.65Y-85.45
X132.495Y-80.491
X132.63Y-83.553
X132.65Y-81.553
X132.652Y-82.553
X132.75Y-90.95
X132.75Y-101.35
X132.75Y-102.25
X132.75Y-103.15
X132.75Y-104.05
X134.14Y-91.65
X135.175Y-81.153
X135.816Y-89.897
X136.45Y-86.75
X136.65Y-98.85
X136.68Y-91.65
X136.7Y-106.8
X137.Y-109.8
X137.25Y-104.25
X137.6Y-80.
X137.7Y-106.8
X137.75Y-86.75
X137.95Y-98.85
X138.1Y-109.8
X138.109Y-90.149
X138.15Y-89.15
X138.25Y-104.25
X138.7Y-106.8
X139.2Y-80.
X139.2Y-109.8
X139.25Y-104.25
X139.34Y-91.65
X139.35Y-98.85
X139.7Y-106.8
X139.75Y-86.75
X140.25Y-104.25
X140.3Y-109.8
X140.32Y-89.15
X140.65Y-98.85
X141.143Y-86.75
X141.65Y-80.905
X141.88Y-91.65
X142.8Y-89.
X143.2Y-109.9
X144.3Y-109.9
X144.5Y-101.1
X144.85Y-83.175
X144.95Y-87.15
X145.5Y-109.9
X145.9Y-88.85
X146.Y-84.35
X146.545Y-85.85
X146.6Y-109.9
X147.25Y-89.85
X147.25Y-92.55
X147.25Y-95.25
X149.4Y-85.7
X149.45Y-84.65
X149.523Y-80.481
X149.615Y-81.508
X149.615Y-82.521
X149.615Y-83.53
X149.65Y-90.95
X149.65Y-101.35
X149.65Y-102.25
X149.65Y-103.15
X149.65Y-104.05
X151.04Y-91.65
X152.075Y-81.153
X152.716Y-89.897
X153.35Y-86.75
X153.55Y-98.85
X153.58Y-91.65
X153.7Y-106.8
X154.Y-109.7
X154.15Y-104.25
X154.64Y-80.05
X154.65Y-86.75
X154.7Y-106.8
X154.85Y-90.05
X154.85Y-98.85
X155.067Y-89.074
X155.1Y-109.7
X155.15Y-104.25
X155.7Y-106.8
X156.05Y-80.05
X156.15Y-104.25
X156.2Y-109.7
X156.24Y-91.65
X156.25Y-98.85
X156.65Y-86.75
X156.7Y-106.8
X157.15Y-104.25
X157.2Y-109.7
X157.22Y-89.15
X157.55Y-98.85
X158.043Y-86.75
X158.55Y-80.905
X158.78Y-91.65
X159.7Y-89.
X160.1Y-109.7
X161.3Y-109.7
X161.7Y-83.1
X161.85Y-87.15
X161.9Y-99.4
X162.4Y-109.7
X162.8Y-84.35
X162.85Y-88.85
X163.445Y-85.85
X163.7Y-109.7
X164.15Y-89.85
X164.15Y-92.55
X164.15Y-95.25
X166.35Y-84.75
X166.38Y-80.591
X166.423Y-83.75
X166.45Y-81.75
X166.45Y-82.75
X166.495Y-85.75
X166.55Y-90.95
X166.55Y-101.35
X166.55Y-102.25
X166.6Y-103.1
X166.6Y-103.9
X167.94Y-91.75
X168.975Y-81.253
X169.618Y-90.001
X170.25Y-86.85
X170.45Y-98.95
X170.48Y-91.75
X170.6Y-106.7
X170.6Y-109.8
X171.05Y-104.25
X171.54Y-80.15
X171.55Y-86.85
X171.6Y-106.7
X171.75Y-98.95
X171.8Y-109.8
X171.905Y-90.249
X171.95Y-89.25
X172.05Y-104.25
X172.6Y-106.7
X173.Y-109.8
X173.05Y-80.25
X173.05Y-104.25
X173.14Y-91.75
X173.15Y-98.95
X173.55Y-86.85
X173.6Y-106.7
X174.05Y-104.25
X174.1Y-109.8
X174.12Y-89.25
X174.45Y-98.95
X174.943Y-86.85
X175.45Y-80.975
X175.68Y-91.75
X176.6Y-89.1
X177.9Y-91.775
X178.7Y-83.2
X179.45Y-87.2
X180.035Y-84.45
X180.05Y-85.95
X180.8Y-96.
X180.8Y-97.2
X180.8Y-98.3
X182.7Y-88.2
X182.9Y-96.7
X183.35Y-90.45
X183.51Y-92.99
X183.799Y-95.601
X184.05Y-86.95
X184.45Y-96.55
X184.497Y-93.154
X185.75Y-91.55
X186.8Y-109.5
X187.4Y-103.3
X192.8Y-97.8
T2
X116.95Y-99.85
X116.95Y-102.35
X116.95Y-104.85
T3
X154.25Y-101.65
X156.75Y-101.65
X171.15Y-101.75
X173.65Y-101.75
X137.35Y-101.65
X139.85Y-101.65
T4
X110.7Y-103.6
X113.2Y-103.6
T5
X184.55Y-80.55
X114.95Y-80.55
X192.05Y-108.55
X107.45Y-108.55
T0
M30
