G04 #@! TF.GenerationSoftware,KiCad,Pcbnew,(5.0.0)*
G04 #@! TF.CreationDate,2019-07-10T12:20:45+09:00*
G04 #@! TF.ProjectId,MainCircuit_v2_top,4D61696E436972637569745F76325F74,rev?*
G04 #@! TF.SameCoordinates,PX61d8d40PY6e87e60*
G04 #@! TF.FileFunction,Legend,Top*
G04 #@! TF.FilePolarity,Positive*
%FSLAX46Y46*%
G04 Gerber Fmt 4.6, Leading zero omitted, Abs format (unit mm)*
G04 Created by KiCad (PCBNEW (5.0.0)) date 07/10/19 12:20:45*
%MOMM*%
%LPD*%
G01*
G04 APERTURE LIST*
%ADD10C,0.150000*%
%ADD11C,0.120000*%
%ADD12R,1.924000X1.924000*%
%ADD13C,1.924000*%
%ADD14R,1.100000X1.200000*%
%ADD15C,2.600000*%
%ADD16R,1.200000X1.100000*%
%ADD17R,1.000000X1.950000*%
%ADD18R,1.600000X2.200000*%
%ADD19R,1.950000X1.000000*%
%ADD20R,2.200000X1.600000*%
%ADD21R,1.150000X0.900000*%
%ADD22R,1.200000X1.300000*%
%ADD23R,0.900000X1.200000*%
%ADD24R,1.200000X0.900000*%
%ADD25R,0.900000X0.650000*%
%ADD26R,2.000000X1.050000*%
%ADD27R,1.900000X1.050000*%
%ADD28R,0.680000X1.600000*%
%ADD29R,1.600000X0.680000*%
%ADD30R,1.275000X1.200000*%
%ADD31R,0.600000X0.950000*%
%ADD32R,0.950000X0.600000*%
%ADD33R,1.200000X1.200000*%
%ADD34R,2.000000X3.900000*%
%ADD35R,2.000000X2.900000*%
%ADD36R,1.600000X2.600000*%
G04 APERTURE END LIST*
D10*
G04 #@! TO.C,SW4*
X8671708Y14150000D02*
G75*
G03X8671708Y14150000I-2371708J0D01*
G01*
X1300000Y18900000D02*
X1300000Y8900000D01*
X1300000Y8900000D02*
X11300000Y8900000D01*
X11300000Y18900000D02*
X11300000Y8900000D01*
X1300000Y18900000D02*
X11300000Y18900000D01*
G04 #@! TO.C,C12*
X42325000Y31050000D02*
X40725000Y31050000D01*
X42325000Y30250000D02*
X42325000Y31050000D01*
X42325000Y30250000D02*
X40725000Y30250000D01*
X40725000Y30250000D02*
X40725000Y31050000D01*
G04 #@! TO.C,C2*
X30500000Y18925000D02*
X30500000Y20525000D01*
X29700000Y18925000D02*
X30500000Y18925000D01*
X29700000Y18925000D02*
X29700000Y20525000D01*
X29700000Y20525000D02*
X30500000Y20525000D01*
G04 #@! TO.C,C5*
X55900000Y26575000D02*
X55900000Y24975000D01*
X56700000Y26575000D02*
X55900000Y26575000D01*
X56700000Y26575000D02*
X56700000Y24975000D01*
X56700000Y24975000D02*
X55900000Y24975000D01*
G04 #@! TO.C,C11*
X42100000Y29150000D02*
X42100000Y27550000D01*
X42900000Y29150000D02*
X42100000Y29150000D01*
X42900000Y29150000D02*
X42900000Y27550000D01*
X42900000Y27550000D02*
X42100000Y27550000D01*
G04 #@! TO.C,C13*
X18200000Y2650000D02*
X18200000Y4250000D01*
X17400000Y2650000D02*
X18200000Y2650000D01*
X17400000Y2650000D02*
X17400000Y4250000D01*
X17400000Y4250000D02*
X18200000Y4250000D01*
G04 #@! TO.C,C14*
X28700000Y2525000D02*
X28700000Y4125000D01*
X27900000Y2525000D02*
X28700000Y2525000D01*
X27900000Y2525000D02*
X27900000Y4125000D01*
X27900000Y4125000D02*
X28700000Y4125000D01*
G04 #@! TO.C,C15*
X40300000Y29175000D02*
X40300000Y27575000D01*
X41100000Y29175000D02*
X40300000Y29175000D01*
X41100000Y29175000D02*
X41100000Y27575000D01*
X41100000Y27575000D02*
X40300000Y27575000D01*
G04 #@! TO.C,C16*
X18200000Y21925000D02*
X18200000Y23525000D01*
X17400000Y21925000D02*
X18200000Y21925000D01*
X17400000Y21925000D02*
X17400000Y23525000D01*
X17400000Y23525000D02*
X18200000Y23525000D01*
G04 #@! TO.C,C17*
X38300000Y2725000D02*
X38300000Y4325000D01*
X37500000Y2725000D02*
X38300000Y2725000D01*
X37500000Y2725000D02*
X37500000Y4325000D01*
X37500000Y4325000D02*
X38300000Y4325000D01*
G04 #@! TO.C,C20*
X18850000Y14500000D02*
X20450000Y14500000D01*
X18850000Y15300000D02*
X18850000Y14500000D01*
X18850000Y15300000D02*
X20450000Y15300000D01*
X20450000Y15300000D02*
X20450000Y14500000D01*
D11*
G04 #@! TO.C,J3*
X69950000Y27975000D02*
G75*
G03X69950000Y27975000I-250000J0D01*
G01*
X70300000Y31525000D02*
X73100000Y31525000D01*
X69200000Y29625000D02*
X69200000Y28625000D01*
X69200000Y28625000D02*
X70100000Y28625000D01*
X69700000Y28625000D02*
X69700000Y29625000D01*
X69700000Y29625000D02*
X69700000Y29625000D01*
X69700000Y29625000D02*
X69700000Y28625000D01*
X69700000Y28625000D02*
X69700000Y28625000D01*
X69700000Y29225000D02*
X69700000Y29225000D01*
X69700000Y29225000D02*
X69200000Y29225000D01*
X69200000Y29225000D02*
X69200000Y29225000D01*
X69200000Y29225000D02*
X69700000Y29225000D01*
X74200000Y29625000D02*
X74200000Y28625000D01*
X74200000Y28625000D02*
X73300000Y28625000D01*
X73700000Y28625000D02*
X73700000Y29625000D01*
X73700000Y29625000D02*
X73700000Y29625000D01*
X73700000Y29625000D02*
X73700000Y28625000D01*
X73700000Y28625000D02*
X73700000Y28625000D01*
X73700000Y29225000D02*
X73700000Y29225000D01*
X73700000Y29225000D02*
X74200000Y29225000D01*
X74200000Y29225000D02*
X74200000Y29225000D01*
X74200000Y29225000D02*
X73700000Y29225000D01*
X70300000Y30625000D02*
X70300000Y31125000D01*
X70300000Y31125000D02*
X73100000Y31125000D01*
X73100000Y31125000D02*
X73100000Y30625000D01*
X70300000Y30025000D02*
X70300000Y29375000D01*
X70300000Y29375000D02*
X73100000Y29375000D01*
X73100000Y29375000D02*
X73100000Y30025000D01*
X70700000Y30625000D02*
X70700000Y30425000D01*
X71700000Y30625000D02*
X71700000Y30425000D01*
X72700000Y30625000D02*
X72700000Y30425000D01*
G04 #@! TO.C,J4*
X85862500Y15700000D02*
G75*
G03X85862500Y15700000I-250000J0D01*
G01*
X89162500Y15100000D02*
X89162500Y9300000D01*
X87262500Y16200000D02*
X86262500Y16200000D01*
X86262500Y16200000D02*
X86262500Y15300000D01*
X86262500Y15700000D02*
X87262500Y15700000D01*
X87262500Y15700000D02*
X87262500Y15700000D01*
X87262500Y15700000D02*
X86262500Y15700000D01*
X86262500Y15700000D02*
X86262500Y15700000D01*
X86862500Y15700000D02*
X86862500Y15700000D01*
X86862500Y15700000D02*
X86862500Y16200000D01*
X86862500Y16200000D02*
X86862500Y16200000D01*
X86862500Y16200000D02*
X86862500Y15700000D01*
X87262500Y8200000D02*
X86262500Y8200000D01*
X86262500Y8200000D02*
X86262500Y9100000D01*
X86262500Y8700000D02*
X87262500Y8700000D01*
X87262500Y8700000D02*
X87262500Y8700000D01*
X87262500Y8700000D02*
X86262500Y8700000D01*
X86262500Y8700000D02*
X86262500Y8700000D01*
X86862500Y8700000D02*
X86862500Y8700000D01*
X86862500Y8700000D02*
X86862500Y8200000D01*
X86862500Y8200000D02*
X86862500Y8200000D01*
X86862500Y8200000D02*
X86862500Y8700000D01*
X88262500Y15100000D02*
X88762500Y15100000D01*
X88762500Y15100000D02*
X88762500Y9300000D01*
X88762500Y9300000D02*
X88262500Y9300000D01*
X87662500Y15100000D02*
X87012500Y15100000D01*
X87012500Y15100000D02*
X87012500Y9300000D01*
X87012500Y9300000D02*
X87662500Y9300000D01*
X88262500Y14700000D02*
X88062500Y14700000D01*
X88262500Y13700000D02*
X88062500Y13700000D01*
X88262500Y12700000D02*
X88062500Y12700000D01*
X88262500Y11700000D02*
X88062500Y11700000D01*
X88262500Y10700000D02*
X88062500Y10700000D01*
X88262500Y9700000D02*
X88062500Y9700000D01*
G04 #@! TO.C,J5*
X15750000Y27875000D02*
G75*
G03X15750000Y27875000I-250000J0D01*
G01*
X16100000Y31425000D02*
X18900000Y31425000D01*
X15000000Y29525000D02*
X15000000Y28525000D01*
X15000000Y28525000D02*
X15900000Y28525000D01*
X15500000Y28525000D02*
X15500000Y29525000D01*
X15500000Y29525000D02*
X15500000Y29525000D01*
X15500000Y29525000D02*
X15500000Y28525000D01*
X15500000Y28525000D02*
X15500000Y28525000D01*
X15500000Y29125000D02*
X15500000Y29125000D01*
X15500000Y29125000D02*
X15000000Y29125000D01*
X15000000Y29125000D02*
X15000000Y29125000D01*
X15000000Y29125000D02*
X15500000Y29125000D01*
X20000000Y29525000D02*
X20000000Y28525000D01*
X20000000Y28525000D02*
X19100000Y28525000D01*
X19500000Y28525000D02*
X19500000Y29525000D01*
X19500000Y29525000D02*
X19500000Y29525000D01*
X19500000Y29525000D02*
X19500000Y28525000D01*
X19500000Y28525000D02*
X19500000Y28525000D01*
X19500000Y29125000D02*
X19500000Y29125000D01*
X19500000Y29125000D02*
X20000000Y29125000D01*
X20000000Y29125000D02*
X20000000Y29125000D01*
X20000000Y29125000D02*
X19500000Y29125000D01*
X16100000Y30525000D02*
X16100000Y31025000D01*
X16100000Y31025000D02*
X18900000Y31025000D01*
X18900000Y31025000D02*
X18900000Y30525000D01*
X16100000Y29925000D02*
X16100000Y29275000D01*
X16100000Y29275000D02*
X18900000Y29275000D01*
X18900000Y29275000D02*
X18900000Y29925000D01*
X16500000Y30525000D02*
X16500000Y30325000D01*
X17500000Y30525000D02*
X17500000Y30325000D01*
X18500000Y30525000D02*
X18500000Y30325000D01*
G04 #@! TO.C,J6*
X78362500Y26000000D02*
G75*
G03X78362500Y26000000I-250000J0D01*
G01*
X81662500Y25400000D02*
X81662500Y21600000D01*
X79762500Y26500000D02*
X78762500Y26500000D01*
X78762500Y26500000D02*
X78762500Y25600000D01*
X78762500Y26000000D02*
X79762500Y26000000D01*
X79762500Y26000000D02*
X79762500Y26000000D01*
X79762500Y26000000D02*
X78762500Y26000000D01*
X78762500Y26000000D02*
X78762500Y26000000D01*
X79362500Y26000000D02*
X79362500Y26000000D01*
X79362500Y26000000D02*
X79362500Y26500000D01*
X79362500Y26500000D02*
X79362500Y26500000D01*
X79362500Y26500000D02*
X79362500Y26000000D01*
X79762500Y20500000D02*
X78762500Y20500000D01*
X78762500Y20500000D02*
X78762500Y21400000D01*
X78762500Y21000000D02*
X79762500Y21000000D01*
X79762500Y21000000D02*
X79762500Y21000000D01*
X79762500Y21000000D02*
X78762500Y21000000D01*
X78762500Y21000000D02*
X78762500Y21000000D01*
X79362500Y21000000D02*
X79362500Y21000000D01*
X79362500Y21000000D02*
X79362500Y20500000D01*
X79362500Y20500000D02*
X79362500Y20500000D01*
X79362500Y20500000D02*
X79362500Y21000000D01*
X80762500Y25400000D02*
X81262500Y25400000D01*
X81262500Y25400000D02*
X81262500Y21600000D01*
X81262500Y21600000D02*
X80762500Y21600000D01*
X80162500Y25400000D02*
X79512500Y25400000D01*
X79512500Y25400000D02*
X79512500Y21600000D01*
X79512500Y21600000D02*
X80162500Y21600000D01*
X80762500Y25000000D02*
X80562500Y25000000D01*
X80762500Y24000000D02*
X80562500Y24000000D01*
X80762500Y23000000D02*
X80562500Y23000000D01*
X80762500Y22000000D02*
X80562500Y22000000D01*
G04 #@! TO.C,J8*
X60550000Y27975000D02*
G75*
G03X60550000Y27975000I-250000J0D01*
G01*
X60900000Y31525000D02*
X63700000Y31525000D01*
X59800000Y29625000D02*
X59800000Y28625000D01*
X59800000Y28625000D02*
X60700000Y28625000D01*
X60300000Y28625000D02*
X60300000Y29625000D01*
X60300000Y29625000D02*
X60300000Y29625000D01*
X60300000Y29625000D02*
X60300000Y28625000D01*
X60300000Y28625000D02*
X60300000Y28625000D01*
X60300000Y29225000D02*
X60300000Y29225000D01*
X60300000Y29225000D02*
X59800000Y29225000D01*
X59800000Y29225000D02*
X59800000Y29225000D01*
X59800000Y29225000D02*
X60300000Y29225000D01*
X64800000Y29625000D02*
X64800000Y28625000D01*
X64800000Y28625000D02*
X63900000Y28625000D01*
X64300000Y28625000D02*
X64300000Y29625000D01*
X64300000Y29625000D02*
X64300000Y29625000D01*
X64300000Y29625000D02*
X64300000Y28625000D01*
X64300000Y28625000D02*
X64300000Y28625000D01*
X64300000Y29225000D02*
X64300000Y29225000D01*
X64300000Y29225000D02*
X64800000Y29225000D01*
X64800000Y29225000D02*
X64800000Y29225000D01*
X64800000Y29225000D02*
X64300000Y29225000D01*
X60900000Y30625000D02*
X60900000Y31125000D01*
X60900000Y31125000D02*
X63700000Y31125000D01*
X63700000Y31125000D02*
X63700000Y30625000D01*
X60900000Y30025000D02*
X60900000Y29375000D01*
X60900000Y29375000D02*
X63700000Y29375000D01*
X63700000Y29375000D02*
X63700000Y30025000D01*
X61300000Y30625000D02*
X61300000Y30425000D01*
X62300000Y30625000D02*
X62300000Y30425000D01*
X63300000Y30625000D02*
X63300000Y30425000D01*
G04 #@! TO.C,J9*
X27800000Y30562500D02*
X27800000Y30362500D01*
X26800000Y30562500D02*
X26800000Y30362500D01*
X25800000Y30562500D02*
X25800000Y30362500D01*
X24800000Y30562500D02*
X24800000Y30362500D01*
X28200000Y29312500D02*
X28200000Y29962500D01*
X24400000Y29312500D02*
X28200000Y29312500D01*
X24400000Y29962500D02*
X24400000Y29312500D01*
X28200000Y31062500D02*
X28200000Y30562500D01*
X24400000Y31062500D02*
X28200000Y31062500D01*
X24400000Y30562500D02*
X24400000Y31062500D01*
X29300000Y29162500D02*
X28800000Y29162500D01*
X29300000Y29162500D02*
X29300000Y29162500D01*
X28800000Y29162500D02*
X29300000Y29162500D01*
X28800000Y29162500D02*
X28800000Y29162500D01*
X28800000Y28562500D02*
X28800000Y28562500D01*
X28800000Y29562500D02*
X28800000Y28562500D01*
X28800000Y29562500D02*
X28800000Y29562500D01*
X28800000Y28562500D02*
X28800000Y29562500D01*
X29300000Y28562500D02*
X28400000Y28562500D01*
X29300000Y29562500D02*
X29300000Y28562500D01*
X23300000Y29162500D02*
X23800000Y29162500D01*
X23300000Y29162500D02*
X23300000Y29162500D01*
X23800000Y29162500D02*
X23300000Y29162500D01*
X23800000Y29162500D02*
X23800000Y29162500D01*
X23800000Y28562500D02*
X23800000Y28562500D01*
X23800000Y29562500D02*
X23800000Y28562500D01*
X23800000Y29562500D02*
X23800000Y29562500D01*
X23800000Y28562500D02*
X23800000Y29562500D01*
X23300000Y28562500D02*
X24200000Y28562500D01*
X23300000Y29562500D02*
X23300000Y28562500D01*
X24400000Y31462500D02*
X28200000Y31462500D01*
X24050000Y27912500D02*
G75*
G03X24050000Y27912500I-250000J0D01*
G01*
G04 #@! TO.C,J10*
X37100000Y30562500D02*
X37100000Y30362500D01*
X36100000Y30562500D02*
X36100000Y30362500D01*
X35100000Y30562500D02*
X35100000Y30362500D01*
X34100000Y30562500D02*
X34100000Y30362500D01*
X37500000Y29312500D02*
X37500000Y29962500D01*
X33700000Y29312500D02*
X37500000Y29312500D01*
X33700000Y29962500D02*
X33700000Y29312500D01*
X37500000Y31062500D02*
X37500000Y30562500D01*
X33700000Y31062500D02*
X37500000Y31062500D01*
X33700000Y30562500D02*
X33700000Y31062500D01*
X38600000Y29162500D02*
X38100000Y29162500D01*
X38600000Y29162500D02*
X38600000Y29162500D01*
X38100000Y29162500D02*
X38600000Y29162500D01*
X38100000Y29162500D02*
X38100000Y29162500D01*
X38100000Y28562500D02*
X38100000Y28562500D01*
X38100000Y29562500D02*
X38100000Y28562500D01*
X38100000Y29562500D02*
X38100000Y29562500D01*
X38100000Y28562500D02*
X38100000Y29562500D01*
X38600000Y28562500D02*
X37700000Y28562500D01*
X38600000Y29562500D02*
X38600000Y28562500D01*
X32600000Y29162500D02*
X33100000Y29162500D01*
X32600000Y29162500D02*
X32600000Y29162500D01*
X33100000Y29162500D02*
X32600000Y29162500D01*
X33100000Y29162500D02*
X33100000Y29162500D01*
X33100000Y28562500D02*
X33100000Y28562500D01*
X33100000Y29562500D02*
X33100000Y28562500D01*
X33100000Y29562500D02*
X33100000Y29562500D01*
X33100000Y28562500D02*
X33100000Y29562500D01*
X32600000Y28562500D02*
X33500000Y28562500D01*
X32600000Y29562500D02*
X32600000Y28562500D01*
X33700000Y31462500D02*
X37500000Y31462500D01*
X33350000Y27912500D02*
G75*
G03X33350000Y27912500I-250000J0D01*
G01*
D10*
G04 #@! TO.C,LED1*
X46300000Y3200000D02*
X46300000Y1700000D01*
X44700000Y3200000D02*
X46300000Y3200000D01*
X44700000Y1700000D02*
X44700000Y3200000D01*
X46300000Y1700000D02*
X44700000Y1700000D01*
G04 #@! TO.C,Q1*
X52400000Y28800000D02*
X52400000Y30200000D01*
X55400000Y28800000D02*
X52400000Y28800000D01*
X55400000Y30200000D02*
X55400000Y28800000D01*
X52400000Y30200000D02*
X55400000Y30200000D01*
G04 #@! TO.C,R1*
X31650000Y17300000D02*
X30050000Y17300000D01*
X31650000Y17300000D02*
X31650000Y18100000D01*
X31650000Y18100000D02*
X30050000Y18100000D01*
X30050000Y17300000D02*
X30050000Y18100000D01*
G04 #@! TO.C,R2*
X54000000Y12250000D02*
X54000000Y10650000D01*
X54000000Y12250000D02*
X53200000Y12250000D01*
X53200000Y12250000D02*
X53200000Y10650000D01*
X54000000Y10650000D02*
X53200000Y10650000D01*
G04 #@! TO.C,R3*
X57900000Y12250000D02*
X57900000Y10650000D01*
X57900000Y12250000D02*
X57100000Y12250000D01*
X57100000Y12250000D02*
X57100000Y10650000D01*
X57900000Y10650000D02*
X57100000Y10650000D01*
G04 #@! TO.C,R4*
X61800000Y12250000D02*
X61800000Y10650000D01*
X61800000Y12250000D02*
X61000000Y12250000D01*
X61000000Y12250000D02*
X61000000Y10650000D01*
X61800000Y10650000D02*
X61000000Y10650000D01*
G04 #@! TO.C,R5*
X65700000Y12250000D02*
X65700000Y10650000D01*
X65700000Y12250000D02*
X64900000Y12250000D01*
X64900000Y12250000D02*
X64900000Y10650000D01*
X65700000Y10650000D02*
X64900000Y10650000D01*
G04 #@! TO.C,R7*
X53150000Y25500000D02*
X54750000Y25500000D01*
X53150000Y25500000D02*
X53150000Y24700000D01*
X53150000Y24700000D02*
X54750000Y24700000D01*
X54750000Y25500000D02*
X54750000Y24700000D01*
G04 #@! TO.C,R8*
X54750000Y26100000D02*
X53150000Y26100000D01*
X54750000Y26100000D02*
X54750000Y26900000D01*
X54750000Y26900000D02*
X53150000Y26900000D01*
X53150000Y26100000D02*
X53150000Y26900000D01*
G04 #@! TO.C,R9*
X69600000Y12250000D02*
X69600000Y10650000D01*
X69600000Y12250000D02*
X68800000Y12250000D01*
X68800000Y12250000D02*
X68800000Y10650000D01*
X69600000Y10650000D02*
X68800000Y10650000D01*
G04 #@! TO.C,R10*
X73600000Y12250000D02*
X73600000Y10650000D01*
X73600000Y12250000D02*
X72800000Y12250000D01*
X72800000Y12250000D02*
X72800000Y10650000D01*
X73600000Y10650000D02*
X72800000Y10650000D01*
G04 #@! TO.C,R11*
X13800000Y4250000D02*
X13800000Y2650000D01*
X13800000Y4250000D02*
X13000000Y4250000D01*
X13000000Y4250000D02*
X13000000Y2650000D01*
X13800000Y2650000D02*
X13000000Y2650000D01*
G04 #@! TO.C,R12*
X24200000Y4150000D02*
X24200000Y2550000D01*
X24200000Y4150000D02*
X23400000Y4150000D01*
X23400000Y4150000D02*
X23400000Y2550000D01*
X24200000Y2550000D02*
X23400000Y2550000D01*
G04 #@! TO.C,R13*
X15200000Y2650000D02*
X15200000Y4250000D01*
X15200000Y2650000D02*
X16000000Y2650000D01*
X16000000Y2650000D02*
X16000000Y4250000D01*
X15200000Y4250000D02*
X16000000Y4250000D01*
G04 #@! TO.C,R14*
X25700000Y2550000D02*
X25700000Y4150000D01*
X25700000Y2550000D02*
X26500000Y2550000D01*
X26500000Y2550000D02*
X26500000Y4150000D01*
X25700000Y4150000D02*
X26500000Y4150000D01*
G04 #@! TO.C,R15*
X14600000Y21950000D02*
X14600000Y23550000D01*
X14600000Y21950000D02*
X15400000Y21950000D01*
X15400000Y21950000D02*
X15400000Y23550000D01*
X14600000Y23550000D02*
X15400000Y23550000D01*
G04 #@! TO.C,R16*
X33900000Y4350000D02*
X33900000Y2750000D01*
X33900000Y4350000D02*
X33100000Y4350000D01*
X33100000Y4350000D02*
X33100000Y2750000D01*
X33900000Y2750000D02*
X33100000Y2750000D01*
G04 #@! TO.C,R17*
X16000000Y21950000D02*
X16000000Y23550000D01*
X16000000Y21950000D02*
X16800000Y21950000D01*
X16800000Y21950000D02*
X16800000Y23550000D01*
X16000000Y23550000D02*
X16800000Y23550000D01*
G04 #@! TO.C,R18*
X35300000Y2750000D02*
X35300000Y4350000D01*
X35300000Y2750000D02*
X36100000Y2750000D01*
X36100000Y2750000D02*
X36100000Y4350000D01*
X35300000Y4350000D02*
X36100000Y4350000D01*
D11*
G04 #@! TO.C,RN1*
X51050000Y26930000D02*
X50550000Y26930000D01*
X51050000Y24570000D02*
X50550000Y24570000D01*
D10*
G04 #@! TO.C,SW1*
X26788061Y19000000D02*
G75*
G03X26788061Y19000000I-1044031J0D01*
G01*
X28000000Y20600000D02*
X28000000Y17400000D01*
X23400000Y20600000D02*
X28000000Y20600000D01*
X23400000Y17400000D02*
X23400000Y20600000D01*
X28000000Y17400000D02*
X23400000Y17400000D01*
G04 #@! TO.C,SW2*
X16588061Y6750000D02*
G75*
G03X16588061Y6750000I-1044031J0D01*
G01*
X17800000Y8350000D02*
X17800000Y5150000D01*
X13200000Y8350000D02*
X17800000Y8350000D01*
X13200000Y5150000D02*
X13200000Y8350000D01*
X17800000Y5150000D02*
X13200000Y5150000D01*
G04 #@! TO.C,SW3*
X26988061Y6700000D02*
G75*
G03X26988061Y6700000I-1044031J0D01*
G01*
X28200000Y8300000D02*
X28200000Y5100000D01*
X23600000Y8300000D02*
X28200000Y8300000D01*
X23600000Y5100000D02*
X23600000Y8300000D01*
X28200000Y5100000D02*
X23600000Y5100000D01*
G04 #@! TO.C,SW5*
X36588061Y6750000D02*
G75*
G03X36588061Y6750000I-1044031J0D01*
G01*
X37800000Y8350000D02*
X37800000Y5150000D01*
X33200000Y8350000D02*
X37800000Y8350000D01*
X33200000Y5150000D02*
X33200000Y8350000D01*
X37800000Y5150000D02*
X33200000Y5150000D01*
G04 #@! TO.C,U1*
X41860555Y20500000D02*
G75*
G03X41860555Y20500000I-360555J0D01*
G01*
X40350000Y21650000D02*
X50650000Y21650000D01*
X40350000Y21600000D02*
X40350000Y21650000D01*
X40350000Y21550000D02*
X40350000Y21600000D01*
X40350000Y11350000D02*
X40350000Y21550000D01*
X50650000Y11350000D02*
X40350000Y11350000D01*
X50650000Y21650000D02*
X50650000Y11350000D01*
G04 #@! TO.C,U2*
X47065000Y28000000D02*
X46665000Y28000000D01*
X47065000Y31200000D02*
X47065000Y30800000D01*
X43865000Y31200000D02*
X43865000Y30800000D01*
X43865000Y28000000D02*
X43865000Y28400000D01*
X43865000Y31200000D02*
X44265000Y31200000D01*
X47065000Y31200000D02*
X46665000Y31200000D01*
X43865000Y28000000D02*
X44265000Y28000000D01*
X46955000Y28140000D02*
X43955000Y28140000D01*
X43955000Y28140000D02*
X43955000Y31140000D01*
X43955000Y31140000D02*
X46955000Y31140000D01*
X46955000Y31140000D02*
X46955000Y28140000D01*
G04 #@! TO.C,D1*
X69000000Y23700000D02*
X70500000Y23700000D01*
X69500000Y24200000D02*
X69500000Y23200000D01*
X69900000Y23200000D02*
X69900000Y24200000D01*
X69500000Y23700000D02*
X69900000Y23200000D01*
X69900000Y24200000D02*
X69500000Y23700000D01*
X69000000Y23200000D02*
X69000000Y24200000D01*
X70500000Y23200000D02*
X69000000Y23200000D01*
X70500000Y24200000D02*
X70500000Y23200000D01*
X69000000Y24200000D02*
X70500000Y24200000D01*
G04 #@! TO.C,D2*
X72700000Y23700000D02*
X74200000Y23700000D01*
X73200000Y24200000D02*
X73200000Y23200000D01*
X73600000Y23200000D02*
X73600000Y24200000D01*
X73200000Y23700000D02*
X73600000Y23200000D01*
X73600000Y24200000D02*
X73200000Y23700000D01*
X72700000Y23200000D02*
X72700000Y24200000D01*
X74200000Y23200000D02*
X72700000Y23200000D01*
X74200000Y24200000D02*
X74200000Y23200000D01*
X72700000Y24200000D02*
X74200000Y24200000D01*
G04 #@! TO.C,R25*
X68950000Y26100000D02*
X70550000Y26100000D01*
X68950000Y26100000D02*
X68950000Y25300000D01*
X68950000Y25300000D02*
X70550000Y25300000D01*
X70550000Y26100000D02*
X70550000Y25300000D01*
G04 #@! TO.C,R26*
X72650000Y26100000D02*
X74250000Y26100000D01*
X72650000Y26100000D02*
X72650000Y25300000D01*
X72650000Y25300000D02*
X74250000Y25300000D01*
X74250000Y26100000D02*
X74250000Y25300000D01*
D11*
G04 #@! TO.C,J7*
X12975000Y21500000D02*
G75*
G03X12975000Y21500000I-250000J0D01*
G01*
X9175000Y22100000D02*
X9175000Y25900000D01*
X11075000Y21000000D02*
X12075000Y21000000D01*
X12075000Y21000000D02*
X12075000Y21900000D01*
X12075000Y21500000D02*
X11075000Y21500000D01*
X11075000Y21500000D02*
X11075000Y21500000D01*
X11075000Y21500000D02*
X12075000Y21500000D01*
X12075000Y21500000D02*
X12075000Y21500000D01*
X11475000Y21500000D02*
X11475000Y21500000D01*
X11475000Y21500000D02*
X11475000Y21000000D01*
X11475000Y21000000D02*
X11475000Y21000000D01*
X11475000Y21000000D02*
X11475000Y21500000D01*
X11075000Y27000000D02*
X12075000Y27000000D01*
X12075000Y27000000D02*
X12075000Y26100000D01*
X12075000Y26500000D02*
X11075000Y26500000D01*
X11075000Y26500000D02*
X11075000Y26500000D01*
X11075000Y26500000D02*
X12075000Y26500000D01*
X12075000Y26500000D02*
X12075000Y26500000D01*
X11475000Y26500000D02*
X11475000Y26500000D01*
X11475000Y26500000D02*
X11475000Y27000000D01*
X11475000Y27000000D02*
X11475000Y27000000D01*
X11475000Y27000000D02*
X11475000Y26500000D01*
X10075000Y22100000D02*
X9575000Y22100000D01*
X9575000Y22100000D02*
X9575000Y25900000D01*
X9575000Y25900000D02*
X10075000Y25900000D01*
X10675000Y22100000D02*
X11325000Y22100000D01*
X11325000Y22100000D02*
X11325000Y25900000D01*
X11325000Y25900000D02*
X10675000Y25900000D01*
X10075000Y22500000D02*
X10275000Y22500000D01*
X10075000Y23500000D02*
X10275000Y23500000D01*
X10075000Y24500000D02*
X10275000Y24500000D01*
X10075000Y25500000D02*
X10275000Y25500000D01*
D10*
G04 #@! TO.C,C22*
X76400000Y6675000D02*
X75600000Y6675000D01*
X76400000Y8275000D02*
X76400000Y6675000D01*
X76400000Y8275000D02*
X75600000Y8275000D01*
X75600000Y8275000D02*
X75600000Y6675000D01*
D11*
G04 #@! TO.C,C23*
X83800000Y7840000D02*
X83800000Y2000000D01*
X83040000Y8600000D02*
X83800000Y7840000D01*
X77200000Y7840000D02*
X77960000Y8600000D01*
X77200000Y2000000D02*
X77200000Y7840000D01*
X83040000Y8600000D02*
X81620000Y8600000D01*
X77960000Y8600000D02*
X79380000Y8600000D01*
X83800000Y2000000D02*
X81620000Y2000000D01*
X77200000Y2000000D02*
X79380000Y2000000D01*
D10*
G04 #@! TO.C,RV1*
X51900000Y8050000D02*
X55300000Y8050000D01*
X55300000Y8050000D02*
X55300000Y4650000D01*
X55300000Y4650000D02*
X51900000Y4650000D01*
X51900000Y4650000D02*
X51900000Y8050000D01*
G04 #@! TO.C,RV2*
X55800000Y8050000D02*
X59200000Y8050000D01*
X59200000Y8050000D02*
X59200000Y4650000D01*
X59200000Y4650000D02*
X55800000Y4650000D01*
X55800000Y4650000D02*
X55800000Y8050000D01*
G04 #@! TO.C,RV3*
X59700000Y4650000D02*
X59700000Y8050000D01*
X63100000Y4650000D02*
X59700000Y4650000D01*
X63100000Y8050000D02*
X63100000Y4650000D01*
X59700000Y8050000D02*
X63100000Y8050000D01*
G04 #@! TO.C,RV4*
X63600000Y4600000D02*
X63600000Y8000000D01*
X67000000Y4600000D02*
X63600000Y4600000D01*
X67000000Y8000000D02*
X67000000Y4600000D01*
X63600000Y8000000D02*
X67000000Y8000000D01*
G04 #@! TO.C,RV5*
X67500000Y8050000D02*
X70900000Y8050000D01*
X70900000Y8050000D02*
X70900000Y4650000D01*
X70900000Y4650000D02*
X67500000Y4650000D01*
X67500000Y4650000D02*
X67500000Y8050000D01*
G04 #@! TO.C,RV6*
X71500000Y4600000D02*
X71500000Y8000000D01*
X74900000Y4600000D02*
X71500000Y4600000D01*
X74900000Y8000000D02*
X74900000Y4600000D01*
X71500000Y8000000D02*
X74900000Y8000000D01*
G04 #@! TO.C,SW4*
X4866666Y6795239D02*
X5009523Y6747620D01*
X5247619Y6747620D01*
X5342857Y6795239D01*
X5390476Y6842858D01*
X5438095Y6938096D01*
X5438095Y7033334D01*
X5390476Y7128572D01*
X5342857Y7176191D01*
X5247619Y7223810D01*
X5057142Y7271429D01*
X4961904Y7319048D01*
X4914285Y7366667D01*
X4866666Y7461905D01*
X4866666Y7557143D01*
X4914285Y7652381D01*
X4961904Y7700000D01*
X5057142Y7747620D01*
X5295238Y7747620D01*
X5438095Y7700000D01*
X5771428Y7747620D02*
X6009523Y6747620D01*
X6200000Y7461905D01*
X6390476Y6747620D01*
X6628571Y7747620D01*
X7438095Y7414286D02*
X7438095Y6747620D01*
X7200000Y7795239D02*
X6961904Y7080953D01*
X7580952Y7080953D01*
G04 #@! TO.C,C12*
X41107142Y24957143D02*
X41154761Y24909524D01*
X41202380Y24766667D01*
X41202380Y24671429D01*
X41154761Y24528572D01*
X41059523Y24433334D01*
X40964285Y24385715D01*
X40773809Y24338096D01*
X40630952Y24338096D01*
X40440476Y24385715D01*
X40345238Y24433334D01*
X40250000Y24528572D01*
X40202380Y24671429D01*
X40202380Y24766667D01*
X40250000Y24909524D01*
X40297619Y24957143D01*
X41202380Y25909524D02*
X41202380Y25338096D01*
X41202380Y25623810D02*
X40202380Y25623810D01*
X40345238Y25528572D01*
X40440476Y25433334D01*
X40488095Y25338096D01*
X40297619Y26290477D02*
X40250000Y26338096D01*
X40202380Y26433334D01*
X40202380Y26671429D01*
X40250000Y26766667D01*
X40297619Y26814286D01*
X40392857Y26861905D01*
X40488095Y26861905D01*
X40630952Y26814286D01*
X41202380Y26242858D01*
X41202380Y26861905D01*
G04 #@! TO.C,REF\002A\002A*
X1866666Y-5252380D02*
X1533333Y-4776190D01*
X1295238Y-5252380D02*
X1295238Y-4252380D01*
X1676190Y-4252380D01*
X1771428Y-4300000D01*
X1819047Y-4347619D01*
X1866666Y-4442857D01*
X1866666Y-4585714D01*
X1819047Y-4680952D01*
X1771428Y-4728571D01*
X1676190Y-4776190D01*
X1295238Y-4776190D01*
X2295238Y-4728571D02*
X2628571Y-4728571D01*
X2771428Y-5252380D02*
X2295238Y-5252380D01*
X2295238Y-4252380D01*
X2771428Y-4252380D01*
X3533333Y-4728571D02*
X3200000Y-4728571D01*
X3200000Y-5252380D02*
X3200000Y-4252380D01*
X3676190Y-4252380D01*
X4200000Y-4252380D02*
X4200000Y-4490476D01*
X3961904Y-4395238D02*
X4200000Y-4490476D01*
X4438095Y-4395238D01*
X4057142Y-4680952D02*
X4200000Y-4490476D01*
X4342857Y-4680952D01*
X4961904Y-4252380D02*
X4961904Y-4490476D01*
X4723809Y-4395238D02*
X4961904Y-4490476D01*
X5200000Y-4395238D01*
X4819047Y-4680952D02*
X4961904Y-4490476D01*
X5104761Y-4680952D01*
X86766666Y-6752380D02*
X86433333Y-6276190D01*
X86195238Y-6752380D02*
X86195238Y-5752380D01*
X86576190Y-5752380D01*
X86671428Y-5800000D01*
X86719047Y-5847619D01*
X86766666Y-5942857D01*
X86766666Y-6085714D01*
X86719047Y-6180952D01*
X86671428Y-6228571D01*
X86576190Y-6276190D01*
X86195238Y-6276190D01*
X87195238Y-6228571D02*
X87528571Y-6228571D01*
X87671428Y-6752380D02*
X87195238Y-6752380D01*
X87195238Y-5752380D01*
X87671428Y-5752380D01*
X88433333Y-6228571D02*
X88100000Y-6228571D01*
X88100000Y-6752380D02*
X88100000Y-5752380D01*
X88576190Y-5752380D01*
X89100000Y-5752380D02*
X89100000Y-5990476D01*
X88861904Y-5895238D02*
X89100000Y-5990476D01*
X89338095Y-5895238D01*
X88957142Y-6180952D02*
X89100000Y-5990476D01*
X89242857Y-6180952D01*
X89861904Y-5752380D02*
X89861904Y-5990476D01*
X89623809Y-5895238D02*
X89861904Y-5990476D01*
X90100000Y-5895238D01*
X89719047Y-6180952D02*
X89861904Y-5990476D01*
X90004761Y-6180952D01*
X9566666Y34147620D02*
X9233333Y34623810D01*
X8995238Y34147620D02*
X8995238Y35147620D01*
X9376190Y35147620D01*
X9471428Y35100000D01*
X9519047Y35052381D01*
X9566666Y34957143D01*
X9566666Y34814286D01*
X9519047Y34719048D01*
X9471428Y34671429D01*
X9376190Y34623810D01*
X8995238Y34623810D01*
X9995238Y34671429D02*
X10328571Y34671429D01*
X10471428Y34147620D02*
X9995238Y34147620D01*
X9995238Y35147620D01*
X10471428Y35147620D01*
X11233333Y34671429D02*
X10900000Y34671429D01*
X10900000Y34147620D02*
X10900000Y35147620D01*
X11376190Y35147620D01*
X11900000Y35147620D02*
X11900000Y34909524D01*
X11661904Y35004762D02*
X11900000Y34909524D01*
X12138095Y35004762D01*
X11757142Y34719048D02*
X11900000Y34909524D01*
X12042857Y34719048D01*
X12661904Y35147620D02*
X12661904Y34909524D01*
X12423809Y35004762D02*
X12661904Y34909524D01*
X12900000Y35004762D01*
X12519047Y34719048D02*
X12661904Y34909524D01*
X12804761Y34719048D01*
G04 #@! TO.C,C2*
X29933333Y21442858D02*
X29885714Y21395239D01*
X29742857Y21347620D01*
X29647619Y21347620D01*
X29504761Y21395239D01*
X29409523Y21490477D01*
X29361904Y21585715D01*
X29314285Y21776191D01*
X29314285Y21919048D01*
X29361904Y22109524D01*
X29409523Y22204762D01*
X29504761Y22300000D01*
X29647619Y22347620D01*
X29742857Y22347620D01*
X29885714Y22300000D01*
X29933333Y22252381D01*
X30314285Y22252381D02*
X30361904Y22300000D01*
X30457142Y22347620D01*
X30695238Y22347620D01*
X30790476Y22300000D01*
X30838095Y22252381D01*
X30885714Y22157143D01*
X30885714Y22061905D01*
X30838095Y21919048D01*
X30266666Y21347620D01*
X30885714Y21347620D01*
G04 #@! TO.C,C5*
X58257142Y25633334D02*
X58304761Y25585715D01*
X58352380Y25442858D01*
X58352380Y25347620D01*
X58304761Y25204762D01*
X58209523Y25109524D01*
X58114285Y25061905D01*
X57923809Y25014286D01*
X57780952Y25014286D01*
X57590476Y25061905D01*
X57495238Y25109524D01*
X57400000Y25204762D01*
X57352380Y25347620D01*
X57352380Y25442858D01*
X57400000Y25585715D01*
X57447619Y25633334D01*
X57352380Y26538096D02*
X57352380Y26061905D01*
X57828571Y26014286D01*
X57780952Y26061905D01*
X57733333Y26157143D01*
X57733333Y26395239D01*
X57780952Y26490477D01*
X57828571Y26538096D01*
X57923809Y26585715D01*
X58161904Y26585715D01*
X58257142Y26538096D01*
X58304761Y26490477D01*
X58352380Y26395239D01*
X58352380Y26157143D01*
X58304761Y26061905D01*
X58257142Y26014286D01*
G04 #@! TO.C,C11*
X42857142Y24857143D02*
X42904761Y24809524D01*
X42952380Y24666667D01*
X42952380Y24571429D01*
X42904761Y24428572D01*
X42809523Y24333334D01*
X42714285Y24285715D01*
X42523809Y24238096D01*
X42380952Y24238096D01*
X42190476Y24285715D01*
X42095238Y24333334D01*
X42000000Y24428572D01*
X41952380Y24571429D01*
X41952380Y24666667D01*
X42000000Y24809524D01*
X42047619Y24857143D01*
X42952380Y25809524D02*
X42952380Y25238096D01*
X42952380Y25523810D02*
X41952380Y25523810D01*
X42095238Y25428572D01*
X42190476Y25333334D01*
X42238095Y25238096D01*
X42952380Y26761905D02*
X42952380Y26190477D01*
X42952380Y26476191D02*
X41952380Y26476191D01*
X42095238Y26380953D01*
X42190476Y26285715D01*
X42238095Y26190477D01*
G04 #@! TO.C,C13*
X19457142Y2857143D02*
X19504761Y2809524D01*
X19552380Y2666667D01*
X19552380Y2571429D01*
X19504761Y2428572D01*
X19409523Y2333334D01*
X19314285Y2285715D01*
X19123809Y2238096D01*
X18980952Y2238096D01*
X18790476Y2285715D01*
X18695238Y2333334D01*
X18600000Y2428572D01*
X18552380Y2571429D01*
X18552380Y2666667D01*
X18600000Y2809524D01*
X18647619Y2857143D01*
X19552380Y3809524D02*
X19552380Y3238096D01*
X19552380Y3523810D02*
X18552380Y3523810D01*
X18695238Y3428572D01*
X18790476Y3333334D01*
X18838095Y3238096D01*
X18552380Y4142858D02*
X18552380Y4761905D01*
X18933333Y4428572D01*
X18933333Y4571429D01*
X18980952Y4666667D01*
X19028571Y4714286D01*
X19123809Y4761905D01*
X19361904Y4761905D01*
X19457142Y4714286D01*
X19504761Y4666667D01*
X19552380Y4571429D01*
X19552380Y4285715D01*
X19504761Y4190477D01*
X19457142Y4142858D01*
G04 #@! TO.C,C14*
X29957142Y2757143D02*
X30004761Y2709524D01*
X30052380Y2566667D01*
X30052380Y2471429D01*
X30004761Y2328572D01*
X29909523Y2233334D01*
X29814285Y2185715D01*
X29623809Y2138096D01*
X29480952Y2138096D01*
X29290476Y2185715D01*
X29195238Y2233334D01*
X29100000Y2328572D01*
X29052380Y2471429D01*
X29052380Y2566667D01*
X29100000Y2709524D01*
X29147619Y2757143D01*
X30052380Y3709524D02*
X30052380Y3138096D01*
X30052380Y3423810D02*
X29052380Y3423810D01*
X29195238Y3328572D01*
X29290476Y3233334D01*
X29338095Y3138096D01*
X29385714Y4566667D02*
X30052380Y4566667D01*
X29004761Y4328572D02*
X29719047Y4090477D01*
X29719047Y4709524D01*
G04 #@! TO.C,C15*
X40857142Y31642858D02*
X40809523Y31595239D01*
X40666666Y31547620D01*
X40571428Y31547620D01*
X40428571Y31595239D01*
X40333333Y31690477D01*
X40285714Y31785715D01*
X40238095Y31976191D01*
X40238095Y32119048D01*
X40285714Y32309524D01*
X40333333Y32404762D01*
X40428571Y32500000D01*
X40571428Y32547620D01*
X40666666Y32547620D01*
X40809523Y32500000D01*
X40857142Y32452381D01*
X41809523Y31547620D02*
X41238095Y31547620D01*
X41523809Y31547620D02*
X41523809Y32547620D01*
X41428571Y32404762D01*
X41333333Y32309524D01*
X41238095Y32261905D01*
X42714285Y32547620D02*
X42238095Y32547620D01*
X42190476Y32071429D01*
X42238095Y32119048D01*
X42333333Y32166667D01*
X42571428Y32166667D01*
X42666666Y32119048D01*
X42714285Y32071429D01*
X42761904Y31976191D01*
X42761904Y31738096D01*
X42714285Y31642858D01*
X42666666Y31595239D01*
X42571428Y31547620D01*
X42333333Y31547620D01*
X42238095Y31595239D01*
X42190476Y31642858D01*
G04 #@! TO.C,C16*
X18257142Y19457143D02*
X18304761Y19409524D01*
X18352380Y19266667D01*
X18352380Y19171429D01*
X18304761Y19028572D01*
X18209523Y18933334D01*
X18114285Y18885715D01*
X17923809Y18838096D01*
X17780952Y18838096D01*
X17590476Y18885715D01*
X17495238Y18933334D01*
X17400000Y19028572D01*
X17352380Y19171429D01*
X17352380Y19266667D01*
X17400000Y19409524D01*
X17447619Y19457143D01*
X18352380Y20409524D02*
X18352380Y19838096D01*
X18352380Y20123810D02*
X17352380Y20123810D01*
X17495238Y20028572D01*
X17590476Y19933334D01*
X17638095Y19838096D01*
X17352380Y21266667D02*
X17352380Y21076191D01*
X17400000Y20980953D01*
X17447619Y20933334D01*
X17590476Y20838096D01*
X17780952Y20790477D01*
X18161904Y20790477D01*
X18257142Y20838096D01*
X18304761Y20885715D01*
X18352380Y20980953D01*
X18352380Y21171429D01*
X18304761Y21266667D01*
X18257142Y21314286D01*
X18161904Y21361905D01*
X17923809Y21361905D01*
X17828571Y21314286D01*
X17780952Y21266667D01*
X17733333Y21171429D01*
X17733333Y20980953D01*
X17780952Y20885715D01*
X17828571Y20838096D01*
X17923809Y20790477D01*
G04 #@! TO.C,C17*
X39557142Y2857143D02*
X39604761Y2809524D01*
X39652380Y2666667D01*
X39652380Y2571429D01*
X39604761Y2428572D01*
X39509523Y2333334D01*
X39414285Y2285715D01*
X39223809Y2238096D01*
X39080952Y2238096D01*
X38890476Y2285715D01*
X38795238Y2333334D01*
X38700000Y2428572D01*
X38652380Y2571429D01*
X38652380Y2666667D01*
X38700000Y2809524D01*
X38747619Y2857143D01*
X39652380Y3809524D02*
X39652380Y3238096D01*
X39652380Y3523810D02*
X38652380Y3523810D01*
X38795238Y3428572D01*
X38890476Y3333334D01*
X38938095Y3238096D01*
X38652380Y4142858D02*
X38652380Y4809524D01*
X39652380Y4380953D01*
G04 #@! TO.C,C20*
X19057142Y16042858D02*
X19009523Y15995239D01*
X18866666Y15947620D01*
X18771428Y15947620D01*
X18628571Y15995239D01*
X18533333Y16090477D01*
X18485714Y16185715D01*
X18438095Y16376191D01*
X18438095Y16519048D01*
X18485714Y16709524D01*
X18533333Y16804762D01*
X18628571Y16900000D01*
X18771428Y16947620D01*
X18866666Y16947620D01*
X19009523Y16900000D01*
X19057142Y16852381D01*
X19438095Y16852381D02*
X19485714Y16900000D01*
X19580952Y16947620D01*
X19819047Y16947620D01*
X19914285Y16900000D01*
X19961904Y16852381D01*
X20009523Y16757143D01*
X20009523Y16661905D01*
X19961904Y16519048D01*
X19390476Y15947620D01*
X20009523Y15947620D01*
X20628571Y16947620D02*
X20723809Y16947620D01*
X20819047Y16900000D01*
X20866666Y16852381D01*
X20914285Y16757143D01*
X20961904Y16566667D01*
X20961904Y16328572D01*
X20914285Y16138096D01*
X20866666Y16042858D01*
X20819047Y15995239D01*
X20723809Y15947620D01*
X20628571Y15947620D01*
X20533333Y15995239D01*
X20485714Y16042858D01*
X20438095Y16138096D01*
X20390476Y16328572D01*
X20390476Y16566667D01*
X20438095Y16757143D01*
X20485714Y16852381D01*
X20533333Y16900000D01*
X20628571Y16947620D01*
G04 #@! TO.C,J3*
X75266666Y29347620D02*
X75266666Y28633334D01*
X75219047Y28490477D01*
X75123809Y28395239D01*
X74980952Y28347620D01*
X74885714Y28347620D01*
X75647619Y29347620D02*
X76266666Y29347620D01*
X75933333Y28966667D01*
X76076190Y28966667D01*
X76171428Y28919048D01*
X76219047Y28871429D01*
X76266666Y28776191D01*
X76266666Y28538096D01*
X76219047Y28442858D01*
X76171428Y28395239D01*
X76076190Y28347620D01*
X75790476Y28347620D01*
X75695238Y28395239D01*
X75647619Y28442858D01*
G04 #@! TO.C,J4*
X87166666Y18647620D02*
X87166666Y17933334D01*
X87119047Y17790477D01*
X87023809Y17695239D01*
X86880952Y17647620D01*
X86785714Y17647620D01*
X88071428Y18314286D02*
X88071428Y17647620D01*
X87833333Y18695239D02*
X87595238Y17980953D01*
X88214285Y17980953D01*
G04 #@! TO.C,J5*
X17166666Y26647620D02*
X17166666Y25933334D01*
X17119047Y25790477D01*
X17023809Y25695239D01*
X16880952Y25647620D01*
X16785714Y25647620D01*
X18119047Y26647620D02*
X17642857Y26647620D01*
X17595238Y26171429D01*
X17642857Y26219048D01*
X17738095Y26266667D01*
X17976190Y26266667D01*
X18071428Y26219048D01*
X18119047Y26171429D01*
X18166666Y26076191D01*
X18166666Y25838096D01*
X18119047Y25742858D01*
X18071428Y25695239D01*
X17976190Y25647620D01*
X17738095Y25647620D01*
X17642857Y25695239D01*
X17595238Y25742858D01*
G04 #@! TO.C,J6*
X79966666Y19447620D02*
X79966666Y18733334D01*
X79919047Y18590477D01*
X79823809Y18495239D01*
X79680952Y18447620D01*
X79585714Y18447620D01*
X80871428Y19447620D02*
X80680952Y19447620D01*
X80585714Y19400000D01*
X80538095Y19352381D01*
X80442857Y19209524D01*
X80395238Y19019048D01*
X80395238Y18638096D01*
X80442857Y18542858D01*
X80490476Y18495239D01*
X80585714Y18447620D01*
X80776190Y18447620D01*
X80871428Y18495239D01*
X80919047Y18542858D01*
X80966666Y18638096D01*
X80966666Y18876191D01*
X80919047Y18971429D01*
X80871428Y19019048D01*
X80776190Y19066667D01*
X80585714Y19066667D01*
X80490476Y19019048D01*
X80442857Y18971429D01*
X80395238Y18876191D01*
G04 #@! TO.C,J8*
X61966666Y26347620D02*
X61966666Y25633334D01*
X61919047Y25490477D01*
X61823809Y25395239D01*
X61680952Y25347620D01*
X61585714Y25347620D01*
X62585714Y25919048D02*
X62490476Y25966667D01*
X62442857Y26014286D01*
X62395238Y26109524D01*
X62395238Y26157143D01*
X62442857Y26252381D01*
X62490476Y26300000D01*
X62585714Y26347620D01*
X62776190Y26347620D01*
X62871428Y26300000D01*
X62919047Y26252381D01*
X62966666Y26157143D01*
X62966666Y26109524D01*
X62919047Y26014286D01*
X62871428Y25966667D01*
X62776190Y25919048D01*
X62585714Y25919048D01*
X62490476Y25871429D01*
X62442857Y25823810D01*
X62395238Y25728572D01*
X62395238Y25538096D01*
X62442857Y25442858D01*
X62490476Y25395239D01*
X62585714Y25347620D01*
X62776190Y25347620D01*
X62871428Y25395239D01*
X62919047Y25442858D01*
X62966666Y25538096D01*
X62966666Y25728572D01*
X62919047Y25823810D01*
X62871428Y25871429D01*
X62776190Y25919048D01*
G04 #@! TO.C,J9*
X25966666Y26747620D02*
X25966666Y26033334D01*
X25919047Y25890477D01*
X25823809Y25795239D01*
X25680952Y25747620D01*
X25585714Y25747620D01*
X26490476Y25747620D02*
X26680952Y25747620D01*
X26776190Y25795239D01*
X26823809Y25842858D01*
X26919047Y25985715D01*
X26966666Y26176191D01*
X26966666Y26557143D01*
X26919047Y26652381D01*
X26871428Y26700000D01*
X26776190Y26747620D01*
X26585714Y26747620D01*
X26490476Y26700000D01*
X26442857Y26652381D01*
X26395238Y26557143D01*
X26395238Y26319048D01*
X26442857Y26223810D01*
X26490476Y26176191D01*
X26585714Y26128572D01*
X26776190Y26128572D01*
X26871428Y26176191D01*
X26919047Y26223810D01*
X26966666Y26319048D01*
G04 #@! TO.C,J10*
X34790476Y26947620D02*
X34790476Y26233334D01*
X34742857Y26090477D01*
X34647619Y25995239D01*
X34504761Y25947620D01*
X34409523Y25947620D01*
X35790476Y25947620D02*
X35219047Y25947620D01*
X35504761Y25947620D02*
X35504761Y26947620D01*
X35409523Y26804762D01*
X35314285Y26709524D01*
X35219047Y26661905D01*
X36409523Y26947620D02*
X36504761Y26947620D01*
X36600000Y26900000D01*
X36647619Y26852381D01*
X36695238Y26757143D01*
X36742857Y26566667D01*
X36742857Y26328572D01*
X36695238Y26138096D01*
X36647619Y26042858D01*
X36600000Y25995239D01*
X36504761Y25947620D01*
X36409523Y25947620D01*
X36314285Y25995239D01*
X36266666Y26042858D01*
X36219047Y26138096D01*
X36171428Y26328572D01*
X36171428Y26566667D01*
X36219047Y26757143D01*
X36266666Y26852381D01*
X36314285Y26900000D01*
X36409523Y26947620D01*
G04 #@! TO.C,LED1*
X44580952Y3847620D02*
X44104761Y3847620D01*
X44104761Y4847620D01*
X44914285Y4371429D02*
X45247619Y4371429D01*
X45390476Y3847620D02*
X44914285Y3847620D01*
X44914285Y4847620D01*
X45390476Y4847620D01*
X45819047Y3847620D02*
X45819047Y4847620D01*
X46057142Y4847620D01*
X46200000Y4800000D01*
X46295238Y4704762D01*
X46342857Y4609524D01*
X46390476Y4419048D01*
X46390476Y4276191D01*
X46342857Y4085715D01*
X46295238Y3990477D01*
X46200000Y3895239D01*
X46057142Y3847620D01*
X45819047Y3847620D01*
X47342857Y3847620D02*
X46771428Y3847620D01*
X47057142Y3847620D02*
X47057142Y4847620D01*
X46961904Y4704762D01*
X46866666Y4609524D01*
X46771428Y4561905D01*
G04 #@! TO.C,Q1*
X53804761Y31552381D02*
X53709523Y31600000D01*
X53614285Y31695239D01*
X53471428Y31838096D01*
X53376190Y31885715D01*
X53280952Y31885715D01*
X53328571Y31647620D02*
X53233333Y31695239D01*
X53138095Y31790477D01*
X53090476Y31980953D01*
X53090476Y32314286D01*
X53138095Y32504762D01*
X53233333Y32600000D01*
X53328571Y32647620D01*
X53519047Y32647620D01*
X53614285Y32600000D01*
X53709523Y32504762D01*
X53757142Y32314286D01*
X53757142Y31980953D01*
X53709523Y31790477D01*
X53614285Y31695239D01*
X53519047Y31647620D01*
X53328571Y31647620D01*
X54709523Y31647620D02*
X54138095Y31647620D01*
X54423809Y31647620D02*
X54423809Y32647620D01*
X54328571Y32504762D01*
X54233333Y32409524D01*
X54138095Y32361905D01*
G04 #@! TO.C,R1*
X30833333Y15847620D02*
X30500000Y16323810D01*
X30261904Y15847620D02*
X30261904Y16847620D01*
X30642857Y16847620D01*
X30738095Y16800000D01*
X30785714Y16752381D01*
X30833333Y16657143D01*
X30833333Y16514286D01*
X30785714Y16419048D01*
X30738095Y16371429D01*
X30642857Y16323810D01*
X30261904Y16323810D01*
X31785714Y15847620D02*
X31214285Y15847620D01*
X31500000Y15847620D02*
X31500000Y16847620D01*
X31404761Y16704762D01*
X31309523Y16609524D01*
X31214285Y16561905D01*
G04 #@! TO.C,R2*
X55577380Y10983334D02*
X55101190Y10650000D01*
X55577380Y10411905D02*
X54577380Y10411905D01*
X54577380Y10792858D01*
X54625000Y10888096D01*
X54672619Y10935715D01*
X54767857Y10983334D01*
X54910714Y10983334D01*
X55005952Y10935715D01*
X55053571Y10888096D01*
X55101190Y10792858D01*
X55101190Y10411905D01*
X54672619Y11364286D02*
X54625000Y11411905D01*
X54577380Y11507143D01*
X54577380Y11745239D01*
X54625000Y11840477D01*
X54672619Y11888096D01*
X54767857Y11935715D01*
X54863095Y11935715D01*
X55005952Y11888096D01*
X55577380Y11316667D01*
X55577380Y11935715D01*
G04 #@! TO.C,R3*
X59477380Y10983334D02*
X59001190Y10650000D01*
X59477380Y10411905D02*
X58477380Y10411905D01*
X58477380Y10792858D01*
X58525000Y10888096D01*
X58572619Y10935715D01*
X58667857Y10983334D01*
X58810714Y10983334D01*
X58905952Y10935715D01*
X58953571Y10888096D01*
X59001190Y10792858D01*
X59001190Y10411905D01*
X58477380Y11316667D02*
X58477380Y11935715D01*
X58858333Y11602381D01*
X58858333Y11745239D01*
X58905952Y11840477D01*
X58953571Y11888096D01*
X59048809Y11935715D01*
X59286904Y11935715D01*
X59382142Y11888096D01*
X59429761Y11840477D01*
X59477380Y11745239D01*
X59477380Y11459524D01*
X59429761Y11364286D01*
X59382142Y11316667D01*
G04 #@! TO.C,R4*
X63377380Y10983334D02*
X62901190Y10650000D01*
X63377380Y10411905D02*
X62377380Y10411905D01*
X62377380Y10792858D01*
X62425000Y10888096D01*
X62472619Y10935715D01*
X62567857Y10983334D01*
X62710714Y10983334D01*
X62805952Y10935715D01*
X62853571Y10888096D01*
X62901190Y10792858D01*
X62901190Y10411905D01*
X62710714Y11840477D02*
X63377380Y11840477D01*
X62329761Y11602381D02*
X63044047Y11364286D01*
X63044047Y11983334D01*
G04 #@! TO.C,R5*
X67277380Y10983334D02*
X66801190Y10650000D01*
X67277380Y10411905D02*
X66277380Y10411905D01*
X66277380Y10792858D01*
X66325000Y10888096D01*
X66372619Y10935715D01*
X66467857Y10983334D01*
X66610714Y10983334D01*
X66705952Y10935715D01*
X66753571Y10888096D01*
X66801190Y10792858D01*
X66801190Y10411905D01*
X66277380Y11888096D02*
X66277380Y11411905D01*
X66753571Y11364286D01*
X66705952Y11411905D01*
X66658333Y11507143D01*
X66658333Y11745239D01*
X66705952Y11840477D01*
X66753571Y11888096D01*
X66848809Y11935715D01*
X67086904Y11935715D01*
X67182142Y11888096D01*
X67229761Y11840477D01*
X67277380Y11745239D01*
X67277380Y11507143D01*
X67229761Y11411905D01*
X67182142Y11364286D01*
G04 #@! TO.C,R7*
X53733333Y23147620D02*
X53400000Y23623810D01*
X53161904Y23147620D02*
X53161904Y24147620D01*
X53542857Y24147620D01*
X53638095Y24100000D01*
X53685714Y24052381D01*
X53733333Y23957143D01*
X53733333Y23814286D01*
X53685714Y23719048D01*
X53638095Y23671429D01*
X53542857Y23623810D01*
X53161904Y23623810D01*
X54066666Y24147620D02*
X54733333Y24147620D01*
X54304761Y23147620D01*
G04 #@! TO.C,R8*
X53733333Y27147620D02*
X53400000Y27623810D01*
X53161904Y27147620D02*
X53161904Y28147620D01*
X53542857Y28147620D01*
X53638095Y28100000D01*
X53685714Y28052381D01*
X53733333Y27957143D01*
X53733333Y27814286D01*
X53685714Y27719048D01*
X53638095Y27671429D01*
X53542857Y27623810D01*
X53161904Y27623810D01*
X54304761Y27719048D02*
X54209523Y27766667D01*
X54161904Y27814286D01*
X54114285Y27909524D01*
X54114285Y27957143D01*
X54161904Y28052381D01*
X54209523Y28100000D01*
X54304761Y28147620D01*
X54495238Y28147620D01*
X54590476Y28100000D01*
X54638095Y28052381D01*
X54685714Y27957143D01*
X54685714Y27909524D01*
X54638095Y27814286D01*
X54590476Y27766667D01*
X54495238Y27719048D01*
X54304761Y27719048D01*
X54209523Y27671429D01*
X54161904Y27623810D01*
X54114285Y27528572D01*
X54114285Y27338096D01*
X54161904Y27242858D01*
X54209523Y27195239D01*
X54304761Y27147620D01*
X54495238Y27147620D01*
X54590476Y27195239D01*
X54638095Y27242858D01*
X54685714Y27338096D01*
X54685714Y27528572D01*
X54638095Y27623810D01*
X54590476Y27671429D01*
X54495238Y27719048D01*
G04 #@! TO.C,R9*
X71177380Y10983334D02*
X70701190Y10650000D01*
X71177380Y10411905D02*
X70177380Y10411905D01*
X70177380Y10792858D01*
X70225000Y10888096D01*
X70272619Y10935715D01*
X70367857Y10983334D01*
X70510714Y10983334D01*
X70605952Y10935715D01*
X70653571Y10888096D01*
X70701190Y10792858D01*
X70701190Y10411905D01*
X71177380Y11459524D02*
X71177380Y11650000D01*
X71129761Y11745239D01*
X71082142Y11792858D01*
X70939285Y11888096D01*
X70748809Y11935715D01*
X70367857Y11935715D01*
X70272619Y11888096D01*
X70225000Y11840477D01*
X70177380Y11745239D01*
X70177380Y11554762D01*
X70225000Y11459524D01*
X70272619Y11411905D01*
X70367857Y11364286D01*
X70605952Y11364286D01*
X70701190Y11411905D01*
X70748809Y11459524D01*
X70796428Y11554762D01*
X70796428Y11745239D01*
X70748809Y11840477D01*
X70701190Y11888096D01*
X70605952Y11935715D01*
G04 #@! TO.C,R10*
X75177380Y10507143D02*
X74701190Y10173810D01*
X75177380Y9935715D02*
X74177380Y9935715D01*
X74177380Y10316667D01*
X74225000Y10411905D01*
X74272619Y10459524D01*
X74367857Y10507143D01*
X74510714Y10507143D01*
X74605952Y10459524D01*
X74653571Y10411905D01*
X74701190Y10316667D01*
X74701190Y9935715D01*
X75177380Y11459524D02*
X75177380Y10888096D01*
X75177380Y11173810D02*
X74177380Y11173810D01*
X74320238Y11078572D01*
X74415476Y10983334D01*
X74463095Y10888096D01*
X74177380Y12078572D02*
X74177380Y12173810D01*
X74225000Y12269048D01*
X74272619Y12316667D01*
X74367857Y12364286D01*
X74558333Y12411905D01*
X74796428Y12411905D01*
X74986904Y12364286D01*
X75082142Y12316667D01*
X75129761Y12269048D01*
X75177380Y12173810D01*
X75177380Y12078572D01*
X75129761Y11983334D01*
X75082142Y11935715D01*
X74986904Y11888096D01*
X74796428Y11840477D01*
X74558333Y11840477D01*
X74367857Y11888096D01*
X74272619Y11935715D01*
X74225000Y11983334D01*
X74177380Y12078572D01*
G04 #@! TO.C,R11*
X14952380Y2857143D02*
X14476190Y2523810D01*
X14952380Y2285715D02*
X13952380Y2285715D01*
X13952380Y2666667D01*
X14000000Y2761905D01*
X14047619Y2809524D01*
X14142857Y2857143D01*
X14285714Y2857143D01*
X14380952Y2809524D01*
X14428571Y2761905D01*
X14476190Y2666667D01*
X14476190Y2285715D01*
X14952380Y3809524D02*
X14952380Y3238096D01*
X14952380Y3523810D02*
X13952380Y3523810D01*
X14095238Y3428572D01*
X14190476Y3333334D01*
X14238095Y3238096D01*
X14952380Y4761905D02*
X14952380Y4190477D01*
X14952380Y4476191D02*
X13952380Y4476191D01*
X14095238Y4380953D01*
X14190476Y4285715D01*
X14238095Y4190477D01*
G04 #@! TO.C,R12*
X25452380Y2657143D02*
X24976190Y2323810D01*
X25452380Y2085715D02*
X24452380Y2085715D01*
X24452380Y2466667D01*
X24500000Y2561905D01*
X24547619Y2609524D01*
X24642857Y2657143D01*
X24785714Y2657143D01*
X24880952Y2609524D01*
X24928571Y2561905D01*
X24976190Y2466667D01*
X24976190Y2085715D01*
X25452380Y3609524D02*
X25452380Y3038096D01*
X25452380Y3323810D02*
X24452380Y3323810D01*
X24595238Y3228572D01*
X24690476Y3133334D01*
X24738095Y3038096D01*
X24547619Y3990477D02*
X24500000Y4038096D01*
X24452380Y4133334D01*
X24452380Y4371429D01*
X24500000Y4466667D01*
X24547619Y4514286D01*
X24642857Y4561905D01*
X24738095Y4561905D01*
X24880952Y4514286D01*
X25452380Y3942858D01*
X25452380Y4561905D01*
G04 #@! TO.C,R13*
X17252380Y2757143D02*
X16776190Y2423810D01*
X17252380Y2185715D02*
X16252380Y2185715D01*
X16252380Y2566667D01*
X16300000Y2661905D01*
X16347619Y2709524D01*
X16442857Y2757143D01*
X16585714Y2757143D01*
X16680952Y2709524D01*
X16728571Y2661905D01*
X16776190Y2566667D01*
X16776190Y2185715D01*
X17252380Y3709524D02*
X17252380Y3138096D01*
X17252380Y3423810D02*
X16252380Y3423810D01*
X16395238Y3328572D01*
X16490476Y3233334D01*
X16538095Y3138096D01*
X16252380Y4042858D02*
X16252380Y4661905D01*
X16633333Y4328572D01*
X16633333Y4471429D01*
X16680952Y4566667D01*
X16728571Y4614286D01*
X16823809Y4661905D01*
X17061904Y4661905D01*
X17157142Y4614286D01*
X17204761Y4566667D01*
X17252380Y4471429D01*
X17252380Y4185715D01*
X17204761Y4090477D01*
X17157142Y4042858D01*
G04 #@! TO.C,R14*
X27752380Y2757143D02*
X27276190Y2423810D01*
X27752380Y2185715D02*
X26752380Y2185715D01*
X26752380Y2566667D01*
X26800000Y2661905D01*
X26847619Y2709524D01*
X26942857Y2757143D01*
X27085714Y2757143D01*
X27180952Y2709524D01*
X27228571Y2661905D01*
X27276190Y2566667D01*
X27276190Y2185715D01*
X27752380Y3709524D02*
X27752380Y3138096D01*
X27752380Y3423810D02*
X26752380Y3423810D01*
X26895238Y3328572D01*
X26990476Y3233334D01*
X27038095Y3138096D01*
X27085714Y4566667D02*
X27752380Y4566667D01*
X26704761Y4328572D02*
X27419047Y4090477D01*
X27419047Y4709524D01*
G04 #@! TO.C,R15*
X15552380Y19457143D02*
X15076190Y19123810D01*
X15552380Y18885715D02*
X14552380Y18885715D01*
X14552380Y19266667D01*
X14600000Y19361905D01*
X14647619Y19409524D01*
X14742857Y19457143D01*
X14885714Y19457143D01*
X14980952Y19409524D01*
X15028571Y19361905D01*
X15076190Y19266667D01*
X15076190Y18885715D01*
X15552380Y20409524D02*
X15552380Y19838096D01*
X15552380Y20123810D02*
X14552380Y20123810D01*
X14695238Y20028572D01*
X14790476Y19933334D01*
X14838095Y19838096D01*
X14552380Y21314286D02*
X14552380Y20838096D01*
X15028571Y20790477D01*
X14980952Y20838096D01*
X14933333Y20933334D01*
X14933333Y21171429D01*
X14980952Y21266667D01*
X15028571Y21314286D01*
X15123809Y21361905D01*
X15361904Y21361905D01*
X15457142Y21314286D01*
X15504761Y21266667D01*
X15552380Y21171429D01*
X15552380Y20933334D01*
X15504761Y20838096D01*
X15457142Y20790477D01*
G04 #@! TO.C,R16*
X35152380Y2857143D02*
X34676190Y2523810D01*
X35152380Y2285715D02*
X34152380Y2285715D01*
X34152380Y2666667D01*
X34200000Y2761905D01*
X34247619Y2809524D01*
X34342857Y2857143D01*
X34485714Y2857143D01*
X34580952Y2809524D01*
X34628571Y2761905D01*
X34676190Y2666667D01*
X34676190Y2285715D01*
X35152380Y3809524D02*
X35152380Y3238096D01*
X35152380Y3523810D02*
X34152380Y3523810D01*
X34295238Y3428572D01*
X34390476Y3333334D01*
X34438095Y3238096D01*
X34152380Y4666667D02*
X34152380Y4476191D01*
X34200000Y4380953D01*
X34247619Y4333334D01*
X34390476Y4238096D01*
X34580952Y4190477D01*
X34961904Y4190477D01*
X35057142Y4238096D01*
X35104761Y4285715D01*
X35152380Y4380953D01*
X35152380Y4571429D01*
X35104761Y4666667D01*
X35057142Y4714286D01*
X34961904Y4761905D01*
X34723809Y4761905D01*
X34628571Y4714286D01*
X34580952Y4666667D01*
X34533333Y4571429D01*
X34533333Y4380953D01*
X34580952Y4285715D01*
X34628571Y4238096D01*
X34723809Y4190477D01*
G04 #@! TO.C,R17*
X16952380Y19457143D02*
X16476190Y19123810D01*
X16952380Y18885715D02*
X15952380Y18885715D01*
X15952380Y19266667D01*
X16000000Y19361905D01*
X16047619Y19409524D01*
X16142857Y19457143D01*
X16285714Y19457143D01*
X16380952Y19409524D01*
X16428571Y19361905D01*
X16476190Y19266667D01*
X16476190Y18885715D01*
X16952380Y20409524D02*
X16952380Y19838096D01*
X16952380Y20123810D02*
X15952380Y20123810D01*
X16095238Y20028572D01*
X16190476Y19933334D01*
X16238095Y19838096D01*
X15952380Y20742858D02*
X15952380Y21409524D01*
X16952380Y20980953D01*
G04 #@! TO.C,R18*
X37352380Y2857143D02*
X36876190Y2523810D01*
X37352380Y2285715D02*
X36352380Y2285715D01*
X36352380Y2666667D01*
X36400000Y2761905D01*
X36447619Y2809524D01*
X36542857Y2857143D01*
X36685714Y2857143D01*
X36780952Y2809524D01*
X36828571Y2761905D01*
X36876190Y2666667D01*
X36876190Y2285715D01*
X37352380Y3809524D02*
X37352380Y3238096D01*
X37352380Y3523810D02*
X36352380Y3523810D01*
X36495238Y3428572D01*
X36590476Y3333334D01*
X36638095Y3238096D01*
X36780952Y4380953D02*
X36733333Y4285715D01*
X36685714Y4238096D01*
X36590476Y4190477D01*
X36542857Y4190477D01*
X36447619Y4238096D01*
X36400000Y4285715D01*
X36352380Y4380953D01*
X36352380Y4571429D01*
X36400000Y4666667D01*
X36447619Y4714286D01*
X36542857Y4761905D01*
X36590476Y4761905D01*
X36685714Y4714286D01*
X36733333Y4666667D01*
X36780952Y4571429D01*
X36780952Y4380953D01*
X36828571Y4285715D01*
X36876190Y4238096D01*
X36971428Y4190477D01*
X37161904Y4190477D01*
X37257142Y4238096D01*
X37304761Y4285715D01*
X37352380Y4380953D01*
X37352380Y4571429D01*
X37304761Y4666667D01*
X37257142Y4714286D01*
X37161904Y4761905D01*
X36971428Y4761905D01*
X36876190Y4714286D01*
X36828571Y4666667D01*
X36780952Y4571429D01*
G04 #@! TO.C,RN1*
X50109523Y23247620D02*
X49776190Y23723810D01*
X49538095Y23247620D02*
X49538095Y24247620D01*
X49919047Y24247620D01*
X50014285Y24200000D01*
X50061904Y24152381D01*
X50109523Y24057143D01*
X50109523Y23914286D01*
X50061904Y23819048D01*
X50014285Y23771429D01*
X49919047Y23723810D01*
X49538095Y23723810D01*
X50538095Y23247620D02*
X50538095Y24247620D01*
X51109523Y23247620D01*
X51109523Y24247620D01*
X52109523Y23247620D02*
X51538095Y23247620D01*
X51823809Y23247620D02*
X51823809Y24247620D01*
X51728571Y24104762D01*
X51633333Y24009524D01*
X51538095Y23961905D01*
G04 #@! TO.C,SW1*
X24566666Y21095239D02*
X24709523Y21047620D01*
X24947619Y21047620D01*
X25042857Y21095239D01*
X25090476Y21142858D01*
X25138095Y21238096D01*
X25138095Y21333334D01*
X25090476Y21428572D01*
X25042857Y21476191D01*
X24947619Y21523810D01*
X24757142Y21571429D01*
X24661904Y21619048D01*
X24614285Y21666667D01*
X24566666Y21761905D01*
X24566666Y21857143D01*
X24614285Y21952381D01*
X24661904Y22000000D01*
X24757142Y22047620D01*
X24995238Y22047620D01*
X25138095Y22000000D01*
X25471428Y22047620D02*
X25709523Y21047620D01*
X25900000Y21761905D01*
X26090476Y21047620D01*
X26328571Y22047620D01*
X27233333Y21047620D02*
X26661904Y21047620D01*
X26947619Y21047620D02*
X26947619Y22047620D01*
X26852380Y21904762D01*
X26757142Y21809524D01*
X26661904Y21761905D01*
G04 #@! TO.C,SW2*
X14266666Y9045239D02*
X14409523Y8997620D01*
X14647619Y8997620D01*
X14742857Y9045239D01*
X14790476Y9092858D01*
X14838095Y9188096D01*
X14838095Y9283334D01*
X14790476Y9378572D01*
X14742857Y9426191D01*
X14647619Y9473810D01*
X14457142Y9521429D01*
X14361904Y9569048D01*
X14314285Y9616667D01*
X14266666Y9711905D01*
X14266666Y9807143D01*
X14314285Y9902381D01*
X14361904Y9950000D01*
X14457142Y9997620D01*
X14695238Y9997620D01*
X14838095Y9950000D01*
X15171428Y9997620D02*
X15409523Y8997620D01*
X15600000Y9711905D01*
X15790476Y8997620D01*
X16028571Y9997620D01*
X16361904Y9902381D02*
X16409523Y9950000D01*
X16504761Y9997620D01*
X16742857Y9997620D01*
X16838095Y9950000D01*
X16885714Y9902381D01*
X16933333Y9807143D01*
X16933333Y9711905D01*
X16885714Y9569048D01*
X16314285Y8997620D01*
X16933333Y8997620D01*
G04 #@! TO.C,SW3*
X24566666Y8995239D02*
X24709523Y8947620D01*
X24947619Y8947620D01*
X25042857Y8995239D01*
X25090476Y9042858D01*
X25138095Y9138096D01*
X25138095Y9233334D01*
X25090476Y9328572D01*
X25042857Y9376191D01*
X24947619Y9423810D01*
X24757142Y9471429D01*
X24661904Y9519048D01*
X24614285Y9566667D01*
X24566666Y9661905D01*
X24566666Y9757143D01*
X24614285Y9852381D01*
X24661904Y9900000D01*
X24757142Y9947620D01*
X24995238Y9947620D01*
X25138095Y9900000D01*
X25471428Y9947620D02*
X25709523Y8947620D01*
X25900000Y9661905D01*
X26090476Y8947620D01*
X26328571Y9947620D01*
X26614285Y9947620D02*
X27233333Y9947620D01*
X26900000Y9566667D01*
X27042857Y9566667D01*
X27138095Y9519048D01*
X27185714Y9471429D01*
X27233333Y9376191D01*
X27233333Y9138096D01*
X27185714Y9042858D01*
X27138095Y8995239D01*
X27042857Y8947620D01*
X26757142Y8947620D01*
X26661904Y8995239D01*
X26614285Y9042858D01*
G04 #@! TO.C,SW5*
X34166666Y8995239D02*
X34309523Y8947620D01*
X34547619Y8947620D01*
X34642857Y8995239D01*
X34690476Y9042858D01*
X34738095Y9138096D01*
X34738095Y9233334D01*
X34690476Y9328572D01*
X34642857Y9376191D01*
X34547619Y9423810D01*
X34357142Y9471429D01*
X34261904Y9519048D01*
X34214285Y9566667D01*
X34166666Y9661905D01*
X34166666Y9757143D01*
X34214285Y9852381D01*
X34261904Y9900000D01*
X34357142Y9947620D01*
X34595238Y9947620D01*
X34738095Y9900000D01*
X35071428Y9947620D02*
X35309523Y8947620D01*
X35500000Y9661905D01*
X35690476Y8947620D01*
X35928571Y9947620D01*
X36785714Y9947620D02*
X36309523Y9947620D01*
X36261904Y9471429D01*
X36309523Y9519048D01*
X36404761Y9566667D01*
X36642857Y9566667D01*
X36738095Y9519048D01*
X36785714Y9471429D01*
X36833333Y9376191D01*
X36833333Y9138096D01*
X36785714Y9042858D01*
X36738095Y8995239D01*
X36642857Y8947620D01*
X36404761Y8947620D01*
X36309523Y8995239D01*
X36261904Y9042858D01*
G04 #@! TO.C,U1*
X44738095Y9247620D02*
X44738095Y8438096D01*
X44785714Y8342858D01*
X44833333Y8295239D01*
X44928571Y8247620D01*
X45119047Y8247620D01*
X45214285Y8295239D01*
X45261904Y8342858D01*
X45309523Y8438096D01*
X45309523Y9247620D01*
X46309523Y8247620D02*
X45738095Y8247620D01*
X46023809Y8247620D02*
X46023809Y9247620D01*
X45928571Y9104762D01*
X45833333Y9009524D01*
X45738095Y8961905D01*
G04 #@! TO.C,U2*
X44738095Y27147620D02*
X44738095Y26338096D01*
X44785714Y26242858D01*
X44833333Y26195239D01*
X44928571Y26147620D01*
X45119047Y26147620D01*
X45214285Y26195239D01*
X45261904Y26242858D01*
X45309523Y26338096D01*
X45309523Y27147620D01*
X45738095Y27052381D02*
X45785714Y27100000D01*
X45880952Y27147620D01*
X46119047Y27147620D01*
X46214285Y27100000D01*
X46261904Y27052381D01*
X46309523Y26957143D01*
X46309523Y26861905D01*
X46261904Y26719048D01*
X45690476Y26147620D01*
X46309523Y26147620D01*
G04 #@! TO.C,D1*
X66261904Y23247620D02*
X66261904Y24247620D01*
X66500000Y24247620D01*
X66642857Y24200000D01*
X66738095Y24104762D01*
X66785714Y24009524D01*
X66833333Y23819048D01*
X66833333Y23676191D01*
X66785714Y23485715D01*
X66738095Y23390477D01*
X66642857Y23295239D01*
X66500000Y23247620D01*
X66261904Y23247620D01*
X67785714Y23247620D02*
X67214285Y23247620D01*
X67500000Y23247620D02*
X67500000Y24247620D01*
X67404761Y24104762D01*
X67309523Y24009524D01*
X67214285Y23961905D01*
G04 #@! TO.C,D2*
X75461904Y23247620D02*
X75461904Y24247620D01*
X75700000Y24247620D01*
X75842857Y24200000D01*
X75938095Y24104762D01*
X75985714Y24009524D01*
X76033333Y23819048D01*
X76033333Y23676191D01*
X75985714Y23485715D01*
X75938095Y23390477D01*
X75842857Y23295239D01*
X75700000Y23247620D01*
X75461904Y23247620D01*
X76414285Y24152381D02*
X76461904Y24200000D01*
X76557142Y24247620D01*
X76795238Y24247620D01*
X76890476Y24200000D01*
X76938095Y24152381D01*
X76985714Y24057143D01*
X76985714Y23961905D01*
X76938095Y23819048D01*
X76366666Y23247620D01*
X76985714Y23247620D01*
G04 #@! TO.C,R25*
X66257142Y25147620D02*
X65923809Y25623810D01*
X65685714Y25147620D02*
X65685714Y26147620D01*
X66066666Y26147620D01*
X66161904Y26100000D01*
X66209523Y26052381D01*
X66257142Y25957143D01*
X66257142Y25814286D01*
X66209523Y25719048D01*
X66161904Y25671429D01*
X66066666Y25623810D01*
X65685714Y25623810D01*
X66638095Y26052381D02*
X66685714Y26100000D01*
X66780952Y26147620D01*
X67019047Y26147620D01*
X67114285Y26100000D01*
X67161904Y26052381D01*
X67209523Y25957143D01*
X67209523Y25861905D01*
X67161904Y25719048D01*
X66590476Y25147620D01*
X67209523Y25147620D01*
X68114285Y26147620D02*
X67638095Y26147620D01*
X67590476Y25671429D01*
X67638095Y25719048D01*
X67733333Y25766667D01*
X67971428Y25766667D01*
X68066666Y25719048D01*
X68114285Y25671429D01*
X68161904Y25576191D01*
X68161904Y25338096D01*
X68114285Y25242858D01*
X68066666Y25195239D01*
X67971428Y25147620D01*
X67733333Y25147620D01*
X67638095Y25195239D01*
X67590476Y25242858D01*
G04 #@! TO.C,R26*
X75557142Y25247620D02*
X75223809Y25723810D01*
X74985714Y25247620D02*
X74985714Y26247620D01*
X75366666Y26247620D01*
X75461904Y26200000D01*
X75509523Y26152381D01*
X75557142Y26057143D01*
X75557142Y25914286D01*
X75509523Y25819048D01*
X75461904Y25771429D01*
X75366666Y25723810D01*
X74985714Y25723810D01*
X75938095Y26152381D02*
X75985714Y26200000D01*
X76080952Y26247620D01*
X76319047Y26247620D01*
X76414285Y26200000D01*
X76461904Y26152381D01*
X76509523Y26057143D01*
X76509523Y25961905D01*
X76461904Y25819048D01*
X75890476Y25247620D01*
X76509523Y25247620D01*
X77366666Y26247620D02*
X77176190Y26247620D01*
X77080952Y26200000D01*
X77033333Y26152381D01*
X76938095Y26009524D01*
X76890476Y25819048D01*
X76890476Y25438096D01*
X76938095Y25342858D01*
X76985714Y25295239D01*
X77080952Y25247620D01*
X77271428Y25247620D01*
X77366666Y25295239D01*
X77414285Y25342858D01*
X77461904Y25438096D01*
X77461904Y25676191D01*
X77414285Y25771429D01*
X77366666Y25819048D01*
X77271428Y25866667D01*
X77080952Y25866667D01*
X76985714Y25819048D01*
X76938095Y25771429D01*
X76890476Y25676191D01*
G04 #@! TO.C,REF\002A\002A*
X79066666Y34147620D02*
X78733333Y34623810D01*
X78495238Y34147620D02*
X78495238Y35147620D01*
X78876190Y35147620D01*
X78971428Y35100000D01*
X79019047Y35052381D01*
X79066666Y34957143D01*
X79066666Y34814286D01*
X79019047Y34719048D01*
X78971428Y34671429D01*
X78876190Y34623810D01*
X78495238Y34623810D01*
X79495238Y34671429D02*
X79828571Y34671429D01*
X79971428Y34147620D02*
X79495238Y34147620D01*
X79495238Y35147620D01*
X79971428Y35147620D01*
X80733333Y34671429D02*
X80400000Y34671429D01*
X80400000Y34147620D02*
X80400000Y35147620D01*
X80876190Y35147620D01*
X81400000Y35147620D02*
X81400000Y34909524D01*
X81161904Y35004762D02*
X81400000Y34909524D01*
X81638095Y35004762D01*
X81257142Y34719048D02*
X81400000Y34909524D01*
X81542857Y34719048D01*
X82161904Y35147620D02*
X82161904Y34909524D01*
X81923809Y35004762D02*
X82161904Y34909524D01*
X82400000Y35004762D01*
X82019047Y34719048D02*
X82161904Y34909524D01*
X82304761Y34719048D01*
G04 #@! TO.C,J7*
X12266666Y20347620D02*
X12266666Y19633334D01*
X12219047Y19490477D01*
X12123809Y19395239D01*
X11980952Y19347620D01*
X11885714Y19347620D01*
X12647619Y20347620D02*
X13314285Y20347620D01*
X12885714Y19347620D01*
G04 #@! TO.C,C22*
X76357142Y3957143D02*
X76404761Y3909524D01*
X76452380Y3766667D01*
X76452380Y3671429D01*
X76404761Y3528572D01*
X76309523Y3433334D01*
X76214285Y3385715D01*
X76023809Y3338096D01*
X75880952Y3338096D01*
X75690476Y3385715D01*
X75595238Y3433334D01*
X75500000Y3528572D01*
X75452380Y3671429D01*
X75452380Y3766667D01*
X75500000Y3909524D01*
X75547619Y3957143D01*
X75547619Y4338096D02*
X75500000Y4385715D01*
X75452380Y4480953D01*
X75452380Y4719048D01*
X75500000Y4814286D01*
X75547619Y4861905D01*
X75642857Y4909524D01*
X75738095Y4909524D01*
X75880952Y4861905D01*
X76452380Y4290477D01*
X76452380Y4909524D01*
X75547619Y5290477D02*
X75500000Y5338096D01*
X75452380Y5433334D01*
X75452380Y5671429D01*
X75500000Y5766667D01*
X75547619Y5814286D01*
X75642857Y5861905D01*
X75738095Y5861905D01*
X75880952Y5814286D01*
X76452380Y5242858D01*
X76452380Y5861905D01*
G04 #@! TO.C,C23*
X79857142Y10542858D02*
X79809523Y10495239D01*
X79666666Y10447620D01*
X79571428Y10447620D01*
X79428571Y10495239D01*
X79333333Y10590477D01*
X79285714Y10685715D01*
X79238095Y10876191D01*
X79238095Y11019048D01*
X79285714Y11209524D01*
X79333333Y11304762D01*
X79428571Y11400000D01*
X79571428Y11447620D01*
X79666666Y11447620D01*
X79809523Y11400000D01*
X79857142Y11352381D01*
X80238095Y11352381D02*
X80285714Y11400000D01*
X80380952Y11447620D01*
X80619047Y11447620D01*
X80714285Y11400000D01*
X80761904Y11352381D01*
X80809523Y11257143D01*
X80809523Y11161905D01*
X80761904Y11019048D01*
X80190476Y10447620D01*
X80809523Y10447620D01*
X81142857Y11447620D02*
X81761904Y11447620D01*
X81428571Y11066667D01*
X81571428Y11066667D01*
X81666666Y11019048D01*
X81714285Y10971429D01*
X81761904Y10876191D01*
X81761904Y10638096D01*
X81714285Y10542858D01*
X81666666Y10495239D01*
X81571428Y10447620D01*
X81285714Y10447620D01*
X81190476Y10495239D01*
X81142857Y10542858D01*
X77561428Y9199048D02*
X77561428Y9960953D01*
X77942380Y9580000D02*
X77180476Y9580000D01*
G04 #@! TO.C,RV1*
X53304761Y2097620D02*
X52971428Y2573810D01*
X52733333Y2097620D02*
X52733333Y3097620D01*
X53114285Y3097620D01*
X53209523Y3050000D01*
X53257142Y3002381D01*
X53304761Y2907143D01*
X53304761Y2764286D01*
X53257142Y2669048D01*
X53209523Y2621429D01*
X53114285Y2573810D01*
X52733333Y2573810D01*
X53590476Y3097620D02*
X53923809Y2097620D01*
X54257142Y3097620D01*
X55114285Y2097620D02*
X54542857Y2097620D01*
X54828571Y2097620D02*
X54828571Y3097620D01*
X54733333Y2954762D01*
X54638095Y2859524D01*
X54542857Y2811905D01*
G04 #@! TO.C,RV2*
X57204761Y2097620D02*
X56871428Y2573810D01*
X56633333Y2097620D02*
X56633333Y3097620D01*
X57014285Y3097620D01*
X57109523Y3050000D01*
X57157142Y3002381D01*
X57204761Y2907143D01*
X57204761Y2764286D01*
X57157142Y2669048D01*
X57109523Y2621429D01*
X57014285Y2573810D01*
X56633333Y2573810D01*
X57490476Y3097620D02*
X57823809Y2097620D01*
X58157142Y3097620D01*
X58442857Y3002381D02*
X58490476Y3050000D01*
X58585714Y3097620D01*
X58823809Y3097620D01*
X58919047Y3050000D01*
X58966666Y3002381D01*
X59014285Y2907143D01*
X59014285Y2811905D01*
X58966666Y2669048D01*
X58395238Y2097620D01*
X59014285Y2097620D01*
G04 #@! TO.C,RV3*
X61104761Y2097620D02*
X60771428Y2573810D01*
X60533333Y2097620D02*
X60533333Y3097620D01*
X60914285Y3097620D01*
X61009523Y3050000D01*
X61057142Y3002381D01*
X61104761Y2907143D01*
X61104761Y2764286D01*
X61057142Y2669048D01*
X61009523Y2621429D01*
X60914285Y2573810D01*
X60533333Y2573810D01*
X61390476Y3097620D02*
X61723809Y2097620D01*
X62057142Y3097620D01*
X62295238Y3097620D02*
X62914285Y3097620D01*
X62580952Y2716667D01*
X62723809Y2716667D01*
X62819047Y2669048D01*
X62866666Y2621429D01*
X62914285Y2526191D01*
X62914285Y2288096D01*
X62866666Y2192858D01*
X62819047Y2145239D01*
X62723809Y2097620D01*
X62438095Y2097620D01*
X62342857Y2145239D01*
X62295238Y2192858D01*
G04 #@! TO.C,RV4*
X65004761Y2047620D02*
X64671428Y2523810D01*
X64433333Y2047620D02*
X64433333Y3047620D01*
X64814285Y3047620D01*
X64909523Y3000000D01*
X64957142Y2952381D01*
X65004761Y2857143D01*
X65004761Y2714286D01*
X64957142Y2619048D01*
X64909523Y2571429D01*
X64814285Y2523810D01*
X64433333Y2523810D01*
X65290476Y3047620D02*
X65623809Y2047620D01*
X65957142Y3047620D01*
X66719047Y2714286D02*
X66719047Y2047620D01*
X66480952Y3095239D02*
X66242857Y2380953D01*
X66861904Y2380953D01*
G04 #@! TO.C,RV5*
X68904761Y2097620D02*
X68571428Y2573810D01*
X68333333Y2097620D02*
X68333333Y3097620D01*
X68714285Y3097620D01*
X68809523Y3050000D01*
X68857142Y3002381D01*
X68904761Y2907143D01*
X68904761Y2764286D01*
X68857142Y2669048D01*
X68809523Y2621429D01*
X68714285Y2573810D01*
X68333333Y2573810D01*
X69190476Y3097620D02*
X69523809Y2097620D01*
X69857142Y3097620D01*
X70666666Y3097620D02*
X70190476Y3097620D01*
X70142857Y2621429D01*
X70190476Y2669048D01*
X70285714Y2716667D01*
X70523809Y2716667D01*
X70619047Y2669048D01*
X70666666Y2621429D01*
X70714285Y2526191D01*
X70714285Y2288096D01*
X70666666Y2192858D01*
X70619047Y2145239D01*
X70523809Y2097620D01*
X70285714Y2097620D01*
X70190476Y2145239D01*
X70142857Y2192858D01*
G04 #@! TO.C,RV6*
X72904761Y2047620D02*
X72571428Y2523810D01*
X72333333Y2047620D02*
X72333333Y3047620D01*
X72714285Y3047620D01*
X72809523Y3000000D01*
X72857142Y2952381D01*
X72904761Y2857143D01*
X72904761Y2714286D01*
X72857142Y2619048D01*
X72809523Y2571429D01*
X72714285Y2523810D01*
X72333333Y2523810D01*
X73190476Y3047620D02*
X73523809Y2047620D01*
X73857142Y3047620D01*
X74619047Y3047620D02*
X74428571Y3047620D01*
X74333333Y3000000D01*
X74285714Y2952381D01*
X74190476Y2809524D01*
X74142857Y2619048D01*
X74142857Y2238096D01*
X74190476Y2142858D01*
X74238095Y2095239D01*
X74333333Y2047620D01*
X74523809Y2047620D01*
X74619047Y2095239D01*
X74666666Y2142858D01*
X74714285Y2238096D01*
X74714285Y2476191D01*
X74666666Y2571429D01*
X74619047Y2619048D01*
X74523809Y2666667D01*
X74333333Y2666667D01*
X74238095Y2619048D01*
X74190476Y2571429D01*
X74142857Y2476191D01*
G04 #@! TD*
%LPC*%
D12*
G04 #@! TO.C,SW4*
X3700000Y17900000D03*
D13*
X6240000Y17900000D03*
X8780000Y17900000D03*
X3700000Y10280000D03*
X6240000Y10280000D03*
X8780000Y10280000D03*
G04 #@! TD*
D14*
G04 #@! TO.C,C12*
X42250000Y30650000D03*
X40750000Y30650000D03*
G04 #@! TD*
D15*
G04 #@! TO.C,REF\002A\002A*
X3200000Y2500000D03*
G04 #@! TD*
G04 #@! TO.C,REF\002A\002A*
X87800000Y2500000D03*
G04 #@! TD*
G04 #@! TO.C,REF\002A\002A*
X10700000Y30500000D03*
G04 #@! TD*
D16*
G04 #@! TO.C,C2*
X30100000Y19000000D03*
X30100000Y20500000D03*
G04 #@! TD*
G04 #@! TO.C,C5*
X56300000Y26500000D03*
X56300000Y25000000D03*
G04 #@! TD*
G04 #@! TO.C,C11*
X42500000Y29075000D03*
X42500000Y27575000D03*
G04 #@! TD*
G04 #@! TO.C,C13*
X17800000Y2725000D03*
X17800000Y4225000D03*
G04 #@! TD*
G04 #@! TO.C,C14*
X28300000Y2600000D03*
X28300000Y4100000D03*
G04 #@! TD*
G04 #@! TO.C,C15*
X40700000Y29100000D03*
X40700000Y27600000D03*
G04 #@! TD*
G04 #@! TO.C,C16*
X17800000Y22000000D03*
X17800000Y23500000D03*
G04 #@! TD*
G04 #@! TO.C,C17*
X37900000Y2800000D03*
X37900000Y4300000D03*
G04 #@! TD*
D14*
G04 #@! TO.C,C20*
X18925000Y14900000D03*
X20425000Y14900000D03*
G04 #@! TD*
D17*
G04 #@! TO.C,J3*
X70700000Y28300000D03*
X71700000Y28300000D03*
X72700000Y28300000D03*
D18*
X69400000Y30825000D03*
X74000000Y30825000D03*
G04 #@! TD*
D19*
G04 #@! TO.C,J4*
X85937500Y14700000D03*
X85937500Y13700000D03*
X85937500Y12700000D03*
X85937500Y11700000D03*
X85937500Y10700000D03*
X85937500Y9700000D03*
D20*
X88462500Y16000000D03*
X88462500Y8400000D03*
G04 #@! TD*
D17*
G04 #@! TO.C,J5*
X16500000Y28200000D03*
X17500000Y28200000D03*
X18500000Y28200000D03*
D18*
X15200000Y30725000D03*
X19800000Y30725000D03*
G04 #@! TD*
D19*
G04 #@! TO.C,J6*
X78437500Y25000000D03*
X78437500Y24000000D03*
X78437500Y23000000D03*
X78437500Y22000000D03*
D20*
X80962500Y26300000D03*
X80962500Y20700000D03*
G04 #@! TD*
D17*
G04 #@! TO.C,J8*
X61300000Y28300000D03*
X62300000Y28300000D03*
X63300000Y28300000D03*
D18*
X60000000Y30825000D03*
X64600000Y30825000D03*
G04 #@! TD*
G04 #@! TO.C,J9*
X29100000Y30762500D03*
X23500000Y30762500D03*
D17*
X27800000Y28237500D03*
X26800000Y28237500D03*
X25800000Y28237500D03*
X24800000Y28237500D03*
G04 #@! TD*
D18*
G04 #@! TO.C,J10*
X38400000Y30762500D03*
X32800000Y30762500D03*
D17*
X37100000Y28237500D03*
X36100000Y28237500D03*
X35100000Y28237500D03*
X34100000Y28237500D03*
G04 #@! TD*
D21*
G04 #@! TO.C,LED1*
X46300000Y3000000D03*
X44750000Y3000000D03*
X44750000Y2000000D03*
X46300000Y2000000D03*
G04 #@! TD*
D22*
G04 #@! TO.C,Q1*
X52550000Y28500000D03*
X55230000Y28500000D03*
X53900000Y30500000D03*
G04 #@! TD*
D23*
G04 #@! TO.C,R1*
X30100000Y17700000D03*
X31600000Y17700000D03*
G04 #@! TD*
D24*
G04 #@! TO.C,R2*
X53600000Y10700000D03*
X53600000Y12200000D03*
G04 #@! TD*
G04 #@! TO.C,R3*
X57500000Y10700000D03*
X57500000Y12200000D03*
G04 #@! TD*
G04 #@! TO.C,R4*
X61400000Y10700000D03*
X61400000Y12200000D03*
G04 #@! TD*
G04 #@! TO.C,R5*
X65300000Y10700000D03*
X65300000Y12200000D03*
G04 #@! TD*
D23*
G04 #@! TO.C,R7*
X54700000Y25100000D03*
X53200000Y25100000D03*
G04 #@! TD*
G04 #@! TO.C,R8*
X53200000Y26500000D03*
X54700000Y26500000D03*
G04 #@! TD*
D24*
G04 #@! TO.C,R9*
X69200000Y10700000D03*
X69200000Y12200000D03*
G04 #@! TD*
G04 #@! TO.C,R10*
X73200000Y10700000D03*
X73200000Y12200000D03*
G04 #@! TD*
G04 #@! TO.C,R11*
X13400000Y2700000D03*
X13400000Y4200000D03*
G04 #@! TD*
G04 #@! TO.C,R12*
X23800000Y2600000D03*
X23800000Y4100000D03*
G04 #@! TD*
G04 #@! TO.C,R13*
X15600000Y4200000D03*
X15600000Y2700000D03*
G04 #@! TD*
G04 #@! TO.C,R14*
X26100000Y4100000D03*
X26100000Y2600000D03*
G04 #@! TD*
G04 #@! TO.C,R15*
X15000000Y23500000D03*
X15000000Y22000000D03*
G04 #@! TD*
G04 #@! TO.C,R16*
X33500000Y2800000D03*
X33500000Y4300000D03*
G04 #@! TD*
G04 #@! TO.C,R17*
X16400000Y23500000D03*
X16400000Y22000000D03*
G04 #@! TD*
G04 #@! TO.C,R18*
X35700000Y4300000D03*
X35700000Y2800000D03*
G04 #@! TD*
D25*
G04 #@! TO.C,RN1*
X50300000Y26000000D03*
X50300000Y25500000D03*
X51300000Y25500000D03*
X51300000Y26000000D03*
X51300000Y25000000D03*
X50300000Y26500000D03*
X51300000Y26500000D03*
X50300000Y25000000D03*
G04 #@! TD*
D26*
G04 #@! TO.C,SW1*
X23300000Y17950000D03*
D27*
X28100000Y17950000D03*
D26*
X23300000Y20100000D03*
D27*
X28100000Y20100000D03*
G04 #@! TD*
D26*
G04 #@! TO.C,SW2*
X13100000Y5700000D03*
D27*
X17900000Y5700000D03*
D26*
X13100000Y7850000D03*
D27*
X17900000Y7850000D03*
G04 #@! TD*
D26*
G04 #@! TO.C,SW3*
X23500000Y5650000D03*
D27*
X28300000Y5650000D03*
D26*
X23500000Y7800000D03*
D27*
X28300000Y7800000D03*
G04 #@! TD*
D26*
G04 #@! TO.C,SW5*
X33100000Y5700000D03*
D27*
X37900000Y5700000D03*
D26*
X33100000Y7850000D03*
D27*
X37900000Y7850000D03*
G04 #@! TD*
D28*
G04 #@! TO.C,U1*
X41750000Y22250000D03*
X42250000Y22250000D03*
X42750000Y22250000D03*
X43250000Y22250000D03*
X43750000Y22250000D03*
X44250000Y22250000D03*
X44750000Y22250000D03*
X45250000Y22250000D03*
X45750000Y22250000D03*
X46250000Y22250000D03*
X46750000Y22250000D03*
X47250000Y22250000D03*
X47750000Y22250000D03*
X48250000Y22250000D03*
X48750000Y22250000D03*
X49250000Y22250000D03*
D29*
X51250000Y20250000D03*
X51250000Y19750000D03*
X51250000Y19250000D03*
X51250000Y18750000D03*
X51250000Y18250000D03*
X51250000Y17750000D03*
X51250000Y17250000D03*
X51250000Y16750000D03*
X51250000Y16250000D03*
X51250000Y15750000D03*
X51250000Y15250000D03*
X51250000Y14750000D03*
X51250000Y14250000D03*
X51250000Y13750000D03*
X51250000Y13250000D03*
X51250000Y12750000D03*
D28*
X49250000Y10750000D03*
X48750000Y10750000D03*
X48250000Y10750000D03*
X47750000Y10750000D03*
X47250000Y10750000D03*
X46750000Y10750000D03*
X46250000Y10750000D03*
X45750000Y10750000D03*
X45250000Y10750000D03*
X44750000Y10750000D03*
X44250000Y10750000D03*
X43750000Y10750000D03*
X43250000Y10750000D03*
X42750000Y10750000D03*
X42250000Y10750000D03*
X41750000Y10750000D03*
D29*
X39750000Y12750000D03*
X39750000Y13250000D03*
X39750000Y13750000D03*
X39750000Y14250000D03*
X39750000Y14750000D03*
X39750000Y15250000D03*
X39750000Y15750000D03*
X39750000Y16250000D03*
X39750000Y16750000D03*
X39750000Y17250000D03*
X39750000Y17750000D03*
X39750000Y18250000D03*
X39750000Y18750000D03*
X39750000Y19250000D03*
X39750000Y19750000D03*
X39750000Y20250000D03*
G04 #@! TD*
D30*
G04 #@! TO.C,U2*
X45030000Y30000000D03*
X45030000Y29200000D03*
D31*
X44465000Y28040000D03*
D32*
X47025000Y29400000D03*
D31*
X45665000Y28040000D03*
D32*
X43905000Y28600000D03*
X43905000Y30200000D03*
X43905000Y29800000D03*
D31*
X44865000Y28040000D03*
X46465000Y31160000D03*
D32*
X47025000Y29000000D03*
D30*
X45900000Y30000000D03*
D31*
X46065000Y31160000D03*
X45265000Y28040000D03*
D32*
X47025000Y29800000D03*
D31*
X46465000Y28040000D03*
D32*
X43905000Y29000000D03*
D31*
X45265000Y31160000D03*
D32*
X47025000Y30200000D03*
D31*
X44465000Y31160000D03*
D32*
X47025000Y30600000D03*
X47025000Y28600000D03*
X43905000Y30600000D03*
D31*
X44865000Y31160000D03*
D32*
X43905000Y29400000D03*
D30*
X45900000Y29200000D03*
D31*
X45665000Y31160000D03*
X46065000Y28040000D03*
G04 #@! TD*
D33*
G04 #@! TO.C,D1*
X70500000Y23700000D03*
X69000000Y23700000D03*
G04 #@! TD*
G04 #@! TO.C,D2*
X74200000Y23700000D03*
X72700000Y23700000D03*
G04 #@! TD*
D23*
G04 #@! TO.C,R25*
X70500000Y25700000D03*
X69000000Y25700000D03*
G04 #@! TD*
G04 #@! TO.C,R26*
X74200000Y25700000D03*
X72700000Y25700000D03*
G04 #@! TD*
D15*
G04 #@! TO.C,REF\002A\002A*
X80300000Y30500000D03*
G04 #@! TD*
D19*
G04 #@! TO.C,J7*
X12400000Y22500000D03*
X12400000Y23500000D03*
X12400000Y24500000D03*
X12400000Y25500000D03*
D20*
X9875000Y21200000D03*
X9875000Y26800000D03*
G04 #@! TD*
D16*
G04 #@! TO.C,C22*
X76000000Y6700000D03*
X76000000Y8200000D03*
G04 #@! TD*
D34*
G04 #@! TO.C,C23*
X80500000Y2600000D03*
X80500000Y8000000D03*
G04 #@! TD*
D35*
G04 #@! TO.C,RV1*
X53600000Y7900000D03*
D36*
X54600000Y4650000D03*
X52600000Y4650000D03*
G04 #@! TD*
D35*
G04 #@! TO.C,RV2*
X57500000Y7900000D03*
D36*
X58500000Y4650000D03*
X56500000Y4650000D03*
G04 #@! TD*
G04 #@! TO.C,RV3*
X60400000Y4650000D03*
X62400000Y4650000D03*
D35*
X61400000Y7900000D03*
G04 #@! TD*
D36*
G04 #@! TO.C,RV4*
X64300000Y4600000D03*
X66300000Y4600000D03*
D35*
X65300000Y7850000D03*
G04 #@! TD*
G04 #@! TO.C,RV5*
X69200000Y7900000D03*
D36*
X70200000Y4650000D03*
X68200000Y4650000D03*
G04 #@! TD*
G04 #@! TO.C,RV6*
X72200000Y4600000D03*
X74200000Y4600000D03*
D35*
X73200000Y7850000D03*
G04 #@! TD*
M02*
