G04 #@! TF.GenerationSoftware,KiCad,Pcbnew,(5.0.0)*
G04 #@! TF.CreationDate,2019-07-10T12:20:45+09:00*
G04 #@! TF.ProjectId,MainCircuit_v2_top,4D61696E436972637569745F76325F74,rev?*
G04 #@! TF.SameCoordinates,PX61d8d40PY6e87e60*
G04 #@! TF.FileFunction,Legend,Bot*
G04 #@! TF.FilePolarity,Positive*
%FSLAX46Y46*%
G04 Gerber Fmt 4.6, Leading zero omitted, Abs format (unit mm)*
G04 Created by KiCad (PCBNEW (5.0.0)) date 07/10/19 12:20:45*
%MOMM*%
%LPD*%
G01*
G04 APERTURE LIST*
%ADD10C,0.300000*%
%ADD11C,0.150000*%
%ADD12C,0.120000*%
%ADD13C,0.010000*%
%ADD14R,1.924000X1.924000*%
%ADD15C,1.924000*%
%ADD16C,2.600000*%
%ADD17R,1.200000X1.100000*%
%ADD18R,1.100000X1.200000*%
%ADD19R,1.650000X0.630000*%
%ADD20R,2.400000X2.200000*%
%ADD21R,2.400000X2.600000*%
%ADD22R,1.200000X0.900000*%
%ADD23R,0.900000X1.200000*%
%ADD24R,0.650000X0.900000*%
%ADD25R,1.400000X1.600000*%
%ADD26R,1.050000X1.800000*%
%ADD27R,1.100000X1.600000*%
%ADD28R,1.400000X1.200000*%
%ADD29R,1.400000X3.200000*%
%ADD30R,1.700000X2.300000*%
%ADD31R,2.400000X0.810000*%
%ADD32R,0.630000X1.650000*%
%ADD33R,2.200000X2.400000*%
%ADD34R,2.600000X2.400000*%
G04 APERTURE END LIST*
D10*
X77142857Y29278572D02*
X77071428Y29350000D01*
X76928571Y29421429D01*
X76571428Y29421429D01*
X76428571Y29350000D01*
X76357142Y29278572D01*
X76285714Y29135715D01*
X76285714Y28992858D01*
X76357142Y28778572D01*
X77214285Y27921429D01*
X76285714Y27921429D01*
X75357142Y29421429D02*
X75214285Y29421429D01*
X75071428Y29350000D01*
X75000000Y29278572D01*
X74928571Y29135715D01*
X74857142Y28850000D01*
X74857142Y28492858D01*
X74928571Y28207143D01*
X75000000Y28064286D01*
X75071428Y27992858D01*
X75214285Y27921429D01*
X75357142Y27921429D01*
X75500000Y27992858D01*
X75571428Y28064286D01*
X75642857Y28207143D01*
X75714285Y28492858D01*
X75714285Y28850000D01*
X75642857Y29135715D01*
X75571428Y29278572D01*
X75500000Y29350000D01*
X75357142Y29421429D01*
X73428571Y27921429D02*
X74285714Y27921429D01*
X73857142Y27921429D02*
X73857142Y29421429D01*
X74000000Y29207143D01*
X74142857Y29064286D01*
X74285714Y28992858D01*
X72714285Y27921429D02*
X72428571Y27921429D01*
X72285714Y27992858D01*
X72214285Y28064286D01*
X72071428Y28278572D01*
X72000000Y28564286D01*
X72000000Y29135715D01*
X72071428Y29278572D01*
X72142857Y29350000D01*
X72285714Y29421429D01*
X72571428Y29421429D01*
X72714285Y29350000D01*
X72785714Y29278572D01*
X72857142Y29135715D01*
X72857142Y28778572D01*
X72785714Y28635715D01*
X72714285Y28564286D01*
X72571428Y28492858D01*
X72285714Y28492858D01*
X72142857Y28564286D01*
X72071428Y28635715D01*
X72000000Y28778572D01*
X71357142Y28064286D02*
X71285714Y27992858D01*
X71357142Y27921429D01*
X71428571Y27992858D01*
X71357142Y28064286D01*
X71357142Y27921429D01*
X70214285Y29421429D02*
X70214285Y28350000D01*
X70285714Y28135715D01*
X70428571Y27992858D01*
X70642857Y27921429D01*
X70785714Y27921429D01*
X68857142Y28921429D02*
X68857142Y27921429D01*
X69500000Y28921429D02*
X69500000Y28135715D01*
X69428571Y27992858D01*
X69285714Y27921429D01*
X69071428Y27921429D01*
X68928571Y27992858D01*
X68857142Y28064286D01*
X67928571Y27921429D02*
X68071428Y27992858D01*
X68142857Y28135715D01*
X68142857Y29421429D01*
X67500000Y28921429D02*
X67142857Y27921429D01*
X66785714Y28921429D02*
X67142857Y27921429D01*
X67285714Y27564286D01*
X67357142Y27492858D01*
X67500000Y27421429D01*
X77050000Y25321429D02*
X77050000Y26821429D01*
X76550000Y25750000D01*
X76050000Y26821429D01*
X76050000Y25321429D01*
X74692857Y25321429D02*
X74692857Y26107143D01*
X74764285Y26250000D01*
X74907142Y26321429D01*
X75192857Y26321429D01*
X75335714Y26250000D01*
X74692857Y25392858D02*
X74835714Y25321429D01*
X75192857Y25321429D01*
X75335714Y25392858D01*
X75407142Y25535715D01*
X75407142Y25678572D01*
X75335714Y25821429D01*
X75192857Y25892858D01*
X74835714Y25892858D01*
X74692857Y25964286D01*
X73978571Y25321429D02*
X73978571Y26321429D01*
X73978571Y26821429D02*
X74050000Y26750000D01*
X73978571Y26678572D01*
X73907142Y26750000D01*
X73978571Y26821429D01*
X73978571Y26678572D01*
X73264285Y26321429D02*
X73264285Y25321429D01*
X73264285Y26178572D02*
X73192857Y26250000D01*
X73050000Y26321429D01*
X72835714Y26321429D01*
X72692857Y26250000D01*
X72621428Y26107143D01*
X72621428Y25321429D01*
X71050000Y25464286D02*
X71121428Y25392858D01*
X71335714Y25321429D01*
X71478571Y25321429D01*
X71692857Y25392858D01*
X71835714Y25535715D01*
X71907142Y25678572D01*
X71978571Y25964286D01*
X71978571Y26178572D01*
X71907142Y26464286D01*
X71835714Y26607143D01*
X71692857Y26750000D01*
X71478571Y26821429D01*
X71335714Y26821429D01*
X71121428Y26750000D01*
X71050000Y26678572D01*
X70407142Y25321429D02*
X70407142Y26321429D01*
X70407142Y26821429D02*
X70478571Y26750000D01*
X70407142Y26678572D01*
X70335714Y26750000D01*
X70407142Y26821429D01*
X70407142Y26678572D01*
X69692857Y25321429D02*
X69692857Y26321429D01*
X69692857Y26035715D02*
X69621428Y26178572D01*
X69550000Y26250000D01*
X69407142Y26321429D01*
X69264285Y26321429D01*
X68121428Y25392858D02*
X68264285Y25321429D01*
X68550000Y25321429D01*
X68692857Y25392858D01*
X68764285Y25464286D01*
X68835714Y25607143D01*
X68835714Y26035715D01*
X68764285Y26178572D01*
X68692857Y26250000D01*
X68550000Y26321429D01*
X68264285Y26321429D01*
X68121428Y26250000D01*
X66835714Y26321429D02*
X66835714Y25321429D01*
X67478571Y26321429D02*
X67478571Y25535715D01*
X67407142Y25392858D01*
X67264285Y25321429D01*
X67050000Y25321429D01*
X66907142Y25392858D01*
X66835714Y25464286D01*
X66121428Y25321429D02*
X66121428Y26321429D01*
X66121428Y26821429D02*
X66192857Y26750000D01*
X66121428Y26678572D01*
X66050000Y26750000D01*
X66121428Y26821429D01*
X66121428Y26678572D01*
X65621428Y26321429D02*
X65050000Y26321429D01*
X65407142Y26821429D02*
X65407142Y25535715D01*
X65335714Y25392858D01*
X65192857Y25321429D01*
X65050000Y25321429D01*
X64907142Y25178572D02*
X63764285Y25178572D01*
X63621428Y26821429D02*
X62764285Y26821429D01*
X63192857Y25321429D02*
X63192857Y26821429D01*
X62050000Y25321429D02*
X62192857Y25392858D01*
X62264285Y25464286D01*
X62335714Y25607143D01*
X62335714Y26035715D01*
X62264285Y26178572D01*
X62192857Y26250000D01*
X62050000Y26321429D01*
X61835714Y26321429D01*
X61692857Y26250000D01*
X61621428Y26178572D01*
X61550000Y26035715D01*
X61550000Y25607143D01*
X61621428Y25464286D01*
X61692857Y25392858D01*
X61835714Y25321429D01*
X62050000Y25321429D01*
X60907142Y26321429D02*
X60907142Y24821429D01*
X60907142Y26250000D02*
X60764285Y26321429D01*
X60478571Y26321429D01*
X60335714Y26250000D01*
X60264285Y26178572D01*
X60192857Y26035715D01*
X60192857Y25607143D01*
X60264285Y25464286D01*
X60335714Y25392858D01*
X60478571Y25321429D01*
X60764285Y25321429D01*
X60907142Y25392858D01*
X59907142Y25178572D02*
X58764285Y25178572D01*
X58550000Y26321429D02*
X58192857Y25321429D01*
X57835714Y26321429D01*
X57335714Y26678572D02*
X57264285Y26750000D01*
X57121428Y26821429D01*
X56764285Y26821429D01*
X56621428Y26750000D01*
X56550000Y26678572D01*
X56478571Y26535715D01*
X56478571Y26392858D01*
X56550000Y26178572D01*
X57407142Y25321429D01*
X56478571Y25321429D01*
D11*
G04 #@! TO.C,C1*
X32200000Y22450000D02*
X32200000Y24050000D01*
X33000000Y22450000D02*
X32200000Y22450000D01*
X33000000Y22450000D02*
X33000000Y24050000D01*
X33000000Y24050000D02*
X32200000Y24050000D01*
G04 #@! TO.C,C3*
X32200000Y18225000D02*
X32200000Y19825000D01*
X33000000Y18225000D02*
X32200000Y18225000D01*
X33000000Y18225000D02*
X33000000Y19825000D01*
X33000000Y19825000D02*
X32200000Y19825000D01*
G04 #@! TO.C,C4*
X37100000Y14875000D02*
X37100000Y13275000D01*
X36300000Y14875000D02*
X37100000Y14875000D01*
X36300000Y14875000D02*
X36300000Y13275000D01*
X36300000Y13275000D02*
X37100000Y13275000D01*
G04 #@! TO.C,C6*
X40425000Y21650000D02*
X38825000Y21650000D01*
X40425000Y22450000D02*
X40425000Y21650000D01*
X40425000Y22450000D02*
X38825000Y22450000D01*
X38825000Y22450000D02*
X38825000Y21650000D01*
G04 #@! TO.C,C7*
X43775000Y7100000D02*
X42175000Y7100000D01*
X43775000Y7900000D02*
X43775000Y7100000D01*
X43775000Y7900000D02*
X42175000Y7900000D01*
X42175000Y7900000D02*
X42175000Y7100000D01*
G04 #@! TO.C,C8*
X47225000Y6500000D02*
X48825000Y6500000D01*
X47225000Y5700000D02*
X47225000Y6500000D01*
X47225000Y5700000D02*
X48825000Y5700000D01*
X48825000Y5700000D02*
X48825000Y6500000D01*
G04 #@! TO.C,C9*
X50350000Y7100000D02*
X48750000Y7100000D01*
X50350000Y7900000D02*
X50350000Y7100000D01*
X50350000Y7900000D02*
X48750000Y7900000D01*
X48750000Y7900000D02*
X48750000Y7100000D01*
G04 #@! TO.C,C10*
X52150000Y22700000D02*
X53750000Y22700000D01*
X52150000Y21900000D02*
X52150000Y22700000D01*
X52150000Y21900000D02*
X53750000Y21900000D01*
X53750000Y21900000D02*
X53750000Y22700000D01*
G04 #@! TO.C,C18*
X61450000Y30800000D02*
X63050000Y30800000D01*
X61450000Y30000000D02*
X61450000Y30800000D01*
X61450000Y30000000D02*
X63050000Y30000000D01*
X63050000Y30000000D02*
X63050000Y30800000D01*
G04 #@! TO.C,C19*
X27150000Y31450000D02*
X27150000Y32250000D01*
X25550000Y31450000D02*
X27150000Y31450000D01*
X25550000Y31450000D02*
X25550000Y32250000D01*
X25550000Y32250000D02*
X27150000Y32250000D01*
G04 #@! TO.C,C21*
X36450000Y30950000D02*
X36450000Y31750000D01*
X34850000Y30950000D02*
X36450000Y30950000D01*
X34850000Y30950000D02*
X34850000Y31750000D01*
X34850000Y31750000D02*
X36450000Y31750000D01*
G04 #@! TO.C,J1*
X85000000Y6600000D02*
X89600000Y6600000D01*
X85000000Y18500000D02*
X85000000Y6600000D01*
X89600000Y18500000D02*
X85000000Y18500000D01*
X89600000Y6600000D02*
X89600000Y18500000D01*
G04 #@! TO.C,L1*
X35400000Y13250000D02*
X35400000Y14850000D01*
X35400000Y13250000D02*
X34600000Y13250000D01*
X34600000Y13250000D02*
X34600000Y14850000D01*
X35400000Y14850000D02*
X34600000Y14850000D01*
G04 #@! TO.C,R6*
X38800000Y23050000D02*
X40400000Y23050000D01*
X38800000Y23050000D02*
X38800000Y23850000D01*
X38800000Y23850000D02*
X40400000Y23850000D01*
X40400000Y23050000D02*
X40400000Y23850000D01*
G04 #@! TO.C,R19*
X23000000Y20050000D02*
X23000000Y18450000D01*
X23000000Y20050000D02*
X23800000Y20050000D01*
X23800000Y20050000D02*
X23800000Y18450000D01*
X23000000Y18450000D02*
X23800000Y18450000D01*
G04 #@! TO.C,R20*
X28850000Y9600000D02*
X27250000Y9600000D01*
X28850000Y9600000D02*
X28850000Y8800000D01*
X28850000Y8800000D02*
X27250000Y8800000D01*
X27250000Y9600000D02*
X27250000Y8800000D01*
G04 #@! TO.C,R21*
X14050000Y18600000D02*
X15650000Y18600000D01*
X14050000Y18600000D02*
X14050000Y19400000D01*
X14050000Y19400000D02*
X15650000Y19400000D01*
X15650000Y18600000D02*
X15650000Y19400000D01*
G04 #@! TO.C,R22*
X47900000Y1850000D02*
X47900000Y3450000D01*
X47900000Y1850000D02*
X47100000Y1850000D01*
X47100000Y1850000D02*
X47100000Y3450000D01*
X47900000Y3450000D02*
X47100000Y3450000D01*
G04 #@! TO.C,R23*
X45900000Y1850000D02*
X45900000Y3450000D01*
X45900000Y1850000D02*
X45100000Y1850000D01*
X45100000Y1850000D02*
X45100000Y3450000D01*
X45900000Y3450000D02*
X45100000Y3450000D01*
G04 #@! TO.C,R24*
X43900000Y1850000D02*
X43900000Y3450000D01*
X43900000Y1850000D02*
X43100000Y1850000D01*
X43100000Y1850000D02*
X43100000Y3450000D01*
X43900000Y3450000D02*
X43100000Y3450000D01*
D12*
G04 #@! TO.C,RN2*
X29740000Y28490000D02*
X29740000Y28990000D01*
X32100000Y28490000D02*
X32100000Y28990000D01*
D11*
G04 #@! TO.C,Y1*
X34110000Y22390000D02*
X36110000Y22390000D01*
X34110000Y24890000D02*
X34110000Y22390000D01*
X36110000Y24890000D02*
X34110000Y24890000D01*
X36110000Y22390000D02*
X36110000Y24890000D01*
G04 #@! TO.C,Y2*
X34175000Y20325000D02*
X36675000Y20325000D01*
X36675000Y20325000D02*
X36675000Y18325000D01*
X36675000Y18325000D02*
X34175000Y18325000D01*
X34175000Y18325000D02*
X34175000Y20325000D01*
X34825001Y19875000D02*
G75*
G03X34825001Y19875000I-176777J0D01*
G01*
D12*
G04 #@! TO.C,RN3*
X16300000Y22040000D02*
X16300000Y21540000D01*
X18660000Y22040000D02*
X18660000Y21540000D01*
D11*
G04 #@! TO.C,U3*
X25900000Y500000D02*
X26000000Y500000D01*
X26000000Y500000D02*
X26000000Y17600000D01*
X26000000Y17600000D02*
X25900000Y17600000D01*
X10900000Y600000D02*
X10900000Y17600000D01*
X10900000Y17600000D02*
X25900000Y17600000D01*
X25900000Y500000D02*
X10900000Y500000D01*
X10900000Y500000D02*
X10900000Y600000D01*
G04 #@! TO.C,C24*
X60425000Y14000000D02*
X62025000Y14000000D01*
X60425000Y13200000D02*
X60425000Y14000000D01*
X60425000Y13200000D02*
X62025000Y13200000D01*
X62025000Y13200000D02*
X62025000Y14000000D01*
G04 #@! TO.C,C25*
X62175000Y3900000D02*
X62175000Y3100000D01*
X63775000Y3900000D02*
X62175000Y3900000D01*
X63775000Y3900000D02*
X63775000Y3100000D01*
X63775000Y3100000D02*
X62175000Y3100000D01*
G04 #@! TO.C,C26*
X70650000Y14100000D02*
X70650000Y13300000D01*
X72250000Y14100000D02*
X70650000Y14100000D01*
X72250000Y14100000D02*
X72250000Y13300000D01*
X72250000Y13300000D02*
X70650000Y13300000D01*
G04 #@! TO.C,C27*
X68950000Y3900000D02*
X70550000Y3900000D01*
X68950000Y3100000D02*
X68950000Y3900000D01*
X68950000Y3100000D02*
X70550000Y3100000D01*
X70550000Y3100000D02*
X70550000Y3900000D01*
D12*
G04 #@! TO.C,U4*
X62845700Y5652500D02*
X64270700Y5652500D01*
X64270700Y4477500D02*
X68420700Y4477500D01*
X64270700Y13427500D02*
X68420700Y13427500D01*
X68420700Y5652500D02*
X68420700Y4477500D01*
X64270700Y5652500D02*
X64270700Y4477500D01*
X68420700Y12252500D02*
X68420700Y13427500D01*
X64270700Y12252500D02*
X64270700Y13427500D01*
D11*
G04 #@! TO.C,R27*
X55800000Y5850000D02*
X56600000Y5850000D01*
X56600000Y7450000D02*
X56600000Y5850000D01*
X55800000Y7450000D02*
X56600000Y7450000D01*
X55800000Y7450000D02*
X55800000Y5850000D01*
G04 #@! TO.C,R28*
X59000000Y7450000D02*
X59000000Y5850000D01*
X59000000Y7450000D02*
X59800000Y7450000D01*
X59800000Y7450000D02*
X59800000Y5850000D01*
X59000000Y5850000D02*
X59800000Y5850000D01*
G04 #@! TO.C,R29*
X57400000Y5850000D02*
X58200000Y5850000D01*
X58200000Y7450000D02*
X58200000Y5850000D01*
X57400000Y7450000D02*
X58200000Y7450000D01*
X57400000Y7450000D02*
X57400000Y5850000D01*
G04 #@! TO.C,J11*
X42000000Y27600000D02*
X41000000Y27600000D01*
X41000000Y27600000D02*
X41000000Y32200000D01*
X42000000Y32200000D02*
X41000000Y32200000D01*
X41997949Y32202373D02*
X49897949Y32202373D01*
X49897949Y27602373D02*
X41997949Y27602373D01*
X49900000Y27600000D02*
X49900000Y32200000D01*
D13*
G04 #@! TO.C,G\002A\002A\002A*
G36*
X74839760Y21877488D02*
X74700681Y21875559D01*
X74595727Y21872636D01*
X74532525Y21868794D01*
X74526000Y21867986D01*
X74487950Y21860654D01*
X74451208Y21847500D01*
X74410407Y21824134D01*
X74360174Y21786165D01*
X74295139Y21729205D01*
X74209932Y21648862D01*
X74099181Y21540746D01*
X73973550Y21416388D01*
X73535400Y20981400D01*
X73095605Y21418600D01*
X72955541Y21557153D01*
X72846032Y21663453D01*
X72762173Y21741623D01*
X72699055Y21795781D01*
X72651771Y21830048D01*
X72615413Y21848546D01*
X72585075Y21855393D01*
X72574905Y21855800D01*
X72494043Y21838016D01*
X72443200Y21805000D01*
X72433512Y21794246D01*
X72425140Y21780371D01*
X72417989Y21759820D01*
X72411963Y21729038D01*
X72406966Y21684470D01*
X72402901Y21622560D01*
X72399672Y21539753D01*
X72397183Y21432494D01*
X72395338Y21297227D01*
X72394041Y21130397D01*
X72393195Y20928448D01*
X72392704Y20687827D01*
X72392473Y20404976D01*
X72392404Y20076341D01*
X72392400Y19927244D01*
X72392400Y18100288D01*
X72459326Y18047644D01*
X72479354Y18033294D01*
X72502710Y18021819D01*
X72534914Y18012897D01*
X72581488Y18006208D01*
X72647955Y18001432D01*
X72739835Y17998247D01*
X72862652Y17996332D01*
X73021925Y17995368D01*
X73223178Y17995033D01*
X73365731Y17995000D01*
X74205210Y17995000D01*
X74639573Y18426800D01*
X74761655Y18547229D01*
X74872423Y18654724D01*
X74966654Y18744358D01*
X75039121Y18811204D01*
X75084599Y18850335D01*
X75097500Y18858600D01*
X75121370Y18841405D01*
X75175824Y18793105D01*
X75255637Y18718626D01*
X75355584Y18622895D01*
X75470440Y18510839D01*
X75555428Y18426800D01*
X75703932Y18280166D01*
X75821993Y18167136D01*
X75914533Y18084849D01*
X75986477Y18030440D01*
X76042748Y18001049D01*
X76088269Y17993811D01*
X76127963Y18005866D01*
X76166754Y18034350D01*
X76190855Y18057346D01*
X76253200Y18119691D01*
X76253200Y19150700D01*
X75872200Y19150700D01*
X75871197Y19002521D01*
X75868406Y18873536D01*
X75864158Y18771650D01*
X75858781Y18704770D01*
X75852621Y18680800D01*
X75828194Y18697821D01*
X75775819Y18744245D01*
X75703028Y18813123D01*
X75617354Y18897499D01*
X75611321Y18903553D01*
X75526430Y18990788D01*
X75456557Y19066300D01*
X75408652Y19122309D01*
X75389668Y19151035D01*
X75389653Y19151199D01*
X74805400Y19151199D01*
X74788206Y19126416D01*
X74740171Y19071643D01*
X74666614Y18992567D01*
X74572856Y18894877D01*
X74464217Y18784261D01*
X74431068Y18750958D01*
X74056736Y18376000D01*
X72773400Y18376000D01*
X72773400Y19684736D01*
X73535528Y20445592D01*
X74170464Y19811037D01*
X74317783Y19663114D01*
X74453010Y19526003D01*
X74572070Y19403935D01*
X74670891Y19301144D01*
X74745400Y19221861D01*
X74791523Y19170320D01*
X74805400Y19151199D01*
X75389653Y19151199D01*
X75389600Y19151733D01*
X75406642Y19178012D01*
X75452109Y19230567D01*
X75517514Y19300823D01*
X75594371Y19380206D01*
X75674194Y19460141D01*
X75748496Y19532053D01*
X75808790Y19587367D01*
X75846589Y19617509D01*
X75853653Y19620600D01*
X75859502Y19596519D01*
X75864593Y19529545D01*
X75868615Y19427585D01*
X75871254Y19298544D01*
X75872200Y19150700D01*
X76253200Y19150700D01*
X76253200Y20193594D01*
X75873096Y20193594D01*
X75485483Y19805374D01*
X75097870Y19417155D01*
X73802811Y20712800D01*
X73267641Y20712800D01*
X73040100Y20484200D01*
X72952690Y20397848D01*
X72877622Y20326434D01*
X72822315Y20276819D01*
X72794183Y20255863D01*
X72792980Y20255600D01*
X72786725Y20279664D01*
X72781298Y20346510D01*
X72777039Y20448124D01*
X72774295Y20576492D01*
X72773400Y20712800D01*
X72774431Y20858851D01*
X72777294Y20985598D01*
X72781645Y21085027D01*
X72787143Y21149124D01*
X72792980Y21170000D01*
X72817328Y21152970D01*
X72869748Y21106451D01*
X72942823Y21037305D01*
X73029137Y20952392D01*
X73040100Y20941400D01*
X73267641Y20712800D01*
X73802811Y20712800D01*
X73802100Y20713511D01*
X74593662Y21501107D01*
X75226581Y21494304D01*
X75859500Y21487500D01*
X75873096Y20193594D01*
X76253200Y20193594D01*
X76253200Y21725968D01*
X76130668Y21868500D01*
X75385484Y21876548D01*
X75189788Y21878059D01*
X75005337Y21878347D01*
X74839760Y21877488D01*
X74839760Y21877488D01*
G37*
X74839760Y21877488D02*
X74700681Y21875559D01*
X74595727Y21872636D01*
X74532525Y21868794D01*
X74526000Y21867986D01*
X74487950Y21860654D01*
X74451208Y21847500D01*
X74410407Y21824134D01*
X74360174Y21786165D01*
X74295139Y21729205D01*
X74209932Y21648862D01*
X74099181Y21540746D01*
X73973550Y21416388D01*
X73535400Y20981400D01*
X73095605Y21418600D01*
X72955541Y21557153D01*
X72846032Y21663453D01*
X72762173Y21741623D01*
X72699055Y21795781D01*
X72651771Y21830048D01*
X72615413Y21848546D01*
X72585075Y21855393D01*
X72574905Y21855800D01*
X72494043Y21838016D01*
X72443200Y21805000D01*
X72433512Y21794246D01*
X72425140Y21780371D01*
X72417989Y21759820D01*
X72411963Y21729038D01*
X72406966Y21684470D01*
X72402901Y21622560D01*
X72399672Y21539753D01*
X72397183Y21432494D01*
X72395338Y21297227D01*
X72394041Y21130397D01*
X72393195Y20928448D01*
X72392704Y20687827D01*
X72392473Y20404976D01*
X72392404Y20076341D01*
X72392400Y19927244D01*
X72392400Y18100288D01*
X72459326Y18047644D01*
X72479354Y18033294D01*
X72502710Y18021819D01*
X72534914Y18012897D01*
X72581488Y18006208D01*
X72647955Y18001432D01*
X72739835Y17998247D01*
X72862652Y17996332D01*
X73021925Y17995368D01*
X73223178Y17995033D01*
X73365731Y17995000D01*
X74205210Y17995000D01*
X74639573Y18426800D01*
X74761655Y18547229D01*
X74872423Y18654724D01*
X74966654Y18744358D01*
X75039121Y18811204D01*
X75084599Y18850335D01*
X75097500Y18858600D01*
X75121370Y18841405D01*
X75175824Y18793105D01*
X75255637Y18718626D01*
X75355584Y18622895D01*
X75470440Y18510839D01*
X75555428Y18426800D01*
X75703932Y18280166D01*
X75821993Y18167136D01*
X75914533Y18084849D01*
X75986477Y18030440D01*
X76042748Y18001049D01*
X76088269Y17993811D01*
X76127963Y18005866D01*
X76166754Y18034350D01*
X76190855Y18057346D01*
X76253200Y18119691D01*
X76253200Y19150700D01*
X75872200Y19150700D01*
X75871197Y19002521D01*
X75868406Y18873536D01*
X75864158Y18771650D01*
X75858781Y18704770D01*
X75852621Y18680800D01*
X75828194Y18697821D01*
X75775819Y18744245D01*
X75703028Y18813123D01*
X75617354Y18897499D01*
X75611321Y18903553D01*
X75526430Y18990788D01*
X75456557Y19066300D01*
X75408652Y19122309D01*
X75389668Y19151035D01*
X75389653Y19151199D01*
X74805400Y19151199D01*
X74788206Y19126416D01*
X74740171Y19071643D01*
X74666614Y18992567D01*
X74572856Y18894877D01*
X74464217Y18784261D01*
X74431068Y18750958D01*
X74056736Y18376000D01*
X72773400Y18376000D01*
X72773400Y19684736D01*
X73535528Y20445592D01*
X74170464Y19811037D01*
X74317783Y19663114D01*
X74453010Y19526003D01*
X74572070Y19403935D01*
X74670891Y19301144D01*
X74745400Y19221861D01*
X74791523Y19170320D01*
X74805400Y19151199D01*
X75389653Y19151199D01*
X75389600Y19151733D01*
X75406642Y19178012D01*
X75452109Y19230567D01*
X75517514Y19300823D01*
X75594371Y19380206D01*
X75674194Y19460141D01*
X75748496Y19532053D01*
X75808790Y19587367D01*
X75846589Y19617509D01*
X75853653Y19620600D01*
X75859502Y19596519D01*
X75864593Y19529545D01*
X75868615Y19427585D01*
X75871254Y19298544D01*
X75872200Y19150700D01*
X76253200Y19150700D01*
X76253200Y20193594D01*
X75873096Y20193594D01*
X75485483Y19805374D01*
X75097870Y19417155D01*
X73802811Y20712800D01*
X73267641Y20712800D01*
X73040100Y20484200D01*
X72952690Y20397848D01*
X72877622Y20326434D01*
X72822315Y20276819D01*
X72794183Y20255863D01*
X72792980Y20255600D01*
X72786725Y20279664D01*
X72781298Y20346510D01*
X72777039Y20448124D01*
X72774295Y20576492D01*
X72773400Y20712800D01*
X72774431Y20858851D01*
X72777294Y20985598D01*
X72781645Y21085027D01*
X72787143Y21149124D01*
X72792980Y21170000D01*
X72817328Y21152970D01*
X72869748Y21106451D01*
X72942823Y21037305D01*
X73029137Y20952392D01*
X73040100Y20941400D01*
X73267641Y20712800D01*
X73802811Y20712800D01*
X73802100Y20713511D01*
X74593662Y21501107D01*
X75226581Y21494304D01*
X75859500Y21487500D01*
X75873096Y20193594D01*
X76253200Y20193594D01*
X76253200Y21725968D01*
X76130668Y21868500D01*
X75385484Y21876548D01*
X75189788Y21878059D01*
X75005337Y21878347D01*
X74839760Y21877488D01*
G36*
X61873877Y20755289D02*
X61687239Y20709346D01*
X61521918Y20621549D01*
X61380102Y20497106D01*
X61263981Y20341224D01*
X61175743Y20159112D01*
X61117577Y19955976D01*
X61091673Y19737025D01*
X61100218Y19507465D01*
X61145403Y19272505D01*
X61191094Y19130881D01*
X61274802Y18968640D01*
X61393866Y18822428D01*
X61538162Y18700627D01*
X61697564Y18611619D01*
X61861950Y18563787D01*
X61878780Y18561531D01*
X62003800Y18546725D01*
X62003800Y18635085D01*
X61994734Y18702872D01*
X61960312Y18741866D01*
X61939791Y18752611D01*
X61881715Y18798576D01*
X61850891Y18847242D01*
X61844156Y18890126D01*
X61838190Y18977408D01*
X61833194Y19102688D01*
X61829364Y19259569D01*
X61826900Y19441652D01*
X61826001Y19642536D01*
X61826000Y19648470D01*
X61826630Y19886375D01*
X61828976Y20078585D01*
X61833726Y20230195D01*
X61841568Y20346298D01*
X61853189Y20431990D01*
X61869277Y20492365D01*
X61890519Y20532518D01*
X61917603Y20557542D01*
X61950682Y20572365D01*
X61988621Y20598026D01*
X62002957Y20652063D01*
X62003800Y20679950D01*
X62003800Y20770676D01*
X61873877Y20755289D01*
X61873877Y20755289D01*
G37*
X61873877Y20755289D02*
X61687239Y20709346D01*
X61521918Y20621549D01*
X61380102Y20497106D01*
X61263981Y20341224D01*
X61175743Y20159112D01*
X61117577Y19955976D01*
X61091673Y19737025D01*
X61100218Y19507465D01*
X61145403Y19272505D01*
X61191094Y19130881D01*
X61274802Y18968640D01*
X61393866Y18822428D01*
X61538162Y18700627D01*
X61697564Y18611619D01*
X61861950Y18563787D01*
X61878780Y18561531D01*
X62003800Y18546725D01*
X62003800Y18635085D01*
X61994734Y18702872D01*
X61960312Y18741866D01*
X61939791Y18752611D01*
X61881715Y18798576D01*
X61850891Y18847242D01*
X61844156Y18890126D01*
X61838190Y18977408D01*
X61833194Y19102688D01*
X61829364Y19259569D01*
X61826900Y19441652D01*
X61826001Y19642536D01*
X61826000Y19648470D01*
X61826630Y19886375D01*
X61828976Y20078585D01*
X61833726Y20230195D01*
X61841568Y20346298D01*
X61853189Y20431990D01*
X61869277Y20492365D01*
X61890519Y20532518D01*
X61917603Y20557542D01*
X61950682Y20572365D01*
X61988621Y20598026D01*
X62002957Y20652063D01*
X62003800Y20679950D01*
X62003800Y20770676D01*
X61873877Y20755289D01*
G36*
X62156200Y18553800D02*
X62557520Y18553800D01*
X62733568Y18555458D01*
X62861815Y18560569D01*
X62945156Y18569335D01*
X62986487Y18581963D01*
X62989320Y18584280D01*
X63017425Y18632679D01*
X63000023Y18681655D01*
X62943600Y18731600D01*
X62867400Y18785860D01*
X62867172Y19654080D01*
X62866943Y20522300D01*
X62949722Y20590849D01*
X63000903Y20638792D01*
X63015954Y20673624D01*
X63004366Y20705149D01*
X62988743Y20722497D01*
X62961341Y20735172D01*
X62914478Y20744099D01*
X62840473Y20750203D01*
X62731642Y20754407D01*
X62580304Y20757637D01*
X62566216Y20757880D01*
X62156200Y20764859D01*
X62156200Y18553800D01*
X62156200Y18553800D01*
G37*
X62156200Y18553800D02*
X62557520Y18553800D01*
X62733568Y18555458D01*
X62861815Y18560569D01*
X62945156Y18569335D01*
X62986487Y18581963D01*
X62989320Y18584280D01*
X63017425Y18632679D01*
X63000023Y18681655D01*
X62943600Y18731600D01*
X62867400Y18785860D01*
X62867172Y19654080D01*
X62866943Y20522300D01*
X62949722Y20590849D01*
X63000903Y20638792D01*
X63015954Y20673624D01*
X63004366Y20705149D01*
X62988743Y20722497D01*
X62961341Y20735172D01*
X62914478Y20744099D01*
X62840473Y20750203D01*
X62731642Y20754407D01*
X62580304Y20757637D01*
X62566216Y20757880D01*
X62156200Y20764859D01*
X62156200Y18553800D01*
G36*
X64467600Y18779808D02*
X64377595Y18742202D01*
X64299280Y18696394D01*
X64269719Y18645664D01*
X64289924Y18591752D01*
X64290069Y18591577D01*
X64309765Y18577890D01*
X64347305Y18567825D01*
X64409371Y18560883D01*
X64502644Y18556564D01*
X64633802Y18554371D01*
X64795831Y18553800D01*
X64984908Y18555050D01*
X65126719Y18558940D01*
X65224739Y18565679D01*
X65282443Y18575478D01*
X65300720Y18584280D01*
X65328825Y18632679D01*
X65311423Y18681655D01*
X65255000Y18731600D01*
X65178800Y18785860D01*
X65178572Y19654080D01*
X65178343Y20522300D01*
X65261122Y20590849D01*
X65312303Y20638792D01*
X65327354Y20673624D01*
X65315766Y20705149D01*
X65300143Y20722497D01*
X65272741Y20735172D01*
X65225878Y20744099D01*
X65151873Y20750203D01*
X65043042Y20754407D01*
X64891704Y20757637D01*
X64877616Y20757880D01*
X64467600Y20764859D01*
X64467600Y18779808D01*
X64467600Y18779808D01*
G37*
X64467600Y18779808D02*
X64377595Y18742202D01*
X64299280Y18696394D01*
X64269719Y18645664D01*
X64289924Y18591752D01*
X64290069Y18591577D01*
X64309765Y18577890D01*
X64347305Y18567825D01*
X64409371Y18560883D01*
X64502644Y18556564D01*
X64633802Y18554371D01*
X64795831Y18553800D01*
X64984908Y18555050D01*
X65126719Y18558940D01*
X65224739Y18565679D01*
X65282443Y18575478D01*
X65300720Y18584280D01*
X65328825Y18632679D01*
X65311423Y18681655D01*
X65255000Y18731600D01*
X65178800Y18785860D01*
X65178572Y19654080D01*
X65178343Y20522300D01*
X65261122Y20590849D01*
X65312303Y20638792D01*
X65327354Y20673624D01*
X65315766Y20705149D01*
X65300143Y20722497D01*
X65272741Y20735172D01*
X65225878Y20744099D01*
X65151873Y20750203D01*
X65043042Y20754407D01*
X64891704Y20757637D01*
X64877616Y20757880D01*
X64467600Y20764859D01*
X64467600Y18779808D01*
G36*
X65978351Y20750491D02*
X65856288Y20748814D01*
X65770601Y20745202D01*
X65714080Y20738984D01*
X65679515Y20729490D01*
X65659696Y20716051D01*
X65651469Y20705149D01*
X65639937Y20670103D01*
X65658493Y20634572D01*
X65706079Y20590849D01*
X65788858Y20522300D01*
X65788858Y18795100D01*
X65706079Y18726552D01*
X65654899Y18678612D01*
X65639848Y18643783D01*
X65651441Y18612252D01*
X65666182Y18595709D01*
X65691957Y18583419D01*
X65736025Y18574590D01*
X65805648Y18568432D01*
X65908087Y18564155D01*
X66050603Y18560966D01*
X66134760Y18559599D01*
X66314494Y18557993D01*
X66448318Y18559529D01*
X66541039Y18564446D01*
X66597466Y18572981D01*
X66620969Y18583729D01*
X66649508Y18632283D01*
X66632661Y18681129D01*
X66575800Y18731600D01*
X66499600Y18785860D01*
X66499372Y19654080D01*
X66499143Y20522300D01*
X66581922Y20590849D01*
X66633098Y20638778D01*
X66648150Y20673590D01*
X66636532Y20705149D01*
X66622339Y20721444D01*
X66597984Y20733369D01*
X66556257Y20741592D01*
X66489949Y20746784D01*
X66391848Y20749614D01*
X66254745Y20750751D01*
X66144000Y20750900D01*
X65978351Y20750491D01*
X65978351Y20750491D01*
G37*
X65978351Y20750491D02*
X65856288Y20748814D01*
X65770601Y20745202D01*
X65714080Y20738984D01*
X65679515Y20729490D01*
X65659696Y20716051D01*
X65651469Y20705149D01*
X65639937Y20670103D01*
X65658493Y20634572D01*
X65706079Y20590849D01*
X65788858Y20522300D01*
X65788858Y18795100D01*
X65706079Y18726552D01*
X65654899Y18678612D01*
X65639848Y18643783D01*
X65651441Y18612252D01*
X65666182Y18595709D01*
X65691957Y18583419D01*
X65736025Y18574590D01*
X65805648Y18568432D01*
X65908087Y18564155D01*
X66050603Y18560966D01*
X66134760Y18559599D01*
X66314494Y18557993D01*
X66448318Y18559529D01*
X66541039Y18564446D01*
X66597466Y18572981D01*
X66620969Y18583729D01*
X66649508Y18632283D01*
X66632661Y18681129D01*
X66575800Y18731600D01*
X66499600Y18785860D01*
X66499372Y19654080D01*
X66499143Y20522300D01*
X66581922Y20590849D01*
X66633098Y20638778D01*
X66648150Y20673590D01*
X66636532Y20705149D01*
X66622339Y20721444D01*
X66597984Y20733369D01*
X66556257Y20741592D01*
X66489949Y20746784D01*
X66391848Y20749614D01*
X66254745Y20750751D01*
X66144000Y20750900D01*
X65978351Y20750491D01*
G36*
X67636250Y20756933D02*
X67431930Y20734597D01*
X67269514Y20691885D01*
X67143179Y20625815D01*
X67047098Y20533404D01*
X66979555Y20420700D01*
X66937204Y20272355D01*
X66945208Y20121880D01*
X66984916Y20008690D01*
X67067467Y19892351D01*
X67192437Y19798812D01*
X67349808Y19730364D01*
X67477500Y19687404D01*
X67381856Y19667017D01*
X67210427Y19608813D01*
X67074369Y19517568D01*
X66976684Y19398040D01*
X66920374Y19254987D01*
X66908441Y19093170D01*
X66932518Y18954639D01*
X66995065Y18823132D01*
X67103120Y18711269D01*
X67219174Y18638457D01*
X67292815Y18605853D01*
X67369865Y18584064D01*
X67465651Y18570006D01*
X67595498Y18560592D01*
X67609566Y18559858D01*
X67871200Y18546505D01*
X67871200Y18626012D01*
X67862767Y18684117D01*
X67827981Y18720618D01*
X67784345Y18741809D01*
X67718478Y18779833D01*
X67672933Y18824516D01*
X67670045Y18829380D01*
X67656498Y18882172D01*
X67647705Y18971668D01*
X67643559Y19084007D01*
X67643956Y19205327D01*
X67648790Y19321765D01*
X67657955Y19419458D01*
X67671348Y19484546D01*
X67675091Y19493600D01*
X67723463Y19547410D01*
X67789017Y19581403D01*
X67846378Y19605907D01*
X67868484Y19645114D01*
X67871200Y19686600D01*
X67862603Y19747318D01*
X67829117Y19776787D01*
X67808403Y19783254D01*
X67739929Y19808635D01*
X67692658Y19850049D01*
X67663050Y19915834D01*
X67647561Y20014327D01*
X67642648Y20153865D01*
X67642600Y20173444D01*
X67643205Y20292327D01*
X67646743Y20372181D01*
X67655798Y20424775D01*
X67672956Y20461880D01*
X67700799Y20495266D01*
X67716847Y20511554D01*
X67773008Y20558592D01*
X67821352Y20584220D01*
X67831147Y20585800D01*
X67859723Y20602001D01*
X67870745Y20656393D01*
X67871200Y20678161D01*
X67871200Y20770522D01*
X67636250Y20756933D01*
X67636250Y20756933D01*
G37*
X67636250Y20756933D02*
X67431930Y20734597D01*
X67269514Y20691885D01*
X67143179Y20625815D01*
X67047098Y20533404D01*
X66979555Y20420700D01*
X66937204Y20272355D01*
X66945208Y20121880D01*
X66984916Y20008690D01*
X67067467Y19892351D01*
X67192437Y19798812D01*
X67349808Y19730364D01*
X67477500Y19687404D01*
X67381856Y19667017D01*
X67210427Y19608813D01*
X67074369Y19517568D01*
X66976684Y19398040D01*
X66920374Y19254987D01*
X66908441Y19093170D01*
X66932518Y18954639D01*
X66995065Y18823132D01*
X67103120Y18711269D01*
X67219174Y18638457D01*
X67292815Y18605853D01*
X67369865Y18584064D01*
X67465651Y18570006D01*
X67595498Y18560592D01*
X67609566Y18559858D01*
X67871200Y18546505D01*
X67871200Y18626012D01*
X67862767Y18684117D01*
X67827981Y18720618D01*
X67784345Y18741809D01*
X67718478Y18779833D01*
X67672933Y18824516D01*
X67670045Y18829380D01*
X67656498Y18882172D01*
X67647705Y18971668D01*
X67643559Y19084007D01*
X67643956Y19205327D01*
X67648790Y19321765D01*
X67657955Y19419458D01*
X67671348Y19484546D01*
X67675091Y19493600D01*
X67723463Y19547410D01*
X67789017Y19581403D01*
X67846378Y19605907D01*
X67868484Y19645114D01*
X67871200Y19686600D01*
X67862603Y19747318D01*
X67829117Y19776787D01*
X67808403Y19783254D01*
X67739929Y19808635D01*
X67692658Y19850049D01*
X67663050Y19915834D01*
X67647561Y20014327D01*
X67642648Y20153865D01*
X67642600Y20173444D01*
X67643205Y20292327D01*
X67646743Y20372181D01*
X67655798Y20424775D01*
X67672956Y20461880D01*
X67700799Y20495266D01*
X67716847Y20511554D01*
X67773008Y20558592D01*
X67821352Y20584220D01*
X67831147Y20585800D01*
X67859723Y20602001D01*
X67870745Y20656393D01*
X67871200Y20678161D01*
X67871200Y20770522D01*
X67636250Y20756933D01*
G36*
X67998200Y18553800D02*
X68399520Y18553800D01*
X68575568Y18555458D01*
X68703815Y18560569D01*
X68787156Y18569335D01*
X68828487Y18581963D01*
X68831320Y18584280D01*
X68859425Y18632679D01*
X68842023Y18681655D01*
X68785600Y18731600D01*
X68709400Y18785860D01*
X68709172Y19654080D01*
X68708943Y20522300D01*
X68791722Y20590849D01*
X68842903Y20638792D01*
X68857954Y20673624D01*
X68846366Y20705149D01*
X68830743Y20722497D01*
X68803341Y20735172D01*
X68756478Y20744099D01*
X68682473Y20750203D01*
X68573642Y20754407D01*
X68422304Y20757637D01*
X68408216Y20757880D01*
X67998200Y20764859D01*
X67998200Y18553800D01*
X67998200Y18553800D01*
G37*
X67998200Y18553800D02*
X68399520Y18553800D01*
X68575568Y18555458D01*
X68703815Y18560569D01*
X68787156Y18569335D01*
X68828487Y18581963D01*
X68831320Y18584280D01*
X68859425Y18632679D01*
X68842023Y18681655D01*
X68785600Y18731600D01*
X68709400Y18785860D01*
X68709172Y19654080D01*
X68708943Y20522300D01*
X68791722Y20590849D01*
X68842903Y20638792D01*
X68857954Y20673624D01*
X68846366Y20705149D01*
X68830743Y20722497D01*
X68803341Y20735172D01*
X68756478Y20744099D01*
X68682473Y20750203D01*
X68573642Y20754407D01*
X68422304Y20757637D01*
X68408216Y20757880D01*
X67998200Y20764859D01*
X67998200Y18553800D01*
G36*
X63983696Y20746248D02*
X63804529Y20695597D01*
X63659131Y20613757D01*
X63550599Y20502838D01*
X63482032Y20364948D01*
X63460655Y20264402D01*
X63461923Y20094102D01*
X63508382Y19946912D01*
X63599684Y19823430D01*
X63735480Y19724258D01*
X63791042Y19696493D01*
X63941111Y19628371D01*
X63817006Y19597170D01*
X63676115Y19551041D01*
X63574483Y19489252D01*
X63506843Y19404301D01*
X63467924Y19288687D01*
X63452457Y19134909D01*
X63451600Y19077012D01*
X63449769Y18978824D01*
X63444877Y18903516D01*
X63437831Y18862685D01*
X63434551Y18858600D01*
X63404735Y18873858D01*
X63369564Y18901983D01*
X63321590Y18930359D01*
X63278664Y18918439D01*
X63235496Y18867820D01*
X63239386Y18799257D01*
X63290381Y18712314D01*
X63302997Y18696570D01*
X63421554Y18589990D01*
X63560899Y18525402D01*
X63711443Y18504873D01*
X63863595Y18530474D01*
X63935169Y18560150D01*
X64024146Y18617132D01*
X64088100Y18689989D01*
X64130311Y18786773D01*
X64154057Y18915541D01*
X64162619Y19084346D01*
X64162800Y19119137D01*
X64163551Y19241861D01*
X64167173Y19324905D01*
X64175718Y19379383D01*
X64191240Y19416411D01*
X64215791Y19447100D01*
X64225146Y19456655D01*
X64274345Y19498818D01*
X64311461Y19518758D01*
X64314046Y19519000D01*
X64331596Y19541325D01*
X64340371Y19596221D01*
X64340600Y19607900D01*
X64331934Y19674424D01*
X64304885Y19696772D01*
X64303490Y19696800D01*
X64260499Y19714121D01*
X64214590Y19752390D01*
X64192542Y19780996D01*
X64177759Y19817339D01*
X64168827Y19871412D01*
X64164333Y19953210D01*
X64162863Y20072726D01*
X64162800Y20118613D01*
X64164044Y20242376D01*
X64167428Y20349923D01*
X64172439Y20429739D01*
X64178558Y20470308D01*
X64178579Y20470363D01*
X64211191Y20510500D01*
X64267453Y20549279D01*
X64267479Y20549292D01*
X64319900Y20587636D01*
X64339177Y20642053D01*
X64340600Y20675353D01*
X64340600Y20763600D01*
X64193537Y20763600D01*
X63983696Y20746248D01*
X63983696Y20746248D01*
G37*
X63983696Y20746248D02*
X63804529Y20695597D01*
X63659131Y20613757D01*
X63550599Y20502838D01*
X63482032Y20364948D01*
X63460655Y20264402D01*
X63461923Y20094102D01*
X63508382Y19946912D01*
X63599684Y19823430D01*
X63735480Y19724258D01*
X63791042Y19696493D01*
X63941111Y19628371D01*
X63817006Y19597170D01*
X63676115Y19551041D01*
X63574483Y19489252D01*
X63506843Y19404301D01*
X63467924Y19288687D01*
X63452457Y19134909D01*
X63451600Y19077012D01*
X63449769Y18978824D01*
X63444877Y18903516D01*
X63437831Y18862685D01*
X63434551Y18858600D01*
X63404735Y18873858D01*
X63369564Y18901983D01*
X63321590Y18930359D01*
X63278664Y18918439D01*
X63235496Y18867820D01*
X63239386Y18799257D01*
X63290381Y18712314D01*
X63302997Y18696570D01*
X63421554Y18589990D01*
X63560899Y18525402D01*
X63711443Y18504873D01*
X63863595Y18530474D01*
X63935169Y18560150D01*
X64024146Y18617132D01*
X64088100Y18689989D01*
X64130311Y18786773D01*
X64154057Y18915541D01*
X64162619Y19084346D01*
X64162800Y19119137D01*
X64163551Y19241861D01*
X64167173Y19324905D01*
X64175718Y19379383D01*
X64191240Y19416411D01*
X64215791Y19447100D01*
X64225146Y19456655D01*
X64274345Y19498818D01*
X64311461Y19518758D01*
X64314046Y19519000D01*
X64331596Y19541325D01*
X64340371Y19596221D01*
X64340600Y19607900D01*
X64331934Y19674424D01*
X64304885Y19696772D01*
X64303490Y19696800D01*
X64260499Y19714121D01*
X64214590Y19752390D01*
X64192542Y19780996D01*
X64177759Y19817339D01*
X64168827Y19871412D01*
X64164333Y19953210D01*
X64162863Y20072726D01*
X64162800Y20118613D01*
X64164044Y20242376D01*
X64167428Y20349923D01*
X64172439Y20429739D01*
X64178558Y20470308D01*
X64178579Y20470363D01*
X64211191Y20510500D01*
X64267453Y20549279D01*
X64267479Y20549292D01*
X64319900Y20587636D01*
X64339177Y20642053D01*
X64340600Y20675353D01*
X64340600Y20763600D01*
X64193537Y20763600D01*
X63983696Y20746248D01*
G36*
X69014200Y17969600D02*
X70639800Y17969600D01*
X70639800Y18223600D01*
X69014200Y18223600D01*
X69014200Y17969600D01*
X69014200Y17969600D01*
G37*
X69014200Y17969600D02*
X70639800Y17969600D01*
X70639800Y18223600D01*
X69014200Y18223600D01*
X69014200Y17969600D01*
G36*
X74233300Y23109902D02*
X74211111Y23069295D01*
X74192861Y23010829D01*
X74155053Y22910222D01*
X74115282Y22860277D01*
X74072457Y22860932D01*
X74025482Y22912124D01*
X73979966Y22998654D01*
X73945503Y23063561D01*
X73909413Y23093092D01*
X73854987Y23100383D01*
X73850542Y23100400D01*
X73791877Y23094765D01*
X73753331Y23070983D01*
X73726701Y23018742D01*
X73703781Y22927726D01*
X73700500Y22911790D01*
X73674896Y22821747D01*
X73643401Y22780920D01*
X73603873Y22787864D01*
X73568367Y22822691D01*
X73497270Y22909494D01*
X73450011Y22963637D01*
X73417804Y22991401D01*
X73391864Y22999067D01*
X73363406Y22992914D01*
X73341194Y22985108D01*
X73300176Y22966317D01*
X73276590Y22936894D01*
X73263627Y22882690D01*
X73256000Y22808048D01*
X73240159Y22706780D01*
X73211361Y22653995D01*
X73166070Y22648399D01*
X73100747Y22688703D01*
X73051475Y22733395D01*
X72993147Y22787712D01*
X72953472Y22811469D01*
X72915642Y22810477D01*
X72873429Y22794950D01*
X72792677Y22761501D01*
X72809198Y22600245D01*
X72814248Y22495355D01*
X72800573Y22436528D01*
X72764508Y22421311D01*
X72702385Y22447249D01*
X72641861Y22488261D01*
X72565162Y22540924D01*
X72513084Y22561800D01*
X72471519Y22551976D01*
X72426357Y22512540D01*
X72419563Y22505377D01*
X72387036Y22467789D01*
X72374659Y22434919D01*
X72381123Y22389167D01*
X72405122Y22312935D01*
X72405235Y22312596D01*
X72430953Y22216509D01*
X72428145Y22160904D01*
X72393634Y22143214D01*
X72324241Y22160870D01*
X72255612Y22191705D01*
X72119107Y22258654D01*
X72049873Y22186389D01*
X71980639Y22114125D01*
X72052761Y21985824D01*
X72096679Y21895413D01*
X72104619Y21839737D01*
X72074220Y21815940D01*
X72003123Y21821165D01*
X71931803Y21839404D01*
X71853177Y21860951D01*
X71805800Y21866099D01*
X71772416Y21853550D01*
X71738852Y21824906D01*
X71697904Y21779964D01*
X71685859Y21739169D01*
X71704049Y21688692D01*
X71753811Y21614701D01*
X71759940Y21606340D01*
X71813058Y21523928D01*
X71826728Y21470125D01*
X71798496Y21441263D01*
X71725907Y21433677D01*
X71647956Y21439003D01*
X71486700Y21455524D01*
X71453251Y21374772D01*
X71435955Y21325128D01*
X71438985Y21287939D01*
X71468150Y21245961D01*
X71512401Y21199189D01*
X71579305Y21121704D01*
X71604279Y21065401D01*
X71585262Y21026664D01*
X71520194Y21001875D01*
X71407014Y20987418D01*
X71391064Y20986271D01*
X71322552Y20975716D01*
X71285951Y20948294D01*
X71266976Y20905686D01*
X71256667Y20862068D01*
X71264914Y20826165D01*
X71298822Y20784467D01*
X71360473Y20727886D01*
X71431406Y20656975D01*
X71456863Y20606257D01*
X71436033Y20571726D01*
X71368104Y20549375D01*
X71322911Y20542344D01*
X71228165Y20523856D01*
X71174160Y20493022D01*
X71151004Y20441577D01*
X71147800Y20396048D01*
X71154385Y20340710D01*
X71182872Y20304071D01*
X71246362Y20269675D01*
X71249547Y20268235D01*
X71344899Y20216252D01*
X71389684Y20168719D01*
X71383885Y20125070D01*
X71327485Y20084736D01*
X71243352Y20053704D01*
X71162167Y20024744D01*
X71121720Y19992292D01*
X71112683Y19944250D01*
X71120225Y19894016D01*
X71142056Y19837279D01*
X71188749Y19800450D01*
X71237200Y19780865D01*
X71334496Y19740133D01*
X71381459Y19700612D01*
X71378357Y19659027D01*
X71325456Y19612101D01*
X71254292Y19571952D01*
X71188326Y19535161D01*
X71157544Y19502312D01*
X71150642Y19456865D01*
X71152692Y19423296D01*
X71158469Y19375902D01*
X71172842Y19344332D01*
X71205805Y19322294D01*
X71267351Y19303499D01*
X71367475Y19281656D01*
X71382750Y19278491D01*
X71438999Y19251931D01*
X71450276Y19208144D01*
X71417395Y19151913D01*
X71351543Y19095198D01*
X71284736Y19042877D01*
X71255595Y18999251D01*
X71257598Y18947948D01*
X71273677Y18899655D01*
X71293432Y18862835D01*
X71326541Y18842267D01*
X71387308Y18831976D01*
X71444880Y18828152D01*
X71543699Y18815481D01*
X71594972Y18788223D01*
X71599730Y18743299D01*
X71559005Y18677633D01*
X71512508Y18626321D01*
X71457505Y18567743D01*
X71433333Y18529663D01*
X71434729Y18496828D01*
X71454332Y18457688D01*
X71479731Y18419628D01*
X71510577Y18400022D01*
X71561975Y18394154D01*
X71647970Y18397252D01*
X71750973Y18397519D01*
X71810095Y18384945D01*
X71821124Y18375639D01*
X71818043Y18338896D01*
X71788752Y18277107D01*
X71759466Y18231551D01*
X71707732Y18143890D01*
X71695485Y18076480D01*
X71722402Y18018017D01*
X71752500Y17986736D01*
X71787178Y17962893D01*
X71827149Y17960950D01*
X71892330Y17980296D01*
X71897901Y17982271D01*
X72004282Y18014131D01*
X72069695Y18017277D01*
X72096535Y17989461D01*
X72087195Y17928437D01*
X72048582Y17840787D01*
X71982342Y17710069D01*
X72039399Y17649335D01*
X72099267Y17601185D01*
X72159133Y17593992D01*
X72233438Y17627083D01*
X72252700Y17639400D01*
X72335154Y17680941D01*
X72398739Y17686736D01*
X72430853Y17664230D01*
X72432472Y17627115D01*
X72419196Y17560210D01*
X72404605Y17510910D01*
X72380923Y17418645D01*
X72387015Y17356246D01*
X72427108Y17309671D01*
X72473796Y17281020D01*
X72512516Y17272209D01*
X72560002Y17290782D01*
X72621659Y17335122D01*
X72705089Y17392719D01*
X72760955Y17408397D01*
X72792825Y17380293D01*
X72804269Y17306542D01*
X72802866Y17240512D01*
X72799395Y17154068D01*
X72804752Y17103245D01*
X72824478Y17072970D01*
X72864115Y17048172D01*
X72875810Y17042082D01*
X72957388Y16999896D01*
X73067392Y17107857D01*
X73144517Y17173104D01*
X73199551Y17193512D01*
X73234820Y17167961D01*
X73252650Y17095331D01*
X73256000Y17017072D01*
X73258341Y16937845D01*
X73270478Y16893177D01*
X73300083Y16866873D01*
X73334688Y16850970D01*
X73373254Y16836708D01*
X73404106Y16835446D01*
X73435646Y16853276D01*
X73476275Y16896289D01*
X73534394Y16970575D01*
X73576177Y17026065D01*
X73616926Y17055374D01*
X73655084Y17038451D01*
X73686024Y16979821D01*
X73703001Y16902022D01*
X73718019Y16820603D01*
X73740733Y16774831D01*
X73779137Y16749553D01*
X73784584Y16747403D01*
X73854323Y16730102D01*
X73907967Y16744616D01*
X73957865Y16797155D01*
X73992600Y16852000D01*
X74048264Y16935001D01*
X74092974Y16969535D01*
X74131383Y16955476D01*
X74168146Y16892700D01*
X74186004Y16846819D01*
X74216048Y16769716D01*
X74243494Y16728500D01*
X74281005Y16710605D01*
X74329510Y16704405D01*
X74404235Y16707348D01*
X74436718Y16729805D01*
X74451675Y16774105D01*
X74474191Y16843229D01*
X74480963Y16864354D01*
X74515539Y16942599D01*
X74554647Y16971420D01*
X74599968Y16950702D01*
X74653183Y16880333D01*
X74669784Y16851613D01*
X74712279Y16778791D01*
X74744536Y16741530D01*
X74779548Y16730215D01*
X74827598Y16734801D01*
X74890089Y16746543D01*
X74923902Y16765887D01*
X74940362Y16806895D01*
X74950795Y16883630D01*
X74951337Y16888439D01*
X74967222Y16965338D01*
X74991842Y17022712D01*
X75002354Y17035156D01*
X75028727Y17046680D01*
X75060752Y17032851D01*
X75108034Y16987664D01*
X75145283Y16945818D01*
X75203914Y16880412D01*
X75243701Y16847155D01*
X75278429Y16839265D01*
X75321883Y16849956D01*
X75332587Y16853640D01*
X75378915Y16872572D01*
X75403514Y16897672D01*
X75413252Y16943605D01*
X75415000Y17025034D01*
X75415000Y17029568D01*
X75421870Y17131909D01*
X75444402Y17186639D01*
X75485484Y17194890D01*
X75548004Y17157790D01*
X75606865Y17104662D01*
X75713613Y16999896D01*
X75794029Y17041481D01*
X75838397Y17066642D01*
X75860808Y17093310D01*
X75866279Y17136720D01*
X75859831Y17212108D01*
X75857392Y17233790D01*
X75852324Y17335131D01*
X75867767Y17390885D01*
X75907320Y17403114D01*
X75974587Y17373876D01*
X76033558Y17334561D01*
X76099411Y17288938D01*
X76140700Y17269996D01*
X76173887Y17274461D01*
X76214656Y17298545D01*
X76248082Y17322544D01*
X76266883Y17348270D01*
X76272052Y17387043D01*
X76264581Y17450183D01*
X76245464Y17549012D01*
X76239264Y17579243D01*
X76235349Y17645799D01*
X76260685Y17676704D01*
X76318632Y17673103D01*
X76409926Y17637375D01*
X76495736Y17602700D01*
X76551333Y17595226D01*
X76577062Y17604206D01*
X76631983Y17650328D01*
X76651104Y17704242D01*
X76636082Y17778120D01*
X76609365Y17841394D01*
X76572534Y17934665D01*
X76569449Y17991177D01*
X76602903Y18014002D01*
X76675687Y18006212D01*
X76741975Y17987296D01*
X76819439Y17963835D01*
X76863877Y17957154D01*
X76890256Y17967382D01*
X76909112Y17988741D01*
X76956072Y18057836D01*
X76969170Y18109740D01*
X76948484Y18164449D01*
X76910029Y18220466D01*
X76856615Y18304461D01*
X76843951Y18359619D01*
X76873969Y18389090D01*
X76948596Y18396023D01*
X77014411Y18390809D01*
X77098595Y18382468D01*
X77147550Y18384975D01*
X77176512Y18403349D01*
X77200716Y18442611D01*
X77206720Y18454172D01*
X77248305Y18534588D01*
X77140344Y18644592D01*
X77075103Y18721684D01*
X77054662Y18776690D01*
X77080154Y18811950D01*
X77152714Y18829805D01*
X77231726Y18833200D01*
X77310636Y18835259D01*
X77354478Y18846734D01*
X77378964Y18875573D01*
X77394914Y18915750D01*
X77409552Y18967221D01*
X77403304Y19004213D01*
X77369089Y19044046D01*
X77327549Y19080473D01*
X77268319Y19128004D01*
X77224499Y19157864D01*
X77212050Y19163023D01*
X77195006Y19184001D01*
X77193000Y19200607D01*
X77214395Y19243619D01*
X77280507Y19277282D01*
X77389094Y19302256D01*
X77457866Y19317727D01*
X77492667Y19343680D01*
X77510155Y19394790D01*
X77513526Y19411895D01*
X77519214Y19473578D01*
X77511381Y19509340D01*
X77507932Y19511833D01*
X77473477Y19528400D01*
X77413151Y19560816D01*
X77383500Y19577402D01*
X77307461Y19631416D01*
X77281714Y19679674D01*
X77306401Y19723262D01*
X77381662Y19763264D01*
X77408900Y19773000D01*
X77482850Y19799890D01*
X77520517Y19825303D01*
X77534124Y19862863D01*
X77535900Y19914589D01*
X77535745Y19917996D01*
X77107949Y19917996D01*
X77085016Y19570767D01*
X77019612Y19229385D01*
X76912414Y18898141D01*
X76764101Y18581325D01*
X76575352Y18283229D01*
X76346846Y18008143D01*
X76079260Y17760359D01*
X75939119Y17653790D01*
X75629031Y17463381D01*
X75295373Y17315044D01*
X74944984Y17210520D01*
X74584702Y17151551D01*
X74221364Y17139879D01*
X73991934Y17157843D01*
X73621675Y17228029D01*
X73267987Y17344502D01*
X72935102Y17505139D01*
X72627249Y17707814D01*
X72348661Y17950402D01*
X72286675Y18014272D01*
X72084895Y18256323D01*
X71903988Y18526841D01*
X71754594Y18808851D01*
X71685861Y18972900D01*
X71630668Y19134082D01*
X71590682Y19288085D01*
X71563900Y19448118D01*
X71548320Y19627387D01*
X71541942Y19839100D01*
X71541513Y19925400D01*
X71542335Y20096534D01*
X71545497Y20228572D01*
X71552055Y20333204D01*
X71563066Y20422118D01*
X71579589Y20507003D01*
X71602401Y20598500D01*
X71724485Y20964517D01*
X71887511Y21303717D01*
X72089044Y21613424D01*
X72326651Y21890959D01*
X72597900Y22133646D01*
X72900356Y22338808D01*
X73231586Y22503767D01*
X73388977Y22564029D01*
X73746565Y22663061D01*
X74107878Y22713654D01*
X74468481Y22717168D01*
X74823944Y22674961D01*
X75169832Y22588392D01*
X75501714Y22458819D01*
X75815156Y22287600D01*
X76105725Y22076095D01*
X76368990Y21825661D01*
X76561790Y21591658D01*
X76761393Y21279560D01*
X76915132Y20951854D01*
X77023686Y20612831D01*
X77087732Y20266781D01*
X77107949Y19917996D01*
X77535745Y19917996D01*
X77533278Y19972044D01*
X77517557Y20007211D01*
X77476951Y20033086D01*
X77402550Y20061628D01*
X77314085Y20101231D01*
X77275543Y20139848D01*
X77286157Y20179787D01*
X77345157Y20223362D01*
X77348182Y20225032D01*
X77440408Y20279182D01*
X77493667Y20322771D01*
X77515655Y20365314D01*
X77514070Y20416328D01*
X77511826Y20427366D01*
X77497394Y20474647D01*
X77471625Y20504765D01*
X77422405Y20524977D01*
X77337618Y20542541D01*
X77312316Y20546884D01*
X77233304Y20572132D01*
X77199987Y20610682D01*
X77214280Y20658053D01*
X77250410Y20691745D01*
X77335051Y20754435D01*
X77385139Y20797498D01*
X77407342Y20830997D01*
X77408325Y20865000D01*
X77394755Y20909570D01*
X77394727Y20909650D01*
X77374546Y20957775D01*
X77347358Y20982274D01*
X77297473Y20991094D01*
X77231726Y20992200D01*
X77126533Y20999096D01*
X77069076Y21021745D01*
X77057934Y21063091D01*
X77091686Y21126078D01*
X77139637Y21182862D01*
X77197007Y21246697D01*
X77224830Y21287978D01*
X77228009Y21321485D01*
X77211445Y21361999D01*
X77203912Y21376658D01*
X77178876Y21420526D01*
X77151925Y21442735D01*
X77107832Y21448337D01*
X77031367Y21442386D01*
X77011896Y21440363D01*
X76910431Y21436417D01*
X76854115Y21452344D01*
X76840369Y21490626D01*
X76866610Y21553745D01*
X76876868Y21570247D01*
X76933104Y21657102D01*
X76965578Y21712129D01*
X76976869Y21746935D01*
X76969556Y21773130D01*
X76946217Y21802321D01*
X76932025Y21818536D01*
X76871987Y21888334D01*
X76740964Y21844816D01*
X76639220Y21819270D01*
X76578054Y21824158D01*
X76556977Y21860012D01*
X76575501Y21927361D01*
X76608706Y21988537D01*
X76649602Y22070611D01*
X76653283Y22132292D01*
X76619083Y22188463D01*
X76598866Y22208802D01*
X76538132Y22265859D01*
X76405279Y22198537D01*
X76314125Y22158277D01*
X76258745Y22151802D01*
X76234855Y22182632D01*
X76238175Y22254292D01*
X76252790Y22323990D01*
X76270543Y22411194D01*
X76271717Y22464881D01*
X76256472Y22499498D01*
X76254751Y22501632D01*
X76196259Y22548531D01*
X76130284Y22551321D01*
X76049696Y22509647D01*
X76023723Y22490106D01*
X75942431Y22434539D01*
X75888498Y22420739D01*
X75859291Y22450312D01*
X75852177Y22524864D01*
X75857392Y22591611D01*
X75865732Y22675797D01*
X75863225Y22724752D01*
X75844858Y22753709D01*
X75805616Y22777903D01*
X75794108Y22783879D01*
X75745875Y22806469D01*
X75711224Y22808219D01*
X75673332Y22784165D01*
X75618002Y22731907D01*
X75539720Y22665838D01*
X75483369Y22645047D01*
X75445485Y22670826D01*
X75422603Y22744469D01*
X75415000Y22807705D01*
X75406230Y22892418D01*
X75392873Y22940400D01*
X75367242Y22965624D01*
X75321649Y22982064D01*
X75318597Y22982937D01*
X75257260Y22994663D01*
X75219680Y22979799D01*
X75195534Y22950616D01*
X75123909Y22854516D01*
X75070714Y22799115D01*
X75030774Y22780129D01*
X75002067Y22790483D01*
X74976477Y22833557D01*
X74956223Y22905396D01*
X74951124Y22938849D01*
X74932361Y23029107D01*
X74895571Y23079099D01*
X74831571Y23098583D01*
X74799478Y23100012D01*
X74754772Y23092643D01*
X74718469Y23062716D01*
X74679183Y22999379D01*
X74664879Y22971779D01*
X74614133Y22888080D01*
X74570292Y22854455D01*
X74530749Y22871102D01*
X74492895Y22938217D01*
X74475329Y22986100D01*
X74448125Y23060428D01*
X74421451Y23099149D01*
X74381248Y23115316D01*
X74330290Y23120755D01*
X74268030Y23123059D01*
X74233300Y23109902D01*
X74233300Y23109902D01*
G37*
X74233300Y23109902D02*
X74211111Y23069295D01*
X74192861Y23010829D01*
X74155053Y22910222D01*
X74115282Y22860277D01*
X74072457Y22860932D01*
X74025482Y22912124D01*
X73979966Y22998654D01*
X73945503Y23063561D01*
X73909413Y23093092D01*
X73854987Y23100383D01*
X73850542Y23100400D01*
X73791877Y23094765D01*
X73753331Y23070983D01*
X73726701Y23018742D01*
X73703781Y22927726D01*
X73700500Y22911790D01*
X73674896Y22821747D01*
X73643401Y22780920D01*
X73603873Y22787864D01*
X73568367Y22822691D01*
X73497270Y22909494D01*
X73450011Y22963637D01*
X73417804Y22991401D01*
X73391864Y22999067D01*
X73363406Y22992914D01*
X73341194Y22985108D01*
X73300176Y22966317D01*
X73276590Y22936894D01*
X73263627Y22882690D01*
X73256000Y22808048D01*
X73240159Y22706780D01*
X73211361Y22653995D01*
X73166070Y22648399D01*
X73100747Y22688703D01*
X73051475Y22733395D01*
X72993147Y22787712D01*
X72953472Y22811469D01*
X72915642Y22810477D01*
X72873429Y22794950D01*
X72792677Y22761501D01*
X72809198Y22600245D01*
X72814248Y22495355D01*
X72800573Y22436528D01*
X72764508Y22421311D01*
X72702385Y22447249D01*
X72641861Y22488261D01*
X72565162Y22540924D01*
X72513084Y22561800D01*
X72471519Y22551976D01*
X72426357Y22512540D01*
X72419563Y22505377D01*
X72387036Y22467789D01*
X72374659Y22434919D01*
X72381123Y22389167D01*
X72405122Y22312935D01*
X72405235Y22312596D01*
X72430953Y22216509D01*
X72428145Y22160904D01*
X72393634Y22143214D01*
X72324241Y22160870D01*
X72255612Y22191705D01*
X72119107Y22258654D01*
X72049873Y22186389D01*
X71980639Y22114125D01*
X72052761Y21985824D01*
X72096679Y21895413D01*
X72104619Y21839737D01*
X72074220Y21815940D01*
X72003123Y21821165D01*
X71931803Y21839404D01*
X71853177Y21860951D01*
X71805800Y21866099D01*
X71772416Y21853550D01*
X71738852Y21824906D01*
X71697904Y21779964D01*
X71685859Y21739169D01*
X71704049Y21688692D01*
X71753811Y21614701D01*
X71759940Y21606340D01*
X71813058Y21523928D01*
X71826728Y21470125D01*
X71798496Y21441263D01*
X71725907Y21433677D01*
X71647956Y21439003D01*
X71486700Y21455524D01*
X71453251Y21374772D01*
X71435955Y21325128D01*
X71438985Y21287939D01*
X71468150Y21245961D01*
X71512401Y21199189D01*
X71579305Y21121704D01*
X71604279Y21065401D01*
X71585262Y21026664D01*
X71520194Y21001875D01*
X71407014Y20987418D01*
X71391064Y20986271D01*
X71322552Y20975716D01*
X71285951Y20948294D01*
X71266976Y20905686D01*
X71256667Y20862068D01*
X71264914Y20826165D01*
X71298822Y20784467D01*
X71360473Y20727886D01*
X71431406Y20656975D01*
X71456863Y20606257D01*
X71436033Y20571726D01*
X71368104Y20549375D01*
X71322911Y20542344D01*
X71228165Y20523856D01*
X71174160Y20493022D01*
X71151004Y20441577D01*
X71147800Y20396048D01*
X71154385Y20340710D01*
X71182872Y20304071D01*
X71246362Y20269675D01*
X71249547Y20268235D01*
X71344899Y20216252D01*
X71389684Y20168719D01*
X71383885Y20125070D01*
X71327485Y20084736D01*
X71243352Y20053704D01*
X71162167Y20024744D01*
X71121720Y19992292D01*
X71112683Y19944250D01*
X71120225Y19894016D01*
X71142056Y19837279D01*
X71188749Y19800450D01*
X71237200Y19780865D01*
X71334496Y19740133D01*
X71381459Y19700612D01*
X71378357Y19659027D01*
X71325456Y19612101D01*
X71254292Y19571952D01*
X71188326Y19535161D01*
X71157544Y19502312D01*
X71150642Y19456865D01*
X71152692Y19423296D01*
X71158469Y19375902D01*
X71172842Y19344332D01*
X71205805Y19322294D01*
X71267351Y19303499D01*
X71367475Y19281656D01*
X71382750Y19278491D01*
X71438999Y19251931D01*
X71450276Y19208144D01*
X71417395Y19151913D01*
X71351543Y19095198D01*
X71284736Y19042877D01*
X71255595Y18999251D01*
X71257598Y18947948D01*
X71273677Y18899655D01*
X71293432Y18862835D01*
X71326541Y18842267D01*
X71387308Y18831976D01*
X71444880Y18828152D01*
X71543699Y18815481D01*
X71594972Y18788223D01*
X71599730Y18743299D01*
X71559005Y18677633D01*
X71512508Y18626321D01*
X71457505Y18567743D01*
X71433333Y18529663D01*
X71434729Y18496828D01*
X71454332Y18457688D01*
X71479731Y18419628D01*
X71510577Y18400022D01*
X71561975Y18394154D01*
X71647970Y18397252D01*
X71750973Y18397519D01*
X71810095Y18384945D01*
X71821124Y18375639D01*
X71818043Y18338896D01*
X71788752Y18277107D01*
X71759466Y18231551D01*
X71707732Y18143890D01*
X71695485Y18076480D01*
X71722402Y18018017D01*
X71752500Y17986736D01*
X71787178Y17962893D01*
X71827149Y17960950D01*
X71892330Y17980296D01*
X71897901Y17982271D01*
X72004282Y18014131D01*
X72069695Y18017277D01*
X72096535Y17989461D01*
X72087195Y17928437D01*
X72048582Y17840787D01*
X71982342Y17710069D01*
X72039399Y17649335D01*
X72099267Y17601185D01*
X72159133Y17593992D01*
X72233438Y17627083D01*
X72252700Y17639400D01*
X72335154Y17680941D01*
X72398739Y17686736D01*
X72430853Y17664230D01*
X72432472Y17627115D01*
X72419196Y17560210D01*
X72404605Y17510910D01*
X72380923Y17418645D01*
X72387015Y17356246D01*
X72427108Y17309671D01*
X72473796Y17281020D01*
X72512516Y17272209D01*
X72560002Y17290782D01*
X72621659Y17335122D01*
X72705089Y17392719D01*
X72760955Y17408397D01*
X72792825Y17380293D01*
X72804269Y17306542D01*
X72802866Y17240512D01*
X72799395Y17154068D01*
X72804752Y17103245D01*
X72824478Y17072970D01*
X72864115Y17048172D01*
X72875810Y17042082D01*
X72957388Y16999896D01*
X73067392Y17107857D01*
X73144517Y17173104D01*
X73199551Y17193512D01*
X73234820Y17167961D01*
X73252650Y17095331D01*
X73256000Y17017072D01*
X73258341Y16937845D01*
X73270478Y16893177D01*
X73300083Y16866873D01*
X73334688Y16850970D01*
X73373254Y16836708D01*
X73404106Y16835446D01*
X73435646Y16853276D01*
X73476275Y16896289D01*
X73534394Y16970575D01*
X73576177Y17026065D01*
X73616926Y17055374D01*
X73655084Y17038451D01*
X73686024Y16979821D01*
X73703001Y16902022D01*
X73718019Y16820603D01*
X73740733Y16774831D01*
X73779137Y16749553D01*
X73784584Y16747403D01*
X73854323Y16730102D01*
X73907967Y16744616D01*
X73957865Y16797155D01*
X73992600Y16852000D01*
X74048264Y16935001D01*
X74092974Y16969535D01*
X74131383Y16955476D01*
X74168146Y16892700D01*
X74186004Y16846819D01*
X74216048Y16769716D01*
X74243494Y16728500D01*
X74281005Y16710605D01*
X74329510Y16704405D01*
X74404235Y16707348D01*
X74436718Y16729805D01*
X74451675Y16774105D01*
X74474191Y16843229D01*
X74480963Y16864354D01*
X74515539Y16942599D01*
X74554647Y16971420D01*
X74599968Y16950702D01*
X74653183Y16880333D01*
X74669784Y16851613D01*
X74712279Y16778791D01*
X74744536Y16741530D01*
X74779548Y16730215D01*
X74827598Y16734801D01*
X74890089Y16746543D01*
X74923902Y16765887D01*
X74940362Y16806895D01*
X74950795Y16883630D01*
X74951337Y16888439D01*
X74967222Y16965338D01*
X74991842Y17022712D01*
X75002354Y17035156D01*
X75028727Y17046680D01*
X75060752Y17032851D01*
X75108034Y16987664D01*
X75145283Y16945818D01*
X75203914Y16880412D01*
X75243701Y16847155D01*
X75278429Y16839265D01*
X75321883Y16849956D01*
X75332587Y16853640D01*
X75378915Y16872572D01*
X75403514Y16897672D01*
X75413252Y16943605D01*
X75415000Y17025034D01*
X75415000Y17029568D01*
X75421870Y17131909D01*
X75444402Y17186639D01*
X75485484Y17194890D01*
X75548004Y17157790D01*
X75606865Y17104662D01*
X75713613Y16999896D01*
X75794029Y17041481D01*
X75838397Y17066642D01*
X75860808Y17093310D01*
X75866279Y17136720D01*
X75859831Y17212108D01*
X75857392Y17233790D01*
X75852324Y17335131D01*
X75867767Y17390885D01*
X75907320Y17403114D01*
X75974587Y17373876D01*
X76033558Y17334561D01*
X76099411Y17288938D01*
X76140700Y17269996D01*
X76173887Y17274461D01*
X76214656Y17298545D01*
X76248082Y17322544D01*
X76266883Y17348270D01*
X76272052Y17387043D01*
X76264581Y17450183D01*
X76245464Y17549012D01*
X76239264Y17579243D01*
X76235349Y17645799D01*
X76260685Y17676704D01*
X76318632Y17673103D01*
X76409926Y17637375D01*
X76495736Y17602700D01*
X76551333Y17595226D01*
X76577062Y17604206D01*
X76631983Y17650328D01*
X76651104Y17704242D01*
X76636082Y17778120D01*
X76609365Y17841394D01*
X76572534Y17934665D01*
X76569449Y17991177D01*
X76602903Y18014002D01*
X76675687Y18006212D01*
X76741975Y17987296D01*
X76819439Y17963835D01*
X76863877Y17957154D01*
X76890256Y17967382D01*
X76909112Y17988741D01*
X76956072Y18057836D01*
X76969170Y18109740D01*
X76948484Y18164449D01*
X76910029Y18220466D01*
X76856615Y18304461D01*
X76843951Y18359619D01*
X76873969Y18389090D01*
X76948596Y18396023D01*
X77014411Y18390809D01*
X77098595Y18382468D01*
X77147550Y18384975D01*
X77176512Y18403349D01*
X77200716Y18442611D01*
X77206720Y18454172D01*
X77248305Y18534588D01*
X77140344Y18644592D01*
X77075103Y18721684D01*
X77054662Y18776690D01*
X77080154Y18811950D01*
X77152714Y18829805D01*
X77231726Y18833200D01*
X77310636Y18835259D01*
X77354478Y18846734D01*
X77378964Y18875573D01*
X77394914Y18915750D01*
X77409552Y18967221D01*
X77403304Y19004213D01*
X77369089Y19044046D01*
X77327549Y19080473D01*
X77268319Y19128004D01*
X77224499Y19157864D01*
X77212050Y19163023D01*
X77195006Y19184001D01*
X77193000Y19200607D01*
X77214395Y19243619D01*
X77280507Y19277282D01*
X77389094Y19302256D01*
X77457866Y19317727D01*
X77492667Y19343680D01*
X77510155Y19394790D01*
X77513526Y19411895D01*
X77519214Y19473578D01*
X77511381Y19509340D01*
X77507932Y19511833D01*
X77473477Y19528400D01*
X77413151Y19560816D01*
X77383500Y19577402D01*
X77307461Y19631416D01*
X77281714Y19679674D01*
X77306401Y19723262D01*
X77381662Y19763264D01*
X77408900Y19773000D01*
X77482850Y19799890D01*
X77520517Y19825303D01*
X77534124Y19862863D01*
X77535900Y19914589D01*
X77535745Y19917996D01*
X77107949Y19917996D01*
X77085016Y19570767D01*
X77019612Y19229385D01*
X76912414Y18898141D01*
X76764101Y18581325D01*
X76575352Y18283229D01*
X76346846Y18008143D01*
X76079260Y17760359D01*
X75939119Y17653790D01*
X75629031Y17463381D01*
X75295373Y17315044D01*
X74944984Y17210520D01*
X74584702Y17151551D01*
X74221364Y17139879D01*
X73991934Y17157843D01*
X73621675Y17228029D01*
X73267987Y17344502D01*
X72935102Y17505139D01*
X72627249Y17707814D01*
X72348661Y17950402D01*
X72286675Y18014272D01*
X72084895Y18256323D01*
X71903988Y18526841D01*
X71754594Y18808851D01*
X71685861Y18972900D01*
X71630668Y19134082D01*
X71590682Y19288085D01*
X71563900Y19448118D01*
X71548320Y19627387D01*
X71541942Y19839100D01*
X71541513Y19925400D01*
X71542335Y20096534D01*
X71545497Y20228572D01*
X71552055Y20333204D01*
X71563066Y20422118D01*
X71579589Y20507003D01*
X71602401Y20598500D01*
X71724485Y20964517D01*
X71887511Y21303717D01*
X72089044Y21613424D01*
X72326651Y21890959D01*
X72597900Y22133646D01*
X72900356Y22338808D01*
X73231586Y22503767D01*
X73388977Y22564029D01*
X73746565Y22663061D01*
X74107878Y22713654D01*
X74468481Y22717168D01*
X74823944Y22674961D01*
X75169832Y22588392D01*
X75501714Y22458819D01*
X75815156Y22287600D01*
X76105725Y22076095D01*
X76368990Y21825661D01*
X76561790Y21591658D01*
X76761393Y21279560D01*
X76915132Y20951854D01*
X77023686Y20612831D01*
X77087732Y20266781D01*
X77107949Y19917996D01*
X77535745Y19917996D01*
X77533278Y19972044D01*
X77517557Y20007211D01*
X77476951Y20033086D01*
X77402550Y20061628D01*
X77314085Y20101231D01*
X77275543Y20139848D01*
X77286157Y20179787D01*
X77345157Y20223362D01*
X77348182Y20225032D01*
X77440408Y20279182D01*
X77493667Y20322771D01*
X77515655Y20365314D01*
X77514070Y20416328D01*
X77511826Y20427366D01*
X77497394Y20474647D01*
X77471625Y20504765D01*
X77422405Y20524977D01*
X77337618Y20542541D01*
X77312316Y20546884D01*
X77233304Y20572132D01*
X77199987Y20610682D01*
X77214280Y20658053D01*
X77250410Y20691745D01*
X77335051Y20754435D01*
X77385139Y20797498D01*
X77407342Y20830997D01*
X77408325Y20865000D01*
X77394755Y20909570D01*
X77394727Y20909650D01*
X77374546Y20957775D01*
X77347358Y20982274D01*
X77297473Y20991094D01*
X77231726Y20992200D01*
X77126533Y20999096D01*
X77069076Y21021745D01*
X77057934Y21063091D01*
X77091686Y21126078D01*
X77139637Y21182862D01*
X77197007Y21246697D01*
X77224830Y21287978D01*
X77228009Y21321485D01*
X77211445Y21361999D01*
X77203912Y21376658D01*
X77178876Y21420526D01*
X77151925Y21442735D01*
X77107832Y21448337D01*
X77031367Y21442386D01*
X77011896Y21440363D01*
X76910431Y21436417D01*
X76854115Y21452344D01*
X76840369Y21490626D01*
X76866610Y21553745D01*
X76876868Y21570247D01*
X76933104Y21657102D01*
X76965578Y21712129D01*
X76976869Y21746935D01*
X76969556Y21773130D01*
X76946217Y21802321D01*
X76932025Y21818536D01*
X76871987Y21888334D01*
X76740964Y21844816D01*
X76639220Y21819270D01*
X76578054Y21824158D01*
X76556977Y21860012D01*
X76575501Y21927361D01*
X76608706Y21988537D01*
X76649602Y22070611D01*
X76653283Y22132292D01*
X76619083Y22188463D01*
X76598866Y22208802D01*
X76538132Y22265859D01*
X76405279Y22198537D01*
X76314125Y22158277D01*
X76258745Y22151802D01*
X76234855Y22182632D01*
X76238175Y22254292D01*
X76252790Y22323990D01*
X76270543Y22411194D01*
X76271717Y22464881D01*
X76256472Y22499498D01*
X76254751Y22501632D01*
X76196259Y22548531D01*
X76130284Y22551321D01*
X76049696Y22509647D01*
X76023723Y22490106D01*
X75942431Y22434539D01*
X75888498Y22420739D01*
X75859291Y22450312D01*
X75852177Y22524864D01*
X75857392Y22591611D01*
X75865732Y22675797D01*
X75863225Y22724752D01*
X75844858Y22753709D01*
X75805616Y22777903D01*
X75794108Y22783879D01*
X75745875Y22806469D01*
X75711224Y22808219D01*
X75673332Y22784165D01*
X75618002Y22731907D01*
X75539720Y22665838D01*
X75483369Y22645047D01*
X75445485Y22670826D01*
X75422603Y22744469D01*
X75415000Y22807705D01*
X75406230Y22892418D01*
X75392873Y22940400D01*
X75367242Y22965624D01*
X75321649Y22982064D01*
X75318597Y22982937D01*
X75257260Y22994663D01*
X75219680Y22979799D01*
X75195534Y22950616D01*
X75123909Y22854516D01*
X75070714Y22799115D01*
X75030774Y22780129D01*
X75002067Y22790483D01*
X74976477Y22833557D01*
X74956223Y22905396D01*
X74951124Y22938849D01*
X74932361Y23029107D01*
X74895571Y23079099D01*
X74831571Y23098583D01*
X74799478Y23100012D01*
X74754772Y23092643D01*
X74718469Y23062716D01*
X74679183Y22999379D01*
X74664879Y22971779D01*
X74614133Y22888080D01*
X74570292Y22854455D01*
X74530749Y22871102D01*
X74492895Y22938217D01*
X74475329Y22986100D01*
X74448125Y23060428D01*
X74421451Y23099149D01*
X74381248Y23115316D01*
X74330290Y23120755D01*
X74268030Y23123059D01*
X74233300Y23109902D01*
G04 #@! TO.C,C1*
D11*
X31557142Y23366667D02*
X31604761Y23414286D01*
X31652380Y23557143D01*
X31652380Y23652381D01*
X31604761Y23795239D01*
X31509523Y23890477D01*
X31414285Y23938096D01*
X31223809Y23985715D01*
X31080952Y23985715D01*
X30890476Y23938096D01*
X30795238Y23890477D01*
X30700000Y23795239D01*
X30652380Y23652381D01*
X30652380Y23557143D01*
X30700000Y23414286D01*
X30747619Y23366667D01*
X31652380Y22414286D02*
X31652380Y22985715D01*
X31652380Y22700000D02*
X30652380Y22700000D01*
X30795238Y22795239D01*
X30890476Y22890477D01*
X30938095Y22985715D01*
G04 #@! TO.C,C3*
X31657142Y19266667D02*
X31704761Y19314286D01*
X31752380Y19457143D01*
X31752380Y19552381D01*
X31704761Y19695239D01*
X31609523Y19790477D01*
X31514285Y19838096D01*
X31323809Y19885715D01*
X31180952Y19885715D01*
X30990476Y19838096D01*
X30895238Y19790477D01*
X30800000Y19695239D01*
X30752380Y19552381D01*
X30752380Y19457143D01*
X30800000Y19314286D01*
X30847619Y19266667D01*
X30752380Y18933334D02*
X30752380Y18314286D01*
X31133333Y18647620D01*
X31133333Y18504762D01*
X31180952Y18409524D01*
X31228571Y18361905D01*
X31323809Y18314286D01*
X31561904Y18314286D01*
X31657142Y18361905D01*
X31704761Y18409524D01*
X31752380Y18504762D01*
X31752380Y18790477D01*
X31704761Y18885715D01*
X31657142Y18933334D01*
G04 #@! TO.C,C4*
X37057142Y11966667D02*
X37104761Y12014286D01*
X37152380Y12157143D01*
X37152380Y12252381D01*
X37104761Y12395239D01*
X37009523Y12490477D01*
X36914285Y12538096D01*
X36723809Y12585715D01*
X36580952Y12585715D01*
X36390476Y12538096D01*
X36295238Y12490477D01*
X36200000Y12395239D01*
X36152380Y12252381D01*
X36152380Y12157143D01*
X36200000Y12014286D01*
X36247619Y11966667D01*
X36485714Y11109524D02*
X37152380Y11109524D01*
X36104761Y11347620D02*
X36819047Y11585715D01*
X36819047Y10966667D01*
G04 #@! TO.C,C6*
X39866666Y20342858D02*
X39914285Y20295239D01*
X40057142Y20247620D01*
X40152380Y20247620D01*
X40295238Y20295239D01*
X40390476Y20390477D01*
X40438095Y20485715D01*
X40485714Y20676191D01*
X40485714Y20819048D01*
X40438095Y21009524D01*
X40390476Y21104762D01*
X40295238Y21200000D01*
X40152380Y21247620D01*
X40057142Y21247620D01*
X39914285Y21200000D01*
X39866666Y21152381D01*
X39009523Y21247620D02*
X39200000Y21247620D01*
X39295238Y21200000D01*
X39342857Y21152381D01*
X39438095Y21009524D01*
X39485714Y20819048D01*
X39485714Y20438096D01*
X39438095Y20342858D01*
X39390476Y20295239D01*
X39295238Y20247620D01*
X39104761Y20247620D01*
X39009523Y20295239D01*
X38961904Y20342858D01*
X38914285Y20438096D01*
X38914285Y20676191D01*
X38961904Y20771429D01*
X39009523Y20819048D01*
X39104761Y20866667D01*
X39295238Y20866667D01*
X39390476Y20819048D01*
X39438095Y20771429D01*
X39485714Y20676191D01*
G04 #@! TO.C,C7*
X43066666Y8542858D02*
X43114285Y8495239D01*
X43257142Y8447620D01*
X43352380Y8447620D01*
X43495238Y8495239D01*
X43590476Y8590477D01*
X43638095Y8685715D01*
X43685714Y8876191D01*
X43685714Y9019048D01*
X43638095Y9209524D01*
X43590476Y9304762D01*
X43495238Y9400000D01*
X43352380Y9447620D01*
X43257142Y9447620D01*
X43114285Y9400000D01*
X43066666Y9352381D01*
X42733333Y9447620D02*
X42066666Y9447620D01*
X42495238Y8447620D01*
G04 #@! TO.C,C8*
X47266666Y6942858D02*
X47314285Y6895239D01*
X47457142Y6847620D01*
X47552380Y6847620D01*
X47695238Y6895239D01*
X47790476Y6990477D01*
X47838095Y7085715D01*
X47885714Y7276191D01*
X47885714Y7419048D01*
X47838095Y7609524D01*
X47790476Y7704762D01*
X47695238Y7800000D01*
X47552380Y7847620D01*
X47457142Y7847620D01*
X47314285Y7800000D01*
X47266666Y7752381D01*
X46695238Y7419048D02*
X46790476Y7466667D01*
X46838095Y7514286D01*
X46885714Y7609524D01*
X46885714Y7657143D01*
X46838095Y7752381D01*
X46790476Y7800000D01*
X46695238Y7847620D01*
X46504761Y7847620D01*
X46409523Y7800000D01*
X46361904Y7752381D01*
X46314285Y7657143D01*
X46314285Y7609524D01*
X46361904Y7514286D01*
X46409523Y7466667D01*
X46504761Y7419048D01*
X46695238Y7419048D01*
X46790476Y7371429D01*
X46838095Y7323810D01*
X46885714Y7228572D01*
X46885714Y7038096D01*
X46838095Y6942858D01*
X46790476Y6895239D01*
X46695238Y6847620D01*
X46504761Y6847620D01*
X46409523Y6895239D01*
X46361904Y6942858D01*
X46314285Y7038096D01*
X46314285Y7228572D01*
X46361904Y7323810D01*
X46409523Y7371429D01*
X46504761Y7419048D01*
G04 #@! TO.C,C9*
X49766666Y8442858D02*
X49814285Y8395239D01*
X49957142Y8347620D01*
X50052380Y8347620D01*
X50195238Y8395239D01*
X50290476Y8490477D01*
X50338095Y8585715D01*
X50385714Y8776191D01*
X50385714Y8919048D01*
X50338095Y9109524D01*
X50290476Y9204762D01*
X50195238Y9300000D01*
X50052380Y9347620D01*
X49957142Y9347620D01*
X49814285Y9300000D01*
X49766666Y9252381D01*
X49290476Y8347620D02*
X49100000Y8347620D01*
X49004761Y8395239D01*
X48957142Y8442858D01*
X48861904Y8585715D01*
X48814285Y8776191D01*
X48814285Y9157143D01*
X48861904Y9252381D01*
X48909523Y9300000D01*
X49004761Y9347620D01*
X49195238Y9347620D01*
X49290476Y9300000D01*
X49338095Y9252381D01*
X49385714Y9157143D01*
X49385714Y8919048D01*
X49338095Y8823810D01*
X49290476Y8776191D01*
X49195238Y8728572D01*
X49004761Y8728572D01*
X48909523Y8776191D01*
X48861904Y8823810D01*
X48814285Y8919048D01*
G04 #@! TO.C,C10*
X53642857Y23342858D02*
X53690476Y23295239D01*
X53833333Y23247620D01*
X53928571Y23247620D01*
X54071428Y23295239D01*
X54166666Y23390477D01*
X54214285Y23485715D01*
X54261904Y23676191D01*
X54261904Y23819048D01*
X54214285Y24009524D01*
X54166666Y24104762D01*
X54071428Y24200000D01*
X53928571Y24247620D01*
X53833333Y24247620D01*
X53690476Y24200000D01*
X53642857Y24152381D01*
X52690476Y23247620D02*
X53261904Y23247620D01*
X52976190Y23247620D02*
X52976190Y24247620D01*
X53071428Y24104762D01*
X53166666Y24009524D01*
X53261904Y23961905D01*
X52071428Y24247620D02*
X51976190Y24247620D01*
X51880952Y24200000D01*
X51833333Y24152381D01*
X51785714Y24057143D01*
X51738095Y23866667D01*
X51738095Y23628572D01*
X51785714Y23438096D01*
X51833333Y23342858D01*
X51880952Y23295239D01*
X51976190Y23247620D01*
X52071428Y23247620D01*
X52166666Y23295239D01*
X52214285Y23342858D01*
X52261904Y23438096D01*
X52309523Y23628572D01*
X52309523Y23866667D01*
X52261904Y24057143D01*
X52214285Y24152381D01*
X52166666Y24200000D01*
X52071428Y24247620D01*
G04 #@! TO.C,C18*
X62942857Y31542858D02*
X62990476Y31495239D01*
X63133333Y31447620D01*
X63228571Y31447620D01*
X63371428Y31495239D01*
X63466666Y31590477D01*
X63514285Y31685715D01*
X63561904Y31876191D01*
X63561904Y32019048D01*
X63514285Y32209524D01*
X63466666Y32304762D01*
X63371428Y32400000D01*
X63228571Y32447620D01*
X63133333Y32447620D01*
X62990476Y32400000D01*
X62942857Y32352381D01*
X61990476Y31447620D02*
X62561904Y31447620D01*
X62276190Y31447620D02*
X62276190Y32447620D01*
X62371428Y32304762D01*
X62466666Y32209524D01*
X62561904Y32161905D01*
X61419047Y32019048D02*
X61514285Y32066667D01*
X61561904Y32114286D01*
X61609523Y32209524D01*
X61609523Y32257143D01*
X61561904Y32352381D01*
X61514285Y32400000D01*
X61419047Y32447620D01*
X61228571Y32447620D01*
X61133333Y32400000D01*
X61085714Y32352381D01*
X61038095Y32257143D01*
X61038095Y32209524D01*
X61085714Y32114286D01*
X61133333Y32066667D01*
X61228571Y32019048D01*
X61419047Y32019048D01*
X61514285Y31971429D01*
X61561904Y31923810D01*
X61609523Y31828572D01*
X61609523Y31638096D01*
X61561904Y31542858D01*
X61514285Y31495239D01*
X61419047Y31447620D01*
X61228571Y31447620D01*
X61133333Y31495239D01*
X61085714Y31542858D01*
X61038095Y31638096D01*
X61038095Y31828572D01*
X61085714Y31923810D01*
X61133333Y31971429D01*
X61228571Y32019048D01*
G04 #@! TO.C,C19*
X27042857Y29942858D02*
X27090476Y29895239D01*
X27233333Y29847620D01*
X27328571Y29847620D01*
X27471428Y29895239D01*
X27566666Y29990477D01*
X27614285Y30085715D01*
X27661904Y30276191D01*
X27661904Y30419048D01*
X27614285Y30609524D01*
X27566666Y30704762D01*
X27471428Y30800000D01*
X27328571Y30847620D01*
X27233333Y30847620D01*
X27090476Y30800000D01*
X27042857Y30752381D01*
X26090476Y29847620D02*
X26661904Y29847620D01*
X26376190Y29847620D02*
X26376190Y30847620D01*
X26471428Y30704762D01*
X26566666Y30609524D01*
X26661904Y30561905D01*
X25614285Y29847620D02*
X25423809Y29847620D01*
X25328571Y29895239D01*
X25280952Y29942858D01*
X25185714Y30085715D01*
X25138095Y30276191D01*
X25138095Y30657143D01*
X25185714Y30752381D01*
X25233333Y30800000D01*
X25328571Y30847620D01*
X25519047Y30847620D01*
X25614285Y30800000D01*
X25661904Y30752381D01*
X25709523Y30657143D01*
X25709523Y30419048D01*
X25661904Y30323810D01*
X25614285Y30276191D01*
X25519047Y30228572D01*
X25328571Y30228572D01*
X25233333Y30276191D01*
X25185714Y30323810D01*
X25138095Y30419048D01*
G04 #@! TO.C,C21*
X36342857Y29442858D02*
X36390476Y29395239D01*
X36533333Y29347620D01*
X36628571Y29347620D01*
X36771428Y29395239D01*
X36866666Y29490477D01*
X36914285Y29585715D01*
X36961904Y29776191D01*
X36961904Y29919048D01*
X36914285Y30109524D01*
X36866666Y30204762D01*
X36771428Y30300000D01*
X36628571Y30347620D01*
X36533333Y30347620D01*
X36390476Y30300000D01*
X36342857Y30252381D01*
X35961904Y30252381D02*
X35914285Y30300000D01*
X35819047Y30347620D01*
X35580952Y30347620D01*
X35485714Y30300000D01*
X35438095Y30252381D01*
X35390476Y30157143D01*
X35390476Y30061905D01*
X35438095Y29919048D01*
X36009523Y29347620D01*
X35390476Y29347620D01*
X34438095Y29347620D02*
X35009523Y29347620D01*
X34723809Y29347620D02*
X34723809Y30347620D01*
X34819047Y30204762D01*
X34914285Y30109524D01*
X35009523Y30061905D01*
G04 #@! TO.C,J1*
X85733333Y5947620D02*
X85733333Y5233334D01*
X85780952Y5090477D01*
X85876190Y4995239D01*
X86019047Y4947620D01*
X86114285Y4947620D01*
X84733333Y4947620D02*
X85304761Y4947620D01*
X85019047Y4947620D02*
X85019047Y5947620D01*
X85114285Y5804762D01*
X85209523Y5709524D01*
X85304761Y5661905D01*
G04 #@! TO.C,L1*
X35452380Y11966667D02*
X35452380Y12442858D01*
X34452380Y12442858D01*
X35452380Y11109524D02*
X35452380Y11680953D01*
X35452380Y11395239D02*
X34452380Y11395239D01*
X34595238Y11490477D01*
X34690476Y11585715D01*
X34738095Y11680953D01*
G04 #@! TO.C,R6*
X39766666Y24247620D02*
X40100000Y24723810D01*
X40338095Y24247620D02*
X40338095Y25247620D01*
X39957142Y25247620D01*
X39861904Y25200000D01*
X39814285Y25152381D01*
X39766666Y25057143D01*
X39766666Y24914286D01*
X39814285Y24819048D01*
X39861904Y24771429D01*
X39957142Y24723810D01*
X40338095Y24723810D01*
X38909523Y25247620D02*
X39100000Y25247620D01*
X39195238Y25200000D01*
X39242857Y25152381D01*
X39338095Y25009524D01*
X39385714Y24819048D01*
X39385714Y24438096D01*
X39338095Y24342858D01*
X39290476Y24295239D01*
X39195238Y24247620D01*
X39004761Y24247620D01*
X38909523Y24295239D01*
X38861904Y24342858D01*
X38814285Y24438096D01*
X38814285Y24676191D01*
X38861904Y24771429D01*
X38909523Y24819048D01*
X39004761Y24866667D01*
X39195238Y24866667D01*
X39290476Y24819048D01*
X39338095Y24771429D01*
X39385714Y24676191D01*
G04 #@! TO.C,R19*
X22352380Y19842858D02*
X21876190Y20176191D01*
X22352380Y20414286D02*
X21352380Y20414286D01*
X21352380Y20033334D01*
X21400000Y19938096D01*
X21447619Y19890477D01*
X21542857Y19842858D01*
X21685714Y19842858D01*
X21780952Y19890477D01*
X21828571Y19938096D01*
X21876190Y20033334D01*
X21876190Y20414286D01*
X22352380Y18890477D02*
X22352380Y19461905D01*
X22352380Y19176191D02*
X21352380Y19176191D01*
X21495238Y19271429D01*
X21590476Y19366667D01*
X21638095Y19461905D01*
X22352380Y18414286D02*
X22352380Y18223810D01*
X22304761Y18128572D01*
X22257142Y18080953D01*
X22114285Y17985715D01*
X21923809Y17938096D01*
X21542857Y17938096D01*
X21447619Y17985715D01*
X21400000Y18033334D01*
X21352380Y18128572D01*
X21352380Y18319048D01*
X21400000Y18414286D01*
X21447619Y18461905D01*
X21542857Y18509524D01*
X21780952Y18509524D01*
X21876190Y18461905D01*
X21923809Y18414286D01*
X21971428Y18319048D01*
X21971428Y18128572D01*
X21923809Y18033334D01*
X21876190Y17985715D01*
X21780952Y17938096D01*
G04 #@! TO.C,R20*
X28742857Y10047620D02*
X29076190Y10523810D01*
X29314285Y10047620D02*
X29314285Y11047620D01*
X28933333Y11047620D01*
X28838095Y11000000D01*
X28790476Y10952381D01*
X28742857Y10857143D01*
X28742857Y10714286D01*
X28790476Y10619048D01*
X28838095Y10571429D01*
X28933333Y10523810D01*
X29314285Y10523810D01*
X28361904Y10952381D02*
X28314285Y11000000D01*
X28219047Y11047620D01*
X27980952Y11047620D01*
X27885714Y11000000D01*
X27838095Y10952381D01*
X27790476Y10857143D01*
X27790476Y10761905D01*
X27838095Y10619048D01*
X28409523Y10047620D01*
X27790476Y10047620D01*
X27171428Y11047620D02*
X27076190Y11047620D01*
X26980952Y11000000D01*
X26933333Y10952381D01*
X26885714Y10857143D01*
X26838095Y10666667D01*
X26838095Y10428572D01*
X26885714Y10238096D01*
X26933333Y10142858D01*
X26980952Y10095239D01*
X27076190Y10047620D01*
X27171428Y10047620D01*
X27266666Y10095239D01*
X27314285Y10142858D01*
X27361904Y10238096D01*
X27409523Y10428572D01*
X27409523Y10666667D01*
X27361904Y10857143D01*
X27314285Y10952381D01*
X27266666Y11000000D01*
X27171428Y11047620D01*
G04 #@! TO.C,R21*
X15442857Y19847620D02*
X15776190Y20323810D01*
X16014285Y19847620D02*
X16014285Y20847620D01*
X15633333Y20847620D01*
X15538095Y20800000D01*
X15490476Y20752381D01*
X15442857Y20657143D01*
X15442857Y20514286D01*
X15490476Y20419048D01*
X15538095Y20371429D01*
X15633333Y20323810D01*
X16014285Y20323810D01*
X15061904Y20752381D02*
X15014285Y20800000D01*
X14919047Y20847620D01*
X14680952Y20847620D01*
X14585714Y20800000D01*
X14538095Y20752381D01*
X14490476Y20657143D01*
X14490476Y20561905D01*
X14538095Y20419048D01*
X15109523Y19847620D01*
X14490476Y19847620D01*
X13538095Y19847620D02*
X14109523Y19847620D01*
X13823809Y19847620D02*
X13823809Y20847620D01*
X13919047Y20704762D01*
X14014285Y20609524D01*
X14109523Y20561905D01*
G04 #@! TO.C,R22*
X49352380Y3242858D02*
X48876190Y3576191D01*
X49352380Y3814286D02*
X48352380Y3814286D01*
X48352380Y3433334D01*
X48400000Y3338096D01*
X48447619Y3290477D01*
X48542857Y3242858D01*
X48685714Y3242858D01*
X48780952Y3290477D01*
X48828571Y3338096D01*
X48876190Y3433334D01*
X48876190Y3814286D01*
X48447619Y2861905D02*
X48400000Y2814286D01*
X48352380Y2719048D01*
X48352380Y2480953D01*
X48400000Y2385715D01*
X48447619Y2338096D01*
X48542857Y2290477D01*
X48638095Y2290477D01*
X48780952Y2338096D01*
X49352380Y2909524D01*
X49352380Y2290477D01*
X48447619Y1909524D02*
X48400000Y1861905D01*
X48352380Y1766667D01*
X48352380Y1528572D01*
X48400000Y1433334D01*
X48447619Y1385715D01*
X48542857Y1338096D01*
X48638095Y1338096D01*
X48780952Y1385715D01*
X49352380Y1957143D01*
X49352380Y1338096D01*
G04 #@! TO.C,R23*
X45952380Y5942858D02*
X45476190Y6276191D01*
X45952380Y6514286D02*
X44952380Y6514286D01*
X44952380Y6133334D01*
X45000000Y6038096D01*
X45047619Y5990477D01*
X45142857Y5942858D01*
X45285714Y5942858D01*
X45380952Y5990477D01*
X45428571Y6038096D01*
X45476190Y6133334D01*
X45476190Y6514286D01*
X45047619Y5561905D02*
X45000000Y5514286D01*
X44952380Y5419048D01*
X44952380Y5180953D01*
X45000000Y5085715D01*
X45047619Y5038096D01*
X45142857Y4990477D01*
X45238095Y4990477D01*
X45380952Y5038096D01*
X45952380Y5609524D01*
X45952380Y4990477D01*
X44952380Y4657143D02*
X44952380Y4038096D01*
X45333333Y4371429D01*
X45333333Y4228572D01*
X45380952Y4133334D01*
X45428571Y4085715D01*
X45523809Y4038096D01*
X45761904Y4038096D01*
X45857142Y4085715D01*
X45904761Y4133334D01*
X45952380Y4228572D01*
X45952380Y4514286D01*
X45904761Y4609524D01*
X45857142Y4657143D01*
G04 #@! TO.C,R24*
X43952380Y5942858D02*
X43476190Y6276191D01*
X43952380Y6514286D02*
X42952380Y6514286D01*
X42952380Y6133334D01*
X43000000Y6038096D01*
X43047619Y5990477D01*
X43142857Y5942858D01*
X43285714Y5942858D01*
X43380952Y5990477D01*
X43428571Y6038096D01*
X43476190Y6133334D01*
X43476190Y6514286D01*
X43047619Y5561905D02*
X43000000Y5514286D01*
X42952380Y5419048D01*
X42952380Y5180953D01*
X43000000Y5085715D01*
X43047619Y5038096D01*
X43142857Y4990477D01*
X43238095Y4990477D01*
X43380952Y5038096D01*
X43952380Y5609524D01*
X43952380Y4990477D01*
X43285714Y4133334D02*
X43952380Y4133334D01*
X42904761Y4371429D02*
X43619047Y4609524D01*
X43619047Y3990477D01*
G04 #@! TO.C,RN2*
X31490476Y30147620D02*
X31823809Y30623810D01*
X32061904Y30147620D02*
X32061904Y31147620D01*
X31680952Y31147620D01*
X31585714Y31100000D01*
X31538095Y31052381D01*
X31490476Y30957143D01*
X31490476Y30814286D01*
X31538095Y30719048D01*
X31585714Y30671429D01*
X31680952Y30623810D01*
X32061904Y30623810D01*
X31061904Y30147620D02*
X31061904Y31147620D01*
X30490476Y30147620D01*
X30490476Y31147620D01*
X30061904Y31052381D02*
X30014285Y31100000D01*
X29919047Y31147620D01*
X29680952Y31147620D01*
X29585714Y31100000D01*
X29538095Y31052381D01*
X29490476Y30957143D01*
X29490476Y30861905D01*
X29538095Y30719048D01*
X30109523Y30147620D01*
X29490476Y30147620D01*
G04 #@! TO.C,Y1*
X35676190Y26323810D02*
X35676190Y25847620D01*
X36009523Y26847620D02*
X35676190Y26323810D01*
X35342857Y26847620D01*
X34485714Y25847620D02*
X35057142Y25847620D01*
X34771428Y25847620D02*
X34771428Y26847620D01*
X34866666Y26704762D01*
X34961904Y26609524D01*
X35057142Y26561905D01*
G04 #@! TO.C,Y2*
X35976190Y16323810D02*
X35976190Y15847620D01*
X36309523Y16847620D02*
X35976190Y16323810D01*
X35642857Y16847620D01*
X35357142Y16752381D02*
X35309523Y16800000D01*
X35214285Y16847620D01*
X34976190Y16847620D01*
X34880952Y16800000D01*
X34833333Y16752381D01*
X34785714Y16657143D01*
X34785714Y16561905D01*
X34833333Y16419048D01*
X35404761Y15847620D01*
X34785714Y15847620D01*
G04 #@! TO.C,RN3*
X18290476Y23247620D02*
X18623809Y23723810D01*
X18861904Y23247620D02*
X18861904Y24247620D01*
X18480952Y24247620D01*
X18385714Y24200000D01*
X18338095Y24152381D01*
X18290476Y24057143D01*
X18290476Y23914286D01*
X18338095Y23819048D01*
X18385714Y23771429D01*
X18480952Y23723810D01*
X18861904Y23723810D01*
X17861904Y23247620D02*
X17861904Y24247620D01*
X17290476Y23247620D01*
X17290476Y24247620D01*
X16909523Y24247620D02*
X16290476Y24247620D01*
X16623809Y23866667D01*
X16480952Y23866667D01*
X16385714Y23819048D01*
X16338095Y23771429D01*
X16290476Y23676191D01*
X16290476Y23438096D01*
X16338095Y23342858D01*
X16385714Y23295239D01*
X16480952Y23247620D01*
X16766666Y23247620D01*
X16861904Y23295239D01*
X16909523Y23342858D01*
G04 #@! TO.C,U3*
X18961904Y7147620D02*
X18961904Y6338096D01*
X18914285Y6242858D01*
X18866666Y6195239D01*
X18771428Y6147620D01*
X18580952Y6147620D01*
X18485714Y6195239D01*
X18438095Y6242858D01*
X18390476Y6338096D01*
X18390476Y7147620D01*
X18009523Y7147620D02*
X17390476Y7147620D01*
X17723809Y6766667D01*
X17580952Y6766667D01*
X17485714Y6719048D01*
X17438095Y6671429D01*
X17390476Y6576191D01*
X17390476Y6338096D01*
X17438095Y6242858D01*
X17485714Y6195239D01*
X17580952Y6147620D01*
X17866666Y6147620D01*
X17961904Y6195239D01*
X18009523Y6242858D01*
G04 #@! TO.C,C24*
X61942857Y14642858D02*
X61990476Y14595239D01*
X62133333Y14547620D01*
X62228571Y14547620D01*
X62371428Y14595239D01*
X62466666Y14690477D01*
X62514285Y14785715D01*
X62561904Y14976191D01*
X62561904Y15119048D01*
X62514285Y15309524D01*
X62466666Y15404762D01*
X62371428Y15500000D01*
X62228571Y15547620D01*
X62133333Y15547620D01*
X61990476Y15500000D01*
X61942857Y15452381D01*
X61561904Y15452381D02*
X61514285Y15500000D01*
X61419047Y15547620D01*
X61180952Y15547620D01*
X61085714Y15500000D01*
X61038095Y15452381D01*
X60990476Y15357143D01*
X60990476Y15261905D01*
X61038095Y15119048D01*
X61609523Y14547620D01*
X60990476Y14547620D01*
X60133333Y15214286D02*
X60133333Y14547620D01*
X60371428Y15595239D02*
X60609523Y14880953D01*
X59990476Y14880953D01*
G04 #@! TO.C,C25*
X63642857Y1642858D02*
X63690476Y1595239D01*
X63833333Y1547620D01*
X63928571Y1547620D01*
X64071428Y1595239D01*
X64166666Y1690477D01*
X64214285Y1785715D01*
X64261904Y1976191D01*
X64261904Y2119048D01*
X64214285Y2309524D01*
X64166666Y2404762D01*
X64071428Y2500000D01*
X63928571Y2547620D01*
X63833333Y2547620D01*
X63690476Y2500000D01*
X63642857Y2452381D01*
X63261904Y2452381D02*
X63214285Y2500000D01*
X63119047Y2547620D01*
X62880952Y2547620D01*
X62785714Y2500000D01*
X62738095Y2452381D01*
X62690476Y2357143D01*
X62690476Y2261905D01*
X62738095Y2119048D01*
X63309523Y1547620D01*
X62690476Y1547620D01*
X61785714Y2547620D02*
X62261904Y2547620D01*
X62309523Y2071429D01*
X62261904Y2119048D01*
X62166666Y2166667D01*
X61928571Y2166667D01*
X61833333Y2119048D01*
X61785714Y2071429D01*
X61738095Y1976191D01*
X61738095Y1738096D01*
X61785714Y1642858D01*
X61833333Y1595239D01*
X61928571Y1547620D01*
X62166666Y1547620D01*
X62261904Y1595239D01*
X62309523Y1642858D01*
G04 #@! TO.C,C26*
X72042857Y14642858D02*
X72090476Y14595239D01*
X72233333Y14547620D01*
X72328571Y14547620D01*
X72471428Y14595239D01*
X72566666Y14690477D01*
X72614285Y14785715D01*
X72661904Y14976191D01*
X72661904Y15119048D01*
X72614285Y15309524D01*
X72566666Y15404762D01*
X72471428Y15500000D01*
X72328571Y15547620D01*
X72233333Y15547620D01*
X72090476Y15500000D01*
X72042857Y15452381D01*
X71661904Y15452381D02*
X71614285Y15500000D01*
X71519047Y15547620D01*
X71280952Y15547620D01*
X71185714Y15500000D01*
X71138095Y15452381D01*
X71090476Y15357143D01*
X71090476Y15261905D01*
X71138095Y15119048D01*
X71709523Y14547620D01*
X71090476Y14547620D01*
X70233333Y15547620D02*
X70423809Y15547620D01*
X70519047Y15500000D01*
X70566666Y15452381D01*
X70661904Y15309524D01*
X70709523Y15119048D01*
X70709523Y14738096D01*
X70661904Y14642858D01*
X70614285Y14595239D01*
X70519047Y14547620D01*
X70328571Y14547620D01*
X70233333Y14595239D01*
X70185714Y14642858D01*
X70138095Y14738096D01*
X70138095Y14976191D01*
X70185714Y15071429D01*
X70233333Y15119048D01*
X70328571Y15166667D01*
X70519047Y15166667D01*
X70614285Y15119048D01*
X70661904Y15071429D01*
X70709523Y14976191D01*
G04 #@! TO.C,C27*
X70342857Y1542858D02*
X70390476Y1495239D01*
X70533333Y1447620D01*
X70628571Y1447620D01*
X70771428Y1495239D01*
X70866666Y1590477D01*
X70914285Y1685715D01*
X70961904Y1876191D01*
X70961904Y2019048D01*
X70914285Y2209524D01*
X70866666Y2304762D01*
X70771428Y2400000D01*
X70628571Y2447620D01*
X70533333Y2447620D01*
X70390476Y2400000D01*
X70342857Y2352381D01*
X69961904Y2352381D02*
X69914285Y2400000D01*
X69819047Y2447620D01*
X69580952Y2447620D01*
X69485714Y2400000D01*
X69438095Y2352381D01*
X69390476Y2257143D01*
X69390476Y2161905D01*
X69438095Y2019048D01*
X70009523Y1447620D01*
X69390476Y1447620D01*
X69057142Y2447620D02*
X68390476Y2447620D01*
X68819047Y1447620D01*
G04 #@! TO.C,U4*
X67061904Y14947620D02*
X67061904Y14138096D01*
X67014285Y14042858D01*
X66966666Y13995239D01*
X66871428Y13947620D01*
X66680952Y13947620D01*
X66585714Y13995239D01*
X66538095Y14042858D01*
X66490476Y14138096D01*
X66490476Y14947620D01*
X65585714Y14614286D02*
X65585714Y13947620D01*
X65823809Y14995239D02*
X66061904Y14280953D01*
X65442857Y14280953D01*
G04 #@! TO.C,R27*
X58352380Y4442858D02*
X57876190Y4776191D01*
X58352380Y5014286D02*
X57352380Y5014286D01*
X57352380Y4633334D01*
X57400000Y4538096D01*
X57447619Y4490477D01*
X57542857Y4442858D01*
X57685714Y4442858D01*
X57780952Y4490477D01*
X57828571Y4538096D01*
X57876190Y4633334D01*
X57876190Y5014286D01*
X57447619Y4061905D02*
X57400000Y4014286D01*
X57352380Y3919048D01*
X57352380Y3680953D01*
X57400000Y3585715D01*
X57447619Y3538096D01*
X57542857Y3490477D01*
X57638095Y3490477D01*
X57780952Y3538096D01*
X58352380Y4109524D01*
X58352380Y3490477D01*
X57352380Y3157143D02*
X57352380Y2490477D01*
X58352380Y2919048D01*
G04 #@! TO.C,R28*
X59952380Y4442858D02*
X59476190Y4776191D01*
X59952380Y5014286D02*
X58952380Y5014286D01*
X58952380Y4633334D01*
X59000000Y4538096D01*
X59047619Y4490477D01*
X59142857Y4442858D01*
X59285714Y4442858D01*
X59380952Y4490477D01*
X59428571Y4538096D01*
X59476190Y4633334D01*
X59476190Y5014286D01*
X59047619Y4061905D02*
X59000000Y4014286D01*
X58952380Y3919048D01*
X58952380Y3680953D01*
X59000000Y3585715D01*
X59047619Y3538096D01*
X59142857Y3490477D01*
X59238095Y3490477D01*
X59380952Y3538096D01*
X59952380Y4109524D01*
X59952380Y3490477D01*
X59380952Y2919048D02*
X59333333Y3014286D01*
X59285714Y3061905D01*
X59190476Y3109524D01*
X59142857Y3109524D01*
X59047619Y3061905D01*
X59000000Y3014286D01*
X58952380Y2919048D01*
X58952380Y2728572D01*
X59000000Y2633334D01*
X59047619Y2585715D01*
X59142857Y2538096D01*
X59190476Y2538096D01*
X59285714Y2585715D01*
X59333333Y2633334D01*
X59380952Y2728572D01*
X59380952Y2919048D01*
X59428571Y3014286D01*
X59476190Y3061905D01*
X59571428Y3109524D01*
X59761904Y3109524D01*
X59857142Y3061905D01*
X59904761Y3014286D01*
X59952380Y2919048D01*
X59952380Y2728572D01*
X59904761Y2633334D01*
X59857142Y2585715D01*
X59761904Y2538096D01*
X59571428Y2538096D01*
X59476190Y2585715D01*
X59428571Y2633334D01*
X59380952Y2728572D01*
G04 #@! TO.C,R29*
X56652380Y4442858D02*
X56176190Y4776191D01*
X56652380Y5014286D02*
X55652380Y5014286D01*
X55652380Y4633334D01*
X55700000Y4538096D01*
X55747619Y4490477D01*
X55842857Y4442858D01*
X55985714Y4442858D01*
X56080952Y4490477D01*
X56128571Y4538096D01*
X56176190Y4633334D01*
X56176190Y5014286D01*
X55747619Y4061905D02*
X55700000Y4014286D01*
X55652380Y3919048D01*
X55652380Y3680953D01*
X55700000Y3585715D01*
X55747619Y3538096D01*
X55842857Y3490477D01*
X55938095Y3490477D01*
X56080952Y3538096D01*
X56652380Y4109524D01*
X56652380Y3490477D01*
X56652380Y3014286D02*
X56652380Y2823810D01*
X56604761Y2728572D01*
X56557142Y2680953D01*
X56414285Y2585715D01*
X56223809Y2538096D01*
X55842857Y2538096D01*
X55747619Y2585715D01*
X55700000Y2633334D01*
X55652380Y2728572D01*
X55652380Y2919048D01*
X55700000Y3014286D01*
X55747619Y3061905D01*
X55842857Y3109524D01*
X56080952Y3109524D01*
X56176190Y3061905D01*
X56223809Y3014286D01*
X56271428Y2919048D01*
X56271428Y2728572D01*
X56223809Y2633334D01*
X56176190Y2585715D01*
X56080952Y2538096D01*
G04 #@! TO.C,J11*
X46209523Y26747620D02*
X46209523Y26033334D01*
X46257142Y25890477D01*
X46352380Y25795239D01*
X46495238Y25747620D01*
X46590476Y25747620D01*
X45209523Y25747620D02*
X45780952Y25747620D01*
X45495238Y25747620D02*
X45495238Y26747620D01*
X45590476Y26604762D01*
X45685714Y26509524D01*
X45780952Y26461905D01*
X44257142Y25747620D02*
X44828571Y25747620D01*
X44542857Y25747620D02*
X44542857Y26747620D01*
X44638095Y26604762D01*
X44733333Y26509524D01*
X44828571Y26461905D01*
G04 #@! TD*
%LPC*%
D14*
G04 #@! TO.C,SW4*
X3700000Y17900000D03*
D15*
X6240000Y17900000D03*
X8780000Y17900000D03*
X3700000Y10280000D03*
X6240000Y10280000D03*
X8780000Y10280000D03*
G04 #@! TD*
D16*
G04 #@! TO.C,REF\002A\002A*
X3200000Y2500000D03*
G04 #@! TD*
G04 #@! TO.C,REF\002A\002A*
X87800000Y2500000D03*
G04 #@! TD*
G04 #@! TO.C,REF\002A\002A*
X10700000Y30500000D03*
G04 #@! TD*
D17*
G04 #@! TO.C,C1*
X32600000Y22525000D03*
X32600000Y24025000D03*
G04 #@! TD*
G04 #@! TO.C,C3*
X32600000Y18300000D03*
X32600000Y19800000D03*
G04 #@! TD*
G04 #@! TO.C,C4*
X36700000Y14800000D03*
X36700000Y13300000D03*
G04 #@! TD*
D18*
G04 #@! TO.C,C6*
X40350000Y22050000D03*
X38850000Y22050000D03*
G04 #@! TD*
G04 #@! TO.C,C7*
X43700000Y7500000D03*
X42200000Y7500000D03*
G04 #@! TD*
G04 #@! TO.C,C8*
X47300000Y6100000D03*
X48800000Y6100000D03*
G04 #@! TD*
G04 #@! TO.C,C9*
X50275000Y7500000D03*
X48775000Y7500000D03*
G04 #@! TD*
G04 #@! TO.C,C10*
X52225000Y22300000D03*
X53725000Y22300000D03*
G04 #@! TD*
G04 #@! TO.C,C18*
X61525000Y30400000D03*
X63025000Y30400000D03*
G04 #@! TD*
G04 #@! TO.C,C19*
X27125000Y31850000D03*
X25625000Y31850000D03*
G04 #@! TD*
G04 #@! TO.C,C21*
X36425000Y31350000D03*
X34925000Y31350000D03*
G04 #@! TD*
D19*
G04 #@! TO.C,J1*
X85800000Y15800000D03*
X85800000Y15300000D03*
X85800000Y14800000D03*
X85800000Y14300000D03*
X85800000Y13800000D03*
X85800000Y13300000D03*
X85800000Y12800000D03*
X85800000Y12300000D03*
X85800000Y11800000D03*
X85800000Y11300000D03*
X85800000Y10800000D03*
X85800000Y10300000D03*
X85800000Y9800000D03*
D20*
X88475000Y7650000D03*
X88475000Y17450000D03*
D19*
X85800000Y9300000D03*
D21*
X88475000Y17450000D03*
X88475000Y7650000D03*
G04 #@! TD*
D22*
G04 #@! TO.C,L1*
X35000000Y14800000D03*
X35000000Y13300000D03*
G04 #@! TD*
D23*
G04 #@! TO.C,R6*
X40350000Y23450000D03*
X38850000Y23450000D03*
G04 #@! TD*
D22*
G04 #@! TO.C,R19*
X23400000Y18500000D03*
X23400000Y20000000D03*
G04 #@! TD*
D23*
G04 #@! TO.C,R20*
X27300000Y9200000D03*
X28800000Y9200000D03*
G04 #@! TD*
G04 #@! TO.C,R21*
X15600000Y19000000D03*
X14100000Y19000000D03*
G04 #@! TD*
D22*
G04 #@! TO.C,R22*
X47500000Y3400000D03*
X47500000Y1900000D03*
G04 #@! TD*
G04 #@! TO.C,R23*
X45500000Y3400000D03*
X45500000Y1900000D03*
G04 #@! TD*
G04 #@! TO.C,R24*
X43500000Y3400000D03*
X43500000Y1900000D03*
G04 #@! TD*
D24*
G04 #@! TO.C,RN2*
X30670000Y29240000D03*
X31170000Y29240000D03*
X31170000Y28240000D03*
X30670000Y28240000D03*
X31670000Y28240000D03*
X30170000Y29240000D03*
X30170000Y28240000D03*
X31670000Y29240000D03*
G04 #@! TD*
D25*
G04 #@! TO.C,Y1*
X36100000Y22600000D03*
X36100000Y24800000D03*
X34200000Y24800000D03*
X34200000Y22600000D03*
G04 #@! TD*
D26*
G04 #@! TO.C,Y2*
X34600000Y20425000D03*
X36250000Y20425000D03*
X34600000Y18220000D03*
X36250000Y18220000D03*
G04 #@! TD*
D24*
G04 #@! TO.C,RN3*
X16730000Y21290000D03*
X18230000Y22290000D03*
X18230000Y21290000D03*
X16730000Y22290000D03*
X17730000Y22290000D03*
X17230000Y22290000D03*
X17230000Y21290000D03*
X17730000Y21290000D03*
G04 #@! TD*
D16*
G04 #@! TO.C,REF\002A\002A*
X80300000Y30500000D03*
G04 #@! TD*
D25*
G04 #@! TO.C,U3*
X14100000Y16800000D03*
D27*
X23350000Y16800000D03*
X16750000Y16800000D03*
X17850000Y16800000D03*
X18950000Y16800000D03*
X20050000Y16800000D03*
X21150000Y16800000D03*
X22250000Y16800000D03*
X15650000Y16800000D03*
X24300000Y16800000D03*
D28*
X25250000Y6300000D03*
D25*
X25250000Y12500000D03*
D29*
X25250000Y2150000D03*
D30*
X11750000Y1700000D03*
G04 #@! TD*
D18*
G04 #@! TO.C,C24*
X60500000Y13600000D03*
X62000000Y13600000D03*
G04 #@! TD*
G04 #@! TO.C,C25*
X62200000Y3500000D03*
X63700000Y3500000D03*
G04 #@! TD*
G04 #@! TO.C,C26*
X70675000Y13700000D03*
X72175000Y13700000D03*
G04 #@! TD*
G04 #@! TO.C,C27*
X69025000Y3500000D03*
X70525000Y3500000D03*
G04 #@! TD*
D31*
G04 #@! TO.C,U4*
X69000000Y6095000D03*
X63691400Y6095000D03*
X63691400Y9270000D03*
X69000000Y11175000D03*
X69000000Y8635000D03*
X63691400Y8635000D03*
X69000000Y6730000D03*
X69000000Y9905000D03*
X69000000Y9270000D03*
X63691400Y8000000D03*
X63691400Y7365000D03*
X69000000Y7365000D03*
X69000000Y11810000D03*
X63691400Y9905000D03*
X69000000Y8000000D03*
X63691400Y6730000D03*
X69000000Y10540000D03*
X63691400Y11810000D03*
X63691400Y10540000D03*
X63691400Y11175000D03*
G04 #@! TD*
D22*
G04 #@! TO.C,R27*
X56200000Y7400000D03*
X56200000Y5900000D03*
G04 #@! TD*
G04 #@! TO.C,R28*
X59400000Y5900000D03*
X59400000Y7400000D03*
G04 #@! TD*
G04 #@! TO.C,R29*
X57800000Y7400000D03*
X57800000Y5900000D03*
G04 #@! TD*
D32*
G04 #@! TO.C,J11*
X44200000Y28400000D03*
X43700000Y28400000D03*
X45200000Y28400000D03*
D33*
X48850000Y31075000D03*
D32*
X45700000Y28400000D03*
X46200000Y28400000D03*
X47200000Y28400000D03*
X44700000Y28400000D03*
D34*
X42100000Y31075000D03*
X48850000Y31075000D03*
D32*
X46700000Y28400000D03*
G04 #@! TD*
M02*
