G04 #@! TF.GenerationSoftware,KiCad,Pcbnew,(5.0.0)*
G04 #@! TF.CreationDate,2019-07-10T13:07:56+09:00*
G04 #@! TF.ProjectId,line and sensor,6C696E6520616E642073656E736F722E,rev?*
G04 #@! TF.SameCoordinates,Original*
G04 #@! TF.FileFunction,Copper,L2,Bot,Signal*
G04 #@! TF.FilePolarity,Positive*
%FSLAX46Y46*%
G04 Gerber Fmt 4.6, Leading zero omitted, Abs format (unit mm)*
G04 Created by KiCad (PCBNEW (5.0.0)) date 07/10/19 13:07:56*
%MOMM*%
%LPD*%
G01*
G04 APERTURE LIST*
G04 #@! TA.AperFunction,SMDPad,CuDef*
%ADD10R,0.800000X0.500000*%
G04 #@! TD*
G04 #@! TA.AperFunction,SMDPad,CuDef*
%ADD11R,1.000000X1.450000*%
G04 #@! TD*
G04 #@! TA.AperFunction,SMDPad,CuDef*
%ADD12R,0.800000X0.800000*%
G04 #@! TD*
G04 #@! TA.AperFunction,SMDPad,CuDef*
%ADD13R,0.500000X0.800000*%
G04 #@! TD*
G04 #@! TA.AperFunction,SMDPad,CuDef*
%ADD14R,0.230000X1.250000*%
G04 #@! TD*
G04 #@! TA.AperFunction,SMDPad,CuDef*
%ADD15R,1.800000X2.000000*%
G04 #@! TD*
G04 #@! TA.AperFunction,SMDPad,CuDef*
%ADD16R,2.200000X2.000000*%
G04 #@! TD*
G04 #@! TA.AperFunction,ViaPad*
%ADD17C,0.800000*%
G04 #@! TD*
G04 #@! TA.AperFunction,Conductor*
%ADD18C,0.250000*%
G04 #@! TD*
G04 #@! TA.AperFunction,Conductor*
%ADD19C,0.400000*%
G04 #@! TD*
G04 #@! TA.AperFunction,Conductor*
%ADD20C,0.210000*%
G04 #@! TD*
G04 #@! TA.AperFunction,NonConductor*
%ADD21C,0.254000*%
G04 #@! TD*
G04 APERTURE END LIST*
D10*
G04 #@! TO.P,R2,1*
G04 #@! TO.N,N/C*
X183800000Y-62100000D03*
G04 #@! TO.P,R2,2*
X183800000Y-63600000D03*
G04 #@! TD*
D11*
G04 #@! TO.P,Q1,1*
G04 #@! TO.N,N/C*
X177600000Y-61200000D03*
G04 #@! TO.P,Q1,2*
X179200000Y-61200000D03*
G04 #@! TD*
G04 #@! TO.P,Q4,2*
G04 #@! TO.N,N/C*
X188650000Y-68100000D03*
G04 #@! TO.P,Q4,1*
X187050000Y-68100000D03*
G04 #@! TD*
D12*
G04 #@! TO.P,D2,2*
G04 #@! TO.N,N/C*
X179200000Y-63600000D03*
G04 #@! TO.P,D2,1*
X177700000Y-63600000D03*
G04 #@! TD*
D13*
G04 #@! TO.P,R3,2*
G04 #@! TO.N,N/C*
X146900000Y-73250000D03*
G04 #@! TO.P,R3,1*
X148400000Y-73250000D03*
G04 #@! TD*
G04 #@! TO.P,R5,2*
G04 #@! TO.N,N/C*
X185600000Y-73200000D03*
G04 #@! TO.P,R5,1*
X184100000Y-73200000D03*
G04 #@! TD*
D14*
G04 #@! TO.P,J1,7*
G04 #@! TO.N,N/C*
X157050000Y-73250000D03*
G04 #@! TO.P,J1,8*
X157550000Y-73250000D03*
G04 #@! TO.P,J1,5*
X156050000Y-73250000D03*
D15*
G04 #@! TO.P,J1,*
G04 #@! TO.N,*
X152400000Y-75925000D03*
D14*
G04 #@! TO.P,J1,4*
G04 #@! TO.N,N/C*
X155550000Y-73250000D03*
G04 #@! TO.P,J1,3*
X155050000Y-73250000D03*
G04 #@! TO.P,J1,1*
X154050000Y-73250000D03*
G04 #@! TO.P,J1,6*
X156550000Y-73250000D03*
D16*
G04 #@! TO.P,J1,*
G04 #@! TO.N,*
X159150000Y-75925000D03*
X152400000Y-75925000D03*
D14*
G04 #@! TO.P,J1,2*
G04 #@! TO.N,N/C*
X154550000Y-73250000D03*
G04 #@! TD*
D13*
G04 #@! TO.P,R2,1*
G04 #@! TO.N,N/C*
X127500000Y-73250000D03*
G04 #@! TO.P,R2,2*
X126000000Y-73250000D03*
G04 #@! TD*
D12*
G04 #@! TO.P,D4,2*
G04 #@! TO.N,N/C*
X166100000Y-73200000D03*
G04 #@! TO.P,D4,1*
X167600000Y-73200000D03*
G04 #@! TD*
G04 #@! TO.P,D2,2*
G04 #@! TO.N,N/C*
X124500000Y-73250000D03*
G04 #@! TO.P,D2,1*
X123000000Y-73250000D03*
G04 #@! TD*
D10*
G04 #@! TO.P,R2,1*
G04 #@! TO.N,N/C*
X138600000Y-62100000D03*
G04 #@! TO.P,R2,2*
X138600000Y-63600000D03*
G04 #@! TD*
D11*
G04 #@! TO.P,Q1,1*
G04 #@! TO.N,N/C*
X132400000Y-61200000D03*
G04 #@! TO.P,Q1,2*
X134000000Y-61200000D03*
G04 #@! TD*
D13*
G04 #@! TO.P,R4,1*
G04 #@! TO.N,N/C*
X163200000Y-73200000D03*
G04 #@! TO.P,R4,2*
X164700000Y-73200000D03*
G04 #@! TD*
D11*
G04 #@! TO.P,Q3,1*
G04 #@! TO.N,N/C*
X166150000Y-68100000D03*
G04 #@! TO.P,Q3,2*
X167750000Y-68100000D03*
G04 #@! TD*
D12*
G04 #@! TO.P,D3,1*
G04 #@! TO.N,N/C*
X143900000Y-73250000D03*
G04 #@! TO.P,D3,2*
X145400000Y-73250000D03*
G04 #@! TD*
D11*
G04 #@! TO.P,Q1,1*
G04 #@! TO.N,N/C*
X124550000Y-68100000D03*
G04 #@! TO.P,Q1,2*
X122950000Y-68100000D03*
G04 #@! TD*
D12*
G04 #@! TO.P,D2,2*
G04 #@! TO.N,N/C*
X134000000Y-63600000D03*
G04 #@! TO.P,D2,1*
X132500000Y-63600000D03*
G04 #@! TD*
G04 #@! TO.P,D5,1*
G04 #@! TO.N,N/C*
X188550000Y-73200000D03*
G04 #@! TO.P,D5,2*
X187050000Y-73200000D03*
G04 #@! TD*
D11*
G04 #@! TO.P,Q2,2*
G04 #@! TO.N,N/C*
X143850000Y-68100000D03*
G04 #@! TO.P,Q2,1*
X145450000Y-68100000D03*
G04 #@! TD*
D10*
G04 #@! TO.P,R2,1*
G04 #@! TO.N,N/C*
X183800000Y-83000000D03*
G04 #@! TO.P,R2,2*
X183800000Y-84500000D03*
G04 #@! TD*
D11*
G04 #@! TO.P,Q1,1*
G04 #@! TO.N,N/C*
X177600000Y-82100000D03*
G04 #@! TO.P,Q1,2*
X179200000Y-82100000D03*
G04 #@! TD*
G04 #@! TO.P,Q4,2*
G04 #@! TO.N,N/C*
X188650000Y-89000000D03*
G04 #@! TO.P,Q4,1*
X187050000Y-89000000D03*
G04 #@! TD*
D12*
G04 #@! TO.P,D2,2*
G04 #@! TO.N,N/C*
X179200000Y-84500000D03*
G04 #@! TO.P,D2,1*
X177700000Y-84500000D03*
G04 #@! TD*
D13*
G04 #@! TO.P,R3,2*
G04 #@! TO.N,N/C*
X146900000Y-94150000D03*
G04 #@! TO.P,R3,1*
X148400000Y-94150000D03*
G04 #@! TD*
G04 #@! TO.P,R5,2*
G04 #@! TO.N,N/C*
X185600000Y-94100000D03*
G04 #@! TO.P,R5,1*
X184100000Y-94100000D03*
G04 #@! TD*
D14*
G04 #@! TO.P,J1,7*
G04 #@! TO.N,N/C*
X157050000Y-94150000D03*
G04 #@! TO.P,J1,8*
X157550000Y-94150000D03*
G04 #@! TO.P,J1,5*
X156050000Y-94150000D03*
D15*
G04 #@! TO.P,J1,*
G04 #@! TO.N,*
X152400000Y-96825000D03*
D14*
G04 #@! TO.P,J1,4*
G04 #@! TO.N,N/C*
X155550000Y-94150000D03*
G04 #@! TO.P,J1,3*
X155050000Y-94150000D03*
G04 #@! TO.P,J1,1*
X154050000Y-94150000D03*
G04 #@! TO.P,J1,6*
X156550000Y-94150000D03*
D16*
G04 #@! TO.P,J1,*
G04 #@! TO.N,*
X159150000Y-96825000D03*
X152400000Y-96825000D03*
D14*
G04 #@! TO.P,J1,2*
G04 #@! TO.N,N/C*
X154550000Y-94150000D03*
G04 #@! TD*
D13*
G04 #@! TO.P,R2,1*
G04 #@! TO.N,N/C*
X127500000Y-94150000D03*
G04 #@! TO.P,R2,2*
X126000000Y-94150000D03*
G04 #@! TD*
D12*
G04 #@! TO.P,D4,2*
G04 #@! TO.N,N/C*
X166100000Y-94100000D03*
G04 #@! TO.P,D4,1*
X167600000Y-94100000D03*
G04 #@! TD*
G04 #@! TO.P,D2,2*
G04 #@! TO.N,N/C*
X124500000Y-94150000D03*
G04 #@! TO.P,D2,1*
X123000000Y-94150000D03*
G04 #@! TD*
D10*
G04 #@! TO.P,R2,1*
G04 #@! TO.N,N/C*
X138600000Y-83000000D03*
G04 #@! TO.P,R2,2*
X138600000Y-84500000D03*
G04 #@! TD*
D11*
G04 #@! TO.P,Q1,1*
G04 #@! TO.N,N/C*
X132400000Y-82100000D03*
G04 #@! TO.P,Q1,2*
X134000000Y-82100000D03*
G04 #@! TD*
D13*
G04 #@! TO.P,R4,1*
G04 #@! TO.N,N/C*
X163200000Y-94100000D03*
G04 #@! TO.P,R4,2*
X164700000Y-94100000D03*
G04 #@! TD*
D11*
G04 #@! TO.P,Q3,1*
G04 #@! TO.N,N/C*
X166150000Y-89000000D03*
G04 #@! TO.P,Q3,2*
X167750000Y-89000000D03*
G04 #@! TD*
D12*
G04 #@! TO.P,D3,1*
G04 #@! TO.N,N/C*
X143900000Y-94150000D03*
G04 #@! TO.P,D3,2*
X145400000Y-94150000D03*
G04 #@! TD*
D11*
G04 #@! TO.P,Q1,1*
G04 #@! TO.N,N/C*
X124550000Y-89000000D03*
G04 #@! TO.P,Q1,2*
X122950000Y-89000000D03*
G04 #@! TD*
D12*
G04 #@! TO.P,D2,2*
G04 #@! TO.N,N/C*
X134000000Y-84500000D03*
G04 #@! TO.P,D2,1*
X132500000Y-84500000D03*
G04 #@! TD*
G04 #@! TO.P,D5,1*
G04 #@! TO.N,N/C*
X188550000Y-94100000D03*
G04 #@! TO.P,D5,2*
X187050000Y-94100000D03*
G04 #@! TD*
D11*
G04 #@! TO.P,Q2,2*
G04 #@! TO.N,N/C*
X143850000Y-89000000D03*
G04 #@! TO.P,Q2,1*
X145450000Y-89000000D03*
G04 #@! TD*
D10*
G04 #@! TO.P,R2,1*
G04 #@! TO.N,N/C*
X183800000Y-103500000D03*
G04 #@! TO.P,R2,2*
X183800000Y-105000000D03*
G04 #@! TD*
D11*
G04 #@! TO.P,Q1,1*
G04 #@! TO.N,N/C*
X177600000Y-102600000D03*
G04 #@! TO.P,Q1,2*
X179200000Y-102600000D03*
G04 #@! TD*
G04 #@! TO.P,Q4,2*
G04 #@! TO.N,N/C*
X188650000Y-109500000D03*
G04 #@! TO.P,Q4,1*
X187050000Y-109500000D03*
G04 #@! TD*
D12*
G04 #@! TO.P,D2,2*
G04 #@! TO.N,N/C*
X179200000Y-105000000D03*
G04 #@! TO.P,D2,1*
X177700000Y-105000000D03*
G04 #@! TD*
D13*
G04 #@! TO.P,R3,2*
G04 #@! TO.N,N/C*
X146900000Y-114650000D03*
G04 #@! TO.P,R3,1*
X148400000Y-114650000D03*
G04 #@! TD*
G04 #@! TO.P,R5,2*
G04 #@! TO.N,N/C*
X185600000Y-114600000D03*
G04 #@! TO.P,R5,1*
X184100000Y-114600000D03*
G04 #@! TD*
D14*
G04 #@! TO.P,J1,7*
G04 #@! TO.N,N/C*
X157050000Y-114650000D03*
G04 #@! TO.P,J1,8*
X157550000Y-114650000D03*
G04 #@! TO.P,J1,5*
X156050000Y-114650000D03*
D15*
G04 #@! TO.P,J1,*
G04 #@! TO.N,*
X152400000Y-117325000D03*
D14*
G04 #@! TO.P,J1,4*
G04 #@! TO.N,N/C*
X155550000Y-114650000D03*
G04 #@! TO.P,J1,3*
X155050000Y-114650000D03*
G04 #@! TO.P,J1,1*
X154050000Y-114650000D03*
G04 #@! TO.P,J1,6*
X156550000Y-114650000D03*
D16*
G04 #@! TO.P,J1,*
G04 #@! TO.N,*
X159150000Y-117325000D03*
X152400000Y-117325000D03*
D14*
G04 #@! TO.P,J1,2*
G04 #@! TO.N,N/C*
X154550000Y-114650000D03*
G04 #@! TD*
D13*
G04 #@! TO.P,R2,1*
G04 #@! TO.N,N/C*
X127500000Y-114650000D03*
G04 #@! TO.P,R2,2*
X126000000Y-114650000D03*
G04 #@! TD*
D12*
G04 #@! TO.P,D4,2*
G04 #@! TO.N,N/C*
X166100000Y-114600000D03*
G04 #@! TO.P,D4,1*
X167600000Y-114600000D03*
G04 #@! TD*
G04 #@! TO.P,D2,2*
G04 #@! TO.N,N/C*
X124500000Y-114650000D03*
G04 #@! TO.P,D2,1*
X123000000Y-114650000D03*
G04 #@! TD*
D10*
G04 #@! TO.P,R2,1*
G04 #@! TO.N,N/C*
X138600000Y-103500000D03*
G04 #@! TO.P,R2,2*
X138600000Y-105000000D03*
G04 #@! TD*
D11*
G04 #@! TO.P,Q1,1*
G04 #@! TO.N,N/C*
X132400000Y-102600000D03*
G04 #@! TO.P,Q1,2*
X134000000Y-102600000D03*
G04 #@! TD*
D13*
G04 #@! TO.P,R4,1*
G04 #@! TO.N,N/C*
X163200000Y-114600000D03*
G04 #@! TO.P,R4,2*
X164700000Y-114600000D03*
G04 #@! TD*
D11*
G04 #@! TO.P,Q3,1*
G04 #@! TO.N,N/C*
X166150000Y-109500000D03*
G04 #@! TO.P,Q3,2*
X167750000Y-109500000D03*
G04 #@! TD*
D12*
G04 #@! TO.P,D3,1*
G04 #@! TO.N,N/C*
X143900000Y-114650000D03*
G04 #@! TO.P,D3,2*
X145400000Y-114650000D03*
G04 #@! TD*
D11*
G04 #@! TO.P,Q1,1*
G04 #@! TO.N,N/C*
X124550000Y-109500000D03*
G04 #@! TO.P,Q1,2*
X122950000Y-109500000D03*
G04 #@! TD*
D12*
G04 #@! TO.P,D2,2*
G04 #@! TO.N,N/C*
X134000000Y-105000000D03*
G04 #@! TO.P,D2,1*
X132500000Y-105000000D03*
G04 #@! TD*
G04 #@! TO.P,D5,1*
G04 #@! TO.N,N/C*
X188550000Y-114600000D03*
G04 #@! TO.P,D5,2*
X187050000Y-114600000D03*
G04 #@! TD*
D11*
G04 #@! TO.P,Q2,2*
G04 #@! TO.N,N/C*
X143850000Y-109500000D03*
G04 #@! TO.P,Q2,1*
X145450000Y-109500000D03*
G04 #@! TD*
D10*
G04 #@! TO.P,R2,2*
G04 #@! TO.N,N/C*
X183800000Y-125400000D03*
G04 #@! TO.P,R2,1*
X183800000Y-123900000D03*
G04 #@! TD*
D11*
G04 #@! TO.P,Q1,2*
G04 #@! TO.N,N/C*
X179200000Y-123000000D03*
G04 #@! TO.P,Q1,1*
X177600000Y-123000000D03*
G04 #@! TD*
D12*
G04 #@! TO.P,D2,1*
G04 #@! TO.N,N/C*
X177700000Y-125400000D03*
G04 #@! TO.P,D2,2*
X179200000Y-125400000D03*
G04 #@! TD*
D10*
G04 #@! TO.P,R2,2*
G04 #@! TO.N,N/C*
X138600000Y-125400000D03*
G04 #@! TO.P,R2,1*
X138600000Y-123900000D03*
G04 #@! TD*
D11*
G04 #@! TO.P,Q1,2*
G04 #@! TO.N,N/C*
X134000000Y-123000000D03*
G04 #@! TO.P,Q1,1*
X132400000Y-123000000D03*
G04 #@! TD*
D12*
G04 #@! TO.P,D2,1*
G04 #@! TO.N,N/C*
X132500000Y-125400000D03*
G04 #@! TO.P,D2,2*
X134000000Y-125400000D03*
G04 #@! TD*
D11*
G04 #@! TO.P,Q4,1*
G04 #@! TO.N,N/C*
X187050000Y-129900000D03*
G04 #@! TO.P,Q4,2*
X188650000Y-129900000D03*
G04 #@! TD*
D12*
G04 #@! TO.P,D5,2*
G04 #@! TO.N,N/C*
X187050000Y-135000000D03*
G04 #@! TO.P,D5,1*
X188550000Y-135000000D03*
G04 #@! TD*
G04 #@! TO.P,D2,1*
G04 #@! TO.N,N/C*
X123000000Y-135050000D03*
G04 #@! TO.P,D2,2*
X124500000Y-135050000D03*
G04 #@! TD*
D13*
G04 #@! TO.P,R3,1*
G04 #@! TO.N,N/C*
X148400000Y-135050000D03*
G04 #@! TO.P,R3,2*
X146900000Y-135050000D03*
G04 #@! TD*
D14*
G04 #@! TO.P,J1,2*
G04 #@! TO.N,N/C*
X154550000Y-135050000D03*
D16*
G04 #@! TO.P,J1,*
G04 #@! TO.N,*
X152400000Y-137725000D03*
X159150000Y-137725000D03*
D14*
G04 #@! TO.P,J1,6*
G04 #@! TO.N,N/C*
X156550000Y-135050000D03*
G04 #@! TO.P,J1,1*
X154050000Y-135050000D03*
G04 #@! TO.P,J1,3*
X155050000Y-135050000D03*
G04 #@! TO.P,J1,4*
X155550000Y-135050000D03*
D15*
G04 #@! TO.P,J1,*
G04 #@! TO.N,*
X152400000Y-137725000D03*
D14*
G04 #@! TO.P,J1,5*
G04 #@! TO.N,N/C*
X156050000Y-135050000D03*
G04 #@! TO.P,J1,8*
X157550000Y-135050000D03*
G04 #@! TO.P,J1,7*
X157050000Y-135050000D03*
G04 #@! TD*
D13*
G04 #@! TO.P,R2,2*
G04 #@! TO.N,N/C*
X126000000Y-135050000D03*
G04 #@! TO.P,R2,1*
X127500000Y-135050000D03*
G04 #@! TD*
D11*
G04 #@! TO.P,Q3,2*
G04 #@! TO.N,N/C*
X167750000Y-129900000D03*
G04 #@! TO.P,Q3,1*
X166150000Y-129900000D03*
G04 #@! TD*
G04 #@! TO.P,Q2,1*
G04 #@! TO.N,N/C*
X145450000Y-129900000D03*
G04 #@! TO.P,Q2,2*
X143850000Y-129900000D03*
G04 #@! TD*
G04 #@! TO.P,Q1,2*
G04 #@! TO.N,N/C*
X122950000Y-129900000D03*
G04 #@! TO.P,Q1,1*
X124550000Y-129900000D03*
G04 #@! TD*
D12*
G04 #@! TO.P,D3,2*
G04 #@! TO.N,N/C*
X145400000Y-135050000D03*
G04 #@! TO.P,D3,1*
X143900000Y-135050000D03*
G04 #@! TD*
G04 #@! TO.P,D4,1*
G04 #@! TO.N,N/C*
X167600000Y-135000000D03*
G04 #@! TO.P,D4,2*
X166100000Y-135000000D03*
G04 #@! TD*
D13*
G04 #@! TO.P,R4,2*
G04 #@! TO.N,N/C*
X164700000Y-135000000D03*
G04 #@! TO.P,R4,1*
X163200000Y-135000000D03*
G04 #@! TD*
G04 #@! TO.P,R5,1*
G04 #@! TO.N,N/C*
X184100000Y-135000000D03*
G04 #@! TO.P,R5,2*
X185600000Y-135000000D03*
G04 #@! TD*
D17*
G04 #@! TO.N,*
X155700000Y-138200000D03*
X176300000Y-130000000D03*
X133800000Y-129800000D03*
X152500000Y-134200000D03*
X122950000Y-132800000D03*
X153500000Y-129400000D03*
X189200000Y-132600000D03*
X161100000Y-133950000D03*
X166900000Y-133100000D03*
X168850000Y-133100000D03*
X162100000Y-135000000D03*
X168850000Y-135000000D03*
X150000002Y-135050000D03*
X142450000Y-135050000D03*
X142650000Y-132550000D03*
X144900000Y-132550000D03*
X128400000Y-124300000D03*
X125600000Y-124000000D03*
X130900000Y-124300000D03*
X135500000Y-123300000D03*
X173600000Y-124300000D03*
X170800000Y-124000000D03*
X176100000Y-124300000D03*
X180700000Y-123300000D03*
X168850000Y-112700000D03*
X142450000Y-114650000D03*
X125600000Y-103600000D03*
X176300000Y-109600000D03*
X180700000Y-102900000D03*
X128400000Y-103900000D03*
X150000002Y-114650000D03*
X153500000Y-109000000D03*
X161100000Y-113550000D03*
X152500000Y-113800000D03*
X162100000Y-114600000D03*
X130900000Y-103900000D03*
X144900000Y-112150000D03*
X133800000Y-109400000D03*
X155700000Y-117800000D03*
X168850000Y-114600000D03*
X173600000Y-103900000D03*
X142650000Y-112150000D03*
X170800000Y-103600000D03*
X135500000Y-102900000D03*
X166900000Y-112700000D03*
X176100000Y-103900000D03*
X189200000Y-112200000D03*
X122950000Y-112400000D03*
X168850000Y-92200000D03*
X142450000Y-94150000D03*
X125600000Y-83100000D03*
X176300000Y-89100000D03*
X180700000Y-82400000D03*
X128400000Y-83400000D03*
X150000002Y-94150000D03*
X153500000Y-88500000D03*
X161100000Y-93050000D03*
X152500000Y-93300000D03*
X162100000Y-94100000D03*
X130900000Y-83400000D03*
X144900000Y-91650000D03*
X133800000Y-88900000D03*
X155700000Y-97300000D03*
X168850000Y-94100000D03*
X173600000Y-83400000D03*
X142650000Y-91650000D03*
X170800000Y-83100000D03*
X135500000Y-82400000D03*
X166900000Y-92200000D03*
X176100000Y-83400000D03*
X189200000Y-91700000D03*
X122950000Y-91900000D03*
X168850000Y-71300000D03*
X142450000Y-73250000D03*
X125600000Y-62200000D03*
X176300000Y-68200000D03*
X180700000Y-61500000D03*
X128400000Y-62500000D03*
X150000002Y-73250000D03*
X153500000Y-67600000D03*
X161100000Y-72150000D03*
X152500000Y-72400000D03*
X162100000Y-73200000D03*
X130900000Y-62500000D03*
X144900000Y-70750000D03*
X133800000Y-68000000D03*
X155700000Y-76400000D03*
X168850000Y-73200000D03*
X173600000Y-62500000D03*
X142650000Y-70750000D03*
X170800000Y-62200000D03*
X135500000Y-61500000D03*
X166900000Y-71300000D03*
X176100000Y-62500000D03*
X189200000Y-70800000D03*
X122950000Y-71000000D03*
G04 #@! TD*
D18*
G04 #@! TO.N,*
X122950000Y-135000000D02*
X123000000Y-135050000D01*
X143850000Y-135000000D02*
X143900000Y-135050000D01*
D19*
X161100000Y-133950000D02*
X167750000Y-133950000D01*
D18*
X167750000Y-134850000D02*
X167600000Y-135000000D01*
X167750000Y-129900000D02*
X167750000Y-133950000D01*
X188650000Y-134900000D02*
X188550000Y-135000000D01*
X167750000Y-133950000D02*
X167750000Y-134850000D01*
D19*
X167750000Y-133950000D02*
X188650000Y-133950000D01*
D18*
X188650000Y-133950000D02*
X188650000Y-134900000D01*
X143850000Y-133800000D02*
X143850000Y-135000000D01*
D19*
X150800000Y-133800000D02*
X152050000Y-135050000D01*
D18*
X143850000Y-129900000D02*
X143850000Y-133800000D01*
X122950000Y-133850000D02*
X122950000Y-135000000D01*
D19*
X152050000Y-135050000D02*
X153000000Y-135050000D01*
D18*
X154350000Y-135050000D02*
X154050000Y-135050000D01*
X188650000Y-129900000D02*
X188650000Y-133950000D01*
D19*
X123000000Y-133800000D02*
X122950000Y-133850000D01*
X152500000Y-134900000D02*
X152500000Y-134200000D01*
X152400000Y-135000000D02*
X152500000Y-134900000D01*
D18*
X122950000Y-132800000D02*
X122950000Y-133850000D01*
D19*
X153000000Y-135050000D02*
X154350000Y-135050000D01*
X143850000Y-133800000D02*
X150800000Y-133800000D01*
D18*
X122950000Y-129900000D02*
X122950000Y-132800000D01*
X154550000Y-135050000D02*
X154350000Y-135050000D01*
D19*
X143850000Y-133800000D02*
X123000000Y-133800000D01*
D18*
X126000000Y-135050000D02*
X124500000Y-135050000D01*
X146900000Y-135050000D02*
X145400000Y-135050000D01*
X166100000Y-135000000D02*
X164700000Y-135000000D01*
X187050000Y-135000000D02*
X185600000Y-135000000D01*
X151361413Y-129900000D02*
X155550000Y-134088587D01*
X155550000Y-134088587D02*
X155550000Y-134175000D01*
X155550000Y-134175000D02*
X155550000Y-135050000D01*
X145450000Y-129900000D02*
X151361413Y-129900000D01*
X156050000Y-134088587D02*
X160238587Y-129900000D01*
X165400000Y-129900000D02*
X166150000Y-129900000D01*
X160238587Y-129900000D02*
X165400000Y-129900000D01*
X156050000Y-135050000D02*
X156050000Y-134088587D01*
X187050000Y-130125000D02*
X187050000Y-129900000D01*
X168850000Y-133100000D02*
X184075000Y-133100000D01*
X184075000Y-133100000D02*
X187050000Y-130125000D01*
X157674998Y-133100000D02*
X159750000Y-133100000D01*
X159750000Y-133100000D02*
X166900000Y-133100000D01*
X156550000Y-134224998D02*
X157674998Y-133100000D01*
X156550000Y-135050000D02*
X156550000Y-134224998D01*
D19*
X141884315Y-135050000D02*
X127500000Y-135050000D01*
X142450000Y-135050000D02*
X141884315Y-135050000D01*
D18*
X157050000Y-135050000D02*
X157300000Y-135050000D01*
D19*
X160200000Y-136250000D02*
X157650000Y-136250000D01*
D18*
X157300000Y-135050000D02*
X157550000Y-135050000D01*
D19*
X168850000Y-135000000D02*
X184100000Y-135000000D01*
X148400000Y-135050000D02*
X150000002Y-135050000D01*
X162100000Y-135000000D02*
X163200000Y-135000000D01*
X157300000Y-135050000D02*
X157300000Y-136250000D01*
X157300000Y-136250000D02*
X151200002Y-136250000D01*
X157650000Y-136250000D02*
X157300000Y-136250000D01*
X151200002Y-136250000D02*
X150000002Y-135050000D01*
X162100000Y-135000000D02*
X161450000Y-135000000D01*
X161450000Y-135000000D02*
X160200000Y-136250000D01*
X157550000Y-135050000D02*
X157075010Y-135050000D01*
D18*
X142650000Y-132550000D02*
X126975000Y-132550000D01*
X153375002Y-132550000D02*
X144900000Y-132550000D01*
X126975000Y-132550000D02*
X124550000Y-130125000D01*
X155050000Y-134224998D02*
X153375002Y-132550000D01*
X155050000Y-134224998D02*
X155050000Y-135050000D01*
X124550000Y-130125000D02*
X124550000Y-129900000D01*
D20*
X134000000Y-123225000D02*
X132500000Y-124725000D01*
X134000000Y-123000000D02*
X134000000Y-123225000D01*
X129500000Y-125400000D02*
X128400000Y-124300000D01*
X132500000Y-124790000D02*
X132500000Y-125400000D01*
X132500000Y-124725000D02*
X132500000Y-124790000D01*
X132500000Y-125400000D02*
X129500000Y-125400000D01*
X134000000Y-125300000D02*
X133900000Y-125400000D01*
X134000000Y-125400000D02*
X134610000Y-125400000D01*
X137990000Y-125400000D02*
X134000000Y-125400000D01*
X138600000Y-125400000D02*
X137990000Y-125400000D01*
X131325000Y-124300000D02*
X130900000Y-124300000D01*
X132400000Y-123000000D02*
X132400000Y-123225000D01*
X132400000Y-123225000D02*
X131325000Y-124300000D01*
X135500000Y-123300000D02*
X138460000Y-123300000D01*
X138600000Y-123440000D02*
X138600000Y-123900000D01*
X138460000Y-123300000D02*
X138600000Y-123440000D01*
X179200000Y-123225000D02*
X177700000Y-124725000D01*
X179200000Y-123000000D02*
X179200000Y-123225000D01*
X174700000Y-125400000D02*
X173600000Y-124300000D01*
X177700000Y-124790000D02*
X177700000Y-125400000D01*
X177700000Y-124725000D02*
X177700000Y-124790000D01*
X177700000Y-125400000D02*
X174700000Y-125400000D01*
X179200000Y-125300000D02*
X179100000Y-125400000D01*
X179200000Y-125400000D02*
X179810000Y-125400000D01*
X183190000Y-125400000D02*
X179200000Y-125400000D01*
X183800000Y-125400000D02*
X183190000Y-125400000D01*
X176525000Y-124300000D02*
X176100000Y-124300000D01*
X177600000Y-123000000D02*
X177600000Y-123225000D01*
X177600000Y-123225000D02*
X176525000Y-124300000D01*
X180700000Y-123300000D02*
X183660000Y-123300000D01*
X183800000Y-123440000D02*
X183800000Y-123900000D01*
X183660000Y-123300000D02*
X183800000Y-123440000D01*
D19*
X161450000Y-114600000D02*
X160200000Y-115850000D01*
X157550000Y-114650000D02*
X157075010Y-114650000D01*
D18*
X187050000Y-114600000D02*
X185600000Y-114600000D01*
X155550000Y-113688587D02*
X155550000Y-113775000D01*
X122950000Y-109500000D02*
X122950000Y-112400000D01*
X160238587Y-109500000D02*
X165400000Y-109500000D01*
X122950000Y-113450000D02*
X122950000Y-114600000D01*
D19*
X123000000Y-113400000D02*
X122950000Y-113450000D01*
X152400000Y-114600000D02*
X152500000Y-114500000D01*
D18*
X126975000Y-112150000D02*
X124550000Y-109725000D01*
X122950000Y-112400000D02*
X122950000Y-113450000D01*
X156050000Y-113688587D02*
X160238587Y-109500000D01*
X153375002Y-112150000D02*
X144900000Y-112150000D01*
X142650000Y-112150000D02*
X126975000Y-112150000D01*
X143850000Y-113400000D02*
X143850000Y-114600000D01*
X155050000Y-113824998D02*
X153375002Y-112150000D01*
D19*
X150800000Y-113400000D02*
X152050000Y-114650000D01*
D18*
X146900000Y-114650000D02*
X145400000Y-114650000D01*
D19*
X143850000Y-113400000D02*
X123000000Y-113400000D01*
D18*
X143850000Y-109500000D02*
X143850000Y-113400000D01*
X155050000Y-113824998D02*
X155050000Y-114650000D01*
X154550000Y-114650000D02*
X154350000Y-114650000D01*
X188650000Y-113550000D02*
X188650000Y-114500000D01*
X154350000Y-114650000D02*
X154050000Y-114650000D01*
X166100000Y-114600000D02*
X164700000Y-114600000D01*
X145450000Y-109500000D02*
X151361413Y-109500000D01*
D19*
X143850000Y-113400000D02*
X150800000Y-113400000D01*
D18*
X126000000Y-114650000D02*
X124500000Y-114650000D01*
X155550000Y-113775000D02*
X155550000Y-114650000D01*
D19*
X152500000Y-114500000D02*
X152500000Y-113800000D01*
D18*
X188650000Y-109500000D02*
X188650000Y-113550000D01*
X165400000Y-109500000D02*
X166150000Y-109500000D01*
X151361413Y-109500000D02*
X155550000Y-113688587D01*
D19*
X152050000Y-114650000D02*
X153000000Y-114650000D01*
D18*
X156050000Y-114650000D02*
X156050000Y-113688587D01*
X124550000Y-109725000D02*
X124550000Y-109500000D01*
D19*
X153000000Y-114650000D02*
X154350000Y-114650000D01*
D20*
X134000000Y-102600000D02*
X134000000Y-102825000D01*
X132500000Y-104390000D02*
X132500000Y-105000000D01*
X132500000Y-105000000D02*
X129500000Y-105000000D01*
X134000000Y-105000000D02*
X134610000Y-105000000D01*
X131325000Y-103900000D02*
X130900000Y-103900000D01*
X132400000Y-102600000D02*
X132400000Y-102825000D01*
X138600000Y-105000000D02*
X137990000Y-105000000D01*
X138460000Y-102900000D02*
X138600000Y-103040000D01*
X135500000Y-102900000D02*
X138460000Y-102900000D01*
X132500000Y-104325000D02*
X132500000Y-104390000D01*
X134000000Y-102825000D02*
X132500000Y-104325000D01*
X134000000Y-104900000D02*
X133900000Y-105000000D01*
X137990000Y-105000000D02*
X134000000Y-105000000D01*
X132400000Y-102825000D02*
X131325000Y-103900000D01*
X138600000Y-103040000D02*
X138600000Y-103500000D01*
X129500000Y-105000000D02*
X128400000Y-103900000D01*
X177700000Y-104325000D02*
X177700000Y-104390000D01*
X183800000Y-105000000D02*
X183190000Y-105000000D01*
X177600000Y-102600000D02*
X177600000Y-102825000D01*
X179200000Y-105000000D02*
X179810000Y-105000000D01*
X176525000Y-103900000D02*
X176100000Y-103900000D01*
X183660000Y-102900000D02*
X183800000Y-103040000D01*
X177700000Y-104390000D02*
X177700000Y-105000000D01*
X179200000Y-104900000D02*
X179100000Y-105000000D01*
X183800000Y-103040000D02*
X183800000Y-103500000D01*
X183190000Y-105000000D02*
X179200000Y-105000000D01*
X174700000Y-105000000D02*
X173600000Y-103900000D01*
X179200000Y-102600000D02*
X179200000Y-102825000D01*
X180700000Y-102900000D02*
X183660000Y-102900000D01*
X177600000Y-102825000D02*
X176525000Y-103900000D01*
X177700000Y-105000000D02*
X174700000Y-105000000D01*
X179200000Y-102825000D02*
X177700000Y-104325000D01*
D19*
X157650000Y-115850000D02*
X157300000Y-115850000D01*
X157300000Y-115850000D02*
X151200002Y-115850000D01*
X167750000Y-113550000D02*
X188650000Y-113550000D01*
X157300000Y-114650000D02*
X157300000Y-115850000D01*
X151200002Y-115850000D02*
X150000002Y-114650000D01*
X162100000Y-114600000D02*
X161450000Y-114600000D01*
D18*
X167750000Y-109500000D02*
X167750000Y-113550000D01*
X188650000Y-114500000D02*
X188550000Y-114600000D01*
X167750000Y-113550000D02*
X167750000Y-114450000D01*
X187050000Y-109725000D02*
X187050000Y-109500000D01*
D19*
X148400000Y-114650000D02*
X150000002Y-114650000D01*
X168850000Y-114600000D02*
X184100000Y-114600000D01*
X141884315Y-114650000D02*
X127500000Y-114650000D01*
X142450000Y-114650000D02*
X141884315Y-114650000D01*
D18*
X157300000Y-114650000D02*
X157550000Y-114650000D01*
D19*
X162100000Y-114600000D02*
X163200000Y-114600000D01*
D18*
X168850000Y-112700000D02*
X184075000Y-112700000D01*
X184075000Y-112700000D02*
X187050000Y-109725000D01*
X157674998Y-112700000D02*
X159750000Y-112700000D01*
X159750000Y-112700000D02*
X166900000Y-112700000D01*
D19*
X160200000Y-115850000D02*
X157650000Y-115850000D01*
D18*
X157050000Y-114650000D02*
X157300000Y-114650000D01*
X156550000Y-113824998D02*
X157674998Y-112700000D01*
X156550000Y-114650000D02*
X156550000Y-113824998D01*
X122950000Y-114600000D02*
X123000000Y-114650000D01*
X143850000Y-114600000D02*
X143900000Y-114650000D01*
D19*
X161100000Y-113550000D02*
X167750000Y-113550000D01*
D18*
X167750000Y-114450000D02*
X167600000Y-114600000D01*
D19*
X161450000Y-94100000D02*
X160200000Y-95350000D01*
X157550000Y-94150000D02*
X157075010Y-94150000D01*
D18*
X187050000Y-94100000D02*
X185600000Y-94100000D01*
X155550000Y-93188587D02*
X155550000Y-93275000D01*
X122950000Y-89000000D02*
X122950000Y-91900000D01*
X160238587Y-89000000D02*
X165400000Y-89000000D01*
X122950000Y-92950000D02*
X122950000Y-94100000D01*
D19*
X123000000Y-92900000D02*
X122950000Y-92950000D01*
X152400000Y-94100000D02*
X152500000Y-94000000D01*
D18*
X126975000Y-91650000D02*
X124550000Y-89225000D01*
X122950000Y-91900000D02*
X122950000Y-92950000D01*
X156050000Y-93188587D02*
X160238587Y-89000000D01*
X153375002Y-91650000D02*
X144900000Y-91650000D01*
X142650000Y-91650000D02*
X126975000Y-91650000D01*
X143850000Y-92900000D02*
X143850000Y-94100000D01*
X155050000Y-93324998D02*
X153375002Y-91650000D01*
D19*
X150800000Y-92900000D02*
X152050000Y-94150000D01*
D18*
X146900000Y-94150000D02*
X145400000Y-94150000D01*
D19*
X143850000Y-92900000D02*
X123000000Y-92900000D01*
D18*
X143850000Y-89000000D02*
X143850000Y-92900000D01*
X155050000Y-93324998D02*
X155050000Y-94150000D01*
X154550000Y-94150000D02*
X154350000Y-94150000D01*
X188650000Y-93050000D02*
X188650000Y-94000000D01*
X154350000Y-94150000D02*
X154050000Y-94150000D01*
X166100000Y-94100000D02*
X164700000Y-94100000D01*
X145450000Y-89000000D02*
X151361413Y-89000000D01*
D19*
X143850000Y-92900000D02*
X150800000Y-92900000D01*
D18*
X126000000Y-94150000D02*
X124500000Y-94150000D01*
X155550000Y-93275000D02*
X155550000Y-94150000D01*
D19*
X152500000Y-94000000D02*
X152500000Y-93300000D01*
D18*
X188650000Y-89000000D02*
X188650000Y-93050000D01*
X165400000Y-89000000D02*
X166150000Y-89000000D01*
X151361413Y-89000000D02*
X155550000Y-93188587D01*
D19*
X152050000Y-94150000D02*
X153000000Y-94150000D01*
D18*
X156050000Y-94150000D02*
X156050000Y-93188587D01*
X124550000Y-89225000D02*
X124550000Y-89000000D01*
D19*
X153000000Y-94150000D02*
X154350000Y-94150000D01*
D20*
X134000000Y-82100000D02*
X134000000Y-82325000D01*
X132500000Y-83890000D02*
X132500000Y-84500000D01*
X132500000Y-84500000D02*
X129500000Y-84500000D01*
X134000000Y-84500000D02*
X134610000Y-84500000D01*
X131325000Y-83400000D02*
X130900000Y-83400000D01*
X132400000Y-82100000D02*
X132400000Y-82325000D01*
X138600000Y-84500000D02*
X137990000Y-84500000D01*
X138460000Y-82400000D02*
X138600000Y-82540000D01*
X135500000Y-82400000D02*
X138460000Y-82400000D01*
X132500000Y-83825000D02*
X132500000Y-83890000D01*
X134000000Y-82325000D02*
X132500000Y-83825000D01*
X134000000Y-84400000D02*
X133900000Y-84500000D01*
X137990000Y-84500000D02*
X134000000Y-84500000D01*
X132400000Y-82325000D02*
X131325000Y-83400000D01*
X138600000Y-82540000D02*
X138600000Y-83000000D01*
X129500000Y-84500000D02*
X128400000Y-83400000D01*
X177700000Y-83825000D02*
X177700000Y-83890000D01*
X183800000Y-84500000D02*
X183190000Y-84500000D01*
X177600000Y-82100000D02*
X177600000Y-82325000D01*
X179200000Y-84500000D02*
X179810000Y-84500000D01*
X176525000Y-83400000D02*
X176100000Y-83400000D01*
X183660000Y-82400000D02*
X183800000Y-82540000D01*
X177700000Y-83890000D02*
X177700000Y-84500000D01*
X179200000Y-84400000D02*
X179100000Y-84500000D01*
X183800000Y-82540000D02*
X183800000Y-83000000D01*
X183190000Y-84500000D02*
X179200000Y-84500000D01*
X174700000Y-84500000D02*
X173600000Y-83400000D01*
X179200000Y-82100000D02*
X179200000Y-82325000D01*
X180700000Y-82400000D02*
X183660000Y-82400000D01*
X177600000Y-82325000D02*
X176525000Y-83400000D01*
X177700000Y-84500000D02*
X174700000Y-84500000D01*
X179200000Y-82325000D02*
X177700000Y-83825000D01*
D19*
X157650000Y-95350000D02*
X157300000Y-95350000D01*
X157300000Y-95350000D02*
X151200002Y-95350000D01*
X167750000Y-93050000D02*
X188650000Y-93050000D01*
X157300000Y-94150000D02*
X157300000Y-95350000D01*
X151200002Y-95350000D02*
X150000002Y-94150000D01*
X162100000Y-94100000D02*
X161450000Y-94100000D01*
D18*
X167750000Y-89000000D02*
X167750000Y-93050000D01*
X188650000Y-94000000D02*
X188550000Y-94100000D01*
X167750000Y-93050000D02*
X167750000Y-93950000D01*
X187050000Y-89225000D02*
X187050000Y-89000000D01*
D19*
X148400000Y-94150000D02*
X150000002Y-94150000D01*
X168850000Y-94100000D02*
X184100000Y-94100000D01*
X141884315Y-94150000D02*
X127500000Y-94150000D01*
X142450000Y-94150000D02*
X141884315Y-94150000D01*
D18*
X157300000Y-94150000D02*
X157550000Y-94150000D01*
D19*
X162100000Y-94100000D02*
X163200000Y-94100000D01*
D18*
X168850000Y-92200000D02*
X184075000Y-92200000D01*
X184075000Y-92200000D02*
X187050000Y-89225000D01*
X157674998Y-92200000D02*
X159750000Y-92200000D01*
X159750000Y-92200000D02*
X166900000Y-92200000D01*
D19*
X160200000Y-95350000D02*
X157650000Y-95350000D01*
D18*
X157050000Y-94150000D02*
X157300000Y-94150000D01*
X156550000Y-93324998D02*
X157674998Y-92200000D01*
X156550000Y-94150000D02*
X156550000Y-93324998D01*
X122950000Y-94100000D02*
X123000000Y-94150000D01*
X143850000Y-94100000D02*
X143900000Y-94150000D01*
D19*
X161100000Y-93050000D02*
X167750000Y-93050000D01*
D18*
X167750000Y-93950000D02*
X167600000Y-94100000D01*
D19*
X161450000Y-73200000D02*
X160200000Y-74450000D01*
X157550000Y-73250000D02*
X157075010Y-73250000D01*
D18*
X187050000Y-73200000D02*
X185600000Y-73200000D01*
X155550000Y-72288587D02*
X155550000Y-72375000D01*
X122950000Y-68100000D02*
X122950000Y-71000000D01*
X160238587Y-68100000D02*
X165400000Y-68100000D01*
X122950000Y-72050000D02*
X122950000Y-73200000D01*
D19*
X123000000Y-72000000D02*
X122950000Y-72050000D01*
X152400000Y-73200000D02*
X152500000Y-73100000D01*
D18*
X126975000Y-70750000D02*
X124550000Y-68325000D01*
X122950000Y-71000000D02*
X122950000Y-72050000D01*
X156050000Y-72288587D02*
X160238587Y-68100000D01*
X153375002Y-70750000D02*
X144900000Y-70750000D01*
X142650000Y-70750000D02*
X126975000Y-70750000D01*
X143850000Y-72000000D02*
X143850000Y-73200000D01*
X155050000Y-72424998D02*
X153375002Y-70750000D01*
D19*
X150800000Y-72000000D02*
X152050000Y-73250000D01*
D18*
X146900000Y-73250000D02*
X145400000Y-73250000D01*
D19*
X143850000Y-72000000D02*
X123000000Y-72000000D01*
D18*
X143850000Y-68100000D02*
X143850000Y-72000000D01*
X155050000Y-72424998D02*
X155050000Y-73250000D01*
X154550000Y-73250000D02*
X154350000Y-73250000D01*
X188650000Y-72150000D02*
X188650000Y-73100000D01*
X154350000Y-73250000D02*
X154050000Y-73250000D01*
X166100000Y-73200000D02*
X164700000Y-73200000D01*
X145450000Y-68100000D02*
X151361413Y-68100000D01*
D19*
X143850000Y-72000000D02*
X150800000Y-72000000D01*
D18*
X126000000Y-73250000D02*
X124500000Y-73250000D01*
X155550000Y-72375000D02*
X155550000Y-73250000D01*
D19*
X152500000Y-73100000D02*
X152500000Y-72400000D01*
D18*
X188650000Y-68100000D02*
X188650000Y-72150000D01*
X165400000Y-68100000D02*
X166150000Y-68100000D01*
X151361413Y-68100000D02*
X155550000Y-72288587D01*
D19*
X152050000Y-73250000D02*
X153000000Y-73250000D01*
D18*
X156050000Y-73250000D02*
X156050000Y-72288587D01*
X124550000Y-68325000D02*
X124550000Y-68100000D01*
D19*
X153000000Y-73250000D02*
X154350000Y-73250000D01*
D20*
X134000000Y-61200000D02*
X134000000Y-61425000D01*
X132500000Y-62990000D02*
X132500000Y-63600000D01*
X132500000Y-63600000D02*
X129500000Y-63600000D01*
X134000000Y-63600000D02*
X134610000Y-63600000D01*
X131325000Y-62500000D02*
X130900000Y-62500000D01*
X132400000Y-61200000D02*
X132400000Y-61425000D01*
X138600000Y-63600000D02*
X137990000Y-63600000D01*
X138460000Y-61500000D02*
X138600000Y-61640000D01*
X135500000Y-61500000D02*
X138460000Y-61500000D01*
X132500000Y-62925000D02*
X132500000Y-62990000D01*
X134000000Y-61425000D02*
X132500000Y-62925000D01*
X134000000Y-63500000D02*
X133900000Y-63600000D01*
X137990000Y-63600000D02*
X134000000Y-63600000D01*
X132400000Y-61425000D02*
X131325000Y-62500000D01*
X138600000Y-61640000D02*
X138600000Y-62100000D01*
X129500000Y-63600000D02*
X128400000Y-62500000D01*
X177700000Y-62925000D02*
X177700000Y-62990000D01*
X183800000Y-63600000D02*
X183190000Y-63600000D01*
X177600000Y-61200000D02*
X177600000Y-61425000D01*
X179200000Y-63600000D02*
X179810000Y-63600000D01*
X176525000Y-62500000D02*
X176100000Y-62500000D01*
X183660000Y-61500000D02*
X183800000Y-61640000D01*
X177700000Y-62990000D02*
X177700000Y-63600000D01*
X179200000Y-63500000D02*
X179100000Y-63600000D01*
X183800000Y-61640000D02*
X183800000Y-62100000D01*
X183190000Y-63600000D02*
X179200000Y-63600000D01*
X174700000Y-63600000D02*
X173600000Y-62500000D01*
X179200000Y-61200000D02*
X179200000Y-61425000D01*
X180700000Y-61500000D02*
X183660000Y-61500000D01*
X177600000Y-61425000D02*
X176525000Y-62500000D01*
X177700000Y-63600000D02*
X174700000Y-63600000D01*
X179200000Y-61425000D02*
X177700000Y-62925000D01*
D19*
X157650000Y-74450000D02*
X157300000Y-74450000D01*
X157300000Y-74450000D02*
X151200002Y-74450000D01*
X167750000Y-72150000D02*
X188650000Y-72150000D01*
X157300000Y-73250000D02*
X157300000Y-74450000D01*
X151200002Y-74450000D02*
X150000002Y-73250000D01*
X162100000Y-73200000D02*
X161450000Y-73200000D01*
D18*
X167750000Y-68100000D02*
X167750000Y-72150000D01*
X188650000Y-73100000D02*
X188550000Y-73200000D01*
X167750000Y-72150000D02*
X167750000Y-73050000D01*
X187050000Y-68325000D02*
X187050000Y-68100000D01*
D19*
X148400000Y-73250000D02*
X150000002Y-73250000D01*
X168850000Y-73200000D02*
X184100000Y-73200000D01*
X141884315Y-73250000D02*
X127500000Y-73250000D01*
X142450000Y-73250000D02*
X141884315Y-73250000D01*
D18*
X157300000Y-73250000D02*
X157550000Y-73250000D01*
D19*
X162100000Y-73200000D02*
X163200000Y-73200000D01*
D18*
X168850000Y-71300000D02*
X184075000Y-71300000D01*
X184075000Y-71300000D02*
X187050000Y-68325000D01*
X157674998Y-71300000D02*
X159750000Y-71300000D01*
X159750000Y-71300000D02*
X166900000Y-71300000D01*
D19*
X160200000Y-74450000D02*
X157650000Y-74450000D01*
D18*
X157050000Y-73250000D02*
X157300000Y-73250000D01*
X156550000Y-72424998D02*
X157674998Y-71300000D01*
X156550000Y-73250000D02*
X156550000Y-72424998D01*
X122950000Y-73200000D02*
X123000000Y-73250000D01*
X143850000Y-73200000D02*
X143900000Y-73250000D01*
D19*
X161100000Y-72150000D02*
X167750000Y-72150000D01*
D18*
X167750000Y-73050000D02*
X167600000Y-73200000D01*
G04 #@! TD*
D21*
G36*
X190190001Y-136590000D02*
X169669920Y-136590000D01*
X169599999Y-136576092D01*
X169530078Y-136590000D01*
X169530074Y-136590000D01*
X169322972Y-136631195D01*
X169088119Y-136788119D01*
X169048508Y-136847401D01*
X165005910Y-140890000D01*
X146594091Y-140890000D01*
X143458978Y-137754887D01*
X146865000Y-137754887D01*
X146865000Y-138445113D01*
X147129138Y-139082799D01*
X147617201Y-139570862D01*
X148254887Y-139835000D01*
X148945113Y-139835000D01*
X149582799Y-139570862D01*
X150070862Y-139082799D01*
X150335000Y-138445113D01*
X150335000Y-137754887D01*
X150070862Y-137117201D01*
X149582799Y-136629138D01*
X148945113Y-136365000D01*
X148254887Y-136365000D01*
X147617201Y-136629138D01*
X147129138Y-137117201D01*
X146865000Y-137754887D01*
X143458978Y-137754887D01*
X142551494Y-136847404D01*
X142511881Y-136788119D01*
X142277028Y-136631195D01*
X142069926Y-136590000D01*
X142069924Y-136590000D01*
X142000000Y-136576091D01*
X141930076Y-136590000D01*
X121410000Y-136590000D01*
X121410000Y-134650000D01*
X123452560Y-134650000D01*
X123452560Y-135450000D01*
X123501843Y-135697765D01*
X123642191Y-135907809D01*
X123852235Y-136048157D01*
X124100000Y-136097440D01*
X124900000Y-136097440D01*
X125147765Y-136048157D01*
X125325000Y-135929731D01*
X125502235Y-136048157D01*
X125750000Y-136097440D01*
X126250000Y-136097440D01*
X126497765Y-136048157D01*
X126707809Y-135907809D01*
X126750000Y-135844666D01*
X126792191Y-135907809D01*
X127002235Y-136048157D01*
X127250000Y-136097440D01*
X127750000Y-136097440D01*
X127997765Y-136048157D01*
X128207809Y-135907809D01*
X128223050Y-135885000D01*
X141821289Y-135885000D01*
X141863720Y-135927431D01*
X142244126Y-136085000D01*
X142655874Y-136085000D01*
X143036280Y-135927431D01*
X143327431Y-135636280D01*
X143485000Y-135255874D01*
X143485000Y-134844126D01*
X143327431Y-134463720D01*
X143036280Y-134172569D01*
X142655874Y-134015000D01*
X142244126Y-134015000D01*
X141863720Y-134172569D01*
X141821289Y-134215000D01*
X128223050Y-134215000D01*
X128207809Y-134192191D01*
X127997765Y-134051843D01*
X127750000Y-134002560D01*
X127250000Y-134002560D01*
X127002235Y-134051843D01*
X126792191Y-134192191D01*
X126750000Y-134255334D01*
X126707809Y-134192191D01*
X126497765Y-134051843D01*
X126250000Y-134002560D01*
X125750000Y-134002560D01*
X125502235Y-134051843D01*
X125325000Y-134170269D01*
X125147765Y-134051843D01*
X124900000Y-134002560D01*
X124100000Y-134002560D01*
X123852235Y-134051843D01*
X123642191Y-134192191D01*
X123501843Y-134402235D01*
X123452560Y-134650000D01*
X121410000Y-134650000D01*
X121410000Y-129175000D01*
X123402560Y-129175000D01*
X123402560Y-130625000D01*
X123451843Y-130872765D01*
X123592191Y-131082809D01*
X123802235Y-131223157D01*
X124050000Y-131272440D01*
X124622639Y-131272440D01*
X126384670Y-133034472D01*
X126427071Y-133097929D01*
X126678463Y-133265904D01*
X126900148Y-133310000D01*
X126900153Y-133310000D01*
X126975000Y-133324888D01*
X127049847Y-133310000D01*
X141946289Y-133310000D01*
X142063720Y-133427431D01*
X142444126Y-133585000D01*
X142855874Y-133585000D01*
X143236280Y-133427431D01*
X143527431Y-133136280D01*
X143685000Y-132755874D01*
X143685000Y-132344126D01*
X143865000Y-132344126D01*
X143865000Y-132755874D01*
X144022569Y-133136280D01*
X144313720Y-133427431D01*
X144694126Y-133585000D01*
X145105874Y-133585000D01*
X145486280Y-133427431D01*
X145603711Y-133310000D01*
X153060201Y-133310000D01*
X154287560Y-134537360D01*
X154287560Y-135415000D01*
X151545871Y-135415000D01*
X151035002Y-134904132D01*
X151035002Y-134844126D01*
X150877433Y-134463720D01*
X150586282Y-134172569D01*
X150205876Y-134015000D01*
X149794128Y-134015000D01*
X149413722Y-134172569D01*
X149371291Y-134215000D01*
X149123050Y-134215000D01*
X149107809Y-134192191D01*
X148897765Y-134051843D01*
X148650000Y-134002560D01*
X148150000Y-134002560D01*
X147902235Y-134051843D01*
X147692191Y-134192191D01*
X147650000Y-134255334D01*
X147607809Y-134192191D01*
X147397765Y-134051843D01*
X147150000Y-134002560D01*
X146650000Y-134002560D01*
X146402235Y-134051843D01*
X146225000Y-134170269D01*
X146047765Y-134051843D01*
X145800000Y-134002560D01*
X145000000Y-134002560D01*
X144752235Y-134051843D01*
X144542191Y-134192191D01*
X144401843Y-134402235D01*
X144352560Y-134650000D01*
X144352560Y-135450000D01*
X144401843Y-135697765D01*
X144542191Y-135907809D01*
X144752235Y-136048157D01*
X145000000Y-136097440D01*
X145800000Y-136097440D01*
X146047765Y-136048157D01*
X146225000Y-135929731D01*
X146402235Y-136048157D01*
X146650000Y-136097440D01*
X147150000Y-136097440D01*
X147397765Y-136048157D01*
X147607809Y-135907809D01*
X147650000Y-135844666D01*
X147692191Y-135907809D01*
X147902235Y-136048157D01*
X148150000Y-136097440D01*
X148650000Y-136097440D01*
X148897765Y-136048157D01*
X149107809Y-135907809D01*
X149123050Y-135885000D01*
X149371291Y-135885000D01*
X149413722Y-135927431D01*
X149794128Y-136085000D01*
X149854134Y-136085000D01*
X150551418Y-136782285D01*
X150598001Y-136852001D01*
X150652560Y-136888456D01*
X150652560Y-138725000D01*
X150701843Y-138972765D01*
X150842191Y-139182809D01*
X151052235Y-139323157D01*
X151300000Y-139372440D01*
X153500000Y-139372440D01*
X153747765Y-139323157D01*
X153957809Y-139182809D01*
X154098157Y-138972765D01*
X154147440Y-138725000D01*
X154147440Y-137085000D01*
X157217763Y-137085000D01*
X157300000Y-137101358D01*
X157382237Y-137085000D01*
X157402560Y-137085000D01*
X157402560Y-138725000D01*
X157451843Y-138972765D01*
X157592191Y-139182809D01*
X157802235Y-139323157D01*
X158050000Y-139372440D01*
X160250000Y-139372440D01*
X160497765Y-139323157D01*
X160707809Y-139182809D01*
X160848157Y-138972765D01*
X160897440Y-138725000D01*
X160897440Y-137754887D01*
X161265000Y-137754887D01*
X161265000Y-138445113D01*
X161529138Y-139082799D01*
X162017201Y-139570862D01*
X162654887Y-139835000D01*
X163345113Y-139835000D01*
X163982799Y-139570862D01*
X164470862Y-139082799D01*
X164735000Y-138445113D01*
X164735000Y-137754887D01*
X164470862Y-137117201D01*
X163982799Y-136629138D01*
X163345113Y-136365000D01*
X162654887Y-136365000D01*
X162017201Y-136629138D01*
X161529138Y-137117201D01*
X161265000Y-137754887D01*
X160897440Y-137754887D01*
X160897440Y-136733427D01*
X161683225Y-135947642D01*
X161894126Y-136035000D01*
X162305874Y-136035000D01*
X162584593Y-135919551D01*
X162702235Y-135998157D01*
X162950000Y-136047440D01*
X163450000Y-136047440D01*
X163697765Y-135998157D01*
X163907809Y-135857809D01*
X163950000Y-135794666D01*
X163992191Y-135857809D01*
X164202235Y-135998157D01*
X164450000Y-136047440D01*
X164950000Y-136047440D01*
X165197765Y-135998157D01*
X165325000Y-135913141D01*
X165452235Y-135998157D01*
X165700000Y-136047440D01*
X166500000Y-136047440D01*
X166747765Y-135998157D01*
X166957809Y-135857809D01*
X167098157Y-135647765D01*
X167147440Y-135400000D01*
X167147440Y-134600000D01*
X167098157Y-134352235D01*
X166957809Y-134142191D01*
X166947047Y-134135000D01*
X167105874Y-134135000D01*
X167486280Y-133977431D01*
X167777431Y-133686280D01*
X167875000Y-133450727D01*
X167972569Y-133686280D01*
X168263720Y-133977431D01*
X168438917Y-134050000D01*
X168263720Y-134122569D01*
X167972569Y-134413720D01*
X167815000Y-134794126D01*
X167815000Y-135205874D01*
X167972569Y-135586280D01*
X168263720Y-135877431D01*
X168644126Y-136035000D01*
X169055874Y-136035000D01*
X169436280Y-135877431D01*
X169478711Y-135835000D01*
X183376950Y-135835000D01*
X183392191Y-135857809D01*
X183602235Y-135998157D01*
X183850000Y-136047440D01*
X184350000Y-136047440D01*
X184597765Y-135998157D01*
X184807809Y-135857809D01*
X184850000Y-135794666D01*
X184892191Y-135857809D01*
X185102235Y-135998157D01*
X185350000Y-136047440D01*
X185850000Y-136047440D01*
X186097765Y-135998157D01*
X186250000Y-135896436D01*
X186402235Y-135998157D01*
X186650000Y-136047440D01*
X187450000Y-136047440D01*
X187697765Y-135998157D01*
X187907809Y-135857809D01*
X188048157Y-135647765D01*
X188097440Y-135400000D01*
X188097440Y-134600000D01*
X188048157Y-134352235D01*
X187907809Y-134142191D01*
X187697765Y-134001843D01*
X187450000Y-133952560D01*
X186650000Y-133952560D01*
X186402235Y-134001843D01*
X186250000Y-134103564D01*
X186097765Y-134001843D01*
X185850000Y-133952560D01*
X185350000Y-133952560D01*
X185102235Y-134001843D01*
X184892191Y-134142191D01*
X184850000Y-134205334D01*
X184807809Y-134142191D01*
X184597765Y-134001843D01*
X184350000Y-133952560D01*
X183850000Y-133952560D01*
X183602235Y-134001843D01*
X183392191Y-134142191D01*
X183376950Y-134165000D01*
X169478711Y-134165000D01*
X169436280Y-134122569D01*
X169261083Y-134050000D01*
X169436280Y-133977431D01*
X169553711Y-133860000D01*
X184000153Y-133860000D01*
X184075000Y-133874888D01*
X184149847Y-133860000D01*
X184149852Y-133860000D01*
X184371537Y-133815904D01*
X184622929Y-133647929D01*
X184665331Y-133584470D01*
X186977363Y-131272440D01*
X187550000Y-131272440D01*
X187797765Y-131223157D01*
X188007809Y-131082809D01*
X188148157Y-130872765D01*
X188197440Y-130625000D01*
X188197440Y-129175000D01*
X188148157Y-128927235D01*
X188007809Y-128717191D01*
X187797765Y-128576843D01*
X187550000Y-128527560D01*
X186550000Y-128527560D01*
X186302235Y-128576843D01*
X186092191Y-128717191D01*
X185951843Y-128927235D01*
X185902560Y-129175000D01*
X185902560Y-130197637D01*
X183760199Y-132340000D01*
X169553711Y-132340000D01*
X169436280Y-132222569D01*
X169055874Y-132065000D01*
X168644126Y-132065000D01*
X168263720Y-132222569D01*
X167972569Y-132513720D01*
X167875000Y-132749273D01*
X167777431Y-132513720D01*
X167486280Y-132222569D01*
X167227000Y-132115172D01*
X167227000Y-130904428D01*
X167248157Y-130872765D01*
X167297440Y-130625000D01*
X167297440Y-129175000D01*
X167248157Y-128927235D01*
X167107809Y-128717191D01*
X166897765Y-128576843D01*
X166650000Y-128527560D01*
X165650000Y-128527560D01*
X165402235Y-128576843D01*
X165192191Y-128717191D01*
X165051843Y-128927235D01*
X165009522Y-129140000D01*
X160313435Y-129140000D01*
X160238587Y-129125112D01*
X160163739Y-129140000D01*
X160163735Y-129140000D01*
X159942050Y-129184096D01*
X159690658Y-129352071D01*
X159648258Y-129415527D01*
X158090785Y-130973000D01*
X153600000Y-130973000D01*
X153551399Y-130982667D01*
X153531906Y-130995692D01*
X151951744Y-129415530D01*
X151909342Y-129352071D01*
X151657950Y-129184096D01*
X151436265Y-129140000D01*
X151436260Y-129140000D01*
X151361413Y-129125112D01*
X151286566Y-129140000D01*
X146590478Y-129140000D01*
X146548157Y-128927235D01*
X146407809Y-128717191D01*
X146197765Y-128576843D01*
X145950000Y-128527560D01*
X144950000Y-128527560D01*
X144702235Y-128576843D01*
X144492191Y-128717191D01*
X144351843Y-128927235D01*
X144302560Y-129175000D01*
X144302560Y-130625000D01*
X144351843Y-130872765D01*
X144373000Y-130904428D01*
X144373000Y-131648014D01*
X144313720Y-131672569D01*
X144022569Y-131963720D01*
X143865000Y-132344126D01*
X143685000Y-132344126D01*
X143527431Y-131963720D01*
X143236280Y-131672569D01*
X142855874Y-131515000D01*
X142444126Y-131515000D01*
X142063720Y-131672569D01*
X141946289Y-131790000D01*
X127289802Y-131790000D01*
X125697440Y-130197639D01*
X125697440Y-129175000D01*
X125648157Y-128927235D01*
X125507809Y-128717191D01*
X125297765Y-128576843D01*
X125050000Y-128527560D01*
X124050000Y-128527560D01*
X123802235Y-128576843D01*
X123592191Y-128717191D01*
X123451843Y-128927235D01*
X123402560Y-129175000D01*
X121410000Y-129175000D01*
X121410000Y-128010000D01*
X190190000Y-128010000D01*
X190190001Y-136590000D01*
X190190001Y-136590000D01*
G37*
X190190001Y-136590000D02*
X169669920Y-136590000D01*
X169599999Y-136576092D01*
X169530078Y-136590000D01*
X169530074Y-136590000D01*
X169322972Y-136631195D01*
X169088119Y-136788119D01*
X169048508Y-136847401D01*
X165005910Y-140890000D01*
X146594091Y-140890000D01*
X143458978Y-137754887D01*
X146865000Y-137754887D01*
X146865000Y-138445113D01*
X147129138Y-139082799D01*
X147617201Y-139570862D01*
X148254887Y-139835000D01*
X148945113Y-139835000D01*
X149582799Y-139570862D01*
X150070862Y-139082799D01*
X150335000Y-138445113D01*
X150335000Y-137754887D01*
X150070862Y-137117201D01*
X149582799Y-136629138D01*
X148945113Y-136365000D01*
X148254887Y-136365000D01*
X147617201Y-136629138D01*
X147129138Y-137117201D01*
X146865000Y-137754887D01*
X143458978Y-137754887D01*
X142551494Y-136847404D01*
X142511881Y-136788119D01*
X142277028Y-136631195D01*
X142069926Y-136590000D01*
X142069924Y-136590000D01*
X142000000Y-136576091D01*
X141930076Y-136590000D01*
X121410000Y-136590000D01*
X121410000Y-134650000D01*
X123452560Y-134650000D01*
X123452560Y-135450000D01*
X123501843Y-135697765D01*
X123642191Y-135907809D01*
X123852235Y-136048157D01*
X124100000Y-136097440D01*
X124900000Y-136097440D01*
X125147765Y-136048157D01*
X125325000Y-135929731D01*
X125502235Y-136048157D01*
X125750000Y-136097440D01*
X126250000Y-136097440D01*
X126497765Y-136048157D01*
X126707809Y-135907809D01*
X126750000Y-135844666D01*
X126792191Y-135907809D01*
X127002235Y-136048157D01*
X127250000Y-136097440D01*
X127750000Y-136097440D01*
X127997765Y-136048157D01*
X128207809Y-135907809D01*
X128223050Y-135885000D01*
X141821289Y-135885000D01*
X141863720Y-135927431D01*
X142244126Y-136085000D01*
X142655874Y-136085000D01*
X143036280Y-135927431D01*
X143327431Y-135636280D01*
X143485000Y-135255874D01*
X143485000Y-134844126D01*
X143327431Y-134463720D01*
X143036280Y-134172569D01*
X142655874Y-134015000D01*
X142244126Y-134015000D01*
X141863720Y-134172569D01*
X141821289Y-134215000D01*
X128223050Y-134215000D01*
X128207809Y-134192191D01*
X127997765Y-134051843D01*
X127750000Y-134002560D01*
X127250000Y-134002560D01*
X127002235Y-134051843D01*
X126792191Y-134192191D01*
X126750000Y-134255334D01*
X126707809Y-134192191D01*
X126497765Y-134051843D01*
X126250000Y-134002560D01*
X125750000Y-134002560D01*
X125502235Y-134051843D01*
X125325000Y-134170269D01*
X125147765Y-134051843D01*
X124900000Y-134002560D01*
X124100000Y-134002560D01*
X123852235Y-134051843D01*
X123642191Y-134192191D01*
X123501843Y-134402235D01*
X123452560Y-134650000D01*
X121410000Y-134650000D01*
X121410000Y-129175000D01*
X123402560Y-129175000D01*
X123402560Y-130625000D01*
X123451843Y-130872765D01*
X123592191Y-131082809D01*
X123802235Y-131223157D01*
X124050000Y-131272440D01*
X124622639Y-131272440D01*
X126384670Y-133034472D01*
X126427071Y-133097929D01*
X126678463Y-133265904D01*
X126900148Y-133310000D01*
X126900153Y-133310000D01*
X126975000Y-133324888D01*
X127049847Y-133310000D01*
X141946289Y-133310000D01*
X142063720Y-133427431D01*
X142444126Y-133585000D01*
X142855874Y-133585000D01*
X143236280Y-133427431D01*
X143527431Y-133136280D01*
X143685000Y-132755874D01*
X143685000Y-132344126D01*
X143865000Y-132344126D01*
X143865000Y-132755874D01*
X144022569Y-133136280D01*
X144313720Y-133427431D01*
X144694126Y-133585000D01*
X145105874Y-133585000D01*
X145486280Y-133427431D01*
X145603711Y-133310000D01*
X153060201Y-133310000D01*
X154287560Y-134537360D01*
X154287560Y-135415000D01*
X151545871Y-135415000D01*
X151035002Y-134904132D01*
X151035002Y-134844126D01*
X150877433Y-134463720D01*
X150586282Y-134172569D01*
X150205876Y-134015000D01*
X149794128Y-134015000D01*
X149413722Y-134172569D01*
X149371291Y-134215000D01*
X149123050Y-134215000D01*
X149107809Y-134192191D01*
X148897765Y-134051843D01*
X148650000Y-134002560D01*
X148150000Y-134002560D01*
X147902235Y-134051843D01*
X147692191Y-134192191D01*
X147650000Y-134255334D01*
X147607809Y-134192191D01*
X147397765Y-134051843D01*
X147150000Y-134002560D01*
X146650000Y-134002560D01*
X146402235Y-134051843D01*
X146225000Y-134170269D01*
X146047765Y-134051843D01*
X145800000Y-134002560D01*
X145000000Y-134002560D01*
X144752235Y-134051843D01*
X144542191Y-134192191D01*
X144401843Y-134402235D01*
X144352560Y-134650000D01*
X144352560Y-135450000D01*
X144401843Y-135697765D01*
X144542191Y-135907809D01*
X144752235Y-136048157D01*
X145000000Y-136097440D01*
X145800000Y-136097440D01*
X146047765Y-136048157D01*
X146225000Y-135929731D01*
X146402235Y-136048157D01*
X146650000Y-136097440D01*
X147150000Y-136097440D01*
X147397765Y-136048157D01*
X147607809Y-135907809D01*
X147650000Y-135844666D01*
X147692191Y-135907809D01*
X147902235Y-136048157D01*
X148150000Y-136097440D01*
X148650000Y-136097440D01*
X148897765Y-136048157D01*
X149107809Y-135907809D01*
X149123050Y-135885000D01*
X149371291Y-135885000D01*
X149413722Y-135927431D01*
X149794128Y-136085000D01*
X149854134Y-136085000D01*
X150551418Y-136782285D01*
X150598001Y-136852001D01*
X150652560Y-136888456D01*
X150652560Y-138725000D01*
X150701843Y-138972765D01*
X150842191Y-139182809D01*
X151052235Y-139323157D01*
X151300000Y-139372440D01*
X153500000Y-139372440D01*
X153747765Y-139323157D01*
X153957809Y-139182809D01*
X154098157Y-138972765D01*
X154147440Y-138725000D01*
X154147440Y-137085000D01*
X157217763Y-137085000D01*
X157300000Y-137101358D01*
X157382237Y-137085000D01*
X157402560Y-137085000D01*
X157402560Y-138725000D01*
X157451843Y-138972765D01*
X157592191Y-139182809D01*
X157802235Y-139323157D01*
X158050000Y-139372440D01*
X160250000Y-139372440D01*
X160497765Y-139323157D01*
X160707809Y-139182809D01*
X160848157Y-138972765D01*
X160897440Y-138725000D01*
X160897440Y-137754887D01*
X161265000Y-137754887D01*
X161265000Y-138445113D01*
X161529138Y-139082799D01*
X162017201Y-139570862D01*
X162654887Y-139835000D01*
X163345113Y-139835000D01*
X163982799Y-139570862D01*
X164470862Y-139082799D01*
X164735000Y-138445113D01*
X164735000Y-137754887D01*
X164470862Y-137117201D01*
X163982799Y-136629138D01*
X163345113Y-136365000D01*
X162654887Y-136365000D01*
X162017201Y-136629138D01*
X161529138Y-137117201D01*
X161265000Y-137754887D01*
X160897440Y-137754887D01*
X160897440Y-136733427D01*
X161683225Y-135947642D01*
X161894126Y-136035000D01*
X162305874Y-136035000D01*
X162584593Y-135919551D01*
X162702235Y-135998157D01*
X162950000Y-136047440D01*
X163450000Y-136047440D01*
X163697765Y-135998157D01*
X163907809Y-135857809D01*
X163950000Y-135794666D01*
X163992191Y-135857809D01*
X164202235Y-135998157D01*
X164450000Y-136047440D01*
X164950000Y-136047440D01*
X165197765Y-135998157D01*
X165325000Y-135913141D01*
X165452235Y-135998157D01*
X165700000Y-136047440D01*
X166500000Y-136047440D01*
X166747765Y-135998157D01*
X166957809Y-135857809D01*
X167098157Y-135647765D01*
X167147440Y-135400000D01*
X167147440Y-134600000D01*
X167098157Y-134352235D01*
X166957809Y-134142191D01*
X166947047Y-134135000D01*
X167105874Y-134135000D01*
X167486280Y-133977431D01*
X167777431Y-133686280D01*
X167875000Y-133450727D01*
X167972569Y-133686280D01*
X168263720Y-133977431D01*
X168438917Y-134050000D01*
X168263720Y-134122569D01*
X167972569Y-134413720D01*
X167815000Y-134794126D01*
X167815000Y-135205874D01*
X167972569Y-135586280D01*
X168263720Y-135877431D01*
X168644126Y-136035000D01*
X169055874Y-136035000D01*
X169436280Y-135877431D01*
X169478711Y-135835000D01*
X183376950Y-135835000D01*
X183392191Y-135857809D01*
X183602235Y-135998157D01*
X183850000Y-136047440D01*
X184350000Y-136047440D01*
X184597765Y-135998157D01*
X184807809Y-135857809D01*
X184850000Y-135794666D01*
X184892191Y-135857809D01*
X185102235Y-135998157D01*
X185350000Y-136047440D01*
X185850000Y-136047440D01*
X186097765Y-135998157D01*
X186250000Y-135896436D01*
X186402235Y-135998157D01*
X186650000Y-136047440D01*
X187450000Y-136047440D01*
X187697765Y-135998157D01*
X187907809Y-135857809D01*
X188048157Y-135647765D01*
X188097440Y-135400000D01*
X188097440Y-134600000D01*
X188048157Y-134352235D01*
X187907809Y-134142191D01*
X187697765Y-134001843D01*
X187450000Y-133952560D01*
X186650000Y-133952560D01*
X186402235Y-134001843D01*
X186250000Y-134103564D01*
X186097765Y-134001843D01*
X185850000Y-133952560D01*
X185350000Y-133952560D01*
X185102235Y-134001843D01*
X184892191Y-134142191D01*
X184850000Y-134205334D01*
X184807809Y-134142191D01*
X184597765Y-134001843D01*
X184350000Y-133952560D01*
X183850000Y-133952560D01*
X183602235Y-134001843D01*
X183392191Y-134142191D01*
X183376950Y-134165000D01*
X169478711Y-134165000D01*
X169436280Y-134122569D01*
X169261083Y-134050000D01*
X169436280Y-133977431D01*
X169553711Y-133860000D01*
X184000153Y-133860000D01*
X184075000Y-133874888D01*
X184149847Y-133860000D01*
X184149852Y-133860000D01*
X184371537Y-133815904D01*
X184622929Y-133647929D01*
X184665331Y-133584470D01*
X186977363Y-131272440D01*
X187550000Y-131272440D01*
X187797765Y-131223157D01*
X188007809Y-131082809D01*
X188148157Y-130872765D01*
X188197440Y-130625000D01*
X188197440Y-129175000D01*
X188148157Y-128927235D01*
X188007809Y-128717191D01*
X187797765Y-128576843D01*
X187550000Y-128527560D01*
X186550000Y-128527560D01*
X186302235Y-128576843D01*
X186092191Y-128717191D01*
X185951843Y-128927235D01*
X185902560Y-129175000D01*
X185902560Y-130197637D01*
X183760199Y-132340000D01*
X169553711Y-132340000D01*
X169436280Y-132222569D01*
X169055874Y-132065000D01*
X168644126Y-132065000D01*
X168263720Y-132222569D01*
X167972569Y-132513720D01*
X167875000Y-132749273D01*
X167777431Y-132513720D01*
X167486280Y-132222569D01*
X167227000Y-132115172D01*
X167227000Y-130904428D01*
X167248157Y-130872765D01*
X167297440Y-130625000D01*
X167297440Y-129175000D01*
X167248157Y-128927235D01*
X167107809Y-128717191D01*
X166897765Y-128576843D01*
X166650000Y-128527560D01*
X165650000Y-128527560D01*
X165402235Y-128576843D01*
X165192191Y-128717191D01*
X165051843Y-128927235D01*
X165009522Y-129140000D01*
X160313435Y-129140000D01*
X160238587Y-129125112D01*
X160163739Y-129140000D01*
X160163735Y-129140000D01*
X159942050Y-129184096D01*
X159690658Y-129352071D01*
X159648258Y-129415527D01*
X158090785Y-130973000D01*
X153600000Y-130973000D01*
X153551399Y-130982667D01*
X153531906Y-130995692D01*
X151951744Y-129415530D01*
X151909342Y-129352071D01*
X151657950Y-129184096D01*
X151436265Y-129140000D01*
X151436260Y-129140000D01*
X151361413Y-129125112D01*
X151286566Y-129140000D01*
X146590478Y-129140000D01*
X146548157Y-128927235D01*
X146407809Y-128717191D01*
X146197765Y-128576843D01*
X145950000Y-128527560D01*
X144950000Y-128527560D01*
X144702235Y-128576843D01*
X144492191Y-128717191D01*
X144351843Y-128927235D01*
X144302560Y-129175000D01*
X144302560Y-130625000D01*
X144351843Y-130872765D01*
X144373000Y-130904428D01*
X144373000Y-131648014D01*
X144313720Y-131672569D01*
X144022569Y-131963720D01*
X143865000Y-132344126D01*
X143685000Y-132344126D01*
X143527431Y-131963720D01*
X143236280Y-131672569D01*
X142855874Y-131515000D01*
X142444126Y-131515000D01*
X142063720Y-131672569D01*
X141946289Y-131790000D01*
X127289802Y-131790000D01*
X125697440Y-130197639D01*
X125697440Y-129175000D01*
X125648157Y-128927235D01*
X125507809Y-128717191D01*
X125297765Y-128576843D01*
X125050000Y-128527560D01*
X124050000Y-128527560D01*
X123802235Y-128576843D01*
X123592191Y-128717191D01*
X123451843Y-128927235D01*
X123402560Y-129175000D01*
X121410000Y-129175000D01*
X121410000Y-128010000D01*
X190190000Y-128010000D01*
X190190001Y-136590000D01*
G36*
X166288849Y-133952560D02*
X165700000Y-133952560D01*
X165452235Y-134001843D01*
X165325000Y-134086859D01*
X165197765Y-134001843D01*
X164950000Y-133952560D01*
X164450000Y-133952560D01*
X164202235Y-134001843D01*
X163992191Y-134142191D01*
X163950000Y-134205334D01*
X163907809Y-134142191D01*
X163697765Y-134001843D01*
X163450000Y-133952560D01*
X162950000Y-133952560D01*
X162702235Y-134001843D01*
X162584593Y-134080449D01*
X162305874Y-133965000D01*
X161894126Y-133965000D01*
X161513720Y-134122569D01*
X161481401Y-134154888D01*
X161450000Y-134148642D01*
X161367763Y-134165000D01*
X161127000Y-134212891D01*
X161127000Y-133860000D01*
X166196289Y-133860000D01*
X166288849Y-133952560D01*
X166288849Y-133952560D01*
G37*
X166288849Y-133952560D02*
X165700000Y-133952560D01*
X165452235Y-134001843D01*
X165325000Y-134086859D01*
X165197765Y-134001843D01*
X164950000Y-133952560D01*
X164450000Y-133952560D01*
X164202235Y-134001843D01*
X163992191Y-134142191D01*
X163950000Y-134205334D01*
X163907809Y-134142191D01*
X163697765Y-134001843D01*
X163450000Y-133952560D01*
X162950000Y-133952560D01*
X162702235Y-134001843D01*
X162584593Y-134080449D01*
X162305874Y-133965000D01*
X161894126Y-133965000D01*
X161513720Y-134122569D01*
X161481401Y-134154888D01*
X161450000Y-134148642D01*
X161367763Y-134165000D01*
X161127000Y-134212891D01*
X161127000Y-133860000D01*
X166196289Y-133860000D01*
X166288849Y-133952560D01*
G36*
X129873000Y-124074812D02*
X129865000Y-124094126D01*
X129865000Y-124505874D01*
X130022569Y-124886280D01*
X130313720Y-125177431D01*
X130655039Y-125318810D01*
X130660965Y-125348601D01*
X130671922Y-125365000D01*
X124727000Y-125365000D01*
X124727000Y-124414427D01*
X124735000Y-124395113D01*
X124735000Y-124150547D01*
X124755000Y-124050000D01*
X124735000Y-123949453D01*
X124735000Y-123704887D01*
X124727000Y-123685573D01*
X124727000Y-122735000D01*
X129873000Y-122735000D01*
X129873000Y-124074812D01*
X129873000Y-124074812D01*
G37*
X129873000Y-124074812D02*
X129865000Y-124094126D01*
X129865000Y-124505874D01*
X130022569Y-124886280D01*
X130313720Y-125177431D01*
X130655039Y-125318810D01*
X130660965Y-125348601D01*
X130671922Y-125365000D01*
X124727000Y-125365000D01*
X124727000Y-124414427D01*
X124735000Y-124395113D01*
X124735000Y-124150547D01*
X124755000Y-124050000D01*
X124735000Y-123949453D01*
X124735000Y-123704887D01*
X124727000Y-123685573D01*
X124727000Y-122735000D01*
X129873000Y-122735000D01*
X129873000Y-124074812D01*
G36*
X134127000Y-122873000D02*
X134147000Y-122873000D01*
X134147000Y-123127000D01*
X134127000Y-123127000D01*
X134127000Y-123147000D01*
X133873000Y-123147000D01*
X133873000Y-123127000D01*
X133853000Y-123127000D01*
X133853000Y-122873000D01*
X133873000Y-122873000D01*
X133873000Y-122853000D01*
X134127000Y-122853000D01*
X134127000Y-122873000D01*
X134127000Y-122873000D01*
G37*
X134127000Y-122873000D02*
X134147000Y-122873000D01*
X134147000Y-123127000D01*
X134127000Y-123127000D01*
X134127000Y-123147000D01*
X133873000Y-123147000D01*
X133873000Y-123127000D01*
X133853000Y-123127000D01*
X133853000Y-122873000D01*
X133873000Y-122873000D01*
X133873000Y-122853000D01*
X134127000Y-122853000D01*
X134127000Y-122873000D01*
G36*
X175073000Y-124074812D02*
X175065000Y-124094126D01*
X175065000Y-124505874D01*
X175222569Y-124886280D01*
X175513720Y-125177431D01*
X175855039Y-125318810D01*
X175860965Y-125348601D01*
X175871922Y-125365000D01*
X169927000Y-125365000D01*
X169927000Y-124414427D01*
X169935000Y-124395113D01*
X169935000Y-124150547D01*
X169955000Y-124050000D01*
X169935000Y-123949453D01*
X169935000Y-123704887D01*
X169927000Y-123685573D01*
X169927000Y-122735000D01*
X175073000Y-122735000D01*
X175073000Y-124074812D01*
X175073000Y-124074812D01*
G37*
X175073000Y-124074812D02*
X175065000Y-124094126D01*
X175065000Y-124505874D01*
X175222569Y-124886280D01*
X175513720Y-125177431D01*
X175855039Y-125318810D01*
X175860965Y-125348601D01*
X175871922Y-125365000D01*
X169927000Y-125365000D01*
X169927000Y-124414427D01*
X169935000Y-124395113D01*
X169935000Y-124150547D01*
X169955000Y-124050000D01*
X169935000Y-123949453D01*
X169935000Y-123704887D01*
X169927000Y-123685573D01*
X169927000Y-122735000D01*
X175073000Y-122735000D01*
X175073000Y-124074812D01*
G36*
X179327000Y-122873000D02*
X179347000Y-122873000D01*
X179347000Y-123127000D01*
X179327000Y-123127000D01*
X179327000Y-123147000D01*
X179073000Y-123147000D01*
X179073000Y-123127000D01*
X179053000Y-123127000D01*
X179053000Y-122873000D01*
X179073000Y-122873000D01*
X179073000Y-122853000D01*
X179327000Y-122853000D01*
X179327000Y-122873000D01*
X179327000Y-122873000D01*
G37*
X179327000Y-122873000D02*
X179347000Y-122873000D01*
X179347000Y-123127000D01*
X179327000Y-123127000D01*
X179327000Y-123147000D01*
X179073000Y-123147000D01*
X179073000Y-123127000D01*
X179053000Y-123127000D01*
X179053000Y-122873000D01*
X179073000Y-122873000D01*
X179073000Y-122853000D01*
X179327000Y-122853000D01*
X179327000Y-122873000D01*
G36*
X175073000Y-103674812D02*
X175065000Y-103694126D01*
X175065000Y-104105874D01*
X175222569Y-104486280D01*
X175513720Y-104777431D01*
X175855039Y-104918810D01*
X175860965Y-104948601D01*
X175871922Y-104965000D01*
X169927000Y-104965000D01*
X169927000Y-104014427D01*
X169935000Y-103995113D01*
X169935000Y-103750547D01*
X169955000Y-103650000D01*
X169935000Y-103549453D01*
X169935000Y-103304887D01*
X169927000Y-103285573D01*
X169927000Y-102335000D01*
X175073000Y-102335000D01*
X175073000Y-103674812D01*
X175073000Y-103674812D01*
G37*
X175073000Y-103674812D02*
X175065000Y-103694126D01*
X175065000Y-104105874D01*
X175222569Y-104486280D01*
X175513720Y-104777431D01*
X175855039Y-104918810D01*
X175860965Y-104948601D01*
X175871922Y-104965000D01*
X169927000Y-104965000D01*
X169927000Y-104014427D01*
X169935000Y-103995113D01*
X169935000Y-103750547D01*
X169955000Y-103650000D01*
X169935000Y-103549453D01*
X169935000Y-103304887D01*
X169927000Y-103285573D01*
X169927000Y-102335000D01*
X175073000Y-102335000D01*
X175073000Y-103674812D01*
G36*
X179327000Y-102473000D02*
X179347000Y-102473000D01*
X179347000Y-102727000D01*
X179327000Y-102727000D01*
X179327000Y-102747000D01*
X179073000Y-102747000D01*
X179073000Y-102727000D01*
X179053000Y-102727000D01*
X179053000Y-102473000D01*
X179073000Y-102473000D01*
X179073000Y-102453000D01*
X179327000Y-102453000D01*
X179327000Y-102473000D01*
X179327000Y-102473000D01*
G37*
X179327000Y-102473000D02*
X179347000Y-102473000D01*
X179347000Y-102727000D01*
X179327000Y-102727000D01*
X179327000Y-102747000D01*
X179073000Y-102747000D01*
X179073000Y-102727000D01*
X179053000Y-102727000D01*
X179053000Y-102473000D01*
X179073000Y-102473000D01*
X179073000Y-102453000D01*
X179327000Y-102453000D01*
X179327000Y-102473000D01*
G36*
X129873000Y-103674812D02*
X129865000Y-103694126D01*
X129865000Y-104105874D01*
X130022569Y-104486280D01*
X130313720Y-104777431D01*
X130655039Y-104918810D01*
X130660965Y-104948601D01*
X130671922Y-104965000D01*
X124727000Y-104965000D01*
X124727000Y-104014427D01*
X124735000Y-103995113D01*
X124735000Y-103750547D01*
X124755000Y-103650000D01*
X124735000Y-103549453D01*
X124735000Y-103304887D01*
X124727000Y-103285573D01*
X124727000Y-102335000D01*
X129873000Y-102335000D01*
X129873000Y-103674812D01*
X129873000Y-103674812D01*
G37*
X129873000Y-103674812D02*
X129865000Y-103694126D01*
X129865000Y-104105874D01*
X130022569Y-104486280D01*
X130313720Y-104777431D01*
X130655039Y-104918810D01*
X130660965Y-104948601D01*
X130671922Y-104965000D01*
X124727000Y-104965000D01*
X124727000Y-104014427D01*
X124735000Y-103995113D01*
X124735000Y-103750547D01*
X124755000Y-103650000D01*
X124735000Y-103549453D01*
X124735000Y-103304887D01*
X124727000Y-103285573D01*
X124727000Y-102335000D01*
X129873000Y-102335000D01*
X129873000Y-103674812D01*
G36*
X134127000Y-102473000D02*
X134147000Y-102473000D01*
X134147000Y-102727000D01*
X134127000Y-102727000D01*
X134127000Y-102747000D01*
X133873000Y-102747000D01*
X133873000Y-102727000D01*
X133853000Y-102727000D01*
X133853000Y-102473000D01*
X133873000Y-102473000D01*
X133873000Y-102453000D01*
X134127000Y-102453000D01*
X134127000Y-102473000D01*
X134127000Y-102473000D01*
G37*
X134127000Y-102473000D02*
X134147000Y-102473000D01*
X134147000Y-102727000D01*
X134127000Y-102727000D01*
X134127000Y-102747000D01*
X133873000Y-102747000D01*
X133873000Y-102727000D01*
X133853000Y-102727000D01*
X133853000Y-102473000D01*
X133873000Y-102473000D01*
X133873000Y-102453000D01*
X134127000Y-102453000D01*
X134127000Y-102473000D01*
G36*
X190190001Y-116190000D02*
X169669920Y-116190000D01*
X169599999Y-116176092D01*
X169530078Y-116190000D01*
X169530074Y-116190000D01*
X169322972Y-116231195D01*
X169088119Y-116388119D01*
X169048508Y-116447401D01*
X165005910Y-120490000D01*
X146594091Y-120490000D01*
X143458978Y-117354887D01*
X146865000Y-117354887D01*
X146865000Y-118045113D01*
X147129138Y-118682799D01*
X147617201Y-119170862D01*
X148254887Y-119435000D01*
X148945113Y-119435000D01*
X149582799Y-119170862D01*
X150070862Y-118682799D01*
X150335000Y-118045113D01*
X150335000Y-117354887D01*
X150070862Y-116717201D01*
X149582799Y-116229138D01*
X148945113Y-115965000D01*
X148254887Y-115965000D01*
X147617201Y-116229138D01*
X147129138Y-116717201D01*
X146865000Y-117354887D01*
X143458978Y-117354887D01*
X142551494Y-116447404D01*
X142511881Y-116388119D01*
X142277028Y-116231195D01*
X142069926Y-116190000D01*
X142069924Y-116190000D01*
X142000000Y-116176091D01*
X141930076Y-116190000D01*
X121410000Y-116190000D01*
X121410000Y-114250000D01*
X123452560Y-114250000D01*
X123452560Y-115050000D01*
X123501843Y-115297765D01*
X123642191Y-115507809D01*
X123852235Y-115648157D01*
X124100000Y-115697440D01*
X124900000Y-115697440D01*
X125147765Y-115648157D01*
X125325000Y-115529731D01*
X125502235Y-115648157D01*
X125750000Y-115697440D01*
X126250000Y-115697440D01*
X126497765Y-115648157D01*
X126707809Y-115507809D01*
X126750000Y-115444666D01*
X126792191Y-115507809D01*
X127002235Y-115648157D01*
X127250000Y-115697440D01*
X127750000Y-115697440D01*
X127997765Y-115648157D01*
X128207809Y-115507809D01*
X128223050Y-115485000D01*
X141821289Y-115485000D01*
X141863720Y-115527431D01*
X142244126Y-115685000D01*
X142655874Y-115685000D01*
X143036280Y-115527431D01*
X143327431Y-115236280D01*
X143485000Y-114855874D01*
X143485000Y-114444126D01*
X143327431Y-114063720D01*
X143036280Y-113772569D01*
X142655874Y-113615000D01*
X142244126Y-113615000D01*
X141863720Y-113772569D01*
X141821289Y-113815000D01*
X128223050Y-113815000D01*
X128207809Y-113792191D01*
X127997765Y-113651843D01*
X127750000Y-113602560D01*
X127250000Y-113602560D01*
X127002235Y-113651843D01*
X126792191Y-113792191D01*
X126750000Y-113855334D01*
X126707809Y-113792191D01*
X126497765Y-113651843D01*
X126250000Y-113602560D01*
X125750000Y-113602560D01*
X125502235Y-113651843D01*
X125325000Y-113770269D01*
X125147765Y-113651843D01*
X124900000Y-113602560D01*
X124100000Y-113602560D01*
X123852235Y-113651843D01*
X123642191Y-113792191D01*
X123501843Y-114002235D01*
X123452560Y-114250000D01*
X121410000Y-114250000D01*
X121410000Y-108775000D01*
X123402560Y-108775000D01*
X123402560Y-110225000D01*
X123451843Y-110472765D01*
X123592191Y-110682809D01*
X123802235Y-110823157D01*
X124050000Y-110872440D01*
X124622639Y-110872440D01*
X126384670Y-112634472D01*
X126427071Y-112697929D01*
X126678463Y-112865904D01*
X126900148Y-112910000D01*
X126900153Y-112910000D01*
X126975000Y-112924888D01*
X127049847Y-112910000D01*
X141946289Y-112910000D01*
X142063720Y-113027431D01*
X142444126Y-113185000D01*
X142855874Y-113185000D01*
X143236280Y-113027431D01*
X143527431Y-112736280D01*
X143685000Y-112355874D01*
X143685000Y-111944126D01*
X143865000Y-111944126D01*
X143865000Y-112355874D01*
X144022569Y-112736280D01*
X144313720Y-113027431D01*
X144694126Y-113185000D01*
X145105874Y-113185000D01*
X145486280Y-113027431D01*
X145603711Y-112910000D01*
X153060201Y-112910000D01*
X154287560Y-114137360D01*
X154287560Y-115015000D01*
X151545871Y-115015000D01*
X151035002Y-114504132D01*
X151035002Y-114444126D01*
X150877433Y-114063720D01*
X150586282Y-113772569D01*
X150205876Y-113615000D01*
X149794128Y-113615000D01*
X149413722Y-113772569D01*
X149371291Y-113815000D01*
X149123050Y-113815000D01*
X149107809Y-113792191D01*
X148897765Y-113651843D01*
X148650000Y-113602560D01*
X148150000Y-113602560D01*
X147902235Y-113651843D01*
X147692191Y-113792191D01*
X147650000Y-113855334D01*
X147607809Y-113792191D01*
X147397765Y-113651843D01*
X147150000Y-113602560D01*
X146650000Y-113602560D01*
X146402235Y-113651843D01*
X146225000Y-113770269D01*
X146047765Y-113651843D01*
X145800000Y-113602560D01*
X145000000Y-113602560D01*
X144752235Y-113651843D01*
X144542191Y-113792191D01*
X144401843Y-114002235D01*
X144352560Y-114250000D01*
X144352560Y-115050000D01*
X144401843Y-115297765D01*
X144542191Y-115507809D01*
X144752235Y-115648157D01*
X145000000Y-115697440D01*
X145800000Y-115697440D01*
X146047765Y-115648157D01*
X146225000Y-115529731D01*
X146402235Y-115648157D01*
X146650000Y-115697440D01*
X147150000Y-115697440D01*
X147397765Y-115648157D01*
X147607809Y-115507809D01*
X147650000Y-115444666D01*
X147692191Y-115507809D01*
X147902235Y-115648157D01*
X148150000Y-115697440D01*
X148650000Y-115697440D01*
X148897765Y-115648157D01*
X149107809Y-115507809D01*
X149123050Y-115485000D01*
X149371291Y-115485000D01*
X149413722Y-115527431D01*
X149794128Y-115685000D01*
X149854134Y-115685000D01*
X150551418Y-116382285D01*
X150598001Y-116452001D01*
X150652560Y-116488456D01*
X150652560Y-118325000D01*
X150701843Y-118572765D01*
X150842191Y-118782809D01*
X151052235Y-118923157D01*
X151300000Y-118972440D01*
X153500000Y-118972440D01*
X153747765Y-118923157D01*
X153957809Y-118782809D01*
X154098157Y-118572765D01*
X154147440Y-118325000D01*
X154147440Y-116685000D01*
X157217763Y-116685000D01*
X157300000Y-116701358D01*
X157382237Y-116685000D01*
X157402560Y-116685000D01*
X157402560Y-118325000D01*
X157451843Y-118572765D01*
X157592191Y-118782809D01*
X157802235Y-118923157D01*
X158050000Y-118972440D01*
X160250000Y-118972440D01*
X160497765Y-118923157D01*
X160707809Y-118782809D01*
X160848157Y-118572765D01*
X160897440Y-118325000D01*
X160897440Y-117354887D01*
X161265000Y-117354887D01*
X161265000Y-118045113D01*
X161529138Y-118682799D01*
X162017201Y-119170862D01*
X162654887Y-119435000D01*
X163345113Y-119435000D01*
X163982799Y-119170862D01*
X164470862Y-118682799D01*
X164735000Y-118045113D01*
X164735000Y-117354887D01*
X164470862Y-116717201D01*
X163982799Y-116229138D01*
X163345113Y-115965000D01*
X162654887Y-115965000D01*
X162017201Y-116229138D01*
X161529138Y-116717201D01*
X161265000Y-117354887D01*
X160897440Y-117354887D01*
X160897440Y-116333427D01*
X161683225Y-115547642D01*
X161894126Y-115635000D01*
X162305874Y-115635000D01*
X162584593Y-115519551D01*
X162702235Y-115598157D01*
X162950000Y-115647440D01*
X163450000Y-115647440D01*
X163697765Y-115598157D01*
X163907809Y-115457809D01*
X163950000Y-115394666D01*
X163992191Y-115457809D01*
X164202235Y-115598157D01*
X164450000Y-115647440D01*
X164950000Y-115647440D01*
X165197765Y-115598157D01*
X165325000Y-115513141D01*
X165452235Y-115598157D01*
X165700000Y-115647440D01*
X166500000Y-115647440D01*
X166747765Y-115598157D01*
X166957809Y-115457809D01*
X167098157Y-115247765D01*
X167147440Y-115000000D01*
X167147440Y-114200000D01*
X167098157Y-113952235D01*
X166957809Y-113742191D01*
X166947047Y-113735000D01*
X167105874Y-113735000D01*
X167486280Y-113577431D01*
X167777431Y-113286280D01*
X167875000Y-113050727D01*
X167972569Y-113286280D01*
X168263720Y-113577431D01*
X168438917Y-113650000D01*
X168263720Y-113722569D01*
X167972569Y-114013720D01*
X167815000Y-114394126D01*
X167815000Y-114805874D01*
X167972569Y-115186280D01*
X168263720Y-115477431D01*
X168644126Y-115635000D01*
X169055874Y-115635000D01*
X169436280Y-115477431D01*
X169478711Y-115435000D01*
X183376950Y-115435000D01*
X183392191Y-115457809D01*
X183602235Y-115598157D01*
X183850000Y-115647440D01*
X184350000Y-115647440D01*
X184597765Y-115598157D01*
X184807809Y-115457809D01*
X184850000Y-115394666D01*
X184892191Y-115457809D01*
X185102235Y-115598157D01*
X185350000Y-115647440D01*
X185850000Y-115647440D01*
X186097765Y-115598157D01*
X186250000Y-115496436D01*
X186402235Y-115598157D01*
X186650000Y-115647440D01*
X187450000Y-115647440D01*
X187697765Y-115598157D01*
X187907809Y-115457809D01*
X188048157Y-115247765D01*
X188097440Y-115000000D01*
X188097440Y-114200000D01*
X188048157Y-113952235D01*
X187907809Y-113742191D01*
X187697765Y-113601843D01*
X187450000Y-113552560D01*
X186650000Y-113552560D01*
X186402235Y-113601843D01*
X186250000Y-113703564D01*
X186097765Y-113601843D01*
X185850000Y-113552560D01*
X185350000Y-113552560D01*
X185102235Y-113601843D01*
X184892191Y-113742191D01*
X184850000Y-113805334D01*
X184807809Y-113742191D01*
X184597765Y-113601843D01*
X184350000Y-113552560D01*
X183850000Y-113552560D01*
X183602235Y-113601843D01*
X183392191Y-113742191D01*
X183376950Y-113765000D01*
X169478711Y-113765000D01*
X169436280Y-113722569D01*
X169261083Y-113650000D01*
X169436280Y-113577431D01*
X169553711Y-113460000D01*
X184000153Y-113460000D01*
X184075000Y-113474888D01*
X184149847Y-113460000D01*
X184149852Y-113460000D01*
X184371537Y-113415904D01*
X184622929Y-113247929D01*
X184665331Y-113184470D01*
X186977363Y-110872440D01*
X187550000Y-110872440D01*
X187797765Y-110823157D01*
X188007809Y-110682809D01*
X188148157Y-110472765D01*
X188197440Y-110225000D01*
X188197440Y-108775000D01*
X188148157Y-108527235D01*
X188007809Y-108317191D01*
X187797765Y-108176843D01*
X187550000Y-108127560D01*
X186550000Y-108127560D01*
X186302235Y-108176843D01*
X186092191Y-108317191D01*
X185951843Y-108527235D01*
X185902560Y-108775000D01*
X185902560Y-109797637D01*
X183760199Y-111940000D01*
X169553711Y-111940000D01*
X169436280Y-111822569D01*
X169055874Y-111665000D01*
X168644126Y-111665000D01*
X168263720Y-111822569D01*
X167972569Y-112113720D01*
X167875000Y-112349273D01*
X167777431Y-112113720D01*
X167486280Y-111822569D01*
X167227000Y-111715172D01*
X167227000Y-110504428D01*
X167248157Y-110472765D01*
X167297440Y-110225000D01*
X167297440Y-108775000D01*
X167248157Y-108527235D01*
X167107809Y-108317191D01*
X166897765Y-108176843D01*
X166650000Y-108127560D01*
X165650000Y-108127560D01*
X165402235Y-108176843D01*
X165192191Y-108317191D01*
X165051843Y-108527235D01*
X165009522Y-108740000D01*
X160313435Y-108740000D01*
X160238587Y-108725112D01*
X160163739Y-108740000D01*
X160163735Y-108740000D01*
X159942050Y-108784096D01*
X159690658Y-108952071D01*
X159648258Y-109015527D01*
X158090785Y-110573000D01*
X153600000Y-110573000D01*
X153551399Y-110582667D01*
X153531906Y-110595692D01*
X151951744Y-109015530D01*
X151909342Y-108952071D01*
X151657950Y-108784096D01*
X151436265Y-108740000D01*
X151436260Y-108740000D01*
X151361413Y-108725112D01*
X151286566Y-108740000D01*
X146590478Y-108740000D01*
X146548157Y-108527235D01*
X146407809Y-108317191D01*
X146197765Y-108176843D01*
X145950000Y-108127560D01*
X144950000Y-108127560D01*
X144702235Y-108176843D01*
X144492191Y-108317191D01*
X144351843Y-108527235D01*
X144302560Y-108775000D01*
X144302560Y-110225000D01*
X144351843Y-110472765D01*
X144373000Y-110504428D01*
X144373000Y-111248014D01*
X144313720Y-111272569D01*
X144022569Y-111563720D01*
X143865000Y-111944126D01*
X143685000Y-111944126D01*
X143527431Y-111563720D01*
X143236280Y-111272569D01*
X142855874Y-111115000D01*
X142444126Y-111115000D01*
X142063720Y-111272569D01*
X141946289Y-111390000D01*
X127289802Y-111390000D01*
X125697440Y-109797639D01*
X125697440Y-108775000D01*
X125648157Y-108527235D01*
X125507809Y-108317191D01*
X125297765Y-108176843D01*
X125050000Y-108127560D01*
X124050000Y-108127560D01*
X123802235Y-108176843D01*
X123592191Y-108317191D01*
X123451843Y-108527235D01*
X123402560Y-108775000D01*
X121410000Y-108775000D01*
X121410000Y-107610000D01*
X190190000Y-107610000D01*
X190190001Y-116190000D01*
X190190001Y-116190000D01*
G37*
X190190001Y-116190000D02*
X169669920Y-116190000D01*
X169599999Y-116176092D01*
X169530078Y-116190000D01*
X169530074Y-116190000D01*
X169322972Y-116231195D01*
X169088119Y-116388119D01*
X169048508Y-116447401D01*
X165005910Y-120490000D01*
X146594091Y-120490000D01*
X143458978Y-117354887D01*
X146865000Y-117354887D01*
X146865000Y-118045113D01*
X147129138Y-118682799D01*
X147617201Y-119170862D01*
X148254887Y-119435000D01*
X148945113Y-119435000D01*
X149582799Y-119170862D01*
X150070862Y-118682799D01*
X150335000Y-118045113D01*
X150335000Y-117354887D01*
X150070862Y-116717201D01*
X149582799Y-116229138D01*
X148945113Y-115965000D01*
X148254887Y-115965000D01*
X147617201Y-116229138D01*
X147129138Y-116717201D01*
X146865000Y-117354887D01*
X143458978Y-117354887D01*
X142551494Y-116447404D01*
X142511881Y-116388119D01*
X142277028Y-116231195D01*
X142069926Y-116190000D01*
X142069924Y-116190000D01*
X142000000Y-116176091D01*
X141930076Y-116190000D01*
X121410000Y-116190000D01*
X121410000Y-114250000D01*
X123452560Y-114250000D01*
X123452560Y-115050000D01*
X123501843Y-115297765D01*
X123642191Y-115507809D01*
X123852235Y-115648157D01*
X124100000Y-115697440D01*
X124900000Y-115697440D01*
X125147765Y-115648157D01*
X125325000Y-115529731D01*
X125502235Y-115648157D01*
X125750000Y-115697440D01*
X126250000Y-115697440D01*
X126497765Y-115648157D01*
X126707809Y-115507809D01*
X126750000Y-115444666D01*
X126792191Y-115507809D01*
X127002235Y-115648157D01*
X127250000Y-115697440D01*
X127750000Y-115697440D01*
X127997765Y-115648157D01*
X128207809Y-115507809D01*
X128223050Y-115485000D01*
X141821289Y-115485000D01*
X141863720Y-115527431D01*
X142244126Y-115685000D01*
X142655874Y-115685000D01*
X143036280Y-115527431D01*
X143327431Y-115236280D01*
X143485000Y-114855874D01*
X143485000Y-114444126D01*
X143327431Y-114063720D01*
X143036280Y-113772569D01*
X142655874Y-113615000D01*
X142244126Y-113615000D01*
X141863720Y-113772569D01*
X141821289Y-113815000D01*
X128223050Y-113815000D01*
X128207809Y-113792191D01*
X127997765Y-113651843D01*
X127750000Y-113602560D01*
X127250000Y-113602560D01*
X127002235Y-113651843D01*
X126792191Y-113792191D01*
X126750000Y-113855334D01*
X126707809Y-113792191D01*
X126497765Y-113651843D01*
X126250000Y-113602560D01*
X125750000Y-113602560D01*
X125502235Y-113651843D01*
X125325000Y-113770269D01*
X125147765Y-113651843D01*
X124900000Y-113602560D01*
X124100000Y-113602560D01*
X123852235Y-113651843D01*
X123642191Y-113792191D01*
X123501843Y-114002235D01*
X123452560Y-114250000D01*
X121410000Y-114250000D01*
X121410000Y-108775000D01*
X123402560Y-108775000D01*
X123402560Y-110225000D01*
X123451843Y-110472765D01*
X123592191Y-110682809D01*
X123802235Y-110823157D01*
X124050000Y-110872440D01*
X124622639Y-110872440D01*
X126384670Y-112634472D01*
X126427071Y-112697929D01*
X126678463Y-112865904D01*
X126900148Y-112910000D01*
X126900153Y-112910000D01*
X126975000Y-112924888D01*
X127049847Y-112910000D01*
X141946289Y-112910000D01*
X142063720Y-113027431D01*
X142444126Y-113185000D01*
X142855874Y-113185000D01*
X143236280Y-113027431D01*
X143527431Y-112736280D01*
X143685000Y-112355874D01*
X143685000Y-111944126D01*
X143865000Y-111944126D01*
X143865000Y-112355874D01*
X144022569Y-112736280D01*
X144313720Y-113027431D01*
X144694126Y-113185000D01*
X145105874Y-113185000D01*
X145486280Y-113027431D01*
X145603711Y-112910000D01*
X153060201Y-112910000D01*
X154287560Y-114137360D01*
X154287560Y-115015000D01*
X151545871Y-115015000D01*
X151035002Y-114504132D01*
X151035002Y-114444126D01*
X150877433Y-114063720D01*
X150586282Y-113772569D01*
X150205876Y-113615000D01*
X149794128Y-113615000D01*
X149413722Y-113772569D01*
X149371291Y-113815000D01*
X149123050Y-113815000D01*
X149107809Y-113792191D01*
X148897765Y-113651843D01*
X148650000Y-113602560D01*
X148150000Y-113602560D01*
X147902235Y-113651843D01*
X147692191Y-113792191D01*
X147650000Y-113855334D01*
X147607809Y-113792191D01*
X147397765Y-113651843D01*
X147150000Y-113602560D01*
X146650000Y-113602560D01*
X146402235Y-113651843D01*
X146225000Y-113770269D01*
X146047765Y-113651843D01*
X145800000Y-113602560D01*
X145000000Y-113602560D01*
X144752235Y-113651843D01*
X144542191Y-113792191D01*
X144401843Y-114002235D01*
X144352560Y-114250000D01*
X144352560Y-115050000D01*
X144401843Y-115297765D01*
X144542191Y-115507809D01*
X144752235Y-115648157D01*
X145000000Y-115697440D01*
X145800000Y-115697440D01*
X146047765Y-115648157D01*
X146225000Y-115529731D01*
X146402235Y-115648157D01*
X146650000Y-115697440D01*
X147150000Y-115697440D01*
X147397765Y-115648157D01*
X147607809Y-115507809D01*
X147650000Y-115444666D01*
X147692191Y-115507809D01*
X147902235Y-115648157D01*
X148150000Y-115697440D01*
X148650000Y-115697440D01*
X148897765Y-115648157D01*
X149107809Y-115507809D01*
X149123050Y-115485000D01*
X149371291Y-115485000D01*
X149413722Y-115527431D01*
X149794128Y-115685000D01*
X149854134Y-115685000D01*
X150551418Y-116382285D01*
X150598001Y-116452001D01*
X150652560Y-116488456D01*
X150652560Y-118325000D01*
X150701843Y-118572765D01*
X150842191Y-118782809D01*
X151052235Y-118923157D01*
X151300000Y-118972440D01*
X153500000Y-118972440D01*
X153747765Y-118923157D01*
X153957809Y-118782809D01*
X154098157Y-118572765D01*
X154147440Y-118325000D01*
X154147440Y-116685000D01*
X157217763Y-116685000D01*
X157300000Y-116701358D01*
X157382237Y-116685000D01*
X157402560Y-116685000D01*
X157402560Y-118325000D01*
X157451843Y-118572765D01*
X157592191Y-118782809D01*
X157802235Y-118923157D01*
X158050000Y-118972440D01*
X160250000Y-118972440D01*
X160497765Y-118923157D01*
X160707809Y-118782809D01*
X160848157Y-118572765D01*
X160897440Y-118325000D01*
X160897440Y-117354887D01*
X161265000Y-117354887D01*
X161265000Y-118045113D01*
X161529138Y-118682799D01*
X162017201Y-119170862D01*
X162654887Y-119435000D01*
X163345113Y-119435000D01*
X163982799Y-119170862D01*
X164470862Y-118682799D01*
X164735000Y-118045113D01*
X164735000Y-117354887D01*
X164470862Y-116717201D01*
X163982799Y-116229138D01*
X163345113Y-115965000D01*
X162654887Y-115965000D01*
X162017201Y-116229138D01*
X161529138Y-116717201D01*
X161265000Y-117354887D01*
X160897440Y-117354887D01*
X160897440Y-116333427D01*
X161683225Y-115547642D01*
X161894126Y-115635000D01*
X162305874Y-115635000D01*
X162584593Y-115519551D01*
X162702235Y-115598157D01*
X162950000Y-115647440D01*
X163450000Y-115647440D01*
X163697765Y-115598157D01*
X163907809Y-115457809D01*
X163950000Y-115394666D01*
X163992191Y-115457809D01*
X164202235Y-115598157D01*
X164450000Y-115647440D01*
X164950000Y-115647440D01*
X165197765Y-115598157D01*
X165325000Y-115513141D01*
X165452235Y-115598157D01*
X165700000Y-115647440D01*
X166500000Y-115647440D01*
X166747765Y-115598157D01*
X166957809Y-115457809D01*
X167098157Y-115247765D01*
X167147440Y-115000000D01*
X167147440Y-114200000D01*
X167098157Y-113952235D01*
X166957809Y-113742191D01*
X166947047Y-113735000D01*
X167105874Y-113735000D01*
X167486280Y-113577431D01*
X167777431Y-113286280D01*
X167875000Y-113050727D01*
X167972569Y-113286280D01*
X168263720Y-113577431D01*
X168438917Y-113650000D01*
X168263720Y-113722569D01*
X167972569Y-114013720D01*
X167815000Y-114394126D01*
X167815000Y-114805874D01*
X167972569Y-115186280D01*
X168263720Y-115477431D01*
X168644126Y-115635000D01*
X169055874Y-115635000D01*
X169436280Y-115477431D01*
X169478711Y-115435000D01*
X183376950Y-115435000D01*
X183392191Y-115457809D01*
X183602235Y-115598157D01*
X183850000Y-115647440D01*
X184350000Y-115647440D01*
X184597765Y-115598157D01*
X184807809Y-115457809D01*
X184850000Y-115394666D01*
X184892191Y-115457809D01*
X185102235Y-115598157D01*
X185350000Y-115647440D01*
X185850000Y-115647440D01*
X186097765Y-115598157D01*
X186250000Y-115496436D01*
X186402235Y-115598157D01*
X186650000Y-115647440D01*
X187450000Y-115647440D01*
X187697765Y-115598157D01*
X187907809Y-115457809D01*
X188048157Y-115247765D01*
X188097440Y-115000000D01*
X188097440Y-114200000D01*
X188048157Y-113952235D01*
X187907809Y-113742191D01*
X187697765Y-113601843D01*
X187450000Y-113552560D01*
X186650000Y-113552560D01*
X186402235Y-113601843D01*
X186250000Y-113703564D01*
X186097765Y-113601843D01*
X185850000Y-113552560D01*
X185350000Y-113552560D01*
X185102235Y-113601843D01*
X184892191Y-113742191D01*
X184850000Y-113805334D01*
X184807809Y-113742191D01*
X184597765Y-113601843D01*
X184350000Y-113552560D01*
X183850000Y-113552560D01*
X183602235Y-113601843D01*
X183392191Y-113742191D01*
X183376950Y-113765000D01*
X169478711Y-113765000D01*
X169436280Y-113722569D01*
X169261083Y-113650000D01*
X169436280Y-113577431D01*
X169553711Y-113460000D01*
X184000153Y-113460000D01*
X184075000Y-113474888D01*
X184149847Y-113460000D01*
X184149852Y-113460000D01*
X184371537Y-113415904D01*
X184622929Y-113247929D01*
X184665331Y-113184470D01*
X186977363Y-110872440D01*
X187550000Y-110872440D01*
X187797765Y-110823157D01*
X188007809Y-110682809D01*
X188148157Y-110472765D01*
X188197440Y-110225000D01*
X188197440Y-108775000D01*
X188148157Y-108527235D01*
X188007809Y-108317191D01*
X187797765Y-108176843D01*
X187550000Y-108127560D01*
X186550000Y-108127560D01*
X186302235Y-108176843D01*
X186092191Y-108317191D01*
X185951843Y-108527235D01*
X185902560Y-108775000D01*
X185902560Y-109797637D01*
X183760199Y-111940000D01*
X169553711Y-111940000D01*
X169436280Y-111822569D01*
X169055874Y-111665000D01*
X168644126Y-111665000D01*
X168263720Y-111822569D01*
X167972569Y-112113720D01*
X167875000Y-112349273D01*
X167777431Y-112113720D01*
X167486280Y-111822569D01*
X167227000Y-111715172D01*
X167227000Y-110504428D01*
X167248157Y-110472765D01*
X167297440Y-110225000D01*
X167297440Y-108775000D01*
X167248157Y-108527235D01*
X167107809Y-108317191D01*
X166897765Y-108176843D01*
X166650000Y-108127560D01*
X165650000Y-108127560D01*
X165402235Y-108176843D01*
X165192191Y-108317191D01*
X165051843Y-108527235D01*
X165009522Y-108740000D01*
X160313435Y-108740000D01*
X160238587Y-108725112D01*
X160163739Y-108740000D01*
X160163735Y-108740000D01*
X159942050Y-108784096D01*
X159690658Y-108952071D01*
X159648258Y-109015527D01*
X158090785Y-110573000D01*
X153600000Y-110573000D01*
X153551399Y-110582667D01*
X153531906Y-110595692D01*
X151951744Y-109015530D01*
X151909342Y-108952071D01*
X151657950Y-108784096D01*
X151436265Y-108740000D01*
X151436260Y-108740000D01*
X151361413Y-108725112D01*
X151286566Y-108740000D01*
X146590478Y-108740000D01*
X146548157Y-108527235D01*
X146407809Y-108317191D01*
X146197765Y-108176843D01*
X145950000Y-108127560D01*
X144950000Y-108127560D01*
X144702235Y-108176843D01*
X144492191Y-108317191D01*
X144351843Y-108527235D01*
X144302560Y-108775000D01*
X144302560Y-110225000D01*
X144351843Y-110472765D01*
X144373000Y-110504428D01*
X144373000Y-111248014D01*
X144313720Y-111272569D01*
X144022569Y-111563720D01*
X143865000Y-111944126D01*
X143685000Y-111944126D01*
X143527431Y-111563720D01*
X143236280Y-111272569D01*
X142855874Y-111115000D01*
X142444126Y-111115000D01*
X142063720Y-111272569D01*
X141946289Y-111390000D01*
X127289802Y-111390000D01*
X125697440Y-109797639D01*
X125697440Y-108775000D01*
X125648157Y-108527235D01*
X125507809Y-108317191D01*
X125297765Y-108176843D01*
X125050000Y-108127560D01*
X124050000Y-108127560D01*
X123802235Y-108176843D01*
X123592191Y-108317191D01*
X123451843Y-108527235D01*
X123402560Y-108775000D01*
X121410000Y-108775000D01*
X121410000Y-107610000D01*
X190190000Y-107610000D01*
X190190001Y-116190000D01*
G36*
X166288849Y-113552560D02*
X165700000Y-113552560D01*
X165452235Y-113601843D01*
X165325000Y-113686859D01*
X165197765Y-113601843D01*
X164950000Y-113552560D01*
X164450000Y-113552560D01*
X164202235Y-113601843D01*
X163992191Y-113742191D01*
X163950000Y-113805334D01*
X163907809Y-113742191D01*
X163697765Y-113601843D01*
X163450000Y-113552560D01*
X162950000Y-113552560D01*
X162702235Y-113601843D01*
X162584593Y-113680449D01*
X162305874Y-113565000D01*
X161894126Y-113565000D01*
X161513720Y-113722569D01*
X161481401Y-113754888D01*
X161450000Y-113748642D01*
X161367763Y-113765000D01*
X161127000Y-113812891D01*
X161127000Y-113460000D01*
X166196289Y-113460000D01*
X166288849Y-113552560D01*
X166288849Y-113552560D01*
G37*
X166288849Y-113552560D02*
X165700000Y-113552560D01*
X165452235Y-113601843D01*
X165325000Y-113686859D01*
X165197765Y-113601843D01*
X164950000Y-113552560D01*
X164450000Y-113552560D01*
X164202235Y-113601843D01*
X163992191Y-113742191D01*
X163950000Y-113805334D01*
X163907809Y-113742191D01*
X163697765Y-113601843D01*
X163450000Y-113552560D01*
X162950000Y-113552560D01*
X162702235Y-113601843D01*
X162584593Y-113680449D01*
X162305874Y-113565000D01*
X161894126Y-113565000D01*
X161513720Y-113722569D01*
X161481401Y-113754888D01*
X161450000Y-113748642D01*
X161367763Y-113765000D01*
X161127000Y-113812891D01*
X161127000Y-113460000D01*
X166196289Y-113460000D01*
X166288849Y-113552560D01*
G36*
X129873000Y-83174812D02*
X129865000Y-83194126D01*
X129865000Y-83605874D01*
X130022569Y-83986280D01*
X130313720Y-84277431D01*
X130655039Y-84418810D01*
X130660965Y-84448601D01*
X130671922Y-84465000D01*
X124727000Y-84465000D01*
X124727000Y-83514427D01*
X124735000Y-83495113D01*
X124735000Y-83250547D01*
X124755000Y-83150000D01*
X124735000Y-83049453D01*
X124735000Y-82804887D01*
X124727000Y-82785573D01*
X124727000Y-81835000D01*
X129873000Y-81835000D01*
X129873000Y-83174812D01*
X129873000Y-83174812D01*
G37*
X129873000Y-83174812D02*
X129865000Y-83194126D01*
X129865000Y-83605874D01*
X130022569Y-83986280D01*
X130313720Y-84277431D01*
X130655039Y-84418810D01*
X130660965Y-84448601D01*
X130671922Y-84465000D01*
X124727000Y-84465000D01*
X124727000Y-83514427D01*
X124735000Y-83495113D01*
X124735000Y-83250547D01*
X124755000Y-83150000D01*
X124735000Y-83049453D01*
X124735000Y-82804887D01*
X124727000Y-82785573D01*
X124727000Y-81835000D01*
X129873000Y-81835000D01*
X129873000Y-83174812D01*
G36*
X134127000Y-81973000D02*
X134147000Y-81973000D01*
X134147000Y-82227000D01*
X134127000Y-82227000D01*
X134127000Y-82247000D01*
X133873000Y-82247000D01*
X133873000Y-82227000D01*
X133853000Y-82227000D01*
X133853000Y-81973000D01*
X133873000Y-81973000D01*
X133873000Y-81953000D01*
X134127000Y-81953000D01*
X134127000Y-81973000D01*
X134127000Y-81973000D01*
G37*
X134127000Y-81973000D02*
X134147000Y-81973000D01*
X134147000Y-82227000D01*
X134127000Y-82227000D01*
X134127000Y-82247000D01*
X133873000Y-82247000D01*
X133873000Y-82227000D01*
X133853000Y-82227000D01*
X133853000Y-81973000D01*
X133873000Y-81973000D01*
X133873000Y-81953000D01*
X134127000Y-81953000D01*
X134127000Y-81973000D01*
G36*
X190190001Y-95690000D02*
X169669920Y-95690000D01*
X169599999Y-95676092D01*
X169530078Y-95690000D01*
X169530074Y-95690000D01*
X169322972Y-95731195D01*
X169088119Y-95888119D01*
X169048508Y-95947401D01*
X165005910Y-99990000D01*
X146594091Y-99990000D01*
X143458978Y-96854887D01*
X146865000Y-96854887D01*
X146865000Y-97545113D01*
X147129138Y-98182799D01*
X147617201Y-98670862D01*
X148254887Y-98935000D01*
X148945113Y-98935000D01*
X149582799Y-98670862D01*
X150070862Y-98182799D01*
X150335000Y-97545113D01*
X150335000Y-96854887D01*
X150070862Y-96217201D01*
X149582799Y-95729138D01*
X148945113Y-95465000D01*
X148254887Y-95465000D01*
X147617201Y-95729138D01*
X147129138Y-96217201D01*
X146865000Y-96854887D01*
X143458978Y-96854887D01*
X142551494Y-95947404D01*
X142511881Y-95888119D01*
X142277028Y-95731195D01*
X142069926Y-95690000D01*
X142069924Y-95690000D01*
X142000000Y-95676091D01*
X141930076Y-95690000D01*
X121410000Y-95690000D01*
X121410000Y-93750000D01*
X123452560Y-93750000D01*
X123452560Y-94550000D01*
X123501843Y-94797765D01*
X123642191Y-95007809D01*
X123852235Y-95148157D01*
X124100000Y-95197440D01*
X124900000Y-95197440D01*
X125147765Y-95148157D01*
X125325000Y-95029731D01*
X125502235Y-95148157D01*
X125750000Y-95197440D01*
X126250000Y-95197440D01*
X126497765Y-95148157D01*
X126707809Y-95007809D01*
X126750000Y-94944666D01*
X126792191Y-95007809D01*
X127002235Y-95148157D01*
X127250000Y-95197440D01*
X127750000Y-95197440D01*
X127997765Y-95148157D01*
X128207809Y-95007809D01*
X128223050Y-94985000D01*
X141821289Y-94985000D01*
X141863720Y-95027431D01*
X142244126Y-95185000D01*
X142655874Y-95185000D01*
X143036280Y-95027431D01*
X143327431Y-94736280D01*
X143485000Y-94355874D01*
X143485000Y-93944126D01*
X143327431Y-93563720D01*
X143036280Y-93272569D01*
X142655874Y-93115000D01*
X142244126Y-93115000D01*
X141863720Y-93272569D01*
X141821289Y-93315000D01*
X128223050Y-93315000D01*
X128207809Y-93292191D01*
X127997765Y-93151843D01*
X127750000Y-93102560D01*
X127250000Y-93102560D01*
X127002235Y-93151843D01*
X126792191Y-93292191D01*
X126750000Y-93355334D01*
X126707809Y-93292191D01*
X126497765Y-93151843D01*
X126250000Y-93102560D01*
X125750000Y-93102560D01*
X125502235Y-93151843D01*
X125325000Y-93270269D01*
X125147765Y-93151843D01*
X124900000Y-93102560D01*
X124100000Y-93102560D01*
X123852235Y-93151843D01*
X123642191Y-93292191D01*
X123501843Y-93502235D01*
X123452560Y-93750000D01*
X121410000Y-93750000D01*
X121410000Y-88275000D01*
X123402560Y-88275000D01*
X123402560Y-89725000D01*
X123451843Y-89972765D01*
X123592191Y-90182809D01*
X123802235Y-90323157D01*
X124050000Y-90372440D01*
X124622639Y-90372440D01*
X126384670Y-92134472D01*
X126427071Y-92197929D01*
X126678463Y-92365904D01*
X126900148Y-92410000D01*
X126900153Y-92410000D01*
X126975000Y-92424888D01*
X127049847Y-92410000D01*
X141946289Y-92410000D01*
X142063720Y-92527431D01*
X142444126Y-92685000D01*
X142855874Y-92685000D01*
X143236280Y-92527431D01*
X143527431Y-92236280D01*
X143685000Y-91855874D01*
X143685000Y-91444126D01*
X143865000Y-91444126D01*
X143865000Y-91855874D01*
X144022569Y-92236280D01*
X144313720Y-92527431D01*
X144694126Y-92685000D01*
X145105874Y-92685000D01*
X145486280Y-92527431D01*
X145603711Y-92410000D01*
X153060201Y-92410000D01*
X154287560Y-93637360D01*
X154287560Y-94515000D01*
X151545871Y-94515000D01*
X151035002Y-94004132D01*
X151035002Y-93944126D01*
X150877433Y-93563720D01*
X150586282Y-93272569D01*
X150205876Y-93115000D01*
X149794128Y-93115000D01*
X149413722Y-93272569D01*
X149371291Y-93315000D01*
X149123050Y-93315000D01*
X149107809Y-93292191D01*
X148897765Y-93151843D01*
X148650000Y-93102560D01*
X148150000Y-93102560D01*
X147902235Y-93151843D01*
X147692191Y-93292191D01*
X147650000Y-93355334D01*
X147607809Y-93292191D01*
X147397765Y-93151843D01*
X147150000Y-93102560D01*
X146650000Y-93102560D01*
X146402235Y-93151843D01*
X146225000Y-93270269D01*
X146047765Y-93151843D01*
X145800000Y-93102560D01*
X145000000Y-93102560D01*
X144752235Y-93151843D01*
X144542191Y-93292191D01*
X144401843Y-93502235D01*
X144352560Y-93750000D01*
X144352560Y-94550000D01*
X144401843Y-94797765D01*
X144542191Y-95007809D01*
X144752235Y-95148157D01*
X145000000Y-95197440D01*
X145800000Y-95197440D01*
X146047765Y-95148157D01*
X146225000Y-95029731D01*
X146402235Y-95148157D01*
X146650000Y-95197440D01*
X147150000Y-95197440D01*
X147397765Y-95148157D01*
X147607809Y-95007809D01*
X147650000Y-94944666D01*
X147692191Y-95007809D01*
X147902235Y-95148157D01*
X148150000Y-95197440D01*
X148650000Y-95197440D01*
X148897765Y-95148157D01*
X149107809Y-95007809D01*
X149123050Y-94985000D01*
X149371291Y-94985000D01*
X149413722Y-95027431D01*
X149794128Y-95185000D01*
X149854134Y-95185000D01*
X150551418Y-95882285D01*
X150598001Y-95952001D01*
X150652560Y-95988456D01*
X150652560Y-97825000D01*
X150701843Y-98072765D01*
X150842191Y-98282809D01*
X151052235Y-98423157D01*
X151300000Y-98472440D01*
X153500000Y-98472440D01*
X153747765Y-98423157D01*
X153957809Y-98282809D01*
X154098157Y-98072765D01*
X154147440Y-97825000D01*
X154147440Y-96185000D01*
X157217763Y-96185000D01*
X157300000Y-96201358D01*
X157382237Y-96185000D01*
X157402560Y-96185000D01*
X157402560Y-97825000D01*
X157451843Y-98072765D01*
X157592191Y-98282809D01*
X157802235Y-98423157D01*
X158050000Y-98472440D01*
X160250000Y-98472440D01*
X160497765Y-98423157D01*
X160707809Y-98282809D01*
X160848157Y-98072765D01*
X160897440Y-97825000D01*
X160897440Y-96854887D01*
X161265000Y-96854887D01*
X161265000Y-97545113D01*
X161529138Y-98182799D01*
X162017201Y-98670862D01*
X162654887Y-98935000D01*
X163345113Y-98935000D01*
X163982799Y-98670862D01*
X164470862Y-98182799D01*
X164735000Y-97545113D01*
X164735000Y-96854887D01*
X164470862Y-96217201D01*
X163982799Y-95729138D01*
X163345113Y-95465000D01*
X162654887Y-95465000D01*
X162017201Y-95729138D01*
X161529138Y-96217201D01*
X161265000Y-96854887D01*
X160897440Y-96854887D01*
X160897440Y-95833427D01*
X161683225Y-95047642D01*
X161894126Y-95135000D01*
X162305874Y-95135000D01*
X162584593Y-95019551D01*
X162702235Y-95098157D01*
X162950000Y-95147440D01*
X163450000Y-95147440D01*
X163697765Y-95098157D01*
X163907809Y-94957809D01*
X163950000Y-94894666D01*
X163992191Y-94957809D01*
X164202235Y-95098157D01*
X164450000Y-95147440D01*
X164950000Y-95147440D01*
X165197765Y-95098157D01*
X165325000Y-95013141D01*
X165452235Y-95098157D01*
X165700000Y-95147440D01*
X166500000Y-95147440D01*
X166747765Y-95098157D01*
X166957809Y-94957809D01*
X167098157Y-94747765D01*
X167147440Y-94500000D01*
X167147440Y-93700000D01*
X167098157Y-93452235D01*
X166957809Y-93242191D01*
X166947047Y-93235000D01*
X167105874Y-93235000D01*
X167486280Y-93077431D01*
X167777431Y-92786280D01*
X167875000Y-92550727D01*
X167972569Y-92786280D01*
X168263720Y-93077431D01*
X168438917Y-93150000D01*
X168263720Y-93222569D01*
X167972569Y-93513720D01*
X167815000Y-93894126D01*
X167815000Y-94305874D01*
X167972569Y-94686280D01*
X168263720Y-94977431D01*
X168644126Y-95135000D01*
X169055874Y-95135000D01*
X169436280Y-94977431D01*
X169478711Y-94935000D01*
X183376950Y-94935000D01*
X183392191Y-94957809D01*
X183602235Y-95098157D01*
X183850000Y-95147440D01*
X184350000Y-95147440D01*
X184597765Y-95098157D01*
X184807809Y-94957809D01*
X184850000Y-94894666D01*
X184892191Y-94957809D01*
X185102235Y-95098157D01*
X185350000Y-95147440D01*
X185850000Y-95147440D01*
X186097765Y-95098157D01*
X186250000Y-94996436D01*
X186402235Y-95098157D01*
X186650000Y-95147440D01*
X187450000Y-95147440D01*
X187697765Y-95098157D01*
X187907809Y-94957809D01*
X188048157Y-94747765D01*
X188097440Y-94500000D01*
X188097440Y-93700000D01*
X188048157Y-93452235D01*
X187907809Y-93242191D01*
X187697765Y-93101843D01*
X187450000Y-93052560D01*
X186650000Y-93052560D01*
X186402235Y-93101843D01*
X186250000Y-93203564D01*
X186097765Y-93101843D01*
X185850000Y-93052560D01*
X185350000Y-93052560D01*
X185102235Y-93101843D01*
X184892191Y-93242191D01*
X184850000Y-93305334D01*
X184807809Y-93242191D01*
X184597765Y-93101843D01*
X184350000Y-93052560D01*
X183850000Y-93052560D01*
X183602235Y-93101843D01*
X183392191Y-93242191D01*
X183376950Y-93265000D01*
X169478711Y-93265000D01*
X169436280Y-93222569D01*
X169261083Y-93150000D01*
X169436280Y-93077431D01*
X169553711Y-92960000D01*
X184000153Y-92960000D01*
X184075000Y-92974888D01*
X184149847Y-92960000D01*
X184149852Y-92960000D01*
X184371537Y-92915904D01*
X184622929Y-92747929D01*
X184665331Y-92684470D01*
X186977363Y-90372440D01*
X187550000Y-90372440D01*
X187797765Y-90323157D01*
X188007809Y-90182809D01*
X188148157Y-89972765D01*
X188197440Y-89725000D01*
X188197440Y-88275000D01*
X188148157Y-88027235D01*
X188007809Y-87817191D01*
X187797765Y-87676843D01*
X187550000Y-87627560D01*
X186550000Y-87627560D01*
X186302235Y-87676843D01*
X186092191Y-87817191D01*
X185951843Y-88027235D01*
X185902560Y-88275000D01*
X185902560Y-89297637D01*
X183760199Y-91440000D01*
X169553711Y-91440000D01*
X169436280Y-91322569D01*
X169055874Y-91165000D01*
X168644126Y-91165000D01*
X168263720Y-91322569D01*
X167972569Y-91613720D01*
X167875000Y-91849273D01*
X167777431Y-91613720D01*
X167486280Y-91322569D01*
X167227000Y-91215172D01*
X167227000Y-90004428D01*
X167248157Y-89972765D01*
X167297440Y-89725000D01*
X167297440Y-88275000D01*
X167248157Y-88027235D01*
X167107809Y-87817191D01*
X166897765Y-87676843D01*
X166650000Y-87627560D01*
X165650000Y-87627560D01*
X165402235Y-87676843D01*
X165192191Y-87817191D01*
X165051843Y-88027235D01*
X165009522Y-88240000D01*
X160313435Y-88240000D01*
X160238587Y-88225112D01*
X160163739Y-88240000D01*
X160163735Y-88240000D01*
X159942050Y-88284096D01*
X159690658Y-88452071D01*
X159648258Y-88515527D01*
X158090785Y-90073000D01*
X153600000Y-90073000D01*
X153551399Y-90082667D01*
X153531906Y-90095692D01*
X151951744Y-88515530D01*
X151909342Y-88452071D01*
X151657950Y-88284096D01*
X151436265Y-88240000D01*
X151436260Y-88240000D01*
X151361413Y-88225112D01*
X151286566Y-88240000D01*
X146590478Y-88240000D01*
X146548157Y-88027235D01*
X146407809Y-87817191D01*
X146197765Y-87676843D01*
X145950000Y-87627560D01*
X144950000Y-87627560D01*
X144702235Y-87676843D01*
X144492191Y-87817191D01*
X144351843Y-88027235D01*
X144302560Y-88275000D01*
X144302560Y-89725000D01*
X144351843Y-89972765D01*
X144373000Y-90004428D01*
X144373000Y-90748014D01*
X144313720Y-90772569D01*
X144022569Y-91063720D01*
X143865000Y-91444126D01*
X143685000Y-91444126D01*
X143527431Y-91063720D01*
X143236280Y-90772569D01*
X142855874Y-90615000D01*
X142444126Y-90615000D01*
X142063720Y-90772569D01*
X141946289Y-90890000D01*
X127289802Y-90890000D01*
X125697440Y-89297639D01*
X125697440Y-88275000D01*
X125648157Y-88027235D01*
X125507809Y-87817191D01*
X125297765Y-87676843D01*
X125050000Y-87627560D01*
X124050000Y-87627560D01*
X123802235Y-87676843D01*
X123592191Y-87817191D01*
X123451843Y-88027235D01*
X123402560Y-88275000D01*
X121410000Y-88275000D01*
X121410000Y-87110000D01*
X190190000Y-87110000D01*
X190190001Y-95690000D01*
X190190001Y-95690000D01*
G37*
X190190001Y-95690000D02*
X169669920Y-95690000D01*
X169599999Y-95676092D01*
X169530078Y-95690000D01*
X169530074Y-95690000D01*
X169322972Y-95731195D01*
X169088119Y-95888119D01*
X169048508Y-95947401D01*
X165005910Y-99990000D01*
X146594091Y-99990000D01*
X143458978Y-96854887D01*
X146865000Y-96854887D01*
X146865000Y-97545113D01*
X147129138Y-98182799D01*
X147617201Y-98670862D01*
X148254887Y-98935000D01*
X148945113Y-98935000D01*
X149582799Y-98670862D01*
X150070862Y-98182799D01*
X150335000Y-97545113D01*
X150335000Y-96854887D01*
X150070862Y-96217201D01*
X149582799Y-95729138D01*
X148945113Y-95465000D01*
X148254887Y-95465000D01*
X147617201Y-95729138D01*
X147129138Y-96217201D01*
X146865000Y-96854887D01*
X143458978Y-96854887D01*
X142551494Y-95947404D01*
X142511881Y-95888119D01*
X142277028Y-95731195D01*
X142069926Y-95690000D01*
X142069924Y-95690000D01*
X142000000Y-95676091D01*
X141930076Y-95690000D01*
X121410000Y-95690000D01*
X121410000Y-93750000D01*
X123452560Y-93750000D01*
X123452560Y-94550000D01*
X123501843Y-94797765D01*
X123642191Y-95007809D01*
X123852235Y-95148157D01*
X124100000Y-95197440D01*
X124900000Y-95197440D01*
X125147765Y-95148157D01*
X125325000Y-95029731D01*
X125502235Y-95148157D01*
X125750000Y-95197440D01*
X126250000Y-95197440D01*
X126497765Y-95148157D01*
X126707809Y-95007809D01*
X126750000Y-94944666D01*
X126792191Y-95007809D01*
X127002235Y-95148157D01*
X127250000Y-95197440D01*
X127750000Y-95197440D01*
X127997765Y-95148157D01*
X128207809Y-95007809D01*
X128223050Y-94985000D01*
X141821289Y-94985000D01*
X141863720Y-95027431D01*
X142244126Y-95185000D01*
X142655874Y-95185000D01*
X143036280Y-95027431D01*
X143327431Y-94736280D01*
X143485000Y-94355874D01*
X143485000Y-93944126D01*
X143327431Y-93563720D01*
X143036280Y-93272569D01*
X142655874Y-93115000D01*
X142244126Y-93115000D01*
X141863720Y-93272569D01*
X141821289Y-93315000D01*
X128223050Y-93315000D01*
X128207809Y-93292191D01*
X127997765Y-93151843D01*
X127750000Y-93102560D01*
X127250000Y-93102560D01*
X127002235Y-93151843D01*
X126792191Y-93292191D01*
X126750000Y-93355334D01*
X126707809Y-93292191D01*
X126497765Y-93151843D01*
X126250000Y-93102560D01*
X125750000Y-93102560D01*
X125502235Y-93151843D01*
X125325000Y-93270269D01*
X125147765Y-93151843D01*
X124900000Y-93102560D01*
X124100000Y-93102560D01*
X123852235Y-93151843D01*
X123642191Y-93292191D01*
X123501843Y-93502235D01*
X123452560Y-93750000D01*
X121410000Y-93750000D01*
X121410000Y-88275000D01*
X123402560Y-88275000D01*
X123402560Y-89725000D01*
X123451843Y-89972765D01*
X123592191Y-90182809D01*
X123802235Y-90323157D01*
X124050000Y-90372440D01*
X124622639Y-90372440D01*
X126384670Y-92134472D01*
X126427071Y-92197929D01*
X126678463Y-92365904D01*
X126900148Y-92410000D01*
X126900153Y-92410000D01*
X126975000Y-92424888D01*
X127049847Y-92410000D01*
X141946289Y-92410000D01*
X142063720Y-92527431D01*
X142444126Y-92685000D01*
X142855874Y-92685000D01*
X143236280Y-92527431D01*
X143527431Y-92236280D01*
X143685000Y-91855874D01*
X143685000Y-91444126D01*
X143865000Y-91444126D01*
X143865000Y-91855874D01*
X144022569Y-92236280D01*
X144313720Y-92527431D01*
X144694126Y-92685000D01*
X145105874Y-92685000D01*
X145486280Y-92527431D01*
X145603711Y-92410000D01*
X153060201Y-92410000D01*
X154287560Y-93637360D01*
X154287560Y-94515000D01*
X151545871Y-94515000D01*
X151035002Y-94004132D01*
X151035002Y-93944126D01*
X150877433Y-93563720D01*
X150586282Y-93272569D01*
X150205876Y-93115000D01*
X149794128Y-93115000D01*
X149413722Y-93272569D01*
X149371291Y-93315000D01*
X149123050Y-93315000D01*
X149107809Y-93292191D01*
X148897765Y-93151843D01*
X148650000Y-93102560D01*
X148150000Y-93102560D01*
X147902235Y-93151843D01*
X147692191Y-93292191D01*
X147650000Y-93355334D01*
X147607809Y-93292191D01*
X147397765Y-93151843D01*
X147150000Y-93102560D01*
X146650000Y-93102560D01*
X146402235Y-93151843D01*
X146225000Y-93270269D01*
X146047765Y-93151843D01*
X145800000Y-93102560D01*
X145000000Y-93102560D01*
X144752235Y-93151843D01*
X144542191Y-93292191D01*
X144401843Y-93502235D01*
X144352560Y-93750000D01*
X144352560Y-94550000D01*
X144401843Y-94797765D01*
X144542191Y-95007809D01*
X144752235Y-95148157D01*
X145000000Y-95197440D01*
X145800000Y-95197440D01*
X146047765Y-95148157D01*
X146225000Y-95029731D01*
X146402235Y-95148157D01*
X146650000Y-95197440D01*
X147150000Y-95197440D01*
X147397765Y-95148157D01*
X147607809Y-95007809D01*
X147650000Y-94944666D01*
X147692191Y-95007809D01*
X147902235Y-95148157D01*
X148150000Y-95197440D01*
X148650000Y-95197440D01*
X148897765Y-95148157D01*
X149107809Y-95007809D01*
X149123050Y-94985000D01*
X149371291Y-94985000D01*
X149413722Y-95027431D01*
X149794128Y-95185000D01*
X149854134Y-95185000D01*
X150551418Y-95882285D01*
X150598001Y-95952001D01*
X150652560Y-95988456D01*
X150652560Y-97825000D01*
X150701843Y-98072765D01*
X150842191Y-98282809D01*
X151052235Y-98423157D01*
X151300000Y-98472440D01*
X153500000Y-98472440D01*
X153747765Y-98423157D01*
X153957809Y-98282809D01*
X154098157Y-98072765D01*
X154147440Y-97825000D01*
X154147440Y-96185000D01*
X157217763Y-96185000D01*
X157300000Y-96201358D01*
X157382237Y-96185000D01*
X157402560Y-96185000D01*
X157402560Y-97825000D01*
X157451843Y-98072765D01*
X157592191Y-98282809D01*
X157802235Y-98423157D01*
X158050000Y-98472440D01*
X160250000Y-98472440D01*
X160497765Y-98423157D01*
X160707809Y-98282809D01*
X160848157Y-98072765D01*
X160897440Y-97825000D01*
X160897440Y-96854887D01*
X161265000Y-96854887D01*
X161265000Y-97545113D01*
X161529138Y-98182799D01*
X162017201Y-98670862D01*
X162654887Y-98935000D01*
X163345113Y-98935000D01*
X163982799Y-98670862D01*
X164470862Y-98182799D01*
X164735000Y-97545113D01*
X164735000Y-96854887D01*
X164470862Y-96217201D01*
X163982799Y-95729138D01*
X163345113Y-95465000D01*
X162654887Y-95465000D01*
X162017201Y-95729138D01*
X161529138Y-96217201D01*
X161265000Y-96854887D01*
X160897440Y-96854887D01*
X160897440Y-95833427D01*
X161683225Y-95047642D01*
X161894126Y-95135000D01*
X162305874Y-95135000D01*
X162584593Y-95019551D01*
X162702235Y-95098157D01*
X162950000Y-95147440D01*
X163450000Y-95147440D01*
X163697765Y-95098157D01*
X163907809Y-94957809D01*
X163950000Y-94894666D01*
X163992191Y-94957809D01*
X164202235Y-95098157D01*
X164450000Y-95147440D01*
X164950000Y-95147440D01*
X165197765Y-95098157D01*
X165325000Y-95013141D01*
X165452235Y-95098157D01*
X165700000Y-95147440D01*
X166500000Y-95147440D01*
X166747765Y-95098157D01*
X166957809Y-94957809D01*
X167098157Y-94747765D01*
X167147440Y-94500000D01*
X167147440Y-93700000D01*
X167098157Y-93452235D01*
X166957809Y-93242191D01*
X166947047Y-93235000D01*
X167105874Y-93235000D01*
X167486280Y-93077431D01*
X167777431Y-92786280D01*
X167875000Y-92550727D01*
X167972569Y-92786280D01*
X168263720Y-93077431D01*
X168438917Y-93150000D01*
X168263720Y-93222569D01*
X167972569Y-93513720D01*
X167815000Y-93894126D01*
X167815000Y-94305874D01*
X167972569Y-94686280D01*
X168263720Y-94977431D01*
X168644126Y-95135000D01*
X169055874Y-95135000D01*
X169436280Y-94977431D01*
X169478711Y-94935000D01*
X183376950Y-94935000D01*
X183392191Y-94957809D01*
X183602235Y-95098157D01*
X183850000Y-95147440D01*
X184350000Y-95147440D01*
X184597765Y-95098157D01*
X184807809Y-94957809D01*
X184850000Y-94894666D01*
X184892191Y-94957809D01*
X185102235Y-95098157D01*
X185350000Y-95147440D01*
X185850000Y-95147440D01*
X186097765Y-95098157D01*
X186250000Y-94996436D01*
X186402235Y-95098157D01*
X186650000Y-95147440D01*
X187450000Y-95147440D01*
X187697765Y-95098157D01*
X187907809Y-94957809D01*
X188048157Y-94747765D01*
X188097440Y-94500000D01*
X188097440Y-93700000D01*
X188048157Y-93452235D01*
X187907809Y-93242191D01*
X187697765Y-93101843D01*
X187450000Y-93052560D01*
X186650000Y-93052560D01*
X186402235Y-93101843D01*
X186250000Y-93203564D01*
X186097765Y-93101843D01*
X185850000Y-93052560D01*
X185350000Y-93052560D01*
X185102235Y-93101843D01*
X184892191Y-93242191D01*
X184850000Y-93305334D01*
X184807809Y-93242191D01*
X184597765Y-93101843D01*
X184350000Y-93052560D01*
X183850000Y-93052560D01*
X183602235Y-93101843D01*
X183392191Y-93242191D01*
X183376950Y-93265000D01*
X169478711Y-93265000D01*
X169436280Y-93222569D01*
X169261083Y-93150000D01*
X169436280Y-93077431D01*
X169553711Y-92960000D01*
X184000153Y-92960000D01*
X184075000Y-92974888D01*
X184149847Y-92960000D01*
X184149852Y-92960000D01*
X184371537Y-92915904D01*
X184622929Y-92747929D01*
X184665331Y-92684470D01*
X186977363Y-90372440D01*
X187550000Y-90372440D01*
X187797765Y-90323157D01*
X188007809Y-90182809D01*
X188148157Y-89972765D01*
X188197440Y-89725000D01*
X188197440Y-88275000D01*
X188148157Y-88027235D01*
X188007809Y-87817191D01*
X187797765Y-87676843D01*
X187550000Y-87627560D01*
X186550000Y-87627560D01*
X186302235Y-87676843D01*
X186092191Y-87817191D01*
X185951843Y-88027235D01*
X185902560Y-88275000D01*
X185902560Y-89297637D01*
X183760199Y-91440000D01*
X169553711Y-91440000D01*
X169436280Y-91322569D01*
X169055874Y-91165000D01*
X168644126Y-91165000D01*
X168263720Y-91322569D01*
X167972569Y-91613720D01*
X167875000Y-91849273D01*
X167777431Y-91613720D01*
X167486280Y-91322569D01*
X167227000Y-91215172D01*
X167227000Y-90004428D01*
X167248157Y-89972765D01*
X167297440Y-89725000D01*
X167297440Y-88275000D01*
X167248157Y-88027235D01*
X167107809Y-87817191D01*
X166897765Y-87676843D01*
X166650000Y-87627560D01*
X165650000Y-87627560D01*
X165402235Y-87676843D01*
X165192191Y-87817191D01*
X165051843Y-88027235D01*
X165009522Y-88240000D01*
X160313435Y-88240000D01*
X160238587Y-88225112D01*
X160163739Y-88240000D01*
X160163735Y-88240000D01*
X159942050Y-88284096D01*
X159690658Y-88452071D01*
X159648258Y-88515527D01*
X158090785Y-90073000D01*
X153600000Y-90073000D01*
X153551399Y-90082667D01*
X153531906Y-90095692D01*
X151951744Y-88515530D01*
X151909342Y-88452071D01*
X151657950Y-88284096D01*
X151436265Y-88240000D01*
X151436260Y-88240000D01*
X151361413Y-88225112D01*
X151286566Y-88240000D01*
X146590478Y-88240000D01*
X146548157Y-88027235D01*
X146407809Y-87817191D01*
X146197765Y-87676843D01*
X145950000Y-87627560D01*
X144950000Y-87627560D01*
X144702235Y-87676843D01*
X144492191Y-87817191D01*
X144351843Y-88027235D01*
X144302560Y-88275000D01*
X144302560Y-89725000D01*
X144351843Y-89972765D01*
X144373000Y-90004428D01*
X144373000Y-90748014D01*
X144313720Y-90772569D01*
X144022569Y-91063720D01*
X143865000Y-91444126D01*
X143685000Y-91444126D01*
X143527431Y-91063720D01*
X143236280Y-90772569D01*
X142855874Y-90615000D01*
X142444126Y-90615000D01*
X142063720Y-90772569D01*
X141946289Y-90890000D01*
X127289802Y-90890000D01*
X125697440Y-89297639D01*
X125697440Y-88275000D01*
X125648157Y-88027235D01*
X125507809Y-87817191D01*
X125297765Y-87676843D01*
X125050000Y-87627560D01*
X124050000Y-87627560D01*
X123802235Y-87676843D01*
X123592191Y-87817191D01*
X123451843Y-88027235D01*
X123402560Y-88275000D01*
X121410000Y-88275000D01*
X121410000Y-87110000D01*
X190190000Y-87110000D01*
X190190001Y-95690000D01*
G36*
X166288849Y-93052560D02*
X165700000Y-93052560D01*
X165452235Y-93101843D01*
X165325000Y-93186859D01*
X165197765Y-93101843D01*
X164950000Y-93052560D01*
X164450000Y-93052560D01*
X164202235Y-93101843D01*
X163992191Y-93242191D01*
X163950000Y-93305334D01*
X163907809Y-93242191D01*
X163697765Y-93101843D01*
X163450000Y-93052560D01*
X162950000Y-93052560D01*
X162702235Y-93101843D01*
X162584593Y-93180449D01*
X162305874Y-93065000D01*
X161894126Y-93065000D01*
X161513720Y-93222569D01*
X161481401Y-93254888D01*
X161450000Y-93248642D01*
X161367763Y-93265000D01*
X161127000Y-93312891D01*
X161127000Y-92960000D01*
X166196289Y-92960000D01*
X166288849Y-93052560D01*
X166288849Y-93052560D01*
G37*
X166288849Y-93052560D02*
X165700000Y-93052560D01*
X165452235Y-93101843D01*
X165325000Y-93186859D01*
X165197765Y-93101843D01*
X164950000Y-93052560D01*
X164450000Y-93052560D01*
X164202235Y-93101843D01*
X163992191Y-93242191D01*
X163950000Y-93305334D01*
X163907809Y-93242191D01*
X163697765Y-93101843D01*
X163450000Y-93052560D01*
X162950000Y-93052560D01*
X162702235Y-93101843D01*
X162584593Y-93180449D01*
X162305874Y-93065000D01*
X161894126Y-93065000D01*
X161513720Y-93222569D01*
X161481401Y-93254888D01*
X161450000Y-93248642D01*
X161367763Y-93265000D01*
X161127000Y-93312891D01*
X161127000Y-92960000D01*
X166196289Y-92960000D01*
X166288849Y-93052560D01*
G36*
X175073000Y-62274812D02*
X175065000Y-62294126D01*
X175065000Y-62705874D01*
X175222569Y-63086280D01*
X175513720Y-63377431D01*
X175855039Y-63518810D01*
X175860965Y-63548601D01*
X175871922Y-63565000D01*
X169927000Y-63565000D01*
X169927000Y-62614427D01*
X169935000Y-62595113D01*
X169935000Y-62350547D01*
X169955000Y-62250000D01*
X169935000Y-62149453D01*
X169935000Y-61904887D01*
X169927000Y-61885573D01*
X169927000Y-60935000D01*
X175073000Y-60935000D01*
X175073000Y-62274812D01*
X175073000Y-62274812D01*
G37*
X175073000Y-62274812D02*
X175065000Y-62294126D01*
X175065000Y-62705874D01*
X175222569Y-63086280D01*
X175513720Y-63377431D01*
X175855039Y-63518810D01*
X175860965Y-63548601D01*
X175871922Y-63565000D01*
X169927000Y-63565000D01*
X169927000Y-62614427D01*
X169935000Y-62595113D01*
X169935000Y-62350547D01*
X169955000Y-62250000D01*
X169935000Y-62149453D01*
X169935000Y-61904887D01*
X169927000Y-61885573D01*
X169927000Y-60935000D01*
X175073000Y-60935000D01*
X175073000Y-62274812D01*
G36*
X179327000Y-61073000D02*
X179347000Y-61073000D01*
X179347000Y-61327000D01*
X179327000Y-61327000D01*
X179327000Y-61347000D01*
X179073000Y-61347000D01*
X179073000Y-61327000D01*
X179053000Y-61327000D01*
X179053000Y-61073000D01*
X179073000Y-61073000D01*
X179073000Y-61053000D01*
X179327000Y-61053000D01*
X179327000Y-61073000D01*
X179327000Y-61073000D01*
G37*
X179327000Y-61073000D02*
X179347000Y-61073000D01*
X179347000Y-61327000D01*
X179327000Y-61327000D01*
X179327000Y-61347000D01*
X179073000Y-61347000D01*
X179073000Y-61327000D01*
X179053000Y-61327000D01*
X179053000Y-61073000D01*
X179073000Y-61073000D01*
X179073000Y-61053000D01*
X179327000Y-61053000D01*
X179327000Y-61073000D01*
G36*
X129873000Y-62274812D02*
X129865000Y-62294126D01*
X129865000Y-62705874D01*
X130022569Y-63086280D01*
X130313720Y-63377431D01*
X130655039Y-63518810D01*
X130660965Y-63548601D01*
X130671922Y-63565000D01*
X124727000Y-63565000D01*
X124727000Y-62614427D01*
X124735000Y-62595113D01*
X124735000Y-62350547D01*
X124755000Y-62250000D01*
X124735000Y-62149453D01*
X124735000Y-61904887D01*
X124727000Y-61885573D01*
X124727000Y-60935000D01*
X129873000Y-60935000D01*
X129873000Y-62274812D01*
X129873000Y-62274812D01*
G37*
X129873000Y-62274812D02*
X129865000Y-62294126D01*
X129865000Y-62705874D01*
X130022569Y-63086280D01*
X130313720Y-63377431D01*
X130655039Y-63518810D01*
X130660965Y-63548601D01*
X130671922Y-63565000D01*
X124727000Y-63565000D01*
X124727000Y-62614427D01*
X124735000Y-62595113D01*
X124735000Y-62350547D01*
X124755000Y-62250000D01*
X124735000Y-62149453D01*
X124735000Y-61904887D01*
X124727000Y-61885573D01*
X124727000Y-60935000D01*
X129873000Y-60935000D01*
X129873000Y-62274812D01*
G36*
X134127000Y-61073000D02*
X134147000Y-61073000D01*
X134147000Y-61327000D01*
X134127000Y-61327000D01*
X134127000Y-61347000D01*
X133873000Y-61347000D01*
X133873000Y-61327000D01*
X133853000Y-61327000D01*
X133853000Y-61073000D01*
X133873000Y-61073000D01*
X133873000Y-61053000D01*
X134127000Y-61053000D01*
X134127000Y-61073000D01*
X134127000Y-61073000D01*
G37*
X134127000Y-61073000D02*
X134147000Y-61073000D01*
X134147000Y-61327000D01*
X134127000Y-61327000D01*
X134127000Y-61347000D01*
X133873000Y-61347000D01*
X133873000Y-61327000D01*
X133853000Y-61327000D01*
X133853000Y-61073000D01*
X133873000Y-61073000D01*
X133873000Y-61053000D01*
X134127000Y-61053000D01*
X134127000Y-61073000D01*
G36*
X190190001Y-74790000D02*
X169669920Y-74790000D01*
X169599999Y-74776092D01*
X169530078Y-74790000D01*
X169530074Y-74790000D01*
X169322972Y-74831195D01*
X169088119Y-74988119D01*
X169048508Y-75047401D01*
X165005910Y-79090000D01*
X146594091Y-79090000D01*
X143458978Y-75954887D01*
X146865000Y-75954887D01*
X146865000Y-76645113D01*
X147129138Y-77282799D01*
X147617201Y-77770862D01*
X148254887Y-78035000D01*
X148945113Y-78035000D01*
X149582799Y-77770862D01*
X150070862Y-77282799D01*
X150335000Y-76645113D01*
X150335000Y-75954887D01*
X150070862Y-75317201D01*
X149582799Y-74829138D01*
X148945113Y-74565000D01*
X148254887Y-74565000D01*
X147617201Y-74829138D01*
X147129138Y-75317201D01*
X146865000Y-75954887D01*
X143458978Y-75954887D01*
X142551494Y-75047404D01*
X142511881Y-74988119D01*
X142277028Y-74831195D01*
X142069926Y-74790000D01*
X142069924Y-74790000D01*
X142000000Y-74776091D01*
X141930076Y-74790000D01*
X121410000Y-74790000D01*
X121410000Y-72850000D01*
X123452560Y-72850000D01*
X123452560Y-73650000D01*
X123501843Y-73897765D01*
X123642191Y-74107809D01*
X123852235Y-74248157D01*
X124100000Y-74297440D01*
X124900000Y-74297440D01*
X125147765Y-74248157D01*
X125325000Y-74129731D01*
X125502235Y-74248157D01*
X125750000Y-74297440D01*
X126250000Y-74297440D01*
X126497765Y-74248157D01*
X126707809Y-74107809D01*
X126750000Y-74044666D01*
X126792191Y-74107809D01*
X127002235Y-74248157D01*
X127250000Y-74297440D01*
X127750000Y-74297440D01*
X127997765Y-74248157D01*
X128207809Y-74107809D01*
X128223050Y-74085000D01*
X141821289Y-74085000D01*
X141863720Y-74127431D01*
X142244126Y-74285000D01*
X142655874Y-74285000D01*
X143036280Y-74127431D01*
X143327431Y-73836280D01*
X143485000Y-73455874D01*
X143485000Y-73044126D01*
X143327431Y-72663720D01*
X143036280Y-72372569D01*
X142655874Y-72215000D01*
X142244126Y-72215000D01*
X141863720Y-72372569D01*
X141821289Y-72415000D01*
X128223050Y-72415000D01*
X128207809Y-72392191D01*
X127997765Y-72251843D01*
X127750000Y-72202560D01*
X127250000Y-72202560D01*
X127002235Y-72251843D01*
X126792191Y-72392191D01*
X126750000Y-72455334D01*
X126707809Y-72392191D01*
X126497765Y-72251843D01*
X126250000Y-72202560D01*
X125750000Y-72202560D01*
X125502235Y-72251843D01*
X125325000Y-72370269D01*
X125147765Y-72251843D01*
X124900000Y-72202560D01*
X124100000Y-72202560D01*
X123852235Y-72251843D01*
X123642191Y-72392191D01*
X123501843Y-72602235D01*
X123452560Y-72850000D01*
X121410000Y-72850000D01*
X121410000Y-67375000D01*
X123402560Y-67375000D01*
X123402560Y-68825000D01*
X123451843Y-69072765D01*
X123592191Y-69282809D01*
X123802235Y-69423157D01*
X124050000Y-69472440D01*
X124622639Y-69472440D01*
X126384670Y-71234472D01*
X126427071Y-71297929D01*
X126678463Y-71465904D01*
X126900148Y-71510000D01*
X126900153Y-71510000D01*
X126975000Y-71524888D01*
X127049847Y-71510000D01*
X141946289Y-71510000D01*
X142063720Y-71627431D01*
X142444126Y-71785000D01*
X142855874Y-71785000D01*
X143236280Y-71627431D01*
X143527431Y-71336280D01*
X143685000Y-70955874D01*
X143685000Y-70544126D01*
X143865000Y-70544126D01*
X143865000Y-70955874D01*
X144022569Y-71336280D01*
X144313720Y-71627431D01*
X144694126Y-71785000D01*
X145105874Y-71785000D01*
X145486280Y-71627431D01*
X145603711Y-71510000D01*
X153060201Y-71510000D01*
X154287560Y-72737360D01*
X154287560Y-73615000D01*
X151545871Y-73615000D01*
X151035002Y-73104132D01*
X151035002Y-73044126D01*
X150877433Y-72663720D01*
X150586282Y-72372569D01*
X150205876Y-72215000D01*
X149794128Y-72215000D01*
X149413722Y-72372569D01*
X149371291Y-72415000D01*
X149123050Y-72415000D01*
X149107809Y-72392191D01*
X148897765Y-72251843D01*
X148650000Y-72202560D01*
X148150000Y-72202560D01*
X147902235Y-72251843D01*
X147692191Y-72392191D01*
X147650000Y-72455334D01*
X147607809Y-72392191D01*
X147397765Y-72251843D01*
X147150000Y-72202560D01*
X146650000Y-72202560D01*
X146402235Y-72251843D01*
X146225000Y-72370269D01*
X146047765Y-72251843D01*
X145800000Y-72202560D01*
X145000000Y-72202560D01*
X144752235Y-72251843D01*
X144542191Y-72392191D01*
X144401843Y-72602235D01*
X144352560Y-72850000D01*
X144352560Y-73650000D01*
X144401843Y-73897765D01*
X144542191Y-74107809D01*
X144752235Y-74248157D01*
X145000000Y-74297440D01*
X145800000Y-74297440D01*
X146047765Y-74248157D01*
X146225000Y-74129731D01*
X146402235Y-74248157D01*
X146650000Y-74297440D01*
X147150000Y-74297440D01*
X147397765Y-74248157D01*
X147607809Y-74107809D01*
X147650000Y-74044666D01*
X147692191Y-74107809D01*
X147902235Y-74248157D01*
X148150000Y-74297440D01*
X148650000Y-74297440D01*
X148897765Y-74248157D01*
X149107809Y-74107809D01*
X149123050Y-74085000D01*
X149371291Y-74085000D01*
X149413722Y-74127431D01*
X149794128Y-74285000D01*
X149854134Y-74285000D01*
X150551418Y-74982285D01*
X150598001Y-75052001D01*
X150652560Y-75088456D01*
X150652560Y-76925000D01*
X150701843Y-77172765D01*
X150842191Y-77382809D01*
X151052235Y-77523157D01*
X151300000Y-77572440D01*
X153500000Y-77572440D01*
X153747765Y-77523157D01*
X153957809Y-77382809D01*
X154098157Y-77172765D01*
X154147440Y-76925000D01*
X154147440Y-75285000D01*
X157217763Y-75285000D01*
X157300000Y-75301358D01*
X157382237Y-75285000D01*
X157402560Y-75285000D01*
X157402560Y-76925000D01*
X157451843Y-77172765D01*
X157592191Y-77382809D01*
X157802235Y-77523157D01*
X158050000Y-77572440D01*
X160250000Y-77572440D01*
X160497765Y-77523157D01*
X160707809Y-77382809D01*
X160848157Y-77172765D01*
X160897440Y-76925000D01*
X160897440Y-75954887D01*
X161265000Y-75954887D01*
X161265000Y-76645113D01*
X161529138Y-77282799D01*
X162017201Y-77770862D01*
X162654887Y-78035000D01*
X163345113Y-78035000D01*
X163982799Y-77770862D01*
X164470862Y-77282799D01*
X164735000Y-76645113D01*
X164735000Y-75954887D01*
X164470862Y-75317201D01*
X163982799Y-74829138D01*
X163345113Y-74565000D01*
X162654887Y-74565000D01*
X162017201Y-74829138D01*
X161529138Y-75317201D01*
X161265000Y-75954887D01*
X160897440Y-75954887D01*
X160897440Y-74933427D01*
X161683225Y-74147642D01*
X161894126Y-74235000D01*
X162305874Y-74235000D01*
X162584593Y-74119551D01*
X162702235Y-74198157D01*
X162950000Y-74247440D01*
X163450000Y-74247440D01*
X163697765Y-74198157D01*
X163907809Y-74057809D01*
X163950000Y-73994666D01*
X163992191Y-74057809D01*
X164202235Y-74198157D01*
X164450000Y-74247440D01*
X164950000Y-74247440D01*
X165197765Y-74198157D01*
X165325000Y-74113141D01*
X165452235Y-74198157D01*
X165700000Y-74247440D01*
X166500000Y-74247440D01*
X166747765Y-74198157D01*
X166957809Y-74057809D01*
X167098157Y-73847765D01*
X167147440Y-73600000D01*
X167147440Y-72800000D01*
X167098157Y-72552235D01*
X166957809Y-72342191D01*
X166947047Y-72335000D01*
X167105874Y-72335000D01*
X167486280Y-72177431D01*
X167777431Y-71886280D01*
X167875000Y-71650727D01*
X167972569Y-71886280D01*
X168263720Y-72177431D01*
X168438917Y-72250000D01*
X168263720Y-72322569D01*
X167972569Y-72613720D01*
X167815000Y-72994126D01*
X167815000Y-73405874D01*
X167972569Y-73786280D01*
X168263720Y-74077431D01*
X168644126Y-74235000D01*
X169055874Y-74235000D01*
X169436280Y-74077431D01*
X169478711Y-74035000D01*
X183376950Y-74035000D01*
X183392191Y-74057809D01*
X183602235Y-74198157D01*
X183850000Y-74247440D01*
X184350000Y-74247440D01*
X184597765Y-74198157D01*
X184807809Y-74057809D01*
X184850000Y-73994666D01*
X184892191Y-74057809D01*
X185102235Y-74198157D01*
X185350000Y-74247440D01*
X185850000Y-74247440D01*
X186097765Y-74198157D01*
X186250000Y-74096436D01*
X186402235Y-74198157D01*
X186650000Y-74247440D01*
X187450000Y-74247440D01*
X187697765Y-74198157D01*
X187907809Y-74057809D01*
X188048157Y-73847765D01*
X188097440Y-73600000D01*
X188097440Y-72800000D01*
X188048157Y-72552235D01*
X187907809Y-72342191D01*
X187697765Y-72201843D01*
X187450000Y-72152560D01*
X186650000Y-72152560D01*
X186402235Y-72201843D01*
X186250000Y-72303564D01*
X186097765Y-72201843D01*
X185850000Y-72152560D01*
X185350000Y-72152560D01*
X185102235Y-72201843D01*
X184892191Y-72342191D01*
X184850000Y-72405334D01*
X184807809Y-72342191D01*
X184597765Y-72201843D01*
X184350000Y-72152560D01*
X183850000Y-72152560D01*
X183602235Y-72201843D01*
X183392191Y-72342191D01*
X183376950Y-72365000D01*
X169478711Y-72365000D01*
X169436280Y-72322569D01*
X169261083Y-72250000D01*
X169436280Y-72177431D01*
X169553711Y-72060000D01*
X184000153Y-72060000D01*
X184075000Y-72074888D01*
X184149847Y-72060000D01*
X184149852Y-72060000D01*
X184371537Y-72015904D01*
X184622929Y-71847929D01*
X184665331Y-71784470D01*
X186977363Y-69472440D01*
X187550000Y-69472440D01*
X187797765Y-69423157D01*
X188007809Y-69282809D01*
X188148157Y-69072765D01*
X188197440Y-68825000D01*
X188197440Y-67375000D01*
X188148157Y-67127235D01*
X188007809Y-66917191D01*
X187797765Y-66776843D01*
X187550000Y-66727560D01*
X186550000Y-66727560D01*
X186302235Y-66776843D01*
X186092191Y-66917191D01*
X185951843Y-67127235D01*
X185902560Y-67375000D01*
X185902560Y-68397637D01*
X183760199Y-70540000D01*
X169553711Y-70540000D01*
X169436280Y-70422569D01*
X169055874Y-70265000D01*
X168644126Y-70265000D01*
X168263720Y-70422569D01*
X167972569Y-70713720D01*
X167875000Y-70949273D01*
X167777431Y-70713720D01*
X167486280Y-70422569D01*
X167227000Y-70315172D01*
X167227000Y-69104428D01*
X167248157Y-69072765D01*
X167297440Y-68825000D01*
X167297440Y-67375000D01*
X167248157Y-67127235D01*
X167107809Y-66917191D01*
X166897765Y-66776843D01*
X166650000Y-66727560D01*
X165650000Y-66727560D01*
X165402235Y-66776843D01*
X165192191Y-66917191D01*
X165051843Y-67127235D01*
X165009522Y-67340000D01*
X160313435Y-67340000D01*
X160238587Y-67325112D01*
X160163739Y-67340000D01*
X160163735Y-67340000D01*
X159942050Y-67384096D01*
X159690658Y-67552071D01*
X159648258Y-67615527D01*
X158090785Y-69173000D01*
X153600000Y-69173000D01*
X153551399Y-69182667D01*
X153531906Y-69195692D01*
X151951744Y-67615530D01*
X151909342Y-67552071D01*
X151657950Y-67384096D01*
X151436265Y-67340000D01*
X151436260Y-67340000D01*
X151361413Y-67325112D01*
X151286566Y-67340000D01*
X146590478Y-67340000D01*
X146548157Y-67127235D01*
X146407809Y-66917191D01*
X146197765Y-66776843D01*
X145950000Y-66727560D01*
X144950000Y-66727560D01*
X144702235Y-66776843D01*
X144492191Y-66917191D01*
X144351843Y-67127235D01*
X144302560Y-67375000D01*
X144302560Y-68825000D01*
X144351843Y-69072765D01*
X144373000Y-69104428D01*
X144373000Y-69848014D01*
X144313720Y-69872569D01*
X144022569Y-70163720D01*
X143865000Y-70544126D01*
X143685000Y-70544126D01*
X143527431Y-70163720D01*
X143236280Y-69872569D01*
X142855874Y-69715000D01*
X142444126Y-69715000D01*
X142063720Y-69872569D01*
X141946289Y-69990000D01*
X127289802Y-69990000D01*
X125697440Y-68397639D01*
X125697440Y-67375000D01*
X125648157Y-67127235D01*
X125507809Y-66917191D01*
X125297765Y-66776843D01*
X125050000Y-66727560D01*
X124050000Y-66727560D01*
X123802235Y-66776843D01*
X123592191Y-66917191D01*
X123451843Y-67127235D01*
X123402560Y-67375000D01*
X121410000Y-67375000D01*
X121410000Y-66210000D01*
X190190000Y-66210000D01*
X190190001Y-74790000D01*
X190190001Y-74790000D01*
G37*
X190190001Y-74790000D02*
X169669920Y-74790000D01*
X169599999Y-74776092D01*
X169530078Y-74790000D01*
X169530074Y-74790000D01*
X169322972Y-74831195D01*
X169088119Y-74988119D01*
X169048508Y-75047401D01*
X165005910Y-79090000D01*
X146594091Y-79090000D01*
X143458978Y-75954887D01*
X146865000Y-75954887D01*
X146865000Y-76645113D01*
X147129138Y-77282799D01*
X147617201Y-77770862D01*
X148254887Y-78035000D01*
X148945113Y-78035000D01*
X149582799Y-77770862D01*
X150070862Y-77282799D01*
X150335000Y-76645113D01*
X150335000Y-75954887D01*
X150070862Y-75317201D01*
X149582799Y-74829138D01*
X148945113Y-74565000D01*
X148254887Y-74565000D01*
X147617201Y-74829138D01*
X147129138Y-75317201D01*
X146865000Y-75954887D01*
X143458978Y-75954887D01*
X142551494Y-75047404D01*
X142511881Y-74988119D01*
X142277028Y-74831195D01*
X142069926Y-74790000D01*
X142069924Y-74790000D01*
X142000000Y-74776091D01*
X141930076Y-74790000D01*
X121410000Y-74790000D01*
X121410000Y-72850000D01*
X123452560Y-72850000D01*
X123452560Y-73650000D01*
X123501843Y-73897765D01*
X123642191Y-74107809D01*
X123852235Y-74248157D01*
X124100000Y-74297440D01*
X124900000Y-74297440D01*
X125147765Y-74248157D01*
X125325000Y-74129731D01*
X125502235Y-74248157D01*
X125750000Y-74297440D01*
X126250000Y-74297440D01*
X126497765Y-74248157D01*
X126707809Y-74107809D01*
X126750000Y-74044666D01*
X126792191Y-74107809D01*
X127002235Y-74248157D01*
X127250000Y-74297440D01*
X127750000Y-74297440D01*
X127997765Y-74248157D01*
X128207809Y-74107809D01*
X128223050Y-74085000D01*
X141821289Y-74085000D01*
X141863720Y-74127431D01*
X142244126Y-74285000D01*
X142655874Y-74285000D01*
X143036280Y-74127431D01*
X143327431Y-73836280D01*
X143485000Y-73455874D01*
X143485000Y-73044126D01*
X143327431Y-72663720D01*
X143036280Y-72372569D01*
X142655874Y-72215000D01*
X142244126Y-72215000D01*
X141863720Y-72372569D01*
X141821289Y-72415000D01*
X128223050Y-72415000D01*
X128207809Y-72392191D01*
X127997765Y-72251843D01*
X127750000Y-72202560D01*
X127250000Y-72202560D01*
X127002235Y-72251843D01*
X126792191Y-72392191D01*
X126750000Y-72455334D01*
X126707809Y-72392191D01*
X126497765Y-72251843D01*
X126250000Y-72202560D01*
X125750000Y-72202560D01*
X125502235Y-72251843D01*
X125325000Y-72370269D01*
X125147765Y-72251843D01*
X124900000Y-72202560D01*
X124100000Y-72202560D01*
X123852235Y-72251843D01*
X123642191Y-72392191D01*
X123501843Y-72602235D01*
X123452560Y-72850000D01*
X121410000Y-72850000D01*
X121410000Y-67375000D01*
X123402560Y-67375000D01*
X123402560Y-68825000D01*
X123451843Y-69072765D01*
X123592191Y-69282809D01*
X123802235Y-69423157D01*
X124050000Y-69472440D01*
X124622639Y-69472440D01*
X126384670Y-71234472D01*
X126427071Y-71297929D01*
X126678463Y-71465904D01*
X126900148Y-71510000D01*
X126900153Y-71510000D01*
X126975000Y-71524888D01*
X127049847Y-71510000D01*
X141946289Y-71510000D01*
X142063720Y-71627431D01*
X142444126Y-71785000D01*
X142855874Y-71785000D01*
X143236280Y-71627431D01*
X143527431Y-71336280D01*
X143685000Y-70955874D01*
X143685000Y-70544126D01*
X143865000Y-70544126D01*
X143865000Y-70955874D01*
X144022569Y-71336280D01*
X144313720Y-71627431D01*
X144694126Y-71785000D01*
X145105874Y-71785000D01*
X145486280Y-71627431D01*
X145603711Y-71510000D01*
X153060201Y-71510000D01*
X154287560Y-72737360D01*
X154287560Y-73615000D01*
X151545871Y-73615000D01*
X151035002Y-73104132D01*
X151035002Y-73044126D01*
X150877433Y-72663720D01*
X150586282Y-72372569D01*
X150205876Y-72215000D01*
X149794128Y-72215000D01*
X149413722Y-72372569D01*
X149371291Y-72415000D01*
X149123050Y-72415000D01*
X149107809Y-72392191D01*
X148897765Y-72251843D01*
X148650000Y-72202560D01*
X148150000Y-72202560D01*
X147902235Y-72251843D01*
X147692191Y-72392191D01*
X147650000Y-72455334D01*
X147607809Y-72392191D01*
X147397765Y-72251843D01*
X147150000Y-72202560D01*
X146650000Y-72202560D01*
X146402235Y-72251843D01*
X146225000Y-72370269D01*
X146047765Y-72251843D01*
X145800000Y-72202560D01*
X145000000Y-72202560D01*
X144752235Y-72251843D01*
X144542191Y-72392191D01*
X144401843Y-72602235D01*
X144352560Y-72850000D01*
X144352560Y-73650000D01*
X144401843Y-73897765D01*
X144542191Y-74107809D01*
X144752235Y-74248157D01*
X145000000Y-74297440D01*
X145800000Y-74297440D01*
X146047765Y-74248157D01*
X146225000Y-74129731D01*
X146402235Y-74248157D01*
X146650000Y-74297440D01*
X147150000Y-74297440D01*
X147397765Y-74248157D01*
X147607809Y-74107809D01*
X147650000Y-74044666D01*
X147692191Y-74107809D01*
X147902235Y-74248157D01*
X148150000Y-74297440D01*
X148650000Y-74297440D01*
X148897765Y-74248157D01*
X149107809Y-74107809D01*
X149123050Y-74085000D01*
X149371291Y-74085000D01*
X149413722Y-74127431D01*
X149794128Y-74285000D01*
X149854134Y-74285000D01*
X150551418Y-74982285D01*
X150598001Y-75052001D01*
X150652560Y-75088456D01*
X150652560Y-76925000D01*
X150701843Y-77172765D01*
X150842191Y-77382809D01*
X151052235Y-77523157D01*
X151300000Y-77572440D01*
X153500000Y-77572440D01*
X153747765Y-77523157D01*
X153957809Y-77382809D01*
X154098157Y-77172765D01*
X154147440Y-76925000D01*
X154147440Y-75285000D01*
X157217763Y-75285000D01*
X157300000Y-75301358D01*
X157382237Y-75285000D01*
X157402560Y-75285000D01*
X157402560Y-76925000D01*
X157451843Y-77172765D01*
X157592191Y-77382809D01*
X157802235Y-77523157D01*
X158050000Y-77572440D01*
X160250000Y-77572440D01*
X160497765Y-77523157D01*
X160707809Y-77382809D01*
X160848157Y-77172765D01*
X160897440Y-76925000D01*
X160897440Y-75954887D01*
X161265000Y-75954887D01*
X161265000Y-76645113D01*
X161529138Y-77282799D01*
X162017201Y-77770862D01*
X162654887Y-78035000D01*
X163345113Y-78035000D01*
X163982799Y-77770862D01*
X164470862Y-77282799D01*
X164735000Y-76645113D01*
X164735000Y-75954887D01*
X164470862Y-75317201D01*
X163982799Y-74829138D01*
X163345113Y-74565000D01*
X162654887Y-74565000D01*
X162017201Y-74829138D01*
X161529138Y-75317201D01*
X161265000Y-75954887D01*
X160897440Y-75954887D01*
X160897440Y-74933427D01*
X161683225Y-74147642D01*
X161894126Y-74235000D01*
X162305874Y-74235000D01*
X162584593Y-74119551D01*
X162702235Y-74198157D01*
X162950000Y-74247440D01*
X163450000Y-74247440D01*
X163697765Y-74198157D01*
X163907809Y-74057809D01*
X163950000Y-73994666D01*
X163992191Y-74057809D01*
X164202235Y-74198157D01*
X164450000Y-74247440D01*
X164950000Y-74247440D01*
X165197765Y-74198157D01*
X165325000Y-74113141D01*
X165452235Y-74198157D01*
X165700000Y-74247440D01*
X166500000Y-74247440D01*
X166747765Y-74198157D01*
X166957809Y-74057809D01*
X167098157Y-73847765D01*
X167147440Y-73600000D01*
X167147440Y-72800000D01*
X167098157Y-72552235D01*
X166957809Y-72342191D01*
X166947047Y-72335000D01*
X167105874Y-72335000D01*
X167486280Y-72177431D01*
X167777431Y-71886280D01*
X167875000Y-71650727D01*
X167972569Y-71886280D01*
X168263720Y-72177431D01*
X168438917Y-72250000D01*
X168263720Y-72322569D01*
X167972569Y-72613720D01*
X167815000Y-72994126D01*
X167815000Y-73405874D01*
X167972569Y-73786280D01*
X168263720Y-74077431D01*
X168644126Y-74235000D01*
X169055874Y-74235000D01*
X169436280Y-74077431D01*
X169478711Y-74035000D01*
X183376950Y-74035000D01*
X183392191Y-74057809D01*
X183602235Y-74198157D01*
X183850000Y-74247440D01*
X184350000Y-74247440D01*
X184597765Y-74198157D01*
X184807809Y-74057809D01*
X184850000Y-73994666D01*
X184892191Y-74057809D01*
X185102235Y-74198157D01*
X185350000Y-74247440D01*
X185850000Y-74247440D01*
X186097765Y-74198157D01*
X186250000Y-74096436D01*
X186402235Y-74198157D01*
X186650000Y-74247440D01*
X187450000Y-74247440D01*
X187697765Y-74198157D01*
X187907809Y-74057809D01*
X188048157Y-73847765D01*
X188097440Y-73600000D01*
X188097440Y-72800000D01*
X188048157Y-72552235D01*
X187907809Y-72342191D01*
X187697765Y-72201843D01*
X187450000Y-72152560D01*
X186650000Y-72152560D01*
X186402235Y-72201843D01*
X186250000Y-72303564D01*
X186097765Y-72201843D01*
X185850000Y-72152560D01*
X185350000Y-72152560D01*
X185102235Y-72201843D01*
X184892191Y-72342191D01*
X184850000Y-72405334D01*
X184807809Y-72342191D01*
X184597765Y-72201843D01*
X184350000Y-72152560D01*
X183850000Y-72152560D01*
X183602235Y-72201843D01*
X183392191Y-72342191D01*
X183376950Y-72365000D01*
X169478711Y-72365000D01*
X169436280Y-72322569D01*
X169261083Y-72250000D01*
X169436280Y-72177431D01*
X169553711Y-72060000D01*
X184000153Y-72060000D01*
X184075000Y-72074888D01*
X184149847Y-72060000D01*
X184149852Y-72060000D01*
X184371537Y-72015904D01*
X184622929Y-71847929D01*
X184665331Y-71784470D01*
X186977363Y-69472440D01*
X187550000Y-69472440D01*
X187797765Y-69423157D01*
X188007809Y-69282809D01*
X188148157Y-69072765D01*
X188197440Y-68825000D01*
X188197440Y-67375000D01*
X188148157Y-67127235D01*
X188007809Y-66917191D01*
X187797765Y-66776843D01*
X187550000Y-66727560D01*
X186550000Y-66727560D01*
X186302235Y-66776843D01*
X186092191Y-66917191D01*
X185951843Y-67127235D01*
X185902560Y-67375000D01*
X185902560Y-68397637D01*
X183760199Y-70540000D01*
X169553711Y-70540000D01*
X169436280Y-70422569D01*
X169055874Y-70265000D01*
X168644126Y-70265000D01*
X168263720Y-70422569D01*
X167972569Y-70713720D01*
X167875000Y-70949273D01*
X167777431Y-70713720D01*
X167486280Y-70422569D01*
X167227000Y-70315172D01*
X167227000Y-69104428D01*
X167248157Y-69072765D01*
X167297440Y-68825000D01*
X167297440Y-67375000D01*
X167248157Y-67127235D01*
X167107809Y-66917191D01*
X166897765Y-66776843D01*
X166650000Y-66727560D01*
X165650000Y-66727560D01*
X165402235Y-66776843D01*
X165192191Y-66917191D01*
X165051843Y-67127235D01*
X165009522Y-67340000D01*
X160313435Y-67340000D01*
X160238587Y-67325112D01*
X160163739Y-67340000D01*
X160163735Y-67340000D01*
X159942050Y-67384096D01*
X159690658Y-67552071D01*
X159648258Y-67615527D01*
X158090785Y-69173000D01*
X153600000Y-69173000D01*
X153551399Y-69182667D01*
X153531906Y-69195692D01*
X151951744Y-67615530D01*
X151909342Y-67552071D01*
X151657950Y-67384096D01*
X151436265Y-67340000D01*
X151436260Y-67340000D01*
X151361413Y-67325112D01*
X151286566Y-67340000D01*
X146590478Y-67340000D01*
X146548157Y-67127235D01*
X146407809Y-66917191D01*
X146197765Y-66776843D01*
X145950000Y-66727560D01*
X144950000Y-66727560D01*
X144702235Y-66776843D01*
X144492191Y-66917191D01*
X144351843Y-67127235D01*
X144302560Y-67375000D01*
X144302560Y-68825000D01*
X144351843Y-69072765D01*
X144373000Y-69104428D01*
X144373000Y-69848014D01*
X144313720Y-69872569D01*
X144022569Y-70163720D01*
X143865000Y-70544126D01*
X143685000Y-70544126D01*
X143527431Y-70163720D01*
X143236280Y-69872569D01*
X142855874Y-69715000D01*
X142444126Y-69715000D01*
X142063720Y-69872569D01*
X141946289Y-69990000D01*
X127289802Y-69990000D01*
X125697440Y-68397639D01*
X125697440Y-67375000D01*
X125648157Y-67127235D01*
X125507809Y-66917191D01*
X125297765Y-66776843D01*
X125050000Y-66727560D01*
X124050000Y-66727560D01*
X123802235Y-66776843D01*
X123592191Y-66917191D01*
X123451843Y-67127235D01*
X123402560Y-67375000D01*
X121410000Y-67375000D01*
X121410000Y-66210000D01*
X190190000Y-66210000D01*
X190190001Y-74790000D01*
G36*
X166288849Y-72152560D02*
X165700000Y-72152560D01*
X165452235Y-72201843D01*
X165325000Y-72286859D01*
X165197765Y-72201843D01*
X164950000Y-72152560D01*
X164450000Y-72152560D01*
X164202235Y-72201843D01*
X163992191Y-72342191D01*
X163950000Y-72405334D01*
X163907809Y-72342191D01*
X163697765Y-72201843D01*
X163450000Y-72152560D01*
X162950000Y-72152560D01*
X162702235Y-72201843D01*
X162584593Y-72280449D01*
X162305874Y-72165000D01*
X161894126Y-72165000D01*
X161513720Y-72322569D01*
X161481401Y-72354888D01*
X161450000Y-72348642D01*
X161367763Y-72365000D01*
X161127000Y-72412891D01*
X161127000Y-72060000D01*
X166196289Y-72060000D01*
X166288849Y-72152560D01*
X166288849Y-72152560D01*
G37*
X166288849Y-72152560D02*
X165700000Y-72152560D01*
X165452235Y-72201843D01*
X165325000Y-72286859D01*
X165197765Y-72201843D01*
X164950000Y-72152560D01*
X164450000Y-72152560D01*
X164202235Y-72201843D01*
X163992191Y-72342191D01*
X163950000Y-72405334D01*
X163907809Y-72342191D01*
X163697765Y-72201843D01*
X163450000Y-72152560D01*
X162950000Y-72152560D01*
X162702235Y-72201843D01*
X162584593Y-72280449D01*
X162305874Y-72165000D01*
X161894126Y-72165000D01*
X161513720Y-72322569D01*
X161481401Y-72354888D01*
X161450000Y-72348642D01*
X161367763Y-72365000D01*
X161127000Y-72412891D01*
X161127000Y-72060000D01*
X166196289Y-72060000D01*
X166288849Y-72152560D01*
G36*
X175073000Y-83174812D02*
X175065000Y-83194126D01*
X175065000Y-83605874D01*
X175222569Y-83986280D01*
X175513720Y-84277431D01*
X175855039Y-84418810D01*
X175860965Y-84448601D01*
X175871922Y-84465000D01*
X169927000Y-84465000D01*
X169927000Y-83514427D01*
X169935000Y-83495113D01*
X169935000Y-83250547D01*
X169955000Y-83150000D01*
X169935000Y-83049453D01*
X169935000Y-82804887D01*
X169927000Y-82785573D01*
X169927000Y-81835000D01*
X175073000Y-81835000D01*
X175073000Y-83174812D01*
X175073000Y-83174812D01*
G37*
X175073000Y-83174812D02*
X175065000Y-83194126D01*
X175065000Y-83605874D01*
X175222569Y-83986280D01*
X175513720Y-84277431D01*
X175855039Y-84418810D01*
X175860965Y-84448601D01*
X175871922Y-84465000D01*
X169927000Y-84465000D01*
X169927000Y-83514427D01*
X169935000Y-83495113D01*
X169935000Y-83250547D01*
X169955000Y-83150000D01*
X169935000Y-83049453D01*
X169935000Y-82804887D01*
X169927000Y-82785573D01*
X169927000Y-81835000D01*
X175073000Y-81835000D01*
X175073000Y-83174812D01*
G36*
X179327000Y-81973000D02*
X179347000Y-81973000D01*
X179347000Y-82227000D01*
X179327000Y-82227000D01*
X179327000Y-82247000D01*
X179073000Y-82247000D01*
X179073000Y-82227000D01*
X179053000Y-82227000D01*
X179053000Y-81973000D01*
X179073000Y-81973000D01*
X179073000Y-81953000D01*
X179327000Y-81953000D01*
X179327000Y-81973000D01*
X179327000Y-81973000D01*
G37*
X179327000Y-81973000D02*
X179347000Y-81973000D01*
X179347000Y-82227000D01*
X179327000Y-82227000D01*
X179327000Y-82247000D01*
X179073000Y-82247000D01*
X179073000Y-82227000D01*
X179053000Y-82227000D01*
X179053000Y-81973000D01*
X179073000Y-81973000D01*
X179073000Y-81953000D01*
X179327000Y-81953000D01*
X179327000Y-81973000D01*
M02*
