M48
;DRILL file {KiCad (5.0.0)} date 07/10/19 13:08:18
;FORMAT={-:-/ absolute / metric / decimal}
FMAT,2
METRIC,TZ
T1C0.400
T2C2.200
%
G90
G05
M71
T1
X122.95Y-71.
X122.95Y-91.9
X122.95Y-112.4
X122.95Y-132.8
X125.6Y-62.2
X125.6Y-83.1
X125.6Y-103.6
X125.6Y-124.
X128.4Y-62.5
X128.4Y-83.4
X128.4Y-103.9
X128.4Y-124.3
X130.9Y-62.5
X130.9Y-83.4
X130.9Y-103.9
X130.9Y-124.3
X133.8Y-68.
X133.8Y-88.9
X133.8Y-109.4
X133.8Y-129.8
X135.5Y-61.5
X135.5Y-82.4
X135.5Y-102.9
X135.5Y-123.3
X142.45Y-73.25
X142.45Y-94.15
X142.45Y-114.65
X142.45Y-135.05
X142.65Y-70.75
X142.65Y-91.65
X142.65Y-112.15
X142.65Y-132.55
X144.9Y-70.75
X144.9Y-91.65
X144.9Y-112.15
X144.9Y-132.55
X150.Y-73.25
X150.Y-94.15
X150.Y-114.65
X150.Y-135.05
X152.5Y-72.4
X152.5Y-93.3
X152.5Y-113.8
X152.5Y-134.2
X153.5Y-67.6
X153.5Y-88.5
X153.5Y-109.
X153.5Y-129.4
X155.7Y-76.4
X155.7Y-97.3
X155.7Y-117.8
X155.7Y-138.2
X161.1Y-72.15
X161.1Y-93.05
X161.1Y-113.55
X161.1Y-133.95
X162.1Y-73.2
X162.1Y-94.1
X162.1Y-114.6
X162.1Y-135.
X166.9Y-71.3
X166.9Y-92.2
X166.9Y-112.7
X166.9Y-133.1
X168.85Y-71.3
X168.85Y-73.2
X168.85Y-92.2
X168.85Y-94.1
X168.85Y-112.7
X168.85Y-114.6
X168.85Y-133.1
X168.85Y-135.
X170.8Y-62.2
X170.8Y-83.1
X170.8Y-103.6
X170.8Y-124.
X173.6Y-62.5
X173.6Y-83.4
X173.6Y-103.9
X173.6Y-124.3
X176.1Y-62.5
X176.1Y-83.4
X176.1Y-103.9
X176.1Y-124.3
X176.3Y-68.2
X176.3Y-89.1
X176.3Y-109.6
X176.3Y-130.
X180.7Y-61.5
X180.7Y-82.4
X180.7Y-102.9
X180.7Y-123.3
X189.2Y-70.8
X189.2Y-91.7
X189.2Y-112.2
X189.2Y-132.6
T2
X168.2Y-83.15
X188.6Y-103.65
X123.Y-124.05
X123.Y-62.25
X188.6Y-62.25
X123.Y-103.65
X163.Y-97.2
X188.6Y-83.15
X168.2Y-124.05
X148.6Y-97.2
X123.Y-83.15
X168.2Y-62.25
X143.4Y-83.15
X188.6Y-124.05
X148.6Y-117.7
X168.2Y-103.65
X143.4Y-124.05
X143.4Y-62.25
X163.Y-76.3
X143.4Y-103.65
X163.Y-138.1
X163.Y-117.7
X148.6Y-138.1
X148.6Y-76.3
T0
M30
