G04 #@! TF.GenerationSoftware,KiCad,Pcbnew,(5.0.0)*
G04 #@! TF.CreationDate,2019-07-10T13:07:56+09:00*
G04 #@! TF.ProjectId,line and sensor,6C696E6520616E642073656E736F722E,rev?*
G04 #@! TF.SameCoordinates,Original*
G04 #@! TF.FileFunction,Soldermask,Bot*
G04 #@! TF.FilePolarity,Negative*
%FSLAX46Y46*%
G04 Gerber Fmt 4.6, Leading zero omitted, Abs format (unit mm)*
G04 Created by KiCad (PCBNEW (5.0.0)) date 07/10/19 13:07:56*
%MOMM*%
%LPD*%
G01*
G04 APERTURE LIST*
%ADD10C,2.600000*%
%ADD11R,1.200000X0.900000*%
%ADD12R,1.400000X1.850000*%
%ADD13R,1.200000X1.200000*%
%ADD14R,0.900000X1.200000*%
%ADD15R,0.630000X1.650000*%
%ADD16R,2.200000X2.400000*%
%ADD17R,2.600000X2.400000*%
G04 APERTURE END LIST*
D10*
G04 #@! TO.C,REF\002A\002A*
X188600000Y-62250000D03*
G04 #@! TD*
G04 #@! TO.C,REF\002A\002A*
X168200000Y-62250000D03*
G04 #@! TD*
D11*
G04 #@! TO.C,R2*
X183800000Y-62100000D03*
X183800000Y-63600000D03*
G04 #@! TD*
D12*
G04 #@! TO.C,Q1*
X177600000Y-61200000D03*
X179200000Y-61200000D03*
G04 #@! TD*
G04 #@! TO.C,Q4*
X188650000Y-68100000D03*
X187050000Y-68100000D03*
G04 #@! TD*
D13*
G04 #@! TO.C,D2*
X179200000Y-63600000D03*
X177700000Y-63600000D03*
G04 #@! TD*
D14*
G04 #@! TO.C,R3*
X146900000Y-73250000D03*
X148400000Y-73250000D03*
G04 #@! TD*
D10*
G04 #@! TO.C,REF\002A\002A*
X123000000Y-62250000D03*
G04 #@! TD*
D14*
G04 #@! TO.C,R5*
X185600000Y-73200000D03*
X184100000Y-73200000D03*
G04 #@! TD*
D10*
G04 #@! TO.C,REF\002A\002A*
X143400000Y-62250000D03*
G04 #@! TD*
D15*
G04 #@! TO.C,J1*
X157050000Y-73250000D03*
X157550000Y-73250000D03*
X156050000Y-73250000D03*
D16*
X152400000Y-75925000D03*
D15*
X155550000Y-73250000D03*
X155050000Y-73250000D03*
X154050000Y-73250000D03*
X156550000Y-73250000D03*
D17*
X159150000Y-75925000D03*
X152400000Y-75925000D03*
D15*
X154550000Y-73250000D03*
G04 #@! TD*
D14*
G04 #@! TO.C,R2*
X127500000Y-73250000D03*
X126000000Y-73250000D03*
G04 #@! TD*
D13*
G04 #@! TO.C,D4*
X166100000Y-73200000D03*
X167600000Y-73200000D03*
G04 #@! TD*
D10*
G04 #@! TO.C,REF\002A\002A*
X163000000Y-76300000D03*
G04 #@! TD*
D13*
G04 #@! TO.C,D2*
X124500000Y-73250000D03*
X123000000Y-73250000D03*
G04 #@! TD*
D11*
G04 #@! TO.C,R2*
X138600000Y-62100000D03*
X138600000Y-63600000D03*
G04 #@! TD*
D12*
G04 #@! TO.C,Q1*
X132400000Y-61200000D03*
X134000000Y-61200000D03*
G04 #@! TD*
D14*
G04 #@! TO.C,R4*
X163200000Y-73200000D03*
X164700000Y-73200000D03*
G04 #@! TD*
D10*
G04 #@! TO.C,REF\002A\002A*
X148600000Y-76300000D03*
G04 #@! TD*
D12*
G04 #@! TO.C,Q3*
X166150000Y-68100000D03*
X167750000Y-68100000D03*
G04 #@! TD*
D13*
G04 #@! TO.C,D3*
X143900000Y-73250000D03*
X145400000Y-73250000D03*
G04 #@! TD*
D12*
G04 #@! TO.C,Q1*
X124550000Y-68100000D03*
X122950000Y-68100000D03*
G04 #@! TD*
D13*
G04 #@! TO.C,D2*
X134000000Y-63600000D03*
X132500000Y-63600000D03*
G04 #@! TD*
G04 #@! TO.C,D5*
X188550000Y-73200000D03*
X187050000Y-73200000D03*
G04 #@! TD*
D12*
G04 #@! TO.C,Q2*
X143850000Y-68100000D03*
X145450000Y-68100000D03*
G04 #@! TD*
D10*
G04 #@! TO.C,REF\002A\002A*
X188600000Y-83150000D03*
G04 #@! TD*
G04 #@! TO.C,REF\002A\002A*
X168200000Y-83150000D03*
G04 #@! TD*
D11*
G04 #@! TO.C,R2*
X183800000Y-83000000D03*
X183800000Y-84500000D03*
G04 #@! TD*
D12*
G04 #@! TO.C,Q1*
X177600000Y-82100000D03*
X179200000Y-82100000D03*
G04 #@! TD*
G04 #@! TO.C,Q4*
X188650000Y-89000000D03*
X187050000Y-89000000D03*
G04 #@! TD*
D13*
G04 #@! TO.C,D2*
X179200000Y-84500000D03*
X177700000Y-84500000D03*
G04 #@! TD*
D14*
G04 #@! TO.C,R3*
X146900000Y-94150000D03*
X148400000Y-94150000D03*
G04 #@! TD*
D10*
G04 #@! TO.C,REF\002A\002A*
X123000000Y-83150000D03*
G04 #@! TD*
D14*
G04 #@! TO.C,R5*
X185600000Y-94100000D03*
X184100000Y-94100000D03*
G04 #@! TD*
D10*
G04 #@! TO.C,REF\002A\002A*
X143400000Y-83150000D03*
G04 #@! TD*
D15*
G04 #@! TO.C,J1*
X157050000Y-94150000D03*
X157550000Y-94150000D03*
X156050000Y-94150000D03*
D16*
X152400000Y-96825000D03*
D15*
X155550000Y-94150000D03*
X155050000Y-94150000D03*
X154050000Y-94150000D03*
X156550000Y-94150000D03*
D17*
X159150000Y-96825000D03*
X152400000Y-96825000D03*
D15*
X154550000Y-94150000D03*
G04 #@! TD*
D14*
G04 #@! TO.C,R2*
X127500000Y-94150000D03*
X126000000Y-94150000D03*
G04 #@! TD*
D13*
G04 #@! TO.C,D4*
X166100000Y-94100000D03*
X167600000Y-94100000D03*
G04 #@! TD*
D10*
G04 #@! TO.C,REF\002A\002A*
X163000000Y-97200000D03*
G04 #@! TD*
D13*
G04 #@! TO.C,D2*
X124500000Y-94150000D03*
X123000000Y-94150000D03*
G04 #@! TD*
D11*
G04 #@! TO.C,R2*
X138600000Y-83000000D03*
X138600000Y-84500000D03*
G04 #@! TD*
D12*
G04 #@! TO.C,Q1*
X132400000Y-82100000D03*
X134000000Y-82100000D03*
G04 #@! TD*
D14*
G04 #@! TO.C,R4*
X163200000Y-94100000D03*
X164700000Y-94100000D03*
G04 #@! TD*
D10*
G04 #@! TO.C,REF\002A\002A*
X148600000Y-97200000D03*
G04 #@! TD*
D12*
G04 #@! TO.C,Q3*
X166150000Y-89000000D03*
X167750000Y-89000000D03*
G04 #@! TD*
D13*
G04 #@! TO.C,D3*
X143900000Y-94150000D03*
X145400000Y-94150000D03*
G04 #@! TD*
D12*
G04 #@! TO.C,Q1*
X124550000Y-89000000D03*
X122950000Y-89000000D03*
G04 #@! TD*
D13*
G04 #@! TO.C,D2*
X134000000Y-84500000D03*
X132500000Y-84500000D03*
G04 #@! TD*
G04 #@! TO.C,D5*
X188550000Y-94100000D03*
X187050000Y-94100000D03*
G04 #@! TD*
D12*
G04 #@! TO.C,Q2*
X143850000Y-89000000D03*
X145450000Y-89000000D03*
G04 #@! TD*
D10*
G04 #@! TO.C,REF\002A\002A*
X188600000Y-103650000D03*
G04 #@! TD*
G04 #@! TO.C,REF\002A\002A*
X168200000Y-103650000D03*
G04 #@! TD*
D11*
G04 #@! TO.C,R2*
X183800000Y-103500000D03*
X183800000Y-105000000D03*
G04 #@! TD*
D12*
G04 #@! TO.C,Q1*
X177600000Y-102600000D03*
X179200000Y-102600000D03*
G04 #@! TD*
G04 #@! TO.C,Q4*
X188650000Y-109500000D03*
X187050000Y-109500000D03*
G04 #@! TD*
D13*
G04 #@! TO.C,D2*
X179200000Y-105000000D03*
X177700000Y-105000000D03*
G04 #@! TD*
D14*
G04 #@! TO.C,R3*
X146900000Y-114650000D03*
X148400000Y-114650000D03*
G04 #@! TD*
D10*
G04 #@! TO.C,REF\002A\002A*
X123000000Y-103650000D03*
G04 #@! TD*
D14*
G04 #@! TO.C,R5*
X185600000Y-114600000D03*
X184100000Y-114600000D03*
G04 #@! TD*
D10*
G04 #@! TO.C,REF\002A\002A*
X143400000Y-103650000D03*
G04 #@! TD*
D15*
G04 #@! TO.C,J1*
X157050000Y-114650000D03*
X157550000Y-114650000D03*
X156050000Y-114650000D03*
D16*
X152400000Y-117325000D03*
D15*
X155550000Y-114650000D03*
X155050000Y-114650000D03*
X154050000Y-114650000D03*
X156550000Y-114650000D03*
D17*
X159150000Y-117325000D03*
X152400000Y-117325000D03*
D15*
X154550000Y-114650000D03*
G04 #@! TD*
D14*
G04 #@! TO.C,R2*
X127500000Y-114650000D03*
X126000000Y-114650000D03*
G04 #@! TD*
D13*
G04 #@! TO.C,D4*
X166100000Y-114600000D03*
X167600000Y-114600000D03*
G04 #@! TD*
D10*
G04 #@! TO.C,REF\002A\002A*
X163000000Y-117700000D03*
G04 #@! TD*
D13*
G04 #@! TO.C,D2*
X124500000Y-114650000D03*
X123000000Y-114650000D03*
G04 #@! TD*
D11*
G04 #@! TO.C,R2*
X138600000Y-103500000D03*
X138600000Y-105000000D03*
G04 #@! TD*
D12*
G04 #@! TO.C,Q1*
X132400000Y-102600000D03*
X134000000Y-102600000D03*
G04 #@! TD*
D14*
G04 #@! TO.C,R4*
X163200000Y-114600000D03*
X164700000Y-114600000D03*
G04 #@! TD*
D10*
G04 #@! TO.C,REF\002A\002A*
X148600000Y-117700000D03*
G04 #@! TD*
D12*
G04 #@! TO.C,Q3*
X166150000Y-109500000D03*
X167750000Y-109500000D03*
G04 #@! TD*
D13*
G04 #@! TO.C,D3*
X143900000Y-114650000D03*
X145400000Y-114650000D03*
G04 #@! TD*
D12*
G04 #@! TO.C,Q1*
X124550000Y-109500000D03*
X122950000Y-109500000D03*
G04 #@! TD*
D13*
G04 #@! TO.C,D2*
X134000000Y-105000000D03*
X132500000Y-105000000D03*
G04 #@! TD*
G04 #@! TO.C,D5*
X188550000Y-114600000D03*
X187050000Y-114600000D03*
G04 #@! TD*
D12*
G04 #@! TO.C,Q2*
X143850000Y-109500000D03*
X145450000Y-109500000D03*
G04 #@! TD*
D11*
G04 #@! TO.C,R2*
X183800000Y-125400000D03*
X183800000Y-123900000D03*
G04 #@! TD*
D12*
G04 #@! TO.C,Q1*
X179200000Y-123000000D03*
X177600000Y-123000000D03*
G04 #@! TD*
D10*
G04 #@! TO.C,REF\002A\002A*
X188600000Y-124050000D03*
G04 #@! TD*
D13*
G04 #@! TO.C,D2*
X177700000Y-125400000D03*
X179200000Y-125400000D03*
G04 #@! TD*
D10*
G04 #@! TO.C,REF\002A\002A*
X168200000Y-124050000D03*
G04 #@! TD*
D11*
G04 #@! TO.C,R2*
X138600000Y-125400000D03*
X138600000Y-123900000D03*
G04 #@! TD*
D12*
G04 #@! TO.C,Q1*
X134000000Y-123000000D03*
X132400000Y-123000000D03*
G04 #@! TD*
D10*
G04 #@! TO.C,REF\002A\002A*
X143400000Y-124050000D03*
G04 #@! TD*
D13*
G04 #@! TO.C,D2*
X132500000Y-125400000D03*
X134000000Y-125400000D03*
G04 #@! TD*
D10*
G04 #@! TO.C,REF\002A\002A*
X123000000Y-124050000D03*
G04 #@! TD*
D12*
G04 #@! TO.C,Q4*
X187050000Y-129900000D03*
X188650000Y-129900000D03*
G04 #@! TD*
D13*
G04 #@! TO.C,D5*
X187050000Y-135000000D03*
X188550000Y-135000000D03*
G04 #@! TD*
G04 #@! TO.C,D2*
X123000000Y-135050000D03*
X124500000Y-135050000D03*
G04 #@! TD*
D14*
G04 #@! TO.C,R3*
X148400000Y-135050000D03*
X146900000Y-135050000D03*
G04 #@! TD*
D15*
G04 #@! TO.C,J1*
X154550000Y-135050000D03*
D17*
X152400000Y-137725000D03*
X159150000Y-137725000D03*
D15*
X156550000Y-135050000D03*
X154050000Y-135050000D03*
X155050000Y-135050000D03*
X155550000Y-135050000D03*
D16*
X152400000Y-137725000D03*
D15*
X156050000Y-135050000D03*
X157550000Y-135050000D03*
X157050000Y-135050000D03*
G04 #@! TD*
D14*
G04 #@! TO.C,R2*
X126000000Y-135050000D03*
X127500000Y-135050000D03*
G04 #@! TD*
D12*
G04 #@! TO.C,Q3*
X167750000Y-129900000D03*
X166150000Y-129900000D03*
G04 #@! TD*
G04 #@! TO.C,Q2*
X145450000Y-129900000D03*
X143850000Y-129900000D03*
G04 #@! TD*
G04 #@! TO.C,Q1*
X122950000Y-129900000D03*
X124550000Y-129900000D03*
G04 #@! TD*
D13*
G04 #@! TO.C,D3*
X145400000Y-135050000D03*
X143900000Y-135050000D03*
G04 #@! TD*
G04 #@! TO.C,D4*
X167600000Y-135000000D03*
X166100000Y-135000000D03*
G04 #@! TD*
D10*
G04 #@! TO.C,REF\002A\002A*
X148600000Y-138100000D03*
G04 #@! TD*
D14*
G04 #@! TO.C,R4*
X164700000Y-135000000D03*
X163200000Y-135000000D03*
G04 #@! TD*
D10*
G04 #@! TO.C,REF\002A\002A*
X163000000Y-138100000D03*
G04 #@! TD*
D14*
G04 #@! TO.C,R5*
X184100000Y-135000000D03*
X185600000Y-135000000D03*
G04 #@! TD*
M02*
