G04 #@! TF.GenerationSoftware,KiCad,Pcbnew,(5.0.0)*
G04 #@! TF.CreationDate,2019-07-10T13:07:56+09:00*
G04 #@! TF.ProjectId,line and sensor,6C696E6520616E642073656E736F722E,rev?*
G04 #@! TF.SameCoordinates,Original*
G04 #@! TF.FileFunction,Copper,L1,Top,Signal*
G04 #@! TF.FilePolarity,Positive*
%FSLAX46Y46*%
G04 Gerber Fmt 4.6, Leading zero omitted, Abs format (unit mm)*
G04 Created by KiCad (PCBNEW (5.0.0)) date 07/10/19 13:07:56*
%MOMM*%
%LPD*%
G01*
G04 APERTURE LIST*
G04 #@! TA.AperFunction,SMDPad,CuDef*
%ADD10R,0.800000X0.500000*%
G04 #@! TD*
G04 #@! TA.AperFunction,SMDPad,CuDef*
%ADD11O,1.524000X3.000000*%
G04 #@! TD*
G04 #@! TA.AperFunction,SMDPad,CuDef*
%ADD12R,0.800000X0.800000*%
G04 #@! TD*
G04 #@! TA.AperFunction,ViaPad*
%ADD13C,0.800000*%
G04 #@! TD*
G04 #@! TA.AperFunction,Conductor*
%ADD14C,0.400000*%
G04 #@! TD*
G04 #@! TA.AperFunction,Conductor*
%ADD15C,0.250000*%
G04 #@! TD*
G04 #@! TA.AperFunction,Conductor*
%ADD16C,0.210000*%
G04 #@! TD*
G04 #@! TA.AperFunction,NonConductor*
%ADD17C,0.254000*%
G04 #@! TD*
G04 APERTURE END LIST*
D10*
G04 #@! TO.P,R1,2*
G04 #@! TO.N,N/C*
X180700000Y-63000000D03*
G04 #@! TO.P,R1,1*
X180700000Y-61500000D03*
G04 #@! TD*
D11*
G04 #@! TO.P,J1,3*
G04 #@! TO.N,N/C*
X173600000Y-62500000D03*
G04 #@! TO.P,J1,2*
X176100000Y-62500000D03*
G04 #@! TO.P,J1,1*
X178600000Y-62500000D03*
G04 #@! TD*
D12*
G04 #@! TO.P,D1,1*
G04 #@! TO.N,N/C*
X182300000Y-61500000D03*
G04 #@! TO.P,D1,2*
X182300000Y-63000000D03*
G04 #@! TD*
G04 #@! TO.P,D1,1*
G04 #@! TO.N,N/C*
X137100000Y-61500000D03*
G04 #@! TO.P,D1,2*
X137100000Y-63000000D03*
G04 #@! TD*
D11*
G04 #@! TO.P,J1,3*
G04 #@! TO.N,N/C*
X128400000Y-62500000D03*
G04 #@! TO.P,J1,2*
X130900000Y-62500000D03*
G04 #@! TO.P,J1,1*
X133400000Y-62500000D03*
G04 #@! TD*
D12*
G04 #@! TO.P,D1,1*
G04 #@! TO.N,N/C*
X155800000Y-72000000D03*
G04 #@! TO.P,D1,2*
X155800000Y-70500000D03*
G04 #@! TD*
D10*
G04 #@! TO.P,R1,2*
G04 #@! TO.N,N/C*
X135500000Y-63000000D03*
G04 #@! TO.P,R1,1*
X135500000Y-61500000D03*
G04 #@! TD*
G04 #@! TO.P,R1,1*
G04 #@! TO.N,N/C*
X155800000Y-67650000D03*
G04 #@! TO.P,R1,2*
X155800000Y-69150000D03*
G04 #@! TD*
G04 #@! TO.P,R1,2*
G04 #@! TO.N,N/C*
X180700000Y-83900000D03*
G04 #@! TO.P,R1,1*
X180700000Y-82400000D03*
G04 #@! TD*
D11*
G04 #@! TO.P,J1,3*
G04 #@! TO.N,N/C*
X173600000Y-83400000D03*
G04 #@! TO.P,J1,2*
X176100000Y-83400000D03*
G04 #@! TO.P,J1,1*
X178600000Y-83400000D03*
G04 #@! TD*
D12*
G04 #@! TO.P,D1,1*
G04 #@! TO.N,N/C*
X182300000Y-82400000D03*
G04 #@! TO.P,D1,2*
X182300000Y-83900000D03*
G04 #@! TD*
G04 #@! TO.P,D1,1*
G04 #@! TO.N,N/C*
X137100000Y-82400000D03*
G04 #@! TO.P,D1,2*
X137100000Y-83900000D03*
G04 #@! TD*
D11*
G04 #@! TO.P,J1,3*
G04 #@! TO.N,N/C*
X128400000Y-83400000D03*
G04 #@! TO.P,J1,2*
X130900000Y-83400000D03*
G04 #@! TO.P,J1,1*
X133400000Y-83400000D03*
G04 #@! TD*
D12*
G04 #@! TO.P,D1,1*
G04 #@! TO.N,N/C*
X155800000Y-92900000D03*
G04 #@! TO.P,D1,2*
X155800000Y-91400000D03*
G04 #@! TD*
D10*
G04 #@! TO.P,R1,2*
G04 #@! TO.N,N/C*
X135500000Y-83900000D03*
G04 #@! TO.P,R1,1*
X135500000Y-82400000D03*
G04 #@! TD*
G04 #@! TO.P,R1,1*
G04 #@! TO.N,N/C*
X155800000Y-88550000D03*
G04 #@! TO.P,R1,2*
X155800000Y-90050000D03*
G04 #@! TD*
G04 #@! TO.P,R1,2*
G04 #@! TO.N,N/C*
X180700000Y-104400000D03*
G04 #@! TO.P,R1,1*
X180700000Y-102900000D03*
G04 #@! TD*
D11*
G04 #@! TO.P,J1,3*
G04 #@! TO.N,N/C*
X173600000Y-103900000D03*
G04 #@! TO.P,J1,2*
X176100000Y-103900000D03*
G04 #@! TO.P,J1,1*
X178600000Y-103900000D03*
G04 #@! TD*
D12*
G04 #@! TO.P,D1,1*
G04 #@! TO.N,N/C*
X182300000Y-102900000D03*
G04 #@! TO.P,D1,2*
X182300000Y-104400000D03*
G04 #@! TD*
G04 #@! TO.P,D1,1*
G04 #@! TO.N,N/C*
X137100000Y-102900000D03*
G04 #@! TO.P,D1,2*
X137100000Y-104400000D03*
G04 #@! TD*
D11*
G04 #@! TO.P,J1,3*
G04 #@! TO.N,N/C*
X128400000Y-103900000D03*
G04 #@! TO.P,J1,2*
X130900000Y-103900000D03*
G04 #@! TO.P,J1,1*
X133400000Y-103900000D03*
G04 #@! TD*
D12*
G04 #@! TO.P,D1,1*
G04 #@! TO.N,N/C*
X155800000Y-113400000D03*
G04 #@! TO.P,D1,2*
X155800000Y-111900000D03*
G04 #@! TD*
D10*
G04 #@! TO.P,R1,2*
G04 #@! TO.N,N/C*
X135500000Y-104400000D03*
G04 #@! TO.P,R1,1*
X135500000Y-102900000D03*
G04 #@! TD*
G04 #@! TO.P,R1,1*
G04 #@! TO.N,N/C*
X155800000Y-109050000D03*
G04 #@! TO.P,R1,2*
X155800000Y-110550000D03*
G04 #@! TD*
G04 #@! TO.P,R1,1*
G04 #@! TO.N,N/C*
X180700000Y-123300000D03*
G04 #@! TO.P,R1,2*
X180700000Y-124800000D03*
G04 #@! TD*
D12*
G04 #@! TO.P,D1,2*
G04 #@! TO.N,N/C*
X182300000Y-124800000D03*
G04 #@! TO.P,D1,1*
X182300000Y-123300000D03*
G04 #@! TD*
D11*
G04 #@! TO.P,J1,1*
G04 #@! TO.N,N/C*
X178600000Y-124300000D03*
G04 #@! TO.P,J1,2*
X176100000Y-124300000D03*
G04 #@! TO.P,J1,3*
X173600000Y-124300000D03*
G04 #@! TD*
D10*
G04 #@! TO.P,R1,1*
G04 #@! TO.N,N/C*
X135500000Y-123300000D03*
G04 #@! TO.P,R1,2*
X135500000Y-124800000D03*
G04 #@! TD*
D12*
G04 #@! TO.P,D1,2*
G04 #@! TO.N,N/C*
X137100000Y-124800000D03*
G04 #@! TO.P,D1,1*
X137100000Y-123300000D03*
G04 #@! TD*
D11*
G04 #@! TO.P,J1,1*
G04 #@! TO.N,N/C*
X133400000Y-124300000D03*
G04 #@! TO.P,J1,2*
X130900000Y-124300000D03*
G04 #@! TO.P,J1,3*
X128400000Y-124300000D03*
G04 #@! TD*
D10*
G04 #@! TO.P,R1,2*
G04 #@! TO.N,N/C*
X155800000Y-130950000D03*
G04 #@! TO.P,R1,1*
X155800000Y-129450000D03*
G04 #@! TD*
D12*
G04 #@! TO.P,D1,2*
G04 #@! TO.N,N/C*
X155800000Y-132300000D03*
G04 #@! TO.P,D1,1*
X155800000Y-133800000D03*
G04 #@! TD*
D13*
G04 #@! TO.N,*
X155700000Y-138200000D03*
X176300000Y-130000000D03*
X133800000Y-129800000D03*
X152500000Y-134200000D03*
X122950000Y-132800000D03*
X153500000Y-129400000D03*
X189200000Y-132600000D03*
X161100000Y-133950000D03*
X166900000Y-133100000D03*
X168850000Y-133100000D03*
X162100000Y-135000000D03*
X168850000Y-135000000D03*
X150000002Y-135050000D03*
X142450000Y-135050000D03*
X142650000Y-132550000D03*
X144900000Y-132550000D03*
X128400000Y-124300000D03*
X125600000Y-124000000D03*
X130900000Y-124300000D03*
X135500000Y-123300000D03*
X173600000Y-124300000D03*
X170800000Y-124000000D03*
X176100000Y-124300000D03*
X180700000Y-123300000D03*
X168850000Y-112700000D03*
X142450000Y-114650000D03*
X125600000Y-103600000D03*
X176300000Y-109600000D03*
X180700000Y-102900000D03*
X128400000Y-103900000D03*
X150000002Y-114650000D03*
X153500000Y-109000000D03*
X161100000Y-113550000D03*
X152500000Y-113800000D03*
X162100000Y-114600000D03*
X130900000Y-103900000D03*
X144900000Y-112150000D03*
X133800000Y-109400000D03*
X155700000Y-117800000D03*
X168850000Y-114600000D03*
X173600000Y-103900000D03*
X142650000Y-112150000D03*
X170800000Y-103600000D03*
X135500000Y-102900000D03*
X166900000Y-112700000D03*
X176100000Y-103900000D03*
X189200000Y-112200000D03*
X122950000Y-112400000D03*
X168850000Y-92200000D03*
X142450000Y-94150000D03*
X125600000Y-83100000D03*
X176300000Y-89100000D03*
X180700000Y-82400000D03*
X128400000Y-83400000D03*
X150000002Y-94150000D03*
X153500000Y-88500000D03*
X161100000Y-93050000D03*
X152500000Y-93300000D03*
X162100000Y-94100000D03*
X130900000Y-83400000D03*
X144900000Y-91650000D03*
X133800000Y-88900000D03*
X155700000Y-97300000D03*
X168850000Y-94100000D03*
X173600000Y-83400000D03*
X142650000Y-91650000D03*
X170800000Y-83100000D03*
X135500000Y-82400000D03*
X166900000Y-92200000D03*
X176100000Y-83400000D03*
X189200000Y-91700000D03*
X122950000Y-91900000D03*
X168850000Y-71300000D03*
X142450000Y-73250000D03*
X125600000Y-62200000D03*
X176300000Y-68200000D03*
X180700000Y-61500000D03*
X128400000Y-62500000D03*
X150000002Y-73250000D03*
X153500000Y-67600000D03*
X161100000Y-72150000D03*
X152500000Y-72400000D03*
X162100000Y-73200000D03*
X130900000Y-62500000D03*
X144900000Y-70750000D03*
X133800000Y-68000000D03*
X155700000Y-76400000D03*
X168850000Y-73200000D03*
X173600000Y-62500000D03*
X142650000Y-70750000D03*
X170800000Y-62200000D03*
X135500000Y-61500000D03*
X166900000Y-71300000D03*
X176100000Y-62500000D03*
X189200000Y-70800000D03*
X122950000Y-71000000D03*
G04 #@! TD*
D14*
G04 #@! TO.N,*
X153000000Y-133800000D02*
X152600000Y-134200000D01*
X152600000Y-134200000D02*
X152500000Y-134200000D01*
X160950000Y-133800000D02*
X161100000Y-133950000D01*
X155800000Y-133800000D02*
X153000000Y-133800000D01*
X155800000Y-133800000D02*
X160950000Y-133800000D01*
D15*
X155800000Y-130950000D02*
X155800000Y-132300000D01*
X166900000Y-133100000D02*
X168850000Y-133100000D01*
D14*
X155800000Y-129450000D02*
X159600000Y-129450000D01*
X159600000Y-129450000D02*
X162100000Y-131950000D01*
X162100000Y-135000000D02*
X168850000Y-135000000D01*
X142450000Y-135050000D02*
X150000002Y-135050000D01*
X162100000Y-131950000D02*
X162100000Y-135000000D01*
X150050002Y-135000000D02*
X150000002Y-135050000D01*
D15*
X144900000Y-132550000D02*
X142650000Y-132550000D01*
D16*
X137100000Y-122690000D02*
X136815010Y-122405010D01*
X129556990Y-122405010D02*
X128400000Y-123562000D01*
X136815010Y-122405010D02*
X129556990Y-122405010D01*
X137100000Y-123300000D02*
X137100000Y-122690000D01*
X128400000Y-123562000D02*
X128400000Y-124300000D01*
X137100000Y-124800000D02*
X135200000Y-124800000D01*
X135200000Y-124800000D02*
X135500000Y-124800000D01*
X135500000Y-123300000D02*
X134400000Y-123300000D01*
X134400000Y-123300000D02*
X133400000Y-124300000D01*
X182300000Y-122690000D02*
X182015010Y-122405010D01*
X174756990Y-122405010D02*
X173600000Y-123562000D01*
X182015010Y-122405010D02*
X174756990Y-122405010D01*
X182300000Y-123300000D02*
X182300000Y-122690000D01*
X173600000Y-123562000D02*
X173600000Y-124300000D01*
X182300000Y-124800000D02*
X180400000Y-124800000D01*
X180400000Y-124800000D02*
X180700000Y-124800000D01*
X180700000Y-123300000D02*
X179600000Y-123300000D01*
X179600000Y-123300000D02*
X178600000Y-124300000D01*
D14*
X152600000Y-113800000D02*
X152500000Y-113800000D01*
X160950000Y-113400000D02*
X161100000Y-113550000D01*
D15*
X155800000Y-110550000D02*
X155800000Y-111900000D01*
X144900000Y-112150000D02*
X142650000Y-112150000D01*
D14*
X155800000Y-113400000D02*
X153000000Y-113400000D01*
X155800000Y-113400000D02*
X160950000Y-113400000D01*
X153000000Y-113400000D02*
X152600000Y-113800000D01*
D16*
X134400000Y-102900000D02*
X133400000Y-103900000D01*
X137100000Y-104400000D02*
X135200000Y-104400000D01*
X136815010Y-102005010D02*
X129556990Y-102005010D01*
X135500000Y-102900000D02*
X134400000Y-102900000D01*
X129556990Y-102005010D02*
X128400000Y-103162000D01*
X135200000Y-104400000D02*
X135500000Y-104400000D01*
X137100000Y-102290000D02*
X136815010Y-102005010D01*
X137100000Y-102900000D02*
X137100000Y-102290000D01*
X128400000Y-103162000D02*
X128400000Y-103900000D01*
X182300000Y-102290000D02*
X182015010Y-102005010D01*
X182300000Y-104400000D02*
X180400000Y-104400000D01*
X180700000Y-102900000D02*
X179600000Y-102900000D01*
X174756990Y-102005010D02*
X173600000Y-103162000D01*
X182015010Y-102005010D02*
X174756990Y-102005010D01*
X180400000Y-104400000D02*
X180700000Y-104400000D01*
X173600000Y-103162000D02*
X173600000Y-103900000D01*
X182300000Y-102900000D02*
X182300000Y-102290000D01*
X179600000Y-102900000D02*
X178600000Y-103900000D01*
D15*
X166900000Y-112700000D02*
X168850000Y-112700000D01*
D14*
X150050002Y-114600000D02*
X150000002Y-114650000D01*
X162100000Y-111550000D02*
X162100000Y-114600000D01*
X142450000Y-114650000D02*
X150000002Y-114650000D01*
X162100000Y-114600000D02*
X168850000Y-114600000D01*
X159600000Y-109050000D02*
X162100000Y-111550000D01*
X155800000Y-109050000D02*
X159600000Y-109050000D01*
X152600000Y-93300000D02*
X152500000Y-93300000D01*
X160950000Y-92900000D02*
X161100000Y-93050000D01*
D15*
X155800000Y-90050000D02*
X155800000Y-91400000D01*
X144900000Y-91650000D02*
X142650000Y-91650000D01*
D14*
X155800000Y-92900000D02*
X153000000Y-92900000D01*
X155800000Y-92900000D02*
X160950000Y-92900000D01*
X153000000Y-92900000D02*
X152600000Y-93300000D01*
D16*
X134400000Y-82400000D02*
X133400000Y-83400000D01*
X137100000Y-83900000D02*
X135200000Y-83900000D01*
X136815010Y-81505010D02*
X129556990Y-81505010D01*
X135500000Y-82400000D02*
X134400000Y-82400000D01*
X129556990Y-81505010D02*
X128400000Y-82662000D01*
X135200000Y-83900000D02*
X135500000Y-83900000D01*
X137100000Y-81790000D02*
X136815010Y-81505010D01*
X137100000Y-82400000D02*
X137100000Y-81790000D01*
X128400000Y-82662000D02*
X128400000Y-83400000D01*
X182300000Y-81790000D02*
X182015010Y-81505010D01*
X182300000Y-83900000D02*
X180400000Y-83900000D01*
X180700000Y-82400000D02*
X179600000Y-82400000D01*
X174756990Y-81505010D02*
X173600000Y-82662000D01*
X182015010Y-81505010D02*
X174756990Y-81505010D01*
X180400000Y-83900000D02*
X180700000Y-83900000D01*
X173600000Y-82662000D02*
X173600000Y-83400000D01*
X182300000Y-82400000D02*
X182300000Y-81790000D01*
X179600000Y-82400000D02*
X178600000Y-83400000D01*
D15*
X166900000Y-92200000D02*
X168850000Y-92200000D01*
D14*
X150050002Y-94100000D02*
X150000002Y-94150000D01*
X162100000Y-91050000D02*
X162100000Y-94100000D01*
X142450000Y-94150000D02*
X150000002Y-94150000D01*
X162100000Y-94100000D02*
X168850000Y-94100000D01*
X159600000Y-88550000D02*
X162100000Y-91050000D01*
X155800000Y-88550000D02*
X159600000Y-88550000D01*
X152600000Y-72400000D02*
X152500000Y-72400000D01*
X160950000Y-72000000D02*
X161100000Y-72150000D01*
D15*
X155800000Y-69150000D02*
X155800000Y-70500000D01*
X144900000Y-70750000D02*
X142650000Y-70750000D01*
D14*
X155800000Y-72000000D02*
X153000000Y-72000000D01*
X155800000Y-72000000D02*
X160950000Y-72000000D01*
X153000000Y-72000000D02*
X152600000Y-72400000D01*
D16*
X134400000Y-61500000D02*
X133400000Y-62500000D01*
X137100000Y-63000000D02*
X135200000Y-63000000D01*
X136815010Y-60605010D02*
X129556990Y-60605010D01*
X135500000Y-61500000D02*
X134400000Y-61500000D01*
X129556990Y-60605010D02*
X128400000Y-61762000D01*
X135200000Y-63000000D02*
X135500000Y-63000000D01*
X137100000Y-60890000D02*
X136815010Y-60605010D01*
X137100000Y-61500000D02*
X137100000Y-60890000D01*
X128400000Y-61762000D02*
X128400000Y-62500000D01*
X182300000Y-60890000D02*
X182015010Y-60605010D01*
X182300000Y-63000000D02*
X180400000Y-63000000D01*
X180700000Y-61500000D02*
X179600000Y-61500000D01*
X174756990Y-60605010D02*
X173600000Y-61762000D01*
X182015010Y-60605010D02*
X174756990Y-60605010D01*
X180400000Y-63000000D02*
X180700000Y-63000000D01*
X173600000Y-61762000D02*
X173600000Y-62500000D01*
X182300000Y-61500000D02*
X182300000Y-60890000D01*
X179600000Y-61500000D02*
X178600000Y-62500000D01*
D15*
X166900000Y-71300000D02*
X168850000Y-71300000D01*
D14*
X150050002Y-73200000D02*
X150000002Y-73250000D01*
X162100000Y-70150000D02*
X162100000Y-73200000D01*
X142450000Y-73250000D02*
X150000002Y-73250000D01*
X162100000Y-73200000D02*
X168850000Y-73200000D01*
X159600000Y-67650000D02*
X162100000Y-70150000D01*
X155800000Y-67650000D02*
X159600000Y-67650000D01*
G04 #@! TD*
D17*
G36*
X190190001Y-136590000D02*
X169669920Y-136590000D01*
X169599999Y-136576092D01*
X169530078Y-136590000D01*
X169530074Y-136590000D01*
X169322972Y-136631195D01*
X169088119Y-136788119D01*
X169048508Y-136847401D01*
X165005910Y-140890000D01*
X146594091Y-140890000D01*
X143458978Y-137754887D01*
X146865000Y-137754887D01*
X146865000Y-138445113D01*
X147129138Y-139082799D01*
X147617201Y-139570862D01*
X148254887Y-139835000D01*
X148945113Y-139835000D01*
X149582799Y-139570862D01*
X150070862Y-139082799D01*
X150335000Y-138445113D01*
X150335000Y-137754887D01*
X161265000Y-137754887D01*
X161265000Y-138445113D01*
X161529138Y-139082799D01*
X162017201Y-139570862D01*
X162654887Y-139835000D01*
X163345113Y-139835000D01*
X163982799Y-139570862D01*
X164470862Y-139082799D01*
X164735000Y-138445113D01*
X164735000Y-137754887D01*
X164470862Y-137117201D01*
X163982799Y-136629138D01*
X163345113Y-136365000D01*
X162654887Y-136365000D01*
X162017201Y-136629138D01*
X161529138Y-137117201D01*
X161265000Y-137754887D01*
X150335000Y-137754887D01*
X150070862Y-137117201D01*
X149582799Y-136629138D01*
X148945113Y-136365000D01*
X148254887Y-136365000D01*
X147617201Y-136629138D01*
X147129138Y-137117201D01*
X146865000Y-137754887D01*
X143458978Y-137754887D01*
X142551494Y-136847404D01*
X142511881Y-136788119D01*
X142277028Y-136631195D01*
X142069926Y-136590000D01*
X142069924Y-136590000D01*
X142000000Y-136576091D01*
X141930076Y-136590000D01*
X121410000Y-136590000D01*
X121410000Y-134844126D01*
X141415000Y-134844126D01*
X141415000Y-135255874D01*
X141572569Y-135636280D01*
X141863720Y-135927431D01*
X142244126Y-136085000D01*
X142655874Y-136085000D01*
X143036280Y-135927431D01*
X143078711Y-135885000D01*
X149371291Y-135885000D01*
X149413722Y-135927431D01*
X149794128Y-136085000D01*
X150205876Y-136085000D01*
X150586282Y-135927431D01*
X150877433Y-135636280D01*
X151035002Y-135255874D01*
X151035002Y-134844126D01*
X150877433Y-134463720D01*
X150586282Y-134172569D01*
X150205876Y-134015000D01*
X149794128Y-134015000D01*
X149413722Y-134172569D01*
X149371291Y-134215000D01*
X143078711Y-134215000D01*
X143036280Y-134172569D01*
X142655874Y-134015000D01*
X142244126Y-134015000D01*
X141863720Y-134172569D01*
X141572569Y-134463720D01*
X141415000Y-134844126D01*
X121410000Y-134844126D01*
X121410000Y-132344126D01*
X141615000Y-132344126D01*
X141615000Y-132755874D01*
X141772569Y-133136280D01*
X142063720Y-133427431D01*
X142444126Y-133585000D01*
X142855874Y-133585000D01*
X143236280Y-133427431D01*
X143353711Y-133310000D01*
X144196289Y-133310000D01*
X144313720Y-133427431D01*
X144694126Y-133585000D01*
X145105874Y-133585000D01*
X145486280Y-133427431D01*
X145777431Y-133136280D01*
X145935000Y-132755874D01*
X145935000Y-132344126D01*
X145777431Y-131963720D01*
X145486280Y-131672569D01*
X145105874Y-131515000D01*
X144694126Y-131515000D01*
X144313720Y-131672569D01*
X144196289Y-131790000D01*
X143353711Y-131790000D01*
X143236280Y-131672569D01*
X142855874Y-131515000D01*
X142444126Y-131515000D01*
X142063720Y-131672569D01*
X141772569Y-131963720D01*
X141615000Y-132344126D01*
X121410000Y-132344126D01*
X121410000Y-129200000D01*
X154752560Y-129200000D01*
X154752560Y-129700000D01*
X154801843Y-129947765D01*
X154942191Y-130157809D01*
X155005334Y-130200000D01*
X154942191Y-130242191D01*
X154801843Y-130452235D01*
X154752560Y-130700000D01*
X154752560Y-131200000D01*
X154801843Y-131447765D01*
X154870155Y-131550000D01*
X154801843Y-131652235D01*
X154752560Y-131900000D01*
X154752560Y-132700000D01*
X154801843Y-132947765D01*
X154942191Y-133157809D01*
X155152235Y-133298157D01*
X155400000Y-133347440D01*
X156200000Y-133347440D01*
X156302760Y-133327000D01*
X161265000Y-133327000D01*
X161265001Y-134371288D01*
X161222569Y-134413720D01*
X161065000Y-134794126D01*
X161065000Y-135205874D01*
X161222569Y-135586280D01*
X161513720Y-135877431D01*
X161894126Y-136035000D01*
X162305874Y-136035000D01*
X162686280Y-135877431D01*
X162728711Y-135835000D01*
X168221289Y-135835000D01*
X168263720Y-135877431D01*
X168644126Y-136035000D01*
X169055874Y-136035000D01*
X169436280Y-135877431D01*
X169727431Y-135586280D01*
X169885000Y-135205874D01*
X169885000Y-134794126D01*
X169827000Y-134654101D01*
X169827000Y-133445899D01*
X169885000Y-133305874D01*
X169885000Y-132894126D01*
X169727431Y-132513720D01*
X169436280Y-132222569D01*
X169055874Y-132065000D01*
X168644126Y-132065000D01*
X168263720Y-132222569D01*
X168146289Y-132340000D01*
X167603711Y-132340000D01*
X167486280Y-132222569D01*
X167105874Y-132065000D01*
X166694126Y-132065000D01*
X166433390Y-132173000D01*
X162935000Y-132173000D01*
X162935000Y-132032237D01*
X162951358Y-131950000D01*
X162886552Y-131624199D01*
X162702001Y-131347999D01*
X162632283Y-131301415D01*
X160248587Y-128917720D01*
X160202001Y-128847999D01*
X159925801Y-128663448D01*
X159682237Y-128615000D01*
X159682233Y-128615000D01*
X159600000Y-128598643D01*
X159517767Y-128615000D01*
X156467456Y-128615000D01*
X156447765Y-128601843D01*
X156200000Y-128552560D01*
X155400000Y-128552560D01*
X155152235Y-128601843D01*
X154942191Y-128742191D01*
X154801843Y-128952235D01*
X154752560Y-129200000D01*
X121410000Y-129200000D01*
X121410000Y-128010000D01*
X190190000Y-128010000D01*
X190190001Y-136590000D01*
X190190001Y-136590000D01*
G37*
X190190001Y-136590000D02*
X169669920Y-136590000D01*
X169599999Y-136576092D01*
X169530078Y-136590000D01*
X169530074Y-136590000D01*
X169322972Y-136631195D01*
X169088119Y-136788119D01*
X169048508Y-136847401D01*
X165005910Y-140890000D01*
X146594091Y-140890000D01*
X143458978Y-137754887D01*
X146865000Y-137754887D01*
X146865000Y-138445113D01*
X147129138Y-139082799D01*
X147617201Y-139570862D01*
X148254887Y-139835000D01*
X148945113Y-139835000D01*
X149582799Y-139570862D01*
X150070862Y-139082799D01*
X150335000Y-138445113D01*
X150335000Y-137754887D01*
X161265000Y-137754887D01*
X161265000Y-138445113D01*
X161529138Y-139082799D01*
X162017201Y-139570862D01*
X162654887Y-139835000D01*
X163345113Y-139835000D01*
X163982799Y-139570862D01*
X164470862Y-139082799D01*
X164735000Y-138445113D01*
X164735000Y-137754887D01*
X164470862Y-137117201D01*
X163982799Y-136629138D01*
X163345113Y-136365000D01*
X162654887Y-136365000D01*
X162017201Y-136629138D01*
X161529138Y-137117201D01*
X161265000Y-137754887D01*
X150335000Y-137754887D01*
X150070862Y-137117201D01*
X149582799Y-136629138D01*
X148945113Y-136365000D01*
X148254887Y-136365000D01*
X147617201Y-136629138D01*
X147129138Y-137117201D01*
X146865000Y-137754887D01*
X143458978Y-137754887D01*
X142551494Y-136847404D01*
X142511881Y-136788119D01*
X142277028Y-136631195D01*
X142069926Y-136590000D01*
X142069924Y-136590000D01*
X142000000Y-136576091D01*
X141930076Y-136590000D01*
X121410000Y-136590000D01*
X121410000Y-134844126D01*
X141415000Y-134844126D01*
X141415000Y-135255874D01*
X141572569Y-135636280D01*
X141863720Y-135927431D01*
X142244126Y-136085000D01*
X142655874Y-136085000D01*
X143036280Y-135927431D01*
X143078711Y-135885000D01*
X149371291Y-135885000D01*
X149413722Y-135927431D01*
X149794128Y-136085000D01*
X150205876Y-136085000D01*
X150586282Y-135927431D01*
X150877433Y-135636280D01*
X151035002Y-135255874D01*
X151035002Y-134844126D01*
X150877433Y-134463720D01*
X150586282Y-134172569D01*
X150205876Y-134015000D01*
X149794128Y-134015000D01*
X149413722Y-134172569D01*
X149371291Y-134215000D01*
X143078711Y-134215000D01*
X143036280Y-134172569D01*
X142655874Y-134015000D01*
X142244126Y-134015000D01*
X141863720Y-134172569D01*
X141572569Y-134463720D01*
X141415000Y-134844126D01*
X121410000Y-134844126D01*
X121410000Y-132344126D01*
X141615000Y-132344126D01*
X141615000Y-132755874D01*
X141772569Y-133136280D01*
X142063720Y-133427431D01*
X142444126Y-133585000D01*
X142855874Y-133585000D01*
X143236280Y-133427431D01*
X143353711Y-133310000D01*
X144196289Y-133310000D01*
X144313720Y-133427431D01*
X144694126Y-133585000D01*
X145105874Y-133585000D01*
X145486280Y-133427431D01*
X145777431Y-133136280D01*
X145935000Y-132755874D01*
X145935000Y-132344126D01*
X145777431Y-131963720D01*
X145486280Y-131672569D01*
X145105874Y-131515000D01*
X144694126Y-131515000D01*
X144313720Y-131672569D01*
X144196289Y-131790000D01*
X143353711Y-131790000D01*
X143236280Y-131672569D01*
X142855874Y-131515000D01*
X142444126Y-131515000D01*
X142063720Y-131672569D01*
X141772569Y-131963720D01*
X141615000Y-132344126D01*
X121410000Y-132344126D01*
X121410000Y-129200000D01*
X154752560Y-129200000D01*
X154752560Y-129700000D01*
X154801843Y-129947765D01*
X154942191Y-130157809D01*
X155005334Y-130200000D01*
X154942191Y-130242191D01*
X154801843Y-130452235D01*
X154752560Y-130700000D01*
X154752560Y-131200000D01*
X154801843Y-131447765D01*
X154870155Y-131550000D01*
X154801843Y-131652235D01*
X154752560Y-131900000D01*
X154752560Y-132700000D01*
X154801843Y-132947765D01*
X154942191Y-133157809D01*
X155152235Y-133298157D01*
X155400000Y-133347440D01*
X156200000Y-133347440D01*
X156302760Y-133327000D01*
X161265000Y-133327000D01*
X161265001Y-134371288D01*
X161222569Y-134413720D01*
X161065000Y-134794126D01*
X161065000Y-135205874D01*
X161222569Y-135586280D01*
X161513720Y-135877431D01*
X161894126Y-136035000D01*
X162305874Y-136035000D01*
X162686280Y-135877431D01*
X162728711Y-135835000D01*
X168221289Y-135835000D01*
X168263720Y-135877431D01*
X168644126Y-136035000D01*
X169055874Y-136035000D01*
X169436280Y-135877431D01*
X169727431Y-135586280D01*
X169885000Y-135205874D01*
X169885000Y-134794126D01*
X169827000Y-134654101D01*
X169827000Y-133445899D01*
X169885000Y-133305874D01*
X169885000Y-132894126D01*
X169727431Y-132513720D01*
X169436280Y-132222569D01*
X169055874Y-132065000D01*
X168644126Y-132065000D01*
X168263720Y-132222569D01*
X168146289Y-132340000D01*
X167603711Y-132340000D01*
X167486280Y-132222569D01*
X167105874Y-132065000D01*
X166694126Y-132065000D01*
X166433390Y-132173000D01*
X162935000Y-132173000D01*
X162935000Y-132032237D01*
X162951358Y-131950000D01*
X162886552Y-131624199D01*
X162702001Y-131347999D01*
X162632283Y-131301415D01*
X160248587Y-128917720D01*
X160202001Y-128847999D01*
X159925801Y-128663448D01*
X159682237Y-128615000D01*
X159682233Y-128615000D01*
X159600000Y-128598643D01*
X159517767Y-128615000D01*
X156467456Y-128615000D01*
X156447765Y-128601843D01*
X156200000Y-128552560D01*
X155400000Y-128552560D01*
X155152235Y-128601843D01*
X154942191Y-128742191D01*
X154801843Y-128952235D01*
X154752560Y-129200000D01*
X121410000Y-129200000D01*
X121410000Y-128010000D01*
X190190000Y-128010000D01*
X190190001Y-136590000D01*
G36*
X126973000Y-124000000D02*
X126982667Y-124048601D01*
X127003000Y-124079032D01*
X127003000Y-124173000D01*
X128273000Y-124173000D01*
X128273000Y-124153000D01*
X128527000Y-124153000D01*
X128527000Y-124173000D01*
X128547000Y-124173000D01*
X128547000Y-124427000D01*
X128527000Y-124427000D01*
X128527000Y-124447000D01*
X128273000Y-124447000D01*
X128273000Y-124427000D01*
X127003000Y-124427000D01*
X127003000Y-125165000D01*
X127062032Y-125365000D01*
X124727000Y-125365000D01*
X124727000Y-124414427D01*
X124735000Y-124395113D01*
X124735000Y-124150547D01*
X124755000Y-124050000D01*
X124735000Y-123949453D01*
X124735000Y-123704887D01*
X124727000Y-123685573D01*
X124727000Y-122735000D01*
X126973000Y-122735000D01*
X126973000Y-124000000D01*
X126973000Y-124000000D01*
G37*
X126973000Y-124000000D02*
X126982667Y-124048601D01*
X127003000Y-124079032D01*
X127003000Y-124173000D01*
X128273000Y-124173000D01*
X128273000Y-124153000D01*
X128527000Y-124153000D01*
X128527000Y-124173000D01*
X128547000Y-124173000D01*
X128547000Y-124427000D01*
X128527000Y-124427000D01*
X128527000Y-124447000D01*
X128273000Y-124447000D01*
X128273000Y-124427000D01*
X127003000Y-124427000D01*
X127003000Y-125165000D01*
X127062032Y-125365000D01*
X124727000Y-125365000D01*
X124727000Y-124414427D01*
X124735000Y-124395113D01*
X124735000Y-124150547D01*
X124755000Y-124050000D01*
X124735000Y-123949453D01*
X124735000Y-123704887D01*
X124727000Y-123685573D01*
X124727000Y-122735000D01*
X126973000Y-122735000D01*
X126973000Y-124000000D01*
G36*
X137227000Y-123173000D02*
X137273000Y-123173000D01*
X137273000Y-123427000D01*
X137227000Y-123427000D01*
X137227000Y-123447000D01*
X136973000Y-123447000D01*
X136973000Y-123427000D01*
X136953000Y-123427000D01*
X136953000Y-123173000D01*
X136973000Y-123173000D01*
X136973000Y-123153000D01*
X137227000Y-123153000D01*
X137227000Y-123173000D01*
X137227000Y-123173000D01*
G37*
X137227000Y-123173000D02*
X137273000Y-123173000D01*
X137273000Y-123427000D01*
X137227000Y-123427000D01*
X137227000Y-123447000D01*
X136973000Y-123447000D01*
X136973000Y-123427000D01*
X136953000Y-123427000D01*
X136953000Y-123173000D01*
X136973000Y-123173000D01*
X136973000Y-123153000D01*
X137227000Y-123153000D01*
X137227000Y-123173000D01*
G36*
X172173000Y-124000000D02*
X172182667Y-124048601D01*
X172203000Y-124079032D01*
X172203000Y-124173000D01*
X173473000Y-124173000D01*
X173473000Y-124153000D01*
X173727000Y-124153000D01*
X173727000Y-124173000D01*
X173747000Y-124173000D01*
X173747000Y-124427000D01*
X173727000Y-124427000D01*
X173727000Y-124447000D01*
X173473000Y-124447000D01*
X173473000Y-124427000D01*
X172203000Y-124427000D01*
X172203000Y-125165000D01*
X172262032Y-125365000D01*
X169927000Y-125365000D01*
X169927000Y-124414427D01*
X169935000Y-124395113D01*
X169935000Y-124150547D01*
X169955000Y-124050000D01*
X169935000Y-123949453D01*
X169935000Y-123704887D01*
X169927000Y-123685573D01*
X169927000Y-122735000D01*
X172173000Y-122735000D01*
X172173000Y-124000000D01*
X172173000Y-124000000D01*
G37*
X172173000Y-124000000D02*
X172182667Y-124048601D01*
X172203000Y-124079032D01*
X172203000Y-124173000D01*
X173473000Y-124173000D01*
X173473000Y-124153000D01*
X173727000Y-124153000D01*
X173727000Y-124173000D01*
X173747000Y-124173000D01*
X173747000Y-124427000D01*
X173727000Y-124427000D01*
X173727000Y-124447000D01*
X173473000Y-124447000D01*
X173473000Y-124427000D01*
X172203000Y-124427000D01*
X172203000Y-125165000D01*
X172262032Y-125365000D01*
X169927000Y-125365000D01*
X169927000Y-124414427D01*
X169935000Y-124395113D01*
X169935000Y-124150547D01*
X169955000Y-124050000D01*
X169935000Y-123949453D01*
X169935000Y-123704887D01*
X169927000Y-123685573D01*
X169927000Y-122735000D01*
X172173000Y-122735000D01*
X172173000Y-124000000D01*
G36*
X182427000Y-123173000D02*
X182473000Y-123173000D01*
X182473000Y-123427000D01*
X182427000Y-123427000D01*
X182427000Y-123447000D01*
X182173000Y-123447000D01*
X182173000Y-123427000D01*
X182153000Y-123427000D01*
X182153000Y-123173000D01*
X182173000Y-123173000D01*
X182173000Y-123153000D01*
X182427000Y-123153000D01*
X182427000Y-123173000D01*
X182427000Y-123173000D01*
G37*
X182427000Y-123173000D02*
X182473000Y-123173000D01*
X182473000Y-123427000D01*
X182427000Y-123427000D01*
X182427000Y-123447000D01*
X182173000Y-123447000D01*
X182173000Y-123427000D01*
X182153000Y-123427000D01*
X182153000Y-123173000D01*
X182173000Y-123173000D01*
X182173000Y-123153000D01*
X182427000Y-123153000D01*
X182427000Y-123173000D01*
G36*
X172173000Y-103600000D02*
X172182667Y-103648601D01*
X172203000Y-103679032D01*
X172203000Y-103773000D01*
X173473000Y-103773000D01*
X173473000Y-103753000D01*
X173727000Y-103753000D01*
X173727000Y-103773000D01*
X173747000Y-103773000D01*
X173747000Y-104027000D01*
X173727000Y-104027000D01*
X173727000Y-104047000D01*
X173473000Y-104047000D01*
X173473000Y-104027000D01*
X172203000Y-104027000D01*
X172203000Y-104765000D01*
X172262032Y-104965000D01*
X169927000Y-104965000D01*
X169927000Y-104014427D01*
X169935000Y-103995113D01*
X169935000Y-103750547D01*
X169955000Y-103650000D01*
X169935000Y-103549453D01*
X169935000Y-103304887D01*
X169927000Y-103285573D01*
X169927000Y-102335000D01*
X172173000Y-102335000D01*
X172173000Y-103600000D01*
X172173000Y-103600000D01*
G37*
X172173000Y-103600000D02*
X172182667Y-103648601D01*
X172203000Y-103679032D01*
X172203000Y-103773000D01*
X173473000Y-103773000D01*
X173473000Y-103753000D01*
X173727000Y-103753000D01*
X173727000Y-103773000D01*
X173747000Y-103773000D01*
X173747000Y-104027000D01*
X173727000Y-104027000D01*
X173727000Y-104047000D01*
X173473000Y-104047000D01*
X173473000Y-104027000D01*
X172203000Y-104027000D01*
X172203000Y-104765000D01*
X172262032Y-104965000D01*
X169927000Y-104965000D01*
X169927000Y-104014427D01*
X169935000Y-103995113D01*
X169935000Y-103750547D01*
X169955000Y-103650000D01*
X169935000Y-103549453D01*
X169935000Y-103304887D01*
X169927000Y-103285573D01*
X169927000Y-102335000D01*
X172173000Y-102335000D01*
X172173000Y-103600000D01*
G36*
X182427000Y-102773000D02*
X182473000Y-102773000D01*
X182473000Y-103027000D01*
X182427000Y-103027000D01*
X182427000Y-103047000D01*
X182173000Y-103047000D01*
X182173000Y-103027000D01*
X182153000Y-103027000D01*
X182153000Y-102773000D01*
X182173000Y-102773000D01*
X182173000Y-102753000D01*
X182427000Y-102753000D01*
X182427000Y-102773000D01*
X182427000Y-102773000D01*
G37*
X182427000Y-102773000D02*
X182473000Y-102773000D01*
X182473000Y-103027000D01*
X182427000Y-103027000D01*
X182427000Y-103047000D01*
X182173000Y-103047000D01*
X182173000Y-103027000D01*
X182153000Y-103027000D01*
X182153000Y-102773000D01*
X182173000Y-102773000D01*
X182173000Y-102753000D01*
X182427000Y-102753000D01*
X182427000Y-102773000D01*
G36*
X126973000Y-103600000D02*
X126982667Y-103648601D01*
X127003000Y-103679032D01*
X127003000Y-103773000D01*
X128273000Y-103773000D01*
X128273000Y-103753000D01*
X128527000Y-103753000D01*
X128527000Y-103773000D01*
X128547000Y-103773000D01*
X128547000Y-104027000D01*
X128527000Y-104027000D01*
X128527000Y-104047000D01*
X128273000Y-104047000D01*
X128273000Y-104027000D01*
X127003000Y-104027000D01*
X127003000Y-104765000D01*
X127062032Y-104965000D01*
X124727000Y-104965000D01*
X124727000Y-104014427D01*
X124735000Y-103995113D01*
X124735000Y-103750547D01*
X124755000Y-103650000D01*
X124735000Y-103549453D01*
X124735000Y-103304887D01*
X124727000Y-103285573D01*
X124727000Y-102335000D01*
X126973000Y-102335000D01*
X126973000Y-103600000D01*
X126973000Y-103600000D01*
G37*
X126973000Y-103600000D02*
X126982667Y-103648601D01*
X127003000Y-103679032D01*
X127003000Y-103773000D01*
X128273000Y-103773000D01*
X128273000Y-103753000D01*
X128527000Y-103753000D01*
X128527000Y-103773000D01*
X128547000Y-103773000D01*
X128547000Y-104027000D01*
X128527000Y-104027000D01*
X128527000Y-104047000D01*
X128273000Y-104047000D01*
X128273000Y-104027000D01*
X127003000Y-104027000D01*
X127003000Y-104765000D01*
X127062032Y-104965000D01*
X124727000Y-104965000D01*
X124727000Y-104014427D01*
X124735000Y-103995113D01*
X124735000Y-103750547D01*
X124755000Y-103650000D01*
X124735000Y-103549453D01*
X124735000Y-103304887D01*
X124727000Y-103285573D01*
X124727000Y-102335000D01*
X126973000Y-102335000D01*
X126973000Y-103600000D01*
G36*
X137227000Y-102773000D02*
X137273000Y-102773000D01*
X137273000Y-103027000D01*
X137227000Y-103027000D01*
X137227000Y-103047000D01*
X136973000Y-103047000D01*
X136973000Y-103027000D01*
X136953000Y-103027000D01*
X136953000Y-102773000D01*
X136973000Y-102773000D01*
X136973000Y-102753000D01*
X137227000Y-102753000D01*
X137227000Y-102773000D01*
X137227000Y-102773000D01*
G37*
X137227000Y-102773000D02*
X137273000Y-102773000D01*
X137273000Y-103027000D01*
X137227000Y-103027000D01*
X137227000Y-103047000D01*
X136973000Y-103047000D01*
X136973000Y-103027000D01*
X136953000Y-103027000D01*
X136953000Y-102773000D01*
X136973000Y-102773000D01*
X136973000Y-102753000D01*
X137227000Y-102753000D01*
X137227000Y-102773000D01*
G36*
X190190001Y-116190000D02*
X169669920Y-116190000D01*
X169599999Y-116176092D01*
X169530078Y-116190000D01*
X169530074Y-116190000D01*
X169322972Y-116231195D01*
X169088119Y-116388119D01*
X169048508Y-116447401D01*
X165005910Y-120490000D01*
X146594091Y-120490000D01*
X143458978Y-117354887D01*
X146865000Y-117354887D01*
X146865000Y-118045113D01*
X147129138Y-118682799D01*
X147617201Y-119170862D01*
X148254887Y-119435000D01*
X148945113Y-119435000D01*
X149582799Y-119170862D01*
X150070862Y-118682799D01*
X150335000Y-118045113D01*
X150335000Y-117354887D01*
X161265000Y-117354887D01*
X161265000Y-118045113D01*
X161529138Y-118682799D01*
X162017201Y-119170862D01*
X162654887Y-119435000D01*
X163345113Y-119435000D01*
X163982799Y-119170862D01*
X164470862Y-118682799D01*
X164735000Y-118045113D01*
X164735000Y-117354887D01*
X164470862Y-116717201D01*
X163982799Y-116229138D01*
X163345113Y-115965000D01*
X162654887Y-115965000D01*
X162017201Y-116229138D01*
X161529138Y-116717201D01*
X161265000Y-117354887D01*
X150335000Y-117354887D01*
X150070862Y-116717201D01*
X149582799Y-116229138D01*
X148945113Y-115965000D01*
X148254887Y-115965000D01*
X147617201Y-116229138D01*
X147129138Y-116717201D01*
X146865000Y-117354887D01*
X143458978Y-117354887D01*
X142551494Y-116447404D01*
X142511881Y-116388119D01*
X142277028Y-116231195D01*
X142069926Y-116190000D01*
X142069924Y-116190000D01*
X142000000Y-116176091D01*
X141930076Y-116190000D01*
X121410000Y-116190000D01*
X121410000Y-114444126D01*
X141415000Y-114444126D01*
X141415000Y-114855874D01*
X141572569Y-115236280D01*
X141863720Y-115527431D01*
X142244126Y-115685000D01*
X142655874Y-115685000D01*
X143036280Y-115527431D01*
X143078711Y-115485000D01*
X149371291Y-115485000D01*
X149413722Y-115527431D01*
X149794128Y-115685000D01*
X150205876Y-115685000D01*
X150586282Y-115527431D01*
X150877433Y-115236280D01*
X151035002Y-114855874D01*
X151035002Y-114444126D01*
X150877433Y-114063720D01*
X150586282Y-113772569D01*
X150205876Y-113615000D01*
X149794128Y-113615000D01*
X149413722Y-113772569D01*
X149371291Y-113815000D01*
X143078711Y-113815000D01*
X143036280Y-113772569D01*
X142655874Y-113615000D01*
X142244126Y-113615000D01*
X141863720Y-113772569D01*
X141572569Y-114063720D01*
X141415000Y-114444126D01*
X121410000Y-114444126D01*
X121410000Y-111944126D01*
X141615000Y-111944126D01*
X141615000Y-112355874D01*
X141772569Y-112736280D01*
X142063720Y-113027431D01*
X142444126Y-113185000D01*
X142855874Y-113185000D01*
X143236280Y-113027431D01*
X143353711Y-112910000D01*
X144196289Y-112910000D01*
X144313720Y-113027431D01*
X144694126Y-113185000D01*
X145105874Y-113185000D01*
X145486280Y-113027431D01*
X145777431Y-112736280D01*
X145935000Y-112355874D01*
X145935000Y-111944126D01*
X145777431Y-111563720D01*
X145486280Y-111272569D01*
X145105874Y-111115000D01*
X144694126Y-111115000D01*
X144313720Y-111272569D01*
X144196289Y-111390000D01*
X143353711Y-111390000D01*
X143236280Y-111272569D01*
X142855874Y-111115000D01*
X142444126Y-111115000D01*
X142063720Y-111272569D01*
X141772569Y-111563720D01*
X141615000Y-111944126D01*
X121410000Y-111944126D01*
X121410000Y-108800000D01*
X154752560Y-108800000D01*
X154752560Y-109300000D01*
X154801843Y-109547765D01*
X154942191Y-109757809D01*
X155005334Y-109800000D01*
X154942191Y-109842191D01*
X154801843Y-110052235D01*
X154752560Y-110300000D01*
X154752560Y-110800000D01*
X154801843Y-111047765D01*
X154870155Y-111150000D01*
X154801843Y-111252235D01*
X154752560Y-111500000D01*
X154752560Y-112300000D01*
X154801843Y-112547765D01*
X154942191Y-112757809D01*
X155152235Y-112898157D01*
X155400000Y-112947440D01*
X156200000Y-112947440D01*
X156302760Y-112927000D01*
X161265000Y-112927000D01*
X161265001Y-113971288D01*
X161222569Y-114013720D01*
X161065000Y-114394126D01*
X161065000Y-114805874D01*
X161222569Y-115186280D01*
X161513720Y-115477431D01*
X161894126Y-115635000D01*
X162305874Y-115635000D01*
X162686280Y-115477431D01*
X162728711Y-115435000D01*
X168221289Y-115435000D01*
X168263720Y-115477431D01*
X168644126Y-115635000D01*
X169055874Y-115635000D01*
X169436280Y-115477431D01*
X169727431Y-115186280D01*
X169885000Y-114805874D01*
X169885000Y-114394126D01*
X169827000Y-114254101D01*
X169827000Y-113045899D01*
X169885000Y-112905874D01*
X169885000Y-112494126D01*
X169727431Y-112113720D01*
X169436280Y-111822569D01*
X169055874Y-111665000D01*
X168644126Y-111665000D01*
X168263720Y-111822569D01*
X168146289Y-111940000D01*
X167603711Y-111940000D01*
X167486280Y-111822569D01*
X167105874Y-111665000D01*
X166694126Y-111665000D01*
X166433390Y-111773000D01*
X162935000Y-111773000D01*
X162935000Y-111632237D01*
X162951358Y-111550000D01*
X162886552Y-111224199D01*
X162702001Y-110947999D01*
X162632283Y-110901415D01*
X160248587Y-108517720D01*
X160202001Y-108447999D01*
X159925801Y-108263448D01*
X159682237Y-108215000D01*
X159682233Y-108215000D01*
X159600000Y-108198643D01*
X159517767Y-108215000D01*
X156467456Y-108215000D01*
X156447765Y-108201843D01*
X156200000Y-108152560D01*
X155400000Y-108152560D01*
X155152235Y-108201843D01*
X154942191Y-108342191D01*
X154801843Y-108552235D01*
X154752560Y-108800000D01*
X121410000Y-108800000D01*
X121410000Y-107610000D01*
X190190000Y-107610000D01*
X190190001Y-116190000D01*
X190190001Y-116190000D01*
G37*
X190190001Y-116190000D02*
X169669920Y-116190000D01*
X169599999Y-116176092D01*
X169530078Y-116190000D01*
X169530074Y-116190000D01*
X169322972Y-116231195D01*
X169088119Y-116388119D01*
X169048508Y-116447401D01*
X165005910Y-120490000D01*
X146594091Y-120490000D01*
X143458978Y-117354887D01*
X146865000Y-117354887D01*
X146865000Y-118045113D01*
X147129138Y-118682799D01*
X147617201Y-119170862D01*
X148254887Y-119435000D01*
X148945113Y-119435000D01*
X149582799Y-119170862D01*
X150070862Y-118682799D01*
X150335000Y-118045113D01*
X150335000Y-117354887D01*
X161265000Y-117354887D01*
X161265000Y-118045113D01*
X161529138Y-118682799D01*
X162017201Y-119170862D01*
X162654887Y-119435000D01*
X163345113Y-119435000D01*
X163982799Y-119170862D01*
X164470862Y-118682799D01*
X164735000Y-118045113D01*
X164735000Y-117354887D01*
X164470862Y-116717201D01*
X163982799Y-116229138D01*
X163345113Y-115965000D01*
X162654887Y-115965000D01*
X162017201Y-116229138D01*
X161529138Y-116717201D01*
X161265000Y-117354887D01*
X150335000Y-117354887D01*
X150070862Y-116717201D01*
X149582799Y-116229138D01*
X148945113Y-115965000D01*
X148254887Y-115965000D01*
X147617201Y-116229138D01*
X147129138Y-116717201D01*
X146865000Y-117354887D01*
X143458978Y-117354887D01*
X142551494Y-116447404D01*
X142511881Y-116388119D01*
X142277028Y-116231195D01*
X142069926Y-116190000D01*
X142069924Y-116190000D01*
X142000000Y-116176091D01*
X141930076Y-116190000D01*
X121410000Y-116190000D01*
X121410000Y-114444126D01*
X141415000Y-114444126D01*
X141415000Y-114855874D01*
X141572569Y-115236280D01*
X141863720Y-115527431D01*
X142244126Y-115685000D01*
X142655874Y-115685000D01*
X143036280Y-115527431D01*
X143078711Y-115485000D01*
X149371291Y-115485000D01*
X149413722Y-115527431D01*
X149794128Y-115685000D01*
X150205876Y-115685000D01*
X150586282Y-115527431D01*
X150877433Y-115236280D01*
X151035002Y-114855874D01*
X151035002Y-114444126D01*
X150877433Y-114063720D01*
X150586282Y-113772569D01*
X150205876Y-113615000D01*
X149794128Y-113615000D01*
X149413722Y-113772569D01*
X149371291Y-113815000D01*
X143078711Y-113815000D01*
X143036280Y-113772569D01*
X142655874Y-113615000D01*
X142244126Y-113615000D01*
X141863720Y-113772569D01*
X141572569Y-114063720D01*
X141415000Y-114444126D01*
X121410000Y-114444126D01*
X121410000Y-111944126D01*
X141615000Y-111944126D01*
X141615000Y-112355874D01*
X141772569Y-112736280D01*
X142063720Y-113027431D01*
X142444126Y-113185000D01*
X142855874Y-113185000D01*
X143236280Y-113027431D01*
X143353711Y-112910000D01*
X144196289Y-112910000D01*
X144313720Y-113027431D01*
X144694126Y-113185000D01*
X145105874Y-113185000D01*
X145486280Y-113027431D01*
X145777431Y-112736280D01*
X145935000Y-112355874D01*
X145935000Y-111944126D01*
X145777431Y-111563720D01*
X145486280Y-111272569D01*
X145105874Y-111115000D01*
X144694126Y-111115000D01*
X144313720Y-111272569D01*
X144196289Y-111390000D01*
X143353711Y-111390000D01*
X143236280Y-111272569D01*
X142855874Y-111115000D01*
X142444126Y-111115000D01*
X142063720Y-111272569D01*
X141772569Y-111563720D01*
X141615000Y-111944126D01*
X121410000Y-111944126D01*
X121410000Y-108800000D01*
X154752560Y-108800000D01*
X154752560Y-109300000D01*
X154801843Y-109547765D01*
X154942191Y-109757809D01*
X155005334Y-109800000D01*
X154942191Y-109842191D01*
X154801843Y-110052235D01*
X154752560Y-110300000D01*
X154752560Y-110800000D01*
X154801843Y-111047765D01*
X154870155Y-111150000D01*
X154801843Y-111252235D01*
X154752560Y-111500000D01*
X154752560Y-112300000D01*
X154801843Y-112547765D01*
X154942191Y-112757809D01*
X155152235Y-112898157D01*
X155400000Y-112947440D01*
X156200000Y-112947440D01*
X156302760Y-112927000D01*
X161265000Y-112927000D01*
X161265001Y-113971288D01*
X161222569Y-114013720D01*
X161065000Y-114394126D01*
X161065000Y-114805874D01*
X161222569Y-115186280D01*
X161513720Y-115477431D01*
X161894126Y-115635000D01*
X162305874Y-115635000D01*
X162686280Y-115477431D01*
X162728711Y-115435000D01*
X168221289Y-115435000D01*
X168263720Y-115477431D01*
X168644126Y-115635000D01*
X169055874Y-115635000D01*
X169436280Y-115477431D01*
X169727431Y-115186280D01*
X169885000Y-114805874D01*
X169885000Y-114394126D01*
X169827000Y-114254101D01*
X169827000Y-113045899D01*
X169885000Y-112905874D01*
X169885000Y-112494126D01*
X169727431Y-112113720D01*
X169436280Y-111822569D01*
X169055874Y-111665000D01*
X168644126Y-111665000D01*
X168263720Y-111822569D01*
X168146289Y-111940000D01*
X167603711Y-111940000D01*
X167486280Y-111822569D01*
X167105874Y-111665000D01*
X166694126Y-111665000D01*
X166433390Y-111773000D01*
X162935000Y-111773000D01*
X162935000Y-111632237D01*
X162951358Y-111550000D01*
X162886552Y-111224199D01*
X162702001Y-110947999D01*
X162632283Y-110901415D01*
X160248587Y-108517720D01*
X160202001Y-108447999D01*
X159925801Y-108263448D01*
X159682237Y-108215000D01*
X159682233Y-108215000D01*
X159600000Y-108198643D01*
X159517767Y-108215000D01*
X156467456Y-108215000D01*
X156447765Y-108201843D01*
X156200000Y-108152560D01*
X155400000Y-108152560D01*
X155152235Y-108201843D01*
X154942191Y-108342191D01*
X154801843Y-108552235D01*
X154752560Y-108800000D01*
X121410000Y-108800000D01*
X121410000Y-107610000D01*
X190190000Y-107610000D01*
X190190001Y-116190000D01*
G36*
X172173000Y-83100000D02*
X172182667Y-83148601D01*
X172203000Y-83179032D01*
X172203000Y-83273000D01*
X173473000Y-83273000D01*
X173473000Y-83253000D01*
X173727000Y-83253000D01*
X173727000Y-83273000D01*
X173747000Y-83273000D01*
X173747000Y-83527000D01*
X173727000Y-83527000D01*
X173727000Y-83547000D01*
X173473000Y-83547000D01*
X173473000Y-83527000D01*
X172203000Y-83527000D01*
X172203000Y-84265000D01*
X172262032Y-84465000D01*
X169927000Y-84465000D01*
X169927000Y-83514427D01*
X169935000Y-83495113D01*
X169935000Y-83250547D01*
X169955000Y-83150000D01*
X169935000Y-83049453D01*
X169935000Y-82804887D01*
X169927000Y-82785573D01*
X169927000Y-81835000D01*
X172173000Y-81835000D01*
X172173000Y-83100000D01*
X172173000Y-83100000D01*
G37*
X172173000Y-83100000D02*
X172182667Y-83148601D01*
X172203000Y-83179032D01*
X172203000Y-83273000D01*
X173473000Y-83273000D01*
X173473000Y-83253000D01*
X173727000Y-83253000D01*
X173727000Y-83273000D01*
X173747000Y-83273000D01*
X173747000Y-83527000D01*
X173727000Y-83527000D01*
X173727000Y-83547000D01*
X173473000Y-83547000D01*
X173473000Y-83527000D01*
X172203000Y-83527000D01*
X172203000Y-84265000D01*
X172262032Y-84465000D01*
X169927000Y-84465000D01*
X169927000Y-83514427D01*
X169935000Y-83495113D01*
X169935000Y-83250547D01*
X169955000Y-83150000D01*
X169935000Y-83049453D01*
X169935000Y-82804887D01*
X169927000Y-82785573D01*
X169927000Y-81835000D01*
X172173000Y-81835000D01*
X172173000Y-83100000D01*
G36*
X182427000Y-82273000D02*
X182473000Y-82273000D01*
X182473000Y-82527000D01*
X182427000Y-82527000D01*
X182427000Y-82547000D01*
X182173000Y-82547000D01*
X182173000Y-82527000D01*
X182153000Y-82527000D01*
X182153000Y-82273000D01*
X182173000Y-82273000D01*
X182173000Y-82253000D01*
X182427000Y-82253000D01*
X182427000Y-82273000D01*
X182427000Y-82273000D01*
G37*
X182427000Y-82273000D02*
X182473000Y-82273000D01*
X182473000Y-82527000D01*
X182427000Y-82527000D01*
X182427000Y-82547000D01*
X182173000Y-82547000D01*
X182173000Y-82527000D01*
X182153000Y-82527000D01*
X182153000Y-82273000D01*
X182173000Y-82273000D01*
X182173000Y-82253000D01*
X182427000Y-82253000D01*
X182427000Y-82273000D01*
G36*
X126973000Y-83100000D02*
X126982667Y-83148601D01*
X127003000Y-83179032D01*
X127003000Y-83273000D01*
X128273000Y-83273000D01*
X128273000Y-83253000D01*
X128527000Y-83253000D01*
X128527000Y-83273000D01*
X128547000Y-83273000D01*
X128547000Y-83527000D01*
X128527000Y-83527000D01*
X128527000Y-83547000D01*
X128273000Y-83547000D01*
X128273000Y-83527000D01*
X127003000Y-83527000D01*
X127003000Y-84265000D01*
X127062032Y-84465000D01*
X124727000Y-84465000D01*
X124727000Y-83514427D01*
X124735000Y-83495113D01*
X124735000Y-83250547D01*
X124755000Y-83150000D01*
X124735000Y-83049453D01*
X124735000Y-82804887D01*
X124727000Y-82785573D01*
X124727000Y-81835000D01*
X126973000Y-81835000D01*
X126973000Y-83100000D01*
X126973000Y-83100000D01*
G37*
X126973000Y-83100000D02*
X126982667Y-83148601D01*
X127003000Y-83179032D01*
X127003000Y-83273000D01*
X128273000Y-83273000D01*
X128273000Y-83253000D01*
X128527000Y-83253000D01*
X128527000Y-83273000D01*
X128547000Y-83273000D01*
X128547000Y-83527000D01*
X128527000Y-83527000D01*
X128527000Y-83547000D01*
X128273000Y-83547000D01*
X128273000Y-83527000D01*
X127003000Y-83527000D01*
X127003000Y-84265000D01*
X127062032Y-84465000D01*
X124727000Y-84465000D01*
X124727000Y-83514427D01*
X124735000Y-83495113D01*
X124735000Y-83250547D01*
X124755000Y-83150000D01*
X124735000Y-83049453D01*
X124735000Y-82804887D01*
X124727000Y-82785573D01*
X124727000Y-81835000D01*
X126973000Y-81835000D01*
X126973000Y-83100000D01*
G36*
X137227000Y-82273000D02*
X137273000Y-82273000D01*
X137273000Y-82527000D01*
X137227000Y-82527000D01*
X137227000Y-82547000D01*
X136973000Y-82547000D01*
X136973000Y-82527000D01*
X136953000Y-82527000D01*
X136953000Y-82273000D01*
X136973000Y-82273000D01*
X136973000Y-82253000D01*
X137227000Y-82253000D01*
X137227000Y-82273000D01*
X137227000Y-82273000D01*
G37*
X137227000Y-82273000D02*
X137273000Y-82273000D01*
X137273000Y-82527000D01*
X137227000Y-82527000D01*
X137227000Y-82547000D01*
X136973000Y-82547000D01*
X136973000Y-82527000D01*
X136953000Y-82527000D01*
X136953000Y-82273000D01*
X136973000Y-82273000D01*
X136973000Y-82253000D01*
X137227000Y-82253000D01*
X137227000Y-82273000D01*
G36*
X190190001Y-95690000D02*
X169669920Y-95690000D01*
X169599999Y-95676092D01*
X169530078Y-95690000D01*
X169530074Y-95690000D01*
X169322972Y-95731195D01*
X169088119Y-95888119D01*
X169048508Y-95947401D01*
X165005910Y-99990000D01*
X146594091Y-99990000D01*
X143458978Y-96854887D01*
X146865000Y-96854887D01*
X146865000Y-97545113D01*
X147129138Y-98182799D01*
X147617201Y-98670862D01*
X148254887Y-98935000D01*
X148945113Y-98935000D01*
X149582799Y-98670862D01*
X150070862Y-98182799D01*
X150335000Y-97545113D01*
X150335000Y-96854887D01*
X161265000Y-96854887D01*
X161265000Y-97545113D01*
X161529138Y-98182799D01*
X162017201Y-98670862D01*
X162654887Y-98935000D01*
X163345113Y-98935000D01*
X163982799Y-98670862D01*
X164470862Y-98182799D01*
X164735000Y-97545113D01*
X164735000Y-96854887D01*
X164470862Y-96217201D01*
X163982799Y-95729138D01*
X163345113Y-95465000D01*
X162654887Y-95465000D01*
X162017201Y-95729138D01*
X161529138Y-96217201D01*
X161265000Y-96854887D01*
X150335000Y-96854887D01*
X150070862Y-96217201D01*
X149582799Y-95729138D01*
X148945113Y-95465000D01*
X148254887Y-95465000D01*
X147617201Y-95729138D01*
X147129138Y-96217201D01*
X146865000Y-96854887D01*
X143458978Y-96854887D01*
X142551494Y-95947404D01*
X142511881Y-95888119D01*
X142277028Y-95731195D01*
X142069926Y-95690000D01*
X142069924Y-95690000D01*
X142000000Y-95676091D01*
X141930076Y-95690000D01*
X121410000Y-95690000D01*
X121410000Y-93944126D01*
X141415000Y-93944126D01*
X141415000Y-94355874D01*
X141572569Y-94736280D01*
X141863720Y-95027431D01*
X142244126Y-95185000D01*
X142655874Y-95185000D01*
X143036280Y-95027431D01*
X143078711Y-94985000D01*
X149371291Y-94985000D01*
X149413722Y-95027431D01*
X149794128Y-95185000D01*
X150205876Y-95185000D01*
X150586282Y-95027431D01*
X150877433Y-94736280D01*
X151035002Y-94355874D01*
X151035002Y-93944126D01*
X150877433Y-93563720D01*
X150586282Y-93272569D01*
X150205876Y-93115000D01*
X149794128Y-93115000D01*
X149413722Y-93272569D01*
X149371291Y-93315000D01*
X143078711Y-93315000D01*
X143036280Y-93272569D01*
X142655874Y-93115000D01*
X142244126Y-93115000D01*
X141863720Y-93272569D01*
X141572569Y-93563720D01*
X141415000Y-93944126D01*
X121410000Y-93944126D01*
X121410000Y-91444126D01*
X141615000Y-91444126D01*
X141615000Y-91855874D01*
X141772569Y-92236280D01*
X142063720Y-92527431D01*
X142444126Y-92685000D01*
X142855874Y-92685000D01*
X143236280Y-92527431D01*
X143353711Y-92410000D01*
X144196289Y-92410000D01*
X144313720Y-92527431D01*
X144694126Y-92685000D01*
X145105874Y-92685000D01*
X145486280Y-92527431D01*
X145777431Y-92236280D01*
X145935000Y-91855874D01*
X145935000Y-91444126D01*
X145777431Y-91063720D01*
X145486280Y-90772569D01*
X145105874Y-90615000D01*
X144694126Y-90615000D01*
X144313720Y-90772569D01*
X144196289Y-90890000D01*
X143353711Y-90890000D01*
X143236280Y-90772569D01*
X142855874Y-90615000D01*
X142444126Y-90615000D01*
X142063720Y-90772569D01*
X141772569Y-91063720D01*
X141615000Y-91444126D01*
X121410000Y-91444126D01*
X121410000Y-88300000D01*
X154752560Y-88300000D01*
X154752560Y-88800000D01*
X154801843Y-89047765D01*
X154942191Y-89257809D01*
X155005334Y-89300000D01*
X154942191Y-89342191D01*
X154801843Y-89552235D01*
X154752560Y-89800000D01*
X154752560Y-90300000D01*
X154801843Y-90547765D01*
X154870155Y-90650000D01*
X154801843Y-90752235D01*
X154752560Y-91000000D01*
X154752560Y-91800000D01*
X154801843Y-92047765D01*
X154942191Y-92257809D01*
X155152235Y-92398157D01*
X155400000Y-92447440D01*
X156200000Y-92447440D01*
X156302760Y-92427000D01*
X161265000Y-92427000D01*
X161265001Y-93471288D01*
X161222569Y-93513720D01*
X161065000Y-93894126D01*
X161065000Y-94305874D01*
X161222569Y-94686280D01*
X161513720Y-94977431D01*
X161894126Y-95135000D01*
X162305874Y-95135000D01*
X162686280Y-94977431D01*
X162728711Y-94935000D01*
X168221289Y-94935000D01*
X168263720Y-94977431D01*
X168644126Y-95135000D01*
X169055874Y-95135000D01*
X169436280Y-94977431D01*
X169727431Y-94686280D01*
X169885000Y-94305874D01*
X169885000Y-93894126D01*
X169827000Y-93754101D01*
X169827000Y-92545899D01*
X169885000Y-92405874D01*
X169885000Y-91994126D01*
X169727431Y-91613720D01*
X169436280Y-91322569D01*
X169055874Y-91165000D01*
X168644126Y-91165000D01*
X168263720Y-91322569D01*
X168146289Y-91440000D01*
X167603711Y-91440000D01*
X167486280Y-91322569D01*
X167105874Y-91165000D01*
X166694126Y-91165000D01*
X166433390Y-91273000D01*
X162935000Y-91273000D01*
X162935000Y-91132237D01*
X162951358Y-91050000D01*
X162886552Y-90724199D01*
X162702001Y-90447999D01*
X162632283Y-90401415D01*
X160248587Y-88017720D01*
X160202001Y-87947999D01*
X159925801Y-87763448D01*
X159682237Y-87715000D01*
X159682233Y-87715000D01*
X159600000Y-87698643D01*
X159517767Y-87715000D01*
X156467456Y-87715000D01*
X156447765Y-87701843D01*
X156200000Y-87652560D01*
X155400000Y-87652560D01*
X155152235Y-87701843D01*
X154942191Y-87842191D01*
X154801843Y-88052235D01*
X154752560Y-88300000D01*
X121410000Y-88300000D01*
X121410000Y-87110000D01*
X190190000Y-87110000D01*
X190190001Y-95690000D01*
X190190001Y-95690000D01*
G37*
X190190001Y-95690000D02*
X169669920Y-95690000D01*
X169599999Y-95676092D01*
X169530078Y-95690000D01*
X169530074Y-95690000D01*
X169322972Y-95731195D01*
X169088119Y-95888119D01*
X169048508Y-95947401D01*
X165005910Y-99990000D01*
X146594091Y-99990000D01*
X143458978Y-96854887D01*
X146865000Y-96854887D01*
X146865000Y-97545113D01*
X147129138Y-98182799D01*
X147617201Y-98670862D01*
X148254887Y-98935000D01*
X148945113Y-98935000D01*
X149582799Y-98670862D01*
X150070862Y-98182799D01*
X150335000Y-97545113D01*
X150335000Y-96854887D01*
X161265000Y-96854887D01*
X161265000Y-97545113D01*
X161529138Y-98182799D01*
X162017201Y-98670862D01*
X162654887Y-98935000D01*
X163345113Y-98935000D01*
X163982799Y-98670862D01*
X164470862Y-98182799D01*
X164735000Y-97545113D01*
X164735000Y-96854887D01*
X164470862Y-96217201D01*
X163982799Y-95729138D01*
X163345113Y-95465000D01*
X162654887Y-95465000D01*
X162017201Y-95729138D01*
X161529138Y-96217201D01*
X161265000Y-96854887D01*
X150335000Y-96854887D01*
X150070862Y-96217201D01*
X149582799Y-95729138D01*
X148945113Y-95465000D01*
X148254887Y-95465000D01*
X147617201Y-95729138D01*
X147129138Y-96217201D01*
X146865000Y-96854887D01*
X143458978Y-96854887D01*
X142551494Y-95947404D01*
X142511881Y-95888119D01*
X142277028Y-95731195D01*
X142069926Y-95690000D01*
X142069924Y-95690000D01*
X142000000Y-95676091D01*
X141930076Y-95690000D01*
X121410000Y-95690000D01*
X121410000Y-93944126D01*
X141415000Y-93944126D01*
X141415000Y-94355874D01*
X141572569Y-94736280D01*
X141863720Y-95027431D01*
X142244126Y-95185000D01*
X142655874Y-95185000D01*
X143036280Y-95027431D01*
X143078711Y-94985000D01*
X149371291Y-94985000D01*
X149413722Y-95027431D01*
X149794128Y-95185000D01*
X150205876Y-95185000D01*
X150586282Y-95027431D01*
X150877433Y-94736280D01*
X151035002Y-94355874D01*
X151035002Y-93944126D01*
X150877433Y-93563720D01*
X150586282Y-93272569D01*
X150205876Y-93115000D01*
X149794128Y-93115000D01*
X149413722Y-93272569D01*
X149371291Y-93315000D01*
X143078711Y-93315000D01*
X143036280Y-93272569D01*
X142655874Y-93115000D01*
X142244126Y-93115000D01*
X141863720Y-93272569D01*
X141572569Y-93563720D01*
X141415000Y-93944126D01*
X121410000Y-93944126D01*
X121410000Y-91444126D01*
X141615000Y-91444126D01*
X141615000Y-91855874D01*
X141772569Y-92236280D01*
X142063720Y-92527431D01*
X142444126Y-92685000D01*
X142855874Y-92685000D01*
X143236280Y-92527431D01*
X143353711Y-92410000D01*
X144196289Y-92410000D01*
X144313720Y-92527431D01*
X144694126Y-92685000D01*
X145105874Y-92685000D01*
X145486280Y-92527431D01*
X145777431Y-92236280D01*
X145935000Y-91855874D01*
X145935000Y-91444126D01*
X145777431Y-91063720D01*
X145486280Y-90772569D01*
X145105874Y-90615000D01*
X144694126Y-90615000D01*
X144313720Y-90772569D01*
X144196289Y-90890000D01*
X143353711Y-90890000D01*
X143236280Y-90772569D01*
X142855874Y-90615000D01*
X142444126Y-90615000D01*
X142063720Y-90772569D01*
X141772569Y-91063720D01*
X141615000Y-91444126D01*
X121410000Y-91444126D01*
X121410000Y-88300000D01*
X154752560Y-88300000D01*
X154752560Y-88800000D01*
X154801843Y-89047765D01*
X154942191Y-89257809D01*
X155005334Y-89300000D01*
X154942191Y-89342191D01*
X154801843Y-89552235D01*
X154752560Y-89800000D01*
X154752560Y-90300000D01*
X154801843Y-90547765D01*
X154870155Y-90650000D01*
X154801843Y-90752235D01*
X154752560Y-91000000D01*
X154752560Y-91800000D01*
X154801843Y-92047765D01*
X154942191Y-92257809D01*
X155152235Y-92398157D01*
X155400000Y-92447440D01*
X156200000Y-92447440D01*
X156302760Y-92427000D01*
X161265000Y-92427000D01*
X161265001Y-93471288D01*
X161222569Y-93513720D01*
X161065000Y-93894126D01*
X161065000Y-94305874D01*
X161222569Y-94686280D01*
X161513720Y-94977431D01*
X161894126Y-95135000D01*
X162305874Y-95135000D01*
X162686280Y-94977431D01*
X162728711Y-94935000D01*
X168221289Y-94935000D01*
X168263720Y-94977431D01*
X168644126Y-95135000D01*
X169055874Y-95135000D01*
X169436280Y-94977431D01*
X169727431Y-94686280D01*
X169885000Y-94305874D01*
X169885000Y-93894126D01*
X169827000Y-93754101D01*
X169827000Y-92545899D01*
X169885000Y-92405874D01*
X169885000Y-91994126D01*
X169727431Y-91613720D01*
X169436280Y-91322569D01*
X169055874Y-91165000D01*
X168644126Y-91165000D01*
X168263720Y-91322569D01*
X168146289Y-91440000D01*
X167603711Y-91440000D01*
X167486280Y-91322569D01*
X167105874Y-91165000D01*
X166694126Y-91165000D01*
X166433390Y-91273000D01*
X162935000Y-91273000D01*
X162935000Y-91132237D01*
X162951358Y-91050000D01*
X162886552Y-90724199D01*
X162702001Y-90447999D01*
X162632283Y-90401415D01*
X160248587Y-88017720D01*
X160202001Y-87947999D01*
X159925801Y-87763448D01*
X159682237Y-87715000D01*
X159682233Y-87715000D01*
X159600000Y-87698643D01*
X159517767Y-87715000D01*
X156467456Y-87715000D01*
X156447765Y-87701843D01*
X156200000Y-87652560D01*
X155400000Y-87652560D01*
X155152235Y-87701843D01*
X154942191Y-87842191D01*
X154801843Y-88052235D01*
X154752560Y-88300000D01*
X121410000Y-88300000D01*
X121410000Y-87110000D01*
X190190000Y-87110000D01*
X190190001Y-95690000D01*
G36*
X172173000Y-62200000D02*
X172182667Y-62248601D01*
X172203000Y-62279032D01*
X172203000Y-62373000D01*
X173473000Y-62373000D01*
X173473000Y-62353000D01*
X173727000Y-62353000D01*
X173727000Y-62373000D01*
X173747000Y-62373000D01*
X173747000Y-62627000D01*
X173727000Y-62627000D01*
X173727000Y-62647000D01*
X173473000Y-62647000D01*
X173473000Y-62627000D01*
X172203000Y-62627000D01*
X172203000Y-63365000D01*
X172262032Y-63565000D01*
X169927000Y-63565000D01*
X169927000Y-62614427D01*
X169935000Y-62595113D01*
X169935000Y-62350547D01*
X169955000Y-62250000D01*
X169935000Y-62149453D01*
X169935000Y-61904887D01*
X169927000Y-61885573D01*
X169927000Y-60935000D01*
X172173000Y-60935000D01*
X172173000Y-62200000D01*
X172173000Y-62200000D01*
G37*
X172173000Y-62200000D02*
X172182667Y-62248601D01*
X172203000Y-62279032D01*
X172203000Y-62373000D01*
X173473000Y-62373000D01*
X173473000Y-62353000D01*
X173727000Y-62353000D01*
X173727000Y-62373000D01*
X173747000Y-62373000D01*
X173747000Y-62627000D01*
X173727000Y-62627000D01*
X173727000Y-62647000D01*
X173473000Y-62647000D01*
X173473000Y-62627000D01*
X172203000Y-62627000D01*
X172203000Y-63365000D01*
X172262032Y-63565000D01*
X169927000Y-63565000D01*
X169927000Y-62614427D01*
X169935000Y-62595113D01*
X169935000Y-62350547D01*
X169955000Y-62250000D01*
X169935000Y-62149453D01*
X169935000Y-61904887D01*
X169927000Y-61885573D01*
X169927000Y-60935000D01*
X172173000Y-60935000D01*
X172173000Y-62200000D01*
G36*
X182427000Y-61373000D02*
X182473000Y-61373000D01*
X182473000Y-61627000D01*
X182427000Y-61627000D01*
X182427000Y-61647000D01*
X182173000Y-61647000D01*
X182173000Y-61627000D01*
X182153000Y-61627000D01*
X182153000Y-61373000D01*
X182173000Y-61373000D01*
X182173000Y-61353000D01*
X182427000Y-61353000D01*
X182427000Y-61373000D01*
X182427000Y-61373000D01*
G37*
X182427000Y-61373000D02*
X182473000Y-61373000D01*
X182473000Y-61627000D01*
X182427000Y-61627000D01*
X182427000Y-61647000D01*
X182173000Y-61647000D01*
X182173000Y-61627000D01*
X182153000Y-61627000D01*
X182153000Y-61373000D01*
X182173000Y-61373000D01*
X182173000Y-61353000D01*
X182427000Y-61353000D01*
X182427000Y-61373000D01*
G36*
X126973000Y-62200000D02*
X126982667Y-62248601D01*
X127003000Y-62279032D01*
X127003000Y-62373000D01*
X128273000Y-62373000D01*
X128273000Y-62353000D01*
X128527000Y-62353000D01*
X128527000Y-62373000D01*
X128547000Y-62373000D01*
X128547000Y-62627000D01*
X128527000Y-62627000D01*
X128527000Y-62647000D01*
X128273000Y-62647000D01*
X128273000Y-62627000D01*
X127003000Y-62627000D01*
X127003000Y-63365000D01*
X127062032Y-63565000D01*
X124727000Y-63565000D01*
X124727000Y-62614427D01*
X124735000Y-62595113D01*
X124735000Y-62350547D01*
X124755000Y-62250000D01*
X124735000Y-62149453D01*
X124735000Y-61904887D01*
X124727000Y-61885573D01*
X124727000Y-60935000D01*
X126973000Y-60935000D01*
X126973000Y-62200000D01*
X126973000Y-62200000D01*
G37*
X126973000Y-62200000D02*
X126982667Y-62248601D01*
X127003000Y-62279032D01*
X127003000Y-62373000D01*
X128273000Y-62373000D01*
X128273000Y-62353000D01*
X128527000Y-62353000D01*
X128527000Y-62373000D01*
X128547000Y-62373000D01*
X128547000Y-62627000D01*
X128527000Y-62627000D01*
X128527000Y-62647000D01*
X128273000Y-62647000D01*
X128273000Y-62627000D01*
X127003000Y-62627000D01*
X127003000Y-63365000D01*
X127062032Y-63565000D01*
X124727000Y-63565000D01*
X124727000Y-62614427D01*
X124735000Y-62595113D01*
X124735000Y-62350547D01*
X124755000Y-62250000D01*
X124735000Y-62149453D01*
X124735000Y-61904887D01*
X124727000Y-61885573D01*
X124727000Y-60935000D01*
X126973000Y-60935000D01*
X126973000Y-62200000D01*
G36*
X137227000Y-61373000D02*
X137273000Y-61373000D01*
X137273000Y-61627000D01*
X137227000Y-61627000D01*
X137227000Y-61647000D01*
X136973000Y-61647000D01*
X136973000Y-61627000D01*
X136953000Y-61627000D01*
X136953000Y-61373000D01*
X136973000Y-61373000D01*
X136973000Y-61353000D01*
X137227000Y-61353000D01*
X137227000Y-61373000D01*
X137227000Y-61373000D01*
G37*
X137227000Y-61373000D02*
X137273000Y-61373000D01*
X137273000Y-61627000D01*
X137227000Y-61627000D01*
X137227000Y-61647000D01*
X136973000Y-61647000D01*
X136973000Y-61627000D01*
X136953000Y-61627000D01*
X136953000Y-61373000D01*
X136973000Y-61373000D01*
X136973000Y-61353000D01*
X137227000Y-61353000D01*
X137227000Y-61373000D01*
G36*
X190190001Y-74790000D02*
X169669920Y-74790000D01*
X169599999Y-74776092D01*
X169530078Y-74790000D01*
X169530074Y-74790000D01*
X169322972Y-74831195D01*
X169088119Y-74988119D01*
X169048508Y-75047401D01*
X165005910Y-79090000D01*
X146594091Y-79090000D01*
X143458978Y-75954887D01*
X146865000Y-75954887D01*
X146865000Y-76645113D01*
X147129138Y-77282799D01*
X147617201Y-77770862D01*
X148254887Y-78035000D01*
X148945113Y-78035000D01*
X149582799Y-77770862D01*
X150070862Y-77282799D01*
X150335000Y-76645113D01*
X150335000Y-75954887D01*
X161265000Y-75954887D01*
X161265000Y-76645113D01*
X161529138Y-77282799D01*
X162017201Y-77770862D01*
X162654887Y-78035000D01*
X163345113Y-78035000D01*
X163982799Y-77770862D01*
X164470862Y-77282799D01*
X164735000Y-76645113D01*
X164735000Y-75954887D01*
X164470862Y-75317201D01*
X163982799Y-74829138D01*
X163345113Y-74565000D01*
X162654887Y-74565000D01*
X162017201Y-74829138D01*
X161529138Y-75317201D01*
X161265000Y-75954887D01*
X150335000Y-75954887D01*
X150070862Y-75317201D01*
X149582799Y-74829138D01*
X148945113Y-74565000D01*
X148254887Y-74565000D01*
X147617201Y-74829138D01*
X147129138Y-75317201D01*
X146865000Y-75954887D01*
X143458978Y-75954887D01*
X142551494Y-75047404D01*
X142511881Y-74988119D01*
X142277028Y-74831195D01*
X142069926Y-74790000D01*
X142069924Y-74790000D01*
X142000000Y-74776091D01*
X141930076Y-74790000D01*
X121410000Y-74790000D01*
X121410000Y-73044126D01*
X141415000Y-73044126D01*
X141415000Y-73455874D01*
X141572569Y-73836280D01*
X141863720Y-74127431D01*
X142244126Y-74285000D01*
X142655874Y-74285000D01*
X143036280Y-74127431D01*
X143078711Y-74085000D01*
X149371291Y-74085000D01*
X149413722Y-74127431D01*
X149794128Y-74285000D01*
X150205876Y-74285000D01*
X150586282Y-74127431D01*
X150877433Y-73836280D01*
X151035002Y-73455874D01*
X151035002Y-73044126D01*
X150877433Y-72663720D01*
X150586282Y-72372569D01*
X150205876Y-72215000D01*
X149794128Y-72215000D01*
X149413722Y-72372569D01*
X149371291Y-72415000D01*
X143078711Y-72415000D01*
X143036280Y-72372569D01*
X142655874Y-72215000D01*
X142244126Y-72215000D01*
X141863720Y-72372569D01*
X141572569Y-72663720D01*
X141415000Y-73044126D01*
X121410000Y-73044126D01*
X121410000Y-70544126D01*
X141615000Y-70544126D01*
X141615000Y-70955874D01*
X141772569Y-71336280D01*
X142063720Y-71627431D01*
X142444126Y-71785000D01*
X142855874Y-71785000D01*
X143236280Y-71627431D01*
X143353711Y-71510000D01*
X144196289Y-71510000D01*
X144313720Y-71627431D01*
X144694126Y-71785000D01*
X145105874Y-71785000D01*
X145486280Y-71627431D01*
X145777431Y-71336280D01*
X145935000Y-70955874D01*
X145935000Y-70544126D01*
X145777431Y-70163720D01*
X145486280Y-69872569D01*
X145105874Y-69715000D01*
X144694126Y-69715000D01*
X144313720Y-69872569D01*
X144196289Y-69990000D01*
X143353711Y-69990000D01*
X143236280Y-69872569D01*
X142855874Y-69715000D01*
X142444126Y-69715000D01*
X142063720Y-69872569D01*
X141772569Y-70163720D01*
X141615000Y-70544126D01*
X121410000Y-70544126D01*
X121410000Y-67400000D01*
X154752560Y-67400000D01*
X154752560Y-67900000D01*
X154801843Y-68147765D01*
X154942191Y-68357809D01*
X155005334Y-68400000D01*
X154942191Y-68442191D01*
X154801843Y-68652235D01*
X154752560Y-68900000D01*
X154752560Y-69400000D01*
X154801843Y-69647765D01*
X154870155Y-69750000D01*
X154801843Y-69852235D01*
X154752560Y-70100000D01*
X154752560Y-70900000D01*
X154801843Y-71147765D01*
X154942191Y-71357809D01*
X155152235Y-71498157D01*
X155400000Y-71547440D01*
X156200000Y-71547440D01*
X156302760Y-71527000D01*
X161265000Y-71527000D01*
X161265001Y-72571288D01*
X161222569Y-72613720D01*
X161065000Y-72994126D01*
X161065000Y-73405874D01*
X161222569Y-73786280D01*
X161513720Y-74077431D01*
X161894126Y-74235000D01*
X162305874Y-74235000D01*
X162686280Y-74077431D01*
X162728711Y-74035000D01*
X168221289Y-74035000D01*
X168263720Y-74077431D01*
X168644126Y-74235000D01*
X169055874Y-74235000D01*
X169436280Y-74077431D01*
X169727431Y-73786280D01*
X169885000Y-73405874D01*
X169885000Y-72994126D01*
X169827000Y-72854101D01*
X169827000Y-71645899D01*
X169885000Y-71505874D01*
X169885000Y-71094126D01*
X169727431Y-70713720D01*
X169436280Y-70422569D01*
X169055874Y-70265000D01*
X168644126Y-70265000D01*
X168263720Y-70422569D01*
X168146289Y-70540000D01*
X167603711Y-70540000D01*
X167486280Y-70422569D01*
X167105874Y-70265000D01*
X166694126Y-70265000D01*
X166433390Y-70373000D01*
X162935000Y-70373000D01*
X162935000Y-70232237D01*
X162951358Y-70150000D01*
X162886552Y-69824199D01*
X162702001Y-69547999D01*
X162632283Y-69501415D01*
X160248587Y-67117720D01*
X160202001Y-67047999D01*
X159925801Y-66863448D01*
X159682237Y-66815000D01*
X159682233Y-66815000D01*
X159600000Y-66798643D01*
X159517767Y-66815000D01*
X156467456Y-66815000D01*
X156447765Y-66801843D01*
X156200000Y-66752560D01*
X155400000Y-66752560D01*
X155152235Y-66801843D01*
X154942191Y-66942191D01*
X154801843Y-67152235D01*
X154752560Y-67400000D01*
X121410000Y-67400000D01*
X121410000Y-66210000D01*
X190190000Y-66210000D01*
X190190001Y-74790000D01*
X190190001Y-74790000D01*
G37*
X190190001Y-74790000D02*
X169669920Y-74790000D01*
X169599999Y-74776092D01*
X169530078Y-74790000D01*
X169530074Y-74790000D01*
X169322972Y-74831195D01*
X169088119Y-74988119D01*
X169048508Y-75047401D01*
X165005910Y-79090000D01*
X146594091Y-79090000D01*
X143458978Y-75954887D01*
X146865000Y-75954887D01*
X146865000Y-76645113D01*
X147129138Y-77282799D01*
X147617201Y-77770862D01*
X148254887Y-78035000D01*
X148945113Y-78035000D01*
X149582799Y-77770862D01*
X150070862Y-77282799D01*
X150335000Y-76645113D01*
X150335000Y-75954887D01*
X161265000Y-75954887D01*
X161265000Y-76645113D01*
X161529138Y-77282799D01*
X162017201Y-77770862D01*
X162654887Y-78035000D01*
X163345113Y-78035000D01*
X163982799Y-77770862D01*
X164470862Y-77282799D01*
X164735000Y-76645113D01*
X164735000Y-75954887D01*
X164470862Y-75317201D01*
X163982799Y-74829138D01*
X163345113Y-74565000D01*
X162654887Y-74565000D01*
X162017201Y-74829138D01*
X161529138Y-75317201D01*
X161265000Y-75954887D01*
X150335000Y-75954887D01*
X150070862Y-75317201D01*
X149582799Y-74829138D01*
X148945113Y-74565000D01*
X148254887Y-74565000D01*
X147617201Y-74829138D01*
X147129138Y-75317201D01*
X146865000Y-75954887D01*
X143458978Y-75954887D01*
X142551494Y-75047404D01*
X142511881Y-74988119D01*
X142277028Y-74831195D01*
X142069926Y-74790000D01*
X142069924Y-74790000D01*
X142000000Y-74776091D01*
X141930076Y-74790000D01*
X121410000Y-74790000D01*
X121410000Y-73044126D01*
X141415000Y-73044126D01*
X141415000Y-73455874D01*
X141572569Y-73836280D01*
X141863720Y-74127431D01*
X142244126Y-74285000D01*
X142655874Y-74285000D01*
X143036280Y-74127431D01*
X143078711Y-74085000D01*
X149371291Y-74085000D01*
X149413722Y-74127431D01*
X149794128Y-74285000D01*
X150205876Y-74285000D01*
X150586282Y-74127431D01*
X150877433Y-73836280D01*
X151035002Y-73455874D01*
X151035002Y-73044126D01*
X150877433Y-72663720D01*
X150586282Y-72372569D01*
X150205876Y-72215000D01*
X149794128Y-72215000D01*
X149413722Y-72372569D01*
X149371291Y-72415000D01*
X143078711Y-72415000D01*
X143036280Y-72372569D01*
X142655874Y-72215000D01*
X142244126Y-72215000D01*
X141863720Y-72372569D01*
X141572569Y-72663720D01*
X141415000Y-73044126D01*
X121410000Y-73044126D01*
X121410000Y-70544126D01*
X141615000Y-70544126D01*
X141615000Y-70955874D01*
X141772569Y-71336280D01*
X142063720Y-71627431D01*
X142444126Y-71785000D01*
X142855874Y-71785000D01*
X143236280Y-71627431D01*
X143353711Y-71510000D01*
X144196289Y-71510000D01*
X144313720Y-71627431D01*
X144694126Y-71785000D01*
X145105874Y-71785000D01*
X145486280Y-71627431D01*
X145777431Y-71336280D01*
X145935000Y-70955874D01*
X145935000Y-70544126D01*
X145777431Y-70163720D01*
X145486280Y-69872569D01*
X145105874Y-69715000D01*
X144694126Y-69715000D01*
X144313720Y-69872569D01*
X144196289Y-69990000D01*
X143353711Y-69990000D01*
X143236280Y-69872569D01*
X142855874Y-69715000D01*
X142444126Y-69715000D01*
X142063720Y-69872569D01*
X141772569Y-70163720D01*
X141615000Y-70544126D01*
X121410000Y-70544126D01*
X121410000Y-67400000D01*
X154752560Y-67400000D01*
X154752560Y-67900000D01*
X154801843Y-68147765D01*
X154942191Y-68357809D01*
X155005334Y-68400000D01*
X154942191Y-68442191D01*
X154801843Y-68652235D01*
X154752560Y-68900000D01*
X154752560Y-69400000D01*
X154801843Y-69647765D01*
X154870155Y-69750000D01*
X154801843Y-69852235D01*
X154752560Y-70100000D01*
X154752560Y-70900000D01*
X154801843Y-71147765D01*
X154942191Y-71357809D01*
X155152235Y-71498157D01*
X155400000Y-71547440D01*
X156200000Y-71547440D01*
X156302760Y-71527000D01*
X161265000Y-71527000D01*
X161265001Y-72571288D01*
X161222569Y-72613720D01*
X161065000Y-72994126D01*
X161065000Y-73405874D01*
X161222569Y-73786280D01*
X161513720Y-74077431D01*
X161894126Y-74235000D01*
X162305874Y-74235000D01*
X162686280Y-74077431D01*
X162728711Y-74035000D01*
X168221289Y-74035000D01*
X168263720Y-74077431D01*
X168644126Y-74235000D01*
X169055874Y-74235000D01*
X169436280Y-74077431D01*
X169727431Y-73786280D01*
X169885000Y-73405874D01*
X169885000Y-72994126D01*
X169827000Y-72854101D01*
X169827000Y-71645899D01*
X169885000Y-71505874D01*
X169885000Y-71094126D01*
X169727431Y-70713720D01*
X169436280Y-70422569D01*
X169055874Y-70265000D01*
X168644126Y-70265000D01*
X168263720Y-70422569D01*
X168146289Y-70540000D01*
X167603711Y-70540000D01*
X167486280Y-70422569D01*
X167105874Y-70265000D01*
X166694126Y-70265000D01*
X166433390Y-70373000D01*
X162935000Y-70373000D01*
X162935000Y-70232237D01*
X162951358Y-70150000D01*
X162886552Y-69824199D01*
X162702001Y-69547999D01*
X162632283Y-69501415D01*
X160248587Y-67117720D01*
X160202001Y-67047999D01*
X159925801Y-66863448D01*
X159682237Y-66815000D01*
X159682233Y-66815000D01*
X159600000Y-66798643D01*
X159517767Y-66815000D01*
X156467456Y-66815000D01*
X156447765Y-66801843D01*
X156200000Y-66752560D01*
X155400000Y-66752560D01*
X155152235Y-66801843D01*
X154942191Y-66942191D01*
X154801843Y-67152235D01*
X154752560Y-67400000D01*
X121410000Y-67400000D01*
X121410000Y-66210000D01*
X190190000Y-66210000D01*
X190190001Y-74790000D01*
M02*
