G04 #@! TF.GenerationSoftware,KiCad,Pcbnew,(5.0.0)*
G04 #@! TF.CreationDate,2019-07-10T13:07:56+09:00*
G04 #@! TF.ProjectId,line and sensor,6C696E6520616E642073656E736F722E,rev?*
G04 #@! TF.SameCoordinates,Original*
G04 #@! TF.FileFunction,Profile,NP*
%FSLAX46Y46*%
G04 Gerber Fmt 4.6, Leading zero omitted, Abs format (unit mm)*
G04 Created by KiCad (PCBNEW (5.0.0)) date 07/10/19 13:07:56*
%MOMM*%
%LPD*%
G01*
G04 APERTURE LIST*
%ADD10C,0.200000*%
%ADD11C,0.150000*%
G04 APERTURE END LIST*
D10*
X166600000Y-78600000D02*
X166600000Y-78500000D01*
X142000000Y-75500000D02*
X122200000Y-75500000D01*
X144800000Y-78300000D02*
X142000000Y-75500000D01*
X122200000Y-81100000D02*
X143300000Y-81100000D01*
X167900000Y-81100000D02*
X189400000Y-81100000D01*
X169600000Y-75500000D02*
X166600000Y-78500000D01*
X189400000Y-75500000D02*
X169600000Y-75500000D01*
X189400000Y-81100000D02*
X189400000Y-75500000D01*
X190900000Y-75500000D02*
X190900000Y-81100000D01*
X166600000Y-78600000D02*
X167900000Y-81100000D01*
X165900000Y-81100000D02*
X165300000Y-79800000D01*
X144800000Y-78300000D02*
X143300000Y-81100000D01*
X146300000Y-79800000D02*
X145700000Y-81100000D01*
X122200000Y-81100000D02*
X122200000Y-75500000D01*
X120700000Y-75500000D02*
X120700000Y-81100000D01*
X168200000Y-101600000D02*
X189400000Y-101600000D01*
X122200000Y-101600000D02*
X143200000Y-101600000D01*
X142000000Y-96400000D02*
X122200000Y-96400000D01*
X144900000Y-99300000D02*
X142000000Y-96400000D01*
X169600000Y-96400000D02*
X166600000Y-99400000D01*
X189400000Y-96400000D02*
X169600000Y-96400000D01*
X189400000Y-101600000D02*
X189400000Y-96400000D01*
X190900000Y-96400000D02*
X190900000Y-101600000D01*
X166600000Y-99400000D02*
X168200000Y-101600000D01*
X165900000Y-101600000D02*
X165300000Y-100700000D01*
X144900000Y-99300000D02*
X143200000Y-101600000D01*
X146300000Y-100700000D02*
X145700000Y-101600000D01*
X122200000Y-101600000D02*
X122200000Y-96400000D01*
X120700000Y-96400000D02*
X120700000Y-101600000D01*
X122200000Y-122000000D02*
X143800000Y-122000000D01*
X142000000Y-116900000D02*
X122200000Y-116900000D01*
X145300000Y-120200000D02*
X142000000Y-116900000D01*
X168000000Y-122000000D02*
X189400000Y-122000000D01*
X189400000Y-116900000D02*
X169600000Y-116900000D01*
X189400000Y-122000000D02*
X189400000Y-116900000D01*
X190900000Y-116900000D02*
X190900000Y-122000000D01*
X166400000Y-120100000D02*
X169600000Y-116900000D01*
X166400000Y-120100000D02*
X168000000Y-122000000D01*
X165900000Y-122000000D02*
X165300000Y-121200000D01*
X145300000Y-120200000D02*
X143800000Y-122000000D01*
X145700000Y-122000000D02*
X146300000Y-121200000D01*
X122200000Y-122000000D02*
X122200000Y-116900000D01*
X120700000Y-116900000D02*
X120700000Y-122000000D01*
X120700000Y-65500000D02*
X120700000Y-64300000D01*
X122200000Y-64300000D02*
X144200000Y-64300000D01*
X122200000Y-64300000D02*
X122200000Y-65500000D01*
X190900000Y-64300000D02*
X190900000Y-65500000D01*
X145700000Y-64300000D02*
X145700000Y-65500000D01*
X189400000Y-65500000D02*
X167400000Y-65500000D01*
X167400000Y-64300000D02*
X167400000Y-65500000D01*
X189400000Y-65500000D02*
X189400000Y-64300000D01*
X144200000Y-65500000D02*
X144200000Y-64300000D01*
X169200000Y-62250000D02*
G75*
G03X169200000Y-62250000I-1000000J0D01*
G01*
X167400000Y-64300000D02*
X189400000Y-64300000D01*
X165900000Y-65500000D02*
X165900000Y-64300000D01*
X165900000Y-65500000D02*
X145700000Y-65500000D01*
X144200000Y-65500000D02*
X122200000Y-65500000D01*
D11*
X120700000Y-65500000D02*
X120700000Y-75500000D01*
X165300000Y-79800000D02*
X146300000Y-79800000D01*
X190900000Y-65500000D02*
X190900000Y-75500000D01*
D10*
X189600000Y-62250000D02*
G75*
G03X189600000Y-62250000I-1000000J0D01*
G01*
X190900000Y-60200000D02*
X165900000Y-60200000D01*
X165900000Y-60200000D02*
X165900000Y-64300000D01*
X190900000Y-64300000D02*
X190900000Y-60200000D01*
X144400000Y-62250000D02*
G75*
G03X144400000Y-62250000I-1000000J0D01*
G01*
X145700000Y-60200000D02*
X120700000Y-60200000D01*
X145700000Y-64300000D02*
X145700000Y-60200000D01*
X120700000Y-60200000D02*
X120700000Y-64300000D01*
X124000000Y-62250000D02*
G75*
G03X124000000Y-62250000I-1000000J0D01*
G01*
X120700000Y-86400000D02*
X120700000Y-85200000D01*
X122200000Y-85200000D02*
X144200000Y-85200000D01*
X122200000Y-85200000D02*
X122200000Y-86400000D01*
X190900000Y-85200000D02*
X190900000Y-86400000D01*
X145700000Y-85200000D02*
X145700000Y-86400000D01*
X189400000Y-86400000D02*
X167400000Y-86400000D01*
X167400000Y-85200000D02*
X167400000Y-86400000D01*
X189400000Y-86400000D02*
X189400000Y-85200000D01*
X144200000Y-86400000D02*
X144200000Y-85200000D01*
X169200000Y-83150000D02*
G75*
G03X169200000Y-83150000I-1000000J0D01*
G01*
X167400000Y-85200000D02*
X189400000Y-85200000D01*
X165900000Y-86400000D02*
X165900000Y-85200000D01*
X165900000Y-86400000D02*
X145700000Y-86400000D01*
X144200000Y-86400000D02*
X122200000Y-86400000D01*
D11*
X120700000Y-86400000D02*
X120700000Y-96400000D01*
X165300000Y-100700000D02*
X146300000Y-100700000D01*
X190900000Y-86400000D02*
X190900000Y-96400000D01*
D10*
X189600000Y-83150000D02*
G75*
G03X189600000Y-83150000I-1000000J0D01*
G01*
X165900000Y-81100000D02*
X165900000Y-85200000D01*
X190900000Y-85200000D02*
X190900000Y-81100000D01*
X144400000Y-83150000D02*
G75*
G03X144400000Y-83150000I-1000000J0D01*
G01*
X145700000Y-85200000D02*
X145700000Y-81100000D01*
X120700000Y-81100000D02*
X120700000Y-85200000D01*
X124000000Y-83150000D02*
G75*
G03X124000000Y-83150000I-1000000J0D01*
G01*
X120700000Y-106900000D02*
X120700000Y-105700000D01*
X122200000Y-105700000D02*
X144200000Y-105700000D01*
X122200000Y-105700000D02*
X122200000Y-106900000D01*
X190900000Y-105700000D02*
X190900000Y-106900000D01*
X145700000Y-105700000D02*
X145700000Y-106900000D01*
X189400000Y-106900000D02*
X167400000Y-106900000D01*
X167400000Y-105700000D02*
X167400000Y-106900000D01*
X189400000Y-106900000D02*
X189400000Y-105700000D01*
X144200000Y-106900000D02*
X144200000Y-105700000D01*
X169200000Y-103650000D02*
G75*
G03X169200000Y-103650000I-1000000J0D01*
G01*
X167400000Y-105700000D02*
X189400000Y-105700000D01*
X165900000Y-106900000D02*
X165900000Y-105700000D01*
X165900000Y-106900000D02*
X145700000Y-106900000D01*
X144200000Y-106900000D02*
X122200000Y-106900000D01*
D11*
X120700000Y-106900000D02*
X120700000Y-116900000D01*
X165300000Y-121200000D02*
X146300000Y-121200000D01*
X190900000Y-106900000D02*
X190900000Y-116900000D01*
D10*
X189600000Y-103650000D02*
G75*
G03X189600000Y-103650000I-1000000J0D01*
G01*
X165900000Y-101600000D02*
X165900000Y-105700000D01*
X190900000Y-105700000D02*
X190900000Y-101600000D01*
X144400000Y-103650000D02*
G75*
G03X144400000Y-103650000I-1000000J0D01*
G01*
X145700000Y-105700000D02*
X145700000Y-101600000D01*
X120700000Y-101600000D02*
X120700000Y-105700000D01*
X124000000Y-103650000D02*
G75*
G03X124000000Y-103650000I-1000000J0D01*
G01*
X165900000Y-127300000D02*
X145700000Y-127300000D01*
X189400000Y-127300000D02*
X167400000Y-127300000D01*
X167400000Y-126100000D02*
X189400000Y-126100000D01*
X144200000Y-127300000D02*
X122200000Y-127300000D01*
X122200000Y-126100000D02*
X144200000Y-126100000D01*
X122200000Y-126100000D02*
X122200000Y-127300000D01*
X120700000Y-127300000D02*
X120700000Y-126100000D01*
X145700000Y-126100000D02*
X145700000Y-127300000D01*
X144200000Y-127300000D02*
X144200000Y-126100000D01*
X167400000Y-126100000D02*
X167400000Y-127300000D01*
X165900000Y-127300000D02*
X165900000Y-126100000D01*
X189400000Y-127300000D02*
X189400000Y-126100000D01*
X190900000Y-126100000D02*
X190900000Y-127300000D01*
X169200000Y-124050000D02*
G75*
G03X169200000Y-124050000I-1000000J0D01*
G01*
X165900000Y-122000000D02*
X165900000Y-126100000D01*
X189600000Y-124050000D02*
G75*
G03X189600000Y-124050000I-1000000J0D01*
G01*
X190900000Y-126100000D02*
X190900000Y-122000000D01*
X124000000Y-124050000D02*
G75*
G03X124000000Y-124050000I-1000000J0D01*
G01*
X120700000Y-122000000D02*
X120700000Y-126100000D01*
X144400000Y-124050000D02*
G75*
G03X144400000Y-124050000I-1000000J0D01*
G01*
X145700000Y-126100000D02*
X145700000Y-122000000D01*
D11*
X142000000Y-137300000D02*
X146300000Y-141600000D01*
X120700000Y-127300000D02*
X120700000Y-137300000D01*
X169600000Y-137300000D02*
X165300000Y-141600000D01*
X169600000Y-137300000D02*
X190900000Y-137300000D01*
X142000000Y-137300000D02*
X120700000Y-137300000D01*
X165300000Y-141600000D02*
X146300000Y-141600000D01*
X190900000Y-127300000D02*
X190900000Y-137300000D01*
M02*
