G04 #@! TF.GenerationSoftware,KiCad,Pcbnew,(5.0.0)*
G04 #@! TF.CreationDate,2019-07-10T13:07:56+09:00*
G04 #@! TF.ProjectId,line and sensor,6C696E6520616E642073656E736F722E,rev?*
G04 #@! TF.SameCoordinates,Original*
G04 #@! TF.FileFunction,Soldermask,Top*
G04 #@! TF.FilePolarity,Negative*
%FSLAX46Y46*%
G04 Gerber Fmt 4.6, Leading zero omitted, Abs format (unit mm)*
G04 Created by KiCad (PCBNEW (5.0.0)) date 07/10/19 13:07:56*
%MOMM*%
%LPD*%
G01*
G04 APERTURE LIST*
%ADD10C,2.600000*%
%ADD11R,1.200000X0.900000*%
%ADD12O,1.924000X3.400000*%
%ADD13R,1.200000X1.200000*%
G04 APERTURE END LIST*
D10*
G04 #@! TO.C,REF\002A\002A*
X188600000Y-62250000D03*
G04 #@! TD*
D11*
G04 #@! TO.C,R1*
X180700000Y-63000000D03*
X180700000Y-61500000D03*
G04 #@! TD*
D10*
G04 #@! TO.C,REF\002A\002A*
X168200000Y-62250000D03*
G04 #@! TD*
D12*
G04 #@! TO.C,J1*
X173600000Y-62500000D03*
X176100000Y-62500000D03*
X178600000Y-62500000D03*
G04 #@! TD*
D13*
G04 #@! TO.C,D1*
X182300000Y-61500000D03*
X182300000Y-63000000D03*
G04 #@! TD*
G04 #@! TO.C,D1*
X137100000Y-61500000D03*
X137100000Y-63000000D03*
G04 #@! TD*
D12*
G04 #@! TO.C,J1*
X128400000Y-62500000D03*
X130900000Y-62500000D03*
X133400000Y-62500000D03*
G04 #@! TD*
D13*
G04 #@! TO.C,D1*
X155800000Y-72000000D03*
X155800000Y-70500000D03*
G04 #@! TD*
D10*
G04 #@! TO.C,REF\002A\002A*
X123000000Y-62250000D03*
G04 #@! TD*
G04 #@! TO.C,REF\002A\002A*
X143400000Y-62250000D03*
G04 #@! TD*
G04 #@! TO.C,REF\002A\002A*
X163000000Y-76300000D03*
G04 #@! TD*
D11*
G04 #@! TO.C,R1*
X135500000Y-63000000D03*
X135500000Y-61500000D03*
G04 #@! TD*
G04 #@! TO.C,R1*
X155800000Y-67650000D03*
X155800000Y-69150000D03*
G04 #@! TD*
D10*
G04 #@! TO.C,REF\002A\002A*
X148600000Y-76300000D03*
G04 #@! TD*
G04 #@! TO.C,REF\002A\002A*
X188600000Y-83150000D03*
G04 #@! TD*
D11*
G04 #@! TO.C,R1*
X180700000Y-83900000D03*
X180700000Y-82400000D03*
G04 #@! TD*
D10*
G04 #@! TO.C,REF\002A\002A*
X168200000Y-83150000D03*
G04 #@! TD*
D12*
G04 #@! TO.C,J1*
X173600000Y-83400000D03*
X176100000Y-83400000D03*
X178600000Y-83400000D03*
G04 #@! TD*
D13*
G04 #@! TO.C,D1*
X182300000Y-82400000D03*
X182300000Y-83900000D03*
G04 #@! TD*
G04 #@! TO.C,D1*
X137100000Y-82400000D03*
X137100000Y-83900000D03*
G04 #@! TD*
D12*
G04 #@! TO.C,J1*
X128400000Y-83400000D03*
X130900000Y-83400000D03*
X133400000Y-83400000D03*
G04 #@! TD*
D13*
G04 #@! TO.C,D1*
X155800000Y-92900000D03*
X155800000Y-91400000D03*
G04 #@! TD*
D10*
G04 #@! TO.C,REF\002A\002A*
X123000000Y-83150000D03*
G04 #@! TD*
G04 #@! TO.C,REF\002A\002A*
X143400000Y-83150000D03*
G04 #@! TD*
G04 #@! TO.C,REF\002A\002A*
X163000000Y-97200000D03*
G04 #@! TD*
D11*
G04 #@! TO.C,R1*
X135500000Y-83900000D03*
X135500000Y-82400000D03*
G04 #@! TD*
G04 #@! TO.C,R1*
X155800000Y-88550000D03*
X155800000Y-90050000D03*
G04 #@! TD*
D10*
G04 #@! TO.C,REF\002A\002A*
X148600000Y-97200000D03*
G04 #@! TD*
G04 #@! TO.C,REF\002A\002A*
X188600000Y-103650000D03*
G04 #@! TD*
D11*
G04 #@! TO.C,R1*
X180700000Y-104400000D03*
X180700000Y-102900000D03*
G04 #@! TD*
D10*
G04 #@! TO.C,REF\002A\002A*
X168200000Y-103650000D03*
G04 #@! TD*
D12*
G04 #@! TO.C,J1*
X173600000Y-103900000D03*
X176100000Y-103900000D03*
X178600000Y-103900000D03*
G04 #@! TD*
D13*
G04 #@! TO.C,D1*
X182300000Y-102900000D03*
X182300000Y-104400000D03*
G04 #@! TD*
G04 #@! TO.C,D1*
X137100000Y-102900000D03*
X137100000Y-104400000D03*
G04 #@! TD*
D12*
G04 #@! TO.C,J1*
X128400000Y-103900000D03*
X130900000Y-103900000D03*
X133400000Y-103900000D03*
G04 #@! TD*
D13*
G04 #@! TO.C,D1*
X155800000Y-113400000D03*
X155800000Y-111900000D03*
G04 #@! TD*
D10*
G04 #@! TO.C,REF\002A\002A*
X123000000Y-103650000D03*
G04 #@! TD*
G04 #@! TO.C,REF\002A\002A*
X143400000Y-103650000D03*
G04 #@! TD*
G04 #@! TO.C,REF\002A\002A*
X163000000Y-117700000D03*
G04 #@! TD*
D11*
G04 #@! TO.C,R1*
X135500000Y-104400000D03*
X135500000Y-102900000D03*
G04 #@! TD*
G04 #@! TO.C,R1*
X155800000Y-109050000D03*
X155800000Y-110550000D03*
G04 #@! TD*
D10*
G04 #@! TO.C,REF\002A\002A*
X148600000Y-117700000D03*
G04 #@! TD*
D11*
G04 #@! TO.C,R1*
X180700000Y-123300000D03*
X180700000Y-124800000D03*
G04 #@! TD*
D13*
G04 #@! TO.C,D1*
X182300000Y-124800000D03*
X182300000Y-123300000D03*
G04 #@! TD*
D10*
G04 #@! TO.C,REF\002A\002A*
X188600000Y-124050000D03*
G04 #@! TD*
G04 #@! TO.C,REF\002A\002A*
X168200000Y-124050000D03*
G04 #@! TD*
D12*
G04 #@! TO.C,J1*
X178600000Y-124300000D03*
X176100000Y-124300000D03*
X173600000Y-124300000D03*
G04 #@! TD*
D11*
G04 #@! TO.C,R1*
X135500000Y-123300000D03*
X135500000Y-124800000D03*
G04 #@! TD*
D13*
G04 #@! TO.C,D1*
X137100000Y-124800000D03*
X137100000Y-123300000D03*
G04 #@! TD*
D10*
G04 #@! TO.C,REF\002A\002A*
X143400000Y-124050000D03*
G04 #@! TD*
G04 #@! TO.C,REF\002A\002A*
X123000000Y-124050000D03*
G04 #@! TD*
D12*
G04 #@! TO.C,J1*
X133400000Y-124300000D03*
X130900000Y-124300000D03*
X128400000Y-124300000D03*
G04 #@! TD*
D11*
G04 #@! TO.C,R1*
X155800000Y-130950000D03*
X155800000Y-129450000D03*
G04 #@! TD*
D13*
G04 #@! TO.C,D1*
X155800000Y-132300000D03*
X155800000Y-133800000D03*
G04 #@! TD*
D10*
G04 #@! TO.C,REF\002A\002A*
X148600000Y-138100000D03*
G04 #@! TD*
G04 #@! TO.C,REF\002A\002A*
X163000000Y-138100000D03*
G04 #@! TD*
M02*
