M48
;DRILL file {KiCad (5.0.0)} date 07/10/19 13:20:54
;FORMAT={-:-/ absolute / metric / decimal}
FMAT,2
METRIC,TZ
T1C0.400
T2C0.700
T3C0.800
T4C0.900
T5C1.100
T6C2.200
%
G90
G05
M71
T1
X110.9Y-133.7
X111.6Y-121.2
X112.15Y-83.8
X114.35Y-88.6
X114.35Y-90.3
X114.45Y-79.1
X116.85Y-73.7
X117.477Y-90.468
X119.45Y-114.35
X120.45Y-136.95
X121.25Y-83.4
X122.35Y-73.7
X122.7Y-108.6
X122.95Y-100.7
X123.45Y-94.1
X123.63Y-120.67
X124.15Y-95.1
X125.75Y-91.195
X126.25Y-73.1
X126.77Y-91.195
X126.8Y-112.8
X127.05Y-84.6
X127.85Y-80.9
X128.95Y-91.005
X129.055Y-97.602
X129.45Y-128.65
X129.45Y-136.95
X130.55Y-128.75
X131.25Y-98.4
X131.6Y-137.6
X132.15Y-113.45
X132.7Y-137.6
X133.7Y-137.6
X134.05Y-107.25
X134.2Y-129.1
X134.7Y-137.6
X134.95Y-91.005
X135.65Y-113.15
X137.175Y-101.5
X137.495Y-108.191
X137.63Y-111.253
X137.65Y-109.253
X137.652Y-110.253
X137.75Y-118.65
X137.75Y-129.05
X137.75Y-129.95
X137.75Y-130.85
X137.75Y-131.75
X137.95Y-91.005
X137.95Y-97.8
X138.725Y-101.5
X138.85Y-83.3
X139.14Y-119.35
X139.15Y-87.3
X139.45Y-94.8
X140.05Y-87.9
X140.175Y-108.853
X140.816Y-117.597
X140.85Y-78.5
X140.85Y-80.7
X141.079Y-88.066
X141.15Y-99.6
X141.45Y-114.45
X141.65Y-126.55
X141.68Y-119.35
X141.7Y-134.5
X141.857Y-88.844
X142.Y-137.5
X142.25Y-131.95
X142.584Y-89.572
X142.6Y-107.7
X142.7Y-134.5
X142.75Y-114.45
X142.95Y-126.55
X143.1Y-137.5
X143.109Y-117.849
X143.15Y-116.85
X143.25Y-131.95
X143.259Y-90.31
X143.7Y-134.5
X143.9Y-94.35
X144.2Y-107.7
X144.2Y-137.5
X144.25Y-131.95
X144.34Y-119.35
X144.35Y-126.55
X144.401Y-89.349
X144.7Y-134.5
X144.75Y-114.45
X145.02Y-99.6
X145.25Y-131.95
X145.3Y-137.5
X145.32Y-116.85
X145.55Y-94.905
X145.65Y-126.55
X146.143Y-114.45
X146.15Y-90.6
X146.65Y-108.605
X146.88Y-119.35
X147.051Y-89.634
X147.65Y-92.105
X147.8Y-116.7
X148.2Y-137.6
X148.855Y-78.529
X148.95Y-98.6
X149.05Y-92.4
X149.3Y-137.6
X149.5Y-128.8
X149.85Y-110.875
X149.95Y-114.85
X150.055Y-81.8
X150.15Y-99.6
X150.45Y-83.6
X150.45Y-84.895
X150.45Y-95.1
X150.5Y-137.6
X150.9Y-96.127
X150.9Y-97.9
X150.9Y-116.55
X151.Y-112.05
X151.35Y-73.
X151.434Y-79.985
X151.545Y-113.55
X151.6Y-137.6
X152.143Y-80.69
X152.25Y-117.55
X152.25Y-120.25
X152.25Y-122.95
X152.3Y-100.45
X152.347Y-91.3
X153.028Y-97.975
X153.05Y-83.8
X153.268Y-95.995
X153.347Y-91.302
X153.35Y-97.
X154.346Y-91.254
X154.4Y-113.4
X154.45Y-112.35
X154.523Y-108.181
X154.615Y-109.208
X154.615Y-110.221
X154.615Y-111.23
X154.65Y-118.65
X154.65Y-129.05
X154.65Y-129.95
X154.65Y-130.85
X154.65Y-131.75
X154.75Y-72.305
X155.344Y-91.194
X155.55Y-77.
X156.04Y-119.35
X156.347Y-91.188
X157.075Y-108.853
X157.5Y-79.8
X157.716Y-117.597
X157.755Y-100.175
X158.05Y-78.6
X158.1Y-90.25
X158.15Y-91.4
X158.35Y-114.45
X158.55Y-126.55
X158.58Y-119.35
X158.65Y-73.
X158.7Y-134.5
X159.Y-137.4
X159.15Y-131.95
X159.635Y-100.095
X159.64Y-107.75
X159.65Y-114.45
X159.7Y-134.5
X159.85Y-117.75
X159.85Y-126.55
X159.9Y-93.15
X159.9Y-94.55
X160.067Y-116.774
X160.1Y-137.4
X160.15Y-131.95
X160.55Y-72.7
X160.6Y-102.25
X160.7Y-134.5
X161.05Y-107.75
X161.15Y-131.95
X161.2Y-137.4
X161.24Y-119.35
X161.25Y-126.55
X161.4Y-93.15
X161.65Y-99.85
X161.65Y-114.45
X161.7Y-134.5
X162.05Y-85.145
X162.15Y-131.95
X162.2Y-137.4
X162.22Y-116.85
X162.35Y-72.7
X162.35Y-75.4
X162.55Y-126.55
X162.65Y-94.15
X162.8Y-88.65
X162.85Y-90.65
X162.853Y-89.65
X162.9Y-91.75
X163.043Y-114.45
X163.55Y-85.645
X163.55Y-108.605
X163.78Y-119.35
X163.825Y-102.45
X164.1Y-101.
X164.7Y-116.7
X165.1Y-137.4
X165.15Y-78.4
X165.15Y-100.9
X165.325Y-102.45
X166.3Y-137.4
X166.7Y-110.8
X166.75Y-71.8
X166.75Y-75.4
X166.85Y-114.85
X166.9Y-127.1
X167.245Y-84.35
X167.4Y-137.4
X167.65Y-89.395
X167.65Y-92.65
X167.8Y-112.05
X167.85Y-116.55
X168.445Y-113.55
X168.7Y-137.4
X168.75Y-94.575
X168.855Y-82.052
X168.95Y-84.9
X169.15Y-117.55
X169.15Y-120.25
X169.15Y-122.95
X169.25Y-83.645
X169.25Y-98.7
X169.25Y-102.9
X169.45Y-85.8
X169.45Y-86.8
X169.45Y-87.8
X169.695Y-96.005
X169.75Y-81.595
X170.15Y-91.6
X170.35Y-83.895
X170.45Y-95.3
X171.35Y-112.45
X171.38Y-108.291
X171.423Y-111.45
X171.45Y-109.45
X171.45Y-110.45
X171.495Y-113.45
X171.55Y-118.65
X171.55Y-129.05
X171.55Y-129.95
X171.6Y-130.8
X171.6Y-131.6
X171.95Y-72.7
X171.95Y-75.2
X172.334Y-86.595
X172.35Y-84.596
X172.357Y-85.596
X172.365Y-87.595
X172.94Y-119.45
X173.125Y-102.95
X173.45Y-82.3
X173.45Y-100.9
X173.975Y-108.953
X174.45Y-100.9
X174.618Y-117.701
X174.625Y-102.95
X174.95Y-72.7
X175.25Y-114.55
X175.35Y-90.
X175.365Y-91.6
X175.45Y-126.65
X175.48Y-119.45
X175.6Y-134.4
X175.6Y-137.5
X176.05Y-131.95
X176.25Y-94.7
X176.35Y-93.1
X176.45Y-71.8
X176.45Y-75.2
X176.54Y-107.85
X176.55Y-114.55
X176.6Y-134.4
X176.75Y-126.65
X176.8Y-137.5
X176.905Y-117.949
X176.95Y-116.95
X177.05Y-131.95
X177.6Y-134.4
X178.Y-137.5
X178.05Y-107.95
X178.05Y-131.95
X178.14Y-119.45
X178.15Y-126.65
X178.35Y-96.1
X178.55Y-114.55
X178.6Y-134.4
X179.05Y-131.95
X179.1Y-137.5
X179.12Y-116.95
X179.35Y-90.8
X179.45Y-126.65
X179.75Y-95.1
X179.825Y-86.
X179.943Y-114.55
X180.15Y-93.1
X180.45Y-108.675
X180.55Y-96.4
X180.68Y-119.45
X181.15Y-93.1
X181.25Y-89.5
X181.325Y-86.
X181.45Y-90.8
X181.6Y-116.8
X182.45Y-72.7
X182.45Y-75.325
X182.75Y-100.995
X182.9Y-119.475
X182.95Y-81.4
X183.7Y-110.9
X184.45Y-114.9
X185.035Y-112.15
X185.05Y-113.65
X185.25Y-92.1
X185.25Y-94.6
X185.8Y-123.7
X185.8Y-124.9
X185.8Y-126.
X186.05Y-93.1
X186.15Y-87.9
X186.85Y-71.8
X186.85Y-75.3
X186.95Y-99.
X187.7Y-115.9
X187.9Y-124.4
X188.35Y-118.15
X188.5Y-72.8
X188.51Y-120.69
X188.799Y-123.301
X189.05Y-114.65
X189.45Y-124.25
X189.497Y-120.854
X190.05Y-96.
X190.75Y-119.25
X191.8Y-137.2
X192.4Y-131.
X197.8Y-125.5
T2
X121.95Y-127.55
X121.95Y-130.05
X121.95Y-132.55
T3
X191.47Y-81.38
X191.47Y-89.
X194.01Y-81.38
X194.01Y-89.
X196.55Y-81.38
X196.55Y-89.
T4
X176.15Y-129.45
X178.65Y-129.45
X159.25Y-129.35
X161.75Y-129.35
X142.35Y-129.35
X144.85Y-129.35
T5
X115.7Y-131.3
X118.2Y-131.3
T6
X112.45Y-73.6
X197.05Y-73.6
X189.55Y-108.25
X119.95Y-108.25
X189.55Y-101.6
X112.45Y-136.25
X119.95Y-101.6
X197.05Y-136.25
T0
M30
