G04 #@! TF.GenerationSoftware,KiCad,Pcbnew,(5.0.0)*
G04 #@! TF.CreationDate,2019-07-10T13:20:49+09:00*
G04 #@! TF.ProjectId,top and bottom,746F7020616E6420626F74746F6D2E6B,rev?*
G04 #@! TF.SameCoordinates,Original*
G04 #@! TF.FileFunction,Copper,L2,Bot,Signal*
G04 #@! TF.FilePolarity,Positive*
%FSLAX46Y46*%
G04 Gerber Fmt 4.6, Leading zero omitted, Abs format (unit mm)*
G04 Created by KiCad (PCBNEW (5.0.0)) date 07/10/19 13:20:49*
%MOMM*%
%LPD*%
G01*
G04 APERTURE LIST*
G04 #@! TA.AperFunction,SMDPad,CuDef*
%ADD10R,0.230000X1.250000*%
G04 #@! TD*
G04 #@! TA.AperFunction,SMDPad,CuDef*
%ADD11R,1.800000X2.000000*%
G04 #@! TD*
G04 #@! TA.AperFunction,SMDPad,CuDef*
%ADD12R,2.200000X2.000000*%
G04 #@! TD*
G04 #@! TA.AperFunction,SMDPad,CuDef*
%ADD13R,2.000000X0.410000*%
G04 #@! TD*
G04 #@! TA.AperFunction,SMDPad,CuDef*
%ADD14R,0.800000X0.500000*%
G04 #@! TD*
G04 #@! TA.AperFunction,SMDPad,CuDef*
%ADD15R,0.700000X0.800000*%
G04 #@! TD*
G04 #@! TA.AperFunction,SMDPad,CuDef*
%ADD16R,0.250000X0.500000*%
G04 #@! TD*
G04 #@! TA.AperFunction,SMDPad,CuDef*
%ADD17R,1.000000X1.200000*%
G04 #@! TD*
G04 #@! TA.AperFunction,SMDPad,CuDef*
%ADD18R,0.700000X1.200000*%
G04 #@! TD*
G04 #@! TA.AperFunction,SMDPad,CuDef*
%ADD19R,1.000000X0.800000*%
G04 #@! TD*
G04 #@! TA.AperFunction,SMDPad,CuDef*
%ADD20R,1.000000X2.800000*%
G04 #@! TD*
G04 #@! TA.AperFunction,SMDPad,CuDef*
%ADD21R,1.300000X1.900000*%
G04 #@! TD*
G04 #@! TA.AperFunction,SMDPad,CuDef*
%ADD22R,0.500000X0.800000*%
G04 #@! TD*
G04 #@! TA.AperFunction,SMDPad,CuDef*
%ADD23R,0.650000X1.400000*%
G04 #@! TD*
G04 #@! TA.AperFunction,SMDPad,CuDef*
%ADD24R,1.250000X0.230000*%
G04 #@! TD*
G04 #@! TA.AperFunction,SMDPad,CuDef*
%ADD25R,2.000000X1.800000*%
G04 #@! TD*
G04 #@! TA.AperFunction,SMDPad,CuDef*
%ADD26R,2.000000X2.200000*%
G04 #@! TD*
G04 #@! TA.AperFunction,SMDPad,CuDef*
%ADD27R,0.800000X0.700000*%
G04 #@! TD*
G04 #@! TA.AperFunction,ComponentPad*
%ADD28R,1.524000X1.524000*%
G04 #@! TD*
G04 #@! TA.AperFunction,ComponentPad*
%ADD29C,1.524000*%
G04 #@! TD*
G04 #@! TA.AperFunction,ComponentPad*
%ADD30C,1.200000*%
G04 #@! TD*
G04 #@! TA.AperFunction,ComponentPad*
%ADD31R,2.000000X2.000000*%
G04 #@! TD*
G04 #@! TA.AperFunction,ComponentPad*
%ADD32C,2.000000*%
G04 #@! TD*
G04 #@! TA.AperFunction,ViaPad*
%ADD33C,0.800000*%
G04 #@! TD*
G04 #@! TA.AperFunction,Conductor*
%ADD34C,0.400000*%
G04 #@! TD*
G04 #@! TA.AperFunction,Conductor*
%ADD35C,1.000000*%
G04 #@! TD*
G04 #@! TA.AperFunction,Conductor*
%ADD36C,0.210000*%
G04 #@! TD*
G04 #@! TA.AperFunction,Conductor*
%ADD37C,2.000000*%
G04 #@! TD*
G04 #@! TA.AperFunction,Conductor*
%ADD38C,0.200000*%
G04 #@! TD*
G04 #@! TA.AperFunction,NonConductor*
%ADD39C,0.254000*%
G04 #@! TD*
G04 APERTURE END LIST*
D10*
G04 #@! TO.P,J11,7*
G04 #@! TO.N,N/C*
X156050000Y-99500000D03*
G04 #@! TO.P,J11,8*
X156550000Y-99500000D03*
G04 #@! TO.P,J11,5*
X155050000Y-99500000D03*
D11*
G04 #@! TO.P,J11,*
G04 #@! TO.N,*
X151400000Y-102175000D03*
D10*
G04 #@! TO.P,J11,4*
G04 #@! TO.N,N/C*
X154550000Y-99500000D03*
G04 #@! TO.P,J11,3*
X154050000Y-99500000D03*
G04 #@! TO.P,J11,1*
X153050000Y-99500000D03*
G04 #@! TO.P,J11,6*
X155550000Y-99500000D03*
D12*
G04 #@! TO.P,J11,*
G04 #@! TO.N,*
X158150000Y-102175000D03*
X151400000Y-102175000D03*
D10*
G04 #@! TO.P,J11,2*
G04 #@! TO.N,N/C*
X153550000Y-99500000D03*
G04 #@! TD*
D13*
G04 #@! TO.P,U4,20*
G04 #@! TO.N,N/C*
X131250000Y-77195000D03*
G04 #@! TO.P,U4,1*
X136558600Y-77195000D03*
G04 #@! TO.P,U4,6*
X136558600Y-80370000D03*
G04 #@! TO.P,U4,12*
X131250000Y-82275000D03*
G04 #@! TO.P,U4,16*
X131250000Y-79735000D03*
G04 #@! TO.P,U4,5*
X136558600Y-79735000D03*
G04 #@! TO.P,U4,19*
X131250000Y-77830000D03*
G04 #@! TO.P,U4,14*
X131250000Y-81005000D03*
G04 #@! TO.P,U4,15*
X131250000Y-80370000D03*
G04 #@! TO.P,U4,4*
X136558600Y-79100000D03*
G04 #@! TO.P,U4,3*
X136558600Y-78465000D03*
G04 #@! TO.P,U4,18*
X131250000Y-78465000D03*
G04 #@! TO.P,U4,11*
X131250000Y-82910000D03*
G04 #@! TO.P,U4,7*
X136558600Y-81005000D03*
G04 #@! TO.P,U4,17*
X131250000Y-79100000D03*
G04 #@! TO.P,U4,2*
X136558600Y-77830000D03*
G04 #@! TO.P,U4,13*
X131250000Y-81640000D03*
G04 #@! TO.P,U4,10*
X136558600Y-82910000D03*
G04 #@! TO.P,U4,8*
X136558600Y-81640000D03*
G04 #@! TO.P,U4,9*
X136558600Y-82275000D03*
G04 #@! TD*
D14*
G04 #@! TO.P,R28,2*
G04 #@! TO.N,N/C*
X140850000Y-77000000D03*
G04 #@! TO.P,R28,1*
X140850000Y-78500000D03*
G04 #@! TD*
G04 #@! TO.P,R29,1*
G04 #@! TO.N,N/C*
X142450000Y-78500000D03*
G04 #@! TO.P,R29,2*
X142450000Y-77000000D03*
G04 #@! TD*
G04 #@! TO.P,R27,1*
G04 #@! TO.N,N/C*
X144050000Y-78500000D03*
G04 #@! TO.P,R27,2*
X144050000Y-77000000D03*
G04 #@! TD*
D15*
G04 #@! TO.P,C27,1*
G04 #@! TO.N,N/C*
X131225000Y-74600000D03*
G04 #@! TO.P,C27,2*
X129725000Y-74600000D03*
G04 #@! TD*
G04 #@! TO.P,C26,2*
G04 #@! TO.N,N/C*
X129575000Y-84800000D03*
G04 #@! TO.P,C26,1*
X128075000Y-84800000D03*
G04 #@! TD*
G04 #@! TO.P,C25,2*
G04 #@! TO.N,N/C*
X138050000Y-74600000D03*
G04 #@! TO.P,C25,1*
X136550000Y-74600000D03*
G04 #@! TD*
G04 #@! TO.P,C24,1*
G04 #@! TO.N,N/C*
X139750000Y-84700000D03*
G04 #@! TO.P,C24,2*
X138250000Y-84700000D03*
G04 #@! TD*
D16*
G04 #@! TO.P,RN3,4*
G04 #@! TO.N,N/C*
X183520000Y-92390000D03*
G04 #@! TO.P,RN3,8*
X182020000Y-93390000D03*
G04 #@! TO.P,RN3,1*
X182020000Y-92390000D03*
G04 #@! TO.P,RN3,5*
X183520000Y-93390000D03*
G04 #@! TO.P,RN3,7*
X182520000Y-93390000D03*
G04 #@! TO.P,RN3,6*
X183020000Y-93390000D03*
G04 #@! TO.P,RN3,3*
X183020000Y-92390000D03*
G04 #@! TO.P,RN3,2*
X182520000Y-92390000D03*
G04 #@! TD*
D17*
G04 #@! TO.P,U3,11*
G04 #@! TO.N,N/C*
X186150000Y-87900000D03*
D18*
G04 #@! TO.P,U3,8*
X176900000Y-87900000D03*
G04 #@! TO.P,U3,2*
X183500000Y-87900000D03*
G04 #@! TO.P,U3,3*
X182400000Y-87900000D03*
G04 #@! TO.P,U3,4*
X181300000Y-87900000D03*
G04 #@! TO.P,U3,5*
X180200000Y-87900000D03*
G04 #@! TO.P,U3,6*
X179100000Y-87900000D03*
G04 #@! TO.P,U3,7*
X178000000Y-87900000D03*
G04 #@! TO.P,U3,1*
X184600000Y-87900000D03*
G04 #@! TO.P,U3,9*
X175950000Y-87900000D03*
D19*
G04 #@! TO.P,U3,10*
X175000000Y-77400000D03*
D17*
G04 #@! TO.P,U3,11*
X175000000Y-83600000D03*
D20*
X175000000Y-73250000D03*
D21*
X188500000Y-72800000D03*
G04 #@! TD*
D17*
G04 #@! TO.P,Y1,4*
G04 #@! TO.N,N/C*
X164150000Y-93700000D03*
G04 #@! TO.P,Y1,3*
X164150000Y-95900000D03*
G04 #@! TO.P,Y1,2*
X166050000Y-95900000D03*
G04 #@! TO.P,Y1,1*
X166050000Y-93700000D03*
G04 #@! TD*
D14*
G04 #@! TO.P,R24,2*
G04 #@! TO.N,N/C*
X156750000Y-74500000D03*
G04 #@! TO.P,R24,1*
X156750000Y-73000000D03*
G04 #@! TD*
G04 #@! TO.P,R19,2*
G04 #@! TO.N,N/C*
X176850000Y-89600000D03*
G04 #@! TO.P,R19,1*
X176850000Y-91100000D03*
G04 #@! TD*
G04 #@! TO.P,L1,2*
G04 #@! TO.N,N/C*
X165250000Y-85900000D03*
G04 #@! TO.P,L1,1*
X165250000Y-84400000D03*
G04 #@! TD*
D22*
G04 #@! TO.P,R6,2*
G04 #@! TO.N,N/C*
X159900000Y-94550000D03*
G04 #@! TO.P,R6,1*
X161400000Y-94550000D03*
G04 #@! TD*
D14*
G04 #@! TO.P,R22,2*
G04 #@! TO.N,N/C*
X152750000Y-74500000D03*
G04 #@! TO.P,R22,1*
X152750000Y-73000000D03*
G04 #@! TD*
D22*
G04 #@! TO.P,R20,2*
G04 #@! TO.N,N/C*
X172950000Y-80300000D03*
G04 #@! TO.P,R20,1*
X171450000Y-80300000D03*
G04 #@! TD*
G04 #@! TO.P,R21,2*
G04 #@! TO.N,N/C*
X184650000Y-90100000D03*
G04 #@! TO.P,R21,1*
X186150000Y-90100000D03*
G04 #@! TD*
D23*
G04 #@! TO.P,Y2,1*
G04 #@! TO.N,N/C*
X165650000Y-91525000D03*
G04 #@! TO.P,Y2,2*
X164000000Y-91525000D03*
G04 #@! TO.P,Y2,4*
X165650000Y-89320000D03*
G04 #@! TO.P,Y2,3*
X164000000Y-89320000D03*
G04 #@! TD*
D14*
G04 #@! TO.P,R23,2*
G04 #@! TO.N,N/C*
X154750000Y-74500000D03*
G04 #@! TO.P,R23,1*
X154750000Y-73000000D03*
G04 #@! TD*
D16*
G04 #@! TO.P,RN2,2*
G04 #@! TO.N,N/C*
X169580000Y-100340000D03*
G04 #@! TO.P,RN2,3*
X169080000Y-100340000D03*
G04 #@! TO.P,RN2,6*
X169080000Y-99340000D03*
G04 #@! TO.P,RN2,7*
X169580000Y-99340000D03*
G04 #@! TO.P,RN2,5*
X168580000Y-99340000D03*
G04 #@! TO.P,RN2,1*
X170080000Y-100340000D03*
G04 #@! TO.P,RN2,8*
X170080000Y-99340000D03*
G04 #@! TO.P,RN2,4*
X168580000Y-100340000D03*
G04 #@! TD*
D24*
G04 #@! TO.P,J1,14*
G04 #@! TO.N,N/C*
X114450000Y-86900000D03*
G04 #@! TO.P,J1,13*
X114450000Y-86400000D03*
G04 #@! TO.P,J1,12*
X114450000Y-85900000D03*
G04 #@! TO.P,J1,11*
X114450000Y-85400000D03*
G04 #@! TO.P,J1,10*
X114450000Y-84900000D03*
G04 #@! TO.P,J1,9*
X114450000Y-84400000D03*
G04 #@! TO.P,J1,8*
X114450000Y-83900000D03*
G04 #@! TO.P,J1,7*
X114450000Y-83400000D03*
G04 #@! TO.P,J1,6*
X114450000Y-82900000D03*
G04 #@! TO.P,J1,5*
X114450000Y-82400000D03*
G04 #@! TO.P,J1,4*
X114450000Y-81900000D03*
G04 #@! TO.P,J1,3*
X114450000Y-81400000D03*
G04 #@! TO.P,J1,2*
X114450000Y-80900000D03*
D25*
G04 #@! TO.P,J1,*
G04 #@! TO.N,*
X111775000Y-78750000D03*
X111775000Y-88550000D03*
D24*
G04 #@! TO.P,J1,1*
G04 #@! TO.N,N/C*
X114450000Y-80400000D03*
D26*
G04 #@! TO.P,J1,*
G04 #@! TO.N,*
X111775000Y-88550000D03*
X111775000Y-78750000D03*
G04 #@! TD*
D15*
G04 #@! TO.P,C21,2*
G04 #@! TO.N,N/C*
X163825000Y-102450000D03*
G04 #@! TO.P,C21,1*
X165325000Y-102450000D03*
G04 #@! TD*
G04 #@! TO.P,C19,2*
G04 #@! TO.N,N/C*
X173125000Y-102950000D03*
G04 #@! TO.P,C19,1*
X174625000Y-102950000D03*
G04 #@! TD*
G04 #@! TO.P,C18,1*
G04 #@! TO.N,N/C*
X138725000Y-101500000D03*
G04 #@! TO.P,C18,2*
X137225000Y-101500000D03*
G04 #@! TD*
D27*
G04 #@! TO.P,C1,1*
G04 #@! TO.N,N/C*
X167650000Y-93625000D03*
G04 #@! TO.P,C1,2*
X167650000Y-95125000D03*
G04 #@! TD*
G04 #@! TO.P,C4,1*
G04 #@! TO.N,N/C*
X163550000Y-85900000D03*
G04 #@! TO.P,C4,2*
X163550000Y-84400000D03*
G04 #@! TD*
D28*
G04 #@! TO.P,SW4,1*
G04 #@! TO.N,N/C*
X196550000Y-89000000D03*
D29*
G04 #@! TO.P,SW4,C*
X194010000Y-89000000D03*
G04 #@! TO.P,SW4,8*
X191470000Y-89000000D03*
G04 #@! TO.P,SW4,4*
X196550000Y-81380000D03*
G04 #@! TO.P,SW4,C*
X194010000Y-81380000D03*
G04 #@! TO.P,SW4,2*
X191470000Y-81380000D03*
G04 #@! TD*
D15*
G04 #@! TO.P,C9,1*
G04 #@! TO.N,N/C*
X149975000Y-78600000D03*
G04 #@! TO.P,C9,2*
X151475000Y-78600000D03*
G04 #@! TD*
G04 #@! TO.P,C6,1*
G04 #@! TO.N,N/C*
X159900000Y-93150000D03*
G04 #@! TO.P,C6,2*
X161400000Y-93150000D03*
G04 #@! TD*
D27*
G04 #@! TO.P,C3,1*
G04 #@! TO.N,N/C*
X167650000Y-89400000D03*
G04 #@! TO.P,C3,2*
X167650000Y-90900000D03*
G04 #@! TD*
D15*
G04 #@! TO.P,C10,1*
G04 #@! TO.N,N/C*
X148025000Y-93400000D03*
G04 #@! TO.P,C10,2*
X146525000Y-93400000D03*
G04 #@! TD*
G04 #@! TO.P,C8,1*
G04 #@! TO.N,N/C*
X152950000Y-77200000D03*
G04 #@! TO.P,C8,2*
X151450000Y-77200000D03*
G04 #@! TD*
G04 #@! TO.P,C7,1*
G04 #@! TO.N,N/C*
X156550000Y-78600000D03*
G04 #@! TO.P,C7,2*
X158050000Y-78600000D03*
G04 #@! TD*
D30*
G04 #@! TO.P,SW2,3*
G04 #@! TO.N,N/C*
X121950000Y-132550000D03*
G04 #@! TO.P,SW2,2*
X121950000Y-130050000D03*
G04 #@! TO.P,SW2,1*
X121950000Y-127550000D03*
G04 #@! TD*
D29*
G04 #@! TO.P,J3,2*
G04 #@! TO.N,N/C*
X159250000Y-129350000D03*
G04 #@! TO.P,J3,1*
X161750000Y-129350000D03*
G04 #@! TD*
D27*
G04 #@! TO.P,C39,1*
G04 #@! TO.N,N/C*
X130550000Y-130875000D03*
G04 #@! TO.P,C39,2*
X130550000Y-132375000D03*
G04 #@! TD*
D16*
G04 #@! TO.P,RN2,4*
G04 #@! TO.N,N/C*
X173720000Y-112240000D03*
G04 #@! TO.P,RN2,8*
X172220000Y-113240000D03*
G04 #@! TO.P,RN2,1*
X172220000Y-112240000D03*
G04 #@! TO.P,RN2,5*
X173720000Y-113240000D03*
G04 #@! TO.P,RN2,7*
X172720000Y-113240000D03*
G04 #@! TO.P,RN2,6*
X173220000Y-113240000D03*
G04 #@! TO.P,RN2,3*
X173220000Y-112240000D03*
G04 #@! TO.P,RN2,2*
X172720000Y-112240000D03*
G04 #@! TD*
G04 #@! TO.P,RN3,2*
G04 #@! TO.N,N/C*
X155820000Y-112140000D03*
G04 #@! TO.P,RN3,3*
X156320000Y-112140000D03*
G04 #@! TO.P,RN3,6*
X156320000Y-113140000D03*
G04 #@! TO.P,RN3,7*
X155820000Y-113140000D03*
G04 #@! TO.P,RN3,5*
X156820000Y-113140000D03*
G04 #@! TO.P,RN3,1*
X155320000Y-112140000D03*
G04 #@! TO.P,RN3,8*
X155320000Y-113140000D03*
G04 #@! TO.P,RN3,4*
X156820000Y-112140000D03*
G04 #@! TD*
D14*
G04 #@! TO.P,R27,1*
G04 #@! TO.N,N/C*
X156050000Y-118350000D03*
G04 #@! TO.P,R27,2*
X156050000Y-116850000D03*
G04 #@! TD*
D27*
G04 #@! TO.P,C17,1*
G04 #@! TO.N,N/C*
X166750000Y-112075000D03*
G04 #@! TO.P,C17,2*
X166750000Y-113575000D03*
G04 #@! TD*
D15*
G04 #@! TO.P,C25,1*
G04 #@! TO.N,N/C*
X158175000Y-112650000D03*
G04 #@! TO.P,C25,2*
X159675000Y-112650000D03*
G04 #@! TD*
G04 #@! TO.P,C10,1*
G04 #@! TO.N,N/C*
X141275000Y-112650000D03*
G04 #@! TO.P,C10,2*
X142775000Y-112650000D03*
G04 #@! TD*
G04 #@! TO.P,C21,2*
G04 #@! TO.N,N/C*
X178525000Y-112750000D03*
G04 #@! TO.P,C21,1*
X180025000Y-112750000D03*
G04 #@! TD*
D31*
G04 #@! TO.P,J6,1*
G04 #@! TO.N,N/C*
X115700000Y-131300000D03*
D32*
G04 #@! TO.P,J6,2*
X118200000Y-131300000D03*
G04 #@! TD*
D15*
G04 #@! TO.P,C24,1*
G04 #@! TO.N,N/C*
X163125000Y-112650000D03*
G04 #@! TO.P,C24,2*
X161625000Y-112650000D03*
G04 #@! TD*
D14*
G04 #@! TO.P,R8,2*
G04 #@! TO.N,N/C*
X146650000Y-116850000D03*
G04 #@! TO.P,R8,1*
X146650000Y-118350000D03*
G04 #@! TD*
G04 #@! TO.P,R21,2*
G04 #@! TO.N,N/C*
X178150000Y-116950000D03*
G04 #@! TO.P,R21,1*
X178150000Y-118450000D03*
G04 #@! TD*
G04 #@! TO.P,R19,2*
G04 #@! TO.N,N/C*
X154650000Y-115850000D03*
G04 #@! TO.P,R19,1*
X154650000Y-114350000D03*
G04 #@! TD*
G04 #@! TO.P,R10,2*
G04 #@! TO.N,N/C*
X141650000Y-116850000D03*
G04 #@! TO.P,R10,1*
X141650000Y-118350000D03*
G04 #@! TD*
D27*
G04 #@! TO.P,C16,1*
G04 #@! TO.N,N/C*
X183650000Y-112175000D03*
G04 #@! TO.P,C16,2*
X183650000Y-113675000D03*
G04 #@! TD*
D15*
G04 #@! TO.P,C22,1*
G04 #@! TO.N,N/C*
X175075000Y-112750000D03*
G04 #@! TO.P,C22,2*
X176575000Y-112750000D03*
G04 #@! TD*
D16*
G04 #@! TO.P,RN1,2*
G04 #@! TO.N,N/C*
X138920000Y-112140000D03*
G04 #@! TO.P,RN1,3*
X139420000Y-112140000D03*
G04 #@! TO.P,RN1,6*
X139420000Y-113140000D03*
G04 #@! TO.P,RN1,7*
X138920000Y-113140000D03*
G04 #@! TO.P,RN1,5*
X139920000Y-113140000D03*
G04 #@! TO.P,RN1,1*
X138420000Y-112140000D03*
G04 #@! TO.P,RN1,8*
X138420000Y-113140000D03*
G04 #@! TO.P,RN1,4*
X139920000Y-112140000D03*
G04 #@! TD*
D14*
G04 #@! TO.P,R20,2*
G04 #@! TO.N,N/C*
X180450000Y-116950000D03*
G04 #@! TO.P,R20,1*
X180450000Y-118450000D03*
G04 #@! TD*
G04 #@! TO.P,R18,2*
G04 #@! TO.N,N/C*
X171550000Y-115950000D03*
G04 #@! TO.P,R18,1*
X171550000Y-114450000D03*
G04 #@! TD*
G04 #@! TO.P,R11,2*
G04 #@! TO.N,N/C*
X139150000Y-116850000D03*
G04 #@! TO.P,R11,1*
X139150000Y-118350000D03*
G04 #@! TD*
G04 #@! TO.P,R7,1*
G04 #@! TO.N,N/C*
X137750000Y-114350000D03*
G04 #@! TO.P,R7,2*
X137750000Y-115850000D03*
G04 #@! TD*
D29*
G04 #@! TO.P,J2,1*
G04 #@! TO.N,N/C*
X178650000Y-129450000D03*
G04 #@! TO.P,J2,2*
X176150000Y-129450000D03*
G04 #@! TD*
G04 #@! TO.P,J1,2*
G04 #@! TO.N,N/C*
X142350000Y-129350000D03*
G04 #@! TO.P,J1,1*
X144850000Y-129350000D03*
G04 #@! TD*
D14*
G04 #@! TO.P,R26,2*
G04 #@! TO.N,N/C*
X158550000Y-116850000D03*
G04 #@! TO.P,R26,1*
X158550000Y-118350000D03*
G04 #@! TD*
G04 #@! TO.P,R25,1*
G04 #@! TO.N,N/C*
X161250000Y-118350000D03*
G04 #@! TO.P,R25,2*
X161250000Y-116850000D03*
G04 #@! TD*
G04 #@! TO.P,R24,2*
G04 #@! TO.N,N/C*
X163550000Y-116850000D03*
G04 #@! TO.P,R24,1*
X163550000Y-118350000D03*
G04 #@! TD*
G04 #@! TO.P,R23,2*
G04 #@! TO.N,N/C*
X172950000Y-116950000D03*
G04 #@! TO.P,R23,1*
X172950000Y-118450000D03*
G04 #@! TD*
G04 #@! TO.P,R9,1*
G04 #@! TO.N,N/C*
X144350000Y-118350000D03*
G04 #@! TO.P,R9,2*
X144350000Y-116850000D03*
G04 #@! TD*
G04 #@! TO.P,R22,2*
G04 #@! TO.N,N/C*
X175450000Y-116950000D03*
G04 #@! TO.P,R22,1*
X175450000Y-118450000D03*
G04 #@! TD*
D27*
G04 #@! TO.P,C6,2*
G04 #@! TO.N,N/C*
X149850000Y-113575000D03*
G04 #@! TO.P,C6,1*
X149850000Y-112075000D03*
G04 #@! TD*
D15*
G04 #@! TO.P,C9,2*
G04 #@! TO.N,N/C*
X144725000Y-112650000D03*
G04 #@! TO.P,C9,1*
X146225000Y-112650000D03*
G04 #@! TD*
D33*
G04 #@! TO.N,*
X149850000Y-110875000D03*
X145300000Y-137500000D03*
X168700000Y-137400000D03*
X175600000Y-137500000D03*
X166300000Y-137400000D03*
X132699998Y-137600000D03*
X179100000Y-137500000D03*
X183700002Y-110900000D03*
X161200000Y-137399998D03*
X149300000Y-137600000D03*
X148200000Y-137600000D03*
X134700000Y-137600000D03*
X150500000Y-137600000D03*
X176800000Y-137500000D03*
X143100000Y-137500000D03*
X137750000Y-129050000D03*
X154650000Y-131750000D03*
X142250000Y-131950000D03*
X137750000Y-131750000D03*
X143250004Y-131950000D03*
X137750000Y-118649996D03*
X137750000Y-129950000D03*
X161150000Y-131950000D03*
X146650000Y-108604987D03*
X137750000Y-130850000D03*
X144250000Y-131950000D03*
X145250000Y-131950000D03*
X171550000Y-118649996D03*
X192400000Y-131000000D03*
X154650000Y-130850000D03*
X182900000Y-119475000D03*
X171550000Y-129950000D03*
X123630000Y-120670000D03*
X154650000Y-129050000D03*
X154650000Y-118649996D03*
X171550000Y-129050000D03*
X191800000Y-137200000D03*
X171600000Y-130800000D03*
X129450000Y-128650000D03*
X178050000Y-131950000D03*
X122700000Y-108600000D03*
X162150000Y-131950000D03*
X159150000Y-131950000D03*
X177050004Y-131950000D03*
X119450000Y-114350000D03*
X134200000Y-129100000D03*
X120450000Y-136950000D03*
X149500000Y-128800000D03*
X132150000Y-113450000D03*
X160150004Y-131950000D03*
X176050000Y-131950000D03*
X110900000Y-133700000D03*
X171600000Y-131600000D03*
X126800000Y-112800000D03*
X197800000Y-125500000D03*
X154650000Y-129950000D03*
X163550000Y-108604987D03*
X129450000Y-136950000D03*
X180450000Y-108675032D03*
X111600000Y-121200000D03*
X166900000Y-127100000D03*
X179050000Y-131950000D03*
X187700000Y-115900000D03*
X142000000Y-137500000D03*
X166699998Y-110800000D03*
X162200000Y-137400000D03*
X165100000Y-137400000D03*
X167400000Y-137399994D03*
X178000000Y-137500000D03*
X160100000Y-137400000D03*
X151600000Y-137600000D03*
X144200000Y-137500000D03*
X133699994Y-137600000D03*
X131600000Y-137600000D03*
X159000000Y-137400000D03*
X154450000Y-112350010D03*
X171350000Y-112450000D03*
X135650000Y-113150000D03*
X149950000Y-114850000D03*
X143150000Y-116850000D03*
X185034979Y-112150000D03*
X185050000Y-113650000D03*
X168444990Y-113550000D03*
X167800000Y-112050000D03*
X184450000Y-114900000D03*
X176950000Y-116950000D03*
X166850000Y-114850000D03*
X160066933Y-116773801D03*
X179943318Y-114550012D03*
X141700000Y-134500000D03*
X144700000Y-134500000D03*
X178600000Y-134400000D03*
X175600000Y-134400000D03*
X177600000Y-134400000D03*
X176600000Y-134400000D03*
X161250000Y-126550000D03*
X130550000Y-128750000D03*
X167850000Y-116550008D03*
X176750000Y-126650000D03*
X150900000Y-116550010D03*
X179450000Y-126650000D03*
X141650000Y-126550000D03*
X159850000Y-126550000D03*
X178150000Y-126650000D03*
X144350000Y-126550000D03*
X142950000Y-126550000D03*
X171494988Y-113450000D03*
X145650000Y-126550000D03*
X154400000Y-113400000D03*
X158550000Y-126550000D03*
X175450000Y-126650000D03*
X162550000Y-126550000D03*
X160700000Y-134500000D03*
X159700000Y-134500000D03*
X161700000Y-134500000D03*
X143700000Y-134500000D03*
X142700000Y-134500000D03*
X158700000Y-134500000D03*
X161650000Y-114450000D03*
X134050000Y-107250000D03*
X190750000Y-119250000D03*
X144340000Y-119350000D03*
X146880000Y-119350000D03*
X141680000Y-119350000D03*
X139140000Y-119350000D03*
X178140000Y-119450000D03*
X180680000Y-119450000D03*
X175480000Y-119450000D03*
X172940000Y-119450000D03*
X161240000Y-119350000D03*
X163780000Y-119350000D03*
X158580000Y-119350000D03*
X156040000Y-119350000D03*
X140816059Y-117596671D03*
X143108896Y-117849167D03*
X145319990Y-116850000D03*
X147800000Y-116700012D03*
X137494967Y-108191266D03*
X137649778Y-109253444D03*
X137652086Y-110253453D03*
X137630484Y-111253232D03*
X140175006Y-108853124D03*
X173975006Y-108953124D03*
X171422699Y-111449652D03*
X171450000Y-110450013D03*
X171450000Y-109450013D03*
X171380033Y-108290715D03*
X181600000Y-116800012D03*
X179119990Y-116950000D03*
X176904582Y-117948980D03*
X174617545Y-117700541D03*
X157075006Y-108853124D03*
X154615021Y-111230179D03*
X154615021Y-110221496D03*
X154615021Y-109207829D03*
X154522618Y-108181237D03*
X164700000Y-116700012D03*
X162219990Y-116850000D03*
X159850000Y-117750000D03*
X157716059Y-117596671D03*
X163043318Y-114450012D03*
X151544990Y-113550000D03*
X151000000Y-112050000D03*
X144750000Y-114450000D03*
X146143318Y-114450012D03*
X142750000Y-114450002D03*
X178550000Y-114550000D03*
X176550000Y-114550002D03*
X159650000Y-114450002D03*
X189496541Y-120854316D03*
X189050000Y-114650000D03*
X188510144Y-120689864D03*
X188350000Y-118150000D03*
X178050000Y-107950000D03*
X176539988Y-107850000D03*
X169150000Y-122950000D03*
X161050000Y-107750000D03*
X159639988Y-107750000D03*
X187900000Y-124400000D03*
X189450000Y-124250000D03*
X169150000Y-120250000D03*
X169150000Y-117550000D03*
X188798518Y-123301482D03*
X185800000Y-123699999D03*
X152250000Y-117550000D03*
X152250000Y-120250000D03*
X185800000Y-124900000D03*
X152250000Y-122950000D03*
X144200000Y-107700000D03*
X185800000Y-126000000D03*
X142600000Y-107700000D03*
X141450000Y-114450002D03*
X175250000Y-114550000D03*
X158350000Y-114450002D03*
X151434372Y-79985267D03*
X165150000Y-78400000D03*
X188500000Y-72800000D03*
X186150000Y-87900000D03*
X122350000Y-73700000D03*
X162350000Y-72700000D03*
X179825000Y-86000000D03*
X147650000Y-92105010D03*
X167244990Y-84350064D03*
X186950000Y-99000000D03*
X190050000Y-96000000D03*
X174950000Y-72700000D03*
X182950000Y-81400000D03*
X139450000Y-94800000D03*
X122950000Y-100700000D03*
X170150000Y-91600000D03*
X182450000Y-72700000D03*
X182450000Y-75325000D03*
X171950000Y-75200000D03*
X171950000Y-72700000D03*
X162350000Y-75400000D03*
X173125000Y-102950000D03*
X160550000Y-72700000D03*
X163825000Y-102450000D03*
X137174991Y-101500009D03*
X158050000Y-78600000D03*
X114350000Y-90300000D03*
X112150000Y-83800000D03*
X117477275Y-90467715D03*
X155550000Y-77000000D03*
X161650000Y-99850000D03*
X159900000Y-93150000D03*
X143900000Y-94350000D03*
X167650000Y-92650000D03*
X163549996Y-85644990D03*
X116850000Y-73700000D03*
X168750000Y-94574970D03*
X176450000Y-75200000D03*
X181250000Y-89500000D03*
X186850000Y-71800000D03*
X175350000Y-90000000D03*
X166750000Y-71800000D03*
X181325000Y-86000000D03*
X148950000Y-98600000D03*
X186850000Y-75300000D03*
X167650000Y-89394990D03*
X166750000Y-75400000D03*
X141150000Y-99600000D03*
X186050000Y-93100000D03*
X181150000Y-93100000D03*
X159634840Y-100094876D03*
X126250000Y-73100000D03*
X134950000Y-91005010D03*
X176450000Y-71800000D03*
X138850000Y-83300000D03*
X161400000Y-93150000D03*
X152300010Y-100450000D03*
X157500000Y-79799998D03*
X114450000Y-79100000D03*
X114350000Y-88600000D03*
X138725000Y-101500000D03*
X150055010Y-81800000D03*
X149050000Y-92400000D03*
X145020000Y-99600000D03*
X148855010Y-78529215D03*
X121250000Y-83400002D03*
X162799996Y-88650000D03*
X162049996Y-85144990D03*
X168855045Y-82051675D03*
X173450000Y-82300000D03*
X143259051Y-90309908D03*
X142584338Y-89571812D03*
X141856940Y-88844414D03*
X141078758Y-88066232D03*
X139150000Y-87300000D03*
X140050000Y-87900000D03*
X158650000Y-73000000D03*
X154750000Y-72305010D03*
X151350000Y-73000000D03*
X169750000Y-81594990D03*
X150450000Y-84894990D03*
X150450000Y-83600000D03*
X153050000Y-83800000D03*
X152346901Y-91299995D03*
X145550000Y-94905010D03*
X158099996Y-90250000D03*
X162849867Y-90650016D03*
X185250000Y-92100000D03*
X185250000Y-94600000D03*
X162900000Y-91750000D03*
X158150000Y-91400000D03*
X150450000Y-95100000D03*
X153267817Y-95994695D03*
X150899990Y-97900000D03*
X153027772Y-97975007D03*
X169695431Y-96005010D03*
X165150000Y-100900000D03*
X173450000Y-100900000D03*
X170350000Y-83894990D03*
X164100000Y-101000000D03*
X170450000Y-95300000D03*
X169250000Y-83645054D03*
X174450000Y-100900000D03*
X153346911Y-91301749D03*
X154345781Y-91253978D03*
X155343995Y-91194037D03*
X156347262Y-91187806D03*
X127850000Y-80900000D03*
X127050000Y-84599998D03*
X128950000Y-91005010D03*
X129055010Y-97602476D03*
X175365021Y-91600000D03*
X182750000Y-100994990D03*
X169450000Y-85800000D03*
X172356723Y-85595720D03*
X172349972Y-84595731D03*
X168950000Y-84900000D03*
X172333924Y-86595472D03*
X169450000Y-86800000D03*
X169450000Y-87800000D03*
X172365341Y-87594990D03*
X162650000Y-94150004D03*
X162852562Y-89650008D03*
X137950000Y-91005010D03*
X137950000Y-97800000D03*
X125750000Y-91194990D03*
X123450000Y-94100008D03*
X124150000Y-95100000D03*
X126769551Y-91194990D03*
X180550000Y-96400000D03*
X178350000Y-96100000D03*
X176350000Y-93100000D03*
X180150000Y-93100000D03*
X179750000Y-95100000D03*
X179350000Y-90800000D03*
X181450000Y-90800000D03*
X176250000Y-94700000D03*
X150899990Y-96126570D03*
X153350000Y-97000000D03*
X152143415Y-80690450D03*
X160600000Y-102250000D03*
X157755010Y-100175000D03*
X159900000Y-94550000D03*
X174625000Y-102950000D03*
X131250000Y-98399994D03*
X169250000Y-102900000D03*
X165325000Y-102450000D03*
X169250000Y-98700000D03*
X146150000Y-90600000D03*
X147050867Y-89634462D03*
X144401482Y-89348518D03*
X140850000Y-78500000D03*
X140850000Y-80700000D03*
X150150000Y-99600000D03*
G04 #@! TD*
D34*
G04 #@! TO.N,*
X129450000Y-127000000D02*
X129450000Y-128084315D01*
X129450000Y-128084315D02*
X129450000Y-128650000D01*
X123630000Y-121180000D02*
X129450000Y-127000000D01*
D35*
X142250000Y-131950000D02*
X145250000Y-131950000D01*
D34*
X123630000Y-120670000D02*
X123630000Y-121180000D01*
D36*
X171550000Y-115950000D02*
X171550000Y-118649996D01*
X163550000Y-108604987D02*
X164504985Y-108604987D01*
X164504985Y-108604987D02*
X166299999Y-110400001D01*
X166299999Y-110400001D02*
X166699998Y-110800000D01*
D35*
X171600000Y-131600000D02*
X171600000Y-135600000D01*
X171600000Y-135600000D02*
X169800000Y-137400000D01*
X143100000Y-137500000D02*
X142000000Y-137500000D01*
X169800000Y-137400000D02*
X168700000Y-137400000D01*
X145250000Y-131950000D02*
X146400011Y-133100011D01*
X145699999Y-137100001D02*
X145300000Y-137500000D01*
X146400011Y-133100011D02*
X146400011Y-136399989D01*
X146400011Y-136399989D02*
X145699999Y-137100001D01*
X162200000Y-137400000D02*
X161200002Y-137400000D01*
X161200002Y-137400000D02*
X161200000Y-137399998D01*
D36*
X154650000Y-115950000D02*
X154650000Y-118649996D01*
X137750000Y-115950000D02*
X137750000Y-118649996D01*
D35*
X159150000Y-131900000D02*
X162150000Y-131900000D01*
X176050000Y-131900000D02*
X179050000Y-131900000D01*
D36*
X130550000Y-132375000D02*
X129475000Y-132375000D01*
X129450000Y-128650000D02*
X129450000Y-132350000D01*
D34*
X123630000Y-117520000D02*
X123630000Y-120670000D01*
X132150000Y-113450000D02*
X127700000Y-113450000D01*
D36*
X129450000Y-132350000D02*
X129450000Y-136950000D01*
D34*
X127700000Y-113450000D02*
X123630000Y-117520000D01*
D36*
X129475000Y-132375000D02*
X129450000Y-132350000D01*
X147215685Y-108604987D02*
X147220672Y-108600000D01*
D35*
X134700000Y-137600000D02*
X133699994Y-137600000D01*
D36*
X146650000Y-108604987D02*
X147215685Y-108604987D01*
D35*
X154650000Y-134550000D02*
X151600000Y-137600000D01*
X154650000Y-131750000D02*
X154650000Y-134550000D01*
X166300000Y-137400000D02*
X165100000Y-137400000D01*
X176800000Y-137500000D02*
X175600000Y-137500000D01*
X154650000Y-129050000D02*
X154650000Y-131750000D01*
X162150000Y-131950000D02*
X163500000Y-133300000D01*
X162599999Y-137000001D02*
X162200000Y-137400000D01*
X163500000Y-133300000D02*
X163500000Y-136100000D01*
X163500000Y-136100000D02*
X162599999Y-137000001D01*
X178000000Y-137500000D02*
X176800000Y-137500000D01*
X148200000Y-137600000D02*
X149300000Y-137600000D01*
X150500000Y-137600000D02*
X149300000Y-137600000D01*
X151600000Y-137600000D02*
X150500000Y-137600000D01*
X145300000Y-137500000D02*
X144200000Y-137500000D01*
X167400000Y-137399994D02*
X166300006Y-137399994D01*
X166300006Y-137399994D02*
X166300000Y-137400000D01*
X160100000Y-137400000D02*
X159000000Y-137400000D01*
X133699994Y-137600000D02*
X132699998Y-137600000D01*
X179100000Y-137500000D02*
X178000000Y-137500000D01*
X161200000Y-137399998D02*
X160100002Y-137399998D01*
X160100002Y-137399998D02*
X160100000Y-137400000D01*
D36*
X180450000Y-108675032D02*
X182674968Y-110900000D01*
X183134317Y-110900000D02*
X183700002Y-110900000D01*
X182674968Y-110900000D02*
X183134317Y-110900000D01*
X147220672Y-108600000D02*
X148700000Y-108600000D01*
X148700000Y-108600000D02*
X149850000Y-109750000D01*
X149850000Y-109750000D02*
X149850000Y-110875000D01*
D35*
X137750000Y-129050000D02*
X137750000Y-131750000D01*
X168700000Y-137400000D02*
X167400006Y-137400000D01*
X167400006Y-137400000D02*
X167400000Y-137399994D01*
X171550000Y-131550000D02*
X171600000Y-131600000D01*
X171550000Y-129050000D02*
X171550000Y-131550000D01*
X137750000Y-134550000D02*
X134700000Y-137600000D01*
X137750000Y-131750000D02*
X137750000Y-134550000D01*
X144200000Y-137500000D02*
X143100000Y-137500000D01*
X132699998Y-137600000D02*
X131600000Y-137600000D01*
X179499999Y-137100001D02*
X179100000Y-137500000D01*
X180400000Y-133300000D02*
X180400000Y-136200000D01*
X180400000Y-136200000D02*
X179499999Y-137100001D01*
X179050000Y-131950000D02*
X180400000Y-133300000D01*
D36*
X156820000Y-113140000D02*
X155239990Y-113140000D01*
X154849999Y-112750009D02*
X154450000Y-112350010D01*
X136215685Y-113150000D02*
X135650000Y-113150000D01*
X138600000Y-113150000D02*
X136215685Y-113150000D01*
X155239990Y-113140000D02*
X154849999Y-112750009D01*
X138420000Y-113140000D02*
X139920000Y-113140000D01*
X172220000Y-113240000D02*
X173720000Y-113240000D01*
X173385000Y-113240000D02*
X173720000Y-113240000D01*
X172295998Y-113240000D02*
X173385000Y-113240000D01*
X155320000Y-113140000D02*
X156820000Y-113140000D01*
X171505998Y-112450000D02*
X172295998Y-113240000D01*
X171350000Y-112450000D02*
X171505998Y-112450000D01*
X149950000Y-114850000D02*
X149950000Y-115615673D01*
X147965673Y-117600000D02*
X143900000Y-117600000D01*
X143900000Y-117600000D02*
X143549999Y-117249999D01*
X143549999Y-117249999D02*
X143150000Y-116850000D01*
X149950000Y-115615673D02*
X147965673Y-117600000D01*
X185009979Y-112175000D02*
X185034979Y-112150000D01*
X183650000Y-112175000D02*
X185009979Y-112175000D01*
X183650000Y-113675000D02*
X185025000Y-113675000D01*
X185025000Y-113675000D02*
X185050000Y-113650000D01*
X166750000Y-113575000D02*
X168125000Y-113575000D01*
X167775000Y-112075000D02*
X167800000Y-112050000D01*
X166750000Y-112075000D02*
X167775000Y-112075000D01*
X176950000Y-116950000D02*
X177700000Y-117700000D01*
X184450000Y-115465685D02*
X184450000Y-116800000D01*
X177700000Y-117700000D02*
X183550000Y-117700000D01*
X183550000Y-117700000D02*
X184450000Y-116800000D01*
X184450000Y-114900000D02*
X184450000Y-115465685D01*
X166850000Y-114850000D02*
X166850000Y-115615673D01*
X164865673Y-117600000D02*
X160893132Y-117600000D01*
X160466932Y-117173800D02*
X160066933Y-116773801D01*
X160893132Y-117600000D02*
X160466932Y-117173800D01*
X166850000Y-115615673D02*
X164865673Y-117600000D01*
X180025000Y-112750000D02*
X180025000Y-114468330D01*
X180025000Y-114468330D02*
X179943318Y-114550012D01*
X170350000Y-113450000D02*
X170929303Y-113450000D01*
X167850000Y-115984323D02*
X167850000Y-116550008D01*
X167850000Y-115950000D02*
X167850000Y-115984323D01*
X168550000Y-115350000D02*
X168449999Y-115350001D01*
X130550000Y-130875000D02*
X130550000Y-128750000D01*
X168449999Y-115350001D02*
X167850000Y-115950000D01*
X170929303Y-113450000D02*
X171494988Y-113450000D01*
X168449999Y-115350001D02*
X170350000Y-113450000D01*
D37*
X179450000Y-126650000D02*
X175450000Y-126650000D01*
X162550000Y-126550000D02*
X158550000Y-126550000D01*
X158550000Y-126550000D02*
X156800000Y-128300000D01*
X175450000Y-126650000D02*
X173800000Y-128300000D01*
X145650000Y-126550000D02*
X141650000Y-126550000D01*
X160000000Y-134500000D02*
X160700000Y-134500000D01*
X156900000Y-134200000D02*
X157200000Y-134500000D01*
X157200000Y-134500000D02*
X160000000Y-134500000D01*
X160700000Y-134500000D02*
X161700000Y-134500000D01*
X143000000Y-134500000D02*
X143700000Y-134500000D01*
X143000000Y-134500000D02*
X143000000Y-134500000D01*
X156800000Y-131800000D02*
X156800000Y-133500000D01*
X156800000Y-134100000D02*
X157200000Y-134500000D01*
X156800000Y-128300000D02*
X156800000Y-131800000D01*
X156800000Y-131800000D02*
X156800000Y-134100000D01*
X173800000Y-128300000D02*
X173800000Y-131900000D01*
X173800000Y-131900000D02*
X173800000Y-134100000D01*
X173800000Y-131900000D02*
X173800000Y-133500000D01*
X139900000Y-128300000D02*
X139900000Y-134200000D01*
X141650000Y-126550000D02*
X139900000Y-128300000D01*
D36*
X150955012Y-115944988D02*
X153100001Y-113799999D01*
X153100001Y-113799999D02*
X154000001Y-113799999D01*
X154000001Y-113799999D02*
X154400000Y-113400000D01*
X150955012Y-116550008D02*
X150955012Y-115944988D01*
D37*
X139900000Y-134200000D02*
X140200000Y-134500000D01*
X140200000Y-134500000D02*
X143000000Y-134500000D01*
X143700000Y-134500000D02*
X144700000Y-134500000D01*
X176900000Y-134400000D02*
X177600000Y-134400000D01*
X177600000Y-134400000D02*
X178600000Y-134400000D01*
X174100000Y-134400000D02*
X176900000Y-134400000D01*
X173800000Y-134100000D02*
X174100000Y-134400000D01*
D36*
X161625000Y-112650000D02*
X161625000Y-114425000D01*
D34*
X134050000Y-107250000D02*
X135000000Y-106300000D01*
X184900000Y-106300000D02*
X190750000Y-112150000D01*
X190750000Y-112150000D02*
X190750000Y-118684315D01*
X135000000Y-106300000D02*
X184900000Y-106300000D01*
X190750000Y-118684315D02*
X190750000Y-119250000D01*
D36*
X144350000Y-118350000D02*
X144350000Y-119340000D01*
X146650000Y-118350000D02*
X146650000Y-119120000D01*
X141650000Y-118350000D02*
X141650000Y-119320000D01*
X139150000Y-118350000D02*
X139150000Y-119340000D01*
X178150000Y-119440000D02*
X178140000Y-119450000D01*
X178150000Y-118450000D02*
X178150000Y-119440000D01*
X180450000Y-118450000D02*
X180450000Y-119220000D01*
X180450000Y-119220000D02*
X180680000Y-119450000D01*
X175450000Y-118450000D02*
X175450000Y-119420000D01*
X175450000Y-119420000D02*
X175480000Y-119450000D01*
X172950000Y-119440000D02*
X172940000Y-119450000D01*
X172950000Y-118450000D02*
X172950000Y-119440000D01*
X161250000Y-118350000D02*
X161250000Y-119340000D01*
X163550000Y-118350000D02*
X163550000Y-119120000D01*
X158550000Y-118350000D02*
X158550000Y-119320000D01*
X156050000Y-118350000D02*
X156050000Y-119340000D01*
X140069388Y-116850000D02*
X140416060Y-117196672D01*
X140416060Y-117196672D02*
X140816059Y-117596671D01*
X139150000Y-116850000D02*
X140069388Y-116850000D01*
X142550000Y-117750000D02*
X141650000Y-116850000D01*
X142950000Y-117750000D02*
X142550000Y-117750000D01*
X144350000Y-116850000D02*
X145319990Y-116850000D01*
X146650000Y-116850000D02*
X147650012Y-116850000D01*
X138060652Y-108191266D02*
X137494967Y-108191266D01*
X139920000Y-110050614D02*
X138060652Y-108191266D01*
X139920000Y-112140000D02*
X139920000Y-110050614D01*
X139420000Y-111023666D02*
X138049777Y-109653443D01*
X139420000Y-112140000D02*
X139420000Y-111023666D01*
X138049777Y-109653443D02*
X137649778Y-109253444D01*
X138920000Y-111521367D02*
X138052085Y-110653452D01*
X138920000Y-112140000D02*
X138920000Y-111521367D01*
X138052085Y-110653452D02*
X137652086Y-110253453D01*
X138420000Y-112015000D02*
X137754652Y-111349652D01*
X138420000Y-112140000D02*
X138420000Y-112015000D01*
X140575005Y-113424995D02*
X140575005Y-109253123D01*
X139650000Y-114350000D02*
X140575005Y-113424995D01*
X137750000Y-114350000D02*
X139650000Y-114350000D01*
X140575005Y-109253123D02*
X140175006Y-108853124D01*
X174375005Y-109353123D02*
X173975006Y-108953124D01*
X173450000Y-114450000D02*
X174375005Y-113524995D01*
X174375005Y-113524995D02*
X174375005Y-109353123D01*
X171550000Y-114450000D02*
X173450000Y-114450000D01*
X172220000Y-112240000D02*
X172220000Y-112115000D01*
X172220000Y-112115000D02*
X171554652Y-111449652D01*
X171554652Y-111449652D02*
X171422699Y-111449652D01*
X172720000Y-112240000D02*
X172720000Y-111720013D01*
X171849999Y-110850012D02*
X171450000Y-110450013D01*
X172720000Y-111720013D02*
X171849999Y-110850012D01*
X173220000Y-111220013D02*
X171849999Y-109850012D01*
X173220000Y-112240000D02*
X173220000Y-111220013D01*
X171849999Y-109850012D02*
X171450000Y-109450013D01*
X171780032Y-108690714D02*
X171380033Y-108290715D01*
X173720000Y-110630682D02*
X171780032Y-108690714D01*
X173720000Y-112240000D02*
X173720000Y-110630682D01*
X180450000Y-116950000D02*
X181450012Y-116950000D01*
X181450012Y-116950000D02*
X181600000Y-116800012D01*
X178150000Y-116950000D02*
X179119990Y-116950000D01*
X175600000Y-116950000D02*
X176598980Y-117948980D01*
X176598980Y-117948980D02*
X176904582Y-117948980D01*
X175450000Y-116950000D02*
X175600000Y-116950000D01*
X172950000Y-116950000D02*
X173867004Y-116950000D01*
X174217546Y-117300542D02*
X174617545Y-117700541D01*
X173867004Y-116950000D02*
X174217546Y-117300542D01*
X156550000Y-114350000D02*
X157475005Y-113424995D01*
X154650000Y-114350000D02*
X156550000Y-114350000D01*
X157475005Y-113424995D02*
X157475005Y-109253123D01*
X157475005Y-109253123D02*
X157075006Y-108853124D01*
X155320000Y-112015000D02*
X154654652Y-111349652D01*
X155320000Y-112140000D02*
X155320000Y-112015000D01*
X155015020Y-110621495D02*
X154615021Y-110221496D01*
X155820000Y-112140000D02*
X155820000Y-111426475D01*
X155820000Y-111426475D02*
X155015020Y-110621495D01*
X155015020Y-109607828D02*
X154615021Y-109207829D01*
X156320000Y-110912808D02*
X155015020Y-109607828D01*
X156320000Y-112140000D02*
X156320000Y-110912808D01*
X156820000Y-109912934D02*
X155088303Y-108181237D01*
X156820000Y-112140000D02*
X156820000Y-109912934D01*
X155088303Y-108181237D02*
X154522618Y-108181237D01*
X163550000Y-116850000D02*
X164550012Y-116850000D01*
X161250000Y-116850000D02*
X162219990Y-116850000D01*
X159450000Y-117750000D02*
X158550000Y-116850000D01*
X159850000Y-117750000D02*
X159450000Y-117750000D01*
X157316060Y-117196672D02*
X157716059Y-117596671D01*
X156969388Y-116850000D02*
X157316060Y-117196672D01*
X156050000Y-116850000D02*
X156969388Y-116850000D01*
X163125000Y-112650000D02*
X163125000Y-114368330D01*
X149850000Y-113575000D02*
X151225000Y-113575000D01*
X149875000Y-112050000D02*
X151000000Y-112050000D01*
X144725000Y-112650000D02*
X144725000Y-114425000D01*
X146225000Y-112650000D02*
X146225000Y-114368330D01*
X142775000Y-112650000D02*
X142775000Y-114425002D01*
X178525000Y-114525000D02*
X178550000Y-114550000D01*
X178525000Y-112750000D02*
X178525000Y-114525000D01*
X176575000Y-114525002D02*
X176550000Y-114550002D01*
X176575000Y-112750000D02*
X176575000Y-114525002D01*
X159675000Y-112650000D02*
X159675000Y-114425002D01*
X189496541Y-120288631D02*
X189496541Y-120854316D01*
X189496541Y-115096541D02*
X189496541Y-120288631D01*
X189050000Y-114650000D02*
X189496541Y-115096541D01*
X188350000Y-118150000D02*
X188350000Y-120529720D01*
X188350000Y-120529720D02*
X188510144Y-120689864D01*
X177950000Y-107850000D02*
X178050000Y-107950000D01*
X176539988Y-107850000D02*
X177950000Y-107850000D01*
X187500001Y-124000001D02*
X187900000Y-124400000D01*
X159639988Y-107750000D02*
X161050000Y-107750000D01*
X161050000Y-107750000D02*
X161050000Y-107750000D01*
X169150000Y-122950000D02*
X186450000Y-122950000D01*
X186450000Y-122950000D02*
X187500001Y-124000001D01*
X188750000Y-124250000D02*
X188884315Y-124250000D01*
X171889989Y-121939989D02*
X186439989Y-121939989D01*
X169150000Y-120250000D02*
X170200000Y-120250000D01*
X170200000Y-120250000D02*
X171889989Y-121939989D01*
X188884315Y-124250000D02*
X189450000Y-124250000D01*
X186439989Y-121939989D02*
X188750000Y-124250000D01*
X169150000Y-117550000D02*
X169300000Y-117550000D01*
X169300000Y-117550000D02*
X173200000Y-121450000D01*
X186947036Y-121450000D02*
X188398519Y-122901483D01*
X188398519Y-122901483D02*
X188798518Y-123301482D01*
X173200000Y-121450000D02*
X186947036Y-121450000D01*
X152400000Y-117550000D02*
X158549999Y-123699999D01*
X152250000Y-117550000D02*
X152400000Y-117550000D01*
X185234315Y-123699999D02*
X185800000Y-123699999D01*
X158549999Y-123699999D02*
X185234315Y-123699999D01*
X185800000Y-124900000D02*
X185700000Y-124800000D01*
X153950000Y-120250000D02*
X152250000Y-120250000D01*
X185700000Y-124800000D02*
X158500000Y-124800000D01*
X158500000Y-124800000D02*
X153950000Y-120250000D01*
X185044989Y-125244989D02*
X155154989Y-125244989D01*
X152860000Y-122950000D02*
X152250000Y-122950000D01*
X185800000Y-126000000D02*
X185044989Y-125244989D01*
X155154989Y-125244989D02*
X152860000Y-122950000D01*
X144200000Y-107700000D02*
X142600000Y-107700000D01*
X141250000Y-114250002D02*
X141250000Y-112675000D01*
X175050000Y-114350000D02*
X175050000Y-112775000D01*
X175250000Y-114550000D02*
X175050000Y-114350000D01*
X175050000Y-112775000D02*
X175075000Y-112750000D01*
X158150000Y-114250002D02*
X158150000Y-112675000D01*
X158350000Y-114450002D02*
X158150000Y-114250002D01*
X158150000Y-112675000D02*
X158175000Y-112650000D01*
X133750000Y-82910000D02*
X133750000Y-84700000D01*
X138250000Y-84700000D02*
X133750000Y-84700000D01*
X133750000Y-84700000D02*
X129675000Y-84700000D01*
X138050000Y-71600000D02*
X142450000Y-71600000D01*
X138050000Y-74600000D02*
X138050000Y-71600000D01*
X112150000Y-82190000D02*
X112150000Y-83800000D01*
X113940000Y-80400000D02*
X112150000Y-82190000D01*
X151475000Y-78600000D02*
X151475000Y-79944639D01*
X114450000Y-80900000D02*
X114450000Y-80400000D01*
X116850000Y-78510000D02*
X116850000Y-73700000D01*
X114960000Y-80400000D02*
X116850000Y-78510000D01*
X151450000Y-78575000D02*
X151475000Y-78600000D01*
X114450000Y-80400000D02*
X114960000Y-80400000D01*
X114450000Y-80400000D02*
X113940000Y-80400000D01*
X151450000Y-77200000D02*
X151450000Y-78575000D01*
X151475000Y-79944639D02*
X151434372Y-79985267D01*
X166050000Y-96710000D02*
X166050000Y-95900000D01*
X117309560Y-90300000D02*
X117477275Y-90467715D01*
X151740000Y-76300000D02*
X154850000Y-76300000D01*
X165560000Y-97200000D02*
X166050000Y-96710000D01*
X151450000Y-77200000D02*
X151450000Y-76590000D01*
X154850000Y-76300000D02*
X155550000Y-77000000D01*
X161640000Y-97200000D02*
X165560000Y-97200000D01*
D38*
X161640000Y-97200000D02*
X161640000Y-99840000D01*
X161640000Y-99840000D02*
X161650000Y-99850000D01*
D36*
X114350000Y-90300000D02*
X117309560Y-90300000D01*
X151450000Y-76590000D02*
X151740000Y-76300000D01*
X160940000Y-94550000D02*
X160650000Y-94260000D01*
X161400000Y-94550000D02*
X161400000Y-95560000D01*
X161650000Y-100415685D02*
X161650000Y-99850000D01*
X161650000Y-100835000D02*
X161650000Y-100415685D01*
X161400000Y-95560000D02*
X161640000Y-95800000D01*
X163265000Y-102450000D02*
X161650000Y-100835000D01*
X160650000Y-93340000D02*
X160460000Y-93150000D01*
X167084315Y-92650000D02*
X167650000Y-92650000D01*
X167650000Y-90900000D02*
X167650000Y-92650000D01*
X164000000Y-91525000D02*
X164000000Y-91150000D01*
X164000000Y-91150000D02*
X164850000Y-90300000D01*
X160650000Y-94260000D02*
X160650000Y-93340000D01*
X164000000Y-91525000D02*
X164000000Y-91900000D01*
X163550000Y-85644994D02*
X163549996Y-85644990D01*
X163949995Y-86044989D02*
X163549996Y-85644990D01*
X161400000Y-94550000D02*
X160940000Y-94550000D01*
X164750000Y-92650000D02*
X167084315Y-92650000D01*
X164850000Y-86944994D02*
X163949995Y-86044989D01*
X164850000Y-90300000D02*
X164850000Y-86944994D01*
X144850000Y-93400000D02*
X146525000Y-93400000D01*
X166050000Y-95900000D02*
X167500000Y-95900000D01*
X143900000Y-94350000D02*
X144850000Y-93400000D01*
X163550000Y-85900000D02*
X163550000Y-85644994D01*
X167650000Y-95750000D02*
X167650000Y-95125000D01*
X167500000Y-95900000D02*
X167650000Y-95750000D01*
X160460000Y-93150000D02*
X159900000Y-93150000D01*
X168750000Y-94635000D02*
X168750000Y-94574970D01*
X167650000Y-95125000D02*
X168260000Y-95125000D01*
X168260000Y-95125000D02*
X168750000Y-94635000D01*
D38*
X160050000Y-95800000D02*
X161640000Y-95800000D01*
D36*
X164000000Y-91900000D02*
X164750000Y-92650000D01*
X161640000Y-95800000D02*
X161640000Y-97200000D01*
X163825000Y-102450000D02*
X163265000Y-102450000D01*
X160050000Y-71600000D02*
X160550000Y-72100000D01*
X160550000Y-72100000D02*
X160550000Y-72700000D01*
X162350000Y-75400000D02*
X162350000Y-72700000D01*
X179825000Y-77900000D02*
X179825000Y-85390000D01*
X173425000Y-102150000D02*
X185200000Y-102150000D01*
X194010000Y-89000000D02*
X190050000Y-92960000D01*
X170150000Y-94574970D02*
X170150000Y-91600000D01*
X188500000Y-72800000D02*
X188500000Y-75870000D01*
X179100000Y-87100000D02*
X179100000Y-86725000D01*
X178994999Y-86994999D02*
X175955001Y-86994999D01*
X175950000Y-83840000D02*
X175710000Y-83600000D01*
X175955001Y-86994999D02*
X175950000Y-87000000D01*
X168750000Y-94574970D02*
X170150000Y-94574970D01*
X179100000Y-87900000D02*
X179100000Y-87100000D01*
X175710000Y-83600000D02*
X175000000Y-83600000D01*
X179100000Y-87100000D02*
X178994999Y-86994999D01*
X179100000Y-86725000D02*
X179825000Y-86000000D01*
X171950000Y-75200000D02*
X171950000Y-72700000D01*
X188500000Y-75870000D02*
X194010000Y-81380000D01*
X175000000Y-73250000D02*
X175000000Y-72750000D01*
X175950000Y-87900000D02*
X175950000Y-87000000D01*
X175950000Y-87000000D02*
X175950000Y-83840000D01*
X179825000Y-85390000D02*
X179825000Y-86000000D01*
X182400000Y-75325000D02*
X179825000Y-77900000D01*
X182450000Y-75325000D02*
X182400000Y-75325000D01*
X182450000Y-72700000D02*
X182450000Y-75325000D01*
X185200000Y-102150000D02*
X190050000Y-97300000D01*
X190050000Y-92960000D02*
X190050000Y-96000000D01*
X175000000Y-72750000D02*
X174950000Y-72700000D01*
X116850000Y-73700000D02*
X118950000Y-71600000D01*
X190050000Y-97300000D02*
X190050000Y-96000000D01*
X138250000Y-83806400D02*
X138250000Y-84090000D01*
X131250000Y-82910000D02*
X130040000Y-82910000D01*
X132460000Y-77830000D02*
X133850000Y-77830000D01*
X156050000Y-99600000D02*
X156550000Y-99100000D01*
X167244990Y-83784379D02*
X167244990Y-84350064D01*
X147650000Y-92225000D02*
X147650000Y-92105010D01*
X137768600Y-77830000D02*
X136558600Y-77830000D01*
X129575000Y-84190000D02*
X129575000Y-84800000D01*
X138250000Y-84090000D02*
X138250000Y-84700000D01*
X129675000Y-84700000D02*
X129575000Y-84800000D01*
X138050000Y-74600000D02*
X138050000Y-76900000D01*
X133850000Y-77830000D02*
X136558600Y-77830000D01*
X167244990Y-79394990D02*
X167244990Y-83784379D01*
X160550000Y-72700000D02*
X167244990Y-79394990D01*
X156550000Y-98000000D02*
X158750000Y-95800000D01*
X144050000Y-77000000D02*
X140850000Y-77000000D01*
X173125000Y-102450000D02*
X173425000Y-102150000D01*
X138050000Y-77548600D02*
X137768600Y-77830000D01*
X133750000Y-82910000D02*
X133750000Y-77930000D01*
X138050000Y-76900000D02*
X138050000Y-77548600D01*
X129575000Y-83375000D02*
X129575000Y-84190000D01*
X142450000Y-77000000D02*
X142450000Y-76540000D01*
X137353600Y-82910000D02*
X138250000Y-83806400D01*
X130040000Y-82910000D02*
X129575000Y-83375000D01*
D34*
X156550000Y-99500000D02*
X156065001Y-99500000D01*
D36*
X158750000Y-95800000D02*
X160050000Y-95800000D01*
X133750000Y-77930000D02*
X133850000Y-77830000D01*
X156550000Y-99100000D02*
X156550000Y-98000000D01*
X173125000Y-102950000D02*
X173125000Y-102450000D01*
X136558600Y-82910000D02*
X137353600Y-82910000D01*
X142450000Y-76540000D02*
X142450000Y-71600000D01*
X146525000Y-93350000D02*
X147650000Y-92225000D01*
X146525000Y-93400000D02*
X146525000Y-93350000D01*
X142450000Y-71600000D02*
X160050000Y-71600000D01*
X131250000Y-77830000D02*
X132460000Y-77830000D01*
X124450000Y-73000000D02*
X124450000Y-71600000D01*
X129725000Y-74600000D02*
X126050000Y-74600000D01*
X118950000Y-71600000D02*
X124450000Y-71600000D01*
X124450000Y-71600000D02*
X138050000Y-71600000D01*
X126050000Y-74600000D02*
X124450000Y-73000000D01*
X129725000Y-74600000D02*
X129725000Y-77515000D01*
X130040000Y-77830000D02*
X131250000Y-77830000D01*
X129725000Y-77515000D02*
X130040000Y-77830000D01*
X167650000Y-93625000D02*
X164225000Y-93625000D01*
X164225000Y-93625000D02*
X164150000Y-93700000D01*
X149975000Y-78600000D02*
X148925795Y-78600000D01*
X161400000Y-93150000D02*
X163600000Y-93150000D01*
D34*
X114450000Y-79100000D02*
X114450000Y-78534315D01*
D36*
X148925795Y-78600000D02*
X148855010Y-78529215D01*
X151570168Y-75889989D02*
X149975000Y-77485157D01*
X148025000Y-93400000D02*
X148550000Y-93400000D01*
X155483393Y-75889989D02*
X151570168Y-75889989D01*
X156550000Y-77500000D02*
X156550000Y-76956596D01*
X160050000Y-77500000D02*
X166150000Y-83600000D01*
X156550000Y-76956596D02*
X155483393Y-75889989D01*
X114450000Y-88500000D02*
X114450000Y-86900000D01*
D34*
X112050000Y-86600000D02*
X114450000Y-86600000D01*
X112515685Y-76600000D02*
X110550000Y-76600000D01*
D36*
X114450000Y-86900000D02*
X114450000Y-86600000D01*
X114350000Y-88600000D02*
X114450000Y-88500000D01*
X148550000Y-93400000D02*
X149050000Y-92900000D01*
X149975000Y-77990000D02*
X149975000Y-78600000D01*
X149975000Y-81719990D02*
X150055010Y-81800000D01*
X156550000Y-77500000D02*
X160050000Y-77500000D01*
X156550000Y-78600000D02*
X156550000Y-77500000D01*
X166150000Y-83600000D02*
X166150000Y-85700000D01*
X166150000Y-85700000D02*
X165950000Y-85900000D01*
X161050000Y-93100004D02*
X161049996Y-93100000D01*
X161050000Y-93150000D02*
X161050000Y-93100004D01*
X149975000Y-78600000D02*
X149975000Y-81719990D01*
X149050000Y-92900000D02*
X149050000Y-92400000D01*
X165950000Y-85900000D02*
X165250000Y-85900000D01*
D34*
X109950000Y-84500000D02*
X112050000Y-86600000D01*
X109950000Y-77200000D02*
X109950000Y-84500000D01*
X114450000Y-78534315D02*
X112515685Y-76600000D01*
X110550000Y-76600000D02*
X109950000Y-77200000D01*
D36*
X149975000Y-77485157D02*
X149975000Y-77990000D01*
X163600000Y-93150000D02*
X164150000Y-93700000D01*
X114450000Y-86600000D02*
X114450000Y-86400000D01*
X176450000Y-75200000D02*
X174950000Y-75200000D01*
X169050000Y-92275000D02*
X169050000Y-90794990D01*
X167950000Y-85200000D02*
X167950000Y-76600000D01*
X174950000Y-75200000D02*
X171450000Y-78700000D01*
X167700000Y-93625000D02*
X169050000Y-92275000D01*
X186850000Y-75300000D02*
X186850000Y-80475000D01*
X186850000Y-80475000D02*
X181325000Y-86000000D01*
X181325000Y-87875000D02*
X181300000Y-87900000D01*
X148950000Y-99165685D02*
X148950000Y-99600000D01*
X144700000Y-98620000D02*
X144700000Y-94600000D01*
X148025000Y-93825000D02*
X148025000Y-93400000D01*
X168049999Y-89794989D02*
X167650000Y-89394990D01*
X157500000Y-79600000D02*
X157500000Y-79799998D01*
X149650000Y-100450000D02*
X152300010Y-100450000D01*
X148950000Y-99600000D02*
X148950000Y-99750000D01*
X145020000Y-99600000D02*
X147950000Y-99600000D01*
X156550000Y-78600000D02*
X156550000Y-78650000D01*
X148950000Y-99750000D02*
X149650000Y-100450000D01*
X156550000Y-78650000D02*
X157500000Y-79600000D01*
X145020000Y-98940000D02*
X144700000Y-98620000D01*
X145100000Y-94200000D02*
X147650000Y-94200000D01*
X147650000Y-94200000D02*
X148025000Y-93825000D01*
X165250000Y-85900000D02*
X165250000Y-86360000D01*
X165650000Y-89320000D02*
X167575010Y-89320000D01*
X165250000Y-86360000D02*
X167650000Y-88760000D01*
X167575010Y-89320000D02*
X167650000Y-89394990D01*
X145020000Y-99600000D02*
X145020000Y-98940000D01*
X169050000Y-90794990D02*
X168049999Y-89794989D01*
X167650000Y-88760000D02*
X167650000Y-88829305D01*
X166750000Y-75400000D02*
X166750000Y-71800000D01*
X165250000Y-85900000D02*
X167250000Y-85900000D01*
X167950000Y-76600000D02*
X166750000Y-75400000D01*
X167250000Y-85900000D02*
X167950000Y-85200000D01*
X186850000Y-71800000D02*
X186850000Y-75300000D01*
X171450000Y-79690000D02*
X171450000Y-80300000D01*
X148950000Y-98600000D02*
X148950000Y-99165685D01*
X147950000Y-99600000D02*
X148950000Y-99600000D01*
X167650000Y-88829305D02*
X167650000Y-89394990D01*
X167650000Y-93625000D02*
X167700000Y-93625000D01*
X176450000Y-71800000D02*
X176450000Y-75200000D01*
X171450000Y-78700000D02*
X171450000Y-79690000D01*
X144700000Y-94600000D02*
X145100000Y-94200000D01*
X139750000Y-85310000D02*
X139460000Y-85600000D01*
X139750000Y-82986400D02*
X137768600Y-81005000D01*
X157050000Y-100500000D02*
X157050000Y-99714193D01*
X156700001Y-100849999D02*
X157050000Y-100500000D01*
X131225000Y-74600000D02*
X131225000Y-74550000D01*
X126815685Y-73100000D02*
X126250000Y-73100000D01*
X129775000Y-73100000D02*
X126815685Y-73100000D01*
X131225000Y-74600000D02*
X131225000Y-77170000D01*
X186150000Y-93000000D02*
X186050000Y-93100000D01*
X181300000Y-89450000D02*
X181250000Y-89500000D01*
D34*
X134950000Y-91570695D02*
X134950000Y-91005010D01*
D36*
X130040000Y-81005000D02*
X131250000Y-81005000D01*
X186150000Y-90100000D02*
X186950000Y-90100000D01*
X137768600Y-81005000D02*
X136558600Y-81005000D01*
X136550000Y-77186400D02*
X136558600Y-77195000D01*
X187550000Y-81175000D02*
X186850000Y-80475000D01*
X175350000Y-90000000D02*
X175750000Y-90000000D01*
X139750000Y-84700000D02*
X139750000Y-85310000D01*
D34*
X141150000Y-99600000D02*
X145020000Y-99600000D01*
D36*
X175750000Y-90000000D02*
X176850000Y-91100000D01*
X183520000Y-93390000D02*
X181440000Y-93390000D01*
X187550000Y-89500000D02*
X187550000Y-81175000D01*
X136550000Y-74600000D02*
X136550000Y-77186400D01*
X181440000Y-93390000D02*
X181150000Y-93100000D01*
X136550000Y-74600000D02*
X131225000Y-74600000D01*
D34*
X134950000Y-97300000D02*
X134950000Y-91570695D01*
D36*
X138850000Y-83300000D02*
X139750000Y-83300000D01*
X139750000Y-83300000D02*
X139750000Y-82986400D01*
X181300000Y-87900000D02*
X181300000Y-89450000D01*
D34*
X141150000Y-99600000D02*
X137250000Y-99600000D01*
D36*
X186950000Y-90100000D02*
X187550000Y-89500000D01*
X139460000Y-85600000D02*
X128550000Y-85600000D01*
X131225000Y-77170000D02*
X131250000Y-77195000D01*
X152700009Y-100849999D02*
X156700001Y-100849999D01*
X152300010Y-100450000D02*
X152700009Y-100849999D01*
X158839964Y-99300000D02*
X159234841Y-99694877D01*
X159234841Y-99694877D02*
X159634840Y-100094876D01*
X157464193Y-99300000D02*
X158839964Y-99300000D01*
X128550000Y-85600000D02*
X128075000Y-85125000D01*
X157050000Y-99714193D02*
X157464193Y-99300000D01*
X128075000Y-82970000D02*
X130040000Y-81005000D01*
X186150000Y-90100000D02*
X186150000Y-93000000D01*
X181325000Y-86000000D02*
X181325000Y-87875000D01*
X128075000Y-84800000D02*
X128075000Y-82970000D01*
X128075000Y-85125000D02*
X128075000Y-84800000D01*
X139750000Y-84700000D02*
X139750000Y-83300000D01*
D34*
X137250000Y-99600000D02*
X134950000Y-97300000D01*
D36*
X131225000Y-74550000D02*
X129775000Y-73100000D01*
X151050000Y-91400000D02*
X153800000Y-88650000D01*
X121250000Y-83400002D02*
X123860009Y-86010011D01*
X153800000Y-88650000D02*
X162234311Y-88650000D01*
X140019573Y-86010011D02*
X145409562Y-91400000D01*
X162234311Y-88650000D02*
X162799996Y-88650000D01*
X123860009Y-86010011D02*
X140019573Y-86010011D01*
X145409562Y-91400000D02*
X151050000Y-91400000D01*
X162449995Y-84744991D02*
X162049996Y-85144990D01*
X162794986Y-84400000D02*
X162449995Y-84744991D01*
X163550000Y-84400000D02*
X165250000Y-84400000D01*
X163550000Y-84400000D02*
X162794986Y-84400000D01*
X169103370Y-82300000D02*
X168855045Y-82051675D01*
X173450000Y-82300000D02*
X169103370Y-82300000D01*
X120329847Y-90300006D02*
X142683464Y-90300006D01*
X142693366Y-90309908D02*
X143259051Y-90309908D01*
X142683464Y-90300006D02*
X142693366Y-90309908D01*
X115429841Y-85400000D02*
X120329847Y-90300006D01*
X114450000Y-85400000D02*
X115429841Y-85400000D01*
X114450000Y-84900000D02*
X115509684Y-84900000D01*
X115509684Y-84900000D02*
X120181496Y-89571812D01*
X142018653Y-89571812D02*
X142584338Y-89571812D01*
X120181496Y-89571812D02*
X142018653Y-89571812D01*
X120194413Y-88844414D02*
X141291255Y-88844414D01*
X114450000Y-84400000D02*
X115749999Y-84400000D01*
X115749999Y-84400000D02*
X120194413Y-88844414D01*
X141291255Y-88844414D02*
X141856940Y-88844414D01*
X114450000Y-82900000D02*
X117350000Y-82900000D01*
X139717920Y-86564956D02*
X141078758Y-87925794D01*
X141078758Y-87925794D02*
X141078758Y-88066232D01*
X117350000Y-82900000D02*
X121014956Y-86564956D01*
X121014956Y-86564956D02*
X139717920Y-86564956D01*
X116650000Y-83400000D02*
X120550000Y-87300000D01*
X114450000Y-83400000D02*
X116650000Y-83400000D01*
X120550000Y-87300000D02*
X138584315Y-87300000D01*
X138584315Y-87300000D02*
X139150000Y-87300000D01*
X139944999Y-88005001D02*
X140050000Y-87900000D01*
X115829842Y-83900000D02*
X119934843Y-88005001D01*
X119934843Y-88005001D02*
X139944999Y-88005001D01*
X114450000Y-83900000D02*
X115829842Y-83900000D01*
X156750000Y-73000000D02*
X158650000Y-73000000D01*
X154750000Y-73000000D02*
X154750000Y-72305010D01*
X152750000Y-73000000D02*
X151350000Y-73000000D01*
X172950000Y-81600000D02*
X172944990Y-81594990D01*
X172944990Y-81594990D02*
X174055010Y-81594990D01*
X175000000Y-80650000D02*
X175000000Y-79539980D01*
X172944990Y-81594990D02*
X170315685Y-81594990D01*
X172950000Y-81589980D02*
X172950000Y-80300000D01*
X174055010Y-81594990D02*
X175000000Y-80650000D01*
X170315685Y-81594990D02*
X169750000Y-81594990D01*
X172944990Y-81594990D02*
X172950000Y-81589980D01*
X175000000Y-79539980D02*
X175000000Y-77400000D01*
X147029978Y-81474968D02*
X150050001Y-84494991D01*
X150050001Y-84494991D02*
X150450000Y-84894990D01*
X149650000Y-74500000D02*
X147029978Y-77120022D01*
X152750000Y-74500000D02*
X149650000Y-74500000D01*
X147029978Y-77120022D02*
X147029978Y-81474968D01*
X153570033Y-75069967D02*
X154140000Y-74500000D01*
X150450000Y-83600000D02*
X149884315Y-83600000D01*
X147439989Y-77730168D02*
X150100190Y-75069967D01*
X147439989Y-81155674D02*
X147439989Y-77730168D01*
X154140000Y-74500000D02*
X154750000Y-74500000D01*
X150100190Y-75069967D02*
X153570033Y-75069967D01*
X149884315Y-83600000D02*
X147439989Y-81155674D01*
X153050000Y-83800000D02*
X151950000Y-82700000D01*
X147850000Y-80600000D02*
X147850000Y-77900000D01*
X150270022Y-75479978D02*
X155160022Y-75479978D01*
X155160022Y-75479978D02*
X156140000Y-74500000D01*
X147850000Y-77900000D02*
X150270022Y-75479978D01*
X149950000Y-82700000D02*
X147850000Y-80600000D01*
X151950000Y-82700000D02*
X149950000Y-82700000D01*
X156140000Y-74500000D02*
X156750000Y-74500000D01*
X148741886Y-94905010D02*
X151946902Y-91699994D01*
X151946902Y-91699994D02*
X152346901Y-91299995D01*
X145550000Y-94905010D02*
X148741886Y-94905010D01*
X185250000Y-92100000D02*
X185250000Y-94600000D01*
X158665681Y-90250000D02*
X158099996Y-90250000D01*
X162449851Y-90250000D02*
X158665681Y-90250000D01*
X162849867Y-90650016D02*
X162449851Y-90250000D01*
X158500000Y-91750000D02*
X158150000Y-91400000D01*
X162900000Y-91750000D02*
X158500000Y-91750000D01*
D38*
X150450000Y-95100000D02*
X152373122Y-95100000D01*
X152867818Y-95594696D02*
X153267817Y-95994695D01*
X152373122Y-95100000D02*
X152867818Y-95594696D01*
D36*
X153027772Y-97975007D02*
X150974997Y-97975007D01*
X150974997Y-97975007D02*
X150899990Y-97900000D01*
D38*
X165150000Y-100550441D02*
X165150000Y-100900000D01*
X169695431Y-96005010D02*
X165150000Y-100550441D01*
D36*
X165550000Y-100900000D02*
X165150000Y-100900000D01*
X168580000Y-100340000D02*
X168020000Y-100900000D01*
X168020000Y-100900000D02*
X165550000Y-100900000D01*
X170915685Y-83894990D02*
X170350000Y-83894990D01*
X172688373Y-83890730D02*
X170919945Y-83890730D01*
X173450000Y-100900000D02*
X173450000Y-84652357D01*
X170080000Y-100465000D02*
X170080000Y-100340000D01*
X173450000Y-100900000D02*
X170515000Y-100900000D01*
X170515000Y-100900000D02*
X170080000Y-100465000D01*
X170919945Y-83890730D02*
X170915685Y-83894990D01*
X173450000Y-84652357D02*
X172688373Y-83890730D01*
X164800000Y-101700000D02*
X164100000Y-101000000D01*
X164100000Y-100434315D02*
X164100000Y-101000000D01*
X169234315Y-95300000D02*
X164100000Y-100434315D01*
X169080000Y-100800000D02*
X168180000Y-101700000D01*
X168180000Y-101700000D02*
X164800000Y-101700000D01*
X169080000Y-100340000D02*
X169080000Y-100800000D01*
X170450000Y-95300000D02*
X169234315Y-95300000D01*
X174450000Y-100900000D02*
X174450000Y-84900000D01*
X174450000Y-100900000D02*
X174450000Y-101465685D01*
X174215685Y-101700000D02*
X170100000Y-101700000D01*
X174450000Y-101465685D02*
X174215685Y-101700000D01*
X169580000Y-101180000D02*
X169580000Y-100340000D01*
X170100000Y-101700000D02*
X169580000Y-101180000D01*
X174450000Y-84900000D02*
X172649991Y-83099991D01*
X172649991Y-83099991D02*
X169795063Y-83099991D01*
X169795063Y-83099991D02*
X169649999Y-83245055D01*
X169649999Y-83245055D02*
X169250000Y-83645054D01*
X154061297Y-98753703D02*
X154061297Y-92016135D01*
X154050000Y-99600000D02*
X154050000Y-98765000D01*
X154061297Y-92016135D02*
X153746910Y-91701748D01*
X153746910Y-91701748D02*
X153346911Y-91301749D01*
X154050000Y-98765000D02*
X154061297Y-98753703D01*
X154550000Y-99600000D02*
X154550000Y-91458197D01*
X154550000Y-91458197D02*
X154345781Y-91253978D01*
X155050000Y-91488032D02*
X155343995Y-91194037D01*
X155050000Y-99600000D02*
X155050000Y-91488032D01*
X155947263Y-91587805D02*
X156347262Y-91187806D01*
X155550000Y-91985068D02*
X155947263Y-91587805D01*
X155550000Y-99600000D02*
X155550000Y-91985068D01*
X129055010Y-91110020D02*
X128950000Y-91005010D01*
X129055010Y-97602476D02*
X129055010Y-91110020D01*
X127850000Y-80900000D02*
X127050000Y-81700000D01*
X127050000Y-81700000D02*
X127050000Y-84034313D01*
X127050000Y-84034313D02*
X127050000Y-84599998D01*
X175365021Y-91600000D02*
X175365021Y-97015021D01*
X182184315Y-100994990D02*
X182750000Y-100994990D01*
X179344990Y-100994990D02*
X182184315Y-100994990D01*
X175365021Y-97015021D02*
X179344990Y-100994990D01*
X172152443Y-85800000D02*
X172356723Y-85595720D01*
X169450000Y-85800000D02*
X172152443Y-85800000D01*
X172045703Y-84900000D02*
X172349972Y-84595731D01*
X168950000Y-84900000D02*
X172045703Y-84900000D01*
X172129396Y-86800000D02*
X172333924Y-86595472D01*
X169450000Y-86800000D02*
X172129396Y-86800000D01*
X172160331Y-87800000D02*
X172365341Y-87594990D01*
X169450000Y-87800000D02*
X172160331Y-87800000D01*
X164150000Y-95900000D02*
X162750000Y-95900000D01*
X162750000Y-95900000D02*
X162750000Y-94250004D01*
X162750000Y-94250004D02*
X162650000Y-94150004D01*
X163182570Y-89320000D02*
X162852562Y-89650008D01*
X164000000Y-89320000D02*
X163182570Y-89320000D01*
X137950000Y-97800000D02*
X137950000Y-91005010D01*
X123450000Y-94100008D02*
X125750000Y-91800008D01*
X125750000Y-91760675D02*
X125750000Y-91194990D01*
X125750000Y-91800008D02*
X125750000Y-91760675D01*
X126769551Y-91760675D02*
X126769551Y-91194990D01*
X124150000Y-95100000D02*
X126769551Y-92480449D01*
X126769551Y-92480449D02*
X126769551Y-91760675D01*
X183500000Y-92370000D02*
X183520000Y-92390000D01*
X182650000Y-96400000D02*
X184250000Y-94800000D01*
X183520000Y-92515000D02*
X183520000Y-92390000D01*
X184250000Y-93245000D02*
X183520000Y-92515000D01*
X184250000Y-94800000D02*
X184250000Y-93245000D01*
X183500000Y-87900000D02*
X183500000Y-92370000D01*
X180550000Y-96400000D02*
X182650000Y-96400000D01*
X182520000Y-91965997D02*
X182520000Y-92390000D01*
X178350000Y-95534315D02*
X178350000Y-96100000D01*
X180200000Y-87900000D02*
X180200000Y-91600000D01*
X180200000Y-91600000D02*
X178350000Y-93450000D01*
X182154002Y-91600000D02*
X182520000Y-91965997D01*
X178350000Y-93450000D02*
X178350000Y-95534315D01*
X180200000Y-91600000D02*
X182154002Y-91600000D01*
X180860000Y-92390000D02*
X182020000Y-92390000D01*
X179750000Y-93500000D02*
X180150000Y-93100000D01*
X180150000Y-93100000D02*
X180860000Y-92390000D01*
X178000000Y-88710000D02*
X178000000Y-87900000D01*
X178000000Y-92015685D02*
X178000000Y-88710000D01*
X176915685Y-93100000D02*
X178000000Y-92015685D01*
X179750000Y-95100000D02*
X179750000Y-93500000D01*
X176350000Y-93100000D02*
X176915685Y-93100000D01*
X183020000Y-91930000D02*
X183020000Y-92390000D01*
X182400000Y-87900000D02*
X182400000Y-89850000D01*
X182400000Y-89850000D02*
X183020000Y-90470000D01*
X181450000Y-90800000D02*
X183020000Y-90800000D01*
X179350000Y-90800000D02*
X179350000Y-91600000D01*
X176649999Y-94300001D02*
X176250000Y-94700000D01*
X179350000Y-91600000D02*
X176649999Y-94300001D01*
X183020000Y-90470000D02*
X183020000Y-90800000D01*
X183020000Y-90800000D02*
X183020000Y-91930000D01*
D38*
X153350000Y-97000000D02*
X151773420Y-97000000D01*
X151299989Y-96526569D02*
X150899990Y-96126570D01*
X151773420Y-97000000D02*
X151299989Y-96526569D01*
D36*
X152950000Y-77200000D02*
X152950000Y-79900000D01*
X152159550Y-80690450D02*
X152143415Y-80690450D01*
X152950000Y-79900000D02*
X152159550Y-80690450D01*
D38*
X158725000Y-100175000D02*
X158320695Y-100175000D01*
X160600000Y-102250000D02*
X160600000Y-102050000D01*
X160600000Y-102050000D02*
X158725000Y-100175000D01*
X158320695Y-100175000D02*
X157755010Y-100175000D01*
D36*
X176850000Y-87950000D02*
X176900000Y-87900000D01*
X176850000Y-89600000D02*
X176850000Y-87950000D01*
X184650000Y-90100000D02*
X184650000Y-87950000D01*
X184650000Y-87950000D02*
X184600000Y-87900000D01*
X130850001Y-98799993D02*
X131250000Y-98399994D01*
X115285000Y-85900000D02*
X118350000Y-88965000D01*
X114450000Y-85900000D02*
X115285000Y-85900000D01*
X118350000Y-88965000D02*
X118350000Y-94800000D01*
X118350000Y-94800000D02*
X122449999Y-98899999D01*
X122449999Y-98899999D02*
X130749995Y-98899999D01*
X169250000Y-103694990D02*
X174155010Y-103694990D01*
X169250000Y-102900000D02*
X169250000Y-103694990D01*
X139620988Y-103694990D02*
X164130010Y-103694990D01*
X164130010Y-103694990D02*
X165325000Y-102500000D01*
X165325000Y-102500000D02*
X165325000Y-102450000D01*
X130749995Y-98899999D02*
X130850001Y-98799993D01*
X168455010Y-103694990D02*
X169250000Y-103694990D01*
X164130010Y-103694990D02*
X168455010Y-103694990D01*
X137324002Y-100300000D02*
X137950000Y-100925998D01*
X169250000Y-99170000D02*
X169080000Y-99340000D01*
X137950000Y-102024002D02*
X139620988Y-103694990D01*
X174155010Y-103694990D02*
X174675000Y-103175000D01*
X131250000Y-98399994D02*
X133150006Y-100300000D01*
X133150006Y-100300000D02*
X137324002Y-100300000D01*
X169250000Y-98700000D02*
X169250000Y-99170000D01*
X137950000Y-100925998D02*
X137950000Y-102024002D01*
X168580000Y-99340000D02*
X170080000Y-99340000D01*
X131250000Y-79735000D02*
X119915000Y-79735000D01*
X119915000Y-79735000D02*
X117250000Y-82400000D01*
X117250000Y-82400000D02*
X114450000Y-82400000D01*
X116750000Y-81900000D02*
X114450000Y-81900000D01*
X131250000Y-79100000D02*
X119550000Y-79100000D01*
X119550000Y-79100000D02*
X116750000Y-81900000D01*
X115950000Y-81400000D02*
X114450000Y-81400000D01*
X131250000Y-78465000D02*
X118885000Y-78465000D01*
X118885000Y-78465000D02*
X115950000Y-81400000D01*
X144050000Y-87634315D02*
X146150000Y-89734315D01*
X146150000Y-89734315D02*
X146150000Y-90034315D01*
X143985000Y-79735000D02*
X144050000Y-79800000D01*
X146150000Y-90034315D02*
X146150000Y-90600000D01*
X144050000Y-78500000D02*
X143900000Y-78500000D01*
X136558600Y-79735000D02*
X143985000Y-79735000D01*
X144050000Y-78960000D02*
X144050000Y-78500000D01*
X144050000Y-79800000D02*
X144050000Y-87634315D01*
X144050000Y-79800000D02*
X144050000Y-78960000D01*
X142450000Y-78500000D02*
X142450000Y-78040000D01*
X142450000Y-78040000D02*
X142210000Y-77800000D01*
X145450000Y-88033595D02*
X146650868Y-89234463D01*
X142204999Y-77794999D02*
X138438601Y-77794999D01*
X144750000Y-77800000D02*
X145450000Y-78500000D01*
X145450000Y-78500000D02*
X145450000Y-88033595D01*
X138438601Y-77794999D02*
X137768600Y-78465000D01*
X137768600Y-78465000D02*
X136558600Y-78465000D01*
X146650868Y-89234463D02*
X147050867Y-89634462D01*
X142210000Y-77800000D02*
X144750000Y-77800000D01*
X142210000Y-77800000D02*
X142204999Y-77794999D01*
X139640000Y-79100000D02*
X137768600Y-79100000D01*
X140240000Y-78500000D02*
X139640000Y-79100000D01*
X137768600Y-79100000D02*
X136558600Y-79100000D01*
X140850000Y-85797036D02*
X144001483Y-88948519D01*
X144001483Y-88948519D02*
X144401482Y-89348518D01*
X140850000Y-78500000D02*
X140240000Y-78500000D01*
X140850000Y-80700000D02*
X140850000Y-85797036D01*
D34*
X153250000Y-99500000D02*
X153534999Y-99500000D01*
X150150000Y-99600000D02*
X150250000Y-99500000D01*
X150250000Y-99500000D02*
X153250000Y-99500000D01*
D36*
X153550000Y-99725000D02*
X153475000Y-99725000D01*
G04 #@! TD*
D39*
G36*
X133073000Y-106904101D02*
X133015000Y-107044126D01*
X133015000Y-107455874D01*
X133073000Y-107595899D01*
X133073000Y-107600000D01*
X133082667Y-107648601D01*
X133110197Y-107689803D01*
X133112547Y-107691373D01*
X133172569Y-107836280D01*
X133463720Y-108127431D01*
X133844126Y-108285000D01*
X134255874Y-108285000D01*
X134636280Y-108127431D01*
X134927431Y-107836280D01*
X135085000Y-107455874D01*
X135085000Y-107395867D01*
X135345868Y-107135000D01*
X136573000Y-107135000D01*
X136573000Y-107712506D01*
X136459967Y-107985392D01*
X136459967Y-108397140D01*
X136573000Y-108670026D01*
X136573000Y-112410000D01*
X136373711Y-112410000D01*
X136236280Y-112272569D01*
X135855874Y-112115000D01*
X135444126Y-112115000D01*
X135063720Y-112272569D01*
X134772569Y-112563720D01*
X134615000Y-112944126D01*
X134615000Y-113355874D01*
X134772569Y-113736280D01*
X135063720Y-114027431D01*
X135208627Y-114087453D01*
X135210197Y-114089803D01*
X135251399Y-114117333D01*
X135300000Y-114127000D01*
X135304101Y-114127000D01*
X135444126Y-114185000D01*
X135855874Y-114185000D01*
X135995899Y-114127000D01*
X136702560Y-114127000D01*
X136702560Y-114600000D01*
X136751843Y-114847765D01*
X136892191Y-115057809D01*
X137102235Y-115198157D01*
X137350000Y-115247440D01*
X138150000Y-115247440D01*
X138383399Y-115201014D01*
X138374166Y-116087417D01*
X138292191Y-116142191D01*
X138151843Y-116352235D01*
X138102560Y-116600000D01*
X138102560Y-117100000D01*
X138151843Y-117347765D01*
X138292191Y-117557809D01*
X138355334Y-117600000D01*
X138292191Y-117642191D01*
X138151843Y-117852235D01*
X138102560Y-118100000D01*
X138102560Y-118600000D01*
X138151843Y-118847765D01*
X138198706Y-118917900D01*
X138105000Y-119144126D01*
X138105000Y-119555874D01*
X138262569Y-119936280D01*
X138553720Y-120227431D01*
X138934126Y-120385000D01*
X139345874Y-120385000D01*
X139485899Y-120327000D01*
X141334101Y-120327000D01*
X141474126Y-120385000D01*
X141885874Y-120385000D01*
X142025899Y-120327000D01*
X143994101Y-120327000D01*
X144134126Y-120385000D01*
X144545874Y-120385000D01*
X144685899Y-120327000D01*
X146534101Y-120327000D01*
X146674126Y-120385000D01*
X147085874Y-120385000D01*
X147466280Y-120227431D01*
X147757431Y-119936280D01*
X147915000Y-119555874D01*
X147915000Y-119144126D01*
X147757431Y-118763720D01*
X147680230Y-118686519D01*
X147697440Y-118600000D01*
X147697440Y-118340000D01*
X147892792Y-118340000D01*
X147965673Y-118354497D01*
X148038554Y-118340000D01*
X148254407Y-118297064D01*
X148499183Y-118133510D01*
X148540469Y-118071721D01*
X149865000Y-116747191D01*
X149865000Y-116755884D01*
X150022569Y-117136290D01*
X150313720Y-117427441D01*
X150694126Y-117585010D01*
X151105874Y-117585010D01*
X151173000Y-117557206D01*
X151173000Y-122800000D01*
X151182667Y-122848601D01*
X151210197Y-122889803D01*
X151215000Y-122893012D01*
X151215000Y-123155874D01*
X151372569Y-123536280D01*
X151663720Y-123827431D01*
X152044126Y-123985000D01*
X152455874Y-123985000D01*
X152733491Y-123870008D01*
X154580195Y-125716713D01*
X154621479Y-125778499D01*
X154866255Y-125942053D01*
X155060917Y-125980774D01*
X155051399Y-125982667D01*
X155010197Y-126010197D01*
X154982667Y-126051399D01*
X154973000Y-126100000D01*
X154973000Y-128600000D01*
X154982667Y-128648601D01*
X155010197Y-128689803D01*
X155051399Y-128717333D01*
X155100000Y-128727000D01*
X155165000Y-128727000D01*
X155165001Y-131638965D01*
X155165000Y-131638970D01*
X155165000Y-133661031D01*
X155165001Y-133661035D01*
X155165001Y-133938966D01*
X155132969Y-134100000D01*
X155233594Y-134605874D01*
X155259865Y-134737945D01*
X155621232Y-135278769D01*
X155757748Y-135369986D01*
X155930012Y-135542250D01*
X156021231Y-135678769D01*
X156562055Y-136040136D01*
X157038969Y-136135000D01*
X157038970Y-136135000D01*
X157199999Y-136167031D01*
X157361029Y-136135000D01*
X161861031Y-136135000D01*
X162337945Y-136040136D01*
X162878769Y-135678769D01*
X163240136Y-135137945D01*
X163367031Y-134500000D01*
X163240136Y-133862055D01*
X162878769Y-133321231D01*
X162337945Y-132959864D01*
X161861031Y-132865000D01*
X158435000Y-132865000D01*
X158435000Y-130727000D01*
X158923835Y-130727000D01*
X158972119Y-130747000D01*
X159527881Y-130747000D01*
X159576165Y-130727000D01*
X161423835Y-130727000D01*
X161472119Y-130747000D01*
X162027881Y-130747000D01*
X162541337Y-130534320D01*
X162934320Y-130141337D01*
X163147000Y-129627881D01*
X163147000Y-129072119D01*
X163127000Y-129023835D01*
X163127000Y-128102259D01*
X163187945Y-128090136D01*
X163728769Y-127728769D01*
X164090136Y-127187945D01*
X164217031Y-126550000D01*
X164104643Y-125984989D01*
X171947924Y-125984989D01*
X171910197Y-126010197D01*
X171882667Y-126051399D01*
X171873000Y-126100000D01*
X171873000Y-128600000D01*
X171882667Y-128648601D01*
X171910197Y-128689803D01*
X171951399Y-128717333D01*
X172000000Y-128727000D01*
X172165000Y-128727000D01*
X172165001Y-131738965D01*
X172165000Y-131738970D01*
X172165000Y-133661031D01*
X172165001Y-133661035D01*
X172165001Y-133938966D01*
X172132969Y-134100000D01*
X172233594Y-134605874D01*
X172259865Y-134737945D01*
X172621232Y-135278769D01*
X172757748Y-135369986D01*
X172830012Y-135442250D01*
X172921231Y-135578769D01*
X173462055Y-135940136D01*
X173938969Y-136035000D01*
X173938970Y-136035000D01*
X174099999Y-136067031D01*
X174261029Y-136035000D01*
X178761031Y-136035000D01*
X179237945Y-135940136D01*
X179778769Y-135578769D01*
X180140136Y-135037945D01*
X180267031Y-134400000D01*
X180140136Y-133762055D01*
X179778769Y-133221231D01*
X179237945Y-132859864D01*
X178761031Y-132765000D01*
X175435000Y-132765000D01*
X175435000Y-130827000D01*
X175823835Y-130827000D01*
X175872119Y-130847000D01*
X176427881Y-130847000D01*
X176476165Y-130827000D01*
X178323835Y-130827000D01*
X178372119Y-130847000D01*
X178927881Y-130847000D01*
X179441337Y-130634320D01*
X179834320Y-130241337D01*
X180047000Y-129727881D01*
X180047000Y-129172119D01*
X179927000Y-128882413D01*
X179927000Y-128222150D01*
X180087945Y-128190136D01*
X180628769Y-127828769D01*
X180990136Y-127287945D01*
X181117031Y-126650000D01*
X180990136Y-126012055D01*
X180972051Y-125984989D01*
X184738472Y-125984989D01*
X184765000Y-126011517D01*
X184765000Y-126205874D01*
X184922569Y-126586280D01*
X185213720Y-126877431D01*
X185594126Y-127035000D01*
X186005874Y-127035000D01*
X186386280Y-126877431D01*
X186677431Y-126586280D01*
X186835000Y-126205874D01*
X186835000Y-125794126D01*
X186692459Y-125450000D01*
X186748275Y-125315246D01*
X186751399Y-125317333D01*
X186800000Y-125327000D01*
X187433390Y-125327000D01*
X187694126Y-125435000D01*
X188105874Y-125435000D01*
X188366610Y-125327000D01*
X189300000Y-125327000D01*
X189348601Y-125317333D01*
X189389803Y-125289803D01*
X189393012Y-125285000D01*
X189655874Y-125285000D01*
X190036280Y-125127431D01*
X190327431Y-124836280D01*
X190485000Y-124455874D01*
X190485000Y-124044126D01*
X190327431Y-123663720D01*
X190327000Y-123663289D01*
X190327000Y-121487568D01*
X190373972Y-121440596D01*
X190438710Y-121284305D01*
X191235118Y-120169334D01*
X191336280Y-120127431D01*
X191627431Y-119836280D01*
X191785000Y-119455874D01*
X191785000Y-119427000D01*
X193700000Y-119427000D01*
X193738779Y-119419287D01*
X194126131Y-119474760D01*
X194177612Y-119485000D01*
X199515001Y-119485000D01*
X199515000Y-138015000D01*
X109985000Y-138015000D01*
X109985000Y-136240266D01*
X110695000Y-136240266D01*
X110715000Y-136340813D01*
X110715000Y-136595113D01*
X110812316Y-136830055D01*
X110828591Y-136911875D01*
X110874938Y-136981238D01*
X110979138Y-137232799D01*
X111171676Y-137425337D01*
X111209028Y-137481238D01*
X111264929Y-137518590D01*
X111467201Y-137720862D01*
X111731479Y-137830330D01*
X111778391Y-137861675D01*
X111833727Y-137872682D01*
X112104887Y-137985000D01*
X112398389Y-137985000D01*
X112450000Y-137995266D01*
X112501611Y-137985000D01*
X112795113Y-137985000D01*
X113066273Y-137872682D01*
X113121609Y-137861675D01*
X113168521Y-137830330D01*
X113432799Y-137720862D01*
X113635071Y-137518590D01*
X113690972Y-137481238D01*
X113728324Y-137425337D01*
X113920862Y-137232799D01*
X114025062Y-136981238D01*
X114071409Y-136911875D01*
X114087684Y-136830055D01*
X114185000Y-136595113D01*
X114185000Y-136340813D01*
X114205000Y-136240266D01*
X195295000Y-136240266D01*
X195315000Y-136340813D01*
X195315000Y-136595113D01*
X195412316Y-136830055D01*
X195428591Y-136911875D01*
X195474938Y-136981238D01*
X195579138Y-137232799D01*
X195771676Y-137425337D01*
X195809028Y-137481238D01*
X195864929Y-137518590D01*
X196067201Y-137720862D01*
X196331479Y-137830330D01*
X196378391Y-137861675D01*
X196433727Y-137872682D01*
X196704887Y-137985000D01*
X196998389Y-137985000D01*
X197050000Y-137995266D01*
X197101611Y-137985000D01*
X197395113Y-137985000D01*
X197666273Y-137872682D01*
X197721609Y-137861675D01*
X197768521Y-137830330D01*
X198032799Y-137720862D01*
X198235071Y-137518590D01*
X198290972Y-137481238D01*
X198328324Y-137425337D01*
X198520862Y-137232799D01*
X198625062Y-136981238D01*
X198671409Y-136911875D01*
X198687684Y-136830055D01*
X198785000Y-136595113D01*
X198785000Y-136340813D01*
X198805000Y-136240266D01*
X198785000Y-136139719D01*
X198785000Y-135904887D01*
X198695134Y-135687931D01*
X198671409Y-135568657D01*
X198603846Y-135467542D01*
X198520862Y-135267201D01*
X198367526Y-135113865D01*
X198290972Y-134999294D01*
X198176401Y-134922740D01*
X198032799Y-134779138D01*
X197845176Y-134701422D01*
X197721609Y-134618857D01*
X197575851Y-134589864D01*
X197395113Y-134515000D01*
X197199483Y-134515000D01*
X197050000Y-134485266D01*
X196900517Y-134515000D01*
X196704887Y-134515000D01*
X196524149Y-134589864D01*
X196378391Y-134618857D01*
X196254824Y-134701422D01*
X196067201Y-134779138D01*
X195923599Y-134922740D01*
X195809028Y-134999294D01*
X195732474Y-135113865D01*
X195579138Y-135267201D01*
X195496154Y-135467542D01*
X195428591Y-135568657D01*
X195404866Y-135687931D01*
X195315000Y-135904887D01*
X195315000Y-136139719D01*
X195295000Y-136240266D01*
X114205000Y-136240266D01*
X114185000Y-136139719D01*
X114185000Y-135904887D01*
X114095134Y-135687931D01*
X114071409Y-135568657D01*
X114003846Y-135467542D01*
X113920862Y-135267201D01*
X113767526Y-135113865D01*
X113690972Y-134999294D01*
X113576401Y-134922740D01*
X113432799Y-134779138D01*
X113245176Y-134701422D01*
X113121609Y-134618857D01*
X112975851Y-134589864D01*
X112795113Y-134515000D01*
X112599483Y-134515000D01*
X112450000Y-134485266D01*
X112300517Y-134515000D01*
X112104887Y-134515000D01*
X111924149Y-134589864D01*
X111778391Y-134618857D01*
X111654824Y-134701422D01*
X111467201Y-134779138D01*
X111323599Y-134922740D01*
X111209028Y-134999294D01*
X111132474Y-135113865D01*
X110979138Y-135267201D01*
X110896154Y-135467542D01*
X110828591Y-135568657D01*
X110804866Y-135687931D01*
X110715000Y-135904887D01*
X110715000Y-136139719D01*
X110695000Y-136240266D01*
X109985000Y-136240266D01*
X109985000Y-130300000D01*
X114052560Y-130300000D01*
X114052560Y-132300000D01*
X114101843Y-132547765D01*
X114242191Y-132757809D01*
X114452235Y-132898157D01*
X114700000Y-132947440D01*
X116700000Y-132947440D01*
X116947765Y-132898157D01*
X117157809Y-132757809D01*
X117298157Y-132547765D01*
X117347440Y-132300000D01*
X117347440Y-130300000D01*
X117298157Y-130052235D01*
X117157809Y-129842191D01*
X117101166Y-129804343D01*
X120715000Y-129804343D01*
X120715000Y-130295657D01*
X120903018Y-130749571D01*
X121250429Y-131096982D01*
X121704343Y-131285000D01*
X122195657Y-131285000D01*
X122649571Y-131096982D01*
X122996982Y-130749571D01*
X123090002Y-130525000D01*
X129502560Y-130525000D01*
X129502560Y-131225000D01*
X129551843Y-131472765D01*
X129692191Y-131682809D01*
X129902235Y-131823157D01*
X130150000Y-131872440D01*
X130950000Y-131872440D01*
X131197765Y-131823157D01*
X131407809Y-131682809D01*
X131548157Y-131472765D01*
X131597440Y-131225000D01*
X131597440Y-130525000D01*
X131548157Y-130277235D01*
X131407809Y-130067191D01*
X131290000Y-129988473D01*
X131290000Y-129473711D01*
X131427431Y-129336280D01*
X131585000Y-128955874D01*
X131585000Y-128544126D01*
X131483880Y-128300000D01*
X138232969Y-128300000D01*
X138265000Y-128461030D01*
X138265001Y-134038966D01*
X138232969Y-134200000D01*
X138359865Y-134837945D01*
X138721232Y-135378769D01*
X138857748Y-135469986D01*
X138930012Y-135542250D01*
X139021231Y-135678769D01*
X139562055Y-136040136D01*
X140038969Y-136135000D01*
X140038970Y-136135000D01*
X140199999Y-136167031D01*
X140361029Y-136135000D01*
X144861031Y-136135000D01*
X145337945Y-136040136D01*
X145878769Y-135678769D01*
X146240136Y-135137945D01*
X146367031Y-134500000D01*
X146240136Y-133862055D01*
X145878769Y-133321231D01*
X145337945Y-132959864D01*
X144861031Y-132865000D01*
X141535000Y-132865000D01*
X141535000Y-130727000D01*
X142023835Y-130727000D01*
X142072119Y-130747000D01*
X142627881Y-130747000D01*
X142676165Y-130727000D01*
X144523835Y-130727000D01*
X144572119Y-130747000D01*
X145127881Y-130747000D01*
X145641337Y-130534320D01*
X146034320Y-130141337D01*
X146247000Y-129627881D01*
X146247000Y-129072119D01*
X146227000Y-129023835D01*
X146227000Y-128102259D01*
X146287945Y-128090136D01*
X146828769Y-127728769D01*
X147190136Y-127187945D01*
X147317031Y-126550000D01*
X147190136Y-125912055D01*
X146828769Y-125371231D01*
X146287945Y-125009864D01*
X145811031Y-124915000D01*
X141811031Y-124915000D01*
X141650000Y-124882969D01*
X141012054Y-125009864D01*
X140795596Y-125154497D01*
X140471231Y-125371231D01*
X140380014Y-125507748D01*
X138857750Y-127030012D01*
X138721231Y-127121231D01*
X138359864Y-127662056D01*
X138274714Y-128090136D01*
X138232969Y-128300000D01*
X131483880Y-128300000D01*
X131427431Y-128163720D01*
X131136280Y-127872569D01*
X130755874Y-127715000D01*
X130344126Y-127715000D01*
X129963720Y-127872569D01*
X129672569Y-128163720D01*
X129515000Y-128544126D01*
X129515000Y-128955874D01*
X129672569Y-129336280D01*
X129810001Y-129473712D01*
X129810000Y-129988473D01*
X129692191Y-130067191D01*
X129551843Y-130277235D01*
X129502560Y-130525000D01*
X123090002Y-130525000D01*
X123185000Y-130295657D01*
X123185000Y-129804343D01*
X122996982Y-129350429D01*
X122649571Y-129003018D01*
X122195657Y-128815000D01*
X121704343Y-128815000D01*
X121250429Y-129003018D01*
X120903018Y-129350429D01*
X120715000Y-129804343D01*
X117101166Y-129804343D01*
X116947765Y-129701843D01*
X116700000Y-129652560D01*
X114700000Y-129652560D01*
X114452235Y-129701843D01*
X114242191Y-129842191D01*
X114101843Y-130052235D01*
X114052560Y-130300000D01*
X109985000Y-130300000D01*
X109985000Y-127304343D01*
X120715000Y-127304343D01*
X120715000Y-127795657D01*
X120903018Y-128249571D01*
X121250429Y-128596982D01*
X121704343Y-128785000D01*
X122195657Y-128785000D01*
X122649571Y-128596982D01*
X122996982Y-128249571D01*
X123185000Y-127795657D01*
X123185000Y-127304343D01*
X122996982Y-126850429D01*
X122649571Y-126503018D01*
X122195657Y-126315000D01*
X121704343Y-126315000D01*
X121250429Y-126503018D01*
X120903018Y-126850429D01*
X120715000Y-127304343D01*
X109985000Y-127304343D01*
X109985000Y-119485000D01*
X115322388Y-119485000D01*
X115349295Y-119479648D01*
X115600088Y-119461011D01*
X115673323Y-119444909D01*
X115747597Y-119434735D01*
X115756215Y-119432215D01*
X116299500Y-119269739D01*
X116390068Y-119227890D01*
X116481111Y-119187165D01*
X116488676Y-119182327D01*
X116964521Y-118873899D01*
X117039708Y-118808309D01*
X117115657Y-118743672D01*
X117121560Y-118736906D01*
X117491715Y-118307321D01*
X117545476Y-118223258D01*
X117600226Y-118139909D01*
X117603992Y-118131758D01*
X117838698Y-117615549D01*
X117866706Y-117519769D01*
X117895860Y-117424410D01*
X117897188Y-117415530D01*
X117974760Y-116873869D01*
X117985000Y-116822388D01*
X117985000Y-108250000D01*
X118195000Y-108250000D01*
X118215000Y-108350547D01*
X118215000Y-108595113D01*
X118308591Y-108821062D01*
X118328591Y-108921609D01*
X118385546Y-109006848D01*
X118479138Y-109232799D01*
X118652075Y-109405736D01*
X118709028Y-109490972D01*
X118794264Y-109547925D01*
X118967201Y-109720862D01*
X119193152Y-109814454D01*
X119278391Y-109871409D01*
X119378938Y-109891409D01*
X119604887Y-109985000D01*
X119849453Y-109985000D01*
X119950000Y-110005000D01*
X120050547Y-109985000D01*
X120295113Y-109985000D01*
X120521062Y-109891409D01*
X120621609Y-109871409D01*
X120706848Y-109814454D01*
X120932799Y-109720862D01*
X121105736Y-109547925D01*
X121190972Y-109490972D01*
X121247925Y-109405736D01*
X121420862Y-109232799D01*
X121514454Y-109006848D01*
X121571409Y-108921609D01*
X121591409Y-108821062D01*
X121685000Y-108595113D01*
X121685000Y-108350547D01*
X121705000Y-108250000D01*
X121685000Y-108149453D01*
X121685000Y-107904887D01*
X121591409Y-107678938D01*
X121571409Y-107578391D01*
X121514454Y-107493152D01*
X121420862Y-107267201D01*
X121247925Y-107094264D01*
X121190972Y-107009028D01*
X121105736Y-106952075D01*
X120932799Y-106779138D01*
X120706848Y-106685546D01*
X120621609Y-106628591D01*
X120521062Y-106608591D01*
X120295113Y-106515000D01*
X120050547Y-106515000D01*
X119950000Y-106495000D01*
X119849453Y-106515000D01*
X119604887Y-106515000D01*
X119378938Y-106608591D01*
X119278391Y-106628591D01*
X119193152Y-106685546D01*
X118967201Y-106779138D01*
X118794264Y-106952075D01*
X118709028Y-107009028D01*
X118652075Y-107094264D01*
X118479138Y-107267201D01*
X118385546Y-107493152D01*
X118328591Y-107578391D01*
X118308591Y-107678938D01*
X118215000Y-107904887D01*
X118215000Y-108149453D01*
X118195000Y-108250000D01*
X117985000Y-108250000D01*
X117985000Y-106485000D01*
X133073000Y-106485000D01*
X133073000Y-106904101D01*
X133073000Y-106904101D01*
G37*
X133073000Y-106904101D02*
X133015000Y-107044126D01*
X133015000Y-107455874D01*
X133073000Y-107595899D01*
X133073000Y-107600000D01*
X133082667Y-107648601D01*
X133110197Y-107689803D01*
X133112547Y-107691373D01*
X133172569Y-107836280D01*
X133463720Y-108127431D01*
X133844126Y-108285000D01*
X134255874Y-108285000D01*
X134636280Y-108127431D01*
X134927431Y-107836280D01*
X135085000Y-107455874D01*
X135085000Y-107395867D01*
X135345868Y-107135000D01*
X136573000Y-107135000D01*
X136573000Y-107712506D01*
X136459967Y-107985392D01*
X136459967Y-108397140D01*
X136573000Y-108670026D01*
X136573000Y-112410000D01*
X136373711Y-112410000D01*
X136236280Y-112272569D01*
X135855874Y-112115000D01*
X135444126Y-112115000D01*
X135063720Y-112272569D01*
X134772569Y-112563720D01*
X134615000Y-112944126D01*
X134615000Y-113355874D01*
X134772569Y-113736280D01*
X135063720Y-114027431D01*
X135208627Y-114087453D01*
X135210197Y-114089803D01*
X135251399Y-114117333D01*
X135300000Y-114127000D01*
X135304101Y-114127000D01*
X135444126Y-114185000D01*
X135855874Y-114185000D01*
X135995899Y-114127000D01*
X136702560Y-114127000D01*
X136702560Y-114600000D01*
X136751843Y-114847765D01*
X136892191Y-115057809D01*
X137102235Y-115198157D01*
X137350000Y-115247440D01*
X138150000Y-115247440D01*
X138383399Y-115201014D01*
X138374166Y-116087417D01*
X138292191Y-116142191D01*
X138151843Y-116352235D01*
X138102560Y-116600000D01*
X138102560Y-117100000D01*
X138151843Y-117347765D01*
X138292191Y-117557809D01*
X138355334Y-117600000D01*
X138292191Y-117642191D01*
X138151843Y-117852235D01*
X138102560Y-118100000D01*
X138102560Y-118600000D01*
X138151843Y-118847765D01*
X138198706Y-118917900D01*
X138105000Y-119144126D01*
X138105000Y-119555874D01*
X138262569Y-119936280D01*
X138553720Y-120227431D01*
X138934126Y-120385000D01*
X139345874Y-120385000D01*
X139485899Y-120327000D01*
X141334101Y-120327000D01*
X141474126Y-120385000D01*
X141885874Y-120385000D01*
X142025899Y-120327000D01*
X143994101Y-120327000D01*
X144134126Y-120385000D01*
X144545874Y-120385000D01*
X144685899Y-120327000D01*
X146534101Y-120327000D01*
X146674126Y-120385000D01*
X147085874Y-120385000D01*
X147466280Y-120227431D01*
X147757431Y-119936280D01*
X147915000Y-119555874D01*
X147915000Y-119144126D01*
X147757431Y-118763720D01*
X147680230Y-118686519D01*
X147697440Y-118600000D01*
X147697440Y-118340000D01*
X147892792Y-118340000D01*
X147965673Y-118354497D01*
X148038554Y-118340000D01*
X148254407Y-118297064D01*
X148499183Y-118133510D01*
X148540469Y-118071721D01*
X149865000Y-116747191D01*
X149865000Y-116755884D01*
X150022569Y-117136290D01*
X150313720Y-117427441D01*
X150694126Y-117585010D01*
X151105874Y-117585010D01*
X151173000Y-117557206D01*
X151173000Y-122800000D01*
X151182667Y-122848601D01*
X151210197Y-122889803D01*
X151215000Y-122893012D01*
X151215000Y-123155874D01*
X151372569Y-123536280D01*
X151663720Y-123827431D01*
X152044126Y-123985000D01*
X152455874Y-123985000D01*
X152733491Y-123870008D01*
X154580195Y-125716713D01*
X154621479Y-125778499D01*
X154866255Y-125942053D01*
X155060917Y-125980774D01*
X155051399Y-125982667D01*
X155010197Y-126010197D01*
X154982667Y-126051399D01*
X154973000Y-126100000D01*
X154973000Y-128600000D01*
X154982667Y-128648601D01*
X155010197Y-128689803D01*
X155051399Y-128717333D01*
X155100000Y-128727000D01*
X155165000Y-128727000D01*
X155165001Y-131638965D01*
X155165000Y-131638970D01*
X155165000Y-133661031D01*
X155165001Y-133661035D01*
X155165001Y-133938966D01*
X155132969Y-134100000D01*
X155233594Y-134605874D01*
X155259865Y-134737945D01*
X155621232Y-135278769D01*
X155757748Y-135369986D01*
X155930012Y-135542250D01*
X156021231Y-135678769D01*
X156562055Y-136040136D01*
X157038969Y-136135000D01*
X157038970Y-136135000D01*
X157199999Y-136167031D01*
X157361029Y-136135000D01*
X161861031Y-136135000D01*
X162337945Y-136040136D01*
X162878769Y-135678769D01*
X163240136Y-135137945D01*
X163367031Y-134500000D01*
X163240136Y-133862055D01*
X162878769Y-133321231D01*
X162337945Y-132959864D01*
X161861031Y-132865000D01*
X158435000Y-132865000D01*
X158435000Y-130727000D01*
X158923835Y-130727000D01*
X158972119Y-130747000D01*
X159527881Y-130747000D01*
X159576165Y-130727000D01*
X161423835Y-130727000D01*
X161472119Y-130747000D01*
X162027881Y-130747000D01*
X162541337Y-130534320D01*
X162934320Y-130141337D01*
X163147000Y-129627881D01*
X163147000Y-129072119D01*
X163127000Y-129023835D01*
X163127000Y-128102259D01*
X163187945Y-128090136D01*
X163728769Y-127728769D01*
X164090136Y-127187945D01*
X164217031Y-126550000D01*
X164104643Y-125984989D01*
X171947924Y-125984989D01*
X171910197Y-126010197D01*
X171882667Y-126051399D01*
X171873000Y-126100000D01*
X171873000Y-128600000D01*
X171882667Y-128648601D01*
X171910197Y-128689803D01*
X171951399Y-128717333D01*
X172000000Y-128727000D01*
X172165000Y-128727000D01*
X172165001Y-131738965D01*
X172165000Y-131738970D01*
X172165000Y-133661031D01*
X172165001Y-133661035D01*
X172165001Y-133938966D01*
X172132969Y-134100000D01*
X172233594Y-134605874D01*
X172259865Y-134737945D01*
X172621232Y-135278769D01*
X172757748Y-135369986D01*
X172830012Y-135442250D01*
X172921231Y-135578769D01*
X173462055Y-135940136D01*
X173938969Y-136035000D01*
X173938970Y-136035000D01*
X174099999Y-136067031D01*
X174261029Y-136035000D01*
X178761031Y-136035000D01*
X179237945Y-135940136D01*
X179778769Y-135578769D01*
X180140136Y-135037945D01*
X180267031Y-134400000D01*
X180140136Y-133762055D01*
X179778769Y-133221231D01*
X179237945Y-132859864D01*
X178761031Y-132765000D01*
X175435000Y-132765000D01*
X175435000Y-130827000D01*
X175823835Y-130827000D01*
X175872119Y-130847000D01*
X176427881Y-130847000D01*
X176476165Y-130827000D01*
X178323835Y-130827000D01*
X178372119Y-130847000D01*
X178927881Y-130847000D01*
X179441337Y-130634320D01*
X179834320Y-130241337D01*
X180047000Y-129727881D01*
X180047000Y-129172119D01*
X179927000Y-128882413D01*
X179927000Y-128222150D01*
X180087945Y-128190136D01*
X180628769Y-127828769D01*
X180990136Y-127287945D01*
X181117031Y-126650000D01*
X180990136Y-126012055D01*
X180972051Y-125984989D01*
X184738472Y-125984989D01*
X184765000Y-126011517D01*
X184765000Y-126205874D01*
X184922569Y-126586280D01*
X185213720Y-126877431D01*
X185594126Y-127035000D01*
X186005874Y-127035000D01*
X186386280Y-126877431D01*
X186677431Y-126586280D01*
X186835000Y-126205874D01*
X186835000Y-125794126D01*
X186692459Y-125450000D01*
X186748275Y-125315246D01*
X186751399Y-125317333D01*
X186800000Y-125327000D01*
X187433390Y-125327000D01*
X187694126Y-125435000D01*
X188105874Y-125435000D01*
X188366610Y-125327000D01*
X189300000Y-125327000D01*
X189348601Y-125317333D01*
X189389803Y-125289803D01*
X189393012Y-125285000D01*
X189655874Y-125285000D01*
X190036280Y-125127431D01*
X190327431Y-124836280D01*
X190485000Y-124455874D01*
X190485000Y-124044126D01*
X190327431Y-123663720D01*
X190327000Y-123663289D01*
X190327000Y-121487568D01*
X190373972Y-121440596D01*
X190438710Y-121284305D01*
X191235118Y-120169334D01*
X191336280Y-120127431D01*
X191627431Y-119836280D01*
X191785000Y-119455874D01*
X191785000Y-119427000D01*
X193700000Y-119427000D01*
X193738779Y-119419287D01*
X194126131Y-119474760D01*
X194177612Y-119485000D01*
X199515001Y-119485000D01*
X199515000Y-138015000D01*
X109985000Y-138015000D01*
X109985000Y-136240266D01*
X110695000Y-136240266D01*
X110715000Y-136340813D01*
X110715000Y-136595113D01*
X110812316Y-136830055D01*
X110828591Y-136911875D01*
X110874938Y-136981238D01*
X110979138Y-137232799D01*
X111171676Y-137425337D01*
X111209028Y-137481238D01*
X111264929Y-137518590D01*
X111467201Y-137720862D01*
X111731479Y-137830330D01*
X111778391Y-137861675D01*
X111833727Y-137872682D01*
X112104887Y-137985000D01*
X112398389Y-137985000D01*
X112450000Y-137995266D01*
X112501611Y-137985000D01*
X112795113Y-137985000D01*
X113066273Y-137872682D01*
X113121609Y-137861675D01*
X113168521Y-137830330D01*
X113432799Y-137720862D01*
X113635071Y-137518590D01*
X113690972Y-137481238D01*
X113728324Y-137425337D01*
X113920862Y-137232799D01*
X114025062Y-136981238D01*
X114071409Y-136911875D01*
X114087684Y-136830055D01*
X114185000Y-136595113D01*
X114185000Y-136340813D01*
X114205000Y-136240266D01*
X195295000Y-136240266D01*
X195315000Y-136340813D01*
X195315000Y-136595113D01*
X195412316Y-136830055D01*
X195428591Y-136911875D01*
X195474938Y-136981238D01*
X195579138Y-137232799D01*
X195771676Y-137425337D01*
X195809028Y-137481238D01*
X195864929Y-137518590D01*
X196067201Y-137720862D01*
X196331479Y-137830330D01*
X196378391Y-137861675D01*
X196433727Y-137872682D01*
X196704887Y-137985000D01*
X196998389Y-137985000D01*
X197050000Y-137995266D01*
X197101611Y-137985000D01*
X197395113Y-137985000D01*
X197666273Y-137872682D01*
X197721609Y-137861675D01*
X197768521Y-137830330D01*
X198032799Y-137720862D01*
X198235071Y-137518590D01*
X198290972Y-137481238D01*
X198328324Y-137425337D01*
X198520862Y-137232799D01*
X198625062Y-136981238D01*
X198671409Y-136911875D01*
X198687684Y-136830055D01*
X198785000Y-136595113D01*
X198785000Y-136340813D01*
X198805000Y-136240266D01*
X198785000Y-136139719D01*
X198785000Y-135904887D01*
X198695134Y-135687931D01*
X198671409Y-135568657D01*
X198603846Y-135467542D01*
X198520862Y-135267201D01*
X198367526Y-135113865D01*
X198290972Y-134999294D01*
X198176401Y-134922740D01*
X198032799Y-134779138D01*
X197845176Y-134701422D01*
X197721609Y-134618857D01*
X197575851Y-134589864D01*
X197395113Y-134515000D01*
X197199483Y-134515000D01*
X197050000Y-134485266D01*
X196900517Y-134515000D01*
X196704887Y-134515000D01*
X196524149Y-134589864D01*
X196378391Y-134618857D01*
X196254824Y-134701422D01*
X196067201Y-134779138D01*
X195923599Y-134922740D01*
X195809028Y-134999294D01*
X195732474Y-135113865D01*
X195579138Y-135267201D01*
X195496154Y-135467542D01*
X195428591Y-135568657D01*
X195404866Y-135687931D01*
X195315000Y-135904887D01*
X195315000Y-136139719D01*
X195295000Y-136240266D01*
X114205000Y-136240266D01*
X114185000Y-136139719D01*
X114185000Y-135904887D01*
X114095134Y-135687931D01*
X114071409Y-135568657D01*
X114003846Y-135467542D01*
X113920862Y-135267201D01*
X113767526Y-135113865D01*
X113690972Y-134999294D01*
X113576401Y-134922740D01*
X113432799Y-134779138D01*
X113245176Y-134701422D01*
X113121609Y-134618857D01*
X112975851Y-134589864D01*
X112795113Y-134515000D01*
X112599483Y-134515000D01*
X112450000Y-134485266D01*
X112300517Y-134515000D01*
X112104887Y-134515000D01*
X111924149Y-134589864D01*
X111778391Y-134618857D01*
X111654824Y-134701422D01*
X111467201Y-134779138D01*
X111323599Y-134922740D01*
X111209028Y-134999294D01*
X111132474Y-135113865D01*
X110979138Y-135267201D01*
X110896154Y-135467542D01*
X110828591Y-135568657D01*
X110804866Y-135687931D01*
X110715000Y-135904887D01*
X110715000Y-136139719D01*
X110695000Y-136240266D01*
X109985000Y-136240266D01*
X109985000Y-130300000D01*
X114052560Y-130300000D01*
X114052560Y-132300000D01*
X114101843Y-132547765D01*
X114242191Y-132757809D01*
X114452235Y-132898157D01*
X114700000Y-132947440D01*
X116700000Y-132947440D01*
X116947765Y-132898157D01*
X117157809Y-132757809D01*
X117298157Y-132547765D01*
X117347440Y-132300000D01*
X117347440Y-130300000D01*
X117298157Y-130052235D01*
X117157809Y-129842191D01*
X117101166Y-129804343D01*
X120715000Y-129804343D01*
X120715000Y-130295657D01*
X120903018Y-130749571D01*
X121250429Y-131096982D01*
X121704343Y-131285000D01*
X122195657Y-131285000D01*
X122649571Y-131096982D01*
X122996982Y-130749571D01*
X123090002Y-130525000D01*
X129502560Y-130525000D01*
X129502560Y-131225000D01*
X129551843Y-131472765D01*
X129692191Y-131682809D01*
X129902235Y-131823157D01*
X130150000Y-131872440D01*
X130950000Y-131872440D01*
X131197765Y-131823157D01*
X131407809Y-131682809D01*
X131548157Y-131472765D01*
X131597440Y-131225000D01*
X131597440Y-130525000D01*
X131548157Y-130277235D01*
X131407809Y-130067191D01*
X131290000Y-129988473D01*
X131290000Y-129473711D01*
X131427431Y-129336280D01*
X131585000Y-128955874D01*
X131585000Y-128544126D01*
X131483880Y-128300000D01*
X138232969Y-128300000D01*
X138265000Y-128461030D01*
X138265001Y-134038966D01*
X138232969Y-134200000D01*
X138359865Y-134837945D01*
X138721232Y-135378769D01*
X138857748Y-135469986D01*
X138930012Y-135542250D01*
X139021231Y-135678769D01*
X139562055Y-136040136D01*
X140038969Y-136135000D01*
X140038970Y-136135000D01*
X140199999Y-136167031D01*
X140361029Y-136135000D01*
X144861031Y-136135000D01*
X145337945Y-136040136D01*
X145878769Y-135678769D01*
X146240136Y-135137945D01*
X146367031Y-134500000D01*
X146240136Y-133862055D01*
X145878769Y-133321231D01*
X145337945Y-132959864D01*
X144861031Y-132865000D01*
X141535000Y-132865000D01*
X141535000Y-130727000D01*
X142023835Y-130727000D01*
X142072119Y-130747000D01*
X142627881Y-130747000D01*
X142676165Y-130727000D01*
X144523835Y-130727000D01*
X144572119Y-130747000D01*
X145127881Y-130747000D01*
X145641337Y-130534320D01*
X146034320Y-130141337D01*
X146247000Y-129627881D01*
X146247000Y-129072119D01*
X146227000Y-129023835D01*
X146227000Y-128102259D01*
X146287945Y-128090136D01*
X146828769Y-127728769D01*
X147190136Y-127187945D01*
X147317031Y-126550000D01*
X147190136Y-125912055D01*
X146828769Y-125371231D01*
X146287945Y-125009864D01*
X145811031Y-124915000D01*
X141811031Y-124915000D01*
X141650000Y-124882969D01*
X141012054Y-125009864D01*
X140795596Y-125154497D01*
X140471231Y-125371231D01*
X140380014Y-125507748D01*
X138857750Y-127030012D01*
X138721231Y-127121231D01*
X138359864Y-127662056D01*
X138274714Y-128090136D01*
X138232969Y-128300000D01*
X131483880Y-128300000D01*
X131427431Y-128163720D01*
X131136280Y-127872569D01*
X130755874Y-127715000D01*
X130344126Y-127715000D01*
X129963720Y-127872569D01*
X129672569Y-128163720D01*
X129515000Y-128544126D01*
X129515000Y-128955874D01*
X129672569Y-129336280D01*
X129810001Y-129473712D01*
X129810000Y-129988473D01*
X129692191Y-130067191D01*
X129551843Y-130277235D01*
X129502560Y-130525000D01*
X123090002Y-130525000D01*
X123185000Y-130295657D01*
X123185000Y-129804343D01*
X122996982Y-129350429D01*
X122649571Y-129003018D01*
X122195657Y-128815000D01*
X121704343Y-128815000D01*
X121250429Y-129003018D01*
X120903018Y-129350429D01*
X120715000Y-129804343D01*
X117101166Y-129804343D01*
X116947765Y-129701843D01*
X116700000Y-129652560D01*
X114700000Y-129652560D01*
X114452235Y-129701843D01*
X114242191Y-129842191D01*
X114101843Y-130052235D01*
X114052560Y-130300000D01*
X109985000Y-130300000D01*
X109985000Y-127304343D01*
X120715000Y-127304343D01*
X120715000Y-127795657D01*
X120903018Y-128249571D01*
X121250429Y-128596982D01*
X121704343Y-128785000D01*
X122195657Y-128785000D01*
X122649571Y-128596982D01*
X122996982Y-128249571D01*
X123185000Y-127795657D01*
X123185000Y-127304343D01*
X122996982Y-126850429D01*
X122649571Y-126503018D01*
X122195657Y-126315000D01*
X121704343Y-126315000D01*
X121250429Y-126503018D01*
X120903018Y-126850429D01*
X120715000Y-127304343D01*
X109985000Y-127304343D01*
X109985000Y-119485000D01*
X115322388Y-119485000D01*
X115349295Y-119479648D01*
X115600088Y-119461011D01*
X115673323Y-119444909D01*
X115747597Y-119434735D01*
X115756215Y-119432215D01*
X116299500Y-119269739D01*
X116390068Y-119227890D01*
X116481111Y-119187165D01*
X116488676Y-119182327D01*
X116964521Y-118873899D01*
X117039708Y-118808309D01*
X117115657Y-118743672D01*
X117121560Y-118736906D01*
X117491715Y-118307321D01*
X117545476Y-118223258D01*
X117600226Y-118139909D01*
X117603992Y-118131758D01*
X117838698Y-117615549D01*
X117866706Y-117519769D01*
X117895860Y-117424410D01*
X117897188Y-117415530D01*
X117974760Y-116873869D01*
X117985000Y-116822388D01*
X117985000Y-108250000D01*
X118195000Y-108250000D01*
X118215000Y-108350547D01*
X118215000Y-108595113D01*
X118308591Y-108821062D01*
X118328591Y-108921609D01*
X118385546Y-109006848D01*
X118479138Y-109232799D01*
X118652075Y-109405736D01*
X118709028Y-109490972D01*
X118794264Y-109547925D01*
X118967201Y-109720862D01*
X119193152Y-109814454D01*
X119278391Y-109871409D01*
X119378938Y-109891409D01*
X119604887Y-109985000D01*
X119849453Y-109985000D01*
X119950000Y-110005000D01*
X120050547Y-109985000D01*
X120295113Y-109985000D01*
X120521062Y-109891409D01*
X120621609Y-109871409D01*
X120706848Y-109814454D01*
X120932799Y-109720862D01*
X121105736Y-109547925D01*
X121190972Y-109490972D01*
X121247925Y-109405736D01*
X121420862Y-109232799D01*
X121514454Y-109006848D01*
X121571409Y-108921609D01*
X121591409Y-108821062D01*
X121685000Y-108595113D01*
X121685000Y-108350547D01*
X121705000Y-108250000D01*
X121685000Y-108149453D01*
X121685000Y-107904887D01*
X121591409Y-107678938D01*
X121571409Y-107578391D01*
X121514454Y-107493152D01*
X121420862Y-107267201D01*
X121247925Y-107094264D01*
X121190972Y-107009028D01*
X121105736Y-106952075D01*
X120932799Y-106779138D01*
X120706848Y-106685546D01*
X120621609Y-106628591D01*
X120521062Y-106608591D01*
X120295113Y-106515000D01*
X120050547Y-106515000D01*
X119950000Y-106495000D01*
X119849453Y-106515000D01*
X119604887Y-106515000D01*
X119378938Y-106608591D01*
X119278391Y-106628591D01*
X119193152Y-106685546D01*
X118967201Y-106779138D01*
X118794264Y-106952075D01*
X118709028Y-107009028D01*
X118652075Y-107094264D01*
X118479138Y-107267201D01*
X118385546Y-107493152D01*
X118328591Y-107578391D01*
X118308591Y-107678938D01*
X118215000Y-107904887D01*
X118215000Y-108149453D01*
X118195000Y-108250000D01*
X117985000Y-108250000D01*
X117985000Y-106485000D01*
X133073000Y-106485000D01*
X133073000Y-106904101D01*
G36*
X188073000Y-110653868D02*
X188073000Y-114304101D01*
X188015000Y-114444126D01*
X188015000Y-114855874D01*
X188172569Y-115236280D01*
X188463720Y-115527431D01*
X188756541Y-115648721D01*
X188756541Y-117198119D01*
X188555874Y-117115000D01*
X188144126Y-117115000D01*
X187763720Y-117272569D01*
X187472569Y-117563720D01*
X187315000Y-117944126D01*
X187315000Y-118355874D01*
X187472569Y-118736280D01*
X187610000Y-118873711D01*
X187610001Y-120158416D01*
X187475144Y-120483990D01*
X187475144Y-120673000D01*
X185600000Y-120673000D01*
X185551399Y-120682667D01*
X185510492Y-120710000D01*
X181727000Y-120710000D01*
X181727000Y-118440000D01*
X183477119Y-118440000D01*
X183550000Y-118454497D01*
X183622881Y-118440000D01*
X183838734Y-118397064D01*
X184083510Y-118233510D01*
X184124796Y-118171721D01*
X184921724Y-117374794D01*
X184983510Y-117333510D01*
X185147064Y-117088734D01*
X185190000Y-116872881D01*
X185190000Y-116872878D01*
X185204496Y-116800001D01*
X185190000Y-116727124D01*
X185190000Y-115623711D01*
X185327431Y-115486280D01*
X185485000Y-115105874D01*
X185485000Y-114694126D01*
X185448219Y-114605328D01*
X185636280Y-114527431D01*
X185927431Y-114236280D01*
X186085000Y-113855874D01*
X186085000Y-113444126D01*
X185927431Y-113063720D01*
X185756201Y-112892490D01*
X185912410Y-112736280D01*
X186069979Y-112355874D01*
X186069979Y-111944126D01*
X185912410Y-111563720D01*
X185621259Y-111272569D01*
X185240853Y-111115000D01*
X184829105Y-111115000D01*
X184448699Y-111272569D01*
X184415654Y-111305614D01*
X184297765Y-111226843D01*
X184050000Y-111177560D01*
X183250000Y-111177560D01*
X183081057Y-111211164D01*
X183087142Y-110627000D01*
X188046132Y-110627000D01*
X188073000Y-110653868D01*
X188073000Y-110653868D01*
G37*
X188073000Y-110653868D02*
X188073000Y-114304101D01*
X188015000Y-114444126D01*
X188015000Y-114855874D01*
X188172569Y-115236280D01*
X188463720Y-115527431D01*
X188756541Y-115648721D01*
X188756541Y-117198119D01*
X188555874Y-117115000D01*
X188144126Y-117115000D01*
X187763720Y-117272569D01*
X187472569Y-117563720D01*
X187315000Y-117944126D01*
X187315000Y-118355874D01*
X187472569Y-118736280D01*
X187610000Y-118873711D01*
X187610001Y-120158416D01*
X187475144Y-120483990D01*
X187475144Y-120673000D01*
X185600000Y-120673000D01*
X185551399Y-120682667D01*
X185510492Y-120710000D01*
X181727000Y-120710000D01*
X181727000Y-118440000D01*
X183477119Y-118440000D01*
X183550000Y-118454497D01*
X183622881Y-118440000D01*
X183838734Y-118397064D01*
X184083510Y-118233510D01*
X184124796Y-118171721D01*
X184921724Y-117374794D01*
X184983510Y-117333510D01*
X185147064Y-117088734D01*
X185190000Y-116872881D01*
X185190000Y-116872878D01*
X185204496Y-116800001D01*
X185190000Y-116727124D01*
X185190000Y-115623711D01*
X185327431Y-115486280D01*
X185485000Y-115105874D01*
X185485000Y-114694126D01*
X185448219Y-114605328D01*
X185636280Y-114527431D01*
X185927431Y-114236280D01*
X186085000Y-113855874D01*
X186085000Y-113444126D01*
X185927431Y-113063720D01*
X185756201Y-112892490D01*
X185912410Y-112736280D01*
X186069979Y-112355874D01*
X186069979Y-111944126D01*
X185912410Y-111563720D01*
X185621259Y-111272569D01*
X185240853Y-111115000D01*
X184829105Y-111115000D01*
X184448699Y-111272569D01*
X184415654Y-111305614D01*
X184297765Y-111226843D01*
X184050000Y-111177560D01*
X183250000Y-111177560D01*
X183081057Y-111211164D01*
X183087142Y-110627000D01*
X188046132Y-110627000D01*
X188073000Y-110653868D01*
G36*
X155276264Y-116086015D02*
X155192191Y-116142191D01*
X155051843Y-116352235D01*
X155002560Y-116600000D01*
X155002560Y-117100000D01*
X155051843Y-117347765D01*
X155192191Y-117557809D01*
X155255334Y-117600000D01*
X155192191Y-117642191D01*
X155051843Y-117852235D01*
X155002560Y-118100000D01*
X155002560Y-118600000D01*
X155036971Y-118773000D01*
X154669517Y-118773000D01*
X154227000Y-118330483D01*
X154227000Y-115242865D01*
X154250000Y-115247440D01*
X155050000Y-115247440D01*
X155285487Y-115200599D01*
X155276264Y-116086015D01*
X155276264Y-116086015D01*
G37*
X155276264Y-116086015D02*
X155192191Y-116142191D01*
X155051843Y-116352235D01*
X155002560Y-116600000D01*
X155002560Y-117100000D01*
X155051843Y-117347765D01*
X155192191Y-117557809D01*
X155255334Y-117600000D01*
X155192191Y-117642191D01*
X155051843Y-117852235D01*
X155002560Y-118100000D01*
X155002560Y-118600000D01*
X155036971Y-118773000D01*
X154669517Y-118773000D01*
X154227000Y-118330483D01*
X154227000Y-115242865D01*
X154250000Y-115247440D01*
X155050000Y-115247440D01*
X155285487Y-115200599D01*
X155276264Y-116086015D01*
G36*
X171902560Y-116700000D02*
X171902560Y-117200000D01*
X171951843Y-117447765D01*
X172092191Y-117657809D01*
X172155334Y-117700000D01*
X172092191Y-117742191D01*
X171951843Y-117952235D01*
X171902560Y-118200000D01*
X171902560Y-118700000D01*
X171917080Y-118773000D01*
X171569517Y-118773000D01*
X171021943Y-118225425D01*
X171027000Y-118200000D01*
X171027000Y-116527000D01*
X171936971Y-116527000D01*
X171902560Y-116700000D01*
X171902560Y-116700000D01*
G37*
X171902560Y-116700000D02*
X171902560Y-117200000D01*
X171951843Y-117447765D01*
X172092191Y-117657809D01*
X172155334Y-117700000D01*
X172092191Y-117742191D01*
X171951843Y-117952235D01*
X171902560Y-118200000D01*
X171902560Y-118700000D01*
X171917080Y-118773000D01*
X171569517Y-118773000D01*
X171021943Y-118225425D01*
X171027000Y-118200000D01*
X171027000Y-116527000D01*
X171936971Y-116527000D01*
X171902560Y-116700000D01*
G36*
X169955874Y-80559990D02*
X169544126Y-80559990D01*
X169512717Y-80573000D01*
X168689999Y-80573000D01*
X168689999Y-76672885D01*
X168704497Y-76600000D01*
X168647064Y-76311268D01*
X168647063Y-76311267D01*
X168647063Y-76311266D01*
X168483509Y-76066490D01*
X168421723Y-76025206D01*
X167785000Y-75388482D01*
X167785000Y-75194126D01*
X167627431Y-74813720D01*
X167490000Y-74676289D01*
X167489999Y-72523712D01*
X167627431Y-72386280D01*
X167785000Y-72005874D01*
X167785000Y-71835000D01*
X175415000Y-71835000D01*
X175415000Y-72005874D01*
X175572569Y-72386280D01*
X175710000Y-72523711D01*
X175710000Y-74460000D01*
X175022881Y-74460000D01*
X174950000Y-74445503D01*
X174877119Y-74460000D01*
X174661266Y-74502936D01*
X174416490Y-74666490D01*
X174375204Y-74728279D01*
X170978276Y-78125206D01*
X170916490Y-78166490D01*
X170752936Y-78411266D01*
X170710000Y-78627119D01*
X170710000Y-78627122D01*
X170695504Y-78699999D01*
X170710000Y-78772876D01*
X170710000Y-79490368D01*
X170601843Y-79652235D01*
X170552560Y-79900000D01*
X170552560Y-80573000D01*
X169987283Y-80573000D01*
X169955874Y-80559990D01*
X169955874Y-80559990D01*
G37*
X169955874Y-80559990D02*
X169544126Y-80559990D01*
X169512717Y-80573000D01*
X168689999Y-80573000D01*
X168689999Y-76672885D01*
X168704497Y-76600000D01*
X168647064Y-76311268D01*
X168647063Y-76311267D01*
X168647063Y-76311266D01*
X168483509Y-76066490D01*
X168421723Y-76025206D01*
X167785000Y-75388482D01*
X167785000Y-75194126D01*
X167627431Y-74813720D01*
X167490000Y-74676289D01*
X167489999Y-72523712D01*
X167627431Y-72386280D01*
X167785000Y-72005874D01*
X167785000Y-71835000D01*
X175415000Y-71835000D01*
X175415000Y-72005874D01*
X175572569Y-72386280D01*
X175710000Y-72523711D01*
X175710000Y-74460000D01*
X175022881Y-74460000D01*
X174950000Y-74445503D01*
X174877119Y-74460000D01*
X174661266Y-74502936D01*
X174416490Y-74666490D01*
X174375204Y-74728279D01*
X170978276Y-78125206D01*
X170916490Y-78166490D01*
X170752936Y-78411266D01*
X170710000Y-78627119D01*
X170710000Y-78627122D01*
X170695504Y-78699999D01*
X170710000Y-78772876D01*
X170710000Y-79490368D01*
X170601843Y-79652235D01*
X170552560Y-79900000D01*
X170552560Y-80573000D01*
X169987283Y-80573000D01*
X169955874Y-80559990D01*
G36*
X175677000Y-101727000D02*
X179231941Y-101727000D01*
X179272109Y-101734990D01*
X179344990Y-101749487D01*
X179417871Y-101734990D01*
X182026289Y-101734990D01*
X182163720Y-101872421D01*
X182544126Y-102029990D01*
X182955874Y-102029990D01*
X183336280Y-101872421D01*
X183627431Y-101581270D01*
X183785000Y-101200864D01*
X183785000Y-100789116D01*
X183777000Y-100769802D01*
X183777000Y-96319518D01*
X184641403Y-95455114D01*
X184663720Y-95477431D01*
X185044126Y-95635000D01*
X185455874Y-95635000D01*
X185836280Y-95477431D01*
X186127431Y-95186280D01*
X186285000Y-94805874D01*
X186285000Y-94394126D01*
X186177667Y-94135000D01*
X186255874Y-94135000D01*
X186636280Y-93977431D01*
X186927431Y-93686280D01*
X187085000Y-93305874D01*
X187085000Y-92894126D01*
X186927431Y-92513720D01*
X186889999Y-92476288D01*
X186890000Y-90909633D01*
X186929558Y-90850430D01*
X186950001Y-90854496D01*
X187022878Y-90840000D01*
X187022881Y-90840000D01*
X187238734Y-90797064D01*
X187483510Y-90633510D01*
X187524794Y-90571723D01*
X188021721Y-90074796D01*
X188083510Y-90033510D01*
X188247064Y-89788733D01*
X188257009Y-89738734D01*
X188304497Y-89500000D01*
X188290000Y-89427119D01*
X188289999Y-81247885D01*
X188304497Y-81175000D01*
X188247064Y-80886268D01*
X188247063Y-80886267D01*
X188247063Y-80886266D01*
X188083509Y-80641490D01*
X188021723Y-80600206D01*
X187589999Y-80168481D01*
X187590000Y-76023711D01*
X187727431Y-75886280D01*
X187885000Y-75505874D01*
X187885000Y-75094126D01*
X187727431Y-74713720D01*
X187589999Y-74576288D01*
X187590000Y-72523711D01*
X187727431Y-72386280D01*
X187885000Y-72005874D01*
X187885000Y-71835000D01*
X199515000Y-71835000D01*
X199515000Y-73609734D01*
X198805000Y-73609734D01*
X198785000Y-73509187D01*
X198785000Y-73254887D01*
X198687684Y-73019945D01*
X198671409Y-72938125D01*
X198625062Y-72868762D01*
X198520862Y-72617201D01*
X198328324Y-72424663D01*
X198290972Y-72368762D01*
X198235071Y-72331410D01*
X198032799Y-72129138D01*
X197768521Y-72019670D01*
X197721609Y-71988325D01*
X197666273Y-71977318D01*
X197395113Y-71865000D01*
X197101611Y-71865000D01*
X197050000Y-71854734D01*
X196998389Y-71865000D01*
X196704887Y-71865000D01*
X196433727Y-71977318D01*
X196378391Y-71988325D01*
X196331479Y-72019670D01*
X196067201Y-72129138D01*
X195864929Y-72331410D01*
X195809028Y-72368762D01*
X195771676Y-72424663D01*
X195579138Y-72617201D01*
X195474938Y-72868762D01*
X195428591Y-72938125D01*
X195412316Y-73019945D01*
X195315000Y-73254887D01*
X195315000Y-73509187D01*
X195295000Y-73609734D01*
X195315000Y-73710281D01*
X195315000Y-73945113D01*
X195404866Y-74162069D01*
X195428591Y-74281343D01*
X195496154Y-74382458D01*
X195579138Y-74582799D01*
X195732474Y-74736135D01*
X195809028Y-74850706D01*
X195923599Y-74927260D01*
X196067201Y-75070862D01*
X196254824Y-75148578D01*
X196378391Y-75231143D01*
X196524149Y-75260136D01*
X196704887Y-75335000D01*
X196900517Y-75335000D01*
X197050000Y-75364734D01*
X197199483Y-75335000D01*
X197395113Y-75335000D01*
X197575851Y-75260136D01*
X197721609Y-75231143D01*
X197845176Y-75148578D01*
X198032799Y-75070862D01*
X198176401Y-74927260D01*
X198290972Y-74850706D01*
X198367526Y-74736135D01*
X198520862Y-74582799D01*
X198603846Y-74382458D01*
X198671409Y-74281343D01*
X198695134Y-74162069D01*
X198785000Y-73945113D01*
X198785000Y-73710281D01*
X198805000Y-73609734D01*
X199515000Y-73609734D01*
X199515000Y-81657881D01*
X197947000Y-81657881D01*
X197947000Y-81102119D01*
X197734320Y-80588663D01*
X197341337Y-80195680D01*
X196827881Y-79983000D01*
X196272119Y-79983000D01*
X195758663Y-80195680D01*
X195365680Y-80588663D01*
X195153000Y-81102119D01*
X195153000Y-81657881D01*
X192867000Y-81657881D01*
X192867000Y-81102119D01*
X192654320Y-80588663D01*
X192261337Y-80195680D01*
X191747881Y-79983000D01*
X191192119Y-79983000D01*
X190678663Y-80195680D01*
X190285680Y-80588663D01*
X190073000Y-81102119D01*
X190073000Y-81657881D01*
X190285680Y-82171337D01*
X190678663Y-82564320D01*
X191192119Y-82777000D01*
X191747881Y-82777000D01*
X192261337Y-82564320D01*
X192654320Y-82171337D01*
X192867000Y-81657881D01*
X195153000Y-81657881D01*
X195365680Y-82171337D01*
X195758663Y-82564320D01*
X196272119Y-82777000D01*
X196827881Y-82777000D01*
X197341337Y-82564320D01*
X197734320Y-82171337D01*
X197947000Y-81657881D01*
X199515000Y-81657881D01*
X199515000Y-87673000D01*
X197609388Y-87673000D01*
X197559765Y-87639843D01*
X197312000Y-87590560D01*
X195788000Y-87590560D01*
X195540235Y-87639843D01*
X195330191Y-87780191D01*
X195189843Y-87990235D01*
X195140560Y-88238000D01*
X195140560Y-89039586D01*
X195132667Y-89051399D01*
X195123000Y-89100000D01*
X195123000Y-89277881D01*
X192867000Y-89277881D01*
X192867000Y-88722119D01*
X192654320Y-88208663D01*
X192261337Y-87815680D01*
X191747881Y-87603000D01*
X191192119Y-87603000D01*
X190678663Y-87815680D01*
X190285680Y-88208663D01*
X190073000Y-88722119D01*
X190073000Y-89277881D01*
X190285680Y-89791337D01*
X190678663Y-90184320D01*
X191192119Y-90397000D01*
X191747881Y-90397000D01*
X192261337Y-90184320D01*
X192654320Y-89791337D01*
X192867000Y-89277881D01*
X195123000Y-89277881D01*
X195123000Y-90365000D01*
X194177612Y-90365000D01*
X194150705Y-90370352D01*
X193899912Y-90388989D01*
X193826677Y-90405091D01*
X193752403Y-90415265D01*
X193743785Y-90417785D01*
X193200500Y-90580261D01*
X193109932Y-90622110D01*
X193018889Y-90662835D01*
X193011324Y-90667673D01*
X192535479Y-90976101D01*
X192460292Y-91041691D01*
X192384343Y-91106328D01*
X192378440Y-91113094D01*
X192008285Y-91542679D01*
X191954524Y-91626742D01*
X191899774Y-91710091D01*
X191896008Y-91718242D01*
X191661302Y-92234451D01*
X191633294Y-92330231D01*
X191604140Y-92425590D01*
X191602812Y-92434470D01*
X191525240Y-92976131D01*
X191515000Y-93027612D01*
X191515000Y-101600000D01*
X191305000Y-101600000D01*
X191285000Y-101499453D01*
X191285000Y-101254887D01*
X191191409Y-101028938D01*
X191171409Y-100928391D01*
X191114454Y-100843152D01*
X191020862Y-100617201D01*
X190847925Y-100444264D01*
X190790972Y-100359028D01*
X190705736Y-100302075D01*
X190532799Y-100129138D01*
X190306848Y-100035546D01*
X190221609Y-99978591D01*
X190121062Y-99958591D01*
X189895113Y-99865000D01*
X189650547Y-99865000D01*
X189550000Y-99845000D01*
X189449453Y-99865000D01*
X189204887Y-99865000D01*
X188978938Y-99958591D01*
X188878391Y-99978591D01*
X188793152Y-100035546D01*
X188567201Y-100129138D01*
X188394264Y-100302075D01*
X188309028Y-100359028D01*
X188252075Y-100444264D01*
X188079138Y-100617201D01*
X187985546Y-100843152D01*
X187928591Y-100928391D01*
X187908591Y-101028938D01*
X187815000Y-101254887D01*
X187815000Y-101499453D01*
X187795000Y-101600000D01*
X187815000Y-101700547D01*
X187815000Y-101945113D01*
X187908591Y-102171062D01*
X187928591Y-102271609D01*
X187985546Y-102356848D01*
X188079138Y-102582799D01*
X188252075Y-102755736D01*
X188309028Y-102840972D01*
X188394264Y-102897925D01*
X188567201Y-103070862D01*
X188793152Y-103164454D01*
X188878391Y-103221409D01*
X188978938Y-103241409D01*
X189204887Y-103335000D01*
X189449453Y-103335000D01*
X189550000Y-103355000D01*
X189650547Y-103335000D01*
X189895113Y-103335000D01*
X190121062Y-103241409D01*
X190221609Y-103221409D01*
X190306848Y-103164454D01*
X190532799Y-103070862D01*
X190705736Y-102897925D01*
X190790972Y-102840972D01*
X190847925Y-102755736D01*
X191020862Y-102582799D01*
X191114454Y-102356848D01*
X191171409Y-102271609D01*
X191191409Y-102171062D01*
X191285000Y-101945113D01*
X191285000Y-101700547D01*
X191305000Y-101600000D01*
X191515000Y-101600000D01*
X191515000Y-103365000D01*
X175677000Y-103365000D01*
X175677000Y-101727000D01*
X175677000Y-101727000D01*
G37*
X175677000Y-101727000D02*
X179231941Y-101727000D01*
X179272109Y-101734990D01*
X179344990Y-101749487D01*
X179417871Y-101734990D01*
X182026289Y-101734990D01*
X182163720Y-101872421D01*
X182544126Y-102029990D01*
X182955874Y-102029990D01*
X183336280Y-101872421D01*
X183627431Y-101581270D01*
X183785000Y-101200864D01*
X183785000Y-100789116D01*
X183777000Y-100769802D01*
X183777000Y-96319518D01*
X184641403Y-95455114D01*
X184663720Y-95477431D01*
X185044126Y-95635000D01*
X185455874Y-95635000D01*
X185836280Y-95477431D01*
X186127431Y-95186280D01*
X186285000Y-94805874D01*
X186285000Y-94394126D01*
X186177667Y-94135000D01*
X186255874Y-94135000D01*
X186636280Y-93977431D01*
X186927431Y-93686280D01*
X187085000Y-93305874D01*
X187085000Y-92894126D01*
X186927431Y-92513720D01*
X186889999Y-92476288D01*
X186890000Y-90909633D01*
X186929558Y-90850430D01*
X186950001Y-90854496D01*
X187022878Y-90840000D01*
X187022881Y-90840000D01*
X187238734Y-90797064D01*
X187483510Y-90633510D01*
X187524794Y-90571723D01*
X188021721Y-90074796D01*
X188083510Y-90033510D01*
X188247064Y-89788733D01*
X188257009Y-89738734D01*
X188304497Y-89500000D01*
X188290000Y-89427119D01*
X188289999Y-81247885D01*
X188304497Y-81175000D01*
X188247064Y-80886268D01*
X188247063Y-80886267D01*
X188247063Y-80886266D01*
X188083509Y-80641490D01*
X188021723Y-80600206D01*
X187589999Y-80168481D01*
X187590000Y-76023711D01*
X187727431Y-75886280D01*
X187885000Y-75505874D01*
X187885000Y-75094126D01*
X187727431Y-74713720D01*
X187589999Y-74576288D01*
X187590000Y-72523711D01*
X187727431Y-72386280D01*
X187885000Y-72005874D01*
X187885000Y-71835000D01*
X199515000Y-71835000D01*
X199515000Y-73609734D01*
X198805000Y-73609734D01*
X198785000Y-73509187D01*
X198785000Y-73254887D01*
X198687684Y-73019945D01*
X198671409Y-72938125D01*
X198625062Y-72868762D01*
X198520862Y-72617201D01*
X198328324Y-72424663D01*
X198290972Y-72368762D01*
X198235071Y-72331410D01*
X198032799Y-72129138D01*
X197768521Y-72019670D01*
X197721609Y-71988325D01*
X197666273Y-71977318D01*
X197395113Y-71865000D01*
X197101611Y-71865000D01*
X197050000Y-71854734D01*
X196998389Y-71865000D01*
X196704887Y-71865000D01*
X196433727Y-71977318D01*
X196378391Y-71988325D01*
X196331479Y-72019670D01*
X196067201Y-72129138D01*
X195864929Y-72331410D01*
X195809028Y-72368762D01*
X195771676Y-72424663D01*
X195579138Y-72617201D01*
X195474938Y-72868762D01*
X195428591Y-72938125D01*
X195412316Y-73019945D01*
X195315000Y-73254887D01*
X195315000Y-73509187D01*
X195295000Y-73609734D01*
X195315000Y-73710281D01*
X195315000Y-73945113D01*
X195404866Y-74162069D01*
X195428591Y-74281343D01*
X195496154Y-74382458D01*
X195579138Y-74582799D01*
X195732474Y-74736135D01*
X195809028Y-74850706D01*
X195923599Y-74927260D01*
X196067201Y-75070862D01*
X196254824Y-75148578D01*
X196378391Y-75231143D01*
X196524149Y-75260136D01*
X196704887Y-75335000D01*
X196900517Y-75335000D01*
X197050000Y-75364734D01*
X197199483Y-75335000D01*
X197395113Y-75335000D01*
X197575851Y-75260136D01*
X197721609Y-75231143D01*
X197845176Y-75148578D01*
X198032799Y-75070862D01*
X198176401Y-74927260D01*
X198290972Y-74850706D01*
X198367526Y-74736135D01*
X198520862Y-74582799D01*
X198603846Y-74382458D01*
X198671409Y-74281343D01*
X198695134Y-74162069D01*
X198785000Y-73945113D01*
X198785000Y-73710281D01*
X198805000Y-73609734D01*
X199515000Y-73609734D01*
X199515000Y-81657881D01*
X197947000Y-81657881D01*
X197947000Y-81102119D01*
X197734320Y-80588663D01*
X197341337Y-80195680D01*
X196827881Y-79983000D01*
X196272119Y-79983000D01*
X195758663Y-80195680D01*
X195365680Y-80588663D01*
X195153000Y-81102119D01*
X195153000Y-81657881D01*
X192867000Y-81657881D01*
X192867000Y-81102119D01*
X192654320Y-80588663D01*
X192261337Y-80195680D01*
X191747881Y-79983000D01*
X191192119Y-79983000D01*
X190678663Y-80195680D01*
X190285680Y-80588663D01*
X190073000Y-81102119D01*
X190073000Y-81657881D01*
X190285680Y-82171337D01*
X190678663Y-82564320D01*
X191192119Y-82777000D01*
X191747881Y-82777000D01*
X192261337Y-82564320D01*
X192654320Y-82171337D01*
X192867000Y-81657881D01*
X195153000Y-81657881D01*
X195365680Y-82171337D01*
X195758663Y-82564320D01*
X196272119Y-82777000D01*
X196827881Y-82777000D01*
X197341337Y-82564320D01*
X197734320Y-82171337D01*
X197947000Y-81657881D01*
X199515000Y-81657881D01*
X199515000Y-87673000D01*
X197609388Y-87673000D01*
X197559765Y-87639843D01*
X197312000Y-87590560D01*
X195788000Y-87590560D01*
X195540235Y-87639843D01*
X195330191Y-87780191D01*
X195189843Y-87990235D01*
X195140560Y-88238000D01*
X195140560Y-89039586D01*
X195132667Y-89051399D01*
X195123000Y-89100000D01*
X195123000Y-89277881D01*
X192867000Y-89277881D01*
X192867000Y-88722119D01*
X192654320Y-88208663D01*
X192261337Y-87815680D01*
X191747881Y-87603000D01*
X191192119Y-87603000D01*
X190678663Y-87815680D01*
X190285680Y-88208663D01*
X190073000Y-88722119D01*
X190073000Y-89277881D01*
X190285680Y-89791337D01*
X190678663Y-90184320D01*
X191192119Y-90397000D01*
X191747881Y-90397000D01*
X192261337Y-90184320D01*
X192654320Y-89791337D01*
X192867000Y-89277881D01*
X195123000Y-89277881D01*
X195123000Y-90365000D01*
X194177612Y-90365000D01*
X194150705Y-90370352D01*
X193899912Y-90388989D01*
X193826677Y-90405091D01*
X193752403Y-90415265D01*
X193743785Y-90417785D01*
X193200500Y-90580261D01*
X193109932Y-90622110D01*
X193018889Y-90662835D01*
X193011324Y-90667673D01*
X192535479Y-90976101D01*
X192460292Y-91041691D01*
X192384343Y-91106328D01*
X192378440Y-91113094D01*
X192008285Y-91542679D01*
X191954524Y-91626742D01*
X191899774Y-91710091D01*
X191896008Y-91718242D01*
X191661302Y-92234451D01*
X191633294Y-92330231D01*
X191604140Y-92425590D01*
X191602812Y-92434470D01*
X191525240Y-92976131D01*
X191515000Y-93027612D01*
X191515000Y-101600000D01*
X191305000Y-101600000D01*
X191285000Y-101499453D01*
X191285000Y-101254887D01*
X191191409Y-101028938D01*
X191171409Y-100928391D01*
X191114454Y-100843152D01*
X191020862Y-100617201D01*
X190847925Y-100444264D01*
X190790972Y-100359028D01*
X190705736Y-100302075D01*
X190532799Y-100129138D01*
X190306848Y-100035546D01*
X190221609Y-99978591D01*
X190121062Y-99958591D01*
X189895113Y-99865000D01*
X189650547Y-99865000D01*
X189550000Y-99845000D01*
X189449453Y-99865000D01*
X189204887Y-99865000D01*
X188978938Y-99958591D01*
X188878391Y-99978591D01*
X188793152Y-100035546D01*
X188567201Y-100129138D01*
X188394264Y-100302075D01*
X188309028Y-100359028D01*
X188252075Y-100444264D01*
X188079138Y-100617201D01*
X187985546Y-100843152D01*
X187928591Y-100928391D01*
X187908591Y-101028938D01*
X187815000Y-101254887D01*
X187815000Y-101499453D01*
X187795000Y-101600000D01*
X187815000Y-101700547D01*
X187815000Y-101945113D01*
X187908591Y-102171062D01*
X187928591Y-102271609D01*
X187985546Y-102356848D01*
X188079138Y-102582799D01*
X188252075Y-102755736D01*
X188309028Y-102840972D01*
X188394264Y-102897925D01*
X188567201Y-103070862D01*
X188793152Y-103164454D01*
X188878391Y-103221409D01*
X188978938Y-103241409D01*
X189204887Y-103335000D01*
X189449453Y-103335000D01*
X189550000Y-103355000D01*
X189650547Y-103335000D01*
X189895113Y-103335000D01*
X190121062Y-103241409D01*
X190221609Y-103221409D01*
X190306848Y-103164454D01*
X190532799Y-103070862D01*
X190705736Y-102897925D01*
X190790972Y-102840972D01*
X190847925Y-102755736D01*
X191020862Y-102582799D01*
X191114454Y-102356848D01*
X191171409Y-102271609D01*
X191191409Y-102171062D01*
X191285000Y-101945113D01*
X191285000Y-101700547D01*
X191305000Y-101600000D01*
X191515000Y-101600000D01*
X191515000Y-103365000D01*
X175677000Y-103365000D01*
X175677000Y-101727000D01*
G36*
X175555874Y-88965000D02*
X175189999Y-88965000D01*
X175189999Y-84972886D01*
X175204497Y-84900000D01*
X175147064Y-84611268D01*
X175147063Y-84611267D01*
X175147063Y-84611266D01*
X174983509Y-84366490D01*
X174921723Y-84325206D01*
X174477000Y-83880483D01*
X174477000Y-82525188D01*
X174485000Y-82505874D01*
X174485000Y-82197670D01*
X174588520Y-82128500D01*
X174629804Y-82066714D01*
X175471721Y-81224796D01*
X175533510Y-81183510D01*
X175697064Y-80938733D01*
X175707009Y-80888734D01*
X175754497Y-80650000D01*
X175740000Y-80577119D01*
X175739999Y-79612864D01*
X175740000Y-79612860D01*
X175739999Y-78399702D01*
X175747765Y-78398157D01*
X175957809Y-78257809D01*
X175982747Y-78220486D01*
X175998601Y-78217333D01*
X176039803Y-78189803D01*
X176067333Y-78148601D01*
X176077000Y-78100000D01*
X176077000Y-78079428D01*
X176098157Y-78047765D01*
X176147440Y-77800000D01*
X176147440Y-77000000D01*
X176098157Y-76752235D01*
X176077000Y-76720572D01*
X176077000Y-76165774D01*
X176244126Y-76235000D01*
X176655874Y-76235000D01*
X177036280Y-76077431D01*
X177327431Y-75786280D01*
X177485000Y-75405874D01*
X177485000Y-74994126D01*
X177327431Y-74613720D01*
X177189999Y-74476288D01*
X177190000Y-72523711D01*
X177327431Y-72386280D01*
X177485000Y-72005874D01*
X177485000Y-71835000D01*
X185815000Y-71835000D01*
X185815000Y-72005874D01*
X185972569Y-72386280D01*
X186110000Y-72523711D01*
X186110000Y-74576289D01*
X185972569Y-74713720D01*
X185815000Y-75094126D01*
X185815000Y-75505874D01*
X185972569Y-75886280D01*
X186110000Y-76023711D01*
X186110000Y-80168483D01*
X181313482Y-84965000D01*
X181119126Y-84965000D01*
X180738720Y-85122569D01*
X180447569Y-85413720D01*
X180290000Y-85794126D01*
X180290000Y-86205874D01*
X180447569Y-86586280D01*
X180513849Y-86652560D01*
X179850000Y-86652560D01*
X179602235Y-86701843D01*
X179392191Y-86842191D01*
X179251843Y-87052235D01*
X179202560Y-87300000D01*
X179202560Y-88500000D01*
X179217080Y-88573000D01*
X178982920Y-88573000D01*
X178997440Y-88500000D01*
X178997440Y-87300000D01*
X178948157Y-87052235D01*
X178807809Y-86842191D01*
X178597765Y-86701843D01*
X178350000Y-86652560D01*
X177650000Y-86652560D01*
X177450000Y-86692342D01*
X177250000Y-86652560D01*
X176550000Y-86652560D01*
X176302235Y-86701843D01*
X176092191Y-86842191D01*
X175951843Y-87052235D01*
X175902560Y-87300000D01*
X175902560Y-88500000D01*
X175951843Y-88747765D01*
X176031013Y-88866251D01*
X175992191Y-88892191D01*
X175859505Y-89090768D01*
X175555874Y-88965000D01*
X175555874Y-88965000D01*
G37*
X175555874Y-88965000D02*
X175189999Y-88965000D01*
X175189999Y-84972886D01*
X175204497Y-84900000D01*
X175147064Y-84611268D01*
X175147063Y-84611267D01*
X175147063Y-84611266D01*
X174983509Y-84366490D01*
X174921723Y-84325206D01*
X174477000Y-83880483D01*
X174477000Y-82525188D01*
X174485000Y-82505874D01*
X174485000Y-82197670D01*
X174588520Y-82128500D01*
X174629804Y-82066714D01*
X175471721Y-81224796D01*
X175533510Y-81183510D01*
X175697064Y-80938733D01*
X175707009Y-80888734D01*
X175754497Y-80650000D01*
X175740000Y-80577119D01*
X175739999Y-79612864D01*
X175740000Y-79612860D01*
X175739999Y-78399702D01*
X175747765Y-78398157D01*
X175957809Y-78257809D01*
X175982747Y-78220486D01*
X175998601Y-78217333D01*
X176039803Y-78189803D01*
X176067333Y-78148601D01*
X176077000Y-78100000D01*
X176077000Y-78079428D01*
X176098157Y-78047765D01*
X176147440Y-77800000D01*
X176147440Y-77000000D01*
X176098157Y-76752235D01*
X176077000Y-76720572D01*
X176077000Y-76165774D01*
X176244126Y-76235000D01*
X176655874Y-76235000D01*
X177036280Y-76077431D01*
X177327431Y-75786280D01*
X177485000Y-75405874D01*
X177485000Y-74994126D01*
X177327431Y-74613720D01*
X177189999Y-74476288D01*
X177190000Y-72523711D01*
X177327431Y-72386280D01*
X177485000Y-72005874D01*
X177485000Y-71835000D01*
X185815000Y-71835000D01*
X185815000Y-72005874D01*
X185972569Y-72386280D01*
X186110000Y-72523711D01*
X186110000Y-74576289D01*
X185972569Y-74713720D01*
X185815000Y-75094126D01*
X185815000Y-75505874D01*
X185972569Y-75886280D01*
X186110000Y-76023711D01*
X186110000Y-80168483D01*
X181313482Y-84965000D01*
X181119126Y-84965000D01*
X180738720Y-85122569D01*
X180447569Y-85413720D01*
X180290000Y-85794126D01*
X180290000Y-86205874D01*
X180447569Y-86586280D01*
X180513849Y-86652560D01*
X179850000Y-86652560D01*
X179602235Y-86701843D01*
X179392191Y-86842191D01*
X179251843Y-87052235D01*
X179202560Y-87300000D01*
X179202560Y-88500000D01*
X179217080Y-88573000D01*
X178982920Y-88573000D01*
X178997440Y-88500000D01*
X178997440Y-87300000D01*
X178948157Y-87052235D01*
X178807809Y-86842191D01*
X178597765Y-86701843D01*
X178350000Y-86652560D01*
X177650000Y-86652560D01*
X177450000Y-86692342D01*
X177250000Y-86652560D01*
X176550000Y-86652560D01*
X176302235Y-86701843D01*
X176092191Y-86842191D01*
X175951843Y-87052235D01*
X175902560Y-87300000D01*
X175902560Y-88500000D01*
X175951843Y-88747765D01*
X176031013Y-88866251D01*
X175992191Y-88892191D01*
X175859505Y-89090768D01*
X175555874Y-88965000D01*
G36*
X148077000Y-89861743D02*
X148085867Y-89840336D01*
X148085867Y-89428588D01*
X147928298Y-89048182D01*
X147637147Y-88757031D01*
X147256741Y-88599462D01*
X147062384Y-88599462D01*
X146189999Y-87727076D01*
X146190000Y-78572881D01*
X146204497Y-78500000D01*
X146176901Y-78361268D01*
X146147064Y-78211267D01*
X145983510Y-77966490D01*
X145921721Y-77925204D01*
X145324794Y-77328277D01*
X145283510Y-77266490D01*
X145038734Y-77102936D01*
X144822881Y-77060000D01*
X144822878Y-77060000D01*
X144750001Y-77045504D01*
X144677124Y-77060000D01*
X142303022Y-77060000D01*
X142277880Y-77054999D01*
X142277877Y-77054999D01*
X142205000Y-77040503D01*
X142132123Y-77054999D01*
X138577000Y-77054999D01*
X138577000Y-75200000D01*
X138567333Y-75151399D01*
X138539803Y-75110197D01*
X138498601Y-75082667D01*
X138450000Y-75073000D01*
X137532920Y-75073000D01*
X137547440Y-75000000D01*
X137547440Y-74200000D01*
X137498157Y-73952235D01*
X137357809Y-73742191D01*
X137147765Y-73601843D01*
X136900000Y-73552560D01*
X136200000Y-73552560D01*
X135952235Y-73601843D01*
X135742191Y-73742191D01*
X135663473Y-73860000D01*
X132111527Y-73860000D01*
X132032809Y-73742191D01*
X131822765Y-73601843D01*
X131575000Y-73552560D01*
X131274077Y-73552560D01*
X130349794Y-72628276D01*
X130308510Y-72566490D01*
X130063734Y-72402936D01*
X129847881Y-72360000D01*
X129775000Y-72345503D01*
X129702119Y-72360000D01*
X126973711Y-72360000D01*
X126836280Y-72222569D01*
X126455874Y-72065000D01*
X126044126Y-72065000D01*
X125663720Y-72222569D01*
X125372569Y-72513720D01*
X125215000Y-72894126D01*
X125215000Y-73305874D01*
X125340862Y-73609734D01*
X114205000Y-73609734D01*
X114185000Y-73509187D01*
X114185000Y-73254887D01*
X114087684Y-73019945D01*
X114071409Y-72938125D01*
X114025062Y-72868762D01*
X113920862Y-72617201D01*
X113728324Y-72424663D01*
X113690972Y-72368762D01*
X113635071Y-72331410D01*
X113432799Y-72129138D01*
X113168521Y-72019670D01*
X113121609Y-71988325D01*
X113066273Y-71977318D01*
X112795113Y-71865000D01*
X112501611Y-71865000D01*
X112450000Y-71854734D01*
X112398389Y-71865000D01*
X112104887Y-71865000D01*
X111833727Y-71977318D01*
X111778391Y-71988325D01*
X111731479Y-72019670D01*
X111467201Y-72129138D01*
X111264929Y-72331410D01*
X111209028Y-72368762D01*
X111171676Y-72424663D01*
X110979138Y-72617201D01*
X110874938Y-72868762D01*
X110828591Y-72938125D01*
X110812316Y-73019945D01*
X110715000Y-73254887D01*
X110715000Y-73509187D01*
X110695000Y-73609734D01*
X110715000Y-73710281D01*
X110715000Y-73945113D01*
X110804866Y-74162069D01*
X110828591Y-74281343D01*
X110896154Y-74382458D01*
X110979138Y-74582799D01*
X111132474Y-74736135D01*
X111209028Y-74850706D01*
X111323599Y-74927260D01*
X111467201Y-75070862D01*
X111654824Y-75148578D01*
X111778391Y-75231143D01*
X111924149Y-75260136D01*
X112104887Y-75335000D01*
X112300517Y-75335000D01*
X112450000Y-75364734D01*
X112599483Y-75335000D01*
X112795113Y-75335000D01*
X112975851Y-75260136D01*
X113121609Y-75231143D01*
X113245176Y-75148578D01*
X113432799Y-75070862D01*
X113576401Y-74927260D01*
X113690972Y-74850706D01*
X113767526Y-74736135D01*
X113920862Y-74582799D01*
X114003846Y-74382458D01*
X114071409Y-74281343D01*
X114095134Y-74162069D01*
X114185000Y-73945113D01*
X114185000Y-73710281D01*
X114205000Y-73609734D01*
X125340862Y-73609734D01*
X125372569Y-73686280D01*
X125663720Y-73977431D01*
X126044126Y-74135000D01*
X126455874Y-74135000D01*
X126836280Y-73977431D01*
X126973711Y-73840000D01*
X129123000Y-73840000D01*
X129123000Y-77700000D01*
X129127973Y-77725000D01*
X118957881Y-77725000D01*
X118885000Y-77710503D01*
X118812119Y-77725000D01*
X118596266Y-77767936D01*
X118351490Y-77931490D01*
X118310204Y-77993279D01*
X115643482Y-80660000D01*
X115187815Y-80660000D01*
X115075000Y-80637560D01*
X113825000Y-80637560D01*
X113577235Y-80686843D01*
X113367191Y-80827191D01*
X113226843Y-81037235D01*
X113177560Y-81285000D01*
X113177560Y-81515000D01*
X113204413Y-81650000D01*
X113177560Y-81785000D01*
X113177560Y-82015000D01*
X113204413Y-82150000D01*
X113177560Y-82285000D01*
X113177560Y-82515000D01*
X113204413Y-82650000D01*
X113177560Y-82785000D01*
X113177560Y-83015000D01*
X113204413Y-83150000D01*
X113177560Y-83285000D01*
X113177560Y-83515000D01*
X113204413Y-83650000D01*
X113177560Y-83785000D01*
X113177560Y-84015000D01*
X113204413Y-84150000D01*
X113177560Y-84285000D01*
X113177560Y-84515000D01*
X113204413Y-84650000D01*
X113177560Y-84785000D01*
X113177560Y-85015000D01*
X113204413Y-85150000D01*
X113177560Y-85285000D01*
X113177560Y-85473000D01*
X112103868Y-85473000D01*
X110784999Y-84154130D01*
X110785000Y-80497440D01*
X112775000Y-80497440D01*
X113022765Y-80448157D01*
X113232809Y-80307809D01*
X113353623Y-80127000D01*
X114224812Y-80127000D01*
X114244126Y-80135000D01*
X114655874Y-80135000D01*
X114675188Y-80127000D01*
X114750000Y-80127000D01*
X114798601Y-80117333D01*
X114839803Y-80089803D01*
X114867333Y-80048601D01*
X114867591Y-80047304D01*
X115036280Y-79977431D01*
X115327431Y-79686280D01*
X115485000Y-79305874D01*
X115485000Y-78894126D01*
X115327431Y-78513720D01*
X115289769Y-78476058D01*
X115285000Y-78452082D01*
X115285000Y-78452078D01*
X115236552Y-78208514D01*
X115052000Y-77932314D01*
X114982282Y-77885730D01*
X113164270Y-76067717D01*
X113117686Y-75997999D01*
X112841486Y-75813448D01*
X112703629Y-75786026D01*
X112698601Y-75782667D01*
X112650000Y-75773000D01*
X112638141Y-75773000D01*
X112597922Y-75765000D01*
X112515685Y-75748642D01*
X112433448Y-75765000D01*
X110632233Y-75765000D01*
X110550000Y-75748643D01*
X110467767Y-75765000D01*
X110467763Y-75765000D01*
X110427544Y-75773000D01*
X109985000Y-75773000D01*
X109985000Y-71835000D01*
X150423000Y-71835000D01*
X150423000Y-72533390D01*
X150315000Y-72794126D01*
X150315000Y-73205874D01*
X150423000Y-73466610D01*
X150423000Y-73760000D01*
X149722881Y-73760000D01*
X149650000Y-73745503D01*
X149577119Y-73760000D01*
X149361266Y-73802936D01*
X149116490Y-73966490D01*
X149075204Y-74028279D01*
X146558254Y-76545228D01*
X146496468Y-76586512D01*
X146332914Y-76831288D01*
X146289978Y-77047141D01*
X146289978Y-77047142D01*
X146275481Y-77120022D01*
X146289978Y-77192903D01*
X146289978Y-81402092D01*
X146275482Y-81474969D01*
X146289978Y-81547846D01*
X146289978Y-81547849D01*
X146332914Y-81763702D01*
X146496468Y-82008478D01*
X146558254Y-82049762D01*
X149415000Y-84906507D01*
X149415000Y-85100864D01*
X149572569Y-85481270D01*
X149863720Y-85772421D01*
X150244126Y-85929990D01*
X150655874Y-85929990D01*
X151036280Y-85772421D01*
X151327431Y-85481270D01*
X151485000Y-85100864D01*
X151485000Y-84827000D01*
X152824812Y-84827000D01*
X152844126Y-84835000D01*
X153255874Y-84835000D01*
X153275188Y-84827000D01*
X153550000Y-84827000D01*
X153598601Y-84817333D01*
X153639803Y-84789803D01*
X153667333Y-84748601D01*
X153677000Y-84700000D01*
X153677000Y-84636711D01*
X153927431Y-84386280D01*
X154085000Y-84005874D01*
X154085000Y-83594126D01*
X153927431Y-83213720D01*
X153877000Y-83163289D01*
X153877000Y-80300000D01*
X153867333Y-80251399D01*
X153839803Y-80210197D01*
X153798601Y-80182667D01*
X153750000Y-80173000D01*
X153650193Y-80173000D01*
X153704497Y-79900000D01*
X153689999Y-79827115D01*
X153690000Y-78103118D01*
X153757809Y-78057809D01*
X153898157Y-77847765D01*
X153947440Y-77600000D01*
X153947440Y-76800000D01*
X153913623Y-76629989D01*
X155176875Y-76629989D01*
X155810000Y-77263113D01*
X155810000Y-77427119D01*
X155795503Y-77500000D01*
X155810000Y-77572881D01*
X155810000Y-77696882D01*
X155742191Y-77742191D01*
X155601843Y-77952235D01*
X155552560Y-78200000D01*
X155552560Y-79000000D01*
X155601843Y-79247765D01*
X155742191Y-79457809D01*
X155952235Y-79598157D01*
X156200000Y-79647440D01*
X156465000Y-79647440D01*
X156465000Y-80005872D01*
X156622569Y-80386278D01*
X156913720Y-80677429D01*
X157294126Y-80834998D01*
X157705874Y-80834998D01*
X158086280Y-80677429D01*
X158377431Y-80386278D01*
X158535000Y-80005872D01*
X158535000Y-79594124D01*
X158377431Y-79213718D01*
X158086280Y-78922567D01*
X157715504Y-78768987D01*
X157547440Y-78600922D01*
X157547440Y-78240000D01*
X159743482Y-78240000D01*
X162323000Y-80819518D01*
X162323000Y-83825381D01*
X162261476Y-83866490D01*
X162220190Y-83928279D01*
X162038479Y-84109990D01*
X161844122Y-84109990D01*
X161463716Y-84267559D01*
X161172565Y-84558710D01*
X161014996Y-84939116D01*
X161014996Y-85350864D01*
X161172565Y-85731270D01*
X161463716Y-86022421D01*
X161844122Y-86179990D01*
X162255870Y-86179990D01*
X162636276Y-86022421D01*
X162927427Y-85731270D01*
X163072120Y-85381949D01*
X163150000Y-85397440D01*
X163950000Y-85397440D01*
X164197765Y-85348157D01*
X164223000Y-85331295D01*
X164223000Y-85547240D01*
X164202560Y-85650000D01*
X164202560Y-86150000D01*
X164223000Y-86252760D01*
X164223000Y-86400000D01*
X164232667Y-86448601D01*
X164260197Y-86489803D01*
X164301399Y-86517333D01*
X164336386Y-86524292D01*
X164392191Y-86607809D01*
X164602235Y-86748157D01*
X164621994Y-86752087D01*
X164716490Y-86893510D01*
X164778276Y-86934794D01*
X164823000Y-86979518D01*
X164823000Y-88222341D01*
X164782809Y-88162191D01*
X164572765Y-88021843D01*
X164325000Y-87972560D01*
X163675000Y-87972560D01*
X163600989Y-87987282D01*
X163386276Y-87772569D01*
X163005870Y-87615000D01*
X162594122Y-87615000D01*
X162213716Y-87772569D01*
X162076285Y-87910000D01*
X153872881Y-87910000D01*
X153800000Y-87895503D01*
X153727119Y-87910000D01*
X153511266Y-87952936D01*
X153266490Y-88116490D01*
X153225204Y-88178279D01*
X150743482Y-90660000D01*
X148077000Y-90660000D01*
X148077000Y-89861743D01*
X148077000Y-89861743D01*
G37*
X148077000Y-89861743D02*
X148085867Y-89840336D01*
X148085867Y-89428588D01*
X147928298Y-89048182D01*
X147637147Y-88757031D01*
X147256741Y-88599462D01*
X147062384Y-88599462D01*
X146189999Y-87727076D01*
X146190000Y-78572881D01*
X146204497Y-78500000D01*
X146176901Y-78361268D01*
X146147064Y-78211267D01*
X145983510Y-77966490D01*
X145921721Y-77925204D01*
X145324794Y-77328277D01*
X145283510Y-77266490D01*
X145038734Y-77102936D01*
X144822881Y-77060000D01*
X144822878Y-77060000D01*
X144750001Y-77045504D01*
X144677124Y-77060000D01*
X142303022Y-77060000D01*
X142277880Y-77054999D01*
X142277877Y-77054999D01*
X142205000Y-77040503D01*
X142132123Y-77054999D01*
X138577000Y-77054999D01*
X138577000Y-75200000D01*
X138567333Y-75151399D01*
X138539803Y-75110197D01*
X138498601Y-75082667D01*
X138450000Y-75073000D01*
X137532920Y-75073000D01*
X137547440Y-75000000D01*
X137547440Y-74200000D01*
X137498157Y-73952235D01*
X137357809Y-73742191D01*
X137147765Y-73601843D01*
X136900000Y-73552560D01*
X136200000Y-73552560D01*
X135952235Y-73601843D01*
X135742191Y-73742191D01*
X135663473Y-73860000D01*
X132111527Y-73860000D01*
X132032809Y-73742191D01*
X131822765Y-73601843D01*
X131575000Y-73552560D01*
X131274077Y-73552560D01*
X130349794Y-72628276D01*
X130308510Y-72566490D01*
X130063734Y-72402936D01*
X129847881Y-72360000D01*
X129775000Y-72345503D01*
X129702119Y-72360000D01*
X126973711Y-72360000D01*
X126836280Y-72222569D01*
X126455874Y-72065000D01*
X126044126Y-72065000D01*
X125663720Y-72222569D01*
X125372569Y-72513720D01*
X125215000Y-72894126D01*
X125215000Y-73305874D01*
X125340862Y-73609734D01*
X114205000Y-73609734D01*
X114185000Y-73509187D01*
X114185000Y-73254887D01*
X114087684Y-73019945D01*
X114071409Y-72938125D01*
X114025062Y-72868762D01*
X113920862Y-72617201D01*
X113728324Y-72424663D01*
X113690972Y-72368762D01*
X113635071Y-72331410D01*
X113432799Y-72129138D01*
X113168521Y-72019670D01*
X113121609Y-71988325D01*
X113066273Y-71977318D01*
X112795113Y-71865000D01*
X112501611Y-71865000D01*
X112450000Y-71854734D01*
X112398389Y-71865000D01*
X112104887Y-71865000D01*
X111833727Y-71977318D01*
X111778391Y-71988325D01*
X111731479Y-72019670D01*
X111467201Y-72129138D01*
X111264929Y-72331410D01*
X111209028Y-72368762D01*
X111171676Y-72424663D01*
X110979138Y-72617201D01*
X110874938Y-72868762D01*
X110828591Y-72938125D01*
X110812316Y-73019945D01*
X110715000Y-73254887D01*
X110715000Y-73509187D01*
X110695000Y-73609734D01*
X110715000Y-73710281D01*
X110715000Y-73945113D01*
X110804866Y-74162069D01*
X110828591Y-74281343D01*
X110896154Y-74382458D01*
X110979138Y-74582799D01*
X111132474Y-74736135D01*
X111209028Y-74850706D01*
X111323599Y-74927260D01*
X111467201Y-75070862D01*
X111654824Y-75148578D01*
X111778391Y-75231143D01*
X111924149Y-75260136D01*
X112104887Y-75335000D01*
X112300517Y-75335000D01*
X112450000Y-75364734D01*
X112599483Y-75335000D01*
X112795113Y-75335000D01*
X112975851Y-75260136D01*
X113121609Y-75231143D01*
X113245176Y-75148578D01*
X113432799Y-75070862D01*
X113576401Y-74927260D01*
X113690972Y-74850706D01*
X113767526Y-74736135D01*
X113920862Y-74582799D01*
X114003846Y-74382458D01*
X114071409Y-74281343D01*
X114095134Y-74162069D01*
X114185000Y-73945113D01*
X114185000Y-73710281D01*
X114205000Y-73609734D01*
X125340862Y-73609734D01*
X125372569Y-73686280D01*
X125663720Y-73977431D01*
X126044126Y-74135000D01*
X126455874Y-74135000D01*
X126836280Y-73977431D01*
X126973711Y-73840000D01*
X129123000Y-73840000D01*
X129123000Y-77700000D01*
X129127973Y-77725000D01*
X118957881Y-77725000D01*
X118885000Y-77710503D01*
X118812119Y-77725000D01*
X118596266Y-77767936D01*
X118351490Y-77931490D01*
X118310204Y-77993279D01*
X115643482Y-80660000D01*
X115187815Y-80660000D01*
X115075000Y-80637560D01*
X113825000Y-80637560D01*
X113577235Y-80686843D01*
X113367191Y-80827191D01*
X113226843Y-81037235D01*
X113177560Y-81285000D01*
X113177560Y-81515000D01*
X113204413Y-81650000D01*
X113177560Y-81785000D01*
X113177560Y-82015000D01*
X113204413Y-82150000D01*
X113177560Y-82285000D01*
X113177560Y-82515000D01*
X113204413Y-82650000D01*
X113177560Y-82785000D01*
X113177560Y-83015000D01*
X113204413Y-83150000D01*
X113177560Y-83285000D01*
X113177560Y-83515000D01*
X113204413Y-83650000D01*
X113177560Y-83785000D01*
X113177560Y-84015000D01*
X113204413Y-84150000D01*
X113177560Y-84285000D01*
X113177560Y-84515000D01*
X113204413Y-84650000D01*
X113177560Y-84785000D01*
X113177560Y-85015000D01*
X113204413Y-85150000D01*
X113177560Y-85285000D01*
X113177560Y-85473000D01*
X112103868Y-85473000D01*
X110784999Y-84154130D01*
X110785000Y-80497440D01*
X112775000Y-80497440D01*
X113022765Y-80448157D01*
X113232809Y-80307809D01*
X113353623Y-80127000D01*
X114224812Y-80127000D01*
X114244126Y-80135000D01*
X114655874Y-80135000D01*
X114675188Y-80127000D01*
X114750000Y-80127000D01*
X114798601Y-80117333D01*
X114839803Y-80089803D01*
X114867333Y-80048601D01*
X114867591Y-80047304D01*
X115036280Y-79977431D01*
X115327431Y-79686280D01*
X115485000Y-79305874D01*
X115485000Y-78894126D01*
X115327431Y-78513720D01*
X115289769Y-78476058D01*
X115285000Y-78452082D01*
X115285000Y-78452078D01*
X115236552Y-78208514D01*
X115052000Y-77932314D01*
X114982282Y-77885730D01*
X113164270Y-76067717D01*
X113117686Y-75997999D01*
X112841486Y-75813448D01*
X112703629Y-75786026D01*
X112698601Y-75782667D01*
X112650000Y-75773000D01*
X112638141Y-75773000D01*
X112597922Y-75765000D01*
X112515685Y-75748642D01*
X112433448Y-75765000D01*
X110632233Y-75765000D01*
X110550000Y-75748643D01*
X110467767Y-75765000D01*
X110467763Y-75765000D01*
X110427544Y-75773000D01*
X109985000Y-75773000D01*
X109985000Y-71835000D01*
X150423000Y-71835000D01*
X150423000Y-72533390D01*
X150315000Y-72794126D01*
X150315000Y-73205874D01*
X150423000Y-73466610D01*
X150423000Y-73760000D01*
X149722881Y-73760000D01*
X149650000Y-73745503D01*
X149577119Y-73760000D01*
X149361266Y-73802936D01*
X149116490Y-73966490D01*
X149075204Y-74028279D01*
X146558254Y-76545228D01*
X146496468Y-76586512D01*
X146332914Y-76831288D01*
X146289978Y-77047141D01*
X146289978Y-77047142D01*
X146275481Y-77120022D01*
X146289978Y-77192903D01*
X146289978Y-81402092D01*
X146275482Y-81474969D01*
X146289978Y-81547846D01*
X146289978Y-81547849D01*
X146332914Y-81763702D01*
X146496468Y-82008478D01*
X146558254Y-82049762D01*
X149415000Y-84906507D01*
X149415000Y-85100864D01*
X149572569Y-85481270D01*
X149863720Y-85772421D01*
X150244126Y-85929990D01*
X150655874Y-85929990D01*
X151036280Y-85772421D01*
X151327431Y-85481270D01*
X151485000Y-85100864D01*
X151485000Y-84827000D01*
X152824812Y-84827000D01*
X152844126Y-84835000D01*
X153255874Y-84835000D01*
X153275188Y-84827000D01*
X153550000Y-84827000D01*
X153598601Y-84817333D01*
X153639803Y-84789803D01*
X153667333Y-84748601D01*
X153677000Y-84700000D01*
X153677000Y-84636711D01*
X153927431Y-84386280D01*
X154085000Y-84005874D01*
X154085000Y-83594126D01*
X153927431Y-83213720D01*
X153877000Y-83163289D01*
X153877000Y-80300000D01*
X153867333Y-80251399D01*
X153839803Y-80210197D01*
X153798601Y-80182667D01*
X153750000Y-80173000D01*
X153650193Y-80173000D01*
X153704497Y-79900000D01*
X153689999Y-79827115D01*
X153690000Y-78103118D01*
X153757809Y-78057809D01*
X153898157Y-77847765D01*
X153947440Y-77600000D01*
X153947440Y-76800000D01*
X153913623Y-76629989D01*
X155176875Y-76629989D01*
X155810000Y-77263113D01*
X155810000Y-77427119D01*
X155795503Y-77500000D01*
X155810000Y-77572881D01*
X155810000Y-77696882D01*
X155742191Y-77742191D01*
X155601843Y-77952235D01*
X155552560Y-78200000D01*
X155552560Y-79000000D01*
X155601843Y-79247765D01*
X155742191Y-79457809D01*
X155952235Y-79598157D01*
X156200000Y-79647440D01*
X156465000Y-79647440D01*
X156465000Y-80005872D01*
X156622569Y-80386278D01*
X156913720Y-80677429D01*
X157294126Y-80834998D01*
X157705874Y-80834998D01*
X158086280Y-80677429D01*
X158377431Y-80386278D01*
X158535000Y-80005872D01*
X158535000Y-79594124D01*
X158377431Y-79213718D01*
X158086280Y-78922567D01*
X157715504Y-78768987D01*
X157547440Y-78600922D01*
X157547440Y-78240000D01*
X159743482Y-78240000D01*
X162323000Y-80819518D01*
X162323000Y-83825381D01*
X162261476Y-83866490D01*
X162220190Y-83928279D01*
X162038479Y-84109990D01*
X161844122Y-84109990D01*
X161463716Y-84267559D01*
X161172565Y-84558710D01*
X161014996Y-84939116D01*
X161014996Y-85350864D01*
X161172565Y-85731270D01*
X161463716Y-86022421D01*
X161844122Y-86179990D01*
X162255870Y-86179990D01*
X162636276Y-86022421D01*
X162927427Y-85731270D01*
X163072120Y-85381949D01*
X163150000Y-85397440D01*
X163950000Y-85397440D01*
X164197765Y-85348157D01*
X164223000Y-85331295D01*
X164223000Y-85547240D01*
X164202560Y-85650000D01*
X164202560Y-86150000D01*
X164223000Y-86252760D01*
X164223000Y-86400000D01*
X164232667Y-86448601D01*
X164260197Y-86489803D01*
X164301399Y-86517333D01*
X164336386Y-86524292D01*
X164392191Y-86607809D01*
X164602235Y-86748157D01*
X164621994Y-86752087D01*
X164716490Y-86893510D01*
X164778276Y-86934794D01*
X164823000Y-86979518D01*
X164823000Y-88222341D01*
X164782809Y-88162191D01*
X164572765Y-88021843D01*
X164325000Y-87972560D01*
X163675000Y-87972560D01*
X163600989Y-87987282D01*
X163386276Y-87772569D01*
X163005870Y-87615000D01*
X162594122Y-87615000D01*
X162213716Y-87772569D01*
X162076285Y-87910000D01*
X153872881Y-87910000D01*
X153800000Y-87895503D01*
X153727119Y-87910000D01*
X153511266Y-87952936D01*
X153266490Y-88116490D01*
X153225204Y-88178279D01*
X150743482Y-90660000D01*
X148077000Y-90660000D01*
X148077000Y-89861743D01*
G36*
X166890000Y-83672881D02*
X166904497Y-83600000D01*
X166879197Y-83472809D01*
X166847064Y-83311267D01*
X166683510Y-83066490D01*
X166621721Y-83025204D01*
X160624794Y-77028276D01*
X160583510Y-76966490D01*
X160338734Y-76802936D01*
X160122881Y-76760000D01*
X160050000Y-76745503D01*
X159977119Y-76760000D01*
X158277000Y-76760000D01*
X158277000Y-73965774D01*
X158444126Y-74035000D01*
X158855874Y-74035000D01*
X159236280Y-73877431D01*
X159527431Y-73586280D01*
X159667251Y-73248723D01*
X159667333Y-73248601D01*
X159667362Y-73248457D01*
X159685000Y-73205874D01*
X159685000Y-72794126D01*
X159677000Y-72774812D01*
X159677000Y-71835000D01*
X165715000Y-71835000D01*
X165715000Y-72005874D01*
X165872569Y-72386280D01*
X166010000Y-72523711D01*
X166010000Y-74676289D01*
X165872569Y-74813720D01*
X165715000Y-75194126D01*
X165715000Y-75605874D01*
X165872569Y-75986280D01*
X166163720Y-76277431D01*
X166544126Y-76435000D01*
X166738482Y-76435000D01*
X167210000Y-76906517D01*
X167210000Y-84573000D01*
X166890000Y-84573000D01*
X166890000Y-83672881D01*
X166890000Y-83672881D01*
G37*
X166890000Y-83672881D02*
X166904497Y-83600000D01*
X166879197Y-83472809D01*
X166847064Y-83311267D01*
X166683510Y-83066490D01*
X166621721Y-83025204D01*
X160624794Y-77028276D01*
X160583510Y-76966490D01*
X160338734Y-76802936D01*
X160122881Y-76760000D01*
X160050000Y-76745503D01*
X159977119Y-76760000D01*
X158277000Y-76760000D01*
X158277000Y-73965774D01*
X158444126Y-74035000D01*
X158855874Y-74035000D01*
X159236280Y-73877431D01*
X159527431Y-73586280D01*
X159667251Y-73248723D01*
X159667333Y-73248601D01*
X159667362Y-73248457D01*
X159685000Y-73205874D01*
X159685000Y-72794126D01*
X159677000Y-72774812D01*
X159677000Y-71835000D01*
X165715000Y-71835000D01*
X165715000Y-72005874D01*
X165872569Y-72386280D01*
X166010000Y-72523711D01*
X166010000Y-74676289D01*
X165872569Y-74813720D01*
X165715000Y-75194126D01*
X165715000Y-75605874D01*
X165872569Y-75986280D01*
X166163720Y-76277431D01*
X166544126Y-76435000D01*
X166738482Y-76435000D01*
X167210000Y-76906517D01*
X167210000Y-84573000D01*
X166890000Y-84573000D01*
X166890000Y-83672881D01*
G36*
X150715000Y-79503118D02*
X150782809Y-79457809D01*
X150923157Y-79247765D01*
X150972440Y-79000000D01*
X150972440Y-78200000D01*
X150923157Y-77952235D01*
X150782809Y-77742191D01*
X150771824Y-77734851D01*
X151876685Y-76629989D01*
X151986377Y-76629989D01*
X151952560Y-76800000D01*
X151952560Y-77600000D01*
X152001843Y-77847765D01*
X152142191Y-78057809D01*
X152210000Y-78103118D01*
X152210000Y-79593483D01*
X152148033Y-79655450D01*
X151937541Y-79655450D01*
X151557135Y-79813019D01*
X151265984Y-80104170D01*
X151237474Y-80173000D01*
X150714999Y-80173000D01*
X150715000Y-79503118D01*
X150715000Y-79503118D01*
G37*
X150715000Y-79503118D02*
X150782809Y-79457809D01*
X150923157Y-79247765D01*
X150972440Y-79000000D01*
X150972440Y-78200000D01*
X150923157Y-77952235D01*
X150782809Y-77742191D01*
X150771824Y-77734851D01*
X151876685Y-76629989D01*
X151986377Y-76629989D01*
X151952560Y-76800000D01*
X151952560Y-77600000D01*
X152001843Y-77847765D01*
X152142191Y-78057809D01*
X152210000Y-78103118D01*
X152210000Y-79593483D01*
X152148033Y-79655450D01*
X151937541Y-79655450D01*
X151557135Y-79813019D01*
X151265984Y-80104170D01*
X151237474Y-80173000D01*
X150714999Y-80173000D01*
X150715000Y-79503118D01*
G36*
X129072440Y-84627000D02*
X132750000Y-84627000D01*
X132798601Y-84617333D01*
X132839803Y-84589803D01*
X132867333Y-84548601D01*
X132877000Y-84500000D01*
X132877000Y-82582760D01*
X132897440Y-82480000D01*
X132897440Y-82070000D01*
X132875063Y-81957500D01*
X132897440Y-81845000D01*
X132897440Y-81435000D01*
X132875063Y-81322500D01*
X132897440Y-81210000D01*
X132897440Y-80800000D01*
X132875063Y-80687500D01*
X132897440Y-80575000D01*
X132897440Y-80165000D01*
X132875063Y-80052500D01*
X132897440Y-79940000D01*
X132897440Y-79530000D01*
X132875063Y-79417500D01*
X132897440Y-79305000D01*
X132897440Y-78895000D01*
X132875063Y-78782500D01*
X132897440Y-78670000D01*
X132897440Y-78260000D01*
X132848157Y-78012235D01*
X132726391Y-77830000D01*
X132728395Y-77827000D01*
X135080205Y-77827000D01*
X135082209Y-77830000D01*
X134960443Y-78012235D01*
X134911160Y-78260000D01*
X134911160Y-78670000D01*
X134933537Y-78782500D01*
X134911160Y-78895000D01*
X134911160Y-79305000D01*
X134933537Y-79417500D01*
X134911160Y-79530000D01*
X134911160Y-79940000D01*
X134933537Y-80052500D01*
X134911160Y-80165000D01*
X134911160Y-80575000D01*
X134933537Y-80687500D01*
X134911160Y-80800000D01*
X134911160Y-81210000D01*
X134933537Y-81322500D01*
X134911160Y-81435000D01*
X134911160Y-81845000D01*
X134933537Y-81957500D01*
X134911160Y-82070000D01*
X134911160Y-82480000D01*
X134929015Y-82569762D01*
X134923000Y-82600000D01*
X134923000Y-84600000D01*
X134932667Y-84648601D01*
X134960197Y-84689803D01*
X135001399Y-84717333D01*
X135050000Y-84727000D01*
X138752560Y-84727000D01*
X138752560Y-84860000D01*
X129072440Y-84860000D01*
X129072440Y-84627000D01*
X129072440Y-84627000D01*
G37*
X129072440Y-84627000D02*
X132750000Y-84627000D01*
X132798601Y-84617333D01*
X132839803Y-84589803D01*
X132867333Y-84548601D01*
X132877000Y-84500000D01*
X132877000Y-82582760D01*
X132897440Y-82480000D01*
X132897440Y-82070000D01*
X132875063Y-81957500D01*
X132897440Y-81845000D01*
X132897440Y-81435000D01*
X132875063Y-81322500D01*
X132897440Y-81210000D01*
X132897440Y-80800000D01*
X132875063Y-80687500D01*
X132897440Y-80575000D01*
X132897440Y-80165000D01*
X132875063Y-80052500D01*
X132897440Y-79940000D01*
X132897440Y-79530000D01*
X132875063Y-79417500D01*
X132897440Y-79305000D01*
X132897440Y-78895000D01*
X132875063Y-78782500D01*
X132897440Y-78670000D01*
X132897440Y-78260000D01*
X132848157Y-78012235D01*
X132726391Y-77830000D01*
X132728395Y-77827000D01*
X135080205Y-77827000D01*
X135082209Y-77830000D01*
X134960443Y-78012235D01*
X134911160Y-78260000D01*
X134911160Y-78670000D01*
X134933537Y-78782500D01*
X134911160Y-78895000D01*
X134911160Y-79305000D01*
X134933537Y-79417500D01*
X134911160Y-79530000D01*
X134911160Y-79940000D01*
X134933537Y-80052500D01*
X134911160Y-80165000D01*
X134911160Y-80575000D01*
X134933537Y-80687500D01*
X134911160Y-80800000D01*
X134911160Y-81210000D01*
X134933537Y-81322500D01*
X134911160Y-81435000D01*
X134911160Y-81845000D01*
X134933537Y-81957500D01*
X134911160Y-82070000D01*
X134911160Y-82480000D01*
X134929015Y-82569762D01*
X134923000Y-82600000D01*
X134923000Y-84600000D01*
X134932667Y-84648601D01*
X134960197Y-84689803D01*
X135001399Y-84717333D01*
X135050000Y-84727000D01*
X138752560Y-84727000D01*
X138752560Y-84860000D01*
X129072440Y-84860000D01*
X129072440Y-84627000D01*
G36*
X185390000Y-89290367D02*
X185389999Y-88969709D01*
X185407809Y-88957809D01*
X185548157Y-88747765D01*
X185597440Y-88500000D01*
X185597440Y-87300000D01*
X185548157Y-87052235D01*
X185407809Y-86842191D01*
X185197765Y-86701843D01*
X184950000Y-86652560D01*
X184250000Y-86652560D01*
X184050000Y-86692342D01*
X183877000Y-86657931D01*
X183877000Y-84494518D01*
X184244518Y-84127000D01*
X186810000Y-84127000D01*
X186810000Y-89193483D01*
X186799951Y-89203531D01*
X186647765Y-89101843D01*
X186400000Y-89052560D01*
X185900000Y-89052560D01*
X185652235Y-89101843D01*
X185442191Y-89242191D01*
X185400000Y-89305334D01*
X185390000Y-89290367D01*
X185390000Y-89290367D01*
G37*
X185390000Y-89290367D02*
X185389999Y-88969709D01*
X185407809Y-88957809D01*
X185548157Y-88747765D01*
X185597440Y-88500000D01*
X185597440Y-87300000D01*
X185548157Y-87052235D01*
X185407809Y-86842191D01*
X185197765Y-86701843D01*
X184950000Y-86652560D01*
X184250000Y-86652560D01*
X184050000Y-86692342D01*
X183877000Y-86657931D01*
X183877000Y-84494518D01*
X184244518Y-84127000D01*
X186810000Y-84127000D01*
X186810000Y-89193483D01*
X186799951Y-89203531D01*
X186647765Y-89101843D01*
X186400000Y-89052560D01*
X185900000Y-89052560D01*
X185652235Y-89101843D01*
X185442191Y-89242191D01*
X185400000Y-89305334D01*
X185390000Y-89290367D01*
G36*
X161577000Y-102595899D02*
X161635000Y-102455874D01*
X161635000Y-102044126D01*
X161477431Y-101663720D01*
X161186280Y-101372569D01*
X160805874Y-101215000D01*
X160804446Y-101215000D01*
X160677000Y-101087554D01*
X160677000Y-100000000D01*
X160669840Y-99964003D01*
X160669840Y-99889002D01*
X160512271Y-99508596D01*
X160221120Y-99217445D01*
X159840714Y-99059876D01*
X159646357Y-99059876D01*
X159414760Y-98828279D01*
X159373474Y-98766490D01*
X159128698Y-98602936D01*
X158912845Y-98560000D01*
X158912842Y-98560000D01*
X158839965Y-98545504D01*
X158767088Y-98560000D01*
X157537074Y-98560000D01*
X157464193Y-98545503D01*
X157391312Y-98560000D01*
X157175459Y-98602936D01*
X156930683Y-98766490D01*
X156889397Y-98828279D01*
X156578279Y-99139397D01*
X156516490Y-99180683D01*
X156352936Y-99425459D01*
X156312440Y-99629045D01*
X156312440Y-98875000D01*
X156290000Y-98762185D01*
X156289999Y-92527000D01*
X159350000Y-92527000D01*
X159398601Y-92517333D01*
X159439508Y-92490000D01*
X160323000Y-92490000D01*
X160323000Y-92961744D01*
X160295499Y-93100000D01*
X160310000Y-93172901D01*
X160310000Y-93222881D01*
X160323000Y-93288236D01*
X160323000Y-93536971D01*
X160150000Y-93502560D01*
X159650000Y-93502560D01*
X159402235Y-93551843D01*
X159192191Y-93692191D01*
X159051843Y-93902235D01*
X159043845Y-93942444D01*
X159022569Y-93963720D01*
X158865000Y-94344126D01*
X158865000Y-94755874D01*
X159022569Y-95136280D01*
X159043845Y-95157556D01*
X159051843Y-95197765D01*
X159192191Y-95407809D01*
X159402235Y-95548157D01*
X159650000Y-95597440D01*
X160150000Y-95597440D01*
X160397765Y-95548157D01*
X160607809Y-95407809D01*
X160748157Y-95197765D01*
X160756155Y-95157556D01*
X160777431Y-95136280D01*
X160935000Y-94755874D01*
X160935000Y-94344126D01*
X160877000Y-94204101D01*
X160877000Y-94163029D01*
X161050000Y-94197440D01*
X161615000Y-94197440D01*
X161615000Y-94355878D01*
X161772569Y-94736284D01*
X162010000Y-94973715D01*
X162010000Y-95827119D01*
X161995503Y-95900000D01*
X162052936Y-96188734D01*
X162216490Y-96433510D01*
X162461266Y-96597064D01*
X162677119Y-96640000D01*
X162750000Y-96654497D01*
X162822881Y-96640000D01*
X163030407Y-96640000D01*
X163051843Y-96747765D01*
X163192191Y-96957809D01*
X163402235Y-97098157D01*
X163650000Y-97147440D01*
X164650000Y-97147440D01*
X164897765Y-97098157D01*
X165107809Y-96957809D01*
X165248157Y-96747765D01*
X165297440Y-96500000D01*
X165297440Y-95300000D01*
X165277000Y-95197240D01*
X165277000Y-94881295D01*
X165302235Y-94898157D01*
X165550000Y-94947440D01*
X166550000Y-94947440D01*
X166797765Y-94898157D01*
X167007809Y-94757809D01*
X167116062Y-94595798D01*
X167250000Y-94622440D01*
X168050000Y-94622440D01*
X168297765Y-94573157D01*
X168507809Y-94432809D01*
X168648157Y-94222765D01*
X168697440Y-93975000D01*
X168697440Y-93674078D01*
X169521721Y-92849796D01*
X169583510Y-92808510D01*
X169747064Y-92563733D01*
X169760324Y-92497072D01*
X169804497Y-92275000D01*
X169790000Y-92202119D01*
X169789999Y-90867875D01*
X169804497Y-90794990D01*
X169777000Y-90656755D01*
X169777000Y-88784828D01*
X170036280Y-88677431D01*
X170173711Y-88540000D01*
X171942211Y-88540000D01*
X172159467Y-88629990D01*
X172571215Y-88629990D01*
X172710000Y-88572503D01*
X172710000Y-94273000D01*
X170675188Y-94273000D01*
X170655874Y-94265000D01*
X170244126Y-94265000D01*
X170201543Y-94282638D01*
X170201399Y-94282667D01*
X170201277Y-94282749D01*
X169863720Y-94422569D01*
X169726289Y-94560000D01*
X169307196Y-94560000D01*
X169234315Y-94545503D01*
X169161434Y-94560000D01*
X168945581Y-94602936D01*
X168700805Y-94766490D01*
X168659519Y-94828279D01*
X163628276Y-99859521D01*
X163566490Y-99900805D01*
X163402936Y-100145581D01*
X163381142Y-100255147D01*
X163222569Y-100413720D01*
X163065000Y-100794126D01*
X163065000Y-101205874D01*
X163222569Y-101586280D01*
X163513720Y-101877431D01*
X163894126Y-102035000D01*
X164088483Y-102035000D01*
X164225204Y-102171721D01*
X164266490Y-102233510D01*
X164290000Y-102249219D01*
X164290000Y-102488483D01*
X163823492Y-102954990D01*
X161577000Y-102954990D01*
X161577000Y-102595899D01*
X161577000Y-102595899D01*
G37*
X161577000Y-102595899D02*
X161635000Y-102455874D01*
X161635000Y-102044126D01*
X161477431Y-101663720D01*
X161186280Y-101372569D01*
X160805874Y-101215000D01*
X160804446Y-101215000D01*
X160677000Y-101087554D01*
X160677000Y-100000000D01*
X160669840Y-99964003D01*
X160669840Y-99889002D01*
X160512271Y-99508596D01*
X160221120Y-99217445D01*
X159840714Y-99059876D01*
X159646357Y-99059876D01*
X159414760Y-98828279D01*
X159373474Y-98766490D01*
X159128698Y-98602936D01*
X158912845Y-98560000D01*
X158912842Y-98560000D01*
X158839965Y-98545504D01*
X158767088Y-98560000D01*
X157537074Y-98560000D01*
X157464193Y-98545503D01*
X157391312Y-98560000D01*
X157175459Y-98602936D01*
X156930683Y-98766490D01*
X156889397Y-98828279D01*
X156578279Y-99139397D01*
X156516490Y-99180683D01*
X156352936Y-99425459D01*
X156312440Y-99629045D01*
X156312440Y-98875000D01*
X156290000Y-98762185D01*
X156289999Y-92527000D01*
X159350000Y-92527000D01*
X159398601Y-92517333D01*
X159439508Y-92490000D01*
X160323000Y-92490000D01*
X160323000Y-92961744D01*
X160295499Y-93100000D01*
X160310000Y-93172901D01*
X160310000Y-93222881D01*
X160323000Y-93288236D01*
X160323000Y-93536971D01*
X160150000Y-93502560D01*
X159650000Y-93502560D01*
X159402235Y-93551843D01*
X159192191Y-93692191D01*
X159051843Y-93902235D01*
X159043845Y-93942444D01*
X159022569Y-93963720D01*
X158865000Y-94344126D01*
X158865000Y-94755874D01*
X159022569Y-95136280D01*
X159043845Y-95157556D01*
X159051843Y-95197765D01*
X159192191Y-95407809D01*
X159402235Y-95548157D01*
X159650000Y-95597440D01*
X160150000Y-95597440D01*
X160397765Y-95548157D01*
X160607809Y-95407809D01*
X160748157Y-95197765D01*
X160756155Y-95157556D01*
X160777431Y-95136280D01*
X160935000Y-94755874D01*
X160935000Y-94344126D01*
X160877000Y-94204101D01*
X160877000Y-94163029D01*
X161050000Y-94197440D01*
X161615000Y-94197440D01*
X161615000Y-94355878D01*
X161772569Y-94736284D01*
X162010000Y-94973715D01*
X162010000Y-95827119D01*
X161995503Y-95900000D01*
X162052936Y-96188734D01*
X162216490Y-96433510D01*
X162461266Y-96597064D01*
X162677119Y-96640000D01*
X162750000Y-96654497D01*
X162822881Y-96640000D01*
X163030407Y-96640000D01*
X163051843Y-96747765D01*
X163192191Y-96957809D01*
X163402235Y-97098157D01*
X163650000Y-97147440D01*
X164650000Y-97147440D01*
X164897765Y-97098157D01*
X165107809Y-96957809D01*
X165248157Y-96747765D01*
X165297440Y-96500000D01*
X165297440Y-95300000D01*
X165277000Y-95197240D01*
X165277000Y-94881295D01*
X165302235Y-94898157D01*
X165550000Y-94947440D01*
X166550000Y-94947440D01*
X166797765Y-94898157D01*
X167007809Y-94757809D01*
X167116062Y-94595798D01*
X167250000Y-94622440D01*
X168050000Y-94622440D01*
X168297765Y-94573157D01*
X168507809Y-94432809D01*
X168648157Y-94222765D01*
X168697440Y-93975000D01*
X168697440Y-93674078D01*
X169521721Y-92849796D01*
X169583510Y-92808510D01*
X169747064Y-92563733D01*
X169760324Y-92497072D01*
X169804497Y-92275000D01*
X169790000Y-92202119D01*
X169789999Y-90867875D01*
X169804497Y-90794990D01*
X169777000Y-90656755D01*
X169777000Y-88784828D01*
X170036280Y-88677431D01*
X170173711Y-88540000D01*
X171942211Y-88540000D01*
X172159467Y-88629990D01*
X172571215Y-88629990D01*
X172710000Y-88572503D01*
X172710000Y-94273000D01*
X170675188Y-94273000D01*
X170655874Y-94265000D01*
X170244126Y-94265000D01*
X170201543Y-94282638D01*
X170201399Y-94282667D01*
X170201277Y-94282749D01*
X169863720Y-94422569D01*
X169726289Y-94560000D01*
X169307196Y-94560000D01*
X169234315Y-94545503D01*
X169161434Y-94560000D01*
X168945581Y-94602936D01*
X168700805Y-94766490D01*
X168659519Y-94828279D01*
X163628276Y-99859521D01*
X163566490Y-99900805D01*
X163402936Y-100145581D01*
X163381142Y-100255147D01*
X163222569Y-100413720D01*
X163065000Y-100794126D01*
X163065000Y-101205874D01*
X163222569Y-101586280D01*
X163513720Y-101877431D01*
X163894126Y-102035000D01*
X164088483Y-102035000D01*
X164225204Y-102171721D01*
X164266490Y-102233510D01*
X164290000Y-102249219D01*
X164290000Y-102488483D01*
X163823492Y-102954990D01*
X161577000Y-102954990D01*
X161577000Y-102595899D01*
G36*
X164650000Y-92452560D02*
X163886844Y-92452560D01*
X163698596Y-92415115D01*
X163777431Y-92336280D01*
X163935000Y-91955874D01*
X163935000Y-91544126D01*
X163777431Y-91163720D01*
X163763239Y-91149528D01*
X163884867Y-90855890D01*
X163884867Y-90667440D01*
X164325000Y-90667440D01*
X164572765Y-90618157D01*
X164782809Y-90477809D01*
X164825000Y-90414666D01*
X164830234Y-90422500D01*
X164726843Y-90577235D01*
X164677560Y-90825000D01*
X164677560Y-92225000D01*
X164725824Y-92467642D01*
X164650000Y-92452560D01*
X164650000Y-92452560D01*
G37*
X164650000Y-92452560D02*
X163886844Y-92452560D01*
X163698596Y-92415115D01*
X163777431Y-92336280D01*
X163935000Y-91955874D01*
X163935000Y-91544126D01*
X163777431Y-91163720D01*
X163763239Y-91149528D01*
X163884867Y-90855890D01*
X163884867Y-90667440D01*
X164325000Y-90667440D01*
X164572765Y-90618157D01*
X164782809Y-90477809D01*
X164825000Y-90414666D01*
X164830234Y-90422500D01*
X164726843Y-90577235D01*
X164677560Y-90825000D01*
X164677560Y-92225000D01*
X164725824Y-92467642D01*
X164650000Y-92452560D01*
G36*
X167007809Y-92642191D02*
X166797765Y-92501843D01*
X166576142Y-92457760D01*
X166622440Y-92225000D01*
X166622440Y-90825000D01*
X166573157Y-90577235D01*
X166472772Y-90427000D01*
X167436907Y-90427000D01*
X167444126Y-90429990D01*
X167638482Y-90429990D01*
X168310000Y-91101507D01*
X168310000Y-91968483D01*
X167650922Y-92627560D01*
X167250000Y-92627560D01*
X167027593Y-92671799D01*
X167007809Y-92642191D01*
X167007809Y-92642191D01*
G37*
X167007809Y-92642191D02*
X166797765Y-92501843D01*
X166576142Y-92457760D01*
X166622440Y-92225000D01*
X166622440Y-90825000D01*
X166573157Y-90577235D01*
X166472772Y-90427000D01*
X167436907Y-90427000D01*
X167444126Y-90429990D01*
X167638482Y-90429990D01*
X168310000Y-91101507D01*
X168310000Y-91968483D01*
X167650922Y-92627560D01*
X167250000Y-92627560D01*
X167027593Y-92671799D01*
X167007809Y-92642191D01*
G36*
X141736280Y-98722569D02*
X141355874Y-98565000D01*
X140944126Y-98565000D01*
X140563720Y-98722569D01*
X140521289Y-98765000D01*
X138977000Y-98765000D01*
X138977000Y-98025188D01*
X138985000Y-98005874D01*
X138985000Y-97594126D01*
X138977000Y-97574812D01*
X138977000Y-97500000D01*
X138967333Y-97451399D01*
X138939803Y-97410197D01*
X138898601Y-97382667D01*
X138897304Y-97382409D01*
X138827431Y-97213720D01*
X138690000Y-97076289D01*
X138689999Y-91728722D01*
X138827431Y-91591290D01*
X138985000Y-91210884D01*
X138985000Y-91040006D01*
X142525438Y-91040006D01*
X142672771Y-91187339D01*
X142837258Y-91255471D01*
X142860197Y-91289803D01*
X142901399Y-91317333D01*
X142950000Y-91327000D01*
X143009943Y-91327000D01*
X143053177Y-91344908D01*
X143464925Y-91344908D01*
X143508159Y-91327000D01*
X144290045Y-91327000D01*
X144834766Y-91871721D01*
X144876052Y-91933510D01*
X145120828Y-92097064D01*
X145336681Y-92140000D01*
X145409562Y-92154497D01*
X145482443Y-92140000D01*
X147523000Y-92140000D01*
X147523000Y-92382794D01*
X147427235Y-92401843D01*
X147217191Y-92542191D01*
X147076843Y-92752235D01*
X147027560Y-93000000D01*
X147027560Y-93460000D01*
X145172881Y-93460000D01*
X145100000Y-93445503D01*
X145027119Y-93460000D01*
X144811266Y-93502936D01*
X144566490Y-93666490D01*
X144525204Y-93728279D01*
X144228279Y-94025204D01*
X144166490Y-94066490D01*
X144002936Y-94311266D01*
X143960000Y-94527119D01*
X143960000Y-94527122D01*
X143945504Y-94599999D01*
X143960000Y-94672876D01*
X143960000Y-98547124D01*
X143945504Y-98620001D01*
X143960000Y-98692880D01*
X143960000Y-98692881D01*
X143974345Y-98765000D01*
X141778711Y-98765000D01*
X141736280Y-98722569D01*
X141736280Y-98722569D01*
G37*
X141736280Y-98722569D02*
X141355874Y-98565000D01*
X140944126Y-98565000D01*
X140563720Y-98722569D01*
X140521289Y-98765000D01*
X138977000Y-98765000D01*
X138977000Y-98025188D01*
X138985000Y-98005874D01*
X138985000Y-97594126D01*
X138977000Y-97574812D01*
X138977000Y-97500000D01*
X138967333Y-97451399D01*
X138939803Y-97410197D01*
X138898601Y-97382667D01*
X138897304Y-97382409D01*
X138827431Y-97213720D01*
X138690000Y-97076289D01*
X138689999Y-91728722D01*
X138827431Y-91591290D01*
X138985000Y-91210884D01*
X138985000Y-91040006D01*
X142525438Y-91040006D01*
X142672771Y-91187339D01*
X142837258Y-91255471D01*
X142860197Y-91289803D01*
X142901399Y-91317333D01*
X142950000Y-91327000D01*
X143009943Y-91327000D01*
X143053177Y-91344908D01*
X143464925Y-91344908D01*
X143508159Y-91327000D01*
X144290045Y-91327000D01*
X144834766Y-91871721D01*
X144876052Y-91933510D01*
X145120828Y-92097064D01*
X145336681Y-92140000D01*
X145409562Y-92154497D01*
X145482443Y-92140000D01*
X147523000Y-92140000D01*
X147523000Y-92382794D01*
X147427235Y-92401843D01*
X147217191Y-92542191D01*
X147076843Y-92752235D01*
X147027560Y-93000000D01*
X147027560Y-93460000D01*
X145172881Y-93460000D01*
X145100000Y-93445503D01*
X145027119Y-93460000D01*
X144811266Y-93502936D01*
X144566490Y-93666490D01*
X144525204Y-93728279D01*
X144228279Y-94025204D01*
X144166490Y-94066490D01*
X144002936Y-94311266D01*
X143960000Y-94527119D01*
X143960000Y-94527122D01*
X143945504Y-94599999D01*
X143960000Y-94672876D01*
X143960000Y-98547124D01*
X143945504Y-98620001D01*
X143960000Y-98692880D01*
X143960000Y-98692881D01*
X143974345Y-98765000D01*
X141778711Y-98765000D01*
X141736280Y-98722569D01*
G36*
X117984999Y-99627000D02*
X122311768Y-99627000D01*
X122377118Y-99639999D01*
X122449999Y-99654496D01*
X122522880Y-99639999D01*
X130677114Y-99639999D01*
X130749995Y-99654496D01*
X130822876Y-99639999D01*
X130888226Y-99627000D01*
X131430488Y-99627000D01*
X132575210Y-100771721D01*
X132616496Y-100833510D01*
X132861272Y-100997064D01*
X133077125Y-101040000D01*
X133150006Y-101054497D01*
X133222887Y-101040000D01*
X137017484Y-101040000D01*
X137210000Y-101232515D01*
X137210000Y-101600000D01*
X121705000Y-101600000D01*
X121685000Y-101499453D01*
X121685000Y-101254887D01*
X121591409Y-101028938D01*
X121571409Y-100928391D01*
X121514454Y-100843152D01*
X121420862Y-100617201D01*
X121247925Y-100444264D01*
X121190972Y-100359028D01*
X121105736Y-100302075D01*
X120932799Y-100129138D01*
X120706848Y-100035546D01*
X120621609Y-99978591D01*
X120521062Y-99958591D01*
X120295113Y-99865000D01*
X120050547Y-99865000D01*
X119950000Y-99845000D01*
X119849453Y-99865000D01*
X119604887Y-99865000D01*
X119378938Y-99958591D01*
X119278391Y-99978591D01*
X119193152Y-100035546D01*
X118967201Y-100129138D01*
X118794264Y-100302075D01*
X118709028Y-100359028D01*
X118652075Y-100444264D01*
X118479138Y-100617201D01*
X118385546Y-100843152D01*
X118328591Y-100928391D01*
X118308591Y-101028938D01*
X118215000Y-101254887D01*
X118215000Y-101499453D01*
X118195000Y-101600000D01*
X118215000Y-101700547D01*
X118215000Y-101945113D01*
X118308591Y-102171062D01*
X118328591Y-102271609D01*
X118385546Y-102356848D01*
X118479138Y-102582799D01*
X118652075Y-102755736D01*
X118709028Y-102840972D01*
X118794264Y-102897925D01*
X118967201Y-103070862D01*
X119193152Y-103164454D01*
X119278391Y-103221409D01*
X119378938Y-103241409D01*
X119604887Y-103335000D01*
X119849453Y-103335000D01*
X119950000Y-103355000D01*
X120050547Y-103335000D01*
X120295113Y-103335000D01*
X120521062Y-103241409D01*
X120621609Y-103221409D01*
X120706848Y-103164454D01*
X120932799Y-103070862D01*
X121105736Y-102897925D01*
X121190972Y-102840972D01*
X121247925Y-102755736D01*
X121420862Y-102582799D01*
X121514454Y-102356848D01*
X121571409Y-102271609D01*
X121591409Y-102171062D01*
X121685000Y-101945113D01*
X121685000Y-101700547D01*
X121705000Y-101600000D01*
X137210000Y-101600000D01*
X137210000Y-101680956D01*
X137201399Y-101682667D01*
X137160197Y-101710197D01*
X137132667Y-101751399D01*
X137123000Y-101800000D01*
X137123000Y-103365000D01*
X117984999Y-103365000D01*
X117984999Y-99627000D01*
X117984999Y-99627000D01*
G37*
X117984999Y-99627000D02*
X122311768Y-99627000D01*
X122377118Y-99639999D01*
X122449999Y-99654496D01*
X122522880Y-99639999D01*
X130677114Y-99639999D01*
X130749995Y-99654496D01*
X130822876Y-99639999D01*
X130888226Y-99627000D01*
X131430488Y-99627000D01*
X132575210Y-100771721D01*
X132616496Y-100833510D01*
X132861272Y-100997064D01*
X133077125Y-101040000D01*
X133150006Y-101054497D01*
X133222887Y-101040000D01*
X137017484Y-101040000D01*
X137210000Y-101232515D01*
X137210000Y-101600000D01*
X121705000Y-101600000D01*
X121685000Y-101499453D01*
X121685000Y-101254887D01*
X121591409Y-101028938D01*
X121571409Y-100928391D01*
X121514454Y-100843152D01*
X121420862Y-100617201D01*
X121247925Y-100444264D01*
X121190972Y-100359028D01*
X121105736Y-100302075D01*
X120932799Y-100129138D01*
X120706848Y-100035546D01*
X120621609Y-99978591D01*
X120521062Y-99958591D01*
X120295113Y-99865000D01*
X120050547Y-99865000D01*
X119950000Y-99845000D01*
X119849453Y-99865000D01*
X119604887Y-99865000D01*
X119378938Y-99958591D01*
X119278391Y-99978591D01*
X119193152Y-100035546D01*
X118967201Y-100129138D01*
X118794264Y-100302075D01*
X118709028Y-100359028D01*
X118652075Y-100444264D01*
X118479138Y-100617201D01*
X118385546Y-100843152D01*
X118328591Y-100928391D01*
X118308591Y-101028938D01*
X118215000Y-101254887D01*
X118215000Y-101499453D01*
X118195000Y-101600000D01*
X118215000Y-101700547D01*
X118215000Y-101945113D01*
X118308591Y-102171062D01*
X118328591Y-102271609D01*
X118385546Y-102356848D01*
X118479138Y-102582799D01*
X118652075Y-102755736D01*
X118709028Y-102840972D01*
X118794264Y-102897925D01*
X118967201Y-103070862D01*
X119193152Y-103164454D01*
X119278391Y-103221409D01*
X119378938Y-103241409D01*
X119604887Y-103335000D01*
X119849453Y-103335000D01*
X119950000Y-103355000D01*
X120050547Y-103335000D01*
X120295113Y-103335000D01*
X120521062Y-103241409D01*
X120621609Y-103221409D01*
X120706848Y-103164454D01*
X120932799Y-103070862D01*
X121105736Y-102897925D01*
X121190972Y-102840972D01*
X121247925Y-102755736D01*
X121420862Y-102582799D01*
X121514454Y-102356848D01*
X121571409Y-102271609D01*
X121591409Y-102171062D01*
X121685000Y-101945113D01*
X121685000Y-101700547D01*
X121705000Y-101600000D01*
X137210000Y-101600000D01*
X137210000Y-101680956D01*
X137201399Y-101682667D01*
X137160197Y-101710197D01*
X137132667Y-101751399D01*
X137123000Y-101800000D01*
X137123000Y-103365000D01*
X117984999Y-103365000D01*
X117984999Y-99627000D01*
M02*
