G04 #@! TF.GenerationSoftware,KiCad,Pcbnew,(5.0.0)*
G04 #@! TF.CreationDate,2019-07-10T13:20:49+09:00*
G04 #@! TF.ProjectId,top and bottom,746F7020616E6420626F74746F6D2E6B,rev?*
G04 #@! TF.SameCoordinates,Original*
G04 #@! TF.FileFunction,Soldermask,Bot*
G04 #@! TF.FilePolarity,Negative*
%FSLAX46Y46*%
G04 Gerber Fmt 4.6, Leading zero omitted, Abs format (unit mm)*
G04 Created by KiCad (PCBNEW (5.0.0)) date 07/10/19 13:20:49*
%MOMM*%
%LPD*%
G01*
G04 APERTURE LIST*
%ADD10R,0.630000X1.650000*%
%ADD11R,2.200000X2.400000*%
%ADD12R,2.600000X2.400000*%
%ADD13R,2.400000X0.810000*%
%ADD14R,1.200000X0.900000*%
%ADD15R,1.100000X1.200000*%
%ADD16R,0.650000X0.900000*%
%ADD17R,1.400000X1.600000*%
%ADD18R,1.100000X1.600000*%
%ADD19R,1.400000X1.200000*%
%ADD20R,1.400000X3.200000*%
%ADD21R,1.700000X2.300000*%
%ADD22C,2.600000*%
%ADD23R,0.900000X1.200000*%
%ADD24R,1.050000X1.800000*%
%ADD25R,1.650000X0.630000*%
%ADD26R,2.400000X2.200000*%
%ADD27R,2.400000X2.600000*%
%ADD28R,1.200000X1.100000*%
%ADD29R,1.924000X1.924000*%
%ADD30C,1.924000*%
%ADD31C,1.600000*%
%ADD32R,2.400000X2.400000*%
%ADD33C,2.400000*%
G04 APERTURE END LIST*
D10*
G04 #@! TO.C,J11*
X156050000Y-99500000D03*
X156550000Y-99500000D03*
X155050000Y-99500000D03*
D11*
X151400000Y-102175000D03*
D10*
X154550000Y-99500000D03*
X154050000Y-99500000D03*
X153050000Y-99500000D03*
X155550000Y-99500000D03*
D12*
X158150000Y-102175000D03*
X151400000Y-102175000D03*
D10*
X153550000Y-99500000D03*
G04 #@! TD*
D13*
G04 #@! TO.C,U4*
X131250000Y-77195000D03*
X136558600Y-77195000D03*
X136558600Y-80370000D03*
X131250000Y-82275000D03*
X131250000Y-79735000D03*
X136558600Y-79735000D03*
X131250000Y-77830000D03*
X131250000Y-81005000D03*
X131250000Y-80370000D03*
X136558600Y-79100000D03*
X136558600Y-78465000D03*
X131250000Y-78465000D03*
X131250000Y-82910000D03*
X136558600Y-81005000D03*
X131250000Y-79100000D03*
X136558600Y-77830000D03*
X131250000Y-81640000D03*
X136558600Y-82910000D03*
X136558600Y-81640000D03*
X136558600Y-82275000D03*
G04 #@! TD*
D14*
G04 #@! TO.C,R28*
X140850000Y-77000000D03*
X140850000Y-78500000D03*
G04 #@! TD*
G04 #@! TO.C,R29*
X142450000Y-78500000D03*
X142450000Y-77000000D03*
G04 #@! TD*
G04 #@! TO.C,R27*
X144050000Y-78500000D03*
X144050000Y-77000000D03*
G04 #@! TD*
D15*
G04 #@! TO.C,C27*
X131225000Y-74600000D03*
X129725000Y-74600000D03*
G04 #@! TD*
G04 #@! TO.C,C26*
X129575000Y-84800000D03*
X128075000Y-84800000D03*
G04 #@! TD*
G04 #@! TO.C,C25*
X138050000Y-74600000D03*
X136550000Y-74600000D03*
G04 #@! TD*
G04 #@! TO.C,C24*
X139750000Y-84700000D03*
X138250000Y-84700000D03*
G04 #@! TD*
D16*
G04 #@! TO.C,RN3*
X183520000Y-92390000D03*
X182020000Y-93390000D03*
X182020000Y-92390000D03*
X183520000Y-93390000D03*
X182520000Y-93390000D03*
X183020000Y-93390000D03*
X183020000Y-92390000D03*
X182520000Y-92390000D03*
G04 #@! TD*
D17*
G04 #@! TO.C,U3*
X186150000Y-87900000D03*
D18*
X176900000Y-87900000D03*
X183500000Y-87900000D03*
X182400000Y-87900000D03*
X181300000Y-87900000D03*
X180200000Y-87900000D03*
X179100000Y-87900000D03*
X178000000Y-87900000D03*
X184600000Y-87900000D03*
X175950000Y-87900000D03*
D19*
X175000000Y-77400000D03*
D17*
X175000000Y-83600000D03*
D20*
X175000000Y-73250000D03*
D21*
X188500000Y-72800000D03*
G04 #@! TD*
D22*
G04 #@! TO.C,REF\002A\002A*
X119950000Y-101600000D03*
G04 #@! TD*
D17*
G04 #@! TO.C,Y1*
X164150000Y-93700000D03*
X164150000Y-95900000D03*
X166050000Y-95900000D03*
X166050000Y-93700000D03*
G04 #@! TD*
D14*
G04 #@! TO.C,R24*
X156750000Y-74500000D03*
X156750000Y-73000000D03*
G04 #@! TD*
G04 #@! TO.C,R19*
X176850000Y-89600000D03*
X176850000Y-91100000D03*
G04 #@! TD*
G04 #@! TO.C,L1*
X165250000Y-85900000D03*
X165250000Y-84400000D03*
G04 #@! TD*
D23*
G04 #@! TO.C,R6*
X159900000Y-94550000D03*
X161400000Y-94550000D03*
G04 #@! TD*
D14*
G04 #@! TO.C,R22*
X152750000Y-74500000D03*
X152750000Y-73000000D03*
G04 #@! TD*
D23*
G04 #@! TO.C,R20*
X172950000Y-80300000D03*
X171450000Y-80300000D03*
G04 #@! TD*
G04 #@! TO.C,R21*
X184650000Y-90100000D03*
X186150000Y-90100000D03*
G04 #@! TD*
D24*
G04 #@! TO.C,Y2*
X165650000Y-91525000D03*
X164000000Y-91525000D03*
X165650000Y-89320000D03*
X164000000Y-89320000D03*
G04 #@! TD*
D14*
G04 #@! TO.C,R23*
X154750000Y-74500000D03*
X154750000Y-73000000D03*
G04 #@! TD*
D16*
G04 #@! TO.C,RN2*
X169580000Y-100340000D03*
X169080000Y-100340000D03*
X169080000Y-99340000D03*
X169580000Y-99340000D03*
X168580000Y-99340000D03*
X170080000Y-100340000D03*
X170080000Y-99340000D03*
X168580000Y-100340000D03*
G04 #@! TD*
D25*
G04 #@! TO.C,J1*
X114450000Y-86900000D03*
X114450000Y-86400000D03*
X114450000Y-85900000D03*
X114450000Y-85400000D03*
X114450000Y-84900000D03*
X114450000Y-84400000D03*
X114450000Y-83900000D03*
X114450000Y-83400000D03*
X114450000Y-82900000D03*
X114450000Y-82400000D03*
X114450000Y-81900000D03*
X114450000Y-81400000D03*
X114450000Y-80900000D03*
D26*
X111775000Y-78750000D03*
X111775000Y-88550000D03*
D25*
X114450000Y-80400000D03*
D27*
X111775000Y-88550000D03*
X111775000Y-78750000D03*
G04 #@! TD*
D15*
G04 #@! TO.C,C21*
X163825000Y-102450000D03*
X165325000Y-102450000D03*
G04 #@! TD*
G04 #@! TO.C,C19*
X173125000Y-102950000D03*
X174625000Y-102950000D03*
G04 #@! TD*
G04 #@! TO.C,C18*
X138725000Y-101500000D03*
X137225000Y-101500000D03*
G04 #@! TD*
D28*
G04 #@! TO.C,C1*
X167650000Y-93625000D03*
X167650000Y-95125000D03*
G04 #@! TD*
D22*
G04 #@! TO.C,REF\002A\002A*
X189550000Y-101600000D03*
G04 #@! TD*
D28*
G04 #@! TO.C,C4*
X163550000Y-85900000D03*
X163550000Y-84400000D03*
G04 #@! TD*
D29*
G04 #@! TO.C,SW4*
X196550000Y-89000000D03*
D30*
X194010000Y-89000000D03*
X191470000Y-89000000D03*
X196550000Y-81380000D03*
X194010000Y-81380000D03*
X191470000Y-81380000D03*
G04 #@! TD*
D15*
G04 #@! TO.C,C9*
X149975000Y-78600000D03*
X151475000Y-78600000D03*
G04 #@! TD*
G04 #@! TO.C,C6*
X159900000Y-93150000D03*
X161400000Y-93150000D03*
G04 #@! TD*
D28*
G04 #@! TO.C,C3*
X167650000Y-89400000D03*
X167650000Y-90900000D03*
G04 #@! TD*
D22*
G04 #@! TO.C,REF\002A\002A*
X197050000Y-73600000D03*
G04 #@! TD*
D15*
G04 #@! TO.C,C10*
X148025000Y-93400000D03*
X146525000Y-93400000D03*
G04 #@! TD*
G04 #@! TO.C,C8*
X152950000Y-77200000D03*
X151450000Y-77200000D03*
G04 #@! TD*
G04 #@! TO.C,C7*
X156550000Y-78600000D03*
X158050000Y-78600000D03*
G04 #@! TD*
D22*
G04 #@! TO.C,REF\002A\002A*
X112450000Y-73600000D03*
G04 #@! TD*
D31*
G04 #@! TO.C,SW2*
X121950000Y-132550000D03*
X121950000Y-130050000D03*
X121950000Y-127550000D03*
G04 #@! TD*
D30*
G04 #@! TO.C,J3*
X159250000Y-129350000D03*
X161750000Y-129350000D03*
G04 #@! TD*
D28*
G04 #@! TO.C,C39*
X130550000Y-130875000D03*
X130550000Y-132375000D03*
G04 #@! TD*
D16*
G04 #@! TO.C,RN2*
X173720000Y-112240000D03*
X172220000Y-113240000D03*
X172220000Y-112240000D03*
X173720000Y-113240000D03*
X172720000Y-113240000D03*
X173220000Y-113240000D03*
X173220000Y-112240000D03*
X172720000Y-112240000D03*
G04 #@! TD*
G04 #@! TO.C,RN3*
X155820000Y-112140000D03*
X156320000Y-112140000D03*
X156320000Y-113140000D03*
X155820000Y-113140000D03*
X156820000Y-113140000D03*
X155320000Y-112140000D03*
X155320000Y-113140000D03*
X156820000Y-112140000D03*
G04 #@! TD*
D14*
G04 #@! TO.C,R27*
X156050000Y-118350000D03*
X156050000Y-116850000D03*
G04 #@! TD*
D28*
G04 #@! TO.C,C17*
X166750000Y-112075000D03*
X166750000Y-113575000D03*
G04 #@! TD*
D15*
G04 #@! TO.C,C25*
X158175000Y-112650000D03*
X159675000Y-112650000D03*
G04 #@! TD*
G04 #@! TO.C,C10*
X141275000Y-112650000D03*
X142775000Y-112650000D03*
G04 #@! TD*
G04 #@! TO.C,C21*
X178525000Y-112750000D03*
X180025000Y-112750000D03*
G04 #@! TD*
D32*
G04 #@! TO.C,J6*
X115700000Y-131300000D03*
D33*
X118200000Y-131300000D03*
G04 #@! TD*
D15*
G04 #@! TO.C,C24*
X163125000Y-112650000D03*
X161625000Y-112650000D03*
G04 #@! TD*
D14*
G04 #@! TO.C,R8*
X146650000Y-116850000D03*
X146650000Y-118350000D03*
G04 #@! TD*
G04 #@! TO.C,R21*
X178150000Y-116950000D03*
X178150000Y-118450000D03*
G04 #@! TD*
G04 #@! TO.C,R19*
X154650000Y-115850000D03*
X154650000Y-114350000D03*
G04 #@! TD*
G04 #@! TO.C,R10*
X141650000Y-116850000D03*
X141650000Y-118350000D03*
G04 #@! TD*
D28*
G04 #@! TO.C,C16*
X183650000Y-112175000D03*
X183650000Y-113675000D03*
G04 #@! TD*
D15*
G04 #@! TO.C,C22*
X175075000Y-112750000D03*
X176575000Y-112750000D03*
G04 #@! TD*
D16*
G04 #@! TO.C,RN1*
X138920000Y-112140000D03*
X139420000Y-112140000D03*
X139420000Y-113140000D03*
X138920000Y-113140000D03*
X139920000Y-113140000D03*
X138420000Y-112140000D03*
X138420000Y-113140000D03*
X139920000Y-112140000D03*
G04 #@! TD*
D14*
G04 #@! TO.C,R20*
X180450000Y-116950000D03*
X180450000Y-118450000D03*
G04 #@! TD*
G04 #@! TO.C,R18*
X171550000Y-115950000D03*
X171550000Y-114450000D03*
G04 #@! TD*
G04 #@! TO.C,R11*
X139150000Y-116850000D03*
X139150000Y-118350000D03*
G04 #@! TD*
G04 #@! TO.C,R7*
X137750000Y-114350000D03*
X137750000Y-115850000D03*
G04 #@! TD*
D30*
G04 #@! TO.C,J2*
X178650000Y-129450000D03*
X176150000Y-129450000D03*
G04 #@! TD*
G04 #@! TO.C,J1*
X142350000Y-129350000D03*
X144850000Y-129350000D03*
G04 #@! TD*
D14*
G04 #@! TO.C,R26*
X158550000Y-116850000D03*
X158550000Y-118350000D03*
G04 #@! TD*
G04 #@! TO.C,R25*
X161250000Y-118350000D03*
X161250000Y-116850000D03*
G04 #@! TD*
G04 #@! TO.C,R24*
X163550000Y-116850000D03*
X163550000Y-118350000D03*
G04 #@! TD*
G04 #@! TO.C,R23*
X172950000Y-116950000D03*
X172950000Y-118450000D03*
G04 #@! TD*
G04 #@! TO.C,R9*
X144350000Y-118350000D03*
X144350000Y-116850000D03*
G04 #@! TD*
G04 #@! TO.C,R22*
X175450000Y-116950000D03*
X175450000Y-118450000D03*
G04 #@! TD*
D28*
G04 #@! TO.C,C6*
X149850000Y-113575000D03*
X149850000Y-112075000D03*
G04 #@! TD*
D22*
G04 #@! TO.C,REF\002A\002A*
X197050000Y-136250000D03*
G04 #@! TD*
G04 #@! TO.C,REF\002A\002A*
X112450000Y-136250000D03*
G04 #@! TD*
D15*
G04 #@! TO.C,C9*
X144725000Y-112650000D03*
X146225000Y-112650000D03*
G04 #@! TD*
D22*
G04 #@! TO.C,REF\002A\002A*
X189550000Y-108250000D03*
G04 #@! TD*
G04 #@! TO.C,REF\002A\002A*
X119950000Y-108250000D03*
G04 #@! TD*
M02*
