G04 #@! TF.GenerationSoftware,KiCad,Pcbnew,(5.0.0)*
G04 #@! TF.CreationDate,2019-07-10T13:20:49+09:00*
G04 #@! TF.ProjectId,top and bottom,746F7020616E6420626F74746F6D2E6B,rev?*
G04 #@! TF.SameCoordinates,Original*
G04 #@! TF.FileFunction,Soldermask,Top*
G04 #@! TF.FilePolarity,Negative*
%FSLAX46Y46*%
G04 Gerber Fmt 4.6, Leading zero omitted, Abs format (unit mm)*
G04 Created by KiCad (PCBNEW (5.0.0)) date 07/10/19 13:20:49*
%MOMM*%
%LPD*%
G01*
G04 APERTURE LIST*
%ADD10R,1.200000X1.200000*%
%ADD11R,1.200000X1.100000*%
%ADD12R,2.000000X2.900000*%
%ADD13R,1.600000X2.600000*%
%ADD14R,2.000000X3.900000*%
%ADD15R,1.950000X1.000000*%
%ADD16R,2.200000X1.600000*%
%ADD17R,0.900000X1.200000*%
%ADD18C,2.600000*%
%ADD19R,1.275000X1.200000*%
%ADD20R,0.600000X0.950000*%
%ADD21R,0.950000X0.600000*%
%ADD22R,2.000000X1.050000*%
%ADD23R,1.900000X1.050000*%
%ADD24R,0.900000X0.650000*%
%ADD25R,1.200000X0.900000*%
%ADD26R,1.600000X2.200000*%
%ADD27R,1.000000X1.950000*%
%ADD28R,1.200000X1.300000*%
%ADD29R,1.150000X0.900000*%
%ADD30R,0.680000X1.600000*%
%ADD31R,1.600000X0.680000*%
%ADD32R,1.100000X1.200000*%
%ADD33R,1.924000X1.924000*%
%ADD34C,1.924000*%
%ADD35R,3.400000X2.000000*%
%ADD36R,0.730000X1.600000*%
%ADD37R,1.600000X0.730000*%
%ADD38R,1.700000X0.730000*%
%ADD39C,1.600000*%
%ADD40R,1.120000X2.180000*%
%ADD41R,3.134000X2.559000*%
%ADD42R,2.400000X1.600000*%
%ADD43R,0.800000X1.500000*%
%ADD44R,1.942500X1.600000*%
%ADD45R,2.400000X2.400000*%
%ADD46C,2.400000*%
%ADD47R,2.400000X2.600000*%
%ADD48R,1.650000X0.630000*%
%ADD49R,2.400000X2.200000*%
%ADD50R,1.100000X0.900000*%
%ADD51R,1.900000X1.400000*%
%ADD52R,1.900000X3.700000*%
%ADD53R,2.000000X3.400000*%
%ADD54R,7.400000X5.900000*%
%ADD55R,3.600000X1.600000*%
G04 APERTURE END LIST*
D10*
G04 #@! TO.C,D2*
X126050000Y-94800000D03*
X127550000Y-94800000D03*
G04 #@! TD*
D11*
G04 #@! TO.C,C22*
X124250000Y-77800000D03*
X124250000Y-79300000D03*
G04 #@! TD*
D12*
G04 #@! TO.C,RV2*
X142750000Y-79000000D03*
D13*
X141750000Y-75750000D03*
X143750000Y-75750000D03*
G04 #@! TD*
D14*
G04 #@! TO.C,C23*
X119750000Y-73700000D03*
X119750000Y-79100000D03*
G04 #@! TD*
D15*
G04 #@! TO.C,J7*
X187850000Y-93600000D03*
X187850000Y-94600000D03*
X187850000Y-95600000D03*
X187850000Y-96600000D03*
D16*
X190375000Y-92300000D03*
X190375000Y-97900000D03*
G04 #@! TD*
D13*
G04 #@! TO.C,RV3*
X139850000Y-75750000D03*
X137850000Y-75750000D03*
D12*
X138850000Y-79000000D03*
G04 #@! TD*
D17*
G04 #@! TO.C,R26*
X126050000Y-96800000D03*
X127550000Y-96800000D03*
G04 #@! TD*
D13*
G04 #@! TO.C,RV4*
X135950000Y-75700000D03*
X133950000Y-75700000D03*
D12*
X134950000Y-78950000D03*
G04 #@! TD*
D10*
G04 #@! TO.C,D1*
X129750000Y-94800000D03*
X131250000Y-94800000D03*
G04 #@! TD*
D13*
G04 #@! TO.C,RV6*
X128050000Y-75700000D03*
X126050000Y-75700000D03*
D12*
X127050000Y-78950000D03*
G04 #@! TD*
G04 #@! TO.C,RV5*
X131050000Y-79000000D03*
D13*
X130050000Y-75750000D03*
X132050000Y-75750000D03*
G04 #@! TD*
D12*
G04 #@! TO.C,RV1*
X146650000Y-79000000D03*
D13*
X145650000Y-75750000D03*
X147650000Y-75750000D03*
G04 #@! TD*
D18*
G04 #@! TO.C,REF\002A\002A*
X119950000Y-101600000D03*
G04 #@! TD*
D17*
G04 #@! TO.C,R25*
X129750000Y-96800000D03*
X131250000Y-96800000D03*
G04 #@! TD*
D19*
G04 #@! TO.C,U2*
X155220000Y-101100000D03*
X155220000Y-100300000D03*
D20*
X155785000Y-99140000D03*
D21*
X153225000Y-100500000D03*
D20*
X154585000Y-99140000D03*
D21*
X156345000Y-99700000D03*
X156345000Y-101300000D03*
X156345000Y-100900000D03*
D20*
X155385000Y-99140000D03*
X153785000Y-102260000D03*
D21*
X153225000Y-100100000D03*
D19*
X154350000Y-101100000D03*
D20*
X154185000Y-102260000D03*
X154985000Y-99140000D03*
D21*
X153225000Y-100900000D03*
D20*
X153785000Y-99140000D03*
D21*
X156345000Y-100100000D03*
D20*
X154985000Y-102260000D03*
D21*
X153225000Y-101300000D03*
D20*
X155785000Y-102260000D03*
D21*
X153225000Y-101700000D03*
X153225000Y-99700000D03*
X156345000Y-101700000D03*
D20*
X155385000Y-102260000D03*
D21*
X156345000Y-100500000D03*
D19*
X154350000Y-100300000D03*
D20*
X154585000Y-102260000D03*
X154185000Y-99140000D03*
G04 #@! TD*
D22*
G04 #@! TO.C,SW5*
X167150000Y-76800000D03*
D23*
X162350000Y-76800000D03*
D22*
X167150000Y-78950000D03*
D23*
X162350000Y-78950000D03*
G04 #@! TD*
D22*
G04 #@! TO.C,SW2*
X187150000Y-76800000D03*
D23*
X182350000Y-76800000D03*
D22*
X187150000Y-78950000D03*
D23*
X182350000Y-78950000D03*
G04 #@! TD*
D24*
G04 #@! TO.C,RN1*
X149950000Y-97100000D03*
X149950000Y-96600000D03*
X148950000Y-96600000D03*
X148950000Y-97100000D03*
X148950000Y-96100000D03*
X149950000Y-97600000D03*
X148950000Y-97600000D03*
X149950000Y-96100000D03*
G04 #@! TD*
D25*
G04 #@! TO.C,R15*
X185250000Y-94600000D03*
X185250000Y-93100000D03*
G04 #@! TD*
G04 #@! TO.C,R10*
X127050000Y-81800000D03*
X127050000Y-83300000D03*
G04 #@! TD*
G04 #@! TO.C,R4*
X138850000Y-81800000D03*
X138850000Y-83300000D03*
G04 #@! TD*
D26*
G04 #@! TO.C,J9*
X171150000Y-101862500D03*
X176750000Y-101862500D03*
D27*
X172450000Y-99337500D03*
X173450000Y-99337500D03*
X174450000Y-99337500D03*
X175450000Y-99337500D03*
G04 #@! TD*
D25*
G04 #@! TO.C,R13*
X184650000Y-75300000D03*
X184650000Y-73800000D03*
G04 #@! TD*
D22*
G04 #@! TO.C,SW3*
X176750000Y-76750000D03*
D23*
X171950000Y-76750000D03*
D22*
X176750000Y-78900000D03*
D23*
X171950000Y-78900000D03*
G04 #@! TD*
D22*
G04 #@! TO.C,SW1*
X176950000Y-89050000D03*
D23*
X172150000Y-89050000D03*
D22*
X176950000Y-91200000D03*
D23*
X172150000Y-91200000D03*
G04 #@! TD*
D17*
G04 #@! TO.C,R7*
X145550000Y-96200000D03*
X147050000Y-96200000D03*
G04 #@! TD*
D25*
G04 #@! TO.C,R12*
X176450000Y-73700000D03*
X176450000Y-75200000D03*
G04 #@! TD*
G04 #@! TO.C,R18*
X164550000Y-75400000D03*
X164550000Y-73900000D03*
G04 #@! TD*
G04 #@! TO.C,R17*
X183850000Y-94600000D03*
X183850000Y-93100000D03*
G04 #@! TD*
G04 #@! TO.C,R2*
X146650000Y-81800000D03*
X146650000Y-83300000D03*
G04 #@! TD*
D26*
G04 #@! TO.C,J10*
X161850000Y-101862500D03*
X167450000Y-101862500D03*
D27*
X163150000Y-99337500D03*
X164150000Y-99337500D03*
X165150000Y-99337500D03*
X166150000Y-99337500D03*
G04 #@! TD*
D28*
G04 #@! TO.C,Q1*
X147700000Y-99600000D03*
X145020000Y-99600000D03*
X146350000Y-101600000D03*
G04 #@! TD*
D29*
G04 #@! TO.C,LED1*
X153950000Y-74100000D03*
X155500000Y-74100000D03*
X155500000Y-73100000D03*
X153950000Y-73100000D03*
G04 #@! TD*
D17*
G04 #@! TO.C,R1*
X170150000Y-88800000D03*
X168650000Y-88800000D03*
G04 #@! TD*
D27*
G04 #@! TO.C,J8*
X138950000Y-99400000D03*
X137950000Y-99400000D03*
X136950000Y-99400000D03*
D26*
X140250000Y-101925000D03*
X135650000Y-101925000D03*
G04 #@! TD*
D25*
G04 #@! TO.C,R16*
X166750000Y-73900000D03*
X166750000Y-75400000D03*
G04 #@! TD*
G04 #@! TO.C,R9*
X131050000Y-81800000D03*
X131050000Y-83300000D03*
G04 #@! TD*
G04 #@! TO.C,R5*
X134950000Y-81800000D03*
X134950000Y-83300000D03*
G04 #@! TD*
D30*
G04 #@! TO.C,U1*
X158500000Y-93350000D03*
X158000000Y-93350000D03*
X157500000Y-93350000D03*
X157000000Y-93350000D03*
X156500000Y-93350000D03*
X156000000Y-93350000D03*
X155500000Y-93350000D03*
X155000000Y-93350000D03*
X154500000Y-93350000D03*
X154000000Y-93350000D03*
X153500000Y-93350000D03*
X153000000Y-93350000D03*
X152500000Y-93350000D03*
X152000000Y-93350000D03*
X151500000Y-93350000D03*
X151000000Y-93350000D03*
D31*
X149000000Y-91350000D03*
X149000000Y-90850000D03*
X149000000Y-90350000D03*
X149000000Y-89850000D03*
X149000000Y-89350000D03*
X149000000Y-88850000D03*
X149000000Y-88350000D03*
X149000000Y-87850000D03*
X149000000Y-87350000D03*
X149000000Y-86850000D03*
X149000000Y-86350000D03*
X149000000Y-85850000D03*
X149000000Y-85350000D03*
X149000000Y-84850000D03*
X149000000Y-84350000D03*
X149000000Y-83850000D03*
D30*
X151000000Y-81850000D03*
X151500000Y-81850000D03*
X152000000Y-81850000D03*
X152500000Y-81850000D03*
X153000000Y-81850000D03*
X153500000Y-81850000D03*
X154000000Y-81850000D03*
X154500000Y-81850000D03*
X155000000Y-81850000D03*
X155500000Y-81850000D03*
X156000000Y-81850000D03*
X156500000Y-81850000D03*
X157000000Y-81850000D03*
X157500000Y-81850000D03*
X158000000Y-81850000D03*
X158500000Y-81850000D03*
D31*
X160500000Y-83850000D03*
X160500000Y-84350000D03*
X160500000Y-84850000D03*
X160500000Y-85350000D03*
X160500000Y-85850000D03*
X160500000Y-86350000D03*
X160500000Y-86850000D03*
X160500000Y-87350000D03*
X160500000Y-87850000D03*
X160500000Y-88350000D03*
X160500000Y-88850000D03*
X160500000Y-89350000D03*
X160500000Y-89850000D03*
X160500000Y-90350000D03*
X160500000Y-90850000D03*
X160500000Y-91350000D03*
G04 #@! TD*
D25*
G04 #@! TO.C,R14*
X174150000Y-75200000D03*
X174150000Y-73700000D03*
G04 #@! TD*
G04 #@! TO.C,R3*
X142750000Y-81800000D03*
X142750000Y-83300000D03*
G04 #@! TD*
D15*
G04 #@! TO.C,J6*
X121812500Y-96100000D03*
X121812500Y-95100000D03*
X121812500Y-94100000D03*
X121812500Y-93100000D03*
D16*
X119287500Y-97400000D03*
X119287500Y-91800000D03*
G04 #@! TD*
D25*
G04 #@! TO.C,R11*
X186850000Y-73800000D03*
X186850000Y-75300000D03*
G04 #@! TD*
D17*
G04 #@! TO.C,R8*
X147050000Y-97600000D03*
X145550000Y-97600000D03*
G04 #@! TD*
D27*
G04 #@! TO.C,J5*
X183750000Y-99300000D03*
X182750000Y-99300000D03*
X181750000Y-99300000D03*
D26*
X185050000Y-101825000D03*
X180450000Y-101825000D03*
G04 #@! TD*
D15*
G04 #@! TO.C,J4*
X114312500Y-85800000D03*
X114312500Y-84800000D03*
X114312500Y-83800000D03*
X114312500Y-82800000D03*
X114312500Y-81800000D03*
X114312500Y-80800000D03*
D16*
X111787500Y-87100000D03*
X111787500Y-79500000D03*
G04 #@! TD*
D11*
G04 #@! TO.C,C17*
X162350000Y-73900000D03*
X162350000Y-75400000D03*
G04 #@! TD*
D32*
G04 #@! TO.C,C20*
X181325000Y-86000000D03*
X179825000Y-86000000D03*
G04 #@! TD*
D11*
G04 #@! TO.C,C16*
X182450000Y-93100000D03*
X182450000Y-94600000D03*
G04 #@! TD*
G04 #@! TO.C,C15*
X159550000Y-100200000D03*
X159550000Y-98700000D03*
G04 #@! TD*
D18*
G04 #@! TO.C,REF\002A\002A*
X189550000Y-101600000D03*
G04 #@! TD*
D32*
G04 #@! TO.C,C12*
X158000000Y-101750000D03*
X159500000Y-101750000D03*
G04 #@! TD*
D27*
G04 #@! TO.C,J3*
X129550000Y-99400000D03*
X128550000Y-99400000D03*
X127550000Y-99400000D03*
D26*
X130850000Y-101925000D03*
X126250000Y-101925000D03*
G04 #@! TD*
D11*
G04 #@! TO.C,C13*
X182450000Y-73825000D03*
X182450000Y-75325000D03*
G04 #@! TD*
G04 #@! TO.C,C11*
X157750000Y-100175000D03*
X157750000Y-98675000D03*
G04 #@! TD*
D33*
G04 #@! TO.C,SW4*
X196550000Y-89000000D03*
D34*
X194010000Y-89000000D03*
X191470000Y-89000000D03*
X196550000Y-81380000D03*
X194010000Y-81380000D03*
X191470000Y-81380000D03*
G04 #@! TD*
D11*
G04 #@! TO.C,C5*
X143950000Y-97600000D03*
X143950000Y-96100000D03*
G04 #@! TD*
D18*
G04 #@! TO.C,REF\002A\002A*
X197050000Y-73600000D03*
G04 #@! TD*
D11*
G04 #@! TO.C,C14*
X171950000Y-73700000D03*
X171950000Y-75200000D03*
G04 #@! TD*
G04 #@! TO.C,C2*
X170150000Y-90100000D03*
X170150000Y-91600000D03*
G04 #@! TD*
D18*
G04 #@! TO.C,REF\002A\002A*
X112450000Y-73600000D03*
G04 #@! TD*
D10*
G04 #@! TO.C,D2*
X130050000Y-114650000D03*
X130050000Y-116150000D03*
G04 #@! TD*
D35*
G04 #@! TO.C,C42*
X119450000Y-114350000D03*
X123850000Y-114350000D03*
G04 #@! TD*
D25*
G04 #@! TO.C,R15*
X169150000Y-121750000D03*
X169150000Y-120250000D03*
G04 #@! TD*
G04 #@! TO.C,R31*
X130550000Y-125950000D03*
X130550000Y-127450000D03*
G04 #@! TD*
G04 #@! TO.C,R32*
X128150000Y-114650000D03*
X128150000Y-116150000D03*
G04 #@! TD*
D36*
G04 #@! TO.C,Q1*
X116750000Y-127100000D03*
X116750000Y-123300000D03*
D37*
X118850000Y-124200000D03*
X118850000Y-124900000D03*
X118850000Y-125550000D03*
X118850000Y-126200000D03*
D38*
X114550000Y-126200000D03*
X114550000Y-125550000D03*
X114550000Y-124900000D03*
X114550000Y-124250000D03*
G04 #@! TD*
D39*
G04 #@! TO.C,SW2*
X121950000Y-132550000D03*
X121950000Y-130050000D03*
X121950000Y-127550000D03*
G04 #@! TD*
D34*
G04 #@! TO.C,J3*
X159250000Y-129350000D03*
X161750000Y-129350000D03*
G04 #@! TD*
D25*
G04 #@! TO.C,R12*
X186150000Y-121350000D03*
X186150000Y-119850000D03*
G04 #@! TD*
D40*
G04 #@! TO.C,FET2*
X141680000Y-124030000D03*
X140410000Y-124030000D03*
X139140000Y-124030000D03*
X142950000Y-124030000D03*
X139140000Y-119350000D03*
X140410000Y-119350000D03*
X141680000Y-119350000D03*
X142950000Y-119350000D03*
G04 #@! TD*
D41*
G04 #@! TO.C,D6*
X132950000Y-137070000D03*
X132950000Y-132650000D03*
G04 #@! TD*
D14*
G04 #@! TO.C,C38*
X127550000Y-130650000D03*
X127550000Y-136050000D03*
G04 #@! TD*
D10*
G04 #@! TO.C,D1*
X132350000Y-125950000D03*
X132350000Y-127450000D03*
G04 #@! TD*
D32*
G04 #@! TO.C,C40*
X127575000Y-126050000D03*
X129075000Y-126050000D03*
G04 #@! TD*
D42*
G04 #@! TO.C,C12*
X146050000Y-133850000D03*
X146050000Y-137450000D03*
G04 #@! TD*
D40*
G04 #@! TO.C,FET6*
X158580000Y-124030000D03*
X157310000Y-124030000D03*
X156040000Y-124030000D03*
X159850000Y-124030000D03*
X156040000Y-119350000D03*
X157310000Y-119350000D03*
X158580000Y-119350000D03*
X159850000Y-119350000D03*
G04 #@! TD*
D14*
G04 #@! TO.C,C13*
X189550000Y-136050000D03*
X189550000Y-130650000D03*
G04 #@! TD*
D40*
G04 #@! TO.C,FET5*
X165050000Y-119350000D03*
X163780000Y-119350000D03*
X162510000Y-119350000D03*
X161240000Y-119350000D03*
X165050000Y-124030000D03*
X161240000Y-124030000D03*
X162510000Y-124030000D03*
X163780000Y-124030000D03*
G04 #@! TD*
D42*
G04 #@! TO.C,C29*
X158050000Y-137450000D03*
X158050000Y-133850000D03*
G04 #@! TD*
G04 #@! TO.C,C28*
X174950000Y-137550000D03*
X174950000Y-133950000D03*
G04 #@! TD*
D11*
G04 #@! TO.C,C19*
X166750000Y-113525000D03*
X166750000Y-112025000D03*
G04 #@! TD*
G04 #@! TO.C,C15*
X166750000Y-110875000D03*
X166750000Y-109375000D03*
G04 #@! TD*
D42*
G04 #@! TO.C,C27*
X162950000Y-133850000D03*
X162950000Y-137450000D03*
G04 #@! TD*
G04 #@! TO.C,C11*
X141150000Y-137450000D03*
X141150000Y-133850000D03*
G04 #@! TD*
D40*
G04 #@! TO.C,FET4*
X176750000Y-119450000D03*
X175480000Y-119450000D03*
X174210000Y-119450000D03*
X172940000Y-119450000D03*
X176750000Y-124130000D03*
X172940000Y-124130000D03*
X174210000Y-124130000D03*
X175480000Y-124130000D03*
G04 #@! TD*
D43*
G04 #@! TO.C,IC2*
X173325000Y-115600000D03*
X173975000Y-115600000D03*
X174625000Y-115600000D03*
X175275000Y-115600000D03*
X175925000Y-115600000D03*
X176575000Y-115600000D03*
X177225000Y-115600000D03*
X177875000Y-115600000D03*
X178525000Y-115600000D03*
X179175000Y-115600000D03*
X179825000Y-115600000D03*
X180475000Y-115600000D03*
X181125000Y-115600000D03*
X181775000Y-115600000D03*
X181775000Y-109900000D03*
X181125000Y-109900000D03*
X180475000Y-109900000D03*
X179825000Y-109900000D03*
X179175000Y-109900000D03*
X178525000Y-109900000D03*
X177875000Y-109900000D03*
X177225000Y-109900000D03*
X176575000Y-109900000D03*
X175925000Y-109900000D03*
X175275000Y-109900000D03*
X174625000Y-109900000D03*
X173975000Y-109900000D03*
X173325000Y-109900000D03*
D44*
X179863750Y-112150000D03*
X178321250Y-112150000D03*
X176778750Y-112150000D03*
X175236250Y-112150000D03*
X179863750Y-113350000D03*
X178321250Y-113350000D03*
X176778750Y-113350000D03*
X175236250Y-113350000D03*
G04 #@! TD*
D40*
G04 #@! TO.C,FET3*
X180680000Y-124130000D03*
X179410000Y-124130000D03*
X178140000Y-124130000D03*
X181950000Y-124130000D03*
X178140000Y-119450000D03*
X179410000Y-119450000D03*
X180680000Y-119450000D03*
X181950000Y-119450000D03*
G04 #@! TD*
D42*
G04 #@! TO.C,C26*
X179850000Y-133950000D03*
X179850000Y-137550000D03*
G04 #@! TD*
D11*
G04 #@! TO.C,C20*
X183750000Y-117975000D03*
X183750000Y-119475000D03*
G04 #@! TD*
D40*
G04 #@! TO.C,FET1*
X146880000Y-124030000D03*
X145610000Y-124030000D03*
X144340000Y-124030000D03*
X148150000Y-124030000D03*
X144340000Y-119350000D03*
X145610000Y-119350000D03*
X146880000Y-119350000D03*
X148150000Y-119350000D03*
G04 #@! TD*
D45*
G04 #@! TO.C,J6*
X115700000Y-131300000D03*
D46*
X118200000Y-131300000D03*
G04 #@! TD*
D11*
G04 #@! TO.C,C23*
X166850000Y-117875000D03*
X166850000Y-119375000D03*
G04 #@! TD*
D25*
G04 #@! TO.C,R6*
X152250000Y-119050000D03*
X152250000Y-117550000D03*
G04 #@! TD*
D43*
G04 #@! TO.C,IC1*
X139525000Y-115500000D03*
X140175000Y-115500000D03*
X140825000Y-115500000D03*
X141475000Y-115500000D03*
X142125000Y-115500000D03*
X142775000Y-115500000D03*
X143425000Y-115500000D03*
X144075000Y-115500000D03*
X144725000Y-115500000D03*
X145375000Y-115500000D03*
X146025000Y-115500000D03*
X146675000Y-115500000D03*
X147325000Y-115500000D03*
X147975000Y-115500000D03*
X147975000Y-109800000D03*
X147325000Y-109800000D03*
X146675000Y-109800000D03*
X146025000Y-109800000D03*
X145375000Y-109800000D03*
X144725000Y-109800000D03*
X144075000Y-109800000D03*
X143425000Y-109800000D03*
X142775000Y-109800000D03*
X142125000Y-109800000D03*
X141475000Y-109800000D03*
X140825000Y-109800000D03*
X140175000Y-109800000D03*
X139525000Y-109800000D03*
D44*
X146063750Y-112050000D03*
X144521250Y-112050000D03*
X142978750Y-112050000D03*
X141436250Y-112050000D03*
X146063750Y-113250000D03*
X144521250Y-113250000D03*
X142978750Y-113250000D03*
X141436250Y-113250000D03*
G04 #@! TD*
D11*
G04 #@! TO.C,C14*
X183650000Y-109475000D03*
X183650000Y-110975000D03*
G04 #@! TD*
G04 #@! TO.C,C18*
X183700000Y-113625000D03*
X183700000Y-112125000D03*
G04 #@! TD*
D25*
G04 #@! TO.C,R14*
X186150000Y-117250000D03*
X186150000Y-118750000D03*
G04 #@! TD*
G04 #@! TO.C,R4*
X152250000Y-124450000D03*
X152250000Y-122950000D03*
G04 #@! TD*
D34*
G04 #@! TO.C,J2*
X178650000Y-129450000D03*
X176150000Y-129450000D03*
G04 #@! TD*
G04 #@! TO.C,J1*
X142350000Y-129350000D03*
X144850000Y-129350000D03*
G04 #@! TD*
D44*
G04 #@! TO.C,IC3*
X158336250Y-113250000D03*
X159878750Y-113250000D03*
X161421250Y-113250000D03*
X162963750Y-113250000D03*
X158336250Y-112050000D03*
X159878750Y-112050000D03*
X161421250Y-112050000D03*
X162963750Y-112050000D03*
D43*
X156425000Y-109800000D03*
X157075000Y-109800000D03*
X157725000Y-109800000D03*
X158375000Y-109800000D03*
X159025000Y-109800000D03*
X159675000Y-109800000D03*
X160325000Y-109800000D03*
X160975000Y-109800000D03*
X161625000Y-109800000D03*
X162275000Y-109800000D03*
X162925000Y-109800000D03*
X163575000Y-109800000D03*
X164225000Y-109800000D03*
X164875000Y-109800000D03*
X164875000Y-115500000D03*
X164225000Y-115500000D03*
X163575000Y-115500000D03*
X162925000Y-115500000D03*
X162275000Y-115500000D03*
X161625000Y-115500000D03*
X160975000Y-115500000D03*
X160325000Y-115500000D03*
X159675000Y-115500000D03*
X159025000Y-115500000D03*
X158375000Y-115500000D03*
X157725000Y-115500000D03*
X157075000Y-115500000D03*
X156425000Y-115500000D03*
G04 #@! TD*
D25*
G04 #@! TO.C,R5*
X152250000Y-120250000D03*
X152250000Y-121750000D03*
G04 #@! TD*
G04 #@! TO.C,R13*
X169150000Y-122950000D03*
X169150000Y-124450000D03*
G04 #@! TD*
D47*
G04 #@! TO.C,J14*
X197225000Y-121600000D03*
X197225000Y-131400000D03*
D48*
X194550000Y-123250000D03*
D49*
X197225000Y-131400000D03*
X197225000Y-121600000D03*
D48*
X194550000Y-123750000D03*
X194550000Y-124250000D03*
X194550000Y-124750000D03*
X194550000Y-125250000D03*
X194550000Y-125750000D03*
X194550000Y-126250000D03*
X194550000Y-126750000D03*
X194550000Y-127250000D03*
X194550000Y-127750000D03*
X194550000Y-128250000D03*
X194550000Y-128750000D03*
X194550000Y-129250000D03*
X194550000Y-129750000D03*
G04 #@! TD*
D25*
G04 #@! TO.C,R16*
X186150000Y-114650000D03*
X186150000Y-116150000D03*
G04 #@! TD*
G04 #@! TO.C,R17*
X169150000Y-119050000D03*
X169150000Y-117550000D03*
G04 #@! TD*
D50*
G04 #@! TO.C,C41*
X126550000Y-116150000D03*
X126550000Y-115050000D03*
G04 #@! TD*
D32*
G04 #@! TO.C,C43*
X125325000Y-106750000D03*
X123825000Y-106750000D03*
G04 #@! TD*
D11*
G04 #@! TO.C,C8*
X149950000Y-117875000D03*
X149950000Y-119375000D03*
G04 #@! TD*
D18*
G04 #@! TO.C,REF\002A\002A*
X197050000Y-136250000D03*
G04 #@! TD*
D25*
G04 #@! TO.C,R33*
X132050000Y-114650000D03*
X132050000Y-116150000D03*
G04 #@! TD*
D18*
G04 #@! TO.C,REF\002A\002A*
X112450000Y-136250000D03*
G04 #@! TD*
D51*
G04 #@! TO.C,U4*
X132150000Y-111850000D03*
X132150000Y-107250000D03*
X132150000Y-109550000D03*
D52*
X125850000Y-109550000D03*
G04 #@! TD*
D11*
G04 #@! TO.C,C7*
X149850000Y-112025000D03*
X149850000Y-113525000D03*
G04 #@! TD*
D17*
G04 #@! TO.C,R30*
X113700000Y-127400000D03*
X112200000Y-127400000D03*
G04 #@! TD*
D10*
G04 #@! TO.C,D3*
X134050000Y-114650000D03*
X134050000Y-116150000D03*
G04 #@! TD*
D53*
G04 #@! TO.C,C45*
X134450000Y-118850000D03*
X134450000Y-123250000D03*
G04 #@! TD*
D54*
G04 #@! TO.C,U3*
X123630000Y-120670000D03*
D55*
X129750000Y-118390000D03*
X129750000Y-122950000D03*
G04 #@! TD*
D11*
G04 #@! TO.C,C5*
X149850000Y-109375000D03*
X149850000Y-110875000D03*
G04 #@! TD*
G04 #@! TO.C,C44*
X134050000Y-110375000D03*
X134050000Y-111875000D03*
G04 #@! TD*
D18*
G04 #@! TO.C,REF\002A\002A*
X189550000Y-108250000D03*
G04 #@! TD*
G04 #@! TO.C,REF\002A\002A*
X119950000Y-108250000D03*
G04 #@! TD*
M02*
